<svg id="Слой_1" data-name="Слой 1" xmlns="http://www.w3.org/2000/svg" viewBox="0 0 1085.45 1620.92"><defs><style>.cls-1{fill:#a8d29f;}.cls-2{fill:#82b378;}.cls-3{fill:#ed7d2b;}.cls-4{fill:#ffb93e;}.cls-5{fill:#ffa412;}.cls-6{fill:#d1f2c9;}.cls-7{fill:#95c38b;}.cls-8{fill:#2b478b;}.cls-9{fill:#699dee;}.cls-10{fill:#92beff;}.cls-11{fill:#fcecdb;}.cls-12{fill:#efcbab;}.cls-13{fill:#ffda9f;}</style></defs><title>bag-fruits</title><path class="cls-1" d="M1598.67,736.81c-.1,1.76-.16,2.68-.16,2.68l-.85-2.61c-4.6-14.18-27.06-84.15-47.51-162.07C1521.87,467,1497.47,344,1529.58,332.66c60.84-21.55,72.06,150.69,72.23,277.78C1601.91,673.05,1599.32,724.69,1598.67,736.81Z" transform="translate(-1070.09 -155.67)"/><path class="cls-1" d="M1658.2,596.84c-22,48.77-41.06,89.8-52,114.37-4.76,10.72-8,18.29-9.23,22,1.07-6.07,3.94-22.36,8-45.54v0c6.15-34.73,15.08-84.9,24.87-139.37,23.77-132.41,52.7-290.16,59.45-312.72,11.92-39.79,66.84-124.48,103.8-50.79C1817.12,232.68,1724.45,449.85,1658.2,596.84Z" transform="translate(-1070.09 -155.67)"/><path class="cls-1" d="M1662.63,666.42c-22.72,24-41.82,43.43-52.49,54.17-5.83,5.89-9.14,9.17-9.14,9.17s5.82-12.4,15.73-32.21c9.36-18.71,22.37-44,37.58-71.73C1704.14,535,1777.5,418.64,1823,425.36,1874.91,433,1745,579.49,1662.63,666.42Z" transform="translate(-1070.09 -155.67)"/><path class="cls-2" d="M1598.67,736.81c-.32,0-.66,0-1,.07-4.6-14.18-27.06-84.15-47.51-162.07,9.54,14.29,26.78,33.44,51.66,35.63C1601.91,673.05,1599.32,724.69,1598.67,736.81Z" transform="translate(-1070.09 -155.67)"/><path class="cls-2" d="M1658.2,596.84c-22,48.77-41.06,89.8-52,114.37a199.71,199.71,0,0,1-1.2-23.51v0c6.15-34.73,15.08-84.9,24.87-139.37C1633.68,567.32,1641.65,588.38,1658.2,596.84Z" transform="translate(-1070.09 -155.67)"/><path class="cls-2" d="M1662.63,666.42c-22.72,24-41.82,43.43-52.49,54.17,1-6.17,3.43-14.19,6.59-23,9.36-18.71,22.37-44,37.58-71.73C1654.66,637.43,1656.31,654.73,1662.63,666.42Z" transform="translate(-1070.09 -155.67)"/><path class="cls-1" d="M1597,733.27c-.3,1.7-.46,2.59-.46,2.59C1596.27,735.74,1596.42,734.86,1597,733.27Z" transform="translate(-1070.09 -155.67)"/><path class="cls-3" d="M1627.46,908.34c-38.12,108-85.58,225.73-85.58,225.73l-107.22-32.13s12.55-80,31-169c21.49-103.76,33.76-208.46,77.85-235.7a83.26,83.26,0,0,1,38-11.91,93,93,0,0,1,19.19.56c1.5.2,3,.43,4.46.68a102,102,0,0,1,11,2.6q2.08.59,4.14,1.32a104.06,104.06,0,0,1,13.71,5.77c18.56,9.44,33.51,23.64,39.37,39C1691,781.42,1656.27,826.76,1627.46,908.34Z" transform="translate(-1070.09 -155.67)"/><path class="cls-4" d="M1575.07,1040.63c-28.17,85.45-36.54,179.22-25,279.27a55.92,55.92,0,0,0,44.89,48.34c16.55-.09,49.2-30.17,67.87-68.56a144.33,144.33,0,0,0,11.61-33.11c18.72-88.8,53.38-195.73,96.38-250.38,44-55.89,103.2-122.69,184.64-168.64h0c7.86-4.5,192.64-139.06,192.64-139.06,18.39-19.44-3.39-41.22-3.39-41.22s-17.55,15.39-71.09,46.22-147.54-5.3-147.58-5.31a89.67,89.67,0,0,0-83.48,5,662.44,662.44,0,0,0-143.56,117.52C1642.31,892.64,1600.59,963.27,1575.07,1040.63Z" transform="translate(-1070.09 -155.67)"/><path class="cls-5" d="M1674.47,1266.57c18.72-88.8,53.38-195.73,96.38-250.38,44-55.89,103.2-122.69,184.64-168.64h0c1.42-1,56.51-41.66-4.55-78.45-59.76-36-303.69,232.21-288.11,530.59A144.33,144.33,0,0,0,1674.47,1266.57Z" transform="translate(-1070.09 -155.67)"/><path class="cls-1" d="M1450.81,919.27a198.83,198.83,0,0,1-28.37,34.87c-42.35,41.72-108.83,72.66-194.41,71.86,0,0-35.93-34.25-53.35-77.83l0,0c-12.08-30.23-20.9-74.74,0-107.78,13.46-21.28,30.77-31.36,48.32-36.67,29.81-9.07,60.29-4.39,73.61-17.67,13.13-13.09,31.82-24.39,52.35-30.9,3.35-1.07,6.75-2,10.2-2.79h0c1.43-.34,2.85-.65,4.29-.93a.15.15,0,0,1,.09,0c31.64-6.18,65.44-.12,89,28.09a101.06,101.06,0,0,1,14.61,23.94C1482.17,837.27,1475.7,880.19,1450.81,919.27Z" transform="translate(-1070.09 -155.67)"/><path class="cls-6" d="M1201.9,835.47s-28.24,22.17-19.59,46.7,31,13.2,38-3.79S1220.47,827.23,1201.9,835.47Z" transform="translate(-1070.09 -155.67)"/><path class="cls-7" d="M1452.5,779.47a101.34,101.34,0,0,1,14.61,23.95c15.06,33.85,35.73,123.62,10.85,162.71l-33.38,30.53c-42.35,41.72-131,30.14-216.55,29.33,0,0-35.92-34.25-53.35-77.83h0S1280.56,990,1380.26,902.6C1425.55,862.88,1444.88,817.35,1452.5,779.47Z" transform="translate(-1070.09 -155.67)"/><path class="cls-1" d="M1291,734.83c-17.48-10.41-35.16,4.21-55.68,12.23s-60,7.88-60,7.88a286.81,286.81,0,0,1,42.88-46.63C1244.83,685.08,1291,734.83,1291,734.83Z" transform="translate(-1070.09 -155.67)"/><path class="cls-2" d="M1291,734.83c-16.42-13.48-46.8-21.21-61.62-15.15s-54.1,35.26-54.1,35.26a286.81,286.81,0,0,1,42.88-46.63C1244.83,685.08,1291,734.83,1291,734.83Z" transform="translate(-1070.09 -155.67)"/><path class="cls-7" d="M1296.61,786c13.13-13.09,31.82-24.39,52.35-30.9-34.9,13.09-54.15,57.33-67.4,52.2-14.2-5.51-56.93-3.71-58.56-3.63C1252.81,794.63,1283.29,799.31,1296.61,786Z" transform="translate(-1070.09 -155.67)"/><path class="cls-7" d="M1363.46,751.41c-1.1.31-2.52.62-4.29.93C1360.6,752,1362,751.69,1363.46,751.41Z" transform="translate(-1070.09 -155.67)"/><path class="cls-2" d="M1284,806.44h0c-11.19-24.73-5.14-55.4,1.9-76.78,5.61-17,16.37-40,21.65-50.91a2.85,2.85,0,0,1,5.27.36l2.13,6.45a23.25,23.25,0,0,1-2.17,19.33c-10.82,17.89-32.55,59.69-22.76,94.1C1291.15,802.87,1286,810.87,1284,806.44Z" transform="translate(-1070.09 -155.67)"/><path class="cls-8" d="M1514.42,917.92l-3.48-1.4c15.41-22.94,39.33-38.67,58.16-45.94a153.67,153.67,0,0,1,34.4-9.08,3.41,3.41,0,0,1,3,1.17l2.92,3.4a2.87,2.87,0,0,1-1.75,4.69C1590.86,873.17,1537.71,883.28,1514.42,917.92Z" transform="translate(-1070.09 -155.67)"/><path class="cls-9" d="M1448.85,924.47c17.67-44.16,42.55-34.2,73.25-21.91S1577.67,924.8,1560,969c-12.67,31.65-47.82,47.35-78.51,35.06S1436.18,956.12,1448.85,924.47Z" transform="translate(-1070.09 -155.67)"/><path class="cls-10" d="M1467.46,915.34c1.11-7.91,13.85-16.24,21.77-15.14s11.59,9.95,10.49,17.87-12,14.72-19.93,13.61A14.48,14.48,0,0,1,1467.46,915.34Z" transform="translate(-1070.09 -155.67)"/><path class="cls-11" d="M1874.93,935.59l94.79,675.25c11.76,83.75-53.27,158.55-137.84,158.55H1689.06c-72.12,0-128.26-62.63-120.42-134.32l80.22-628.13Z" transform="translate(-1070.09 -155.67)"/><path class="cls-11" d="M1377.11,935.59s229.76,78.34,497.82,0l-79,835.93H1295.73Z" transform="translate(-1070.09 -155.67)"/><path class="cls-12" d="M1377.11,935.59l94.79,677c11.76,84-53.27,159-137.84,159H1191.24c-72.12,0-128.26-62.78-120.42-134.66l67.9-701.27s33.45,6.53,114.83,6.53C1334.14,942.12,1377.11,935.59,1377.11,935.59Z" transform="translate(-1070.09 -155.67)"/><path class="cls-3" d="M1802.25,1010.87a17.8,17.8,0,1,0-26.72,15.38c7.55,59.91-4.36,108.87-34.06,138.87-27,27.26-68,37.37-118.45,29.22-44.39-7.16-73.6-56.28-90.29-96.22-12-28.73-19.42-57-23.23-73.82a17.79,17.79,0,1,0-20.45,2c9.57,43.91,45,174.26,130.73,188.1a226.06,226.06,0,0,0,35.92,3c41.11,0,75.34-12.88,100.22-38,34.06-34.39,48-89,39.9-154.86A17.77,17.77,0,0,0,1802.25,1010.87Z" transform="translate(-1070.09 -155.67)"/><path class="cls-4" d="M1437.08,1607.19c4.64,23.28,10.33,43.43,16.94,60.85,51.24,135,158.06,105.91,262.33,105.91,117.72,0,117.49-78.85,117.49-185.44s-65.21-191.28-182.92-191.28S1416.27,1502.66,1437.08,1607.19Z" transform="translate(-1070.09 -155.67)"/><path class="cls-5" d="M1905.48,1623.16c.74-108-77.78-194.74-182.62-223.53-107-29.39-195.82,42.49-195.65,147.22.17,105.2,90.85,209.4,199.36,223.4C1831.52,1783.8,1904.77,1728.19,1905.48,1623.16Z" transform="translate(-1070.09 -155.67)"/><path class="cls-13" d="M1896.06,1620.55c.7-102.6-73.91-185-173.52-212.39-101.65-27.92-186.06,40.37-185.91,139.88.16,100,86.33,199,189.43,212.28C1825.78,1773.19,1895.38,1720.35,1896.06,1620.55Z" transform="translate(-1070.09 -155.67)"/><path class="cls-4" d="M1714.65,1560.46l29.15-109.72c2.17-8.16-4.19-17.79-13-19.71a230.2,230.2,0,0,0-85.7-2.84c-8.23,1.27-11.52,10.5-6.67,18.68l67.27,113.4C1708.06,1564.33,1713.59,1564.45,1714.65,1560.46Z" transform="translate(-1070.09 -155.67)"/><path class="cls-4" d="M1739.9,1594.14l109.31,68.32c8.13,5.08,17.42,1.94,19-6.46a219.25,219.25,0,0,0,3.94-40.58,276.33,276.33,0,0,0-4-46.24c-1.54-8.88-10.76-15.48-18.67-13.38L1739.78,1585C1735.86,1586,1735.92,1591.66,1739.9,1594.14Z" transform="translate(-1070.09 -155.67)"/><path class="cls-4" d="M1733.15,1573.83l108.11-28.76c8-2.14,10.58-11.86,5.18-19.93a309.75,309.75,0,0,0-28.1-36.05,349.76,349.76,0,0,0-36.48-34.52c-7.4-6-17.14-4.29-19.73,3.53l-35.84,108.38C1725,1570.36,1729.23,1574.88,1733.15,1573.83Z" transform="translate(-1070.09 -155.67)"/><path class="cls-4" d="M1722.75,1604.3,1756.18,1725c2.49,9,12.23,14.87,20,12.06a181.88,181.88,0,0,0,34.37-16.65,196,196,0,0,0,32.46-25.76c5.64-5.56,3.46-16.15-4.39-21.45l-108.87-73.48C1725.81,1597.11,1721.54,1599.91,1722.75,1604.3Z" transform="translate(-1070.09 -155.67)"/><path class="cls-4" d="M1696.21,1563.76l-73-108.16c-5.44-8-16-10.25-21.57-4.48a176.24,176.24,0,0,0-23.4,29.77,210,210,0,0,0-18.42,38.17c-2.8,7.71,3,17.49,11.65,19.81l120.47,32.1C1696.22,1572.12,1698.87,1567.69,1696.21,1563.76Z" transform="translate(-1070.09 -155.67)"/><path class="cls-4" d="M1691.88,1580.86l-119-20.69c-8.85-1.54-15.26,5.57-13.11,14.58a277.24,277.24,0,0,0,13.54,41.9,333.65,333.65,0,0,0,22.48,44.08c5,8.14,15.33,10.72,21,5.23l78.93-76.08C1698.59,1587.15,1696.2,1581.61,1691.88,1580.86Z" transform="translate(-1070.09 -155.67)"/><path class="cls-4" d="M1702.57,1599.31l-64.17,87.77c-4.77,6.53-1.4,17.15,6.94,21.77a281.14,281.14,0,0,0,40.16,18.39A285.64,285.64,0,0,0,1731,1739.5c8.71,1.58,15-5.53,12.64-14.38l-32.06-122.68C1710.44,1598,1704.9,1596.13,1702.57,1599.31Z" transform="translate(-1070.09 -155.67)"/></svg>