<svg id="Слой_2" data-name="Слой 2" xmlns="http://www.w3.org/2000/svg" viewBox="0 0 2000 2000"><defs><style>.cls-1{fill:#fff;}.cls-2{fill:#4b3584;}.cls-3{fill:#c6254f;}.cls-4{fill:#e84673;}.cls-5{fill:#f7af4d;}.cls-6{fill:#9f90c4;}.cls-7{fill:#f5ae9e;}.cls-8{fill:#5a8dbf;}.cls-9{fill:#1dae8f;}.cls-10{fill:#2b2150;}.cls-11{fill:#2bb19e;}.cls-12{fill:#1d9a85;}.cls-13{fill:#313b84;}.cls-14{fill:#a4c6e9;}.cls-15{fill:#ee7e94;}.cls-16{fill:#108875;}.cls-17{fill:#789ed3;}</style></defs><title>empty</title><rect class="cls-1" width="2000" height="2000"/><path class="cls-2" d="M1176.82,428.23l-21.34,7.11-13.67,6-21.64,6.39s-15-30.77-19-38.44c-4.28-8.4-6.94-13.8-13-15.78l-21.85-5.17c-7.53-1.78-15.42-3.06-22.79-5.4-.75-.23-.76-.48-.87-1.21-.64-3.43-2.61-14.87-2.83-19.63.09,0,.17-.13.26-.17,1.24-.9,2.66-1.93,4.11-3.13a49.76,49.76,0,0,0,9.9-10.84,42.06,42.06,0,0,0,4.63-9.56c.22-.64.43-1.33.65-2a50.61,50.61,0,0,0,1.54-7.29c1.16-8.31-6.22-13-9.73-41.87,0,0-1.41-22.2-29.87-20-4.23.32-8.43,1.19-12.6,1.93-2.66.47-5.31.94-8,1.28-7,.95-13.89,1.07-19.46-1.71-3.6-1.8-8.66-4.2-11.57-7.42-1.42,8.58-1.42,17.62-2.1,26.27A137.51,137.51,0,0,0,968.8,312a114.23,114.23,0,0,0,4.72,17.74c5.82,16.37,15.12,29.32,28.11,34.84l-3,18.22S978.7,387,978.7,387.6l-1.76.64c0,1.42-23.87,3.86-32.57,3.3-2-14.87-4.07-30.72,2.15-44.39,2-4.38,4.71-8.36,6.68-12.73a41.91,41.91,0,0,0,3.21-24.65c-.72-4.28-2.18-8.48-2.78-12.81-1.37-9.3,1.8-30.17,12.13-44.18-2.83-12.18,3.77-24.65,14.27-28.5,2.31-.82,7.84-17.15,34.71-22.25,18.82-3.55,51.17-.12,66.77,11.62,13.89,10.45,23.27,26,28.76,42.38,5.57,16.72-4,40.33,4,56.23,3.3,6.64,13,9.51,18.43,14.19,6,5.18,11.66,11.61,14,19.32,2.66,8.66-1.45,17.15-.08,25.85,2.53,15.55,15.25,22.92,24,34.15A31.33,31.33,0,0,1,1176.82,428.23Z"/><path class="cls-3" d="M971.07,865a108.89,108.89,0,0,1,22.72,2.27q-35.24,7.46-53.62,40.11-23.91,42.36-25.63,136.89H869.37q1.68-94.5,25.63-136.89T971.07,865Z"/><path class="cls-3" d="M1350.35,963.67q0,70.91-31.2,138.64c-20.79,45.13-55.16,99.77-108.94,158.74-44.06,48.3-73.37,82.88-93.56,127.16-15.3,33.47-28.37,65.31-32.91,98.65h-45.17q6.81-50,32.91-98.65T1165,1261.05q77.78-91,109-158.74t31.16-138.64q0-97.71-52.84-163.15l-21.6-23.31q-4.89-4.63-10.16-9.09-78.16-66.47-208.79-71.44c7.58-.34,15.34-.47,23.22-.47q146.13,0,230.74,71.91T1350.35,963.67Z"/><path class="cls-3" d="M1097.5,1675.51c-.47,69-56.83,124.93-124.41,124.41H927.92A124.38,124.38,0,0,0,932,1551.23v-.13h41.1C1041.79,1551.1,1098,1606.81,1097.5,1675.51Z"/><path class="cls-4" d="M1252.36,800.54q52.83,65.41,52.84,163.14,0,70.87-31.2,138.61t-109,158.76q-67.52,78.51-93.58,127.14t-32.9,98.66H812.11q1.71-65.3,29.49-128.88t83.31-131q10.26-12.51,30.77-36.13,102.54-119.49,102.55-223,0-49.32-22.65-76.08T971.06,865q-52.14,0-76.06,42.39t-25.63,136.87H650.6v-18.07q0-161.87,86.74-246t252.52-84.07q146.13,0,230.73,71.91,5.25,4.46,10.17,9.12Z"/><circle class="cls-4" cx="927.93" cy="1675.53" r="124.41"/><path class="cls-5" d="M1133.84,544.2l-29.1,9.9c-1,4.15-1.71,7.37-1.59,7.33l.13,0,18.9,49.07c14.87,36.17,1.76,81.43-23.22,92.7l-.78,22.84H942l-.77-25.07c-22.24-14.18-33.08-56.35-19-90.47L943,565.58l-43.46-7.2a23.19,23.19,0,0,1-21.25-32.48l61.67-119.57c.51-.81,6.3-10,17-11.66,5-.81,11.1-2,17.44-3.43,1,2.92,3.47,6.39,6.94,9.78a55.37,55.37,0,0,0,38.7,15.12h1.54c27.52-.68,40.8-17.4,43.16-20.74a18.27,18.27,0,0,0,2-3.47l13.33,2.7c10.5,1.8,15.13,6,20.31,13.41,1.93,4.16,29,61.84,42.56,109.89C1148.07,536.48,1140.14,541.84,1133.84,544.2Z"/><path class="cls-6" d="M1023.66,861.89l-2.32,54.51c-.94,13.42-12.47,23.57-21.77,20.87l-21.73-6.34c-8.4-2.44-12.85-14.36-9.77-26.06l17.32-65.35.34,1.63,0,16.71c0,10.54,6.26,19.16,15,20.49l.34,0C1010.29,879.8,1020.74,872.52,1023.66,861.89Z"/><path class="cls-6" d="M1067.5,928.87l-22,7.33c-9.43,3.17-20.52-6.47-21-19.88l.51-58.76c.29,10,10.54,18.75,20.18,19.18,10.62.48,17.61-9.18,18.25-19,0-.57.06-1.13.06-1.7V841.32l.38-2.23,14.4,63.21C1081,913.92,1076,926,1067.5,928.87Z"/><path class="cls-7" d="M1084,726l-20.4,115.33v14.74c0,9.76-6.36,20.09-16.9,20.69-10.7.61-20.08-9.1-21.59-19.19l-.86,1.76c-.47,10.25-11,19.27-21,19.22-10.95,0-17.38-10.69-17.41-20.68l0-16.71L961.34,726Z"/><rect class="cls-8" x="938.52" y="465.69" width="165.64" height="120.98"/><path class="cls-9" d="M1038.19,529a13.55,13.55,0,1,1-13.54-13.55A13.55,13.55,0,0,1,1038.19,529Z"/><path class="cls-10" d="M1024.65,545.8A16.76,16.76,0,1,1,1041.41,529,16.77,16.77,0,0,1,1024.65,545.8Zm0-27.09A10.33,10.33,0,1,0,1035,529,10.35,10.35,0,0,0,1024.65,518.71Z"/><path class="cls-10" d="M955.75,627.29a3.22,3.22,0,0,1-2.38-5.38c14.77-16.24,42.06-18.31,58.4-4.43a3.21,3.21,0,0,1-4.16,4.9c-15.28-13-38.35-8.38-49.48,3.85A3.22,3.22,0,0,1,955.75,627.29Z"/><path class="cls-11" d="M644.17,1222.82l-11.45,53.06S531.33,1249,519.45,1230.19l-20.18-34.11c-18.47,54.73-44,100.5-44.66,100.88l-2.44,7.93-4.11,13.59-8.66,28.41-2.4,7.8c-.51,2.4-4.11,2.79-9.6,1.76-6.56-1.2-17.74.6-27.64-3.17-1.5-.6,6.47-17.4,6.47-17.4-2.44-1-23.61-9.17-26-10.2-2.15-.9-6.13,21.81-8.19,21-11.06-4.5-18-6-30-10l-1.5-.86-.6,7.67-57.17.9s.09-17.91.39-42.38l-.39-.22c-10.45-7.41-27.6-13.11-24.55-18.55s14.1-21.86,25.75-37.55c0,0,.17-8.57.22-12.55.08-4.33,1.13-42.84,1.56-51.22.29-5.41-.62-12.15,2.72-16.7q3.15-4.31,6.33-8.6c8.14-11,46-60.52,57-74.1,9.63-11.86,19.4-23.7,30-34.72,1.85-1.92,4.05-5,6.39-6.32.58-.32,5.73-3.55,6.77-3.81,0,0,6.73-2.61,8.23-3.64,3.77-2.66,21.3-5.7,25.89-6.39a74,74,0,0,1,17.53-.34,53.5,53.5,0,0,0,3.9,9c.47,2.78,5.35,30.72,7.92,35.52,12.56,23.32,29.36,13.85,37.72,5.53a55.7,55.7,0,0,0,18.42,3.56,6.78,6.78,0,0,1,.9,0,15,15,0,0,1,.56,2.4l.82.3c.08.82.17,1.63.25,2.44a4.5,4.5,0,0,0,.47-.3L558.71,1187Z"/><path class="cls-10" d="M1082.75,617.62a3.09,3.09,0,0,1-2.74,1.62c-1.39,0-2.78-1.13-4-1.72-11.86-5.78-24.43-3.21-35.47,3.08-1.85,1-3.65,2.19-5.42,3.4-3.41,2.32-7.09-3-3.6-5.32a71.86,71.86,0,0,1,14.55-7.83c10.65-4.09,22.45-4.13,32.77.89.94.47,1.88.94,2.82,1.5A3.18,3.18,0,0,1,1082.75,617.62Z"/><path class="cls-7" d="M1658.7,1524c-8.66,23.78-24.64,21.9-30.09,9.21,0,0-8-18.6-7.07-19.11a86.76,86.76,0,0,0,12.77-8.87c1.5-1.21,2.92-2.41,4.29-3.6,6-5.23,10.84-10.29,12.81-12.39.65-.69,7.89-.09,7.89-.09C1664.53,1497.4,1662.13,1514.54,1658.7,1524Z"/><path class="cls-12" d="M1724.35,1567.34l-.08.09a6.3,6.3,0,0,1-8.44-1l-19.5-24.47a39.51,39.51,0,0,0-4,17.15c.13,10.19,5,21,1.63,30.38-1.63,4.46-4.89,8-8.27,11.27a157.31,157.31,0,0,1-35.92,26.23c-1.8,1-3.77,1.93-5.91,1.71s-4.07-1.63-5.83-3c-6.81-5.27-14.31-11.78-14.48-20.14-.18-9.81,9.72-16,13.92-24.68,7.08-14.53-2.91-31.93-8.87-47.66,5.45,12.69,21.43,14.57,30.09-9.21,3.43-9.48,5.83-26.62.6-34.85l-1.76-1.8a34,34,0,0,1,20.87,4.42c11.32,6.6,18.94,18.17,24.56,29.91a10.5,10.5,0,0,1,1.37,4.42c0,.55,21.9,33.17,21.9,33.17A5.9,5.9,0,0,1,1724.35,1567.34Z"/><path class="cls-12" d="M1539.39,1588.94c-.35.47.3,1.2.3,1.2l-2.36,38.27a6.1,6.1,0,0,1-6.34,5.45h-.13a6.2,6.2,0,0,1-6.26-5.66l-1.2-31.07a41.09,41.09,0,0,0-13.41,11.61c-6,8.32-8.49,19.84-16.89,25.55-3.94,2.65-8.7,3.64-13.37,4.37a161.47,161.47,0,0,1-44.78.55c-2.06-.25-4.25-.6-5.83-2s-2.32-3.69-2.92-5.79c-2.4-8.18-4.54-17.78.3-24.64,5.7-8.1,17.06-8.18,26.06-12,12.77-5.4,13.54-19.58,19.84-36.08-2.7,11.52,14.23,14.65,36.43,2.87,9-4.8,15.47-18.82,16.11-28.5l.09-1.12s8.66,2.36,13.89,14.23,4.5,25.63,2,38.4A11.32,11.32,0,0,1,1539.39,1588.94Z"/><path class="cls-7" d="M1525,1531.94l-.09,1.12c-.64,9.68-7.11,23.7-16.11,28.5-24.68,13.11-42.86,7.75-34.76-7,0,0,1.93-6.77,4-17.7Z"/><path class="cls-13" d="M1652.4,1488.19s-.34.38-1,1.07c-2,2.1-6.81,7.16-12.81,12.39-1.37,1.19-2.79,2.39-4.29,3.6a86.76,86.76,0,0,1-12.77,8.87c-1,.51-2,1-3,1.45,0,0-.42-.64-1.28-1.84-2.1-3-6.64-9.43-12.81-18.13-1.29-1.93-2.75-3.94-4.25-6-3.86-5.44-8.18-11.57-12.77-18.13-1.41-2-2.83-4-4.28-6-4.12-5.79-8.4-11.87-12.78-18.09-1.41-2-2.87-4-4.28-6q-6.36-9.06-12.77-18.08-2.13-3.09-4.24-6c-4.42-6.22-8.66-12.26-12.82-18.09-1.41-2.06-2.83-4.07-4.24-6-2.32-3.26-4.5-6.39-6.64-9.39l6.64,136.2.56,11.27-.56,0-12.77,1.33-4.29.47-12.77,1.33-4.24.43-12.86,1.37-4,.43h-.05l-4.28.43-8.7-69.47-3.95-31.59-.3-2.31-12.9-103a2.78,2.78,0,0,1,0-.43.71.71,0,0,0,0-.39c-.17-1-.47-2.83-.82-5.44-.21-1.5-.47-3.26-.77-5.23-.25-1.76-.55-3.68-.81-5.74-.09-.77-.22-1.55-.34-2.32-.3-2-.6-4.2-.9-6.47-5.32-38-14.45-109.71-15.35-156.94,4.38,1.29,9.56,2.45,9.39.26-.39-4.58,0-26.78,0-26.78s36.25,1.32,42.13,3.38c0,0,6.77,32.1,13,32.83,26.74,3,69.59-1.12,81.85-2.44v1.41a205.24,205.24,0,0,1-1.16,21.82c-.47,4.62-3.77,25.15-6.73,45.08-.6,4-1.15,8-1.71,11.78-1.41,10.72-1.29,10-2.57,23.83-1.59,17.44-2.92,37.16-3.39,58.63,0,0-.81,1.84,1.55,4.59a7.5,7.5,0,0,0,1.84,1.37c.64.38,1.33.77,2.06,1.24a8.49,8.49,0,0,1,2.22,2.06c3.13,4.41,7.42,10.71,12.78,19.71,1.37,2.27,2.78,4.63,4.28,7.24,3.77,6.56,8.06,14.27,12.77,23.27,1.37,2.66,2.83,5.36,4.25,8.23,4,7.67,8.22,16.24,12.81,25.72l4.24,8.87q6,12.72,12.77,27.55c1.42,3.09,2.83,6.22,4.29,9.43,4.07,9.13,8.36,18.82,12.81,29.19C1651.71,1486.65,1652.06,1487.42,1652.4,1488.19Z"/><path class="cls-6" d="M1687.15,963.84c-.3,10.16-17.1,17.57-27.55,18.13-22.84,1.24-62.49-19.93-87.26-34.75l-14.87,90.29-2,11.87,26.19,105.13s-53.75,6.39-85.24,2.83c-6.26-.73-13-32.83-13-32.83-5.88-2.06-42.13-3.38-42.13-3.38s-.39,22.2,0,26.78c.3,3.51-13.41-1.67-15.17-1.93.13-11.44,4.46-76.71,7.33-119.35L1413.6,1040a14.72,14.72,0,0,1-22.24-7.76l-73.2-116.61,42.13-20.92L1415.58,970l6.64-10.5c-.6-12.13,5.53-21.26,9.9-28.29,5.27-8.44,13.2-24.6,13.2-24.6,6.81-9.26,7.15-19.58,19-23.44l19.46-5.31c-.09.42-.13.85-.22,1.32,0,0-6.68,20.1,8.62,28.29,13.28,7.11,44-13.33,43.88-20.7l-.6-5.79,35.87,10.12h.13c11.32,1.41,22.2,3.81,29.75,12.25l11,6.56c6,1.63,14.11,8.79,20.58,11.62-11.78-35-21.74-75-21.74-75l40-13.28C1651.16,833.69,1688.57,917.69,1687.15,963.84Z"/><path class="cls-14" d="M1552.24,886.92a606.66,606.66,0,0,0-45.34,43.67c-9,9.68-18,20.1-22.07,32.74-3.43,10.76-3,22.33-2.48,33.6,1.8,42.38-.73,85.45,1.07,127.58-19.12,0-42.13-3.38-42.13-3.38s6.9-54.17,7.59-61.46c1.28-13.46-1.55-90.64-1.63-96.17-.09-5.18,2-10.16,4-14.91q13.32-30.93,28-61.2a19.46,19.46,0,0,1,3.68-5.66c-1.24,5.66-2.7,19.37,9.26,25.76,13.28,7.11,44-13.33,43.88-20.7l-.68-6.52A58.1,58.1,0,0,1,1552.24,886.92Z"/><path class="cls-5" d="M1586.83,861.16l-10.63-.64,0-.13c-4.29-.21-8.53-.47-12.77-.73a88.87,88.87,0,0,1-16.85-2,23.76,23.76,0,0,1-3.77-1.33,69,69,0,0,0,16.76-24.77c.9-2.23,1.71-4.46,2.44-6.77a81.67,81.67,0,0,0,3.6-19.12,72.81,72.81,0,0,0-6.08-34.54l-80.32-2.23c3.9,5.19,6.43,16.24,2.19,24a26.84,26.84,0,0,0-2.36,4.5c-2.27,6.86,5.19,13.59,4.5,20.79-.38,3.68-2.83,6.81-4.84,10s-3.51,7.2-1.89,10.58c2,4.23,3,7.28,2.1,12a25.45,25.45,0,0,1-7.24,13.25l-58.54-3c-4.24-8.4,2.49-18.39,7.2-26.45,1.63-2.78,4.2-5,5.27-8,3.6-10.25-10.5-23.06,5.19-35.32,21.77-16.93-26-33.17,33.17-74.14,32.31-22.37,76.54-10.28,82.88,2.06,0,0,14.49,3.56,24,13.37,9.9,10.24,13.58,25.24,12.77,39.21l-4-.13a18.18,18.18,0,0,1,2.23,10.29c-.9,7.63-8.31,13.89-7.46,21.51.73,6.65,7.59,11.53,7.72,18.22.08,5.05-3.82,10-2.36,14.83.69,2.31,2.44,4.11,3.82,6A22.2,22.2,0,0,1,1586.83,861.16Z"/><path class="cls-7" d="M1565.57,805.66a85,85,0,0,1-3.6,19.12c-.73,2.31-1.54,4.54-2.44,6.77l0,0c-5.62,13.76-14.7,25.11-25.89,31.33l2.44,23.87c.17,7.37-30.6,27.81-43.88,20.7-15.3-8.19-8.62-28.29-8.62-28.29,1.25-7.71,2.62-12.81,4.12-20.57a59.8,59.8,0,0,1-8.79-7.8,23.34,23.34,0,0,0,.48-4.54,10.44,10.44,0,0,0-.78-4.46c-.51-1.07-1.28-2-1.8-3-1.62-3.38-.08-7.37,1.89-10.58s4.46-6.35,4.84-10c.69-7.2-6.77-13.93-4.5-20.79a26.84,26.84,0,0,1,2.36-4.5c4.24-7.8,1.71-18.85-2.19-24l80.32,2.23A72.81,72.81,0,0,1,1565.57,805.66Z"/><path class="cls-10" d="M1497.7,803.78a3.22,3.22,0,0,1,0-6.43l11.1-.16h0a3.22,3.22,0,0,1,0,6.43l-11.1.16Z"/><path class="cls-10" d="M1522.3,827.68c-3,0-6.46-.62-8.85-3.2a3.21,3.21,0,0,1,4.7-4.38c1.52,1.64,5.83,1.1,7.9.85l-3.28-32.11a3.21,3.21,0,0,1,6.4-.62l3.09,31.53a6.3,6.3,0,0,1-.94,4.85,6.37,6.37,0,0,1-4.47,2.72A34.72,34.72,0,0,1,1522.3,827.68Z"/><path class="cls-10" d="M1534.8,837.89a24.21,24.21,0,0,1-7.63,2.74,35.43,35.43,0,0,1-6.55.56,42.65,42.65,0,0,1-11.4-1.5c2.65,3.43,6.77,4.33,12.85,3.09a3.22,3.22,0,0,1,1.29,6.3,30.35,30.35,0,0,1-6,.64c-8.78,0-14.7-4.93-17.23-14.49a4,4,0,0,1,.56-3.68,4,4,0,0,1,2.87-1.33,3.09,3.09,0,0,1,2.27,1.07l.22.13c.47.26.77.47,1.11.64,4.24,2.36,12.86,3.39,18.77,2.23a17.1,17.1,0,0,0,5.53-1.93,3.22,3.22,0,1,1,3.3,5.53Z"/><path class="cls-15" d="M1537.74,823.54a12.13,12.13,0,0,0,21.76,8l0,0c.93-2.21,1.71-4.45,2.44-6.77a12.13,12.13,0,0,0-24.23-1.24Z"/><path class="cls-15" d="M1501.2,821.48a12.13,12.13,0,0,1-12.81,11.4,12,12,0,0,1-9.3-5.28c1.88-3,4.07-6,4.41-9.38a15.52,15.52,0,0,0-1.46-7.29,11.82,11.82,0,0,1,7.72-2.27A12.16,12.16,0,0,1,1501.2,821.48Z"/><path class="cls-10" d="M1550.18,789.85a3.16,3.16,0,0,1-1.24-.25,22.84,22.84,0,0,0-8.44-1.76,3.21,3.21,0,0,1-3.17-3.25,3.06,3.06,0,0,1,3.25-3.17,29,29,0,0,1,10.84,2.25,3.22,3.22,0,0,1-1.24,6.18Z"/><path class="cls-10" d="M1495.84,786a3.21,3.21,0,0,1-.89-6.3,29.09,29.09,0,0,1,11-1,3.22,3.22,0,0,1-.65,6.4,22.54,22.54,0,0,0-8.57.78A3.18,3.18,0,0,1,1495.84,786Z"/><path class="cls-10" d="M1540.66,730.24a2.25,2.25,0,0,1-1.05-.27,34.83,34.83,0,0,0-11.87-4.27,2.14,2.14,0,1,1,.63-4.24,39.08,39.08,0,0,1,13.34,4.77,2.14,2.14,0,0,1-1,4Z"/><path class="cls-10" d="M1458,759a2.25,2.25,0,0,1-.71-.12,2.15,2.15,0,0,1-1.31-2.73c2.69-7.68,6.6-13,12-16.28a2.14,2.14,0,0,1,2.24,3.65c-4.49,2.75-7.81,7.34-10.16,14A2.12,2.12,0,0,1,1458,759Z"/><path class="cls-10" d="M1461.92,848.19a2.14,2.14,0,0,1-2.14-2.13,43.33,43.33,0,0,0-.51-5.29,29.09,29.09,0,0,1-.27-9.24c.63-3.53,2.39-6.53,4.09-9.43a42.87,42.87,0,0,0,2.7-5.12,19.93,19.93,0,0,0-1.54-18,2.15,2.15,0,1,1,3.63-2.29,24.33,24.33,0,0,1,1.87,21.93,47.24,47.24,0,0,1-3,5.65c-1.57,2.69-3.06,5.24-3.56,8a25.49,25.49,0,0,0,.29,7.89,44.44,44.44,0,0,1,.55,5.85,2.14,2.14,0,0,1-2.12,2.16Z"/><rect class="cls-16" x="1540.42" y="796.19" width="37.49" height="13.11"/><rect class="cls-12" x="1578.45" y="788.34" width="108.76" height="28.82"/><rect class="cls-16" x="1687.2" y="779.64" width="87.83" height="46.22"/><path class="cls-7" d="M1635.82,802.75h-27.59a9.87,9.87,0,0,1-9.87-9.87v-4a4.22,4.22,0,0,1,4.22-4.22H1641a4.22,4.22,0,0,1,4.22,4.22v4.46A9.44,9.44,0,0,1,1635.82,802.75Z"/><path class="cls-7" d="M1650.68,817.15c0,.73-.12,1.45-.21,2.18a46.42,46.42,0,0,1-3.86,13.8c-.3.65-.6,1.29-.94,1.89L1612,846.2a11.28,11.28,0,0,1-3.52-3.68c-6.6-12.34-12-12.52-16.67-13.5-2-.09-8.53-2.06-10.28-2.87a6.7,6.7,0,0,1-3.73-4.33,3.25,3.25,0,0,1,.08-1.8,6.45,6.45,0,0,1,3.78-2.87Z"/><path class="cls-7" d="M1318.38,909.2c1.88,2.66.21,6.69,1.88,9.52a13.29,13.29,0,0,1-16.32,2.53,16,16,0,0,1-4.12-3.65,23.34,23.34,0,0,1-5.14-11.1,147.81,147.81,0,0,1,17.36.26C1314.39,906.93,1317,907.32,1318.38,909.2Z"/><path class="cls-7" d="M1357,895.87a274.13,274.13,0,0,1-32.66,14,3.7,3.7,0,0,1-1.88.3,4.84,4.84,0,0,1-2.44-1.63c-3.3-3-8.1-3.3-12.52-3.47-4.67-.22-9.34-.39-14-.56,1.33-4.59,6-17.49,7.28-19.12,10-3.38,20.62-3.47,31.12-3.38,4.2,0,8.78.21,12,2.91C1345.55,886.32,1353.52,894.85,1357,895.87Z"/><path class="cls-7" d="M389.3,1746.82c-11.74,6.18-35.23,6.86-54,3.56-1.54-1.24-3.17-2.57-5-4a9.8,9.8,0,0,0-5.32-1.63l.56-7.88,8.23.69.6-2.92,9.51-.69,35.36,2.41v0A128.16,128.16,0,0,0,389.3,1746.82Z"/><path class="cls-17" d="M478.44,1796.07a4.75,4.75,0,0,1-.73,1.5c-1,1.11-2.78,1.24-4.33,1.28-30.34.77-60.64.52-90.94,0-35.95.64-128.69.13-129.72-1.16-.77-1-3.26-32,3.86-49.07,19.62,5.4,49.28,5.23,61.54-2.87,1.54-1,3.68-1.07,5.57-1,2.31,0,4.8.3,6.56,1.67s3.47,2.79,5,4c19.71,3.47,44.57,2.53,55.67-4.5,1.63-1,3.86-1.07,5.83-1,2.4.05,5,.3,6.77,1.72,13.71,10.54,17.31,15.17,46.33,14.57,9.21-.22,21.64,0,27.3,6.39,3.19,3.59,3.19,8.75,3,13.28C480,1785.91,480.08,1791.16,478.44,1796.07Z"/><path class="cls-7" d="M323.39,1744.68c-1.8,0-3.82,0-5.27,1-11.66,7.71-39.13,8.23-58.67,3.6l3.34-17.78,56.36,4.75C320.3,1738.81,321.72,1741.72,323.39,1744.68Z"/><path class="cls-2" d="M436.44,1530.44l-40.11,207.09-61.76-4.25-.85,4.25-75.86-6.43,35.31-201.47c1.72-14.57-28.58-124.11-30.64-159.85-2-2-7.5-50.32-1.71-81.17,4.88,3.9,22.37,13.33,22.37,13.33-.3,24.47-.39,42.38-.39,42.38l57.17-.9.6-7.67,1.5.86c12,4.07,18.9,5.52,30,10,2.06.86,6-21.85,8.19-21,2.4,1,23.57,9.17,26,10.2,0,0-8,16.8-6.47,17.4,9.9,3.77,21.08,2,27.64,3.17a19.29,19.29,0,0,0,6.6.38Z"/><path class="cls-7" d="M496.23,1077.24c-8.36,8.32-25.16,17.79-37.72-5.53-2.57-4.8-7.45-32.74-7.92-35.52,4,7.58,10.07,15.21,17.69,23.27A71.81,71.81,0,0,0,496.23,1077.24Z"/><path class="cls-13" d="M628.48,950.69c-.9-10.72-9-19.46-19-22.29-2.75-.77-6-1.41-7.29-3.94a12.1,12.1,0,0,1-.81-4.54C600.15,905,584.55,894.29,570,898.36a10.12,10.12,0,0,1-4,.69c-1.63-.26-2.87-1.42-4.12-2.36-7.24-5.53-16.75-12.82-27-5.19-2.31,1.72-4.07,4.16-6.56,5.49,0,0-11.57-9.6-20.91-8-18,3.17-21.39,6.77-27,16.5,0,0-24.86,7.54-33.6,41.4-7.29,28.37,5.27,37.71,5.27,37.71a17.08,17.08,0,0,0,3.6-1.16c-19.63,28.67-11.83,50.06,12.68,76,13.25,14,33.13,21.38,46.37,21.34,13.63,0,23.83-3.43,31.46-13.33,2.92-3.77,15.56-22.24,19.46-35.74,0,0-22.84,12.9-28.59,1.24-4-8.18-13.84-10.93-20.61-12.86-32.27-9.21-41.23-24.34-35.19-44.14.69-2.18-.51-3.55-2.57-4.2a8.32,8.32,0,0,0-2.44-.51c-1.22-.13-2.51-5.58-2.79-6.47A52.77,52.77,0,0,1,471,952.87c-.39-4.58-1-7.41,1.11-11.31,2.7-5,6.26-6.64,9.56-6.64,4,0,7.54,2.48,8.74,4.75,1.83,3.43,2.76,9.14.82,12.69a38.54,38.54,0,0,0,8.95,2.83c5.27,1.11,10.46-3.13,15-6.73s5.27-16.37,5.27-16.37l.34-1.25c0,10.08,6.86,25.29,29.23,33.39A23.64,23.64,0,0,0,570.88,962c1.63,13.16,6.56,28.37,21.13,36.25,6,3.22,14.61,1.8,20.49-2.7,6-4.62,4.71-14.7-.78-19.07C622.1,973.27,629.38,961.4,628.48,950.69Z"/><path class="cls-7" d="M588.92,996.33a164.25,164.25,0,0,1-8.87,16.84,90.71,90.71,0,0,1-14.48,18.56s-22.84,12.9-28.59,1.24c-4-8.18-13.84-10.93-20.61-12.86-32.27-9.21-41.23-24.34-35.19-44.14.69-2.18-.51-3.55-2.57-4.2,0-.13-6.34,2.62-7.5-17.4,0-.51,0-1-.08-1.5-.39-4.58-1-7.41,1.11-11.31,2.7-5,6.26-6.64,9.56-6.64,4,0,7.54,2.48,8.74,4.75a12.65,12.65,0,0,1,.86,2c.94,2.7,1.41,8.06,0,10.72a38.54,38.54,0,0,0,8.95,2.83c5.27,1.11,10.46-3.13,15-6.73s5.27-16.37,5.27-16.37l.34-1.25c0,10.08,6.86,25.29,29.23,33.39A23.64,23.64,0,0,0,570.88,962C572.38,974.13,576.71,988.1,588.92,996.33Z"/><path class="cls-10" d="M563.36,938.24a2.21,2.21,0,0,1-.79-.15,2.15,2.15,0,0,1-1.19-2.79,17.14,17.14,0,0,0-15.33-23.52,2.15,2.15,0,0,1-2.07-2.22,2.2,2.2,0,0,1,2.21-2.07,21.42,21.42,0,0,1,19.16,29.41A2.14,2.14,0,0,1,563.36,938.24Z"/><path class="cls-15" d="M567.45,1029.8c-.6.64-1.24,1.33-1.88,1.93-.05,0-.05.08-.13.08-1.46.77-15.21,8.15-23.49,5.45a13.29,13.29,0,0,1,21.48-13.55A12.73,12.73,0,0,1,567.45,1029.8Z"/><path class="cls-10" d="M539.32,1021.72a6.22,6.22,0,0,1-1.75-.25c-3.17-.92-8.49-2.46-11.14-8.17a3.21,3.21,0,0,1,5.83-2.71c1.2,2.59,3.33,3.61,7.09,4.7l12.16-22.91a3.22,3.22,0,0,1,5.68,3l-12.27,23A6.34,6.34,0,0,1,539.32,1021.72Z"/><path class="cls-10" d="M560.08,1012.92a3.2,3.2,0,0,1-2.44-5.29l3.14-3.69a3.21,3.21,0,1,1,4.89,4.17l-3.14,3.68A3.19,3.19,0,0,1,560.08,1012.92Z"/><path class="cls-10" d="M528.11,988.25a3.22,3.22,0,0,1-2.45-5.3l3.15-3.68a3.21,3.21,0,1,1,4.89,4.17l-3.15,3.68A3.18,3.18,0,0,1,528.11,988.25Z"/><path class="cls-15" d="M496.63,988.77a13.33,13.33,0,1,0,18.79-1.49A13.33,13.33,0,0,0,496.63,988.77Z"/><path class="cls-10" d="M542.86,978.45a3.18,3.18,0,0,1-2.19-.86c-2.7-2.53-8.82-4.49-10.94-5a3.21,3.21,0,1,1,1.58-6.23c1,.24,9.38,2.47,13.75,6.56a3.21,3.21,0,0,1-2.2,5.56Z"/><path class="cls-10" d="M572.39,1007.12a3.22,3.22,0,0,1-2.83-1.68c-1.17-2.15-3.6-5.53-5.34-6.32a3.22,3.22,0,0,1,2.66-5.86c4.29,2,7.69,7.94,8.33,9.12a3.2,3.2,0,0,1-1.29,4.35A3.14,3.14,0,0,1,572.39,1007.12Z"/><path class="cls-10" d="M484.66,963.79a2.2,2.2,0,0,1-1.35-.46c-2.41-1.88-3.16-8.3-3.39-12a2.14,2.14,0,0,1,4.28-.27c.25,4,1.09,8.12,1.79,8.89a2.11,2.11,0,0,1,.36,3A2.14,2.14,0,0,1,484.66,963.79Z"/><path class="cls-5" d="M489.41,1082.5c-10.24,3.15-24.59-2.11-30.88-10.78-3.9,68.65-18.26,132-42.95,188.39-10.65,24.33-24.76,41.23-35.35,65.57l26,10.17c19.71-34,26.91-54.31,42.94-90.21,5.67-12.72,11.36-25.47,15.63-38.73C477.73,1166.62,484.08,1122.26,489.41,1082.5Z"/><path class="cls-15" d="M523,1041.7c-4.26,0-8.09-1.42-11.73-5.46-1.62-1.8-3-6.61-2.71-9.53a2.1,2.1,0,0,1,2.34-1.93,2.14,2.14,0,0,1,1.92,2.34,12.21,12.21,0,0,0,1.63,6.25c3.69,4.09,7.34,4.89,14.45,3.22a2.14,2.14,0,1,1,1,4.16A30,30,0,0,1,523,1041.7Z"/><path class="cls-7" d="M694.35,1255.87c-.77,6-7.37,22.8-9.3,25.19a15.3,15.3,0,0,1-5.1,4.46,13.61,13.61,0,0,1-6,.94c-6.34-.17-12.43-2-18.34-4.24a9.93,9.93,0,0,1-4.29-3.13l-3-.13c-3.13-.12-12.9-5.14-12.9-5.14.73-11.23,2.95-32.83,6.94-43.33a19,19,0,0,1,3.43-6.34,23.27,23.27,0,0,1,5.7-4.11c5.1-3,10.24-10.07,14.87-16.07a4.94,4.94,0,0,1,8.83,2.74,30.9,30.9,0,0,1-2.49,12.73c-2.14,4.67-8,8.4-6.51,13.33,2,.85,4,1.75,6,2.61,9.47.09,21.6,5,22.5,10C695.25,1248.88,694.78,1252.39,694.35,1255.87Z"/><path class="cls-8" d="M734.67,1170.15c-9.69,23.52-29.21,37.79-43.6,31.86s-18.18-29.81-8.48-53.33,29.22-37.79,43.6-31.86S744.37,1146.62,734.67,1170.15Z"/><path class="cls-10" d="M700.06,1194.61a12.31,12.31,0,0,1-4.74-.92c-5.29-2.18-8.62-7.89-9.4-16.08-.73-7.7.88-16.82,4.53-25.69a2.14,2.14,0,1,1,4,1.63c-3.39,8.24-4.89,16.64-4.22,23.66.61,6.53,3,11,6.76,12.52s8.58.07,13.62-4.12c5.42-4.51,10.28-11.53,13.67-19.76s4.89-16.64,4.23-23.66c-.62-6.53-3-11-6.77-12.52a2.14,2.14,0,0,1,1.63-4c5.29,2.18,8.63,7.89,9.4,16.08.73,7.7-.88,16.83-4.53,25.69s-8.94,16.47-14.89,21.42C708.79,1192.67,704.22,1194.61,700.06,1194.61Z"/><path class="cls-7" d="M1064.5,388.24a16.24,16.24,0,0,1-2.44,5.28c-3.56,5-16.08,18.81-40.63,19.41-27.69.68-44.49-18.56-44.49-24.69l1.76-.64c0-.64,19.93-4.84,19.93-4.84l3-18.22c-13-5.52-22.29-18.47-28.11-34.84A114.23,114.23,0,0,1,968.8,312a137.51,137.51,0,0,1-1.24-24.39c.68-8.65.68-17.69,2.1-26.27,2.91,3.22,8,5.62,11.57,7.42,11.18,5.57,27.6-.52,40.07-1.5,28.46-2.19,29.87,20,29.87,20,3.51,28.84,10.89,33.56,9.73,41.87a44.36,44.36,0,0,1-16.72,29.7s0,0,0,0a44.67,44.67,0,0,1-4.16,2.4l.09.73,2.7,20.66a.74.74,0,0,1,0,.17l.17,0C1044.78,383.32,1059.36,387.3,1064.5,388.24Z"/><path class="cls-10" d="M1001.56,327.25a36.57,36.57,0,0,1-5.12-.39,5.39,5.39,0,0,1-3.86-3.41,5.74,5.74,0,0,1,.21-4.51l5.53-25.79a3.22,3.22,0,0,1,6.29,1.35L999,320.72c2.92.27,6.27,0,7-.64a3.21,3.21,0,1,1,4.15,4.91C1008.05,326.79,1004.57,327.25,1001.56,327.25Z"/><path class="cls-10" d="M1055,251.29a2.13,2.13,0,0,1-1.45-.57c-4.12-3.82-9.44-6-16.28-6.64a2.14,2.14,0,1,1,.41-4.26c7.81.73,14,3.27,18.78,7.76a2.14,2.14,0,0,1-1.46,3.71Z"/><path class="cls-15" d="M1018.28,322.37a13.68,13.68,0,1,0,13.62-13.74A13.67,13.67,0,0,0,1018.28,322.37Z"/><path class="cls-10" d="M982.73,302.27a3.21,3.21,0,0,1-3.21-3.2l0-4.24a3.21,3.21,0,0,1,3.2-3.23h0a3.22,3.22,0,0,1,3.22,3.2V299a3.21,3.21,0,0,1-3.19,3.23Z"/><path class="cls-10" d="M1025.61,305.49a3.21,3.21,0,0,1-3.21-3.2l0-3.91a3.21,3.21,0,0,1,3.2-3.23h0a3.21,3.21,0,0,1,3.21,3.2l0,3.91a3.22,3.22,0,0,1-3.2,3.23Z"/><path class="cls-15" d="M971.42,310.19c.2,1.05.42,2.09.65,3.14a124.76,124.76,0,0,0,5.1,17.69c.65,1.77,1.35,3.5,2.07,5.15,5.79-1.44,10-7.22,9.67-13.9-.34-7.57-6.28-13.41-13.23-13.09A11.06,11.06,0,0,0,971.42,310.19Z"/><path class="cls-10" d="M1105.32,344.46a2.14,2.14,0,0,1-1.5-.61,53.76,53.76,0,0,1-9.61-11.77c-3.7-6.59-5-14.21-5.77-20.79a2.15,2.15,0,0,1,4.26-.51c.72,6.17,1.91,13.27,5.25,19.2a49.83,49.83,0,0,0,8.87,10.81,2.15,2.15,0,0,1,0,3A2.1,2.1,0,0,1,1105.32,344.46Z"/><path class="cls-10" d="M1032.16,287.61a3.33,3.33,0,0,1-1.49-.36,29.74,29.74,0,0,0-10.47-3.18,3.22,3.22,0,0,1-2.85-3.54,3.26,3.26,0,0,1,3.55-2.85,35.94,35.94,0,0,1,12.75,3.87,3.21,3.21,0,0,1-1.49,6.06Z"/><path class="cls-10" d="M977,285.85a3.21,3.21,0,0,1-1.36-6.13c4.72-2.2,13.19-1.55,14.15-1.47a3.22,3.22,0,0,1-.55,6.41c-2.94-.25-8.49-.23-10.89.89A3.27,3.27,0,0,1,977,285.85Z"/><path class="cls-7" d="M294.3,1344.33c-7.19,7.58-2.47,52.14-2.47,52.14-1.41,16,17.55,31.31,31.66,31.76,9.58-.13,15.3-41.06,15-49.71,0,0,6,6.32,9,8.39,2.13,1.5,9.46,2.64,10.73,1.51,3.88-3.43,3.67-5.21.5-7.66-5.81-4.48-11-18.43-11.92-21.4-1.4-4.23-8.48-12.14-12.23-15Z"/><path class="cls-10" d="M1005.8,350.13a17.6,17.6,0,0,1-2.29-.14,18.14,18.14,0,0,1-3.77-.87,17.34,17.34,0,0,1-9.26-7.76,3.21,3.21,0,1,1,5.6-3.15,10.87,10.87,0,0,0,5.79,4.84,11.18,11.18,0,0,0,2.43.56,13.41,13.41,0,0,0,12-5,3.22,3.22,0,0,1,5.12,3.89A19.83,19.83,0,0,1,1005.8,350.13Z"/><path class="cls-5" d="M655.57,1282.22a72.14,72.14,0,0,0,10.15,3.17l-.64,1.59a8.34,8.34,0,0,1-10.8,4.5l-.13-.09a8.19,8.19,0,0,1-4.5-10.75l.64-1.59c.35,0,.65,0,1,0A9.93,9.93,0,0,0,655.57,1282.22Z"/><path class="cls-5" d="M691.26,1223.47l-6,14.57a38.59,38.59,0,0,0-13.16-2.66l-3.22-1.41,7-16.89Z"/><path class="cls-10" d="M1775.05,776.43H1687.2a3.24,3.24,0,0,0-3.22,3.22v5.48h-36.51a7.44,7.44,0,0,0-6.43-3.72H1602.6a7.44,7.44,0,0,0-6.43,3.72h-11.83a15.18,15.18,0,0,0,.6-2.82,18.36,18.36,0,0,0-.68-7.38,3.28,3.28,0,0,0,2.48-3c1-16.49-4-31.67-13.67-41.61-8.4-8.7-20.23-12.73-24.17-13.88-5.74-8.53-24.08-15.05-43-15.05-11.36,0-28.2,2.27-43.8,13.07-38.62,26.75-33.69,44.4-30.09,57.3,2.06,7.42,3.3,11.87-3.25,17-11.62,9.09-9,19.16-7.16,26.53,1,4,1.88,7.42.9,10.24-1.2,3.43-4.24,6.22-6.13,9.39-4.84,8.19-10.89,18.34-6.17,27.6a3.16,3.16,0,0,0,2.7,1.76l58.71,3a3.32,3.32,0,0,0,2.23-.9,27.91,27.91,0,0,0,6.51-9.6c1.25,1.11,2.49,2.19,3.78,3.21-.48,2.23-2.58,12-3.18,15.3l-17.7,4.85c-9.25,3-12.51,9.6-15.64,16-1.41,2.87-18.85,34.37-18.85,34.37-4.2,6.69-10,15.94-9.78,28l-3.64,5.79s-52.28-71.45-52.45-71.7c-1.85-2.53-4.12.9-5.58-.09-2.31-1.24-7.37-6.21-9.12-7.93-1-1-1.85-1.8-2.28-2.14a12.93,12.93,0,0,0-3.47-2.1s-.08,0-.13,0q-2.43-8.36-5.4-16.37c-14.14-38.32-37.19-71.19-69.08-98.32-41.14-35-93.64-57.38-156.64-67,19.93-18.6,26.79-58.07,13.89-89.49l-17.75-36.68V560l28.68-9.73c9.3-3.51,19.15-12.25,13-34.11-6.26-22.24-15.38-46.5-23.61-66.64,0,0,17.27-5.1,17.31-5.1,3.94-1.16,2.19-7.37-1.84-6.17l-19,5.61c-3.64-7.46-14.14-30.56-17.53-37.2a54.83,54.83,0,0,0-6.81-10.07,21.91,21.91,0,0,0-7.25-5.7c-2.65-1.33-6.12-1.67-9-2.36-2.1-.47-24.82-5.44-25.59-5.65-1.15-.3-9.51-2.53-10-2.75l-.13,0c-.64-3.73-2.19-16.63-2.06-16.71a49,49,0,0,0,18.3-24.17,32.56,32.56,0,0,1,.13,11.87c-.6,3.17-1.5,6.3-1.33,9.56.26,4.75,2.49,8.87,4.76,12.68,2.14,3.6,7.63.26,5.53-3.3-1.89-3.09-3.69-6.43-3.86-9.69-.13-2.74.81-5.4,1.24-8.09,2.06-12.35-2.44-24-6.68-35.28-2.23-6-5.32-14.14-7.25-30a10.72,10.72,0,0,0-.17-1.29,36.08,36.08,0,0,0,31.8,2.49c3.86-1.54,1.5-7.54-2.4-6a29.61,29.61,0,0,1-26.18-2.1c-8.66-5.31-16.63-14.7-27.26-15.6a80.48,80.48,0,0,0-21.3,1.29c-7.07,1.24-14.31,2.95-21.47,1.5-5.27-1.07-13.71-4.55-16.37-9.56a23,23,0,0,1-1.29-18.69,19.72,19.72,0,0,1,11.19-11.69c6.47,9,23.91,11.78,34.76,13.54,1.69.29,4.87,1.61,6.13-.14,2.4-3.34-3.76-3.78-5.45-4.06-9.64-1.59-27.13-4.42-32.18-12.22.17-.25.34-.51.55-.77,3.47-4.8,10.72-14.78,30.6-18.55,18.73-3.56,49.76.08,64.24,11,15.43,11.61,23.53,28.63,27.6,40.84,2.4,7.16,1.8,15.82,1.12,25-.77,11-1.59,22.32,3.08,31.67,2.53,5,7.85,8.14,12.56,10.84a47.78,47.78,0,0,1,6.64,4.33c7,6,11.19,11.83,13,17.83,1.24,4.11.69,8.35.13,12.85-.52,4-1,8.19-.34,12.56,1.93,11.91,9.25,19.37,16.32,26.53a111.11,111.11,0,0,1,8.28,9.08,28,28,0,0,1,5.78,18.13l-17.48,5.83a35,35,0,0,0-11.62-19,50.73,50.73,0,0,0-7.33-4.8c-4-2.35-7.8-4.54-10.11-8.06-3.56-5.31-2.74-12.55-1.93-20.18a64.59,64.59,0,0,0,.6-12.81c-.56-6.6-4.76-11.83-8.4-15.65a2.14,2.14,0,0,0-3.08,3c3.34,3.52,6.77,7.8,7.24,13a64.78,64.78,0,0,1-.6,12c-.9,8.06-1.8,16.41,2.61,23,2.87,4.33,7.25,6.9,11.53,9.39a48.92,48.92,0,0,1,6.73,4.41,30.6,30.6,0,0,1,10.46,18.6,2.78,2.78,0,0,0,0,1.8,3.18,3.18,0,0,0,4.07,2l21.3-7.08a3.23,3.23,0,0,0,2.19-2.7,34.22,34.22,0,0,0-7-24.81,105.55,105.55,0,0,0-8.74-9.64c-6.68-6.77-13-13.16-14.57-23.06-.56-3.43-.09-7,.39-10.71.59-5,1.24-10.12-.39-15.52-2.19-7.24-7.07-14.05-15-20.87a50.89,50.89,0,0,0-7.59-5c-4.11-2.36-8.35-4.8-10-8.14-3.9-7.76-3.18-17.75-2.4-28.33.68-9.43,1.37-19.16-1.42-27.47-4.37-13.12-13.11-31.37-29.87-44-16.07-12.09-48.81-16.07-69.3-12.17-22.37,4.2-30.94,16-34.63,21.08a13.35,13.35,0,0,1-1.07,1.46c-1.13,1.25-3,1.42-4.37,2.23a21.17,21.17,0,0,0-4.54,3.85,28.74,28.74,0,0,0-7.2,24.47c-10,14.45-13.37,35.36-11.91,45.43.68,4.37,2.05,8.57,2.82,12.9a38.88,38.88,0,0,1-3,22.76c-2,4.37-4.76,8.35-6.73,12.73-6.73,14.95-4.33,32.27-2.36,46.2a3.23,3.23,0,0,0,1.29,2.14,33.85,33.85,0,0,0-8.19,9l-59,121.41a26.43,26.43,0,0,0,24,37l36,5.95v6.86l-16.12,34.84c-12,29.19-6.6,66.86,11.36,86.7-82.54,8.66-148.11,36.13-195.42,82-58.2,56.45-87.73,140-87.73,248.27v18.09a3.24,3.24,0,0,0,3.21,3.21H914.54a3.23,3.23,0,0,0,3.22-3.17c1.11-62.14,9.6-107.7,25.2-135.34,7.5-13.29,17-23.27,28.67-30L965,904c-3.6,13.58,1.8,27,12,30l21.73,6.34a17.5,17.5,0,0,0,4,.56c8.49,0,16.63-7.12,20.1-16.55,3.08,9,10.63,15.65,19,15.65.64,0,10.58-1.89,10.58-2.75a168.86,168.86,0,0,1,2.62,30.6c0,67.89-34.24,142.24-101.79,220.88-13.92,16.07-24,27.9-30.81,36.22-37.07,45-65.23,89.27-83.78,131.69-18.6,42.6-28.63,86.36-29.75,130.11a3.26,3.26,0,0,0,3.22,3.3h271.62a3.19,3.19,0,0,0,3.17-2.78c4.72-34.63,19.33-68.61,32.66-97.76,20.65-45.21,100.37-134.48,103.92-138.59l128.87,545.17H1015.13a126.37,126.37,0,0,0,47.61-30,128.3,128.3,0,0,0,38-90.52,125.52,125.52,0,0,0-36.77-89.86,127.27,127.27,0,0,0-90.85-37.8H930.74c-70.07,0-129.21,55.28-130.45,125.31a127.85,127.85,0,0,0,85.93,122.91H571.35a3.22,3.22,0,0,0,0,6.43H1750.62a3.22,3.22,0,1,0,0-6.43H1558.93l-44.44-187.88a32.76,32.76,0,0,1,6-5.32s1,25.38,1,25.42c.43,11.18,18.39,11.48,19.11.25,0,0,2.36-38.87,2.28-39.21a15.51,15.51,0,0,0,1.28-4.2c3.17-16.5,2.44-29.7-2.27-40.28a36.51,36.51,0,0,0-7.54-11.06,3.17,3.17,0,0,0,1.54-2.87l-6.69-136.5s82.89,117.34,84.09,119.14l12.38,20.79s.05.13.09.21c3,7.93,6.86,15.64,9.17,23.79,2.14,7.5,2.83,14.74-.26,21.08a45.46,45.46,0,0,1-5.83,8.32c-4.24,5.14-8.57,10.5-8.44,17.87.22,9.34,7.67,16.37,15.73,22.63,5,3.89,9.56,4.54,15.21,1.54A161.33,161.33,0,0,0,1688,1603c3.34-3.25,7.11-7.2,9-12.43,2.44-6.81,1.2-13.84,0-20.69a67,67,0,0,1-1.38-10.85,32.3,32.3,0,0,1,1.76-10.67l16,20.06a9.08,9.08,0,0,0,7.16,3.34c7.11,0,12.51-8,8.44-14.27,0,0-21.3-32.83-21.51-33-.78-4-3.3-7.85-5.28-11.32a81.69,81.69,0,0,0-6.68-10.2,54.18,54.18,0,0,0-15.43-14,38.22,38.22,0,0,0-18.86-5.14,63.65,63.65,0,0,0-6.51,1c-3-6.94-16.11-36.09-17.4-38.92-18.77-40.88-38.36-81.25-62.74-119.14-1.24-1.92-3.34-4.11-5.4-3.08-2.4,1.16-1.24,4.8.21,7,30,46.5,52.07,96.77,74.83,147,1.5,3.26,2.87,6.56,4.46,9.77,1,2-14.45,13.68-16.33,15.22a87.68,87.68,0,0,1-12.3,8.53c-.17,0-32.83-45.82-32.83-45.82L1502.62,1346c-3.65-5.14-4.25-12.3-5.58-18.34-2.65-12.17-29.44-146.35-29.57-146.91-.77-3.94-7.07-3-6.34,1.24,1.2,6.13,30.94,158.06,33.9,164.06a20.57,20.57,0,0,0,2.36,3.68s23.27,32.66,24.81,34.89l7.07,143.61-49.67,5.18s-42.72-323.35-44.35-381.59c3.77.82,6.13.73,7.71-.56a4.13,4.13,0,0,0,1.54-3.6c-.25-3,0-23.18,0-23.18,12.51.51,30.09,1.54,36.26,2.66a146.7,146.7,0,0,0,6.38,22.15c2.57,6.35,5.57,10.85,9,11.23a207.92,207.92,0,0,0,23.44,1.12c21.3,0,44.32-2,55.55-3.18-.35,29.06-10.85,93.77-12.09,100.42-2.74,14.65-3.39,55.75-3.47,59.39-.09,4.12,6.34,4.33,6.43.13.08-3.64.73-44.22,3.34-58.32,1.29-6.78,12.09-73.12,12.21-102.3,2-.35,3.86-1.67,3.26-4,0,0-26.1-105-26.14-105.13-1-3.9-7.29-2.53-6.26,1.55l25.29,101.56c-12.56,1.33-54.73,5.36-80.53,2.49-2.53-1.41-7.41-15.56-10.5-30.26-.9-20.78-.73-42.21-.51-63,.17-22.2.47-44.45-.69-66.6a56.51,56.51,0,0,0,22.2,4.63c6,0,11.91-1,17.83-1.89,2.74-.39,2.14-4.76-.64-4.24-7.8,1.11-15.52,2.78-23.4,1.75-4.25-.55-16-4.88-16.12-4.92-.26-8.62,0-17.27,2.57-25.37,3.86-12.13,12.69-22.25,21.39-31.55,13.33-14.22,27.51-28,42.17-40.88.86-.77,1.76-1.54,2.61-2.32l16.93,4.76a85.54,85.54,0,0,1,12.94,2.4c6.82,1.93,11.06,6.13,16.67,10,4.68,3.21,30.56,17,31,18.47,2.1,6.17,4.33,12.21,6.56,18a3.22,3.22,0,1,0,6-2.32c-1.33-3.43-29-91.41-29.23-92.27l34.33-11.4c9.3,21.95,35.87,88.12,34.67,126.56-.21,7.84-15,14.48-24.51,15-21.43,1.24-59-18.6-83.57-33.22-2.06-1.24-23.66-14.87-23.87-15-3.22-2.53-7,2.92-3.6,5.32,1,.68,8.91,6,20.44,13,0,0-14.49,87.82-14.53,88.16-.68,4.11,5.66,5.14,6.34,1l14.1-85.63c24.39,14.36,60.22,32.83,82.93,32.83,11.61,0,32.27-7,32.7-21.26,1.24-40.75-27.17-110.57-35.91-131-.65-1.54-1.38-2.7-3.13-3.08a71.71,71.71,0,0,0,2.22-9.56H1684v5.49a3.24,3.24,0,0,0,3.22,3.21h87.85a3.21,3.21,0,0,0,3.22-3.21v-46.2A3.22,3.22,0,0,0,1775.05,776.43ZM927.92,1796.71c-4,0-7.93-.21-11.83-.6a121.2,121.2,0,1,1,23.65,0C935.84,1796.5,931.9,1796.71,927.92,1796.71Zm45.17,0h-5.23c.55-.17,1.11-.39,1.67-.6a127.57,127.57,0,0,0-1.67-241.79h5.23a120.76,120.76,0,0,1,86.27,35.91,119,119,0,0,1,34.92,85.28,121.9,121.9,0,0,1-36.08,86c-19.84,19.8-45.13,31.93-72,34.63A111.7,111.7,0,0,1,973.09,1796.71Zm732.15-264s18.17,28.15,18.3,28.32c1.84,2.83-3.17,5.92-5.19,3.39l-18.25-22.89C1701.38,1539,1705.07,1533,1705.24,1532.72Zm-43.54-7.59a64.35,64.35,0,0,0,2.66-10.2,50.67,50.67,0,0,1,10.07,5.19,57.79,57.79,0,0,1,14.87,15.72c1.54,2.36,5,0,3.55-2.35a71.74,71.74,0,0,0-15.85-16.8,34.19,34.19,0,0,0-12-5.79c.73-5.1.9-14.61-1.5-20.48a31.16,31.16,0,0,1,13.28,4.15c9,5.23,16.59,14.53,23.32,28.5,1.41,2.92.94,4.33-.77,7-4.46,6.81-10.33,17.18-10.2,29.1a66,66,0,0,0,1.37,11.35c.25,1.59-1.67,5.53-2.45,6.86a32,32,0,0,1-5.7,6.82c-8.57,8.48-17.18,17.78-26.91,24.94a40.5,40.5,0,0,1-9.34,5.1c-2.66,1-.9,5.23,1.54,4a44.52,44.52,0,0,0,10.33-5.61c9.94-7.24,18.64-16.76,27.38-25.37a38.25,38.25,0,0,0,6.48-7.8,21.19,21.19,0,0,1-.9,9c-1.42,3.94-4.59,7.24-7.46,10a155.67,155.67,0,0,1-35.19,25.71c-3.51,1.84-5.22,1.37-8.27-1-6.81-5.27-13.11-11-13.24-17.65-.09-5,3.17-9,7-13.67a50.3,50.3,0,0,0,6.64-9.56,27.9,27.9,0,0,0,2.14-6.17,55.41,55.41,0,0,1,13.59.26,3.75,3.75,0,0,0,4.2-3.35c.17-3,.68-11.74.47-16a4.11,4.11,0,0,0-4-3.82c-4.71-.25-16.29,1.12-16.41,1.12-1-3-2.19-6.13-3.43-9.22,4.33,2.79,13.07-2.57,14.53-3.81C1656.38,1537.17,1659.51,1531.13,1661.7,1525.13Zm-20.14,33.43c4.37-.52,10.75-1.24,15-1.29.17,3.39-.17,10.59-.43,14.79a58.89,58.89,0,0,0-13-.3A40.15,40.15,0,0,0,1641.56,1558.56Zm-5.23-50.79q2.31-1.86,4.37-3.73a171.33,171.33,0,0,0,13-12.59s1.41-1.55,1.54-1.8l1.46,1.54c4.24,7.11,2.14,22.88-1.07,31.71-3.65,10.07-9.18,16.16-14.75,16.33-3.85.13-7.37-2.66-9.55-7.63l-8.62-14.53A163.39,163.39,0,0,0,1636.33,1507.77Zm-34.76-718.91a1,1,0,0,1,1-1H1641a1,1,0,0,1,1,1v4.46a6.25,6.25,0,0,1-6.26,6.21h-27.6a6.68,6.68,0,0,1-6.64-6.64ZM1473.9,840.25c1.07,2.23,2.23,3.47,2.23,6a22,22,0,0,1-5.78,14.48l-36.73-1.88c0-5,2.83-9.73,5.78-14.7,2.57-4.29,5.19-8.7,6.22-13.67.9-4.33.51-8.7.08-12.94s-.77-8.19.09-12c1.2-5.1,4.41-9.39,6.51-14.1,1.8-4,2.7-9.73,3.69-15.73.47-3.09,1-6.34,1.67-9.52.56-2.65-3.69-3.64-4.2-.9-.69,3.3-1.2,6.56-1.71,9.73-1,5.75-1.8,11.15-3.39,14.66-2.23,5-5.48,9.51-6.73,14.87-1,4.5-.6,9-.17,13.41.39,4.08.73,7.93,0,11.62-.9,4.28-3.34,8.4-5.74,12.38-3.09,5.23-6.3,10.59-6.39,16.68l-14-.73c-1.63-5.92,2.74-13.25,6.6-19.76a49.5,49.5,0,0,1,3.08-4.71,20.47,20.47,0,0,0,3.56-5.83c1.63-4.67.43-9.39-.73-14-1.84-7.16-3.43-13.37,4.89-19.85,10-7.8,7.71-15.94,5.48-23.82-3.25-11.62-7.28-26.15,27.56-50.23,14.23-9.86,29.7-12,40.16-12,20.52,0,35.27,7.46,38,12.82a3.13,3.13,0,0,0,2.06,1.67c.13,0,13.71,3.47,22.41,12.47,7.8,8.06,12.09,20.18,12,33.68l-8.27-.21c-1.93-12.43-10.28-26.4-21.94-36.09a2.13,2.13,0,0,0-2.74,3.26c10.41,8.74,18.3,21.51,20.31,32.7-27.09-.77-88.41-2.44-88.54-2.44a3.25,3.25,0,0,0-2.66,5.14c3.13,4.16,5.62,13.89,1.93,20.57a31.42,31.42,0,0,0-2.61,5.06c-1.59,4.84.38,9.38,2.14,13.33,1.29,2.91,2.48,5.65,2.23,8.1-.22,2.27-1.67,4.54-3.22,6.9-.38.6-.77,1.2-1.11,1.8C1471.93,833.05,1472.62,837.59,1473.9,840.25ZM1568.61,793a77.63,77.63,0,0,0-4.32-18.52l13.15.35a13.2,13.2,0,0,1,1.12,6.72,13.73,13.73,0,0,1-1.07,3.78,44.75,44.75,0,0,1-2.28,4.62V793Zm6.6,6.43v6.68h-31.58v-6.68Zm-92.91,50.27a22.24,22.24,0,0,0,.26-3.35c0-3.64-1.33-5.74-2.87-8.87s1.15-6.73,2.78-9.21c1.93-3,3.82-6.13,4.2-9.73.43-4-1.15-7.76-2.7-11.31-1.5-3.35-2.74-6.26-1.93-8.79a23.89,23.89,0,0,1,2.15-3.94c3.64-6.69,3.13-15.56.47-22.25l72.64,2a70.18,70.18,0,0,1,4.76,18.73h-21.64a3.24,3.24,0,0,0-3.22,3.21v13.12a3.24,3.24,0,0,0,3.22,3.21h21.12a78.12,78.12,0,0,1-2.65,11.31c-6.22,19.37-20.92,39.77-43,41a30.73,30.73,0,0,1-4.5,0C1500.73,864,1490.57,858,1482.3,849.68Zm50.53,37.11c-.43,4.28-20.14,19-34,19a11,11,0,0,1-5.18-1.11c-12.69-6.77-7.29-23.7-7-24.43,0,0,1.63-8.74,2.44-12.6.26-1.15.52-2.36.77-3.64a46.82,46.82,0,0,0,21.05,7.2c1,.08,2.18.13,3.13.13a42.2,42.2,0,0,0,16.84-3.56Zm-173.52,12,51.77,70.58c.72,12.38,1.75,24.81,3,37,.42,4.11,6.9,3.51,6.38-.65-1.11-11-2.06-22.2-2.78-33.34.21-.13,2.82-4.11,2.82-4.11,1.85,6.64,5.62,14,12.22,22.07,0,0-1.5,21.6-2.36,34.5l-18.56,12.47c-3.34,2.31-9.38,1-17.4-6.09,0-.25-70.24-112.06-70.24-112.06Zm-146.06,281.09-20.18-85.41h81c-.94,2.18-1.93,4.32-2.91,6.51q-16.59,35.94-46.63,78.9Zm6.64,6.43c-1.24,1.75-2.52,3.51-3.85,5.31l-1.25-5.31Zm86.83-190.07a317.92,317.92,0,0,0,1.67-32.53,312.55,312.55,0,0,0-2.23-38,15.89,15.89,0,0,0,4.25.56,16.89,16.89,0,0,0,9-2.62l27.68,44.1a285.07,285.07,0,0,1-1.67,28.5Zm38,6.43a330.09,330.09,0,0,1-22.8,85.37h-38.18a335.73,335.73,0,0,0,22.28-85.37ZM1316,918.16a10.42,10.42,0,0,1-10.37.34,13.09,13.09,0,0,1-3.35-3,21.29,21.29,0,0,1-3.42-6c4.32,0,8.65,0,13,.38.9,0,3.3.22,3.94,1.12C1316.06,911.52,1316.15,918.07,1316,918.16Zm-16.76,3.47v0a310.12,310.12,0,0,1,2.74,42,304.32,304.32,0,0,1-1.71,32.53H1169.84l-20.19-85.37h142.8a27,27,0,0,0,4.89,8.83A16.91,16.91,0,0,0,1299.22,921.63Zm.3,81a328.1,328.1,0,0,1-22.8,85.37h-85.2l-20.14-85.37Zm-22.58,101c1.41-3.09,2.78-6.13,4.11-9.21h38.1c-.94,2.14-1.93,4.32-2.91,6.51-11.88,25.84-27.22,52.33-45.43,78.9h-38.57C1251.27,1152.37,1266.22,1126.87,1276.94,1103.64Zm45.12,0c1.42-3.09,2.79-6.13,4.07-9.21h60.3l20.15,85.15-128.06.26A532.8,532.8,0,0,0,1322.06,1103.64Zm6.77-15.64a337.1,337.1,0,0,0,22.33-85.37h13.59l20.18,85.37Zm23.06-91.8c.64-6.21,1.12-12.47,1.33-18.73l9,14.27,0,0,2.78,4.41Zm-14.83-110.7c3.26.43,5.53,2.53,7.76,4.76.09.13,4,3.81,5.7,5.23-1.29.6-25.07,12.94-25.5,13.16-.39,0-6.64-4.93-7.46-5.28a31.33,31.33,0,0,0-9.94-1.54l-9.81-.38c1.67-4.85,4.07-11.15,5.14-13.42,7.5-2.36,15.51-2.83,25.16-2.83A70.76,70.76,0,0,1,1337.06,885.5ZM1060.13,390.6c-.22.34-.43.73-.69,1.07-2.14,2.92-15.17,17.49-38.1,18-19.28.48-31.33-9.12-35.57-13.28a25.49,25.49,0,0,1-4.93-6.3c2.57-.77,10.93-2.66,18.43-4.24,2.36-.52,2.53-2.7,2.87-4.67l2-12.35c3.34,1.67,11.05,1.89,11.87,1.89,6.94,0,15.34-1.5,21.6-4.63.17,0,1.71,14.87,1.71,15,.3,2.36.82,4.29,3.34,4.85C1043.71,386.32,1056.53,389.79,1060.13,390.6ZM970.9,287.83c.09-2.95.26-5.91.43-8.87.21-3.9.38-7.76.77-11.48,2.1,1.8,11,5.65,14.27,6.21,7.89,1.41,16-.17,23.79-1.54,10.24-1.85,22.8-4.16,31.5,3.3,3.77,3.21,5.4,7.45,6.34,12.17,2,16.75,5.4,25.67,7.58,31.58,1.12,3,2.62,6.17,2.15,9.43a45.13,45.13,0,0,1-7,18.56,34.61,34.61,0,0,1-14.18,12.17,48,48,0,0,1-17.79,4.93,34.93,34.93,0,0,1-19.63-4.59c-12.38-7.33-19.2-21.51-22.58-31.07A110.89,110.89,0,0,1,972,311.4,108.55,108.55,0,0,1,970.9,287.83Zm-21.47,60.6c2-4.33,4.67-8.31,6.69-12.64a45.3,45.3,0,0,0,3.47-26.53c-.69-4.29-2.19-8.44-2.79-12.77-1.16-7.84,1.24-23.91,8.14-36.51.18.3,1,1.8,1.33,2.22-.81,5.49-1.11,11.06-1.37,16.46-.13,2.92-.3,5.79-.51,8.66a139.26,139.26,0,0,0,1.24,25.2,111.22,111.22,0,0,0,4.89,18.25c6.17,17.45,15.68,29.62,27.55,35.66l-2.18,13c-12.73,3.21-29.15,7.16-40,8.83-2.1.34-8.74,2.95-8.53,2.61-1.2-.13-1.8-15.08-1.8-21.73C945.57,362.06,946.52,354.9,949.43,348.43ZM899.5,555.17c-14.18,0-24-15-18.3-28l58.72-120.85c.51-.81,6.3-10,17-11.66,5-.81,11.1-2,17.44-3.43,1,2.92,3.47,6.39,6.94,9.78a55.37,55.37,0,0,0,38.7,15.12c14.06,0,28.07-4.58,38.57-14.05a39.7,39.7,0,0,0,6.13-6.69,18.27,18.27,0,0,0,2-3.47l13.33,2.7a38.35,38.35,0,0,1,7.2,1.93,9.87,9.87,0,0,1,1.71.77c4.8,2.31,5.83,5.1,9.26,10,1,2.23,11.31,20.27,20.74,43.28,8.32,20.23,17.62,44.79,24,67.29,5.23,18.55-2.7,23.91-9,26.27l-26.49,9V498c0-.43,5.88-1.2,6.35-1.33,4-.9,2.7-7.16-1.37-6.26-1.63.34-3.3.64-5,.94V465.69a3.21,3.21,0,0,0-3.21-3.22h-21c-.77-7.16-2.7-24.68-3.9-28.46-1.24-3.94-7.41-2.05-6.13,1.93.82,2.62,2.49,16.42,3.56,26.53H958c2.06-7.88,4.5-15.68,7.29-23.31,1.41-3.9-4.63-6.09-6-2.19-3,8.32-5.7,16.89-7.92,25.5H938.5a3.24,3.24,0,0,0-3.21,3.22v51.68c-12.13-1.63-22.12-1.2-29.7,1.2-3.86,1.2-1.89,7.58,2,6.13,6.81-2.19,16.16-2.49,27.73-.86V561S899.67,555.17,899.5,555.17Zm201.43-86.27V583.45H941.72V468.9ZM653.81,1041.07V1026.2c0-106.5,28.41-189,85.75-243.64C787.61,736.75,857.63,709,935.5,702c.6-.09,2.49-.47,2.83-.51l.43,24.6a3.13,3.13,0,0,0,3.21,3.08h16.8l23.32,110.27-6,22.54c-1.67-.08-3.34-.13-5.06-.13-35.87,0-62.4,14.83-78.85,44-15.9,28.11-24.65,73.62-26,135.25ZM937.39,905.82c-15.9,28.11-24.64,73.62-26,135.25h-38.7C874,980.6,882.45,936.16,897.79,909c15.47-27.43,39.47-40.76,73.28-40.76,1.16,0,2.27,0,3.39,0l-.65,2.36C958.69,877.92,946.52,889.7,937.39,905.82Zm82.28-25.63c-.9,2.91-7.46,5.61-12.13,6.26-7.07,1-15.55-2.66-16.67-3.6-3.17-2.66-7.5,1.67-4.5,4.58,5.19,5.06,15.13,6.39,22,5.4,3.64-.51,7.59-1.33,10.89-3.26l-1.16,26.58c-.82,11.74-10.8,20.05-17.66,18l-21.73-6.35c-6.64-1.92-10.15-12.29-7.54-22.15l11.61-44c1.42,10.33,8.32,18.38,17.75,19.84a20.43,20.43,0,0,0,10.37-1.2c1.58-.6,8.91-3.69,9-6Zm1.37-21.34c-1.5,9.85-10.33,16.5-17.61,16.5-9.3,0-14.4-9.09-14.44-17.49l0-16.71c0-.22-23.61-112-23.61-112H1021Zm-75.9-136.07s-1-59.19-1-59.57c-.09-4.07-6.43-4.07-6.43.08l.55,31.25c-16.88-15.3-26.09-51.35-13.15-82.72l10.8-23.31a3.2,3.2,0,0,0,2.61,1.37h165.64a3.21,3.21,0,0,0,3.21-3.21l11.83,25c14.1,34.24,1.93,74.09-18,86.61,0,0-.3-35.06-.3-35.1,0-4-6.43-4.07-6.43.08l.56,59.49Zm82.46,6.34h52.5s-19.76,112-19.76,112.2v14.74c0,8.27-5,17.27-14.1,17.49-8.83.21-17.36-7.67-18.64-16.07ZM1045.9,880c10.16,0,17.83-7.84,20.1-17.35,0,0,1.88,8.27,1.88,8.31.3,7.2-5.27,11.44-11.22,14.1a31.3,31.3,0,0,1-15.13,2.27c-8.45-.6-13.85-8.83-13.85-8.83l0-7.75C1032.27,876.29,1039,880,1045.9,880Zm-1.42,53.19c-6.81,2.31-16.37-5.23-16.71-16.84l-.09-28.25c0,1.2,5,3.3,5.92,3.73,8.31,3.52,17.61,2.36,25.71-1.2a60.26,60.26,0,0,0,6.43-3.34c.86-.51,5.14-3.13,4.84-4.37l4.59,20.14c2.27,9.86-1.8,20.49-8.7,22.8ZM815.42,1483.65c1.54-41.83,11.31-83.66,29.14-124.37,18.3-41.92,46.16-85.76,82.84-130.24,6.77-8.23,16.8-20.06,30.73-36.09,68.57-79.88,103.33-155.61,103.33-225.08a171.4,171.4,0,0,0-2.92-32.61l10-3.34c10.15-3.39,15.94-17,12.94-30.3l-14.23-62.57,19.42-109.93h11.52c5.4,0,3.13-13.54,3.09-16.93,45.94,11.57,85.15,31.07,117.25,58.37,3.39,2.87,6.77,5.92,10,9,3,2.83,7.5-1.8,4.42-4.67-3.35-3.17-6.82-6.26-10.29-9.26a258.39,258.39,0,0,0-43.46-30,303.49,303.49,0,0,0-50.65-22.16c-9-3-18.09-5.44-27.26-7.93a10.69,10.69,0,0,0,2.83-1.54c68.14,9.73,118.54,31.37,159.51,66.55q51.49,44.24,71.44,108.3c-1.07,0-7-.09-7-.09a109.08,109.08,0,0,0-21.65,1.72c-3,.64-5.7,1.11-8.22,2.91,0,.09-.13.17-.18.26a231.81,231.81,0,0,0-43.19-85.15c-2.62-3.22-7.63.72-5,4.07,21.09,26.1,35.79,56.4,44.06,90.59-1.55,4.33-3.73,11.23-3.73,11.23H1148.5a.76.76,0,0,0-.35.05s-9-38-9-38.23c-.94-4-7.24-2.53-6.26,1.5l74.74,316c.05.17.09.34.13.51l3.35,14.14q-21.42,28.94-48.47,60.6c-45,52.29-76.55,95.23-93.94,127.71-17,31.72-28.08,64.33-32.87,97Zm298.28-96.77c-13.16,28.75-27.52,62.22-32.74,96.77h-38.7c4.8-31.59,15.55-63.17,32-93.94,17.19-32.06,48.52-74.66,93.17-126.56q25.14-29.37,45.52-56.61l8.69,36.77C1217.15,1248.54,1134.78,1340.76,1113.7,1386.88ZM1218,1199.81c3.34-4.59,6.6-9.09,9.73-13.54h38.52q-17.92,25.65-39.42,51Zm10.67,45.17a728.58,728.58,0,0,0,45.47-58.71l133.93-.26,20.27,85.63H1235Zm72.9,308.52H1471c-.56,1.33-1.63,4.12-1.67,4.16-1.55,4.15-2.79,8.14-3.9,11.74-2.75,8.49-5.1,18.56-14.15,22.41a72.09,72.09,0,0,1-8.48,2.75c-7,1.88-14.31,3.85-18.9,10.32-5.44,7.72-3.6,17.75-.77,27.43a24.84,24.84,0,0,0,1.37,4.29H1321.38Zm180.46,33c-1.92,2.87-6.47,8.57-9.21,11.79a62,62,0,0,0-9.9-7.5,39.43,39.43,0,0,0,6.13-11.87C1472.87,1581.06,1478.62,1584.19,1482,1586.54Zm70.29,209.57H1359l-14-59s192.94-.09,193.33-.26ZM1515.82,1642l21,88.71H1343.49L1322.88,1643H1435.2a164.13,164.13,0,0,0,20.1.73A160.58,160.58,0,0,0,1478,1642Zm-19-6.43c4.84-4.07,7.67-9.77,10.41-15.35.82-1.62,1.59-3.21,2.4-4.71l4.72,19.89Zm37.33-7.33c-.22,3.34-6.18,3.17-6.3-.13l-1.12-29c2.57-1.37,9.22-4.07,9.51-4.2C1536.21,1594.86,1534.12,1628,1534.12,1628.2Zm1.84-80.74c4.16,9.38,4.75,21.34,1.84,36.47a9.79,9.79,0,0,1-1,3.13c-.69.94-2.23,1.5-3.86,2.14-5.92,2.23-13.72,5.7-20.19,11.66-1.8,2-3.64,4-5.4,6a72.07,72.07,0,0,0-5.95,10.5c-2.83,5.74-5.49,11.14-10.12,14.27-6.94,4.63-17.44,4.75-25.5,5.31a161.3,161.3,0,0,1-33.68-1.37,13.7,13.7,0,0,1-2.83-5.06c-2.36-8.14-4-16.41-.17-21.9,3.26-4.58,9.13-6.17,15.34-7.88a70.86,70.86,0,0,0,9.34-3,24,24,0,0,0,6-3.69,56.2,56.2,0,0,1,10.5,7.85,3.72,3.72,0,0,0,5.35-.3c1.93-2.32,7.55-9.09,9.9-12.65a4.06,4.06,0,0,0-.94-5.48c-3.73-2.87-14-8.53-14.23-8.62.39-1.15,1.63-5.27,1.93-6.17,2.7,2.36,6.68,3.52,11.53,3.52,4.37,0,17.36-1.16,26.44-7.8a55,55,0,0,0,5.53-4.12,30.14,30.14,0,0,1,2.91,6.56,59.6,59.6,0,0,1,2.62,21.26c-.17,2.7,4.07,3,4.28.25a65.28,65.28,0,0,0-2.78-22.8c-.22-.68-3.9-8.57-4.12-8.57a47.41,47.41,0,0,0,9-20.4A30.18,30.18,0,0,1,1536,1547.46Zm-55.16-7.72,40.63-4.24c-2.4,14.27-8.44,23.4-21.77,28.12-10.37,3.68-23.19,3.21-24.64-.48C1474.76,1562.42,1480.25,1542.53,1480.8,1539.74Zm-7.15-2.4a3.41,3.41,0,0,0,.72,1.72c-.64,3.13-1.2,5.83-1.71,8H1300.08l-20.19-85.41h184.24Zm-19.8-157.84,9.51,75.73h-185l-20.18-85.37H1451C1451.27,1369.86,1453.85,1379.5,1453.85,1379.5Zm-197.18-16.07-20.19-85.36h193.37l20.18,85.36ZM1445.88,1318l-73.12-309.42,15.69,25c10.88,14.61,23.91,11.1,27,9l14.4-9.68c-3.08,45.64-6.77,102.25-6.9,113a3.38,3.38,0,0,0,2.7,3.21c.39.09,2.88.86,3.22.95,0,.21,1.2,28.07,2.44,43.28C1435,1239.28,1442,1290.71,1445.88,1318Zm-7.76-197.26c0,.17-.34,18.13-.13,25.11a84,84,0,0,1-8.57-2.27c.64-20.66,6.9-112.11,9.64-151.84.26-3.21.26-3.69-.56-4.5-21.55-25.71-11.57-41.66-4.28-53.27,0,0,17.74-32.06,19.2-35,2.87-5.87,5.18-10.5,11.7-12.64l12.94-3.56c-.3.56-1.33,2.53-1.71,3.26-9.78,20.1-19.2,40.75-28,61.28-1.93,4.54-4.37,10.24-4.29,16.24,0,1.08,2.66,85.07,1.63,95.83C1445,1066.18,1438.12,1120.65,1438.12,1120.7Zm66.47-192.3c-9.22,9.82-18.56,20.53-22.84,34-3.6,11.4-3.09,23.78-2.62,34.67.9,21.17.73,42.85.56,63.85-.17,19.63.38,60.34.38,60.34-13.5-1.54-28.84-2-35.18-2.87,0-.08,6.56-52.15,7.2-58.41,1.07-11.14-1.63-95.48-1.63-96.51,0-4.67,2-9.43,3.77-13.63,5.92-13.71,12-27.47,18.43-41.1a20.49,20.49,0,0,0,13.41,13.42c5.23,1.5,13.63,2.14,18.52-.73,2.35-1.38.21-5.1-2.23-3.69-1.67,1-3.94,1.12-6.3,1.12a29.58,29.58,0,0,1-8.74-.82A16.3,16.3,0,0,1,1476,901.49c1.12-2.36,2.23-4.67,3.35-7a21.52,21.52,0,0,0,11.27,15.82,17,17,0,0,0,8.18,1.88c12.52,0,28.85-9.9,35.83-17,3.13-3.22,4.63-6,4.59-8.74l-.17-1.85c2.57.82,7.45,2.92,7.54,3C1532,900.46,1517.87,914.17,1504.59,928.4Zm123.81-12.6-25.16-14.95c-8.18-8.92-19.54-11.45-31.15-12.86,0,0-23.49-6.6-23.58-6.64l-10.07-2.83L1537,864.59a11.63,11.63,0,0,1,3.6-.82l19.62.39c4.08,0,4.16-6.43,0-6.43l-14.06-.25c1,0,3.86-4.08,4.5-4.85a62,62,0,0,0,4.54-6.08,79.44,79.44,0,0,0,9.77-20.83,78.53,78.53,0,0,0,3-13.2h7.2s0,4.54,0,4.63c-2,3.64-1.28,6.9,2.36,10.11-1,1.33-1,5.74-1.07,7.37-.21,4,2.1,6.65,4.37,9.77a19.26,19.26,0,0,1,3.39,13.38l-7.85-.48c-4.15-.25-4.54,6.13-.38,6.43l10.63.6s.13,0,.17,0a3.17,3.17,0,0,0,3.08-2.36,25.31,25.31,0,0,0-3.81-21.39c-2.7-3.73-4.2-5.61-2.7-10.41,3,.94,5.91,1.46,8.91,2.18,4.12.82,8,1.59,13.38,11.66.55,1,2.22,3.13,2.27,3.26C1608,847.75,1629.56,916.15,1628.4,915.8Zm15.3-84c-.09.22-31,10.84-31,10.84a6.21,6.21,0,0,1-1.33-1.58c-4.07-7-10.76-15.26-19.88-15.26a50.66,50.66,0,0,1-6.39-1.76c-1.16-.38-2.66-.72-3.43-1.84-.55-.86-.94-1.8.56-1.8,0,0,.09,0,.13,0l64.71,0A41.7,41.7,0,0,1,1643.7,831.76ZM1684,813.93H1581.64V791.56h13.5v1.33A13.09,13.09,0,0,0,1608.21,806h27.6a12.67,12.67,0,0,0,12.69-12.64v-1.76H1684Zm87.86,8.7h-81.43V782.86h81.43Z"/><path class="cls-10" d="M742.65,1136.38c-1.8-11.23-7.2-19.24-15.26-22.54-21.38-8.74-40.88,16.8-47.78,33.6-4.89,11.91-6.69,24.34-5,35,1.54,9.82,5.87,17.15,12.3,21.09l-5.15,12.51-4.2-1.71a31.45,31.45,0,0,0,.73-7.72A8.31,8.31,0,0,0,672,1199c-4.2-1-7.24,1.58-9.64,4.71-2.74,3.56-5.31,7.25-8.57,10.33-.52.51-7.76,6.43-8.4,5.79L561.2,1184.6l-39.22-101c11.79-1.29,20.23-5.79,26.7-14.19,2.4-3.13,15.3-21.68,19.72-36,.51-.47.94-.9,1.37-1.37a95.48,95.48,0,0,0,13-17.23q4.31-7.2,7.45-13.89a2.53,2.53,0,0,0,.22.13,19.15,19.15,0,0,0,9.08,2.15,24.92,24.92,0,0,0,14.92-5.1A13.91,13.91,0,0,0,619.7,987a17.79,17.79,0,0,0-2.66-9.39c9.21-5,15.55-16.32,14.65-27.21-.85-10.29-7.79-19.11-17-23.44-2.23-1.07-9.6-4-9.6-4s-.43-3.34-.6-4.89a26.11,26.11,0,0,0-6.73-14.1,29.61,29.61,0,0,0-17.87-9.42,27.57,27.57,0,0,0-7,0c-2,.25-6.43,1.32-6.43,1.32s-1.88-1.24-2.65-1.8c-7.42-5.65-18.64-14.18-30.86-5.14-1,.77-4,3.64-4.54,4.12,0-.09-8.79-5.06-9.56-5.4-8.7-3.52-18.94-1.46-27.3,2.31-9,4-13.24,12.77-13.37,12.94a17.16,17.16,0,0,0-1.88.82c-7.38,3.3-25.37,14.1-32.62,42.38-7.15,27.73,3.82,38.87,6.05,40.8-7.93,13.5-9.78,25.54-7.29,36.9a74.74,74.74,0,0,0-26.88,2c-10.87,2.88-23.42,7.45-31.63,15.4-4.73,4.58-9.18,9.44-13.54,14.36-11.34,12.77-22.08,26.07-32.66,39.47s-21.05,27-31.36,40.73q-9.87,13.13-19.59,26.35c-.7,1-1.43,1.89-2.09,2.86-1.89,2.79-3.22,76.42-3.35,76.59-5.87,6.86-20.95,24.73-26.1,40.63-.9,2.74,0,5,1.85,7.11-10.89,40.46-3.3,94.11,31.88,226.62,1.07,4,7.33,2.4,6.22-1.62-33.65-126.69-41.92-182.06-32.62-220.67,2,1.24,17.23,10,17.36,10-.13,14.48-.22,28.41-.3,40.71a3.24,3.24,0,0,0,3.26,3.21l6.38-.08c-4,13.28-1.37,42-.64,49.07-.52,7,2.4,14.53,8.18,21,7.25,8.14,17.66,13.59,26.75,13.89a7.94,7.94,0,0,0,5.65-2.75c6.82-7.15,10.89-30.08,12.13-42.85a45.13,45.13,0,0,0,4.33,3.68c3.3,2.32,11.31,4.29,14.74,1.29,4.46-3.9,5.27-8.79.3-12.6-4.37-3.39-9.17-14.83-10.84-19.89-1.11-3.47-5-8.31-8.48-12a3.2,3.2,0,0,0,1.8-2.61l.34-4.5a68.14,68.14,0,0,0,17.4,7.07,87.56,87.56,0,0,1,9.9,3.34,3.91,3.91,0,0,0,2.95-.08c1.12-.52,3.35-1.59,8.62-19.55,3,1.16,17.35,6.82,19.5,7.63-6.39,13.84-5.7,15.56-5.23,16.72a4.06,4.06,0,0,0,2,2c9.43,3.6,19.41,5.53,27.21,5.53a37.61,37.61,0,0,0,5.19-.35l2.23,168.73-35.79,184.66L342,1711.47l33.26-172.28a3.08,3.08,0,0,0,0-.6s1.89-173.31,1.89-173.87c0-4.16-6.35-4.24-6.43-.09l-1.89,173.61-34,176.4-32.27-3.13L338.17,1526s-8.7-69.34-8.74-69.73c-.34-2.74-4.54-2.18-4.24.56l8.66,69L294.46,1731l-32.83-2.79,2.83-16L290,1714.6c2.62,0,2.83-4,.22-4.29l-25-2.44,30.56-174.38a118.47,118.47,0,0,0,16.54,1.15c1.24,0,2.53,0,3.81-.08,4.12-.13,3.9-6.47-.21-6.39a103.73,103.73,0,0,1-22.16-1.67,3.27,3.27,0,0,0-3.73,2.57s-35.22,201-35.31,201.47c-.51,3,2.19,3.69,4.46,3.9l-2.1,11a3.29,3.29,0,0,0-3.26,2c-6,14-6,39.22-4.54,48.73H225a3.22,3.22,0,1,0,0,6.43h320a3.22,3.22,0,1,0,0-6.43h-66.3a73.36,73.36,0,0,0,1-7.54,1.88,1.88,0,0,0,.34-1.12,1.85,1.85,0,0,0-.17-.81,64.36,64.36,0,0,0,.13-8.7c-.21-5.1-1.16-9.94-3.51-12.56-7.12-7.88-20.06-7.76-29.79-7.46a107.45,107.45,0,0,1-19.63-.85c-9.72-1.5-14.18-4.93-21.77-10.85l-2.87-2.22a12.61,12.61,0,0,0-6.64-2.28c-1.37-.12-6.39.09-6.73-.21s-.94-.9-1.37-1.37l8.7.6a3.21,3.21,0,0,0,3.17-2.61l40.07-207a3.6,3.6,0,0,0,.09-.69l-2.23-171.12a6.2,6.2,0,0,0,2.66-3.6s17.57-57.64,17.57-57.82c5.1-8.44,25.8-47.52,42.12-94,5,9.09,13.85,24.77,17.32,28.5,25.15,27,115.41,46.71,115.67,46.71a3.18,3.18,0,0,0,2.74-1.58,60.93,60.93,0,0,0,10.46,4.28,11.69,11.69,0,0,0,.72,6.39,11.9,11.9,0,0,0,10.72,7.11,11.5,11.5,0,0,0,10.24-6.25c.22-.43,4.93.51,5.53.55a16.29,16.29,0,0,0,8.1-1.11,17.92,17.92,0,0,0,6.26-5.4c2.48-3,9.21-20.4,10-26.79.47-3.51,1-7.45.26-11.44-.6-3.47-4-6.38-8.36-8.53l4.8-11.65a3.19,3.19,0,0,0-1.76-4.2l-4.71-1.93,5.19-12.6a19.58,19.58,0,0,0,5,.64c14.79,0,31.12-14.48,39.64-35.23C742.56,1159.44,744.32,1147,742.65,1136.38ZM280,1296c-2.58-1.58-19.12-10.46-18.69-11.87,3.73-11.61,13.11-24.69,19.33-32.53C280.36,1266.15,280.15,1281.28,280,1296Zm56.91,442.11.26-1.42,40.71,2.79c1.46,1.58,3.21,3.47,5.23,5.4-6.26,3-16.46,4.24-28.16,4.24a130.84,130.84,0,0,1-14.18-.77l-5.83-4.54c-2.49-1.93-5.75-2.28-8.19-2.32a7,7,0,0,1-.73-1.41l7.72.64A3.21,3.21,0,0,0,336.89,1738.13Zm-35.1-22.38,32.27,3.09-3,15.26-32.31-2.75ZM265.7,1735l52.55,4.45c.47,1,.94,1.93,1.45,3a7,7,0,0,0-1.15.6c-6,3.86-17.36,6-31.2,6a126.25,126.25,0,0,1-23.92-2.27Zm139.67,49.75-79-.73c-2,0-3.6,1-3.6,2.15s1.58,2.14,3.55,2.14l78.64.69c-.38,3-.9,7.11-.81,7.11s-147.81,0-148.41,0c-.17-1.46-.39-4.93-.47-7.76l35.61.22c2.74,0,2.79-4.29,0-4.29l-35.74-.21c-.17-9.39.51-22.16,3.77-31.63a130.58,130.58,0,0,0,28.46,3c8.87,0,25.2-.9,34.84-7.07a6.73,6.73,0,0,1,2.91-.51c-3.77,4.28-7.45,11-8,12.9-.77,2.61,3.38,3.9,4.11,1.2.52-1.76,3.13-6.09,5.62-9.39a17.84,17.84,0,0,1,3.64-3.94c.13,0,3.3,2.53,3.3,2.53a9,9,0,0,0-2.49,2.31c-2.61,3.26-4.15,8.14-4.54,9.43-.77,2.61,3.39,3.81,4.12,1.16a26.94,26.94,0,0,1,2.18-5.79,10,10,0,0,1,1.84-2.61,6.49,6.49,0,0,1,2.45-1.76c.25.21.55.38.81.6,9,6.68,16.59,10,40.84,9.47,1.2,0,2.45,0,3.73,0,6.9,0,16.59.55,20.74,5.27C405.41,1771.42,405.67,1778.5,405.37,1784.75Zm67.8,5.87c-.09.86-1,4.72-.94,5.49,0,0-55.07,0-61.63,0a64.5,64.5,0,0,0,1.07-7l61.59.47A9.45,9.45,0,0,1,473.17,1790.62Zm-47.1-27.21a108.56,108.56,0,0,0,16.93,1c2.44,0,4.84-.09,7.29-.09a62,62,0,0,1,12.25.94c3.26.69,6.82,1.85,9.09,4.42,1,1.15,1.58,3.6,1.84,6.55a70.89,70.89,0,0,1,0,9v0l-61.54-.48c.26-4.88.17-10.32-1-14.57a20.88,20.88,0,0,1,3.68-9.47C414.76,1760.62,421.61,1762.77,426.07,1763.41ZM407.56,1756a35.7,35.7,0,0,0,3.55,2.35,26.49,26.49,0,0,0-3.12,6.17,17,17,0,0,0-3.95-3A13.41,13.41,0,0,1,407.56,1756ZM388,1749.44a11.78,11.78,0,0,1,9-1c.86.2,7.34,4.75,7.12,5a17.77,17.77,0,0,0-4,6.3c-6.73-2.31-14.87-2.27-21.3-2.14-12.26.3-19.58-.3-25.2-2h1.33C363.29,1755.57,378.33,1754.75,388,1749.44Zm5.69-15.3-55.32-3.77,2.83-14.66,55.41,3.43Zm279.38-501.93,4.5-10.93,9.47,3.9-3.64,8.83a42.27,42.27,0,0,0-10.33-1.8l0,.08S673,1232.17,673.09,1232.21ZM577.31,1011.5a91.92,91.92,0,0,1-12.17,16.11c-.47.52-1,1-1.46,1.5-1.71.9-10.63,5.53-17.57,5.53-4.24,0-5.57-1.76-6.26-3.08-4.62-9.43-15.34-12.48-22.62-14.53-16.72-4.8-27.47-11.4-32-19.67-3.13-5.7-3.48-12.39-1-20.45a6.23,6.23,0,0,0-.86-5.65c-1.24-1.63-3.3-3-5.44-2.66-.6.09-1.54-2.36-1.67-2.66-1.5-3.85-1.72-8-2-12.08-.26-3.56-1.12-7.46.64-10.76,1.37-2.61,3.69-5,6.81-5a7.13,7.13,0,0,1,6.56,4.67c.69,1.93,1.42,6.3.09,8.1-1.63,2.19.17,5.83,3.08,5.1,4.16,1.76,9.34,3.3,13.84,2.1s8.28-4.24,11.83-7.11a14.4,14.4,0,0,0,4-6.09c3.64,7.16,11.4,16.42,27.73,22.33a26.82,26.82,0,0,0,19.5-.34c2.4,13.54,7.92,23.74,16.45,30.47C582.75,1001.86,580.22,1006.57,577.31,1011.5ZM449.86,947.73c5.87-22.67,19-32.83,26.31-36.86a50.24,50.24,0,0,0,1.93,6.65c1.33,3.94,7.46,1.92,6.13-2.06a37.34,37.34,0,0,1-2.06-7.33c.6-2,6.6-9.08,8.7-10.5,7.59-5.18,19.46-7.24,27.9-3.34,5.06,2.36,9,7.24,12.47,11.44,2.57,3.17,7.59-.81,5-4-1.33-1.67-2.44-3-3.38-4a42.75,42.75,0,0,1,3.9-3.6c7.71-5.7,14.74-1.28,23.18,5.15,1.67,1.28,3.39,2.7,5.61,3,4,.55,7.89-1.72,11.92-1.5a22.36,22.36,0,0,1,11.53,4c5.65,3.9,8.48,9.51,9.13,16.28a22.65,22.65,0,0,1-.18,5.4,25,25,0,0,1-4,10.41,3.26,3.26,0,0,0,2.65,5,3.11,3.11,0,0,0,2.66-1.42,30.72,30.72,0,0,0,4.54-10.54,32.45,32.45,0,0,0,4.89,1.59c9,2.57,15.9,10.58,16.63,19.45.77,9.52-5.83,19.8-14.49,22.42a3.23,3.23,0,0,0-1.07,5.57,10.48,10.48,0,0,1,3.56,8,7.77,7.77,0,0,1-2.7,6c-5.06,3.85-12.39,4.88-17,2.4-10.88-5.88-17.44-17.27-19.45-33.82a3.24,3.24,0,0,0-5-2.27,20.72,20.72,0,0,1-18,1.89c-18.25-6.65-24.13-17.62-26-23.53s-1.16-10.89.3-12.94c2.4-3.39-2.83-7.07-5.23-3.69-2.87,4.07-2.57,9.39-3.25,14.1-.6,3.9-1.12,8.23-4.16,11.14-2.79,2.57-7.76,6.65-11.87,5.79a37.08,37.08,0,0,1-5.7-1.54,22.53,22.53,0,0,0-.86-9.95,13.18,13.18,0,0,0-14.14-8.78c-4.89.6-8.62,4.07-10.89,8.23-2.44,4.45-1.67,9.68-1.41,14.52.3,5.36,3.08,14.92,3.21,16-1.75,2.7-13.63,9-18.17,10.54C450.41,978.2,444.41,968.77,449.86,947.73ZM457.78,986c6.13-2.57,12.39-6,17.79-11.57a6.72,6.72,0,0,1,2.53.6c-2.92,9.64-2.44,18.21,1.5,25.41,5.44,10,17.18,17.45,36,22.8,6.39,1.8,15.09,4.29,18.47,11.14,1.5,3,4.8,6.69,12,6.69,4.63,0,9.73-1.54,13.72-3.13-5.23,12-14.4,25.2-16.25,27.56-6.51,8.44-15.17,12-29.05,12.08-12.26,0-31.29-7-43.93-20.35-8.4-8.88-16.71-18.73-20.74-30.46-3.66-10.65-2.12-21.78,2.72-31.79A75.64,75.64,0,0,1,457.78,986Zm3.52,93.08c6.64,5.19,16.11,8.23,24.34,7.42-.3,2.31-.64,4.63-.94,6.9-.09,0-.13,0-.22.08-6,1.07-24.17-4.67-24.17-4.67C460.53,1086.67,461.09,1082.17,461.3,1079.08Zm-4.71-28.15c2.78,3.55,6,7.11,9.34,10.71a73.81,73.81,0,0,0,24.21,16.72c-.51.34-1,.68-1.58,1.07h-.09a19.18,19.18,0,0,1-5.57.77c-8.19,0-17.32-4.33-21.73-10.29,0,0,0,0,0-.08C460.06,1067.26,458.26,1059.28,456.59,1050.93Zm35.78,33.64a36.55,36.55,0,0,0,4.59-3.64,67.61,67.61,0,0,0,7,1.84l-20.1,97.5-14.4,22.32C480.93,1165.18,486.88,1125.41,492.37,1084.57Zm-47.83-53.83a51.19,51.19,0,0,0,3,6.47c1.07,6.09,5,28.46,7.76,35.1-2.62,45-9.77,87.77-21.39,127.67l1.07-41.87c.09-.47,7.85-46.8,9.39-67.33s-4.84-51.21-7.07-61.07A39.61,39.61,0,0,1,444.54,1030.74ZM286,1341.06c0-4.24.08-8.65.08-13.15,7.93-.35,34.67.68,51.65,1.54,0,.56-.78,10.8-.78,10.8Zm57.73,19.29c.21.73,5.69,17.31,13,23,.6.43,1.07.64,1.07.9-.26,4.76-7.58.64-8.44,0-2.23-1.54-6.9-6.26-8.53-8a3.24,3.24,0,0,0-5.53,2.32c.26,7.88-4.37,39-10.8,45.64a2.7,2.7,0,0,1-1,.77c-7.11-.3-15.9-5-21.85-11.7a27.44,27.44,0,0,1-6.6-17.19c-1.76-16.84-2.53-42,.94-48.6h37.46C337.23,1350.79,342.76,1357.35,343.75,1360.35Zm27.34-17.57c-3.09-1.16-5.79-1.93-8.4-2.7a61.17,61.17,0,0,1-18.6-8.06L354.8,1197.2l69.64-92.83c2.49-3.3-2.61-7.2-5.14-3.86l-67.67,90.21a5.18,5.18,0,0,0-1.84-.51s-21.13-2.36-21.22-2.36c-4.11-.47-4.84,6-.68,6.39l19.5,2.14a3.5,3.5,0,0,0,.94.82l-10.16,128s-41.05-2-52-1.55c.6-64.88,1.92-147.68,4-155.39,4.5-6.17,71.87-98.14,100.12-124.33,16.11-10.11,31-14,42.55-14.27,1.89,8.4,8.75,40.46,7.2,60.77s-9.25,66.47-9.34,67.24l-1.54,57.6a461.94,461.94,0,0,1-16.55,43.54c-5.18,11.92-11.48,22.24-17.39,32.27C384.93,1308.58,372.63,1339.52,371.09,1342.78Zm13.45-18.86c4.93-10.76,10.63-20.27,16.2-29.53,6.09-10.15,12.39-20.7,17.79-33,22.07-50.44,36-106.62,41.57-167.31,3.6,1.16,15.9,3.9,24,4-5.23,37.41-11.36,73.79-22.33,107.91-4.25,13.07-22.72,54.73-25.84,62-9.52,22-17.1,39.51-31.08,63.94C402.63,1331,385,1324.13,384.54,1323.92Zm249.34-68.65,0,.17L630.28,1272c-3.38-.77-9.3-2.18-16.71-4.15a139.91,139.91,0,0,1,10.07-39c1.07-2.53-2.87-4.2-3.94-1.63a143.82,143.82,0,0,0-10.29,39.56c-27.77-7.58-71.74-21.68-87.6-38.74-3-3.26-12.9-20.74-19.15-32.4,7.54-22.46,13.8-46.28,16.71-68.91.51-4-5.83-5-6.34-.82-10,78.34-59.44,166.54-60.94,169.07a4.18,4.18,0,0,0-.56,1.07L434,1353.83a1.62,1.62,0,0,1-.47.39,5.71,5.71,0,0,1-1.2.51c-4.29,1.25-15.65,1.08-29.06-3.6,1-3,3.56-9,5.87-13.92,15-25.89,22.84-43.93,32.7-66.77,3.13-7.2,18.43-41.7,22-51.13l23.88-37.07,20.52-98.7c2.28.3,7.07.47,7.07.47l39.9,102.73q-1.67,1.6-4.62,4.5c-2.83,2.74-6,5.87-7.76,7.41-3,2.62,1.07,7.55,4.2,4.85,1.88-1.68,5-4.72,8.06-7.68,1.71-1.67,3.72-3.64,5-4.75l80.48,33.68-.73,3.39ZM646,1269.71a12.42,12.42,0,0,0,0,5.36c-2-.69-6.56-2.53-9.13-3.78.3-4.24,6.21-33.81,8.44-39.68a16.84,16.84,0,0,1,2.83-5.32,19.11,19.11,0,0,1,4.37-3.12c6.26-3.69,11.83-11.15,15-15.47,1-1.42,4.29-4.5,4.41-.91a27.74,27.74,0,0,1-2.18,11.32,22.45,22.45,0,0,1-2.74,4c-2.4,3-5.36,6.78-4,11.58-2.1.51-4.41,4.37-5.78,6.72A108.43,108.43,0,0,0,646,1269.71Zm9.38,18.73a5.31,5.31,0,0,1-2.74-2.7,3.8,3.8,0,0,1-.34-1.55c.68.39,6.3,2.57,8.7,3.3A4.78,4.78,0,0,1,655.35,1288.44ZM691.44,1246c.55,3,.12,6.26-.26,9.47-.73,5.66-7.12,21.56-8.62,23.53-2.35,3-4.75,4.37-8.57,4.24-5-.17-10.37-1.41-17.27-4a7.09,7.09,0,0,1-4.45-8.1,100.51,100.51,0,0,1,10.58-27.55c2.14-3.78,4.67-5,9-5C681.49,1238.59,691,1243.61,691.44,1246Zm40.28-77.1c-7.46,18.09-21.64,31.24-33.73,31.24-10.15,0-15.55-9.6-17-18.73-1.5-9.47.13-20.7,4.58-31.54,7.46-18,21.65-31.2,33.73-31.2,10.33,0,15.56,9.73,17,18.73C737.81,1146.88,736.18,1158.07,731.72,1168.91Z"/></svg>