<svg xmlns="http://www.w3.org/2000/svg" xmlns:xlink="http://www.w3.org/1999/xlink" viewBox="0 0 3710 3710"><defs><style>.cls-1{fill:url(#linear-gradient);}.cls-2{fill:url(#linear-gradient-2);}.cls-3{fill:url(#linear-gradient-3);}.cls-4{isolation:isolate;}.cls-5{fill:#fff;}.cls-31,.cls-6{fill:#f4f7fa;}.cls-7{clip-path:url(#clip-path);}.cls-8{mix-blend-mode:soft-light;}.cls-9{clip-path:url(#clip-path-2);}.cls-10{fill:url(#linear-gradient-6);}.cls-11{clip-path:url(#clip-path-3);}.cls-12{fill:url(#linear-gradient-8);}.cls-13{fill:url(#linear-gradient-9);}.cls-14{fill:url(#linear-gradient-10);}.cls-15,.cls-17,.cls-29,.cls-30{opacity:0.3;}.cls-15,.cls-17,.cls-27,.cls-29,.cls-30,.cls-31{mix-blend-mode:multiply;}.cls-15{fill:url(#linear-gradient-11);}.cls-16{fill:url(#linear-gradient-12);}.cls-18{fill:url(#linear-gradient-13);}.cls-19{fill:url(#linear-gradient-14);}.cls-20{fill:url(#linear-gradient-15);}.cls-21{fill:url(#linear-gradient-16);}.cls-22{fill:#d8dee8;}.cls-23{fill:#26264f;}.cls-24{fill:url(#linear-gradient-17);}.cls-25{fill:url(#linear-gradient-18);}.cls-26{fill:url(#linear-gradient-19);}.cls-27{opacity:0.15;}.cls-28{fill:url(#linear-gradient-20);}.cls-29{fill:url(#linear-gradient-21);}.cls-30{fill:url(#linear-gradient-22);}.cls-31{opacity:0.4;}.cls-32{fill:url(#linear-gradient-23);}.cls-33{fill:url(#linear-gradient-24);}.cls-34{fill:url(#linear-gradient-25);}.cls-35{fill:#fcb048;}.cls-36{fill:url(#linear-gradient-26);}.cls-37{fill:url(#linear-gradient-27);}.cls-38{fill:url(#linear-gradient-28);}.cls-39{fill:url(#linear-gradient-29);}.cls-40{fill:url(#linear-gradient-30);}.cls-41{fill:url(#linear-gradient-31);}.cls-42{fill:url(#linear-gradient-32);}.cls-43{fill:url(#linear-gradient-33);}.cls-44{fill:url(#linear-gradient-34);}.cls-45{fill:url(#linear-gradient-35);}.cls-46{fill:url(#linear-gradient-36);}.cls-47{fill:url(#linear-gradient-37);}.cls-48{fill:url(#linear-gradient-38);}.cls-49{fill:url(#linear-gradient-39);}.cls-50{fill:url(#linear-gradient-40);}.cls-51{fill:url(#linear-gradient-41);}.cls-52{fill:url(#linear-gradient-42);}.cls-53{fill:url(#linear-gradient-43);}.cls-54{fill:url(#linear-gradient-44);}.cls-55{fill:url(#linear-gradient-45);}.cls-56{fill:url(#linear-gradient-46);}.cls-57{fill:url(#linear-gradient-47);}.cls-58{fill:url(#linear-gradient-48);}.cls-59{fill:url(#linear-gradient-49);}.cls-60{fill:url(#linear-gradient-50);}.cls-61{fill:url(#linear-gradient-51);}.cls-62{fill:url(#linear-gradient-52);}.cls-63{fill:url(#linear-gradient-53);}.cls-64{fill:url(#linear-gradient-54);}.cls-65{fill:url(#linear-gradient-55);}.cls-66{fill:url(#linear-gradient-56);}.cls-67{fill:url(#linear-gradient-57);}.cls-68{fill:url(#linear-gradient-58);}</style><linearGradient id="linear-gradient" x1="2321.58" y1="913.67" x2="2842.37" y2="2570.73" gradientUnits="userSpaceOnUse"><stop offset="0" stop-color="#ff9085"/><stop offset="1" stop-color="#fb6fbb"/></linearGradient><linearGradient id="linear-gradient-2" x1="3262.68" y1="1149.41" x2="3948.51" y2="-92.99" gradientUnits="userSpaceOnUse"><stop offset="0" stop-color="#e38ddd"/><stop offset="1" stop-color="#9571f6"/></linearGradient><linearGradient id="linear-gradient-3" x1="5203.57" y1="11478.38" x2="6392.88" y2="14061.24" xlink:href="#linear-gradient-2"/><clipPath id="clip-path"><path class="cls-1" d="M2621.78,2850.19c-86.65-99.34-199.68-259.14-237.28-473.74-43.18-246.41,52.54-339.86,54-623.42,2.13-404.77-269.26-582.51-161.33-751.61,52.64-82.46,169.35-131.88,263-111.07C2807.41,949.74,3020.6,1610.58,2800,1997c-99.78,174.75-234,215.8-283,408.06C2473.64,2574.92,2553.05,2741.27,2621.78,2850.19Z"/></clipPath><clipPath id="clip-path-2"><path class="cls-2" d="M2427.93,2719c-45.59-72.06-104.15-190-86.86-324.88,30.17-235.36,257.24-257.57,363.65-541.07,85.82-228.65-16.61-334.81,109.1-515.82,21-30.3,130.54-194.36,268.83-181.94,77.93,7,130.41,66.84,140.26,78.07,148.89,169.79,78.55,564-123.77,816.26-116.24,144.94-176.06,138.94-401,345.79A1619.52,1619.52,0,0,0,2427.93,2719Z"/></clipPath><linearGradient id="linear-gradient-6" x1="-271.33" y1="969.76" x2="-1502.24" y2="1980.86" gradientTransform="translate(3435.64 969.42) rotate(-3.96)" gradientUnits="userSpaceOnUse"><stop offset="0" stop-color="#aa80f9"/><stop offset="1" stop-color="#6165d7"/></linearGradient><clipPath id="clip-path-3"><path class="cls-3" d="M1375.27,3018.58c45.59-72.06,104.15-190,86.86-324.88-30.17-235.36-257.24-257.57-363.65-541.07-85.82-228.65,16.62-334.81-109.09-515.82-21-30.3-130.54-194.36-268.84-181.94-77.93,7-130.4,66.84-140.25,78.07-148.9,169.79-78.55,564,123.76,816.26,116.25,144.94,176.06,138.94,401,345.79A1619.17,1619.17,0,0,1,1375.27,3018.58Z"/></clipPath><linearGradient id="linear-gradient-8" x1="2234.92" y1="1443.47" x2="1004.02" y2="2454.57" gradientTransform="matrix(-1, -0.07, -0.07, 1, 2900.24, 969.42)" xlink:href="#linear-gradient"/><linearGradient id="linear-gradient-9" x1="877.88" y1="972.08" x2="1612.7" y2="940.13" gradientUnits="userSpaceOnUse"><stop offset="0" stop-color="#ab316d"/><stop offset="1" stop-color="#792d3d"/></linearGradient><linearGradient id="linear-gradient-10" x1="801.07" y1="2168.72" x2="1488.33" y2="2168.72" gradientUnits="userSpaceOnUse"><stop offset="0" stop-color="#ffc444"/><stop offset="1" stop-color="#f36f56"/></linearGradient><linearGradient id="linear-gradient-11" x1="986.61" y1="2168.72" x2="1488.33" y2="2168.72" xlink:href="#linear-gradient-10"/><linearGradient id="linear-gradient-12" x1="1828.72" y1="2052.52" x2="3028.88" y2="4074.61" xlink:href="#linear-gradient-10"/><linearGradient id="linear-gradient-13" x1="1825.22" y1="1873.06" x2="2796.81" y2="4154.84" xlink:href="#linear-gradient-10"/><linearGradient id="linear-gradient-14" x1="2004.46" y1="306.1" x2="1684.99" y2="3033.04" xlink:href="#linear-gradient-9"/><linearGradient id="linear-gradient-15" x1="2172.62" y1="199.37" x2="1248.28" y2="1957.88" xlink:href="#linear-gradient-9"/><linearGradient id="linear-gradient-16" x1="2755.06" y1="528.78" x2="1830.72" y2="2287.28" xlink:href="#linear-gradient-9"/><linearGradient id="linear-gradient-17" x1="495.45" y1="2628.03" x2="706.13" y2="2661.89" gradientTransform="matrix(1, 0, 0, 1, 0, 0)" xlink:href="#linear-gradient-6"/><linearGradient id="linear-gradient-18" x1="1283.71" y1="2622.69" x2="2156.49" y2="3664.76" gradientTransform="matrix(1, 0, 0, 1, 0, 0)" xlink:href="#linear-gradient-6"/><linearGradient id="linear-gradient-19" x1="1061.54" y1="2913.13" x2="2205.18" y2="3274.28" gradientUnits="userSpaceOnUse"><stop offset="0" stop-color="#444b8c"/><stop offset="1" stop-color="#26264f"/></linearGradient><linearGradient id="linear-gradient-20" x1="890.63" y1="2653.51" x2="1469.94" y2="2653.51" gradientTransform="matrix(1, 0.02, -0.02, 1, 8.04, -12.9)" xlink:href="#linear-gradient"/><linearGradient id="linear-gradient-21" x1="1253.43" y1="2116.37" x2="2126.22" y2="3158.44" gradientTransform="matrix(1, 0, 0, 1, 0, 0)" xlink:href="#linear-gradient-6"/><linearGradient id="linear-gradient-22" x1="1512.64" y1="2936.19" x2="2081.65" y2="2936.19" gradientTransform="matrix(1, 0, 0, 1, 0, 0)" xlink:href="#linear-gradient-6"/><linearGradient id="linear-gradient-23" x1="655.86" y1="3236.55" x2="1225.46" y2="3236.55" gradientUnits="userSpaceOnUse"><stop offset="0" stop-color="#fcb148"/><stop offset="0.05" stop-color="#fdba46"/><stop offset="0.14" stop-color="#ffc244"/><stop offset="0.32" stop-color="#ffc444"/><stop offset="0.48" stop-color="#fdb946"/><stop offset="0.78" stop-color="#f99c4d"/><stop offset="0.87" stop-color="#f8924f"/><stop offset="1" stop-color="#f8924f"/></linearGradient><linearGradient id="linear-gradient-24" x1="943.28" y1="3172.38" x2="973.31" y2="3423.77" gradientUnits="userSpaceOnUse"><stop offset="0" stop-color="#ffdb44"/><stop offset="1" stop-color="#feef06"/></linearGradient><linearGradient id="linear-gradient-25" x1="941.97" y1="3161.17" x2="951.2" y2="3238.38" xlink:href="#linear-gradient-24"/><linearGradient id="linear-gradient-26" x1="718.6" y1="897.56" x2="727.79" y2="974.49" gradientTransform="translate(1669.25 4127.84) rotate(180)" gradientUnits="userSpaceOnUse"><stop offset="0" stop-color="#f36f56"/><stop offset="0.31" stop-color="#f99c4c"/><stop offset="0.55" stop-color="#fdb946"/><stop offset="0.68" stop-color="#ffc444"/><stop offset="0.8" stop-color="#ffc244"/><stop offset="0.87" stop-color="#feba46"/><stop offset="0.92" stop-color="#fcad49"/><stop offset="0.96" stop-color="#f99a4d"/><stop offset="1" stop-color="#f68252"/><stop offset="1" stop-color="#f57e53"/></linearGradient><linearGradient id="linear-gradient-27" x1="587.04" y1="3178.87" x2="1156.64" y2="3178.87" xlink:href="#linear-gradient-23"/><linearGradient id="linear-gradient-28" x1="874.46" y1="3114.71" x2="904.49" y2="3366.09" xlink:href="#linear-gradient-24"/><linearGradient id="linear-gradient-29" x1="873.15" y1="3103.5" x2="882.38" y2="3180.7" xlink:href="#linear-gradient-24"/><linearGradient id="linear-gradient-30" x1="787.42" y1="955.23" x2="796.61" y2="1032.16" xlink:href="#linear-gradient-26"/><linearGradient id="linear-gradient-31" x1="646.42" y1="3121.36" x2="1216.03" y2="3121.36" xlink:href="#linear-gradient-23"/><linearGradient id="linear-gradient-32" x1="933.84" y1="3057.2" x2="963.87" y2="3308.59" xlink:href="#linear-gradient-24"/><linearGradient id="linear-gradient-33" x1="932.54" y1="3045.99" x2="941.76" y2="3123.19" xlink:href="#linear-gradient-24"/><linearGradient id="linear-gradient-34" x1="728.04" y1="1012.74" x2="737.23" y2="1089.67" xlink:href="#linear-gradient-26"/><linearGradient id="linear-gradient-35" x1="682.46" y1="3063.69" x2="1252.06" y2="3063.69" xlink:href="#linear-gradient-23"/><linearGradient id="linear-gradient-36" x1="969.88" y1="2999.53" x2="999.91" y2="3250.91" xlink:href="#linear-gradient-24"/><linearGradient id="linear-gradient-37" x1="968.57" y1="2988.31" x2="977.79" y2="3065.52" xlink:href="#linear-gradient-24"/><linearGradient id="linear-gradient-38" x1="692.01" y1="1070.41" x2="701.2" y2="1147.34" xlink:href="#linear-gradient-26"/><linearGradient id="linear-gradient-39" x1="655.86" y1="3001.46" x2="1225.46" y2="3001.46" xlink:href="#linear-gradient-23"/><linearGradient id="linear-gradient-40" x1="943.28" y1="2937.3" x2="973.31" y2="3188.68" xlink:href="#linear-gradient-24"/><linearGradient id="linear-gradient-41" x1="941.97" y1="2926.09" x2="951.2" y2="3003.29" xlink:href="#linear-gradient-24"/><linearGradient id="linear-gradient-42" x1="718.6" y1="1132.64" x2="727.79" y2="1209.57" xlink:href="#linear-gradient-26"/><linearGradient id="linear-gradient-43" x1="587.04" y1="2943.79" x2="1156.64" y2="2943.79" xlink:href="#linear-gradient-23"/><linearGradient id="linear-gradient-44" x1="874.46" y1="2879.62" x2="904.49" y2="3131.01" xlink:href="#linear-gradient-24"/><linearGradient id="linear-gradient-45" x1="873.15" y1="2868.41" x2="882.38" y2="2945.62" xlink:href="#linear-gradient-24"/><linearGradient id="linear-gradient-46" x1="787.42" y1="1190.32" x2="796.61" y2="1267.25" xlink:href="#linear-gradient-26"/><linearGradient id="linear-gradient-47" x1="646.42" y1="2886.28" x2="1216.03" y2="2886.28" xlink:href="#linear-gradient-23"/><linearGradient id="linear-gradient-48" x1="933.84" y1="2822.12" x2="963.87" y2="3073.5" xlink:href="#linear-gradient-24"/><linearGradient id="linear-gradient-49" x1="932.54" y1="2810.91" x2="941.76" y2="2888.11" xlink:href="#linear-gradient-24"/><linearGradient id="linear-gradient-50" x1="728.04" y1="1247.82" x2="737.23" y2="1324.75" xlink:href="#linear-gradient-26"/><linearGradient id="linear-gradient-51" x1="615.54" y1="2828.6" x2="1185.14" y2="2828.6" xlink:href="#linear-gradient-23"/><linearGradient id="linear-gradient-52" x1="902.96" y1="2764.44" x2="932.98" y2="3015.83" xlink:href="#linear-gradient-24"/><linearGradient id="linear-gradient-53" x1="901.65" y1="2753.23" x2="910.87" y2="2830.43" xlink:href="#linear-gradient-24"/><linearGradient id="linear-gradient-54" x1="758.93" y1="1305.5" x2="768.12" y2="1382.43" xlink:href="#linear-gradient-26"/><linearGradient id="linear-gradient-55" x1="1872.12" y1="2621.24" x2="2441.73" y2="2621.24" gradientTransform="matrix(0.58, 0.81, -0.81, 0.58, 2214.38, -230.34)" xlink:href="#linear-gradient-23"/><linearGradient id="linear-gradient-56" x1="2159.54" y1="2557.08" x2="2189.57" y2="2808.43" gradientTransform="matrix(0.58, 0.81, -0.81, 0.58, 2214.38, -230.34)" xlink:href="#linear-gradient-24"/><linearGradient id="linear-gradient-57" x1="2158.24" y1="2545.87" x2="2167.46" y2="2623.07" gradientTransform="matrix(0.58, 0.81, -0.81, 0.58, 2214.38, -230.34)" xlink:href="#linear-gradient-24"/><linearGradient id="linear-gradient-58" x1="-497.09" y1="1512.41" x2="-487.9" y2="1589.33" gradientTransform="matrix(-0.58, -0.81, 0.81, -0.58, -181.2, 3522.62)" xlink:href="#linear-gradient-26"/></defs><title>empty-cart</title><g class="cls-4"><g id="Background"><rect class="cls-5" width="3710" height="3710"/></g><g id="Illustration"><path class="cls-6" d="M3012.83,990.37C2407.1,227.55,973,184.91,551.37,790,319,1123.32,416.12,1621.66,464,1867.53,552.18,2320,769.56,2611.31,817,2673.1,932.2,2823,1212,3187.22,1632.89,3270.46c719.21,142.25,1616.63-582,1666.35-1399C3327.9,1400.34,3065.2,1056.32,3012.83,990.37Z"/><path class="cls-1" d="M2621.78,2850.19c-86.65-99.34-199.68-259.14-237.28-473.74-43.18-246.41,52.54-339.86,54-623.42,2.13-404.77-269.26-582.51-161.33-751.61,52.64-82.46,169.35-131.88,263-111.07C2807.41,949.74,3020.6,1610.58,2800,1997c-99.78,174.75-234,215.8-283,408.06C2473.64,2574.92,2553.05,2741.27,2621.78,2850.19Z"/><g class="cls-7"><g class="cls-8"><path class="cls-5" d="M2472.08,2570.3a954.35,954.35,0,0,1-10.65-163.21c2.62-125,30.09-204.66,64.86-305.51,22.59-65.52,48.19-139.78,71.44-240.51,43.48-188.42,54.47-252.76,49-346.43-10.84-185.52-80.81-326.35-121.55-393.79a852,852,0,0,0-223.51-245.2l2.15-2.91A855.78,855.78,0,0,1,2528.28,1119c40.91,67.72,111.17,209.15,122.06,395.44,5.5,94.13-5.51,158.65-49.09,347.46-23.29,100.92-48.92,175.28-71.54,240.88-34.67,100.55-62.05,180-64.67,304.41a951.23,951.23,0,0,0,10.61,162.59Z"/><path class="cls-5" d="M2630.31,1387.74l-1.21-2.72c-52.32-117.83-160.7-162.59-242.41-179.39-88.73-18.25-166.08-8.41-166.86-8.31l-.47-3.58c.78-.1,78.64-10,168,8.32,81.93,16.83,190.42,61.52,243.84,178.71,8.83-11.85,47.72-67,69.92-147,23.08-83.13,32.32-210.87-54.69-347.34l3.05-1.95c87.76,137.65,78.4,266.52,55.09,350.4-25.25,90.84-71.9,150-72.36,150.54Z"/><path class="cls-5" d="M2614,1810.61c-1.57,0-2.43,0-2.5,0l-1.52,0-.21-1.51c-18.74-129.51-81.6-204.18-131-244-53.59-43.19-103.42-55.91-103.91-56l.87-3.51c.5.13,51,13,105.17,56.62,49.8,40.09,113.06,115.07,132.25,244.89h.49c22.61,0,229.34-5.1,329.37-184.26l3.16,1.76c-55.64,99.66-143.67,145-207.71,165.4C2677.25,1809.41,2625.7,1810.61,2614,1810.61Z"/><path class="cls-5" d="M2597.89,2086.69c-38.75,0-61.93-8-62.23-8.08l-1.22-.43v-1.29c1.6-140.28-152.52-303.59-154.08-305.22l2.62-2.5c1.56,1.64,155.73,165,155.09,306.42,7.05,2.16,44.19,12.28,99.71,4.73,56.86-7.73,145.18-36.09,243-127.35l2.47,2.65c-98.65,92-187.82,120.56-245.25,128.32A299.83,299.83,0,0,1,2597.89,2086.69Z"/></g></g><path class="cls-2" d="M2427.93,2719c-45.59-72.06-104.15-190-86.86-324.88,30.17-235.36,257.24-257.57,363.65-541.07,85.82-228.65-16.61-334.81,109.1-515.82,21-30.3,130.54-194.36,268.83-181.94,77.93,7,130.41,66.84,140.26,78.07,148.89,169.79,78.55,564-123.77,816.26-116.24,144.94-176.06,138.94-401,345.79A1619.52,1619.52,0,0,0,2427.93,2719Z"/><g class="cls-9"><g class="cls-8"><path class="cls-5" d="M2441.43,2822.41c-39.8-201.61-19.29-357.06,61-462,39.3-51.4,78.55-73.5,120.09-96.9,44.63-25.13,90.78-51.12,138.38-116.86,46.26-63.88,53.24-109.52,62.07-167.29,7.95-52,17.85-116.74,59.88-215.17,36.85-86.27,70.27-133.49,99.76-175.15,31.93-45.09,57.14-80.71,74.77-149.28,28.8-112,16.64-234.87-36.14-365.18l3.35-1.36c53.08,131,65.29,254.67,36.29,367.45-17.79,69.2-43.18,105.06-75.31,150.46-29.39,41.51-62.7,88.57-99.39,174.49-41.86,98-51.71,162.48-59.64,214.29-8.9,58.25-15.94,104.27-62.71,168.86-48.07,66.38-94.57,92.57-139.53,117.89-41.22,23.21-80.15,45.13-119,95.95-79.6,104.11-99.89,258.59-60.29,459.13Z"/><path class="cls-5" d="M2969.66,1610.8l-.2-2.41c-.24-2.94-25.84-295.05-165.36-361.18l1.55-3.27c134.57,63.79,164.41,333.31,167.19,361.75,142.24-55.81,224.32-153.32,268.18-225.49,47.77-78.58,61.74-144.78,61.88-145.44l3.54.73c-.13.66-14.24,67.47-62.33,146.59-44.38,73-127.63,171.82-272.2,227.85Z"/><path class="cls-5" d="M2848.45,1871.62H2847l-1.55,0-.21-1.54c-10.27-78.17-46.19-163.26-74.51-220.87-30.71-62.47-59.33-107-59.62-107.41l3-2c.28.45,29,45.13,59.82,107.78,28.25,57.48,64,142.21,74.65,220.43,11.52,0,85.93-1.31,180.11-30.9s227.78-94.24,330.14-234.47l2.92,2.13c-103,141.07-237.44,206.12-332.11,235.84C2934.65,1870.44,2859.56,1871.62,2848.45,1871.62Z"/><path class="cls-5" d="M2767.15,2252.41c-65,0-103.54-8.78-104.4-9l-1.86-.44.54-1.83c49.18-167.14-77.23-355.57-78.52-357.46l3-2c1.29,1.89,127.74,190.31,79.54,358.64,20.75,4.3,211.77,39.1,459.57-72.09l1.48,3.3C2978.7,2237.82,2850.93,2252.41,2767.15,2252.41Z"/></g></g><path class="cls-10" d="M2397.39,2654.3a908.27,908.27,0,0,1,162.21-197.63c143.45-131.22,235.71-128.64,277-230.2,42.71-105.13-36-157.6,17.69-277.52,4.51-10.09,63.08-136.56,162.67-140.82,69.67-3,122,55.46,146.56,82.87,95.31,106.41,150.72,306.53,57.52,456.23-88.36,141.92-265.61,167.08-322,174.71-99,13.38-134.66-12.32-234.15,4C2543.82,2545.73,2453.52,2607.17,2397.39,2654.3Z"/><path class="cls-3" d="M1375.27,3018.58c45.59-72.06,104.15-190,86.86-324.88-30.17-235.36-257.24-257.57-363.65-541.07-85.82-228.65,16.62-334.81-109.09-515.82-21-30.3-130.54-194.36-268.84-181.94-77.93,7-130.4,66.84-140.25,78.07-148.9,169.79-78.55,564,123.76,816.26,116.25,144.94,176.06,138.94,401,345.79A1619.17,1619.17,0,0,1,1375.27,3018.58Z"/><g class="cls-11"><g class="cls-8"><path class="cls-5" d="M1361.77,3122l-3.55-.7c39.6-200.54,19.31-355-60.29-459.13-38.85-50.82-77.78-72.74-119-95.95-45-25.32-91.47-51.51-139.54-117.89-46.77-64.59-53.81-110.61-62.71-168.86-7.92-51.81-17.78-116.29-59.64-214.29-36.69-85.92-70-133-99.38-174.49-32.14-45.4-57.52-81.25-75.32-150.46-29-112.78-16.78-236.4,36.29-367.45l3.35,1.36c-52.77,130.31-64.93,253.18-36.14,365.18,17.63,68.57,42.85,104.19,74.77,149.28,29.49,41.66,62.92,88.88,99.76,175.15,42,98.43,51.93,163.16,59.88,215.17,8.83,57.77,15.81,103.41,62.07,167.29,47.61,65.74,93.75,91.73,138.38,116.86,41.55,23.4,80.79,45.5,120.09,96.9C1381.06,2765,1401.58,2920.41,1361.77,3122Z"/><path class="cls-5" d="M833.55,1910.4l-2.26-.87c-144.57-56-227.82-154.83-272.2-227.85-48.09-79.12-62.19-145.93-62.33-146.59l3.55-.73c.13.66,14.14,67,61.95,145.57,43.86,72.12,125.92,169.57,268.1,225.36,2.78-28.44,32.62-298,167.19-361.75l1.55,3.27C859.57,1613,834,1905.05,833.74,1908Z"/><path class="cls-5" d="M954.76,2171.22c-11.11,0-86.2-1.18-181.26-31-94.67-29.72-229.14-94.77-332.12-235.84l2.93-2.13c102.39,140.28,236.12,205,330.27,234.52s168.44,30.84,180,30.85c10.61-78.22,46.4-162.95,74.65-220.43,30.8-62.65,59.54-107.33,59.82-107.78l3,2c-.29.44-28.93,45-59.63,107.45-28.32,57.6-64.23,142.68-74.5,220.83l-.2,1.54-1.56,0Z"/><path class="cls-5" d="M1036.05,2552c-83.78,0-211.53-14.58-359.34-80.9l1.48-3.3C926,2579,1117,2544.2,1137.76,2539.91c-48.19-168.34,78.25-356.76,79.54-358.65l3,2c-1.28,1.89-127.69,190.32-78.52,357.46l.54,1.83-1.85.44C1139.59,2543.23,1101.05,2552,1036.05,2552Z"/></g></g><path class="cls-12" d="M1405.82,2953.9a908.68,908.68,0,0,0-162.22-197.63c-143.44-131.22-235.71-128.64-277-230.2-42.71-105.13,36-157.6-17.69-277.52-4.51-10.08-63.08-136.56-162.67-140.82-69.67-3-122,55.46-146.56,82.87C544.41,2297,489,2497.13,582.19,2646.83c88.37,141.92,265.61,167.08,322,174.71,99,13.38,134.66-12.32,234.16,4C1259.38,2845.33,1349.68,2906.77,1405.82,2953.9Z"/><path class="cls-13" d="M2116,1341a19.41,19.41,0,0,1-2,.1c-10.61,0-19.67-8.66-20.7-20.23C2075,1115.5,2012.69,920.34,1917.7,771.36c-84.15-132-184.34-210.73-268-210.73h-.28c-304.88.63-368.66,752.47-369.27,760.07-1,12.3-11,21.41-22.52,20.36s-19.94-11.89-18.95-24.19c2.61-32.67,67.89-800.24,410.66-801h.37c98.9,0,209.09,83.87,302.39,230.18,98.9,155.13,163.78,357.76,182.66,570.57C2135.8,1329,2127.41,1339.87,2116,1341Z"/><path class="cls-14" d="M843.8,2888.49l401.35,218.25,243.18-801.5L1087.64,1230.7,974,1260.62,801.63,2803.84C797.73,2838.78,814.58,2872.6,843.8,2888.49Z"/><path class="cls-15" d="M1488.33,2305.23,1087.64,1230.7l-67,17.65c-9.29,143.47-5.21,261.55,1.11,347.51,26.86,365.85,116.06,467.66,72.85,722.87-35.93,212.22-114.41,241-107.55,383.79,7.48,155.5,108.45,285.72,228.51,388.12l29.61,16.1Z"/><polygon class="cls-16" points="1087.64 1230.7 2599.06 1312.99 3079.38 2948 1245.15 3106.74 1087.64 1230.7"/><g class="cls-17"><path class="cls-18" d="M2599.06,1313l-788.22-42.91c-13.3,20.91-30.92,55-34.2,98.44-19.4,257,511,340.27,558.54,655.8,36.18,240.22-186.44,517.4-385.08,640.89-209.28,130.11-351.08,64.22-492.62,208.67-62.19,63.46-100.06,142.82-122.58,225.09l1744.48-151Z"/></g><path class="cls-19" d="M1551.22,1377.89c-9.44,0-18-7-20.24-17.26C1526.72,1341.16,1428.4,881,1567,655.18c39.73-64.73,95.24-104.24,165-117.46,358.38-67.82,579,758.91,588.24,794.14,3.11,11.88-3.34,24.23-14.41,27.57s-22.56-3.59-25.67-15.48c-2.16-8.23-219.35-823.18-540.93-762.19-58.85,11.15-103.82,43.21-137.47,98-128.87,209.92-31.28,666.05-30.28,670.64,2.62,12-4.32,24-15.51,26.87A19.67,19.67,0,0,1,1551.22,1377.89Z"/><ellipse class="cls-20" cx="1551.37" cy="1381.26" rx="58.17" ry="62.48"/><ellipse class="cls-21" cx="2310" cy="1375.47" rx="58.17" ry="62.48"/><path class="cls-22" d="M2714.72,2099.74l-469.24-457.57a33,33,0,0,0-36.44-6.94l-250.42,109.33c-21.1,9.21-28.37,37.38-14.7,57l408.69,585.15c11.3,16.18,32.54,19.74,47.89,8l311-236.93C2729.57,2144,2731.16,2115.76,2714.72,2099.74ZM2178.14,1803c-15.82,11.41-40.74,1.34-55.66-22.51s-14.22-52.44,1.59-63.86,40.73-1.34,55.66,22.51S2194,1791.61,2178.14,1803Z"/><path class="cls-6" d="M2714.72,2093.49l-469.24-457.56A32.94,32.94,0,0,0,2209,1629l-250.42,109.33c-21.1,9.21-28.37,37.38-14.7,57l408.69,585.16c11.3,16.17,32.54,19.74,47.89,8l311-236.92C2729.57,2137.75,2731.16,2109.51,2714.72,2093.49Zm-536.58-296.71c-15.82,11.42-40.74,1.34-55.66-22.51s-14.22-52.44,1.59-63.85,40.73-1.34,55.66,22.51S2194,1785.36,2178.14,1796.78Z"/><path class="cls-23" d="M2080.61,1684.41a3.84,3.84,0,0,1-3.54-2.35c-16.26-38.32-38.18-71.42-65.17-98.38-74-73.88-169.43-85.49-261.77-96.73-91.89-11.18-178.68-21.73-230.53-94.86-13.12-18.51-33.51-52-22.57-68.06,4.39-6.46,13.15-9.43,26-8.81a3.85,3.85,0,1,1-.36,7.69c-6.89-.32-15.82.35-19.28,5.45-5.81,8.55,3,31.82,22.49,59.28,49.87,70.34,135,80.7,225.17,91.67,93.63,11.39,190.46,23.17,266.28,98.92,27.69,27.67,50.17,61.59,66.81,100.83a3.86,3.86,0,0,1-2,5A4,4,0,0,1,2080.61,1684.41Z"/><path class="cls-23" d="M2120.69,1761.84a3.84,3.84,0,0,1-2.71-6.57c.32-.33,32.45-32.84,32.29-76.21-.09-26.64-12.21-52-36-75.37-50.48-49.58-184.42-107-302.59-157.64-72.12-30.92-140.25-60.12-185-85.3-10.14-5.71-20.87-11.14-31.9-16.12a3.85,3.85,0,1,1,3.18-7c11.22,5.07,22.16,10.6,32.5,16.42,44.38,25,112.32,54.1,184.25,84.93,118.79,50.92,253.43,108.64,305,159.22,25.35,24.9,38.24,52.12,38.32,80.92.13,46.62-33.15,80.21-34.57,81.62A3.85,3.85,0,0,1,2120.69,1761.84Z"/><path class="cls-5" d="M2714.72,2093.49l-469.24-457.56A32.94,32.94,0,0,0,2209,1629l-22.3,9.73a324.09,324.09,0,0,0,27.89,69.63c69.31,127.1,183,121.62,209.3,209.82,23.29,78.18-54.82,120.12-65.11,229.81-5.15,54.81,6.59,127.72,69.49,219.3l283.16-215.73C2729.57,2137.75,2731.16,2109.51,2714.72,2093.49Z"/><path class="cls-22" d="M2293.66,1937.74c25.7,42.51,20.38,77.77-.1,92.06-21.56,15-52.54,3.77-75.6-34.36-21.92-36.26-23.09-74.55,1.09-91.42C2243.45,1887,2272.68,1903.05,2293.66,1937.74ZM2241.82,1977c12.85,21.26,27.13,33.07,36.71,26.39,9.37-6.54,5.63-23.48-8.17-46.3-12.47-20.62-26-33.83-36.27-26.69C2224.28,1937.25,2229.54,1956.7,2241.82,1977Zm104.89,136.59L2301,1846.87l17.86-12.46,45.53,266.87ZM2446.64,1951c25.71,42.51,20.39,77.77-.09,92-21.35,14.9-52.33,3.62-75.6-34.36-21.93-36.26-23.09-74.55,1.09-91.42C2396.44,1900.26,2425.66,1916.31,2446.64,1951ZM2395,1990.13c12.63,21.4,26.9,33.22,36.49,26.54,9.36-6.54,5.62-23.48-8.17-46.3-12.48-20.63-25.82-34-36.06-26.84C2377.27,1950.52,2382.74,1969.81,2395,1990.13Z"/><path class="cls-22" d="M2356.54,2261.15a18.35,18.35,0,0,1-15.92-9.62c-5.33-9.43-2.53-21.72,6.25-27.45l226-147.34c8.79-5.72,20.23-2.71,25.56,6.72s2.54,21.72-6.25,27.45l-226,147.34A17.64,17.64,0,0,1,2356.54,2261.15Z"/><path class="cls-24" d="M2058.3,3112.73c0,20.52-14.57,38.17-32.44,39.23L766.51,3228.88c-23.86,1.41-50.79-18.77-50.79-42.62V2304.93c0-23.85,27.58-43.9,51.44-42.91l1258.7,53.88c17.87.74,32.44,18.13,32.44,38.65Z"/><path class="cls-25" d="M2081.65,3114.17c0,20.62-14.64,38.35-32.6,39.42L776.25,3229a40.8,40.8,0,0,1-43.68-41V2302.47a41.67,41.67,0,0,1,43.68-41.77l1272.8,52.78c18,.74,32.6,18.22,32.6,38.84Z"/><polygon class="cls-26" points="2081.65 2906.56 732.57 2975.77 732.57 3137.95 2081.65 3058.76 2081.65 2906.56"/><g class="cls-27"><path class="cls-28" d="M1130.73,2553.55c-1.53,100.65-64.47,152.95-134.56,152.68-76.35-.29-137.56-58.84-136.11-155,1.39-91.4,59-156.52,144.52-150.13C1087.59,2407.34,1132,2471.41,1130.73,2553.55Zm-181.27-1.93c-.8,52.5,16.38,90.66,49.94,91.29,32.31.6,48.41-32.32,49.24-87.4.76-49.8-12-89.08-47.29-91.2C967,2462.26,950.22,2501.43,949.46,2551.62Zm70.85,323.57,243.2-440.32a24.6,24.6,0,0,1,23.37-12.64h0a24.61,24.61,0,0,1,19.76,36.34l-240.5,440.19a24.6,24.6,0,0,1-20.51,12.79l-2.69.12A24.61,24.61,0,0,1,1020.31,2875.19Zm416.12-124.09C1435,2844.32,1381,2895.32,1321,2898c-64.49,2.83-116.51-48.58-115.86-137.17,1.28-84.25,50.36-146.87,123.36-144.91C1399.57,2617.78,1437.58,2675,1436.43,2751.1ZM1282,2757.22c-1.4,48.48,13.22,83,41.89,82.12,27.61-.8,41.43-31.9,42.2-82.84.7-46.06-9.56-81.78-39.71-82.15C1296.4,2674,1282.67,2710.89,1282,2757.22Z"/></g><path class="cls-5" d="M1142.47,2548.86c-1.52,100.65-64.47,152.95-134.55,152.68-76.36-.29-137.57-58.83-136.11-155,1.38-91.4,59-156.52,144.51-150.12C1099.33,2402.66,1143.72,2466.72,1142.47,2548.86Zm-181.27-1.93c-.79,52.51,16.39,90.67,49.95,91.29,32.3.6,48.41-32.31,49.24-87.39.75-49.8-12-89.09-47.3-91.2C978.77,2457.57,962,2496.75,961.2,2546.93Zm70.86,323.57,243.19-440.31a24.63,24.63,0,0,1,23.38-12.65h0a24.62,24.62,0,0,1,19.76,36.35l-240.5,440.19a24.62,24.62,0,0,1-20.51,12.78l-2.69.12A24.61,24.61,0,0,1,1032.06,2870.5Zm416.11-124.09c-1.41,93.22-55.44,144.22-115.4,146.85-64.48,2.84-116.51-48.58-115.85-137.17,1.27-84.25,50.36-146.87,123.36-144.91C1411.32,2613.09,1449.32,2670.33,1448.17,2746.41Zm-154.46,6.12c-1.39,48.48,13.23,83,41.89,82.13,27.62-.81,41.43-31.91,42.2-82.85.7-46-9.55-81.78-39.7-82.14C1308.14,2669.3,1294.41,2706.21,1293.71,2752.53Z"/><path class="cls-29" d="M2049.05,2313.48,790.91,2261.31c56.79,168.16,138.11,243.49,208,280.36,133,70.2,228.36,3.16,342.34,94,117,93.24,72.44,208.35,195.63,285.91,92.59,58.3,152.27,15,248.29,67.72,71.12,39,115.55,105.13,144,171.35l120-7.11c18-1.07,32.6-18.8,32.6-39.42V2352.32C2081.65,2331.7,2067,2314.22,2049.05,2313.48Z"/><path class="cls-30" d="M2063.93,2716.53l-30.7-29.13-29.13,30.7L1973.4,2689l-29.13,30.7-30.7-29.13-29.13,30.7-30.7-29.13-29.12,30.7-30.7-29.13-29.13,30.7-30.7-29.13L1705,2726l-30.7-29.13-29.13,30.7-30.7-29.13-29.12,30.7-39.23-37.22v459.84s-1.6,26.34-33.44,33.27l542.94-39.81a44.45,44.45,0,0,0,17.21-4.9,42.64,42.64,0,0,0,8.86-26.1V2697.85Z"/><path class="cls-5" d="M2151.21,2701.28v418.88c0,23.38-18.62,42.8-41.92,44.52l-172.17,12.61-372,27.2c31.84-6.93,32.53-33.27,32.53-33.27V2711.37l40,37.23,20.95-21.67,8.76-9,30.79,29.13,29.18-30.7,30.72,29.13,29.14-30.7,30.7,29.12,29.13-30.69,30.7,29.12,29.13-30.7,30.7,29.13,29.15-30.7,30.69,29.13,29.13-30.7,30.7,29.15,29.13-30.72,31.28,29.14Z"/><path class="cls-22" d="M2088.53,2944.55l-67.15,3a8.45,8.45,0,0,0-8.07,8.44v30.82a8.45,8.45,0,0,0,8.93,8.44l67.15-3.78a8.46,8.46,0,0,0,8-8.44V2953A8.46,8.46,0,0,0,2088.53,2944.55Z"/><path class="cls-22" d="M2088.43,3004.11l-67.14,3.79a8.45,8.45,0,0,0-8,8.44v32.17a8.45,8.45,0,0,0,9,8.44l67.15-4.28a8.46,8.46,0,0,0,7.91-8.44v-31.68A8.46,8.46,0,0,0,2088.43,3004.11Z"/><path class="cls-22" d="M2097.36,2859.14V2804a8.45,8.45,0,0,0-8.75-8.45l-67.15,2.41a8.46,8.46,0,0,0-8.15,8.45v55.75a8.46,8.46,0,0,0,8.84,8.45l67.14-3A8.44,8.44,0,0,0,2097.36,2859.14Z"/><path class="cls-22" d="M1949,2950.84l-273.4,12.33a8.45,8.45,0,0,0-8.07,8.45v34.71a8.45,8.45,0,0,0,8.93,8.44l273.4-15.41a8.45,8.45,0,0,0,8-8.44v-31.63A8.46,8.46,0,0,0,1949,2950.84Z"/><path class="cls-22" d="M1948.93,3012l-273.4,15.42a8.45,8.45,0,0,0-8,8.44v34.76a8.45,8.45,0,0,0,9,8.43l273.4-17.45a8.46,8.46,0,0,0,7.92-8.44v-32.71A8.46,8.46,0,0,0,1948.93,3012Z"/><path class="cls-22" d="M1957.86,2865.43V2809a8.45,8.45,0,0,0-8.76-8.45l-273.4,9.84a8.46,8.46,0,0,0-8.15,8.45v58.89a8.46,8.46,0,0,0,8.84,8.45l273.4-12.33A8.45,8.45,0,0,0,1957.86,2865.43Z"/><path class="cls-31" d="M1936.83,3177.29,1565,3204.49c31.85-6.93,32.68-33.27,32.68-33.27V2711.37l40,37.23,20.95-21.67c17.48,15.81,31.52,41.2,35.42,81.44,13,134,75.76,125.14,149.84,130.17s108.18,90.77,78.2,157C1908.65,3125.17,1914.12,3155,1936.83,3177.29Z"/><path class="cls-32" d="M698.19,3193v54.91c0,17.74,110.83,32.13,247.56,32.13s247.55-14.39,247.55-32.13V3193Z"/><path class="cls-33" d="M1193.3,3193c0,17.74-110.83,32.13-247.55,32.13S698.19,3210.77,698.19,3193,809,3160.9,945.75,3160.9,1193.3,3175.29,1193.3,3193Z"/><path class="cls-34" d="M945.75,3227.37c-121.09,0-247.71-11.56-247.71-33.87,0-1.23.44-3.38,1.67-3.38s.69,1.68.69,2.91c0,14.15,100.76,29.91,245.35,29.91s245.34-15.76,245.34-29.91c0-1.23.21-2.37,1.43-2.37s.93,1.63.93,2.86C1193.45,3215.82,1066.83,3227.37,945.75,3227.37Z"/><path class="cls-35" d="M922.35,3194.82q3.64-2.52,7.78-5a49.13,49.13,0,0,1,10.64-4.43,102.48,102.48,0,0,1,16.32-3.23,207.84,207.84,0,0,1,24.44-1.32q14.36-.06,27,.91a185.11,185.11,0,0,1,22.15,2.94,68.66,68.66,0,0,1,15.56,4.82c4,1.92,6.34,4.12,7.11,6.59l27.87.29a27.1,27.1,0,0,1,5.35.49c1.55.32,2.31.72,2.31,1.21v2.29l-35.83-.34q-1.89,4.21-9.61,7.71a97,97,0,0,1-19.65,6.06l-13-1.81a15.74,15.74,0,0,1-2.88-.68c-.76-.28-1.12-.58-1.12-.9s1-1,3-1.51,4.3-1.27,6.84-2.11a69.93,69.93,0,0,0,7.48-3,10.14,10.14,0,0,0,4.9-4.08l-84.58-.84a79.24,79.24,0,0,1-7.47,4.82,48.93,48.93,0,0,1-11,4.27,115.34,115.34,0,0,1-17,3.07,239.42,239.42,0,0,1-25.66,1.26c-7.76,0-15.3-.26-22.7-.88a155.33,155.33,0,0,1-19.69-2.81,61.21,61.21,0,0,1-14.13-4.63c-3.66-1.83-5.72-3.94-6.15-6.33l-23-.24a30.39,30.39,0,0,1-5.42-.47c-1.58-.31-2.39-.72-2.39-1.23v-2.29l31.37.3c1.39-2.42,4.23-4.53,8.58-6.32a98.3,98.3,0,0,1,15.92-4.79l10.51,1.44c3.19.45,4.78,1,4.78,1.58,0,.32-.64.72-2,1.21s-2.9,1.05-4.71,1.72a43.1,43.1,0,0,0-5.23,2.36,11.08,11.08,0,0,0-3.82,3.06ZM845,3198a8.33,8.33,0,0,0,4.16,3.89,33.16,33.16,0,0,0,8,2.69,82.07,82.07,0,0,0,10.74,1.55q6,.48,12.52.46a132.37,132.37,0,0,0,13.3-.66,76.24,76.24,0,0,0,10-1.68,46.16,46.16,0,0,0,7.48-2.47,42,42,0,0,0,5.72-3.06Zm184.13-2c-.63-1.53-2.17-2.87-4.56-4a41.34,41.34,0,0,0-9.16-2.89,102.11,102.11,0,0,0-13-1.74q-7.4-.57-16.34-.53a123.09,123.09,0,0,0-13.69.71,71.88,71.88,0,0,0-9.94,1.8,36.26,36.26,0,0,0-7.15,2.65,51.32,51.32,0,0,0-5.48,3.22Z"/><path class="cls-36" d="M945.78,3164.38c-110.38,0-225.31,9.71-243.7,28.52a22.21,22.21,0,0,1,2,2.11c15.5-13.05,110.4-26.2,241.69-26.2,134.66,0,231.09,13.83,242.76,27.21a21.81,21.81,0,0,1,1.86-2.1C1175.21,3174.45,1058.12,3164.38,945.78,3164.38Z"/><path class="cls-37" d="M629.37,3135.35v54.91c0,17.75,110.83,32.13,247.56,32.13s247.55-14.38,247.55-32.13v-54.91Z"/><path class="cls-38" d="M1124.48,3135.35c0,17.75-110.83,32.13-247.55,32.13s-247.56-14.38-247.56-32.13,110.83-32.12,247.56-32.12S1124.48,3117.61,1124.48,3135.35Z"/><path class="cls-39" d="M876.93,3169.69c-121.09,0-247.71-11.56-247.71-33.87,0-1.22.44-3.38,1.67-3.38s.69,1.69.69,2.91c0,14.15,100.76,29.91,245.35,29.91s245.34-15.76,245.34-29.91c0-1.22.21-2.37,1.43-2.37s.93,1.64.93,2.86C1124.63,3158.15,998,3169.69,876.93,3169.69Z"/><path class="cls-35" d="M853.53,3137.14q3.65-2.52,7.78-5a48.62,48.62,0,0,1,10.64-4.44,101.48,101.48,0,0,1,16.32-3.22,203.58,203.58,0,0,1,24.44-1.32q14.35-.08,26.95.91a183.23,183.23,0,0,1,22.15,2.93,68.62,68.62,0,0,1,15.56,4.83c4,1.92,6.35,4.11,7.11,6.59l27.87.28a27,27,0,0,1,5.35.5c1.56.31,2.31.71,2.31,1.2v2.3l-35.83-.35q-1.89,4.22-9.61,7.72a97.63,97.63,0,0,1-19.65,6.06l-13-1.82a15,15,0,0,1-2.88-.68c-.76-.27-1.12-.57-1.12-.9s1-.94,3-1.51,4.3-1.27,6.84-2.1a68,68,0,0,0,7.48-3,10.07,10.07,0,0,0,4.9-4.07l-84.58-.84a81.29,81.29,0,0,1-7.47,4.82,48.49,48.49,0,0,1-11,4.26,115.2,115.2,0,0,1-17,3.08,242.42,242.42,0,0,1-25.66,1.25c-7.76,0-15.3-.26-22.7-.88A153.54,153.54,0,0,1,772,3151a61.24,61.24,0,0,1-14.13-4.62c-3.66-1.84-5.72-4-6.15-6.34l-23-.23a29.44,29.44,0,0,1-5.42-.48c-1.58-.31-2.39-.71-2.39-1.22v-2.3l31.37.3c1.39-2.42,4.23-4.52,8.58-6.32a99.31,99.31,0,0,1,15.92-4.79l10.51,1.45c3.19.44,4.78,1,4.78,1.57,0,.33-.64.73-2,1.21s-2.9,1.06-4.71,1.73a41.62,41.62,0,0,0-5.23,2.36,11,11,0,0,0-3.82,3.06Zm-77.4,3.13a8.28,8.28,0,0,0,4.16,3.89,32.73,32.73,0,0,0,8,2.69A80.4,80.4,0,0,0,799,3148.4q6,.49,12.52.46a129.73,129.73,0,0,0,13.3-.65,77.85,77.85,0,0,0,9.95-1.69,46.16,46.16,0,0,0,7.48-2.47A41.94,41.94,0,0,0,848,3141Zm184.13-2.05c-.63-1.53-2.17-2.86-4.56-4a40.82,40.82,0,0,0-9.16-2.89,100,100,0,0,0-13-1.75q-7.39-.57-16.34-.53a128.14,128.14,0,0,0-13.69.71,70.31,70.31,0,0,0-9.94,1.81,35.67,35.67,0,0,0-7.15,2.64,51.35,51.35,0,0,0-5.48,3.23Z"/><path class="cls-40" d="M877,3106.7c-110.38,0-225.31,9.72-243.7,28.52a21.18,21.18,0,0,1,2,2.12c15.5-13.06,110.4-26.2,241.69-26.2,134.66,0,231.09,13.83,242.77,27.2a21.44,21.44,0,0,1,1.85-2.09C1106.39,3116.78,989.3,3106.7,877,3106.7Z"/><path class="cls-41" d="M688.75,3077.85v54.91c0,17.74,110.84,32.12,247.56,32.12s247.56-14.38,247.56-32.12v-54.91Z"/><path class="cls-42" d="M1183.87,3077.85c0,17.74-110.84,32.12-247.56,32.12s-247.56-14.38-247.56-32.12,110.84-32.13,247.56-32.13S1183.87,3060.1,1183.87,3077.85Z"/><path class="cls-43" d="M936.31,3112.19c-121.09,0-247.7-11.57-247.7-33.87,0-1.23.43-3.38,1.66-3.38s.7,1.68.7,2.91c0,14.14,100.76,29.91,245.34,29.91s245.34-15.77,245.34-29.91c0-1.23.21-2.38,1.43-2.38s.93,1.64.93,2.86C1184,3100.64,1057.39,3112.19,936.31,3112.19Z"/><path class="cls-35" d="M912.92,3079.64q3.63-2.52,7.78-5a48.75,48.75,0,0,1,10.63-4.43,101.37,101.37,0,0,1,16.32-3.23,207.84,207.84,0,0,1,24.44-1.32q14.35-.07,26.95.91a181.29,181.29,0,0,1,22.16,2.94,68.56,68.56,0,0,1,15.55,4.82q6,2.88,7.11,6.59l27.88.28a27.79,27.79,0,0,1,5.34.5c1.56.32,2.31.72,2.31,1.2v2.3l-35.83-.35q-1.89,4.23-9.61,7.72a97.63,97.63,0,0,1-19.65,6.06l-13-1.81a14.88,14.88,0,0,1-2.88-.69c-.75-.27-1.12-.57-1.12-.89s1-1,3-1.51,4.29-1.27,6.83-2.11a68,68,0,0,0,7.48-3,10.15,10.15,0,0,0,4.91-4.07l-84.59-.84a79.24,79.24,0,0,1-7.47,4.82,48.3,48.3,0,0,1-11,4.26,113.91,113.91,0,0,1-17,3.08,242.13,242.13,0,0,1-25.66,1.25c-7.76,0-15.3-.25-22.69-.88a155.36,155.36,0,0,1-19.7-2.8,61.54,61.54,0,0,1-14.13-4.63c-3.66-1.84-5.72-3.95-6.15-6.33l-22.94-.24a29.47,29.47,0,0,1-5.43-.48c-1.58-.3-2.38-.71-2.39-1.22v-2.29l31.38.3c1.39-2.42,4.23-4.53,8.57-6.32a97.14,97.14,0,0,1,15.93-4.79l10.51,1.44c3.19.45,4.77,1,4.77,1.57,0,.33-.64.73-2,1.21l-4.71,1.73a43.1,43.1,0,0,0-5.23,2.36,11.18,11.18,0,0,0-3.82,3.06Zm-77.41,3.13a8.31,8.31,0,0,0,4.17,3.89,33.66,33.66,0,0,0,8,2.69,80.49,80.49,0,0,0,10.74,1.54q6,.49,12.53.47a132.32,132.32,0,0,0,13.29-.66,79.78,79.78,0,0,0,9.95-1.68,47.12,47.12,0,0,0,7.48-2.48,41.36,41.36,0,0,0,5.72-3.05Zm184.13-2.06c-.63-1.52-2.16-2.86-4.55-4a41.61,41.61,0,0,0-9.17-2.89,101.73,101.73,0,0,0-13-1.75q-7.39-.57-16.34-.52a122.76,122.76,0,0,0-13.68.71,69.17,69.17,0,0,0-9.95,1.8,36.93,36.93,0,0,0-7.15,2.64,53.09,53.09,0,0,0-5.48,3.23Z"/><path class="cls-44" d="M936.34,3049.2c-110.38,0-225.31,9.71-243.7,28.51a22.32,22.32,0,0,1,2,2.12c15.5-13.06,110.4-26.2,241.69-26.2,134.66,0,231.09,13.83,242.77,27.21a20.43,20.43,0,0,1,1.85-2.1C1165.77,3059.27,1048.68,3049.2,936.34,3049.2Z"/><path class="cls-45" d="M724.79,3020.17v54.91c0,17.74,110.83,32.13,247.55,32.13s247.56-14.39,247.56-32.13v-54.91Z"/><ellipse class="cls-46" cx="972.34" cy="3020.17" rx="247.56" ry="32.13"/><path class="cls-47" d="M972.34,3054.51c-121.08,0-247.7-11.56-247.7-33.87,0-1.23.44-3.38,1.66-3.38s.7,1.69.7,2.91c0,14.15,100.76,29.91,245.34,29.91s245.34-15.76,245.34-29.91c0-1.22.21-2.37,1.44-2.37s.93,1.63.93,2.86C1220.05,3043,1093.43,3054.51,972.34,3054.51Z"/><path class="cls-35" d="M949,3022c2.43-1.68,5-3.34,7.78-5a49.25,49.25,0,0,1,10.63-4.43,102.48,102.48,0,0,1,16.32-3.23,208,208,0,0,1,24.45-1.32q14.36-.06,26.94.92a183.15,183.15,0,0,1,22.16,2.93,68.28,68.28,0,0,1,15.56,4.83q6,2.87,7.11,6.59l27.87.28a27.07,27.07,0,0,1,5.34.49c1.56.32,2.32.72,2.32,1.21v2.29l-35.84-.34c-1.25,2.81-4.46,5.38-9.6,7.71a97.34,97.34,0,0,1-19.65,6.07l-13-1.82a16.07,16.07,0,0,1-2.89-.68c-.75-.28-1.11-.57-1.12-.9s1-.94,3-1.51,4.3-1.27,6.84-2.1a69.85,69.85,0,0,0,7.47-3,10.17,10.17,0,0,0,4.91-4.08L971,3026.1a81.29,81.29,0,0,1-7.47,4.82,49.16,49.16,0,0,1-11,4.26,115.59,115.59,0,0,1-17,3.07,239.48,239.48,0,0,1-25.67,1.26c-7.75,0-15.3-.26-22.69-.88a155.07,155.07,0,0,1-19.69-2.81,61.72,61.72,0,0,1-14.13-4.62q-5.51-2.76-6.15-6.34l-22.95-.23a31.29,31.29,0,0,1-5.42-.48c-1.58-.31-2.39-.72-2.39-1.22v-2.3l31.37.3c1.39-2.42,4.23-4.53,8.58-6.32a98,98,0,0,1,15.92-4.79l10.51,1.44q4.79.67,4.78,1.58c0,.32-.65.73-2,1.21l-4.71,1.72a45.31,45.31,0,0,0-5.22,2.36,11,11,0,0,0-3.82,3.06Zm-77.41,3.13a8.35,8.35,0,0,0,4.17,3.89,33.22,33.22,0,0,0,8,2.69,80.81,80.81,0,0,0,10.75,1.55q6,.5,12.52.46a126.83,126.83,0,0,0,13.3-.66,76.54,76.54,0,0,0,10-1.68,46.16,46.16,0,0,0,7.48-2.47,42.32,42.32,0,0,0,5.71-3Zm184.14-2.05c-.63-1.53-2.17-2.87-4.56-4a40.71,40.71,0,0,0-9.17-2.9,101.62,101.62,0,0,0-13-1.74q-7.38-.57-16.33-.53a125.56,125.56,0,0,0-13.69.71,70.47,70.47,0,0,0-9.95,1.81,35.79,35.79,0,0,0-7.14,2.64,48.82,48.82,0,0,0-5.48,3.23Z"/><path class="cls-48" d="M972.38,2991.52c-110.38,0-225.32,9.71-243.7,28.52a22.21,22.21,0,0,1,2,2.11c15.49-13.05,110.4-26.2,241.69-26.2,134.66,0,231.08,13.83,242.76,27.21a24.58,24.58,0,0,1,1.85-2.1C1201.81,3001.59,1084.72,2991.52,972.38,2991.52Z"/><path class="cls-49" d="M698.19,2958v54.9c0,17.75,110.83,32.13,247.56,32.13s247.55-14.38,247.55-32.13V2958Z"/><path class="cls-50" d="M1193.3,2958c0,17.74-110.83,32.12-247.55,32.12S698.19,2975.69,698.19,2958s110.83-32.13,247.56-32.13S1193.3,2940.2,1193.3,2958Z"/><path class="cls-51" d="M945.75,2992.29c-121.09,0-247.71-11.57-247.71-33.88,0-1.22.44-3.37,1.67-3.37s.69,1.68.69,2.91c0,14.14,100.76,29.9,245.35,29.9s245.34-15.76,245.34-29.9c0-1.23.21-2.38,1.43-2.38s.93,1.64.93,2.86C1193.45,2980.74,1066.83,2992.29,945.75,2992.29Z"/><path class="cls-35" d="M922.35,2959.74c2.43-1.69,5-3.34,7.78-5a48.64,48.64,0,0,1,10.64-4.43,101.37,101.37,0,0,1,16.32-3.23,207.84,207.84,0,0,1,24.44-1.32q14.36-.08,27,.91a183.23,183.23,0,0,1,22.15,2.93,69.13,69.13,0,0,1,15.56,4.83c4,1.92,6.34,4.12,7.11,6.59l27.87.28a27.82,27.82,0,0,1,5.35.5c1.55.32,2.31.72,2.31,1.2v2.3L1053,2965q-1.89,4.22-9.61,7.72a97.63,97.63,0,0,1-19.65,6.06l-13-1.82a14.24,14.24,0,0,1-2.88-.68c-.76-.27-1.12-.57-1.12-.9s1-.94,3-1.5,4.3-1.27,6.84-2.11a68,68,0,0,0,7.48-3,10.07,10.07,0,0,0,4.9-4.07l-84.58-.84a79.24,79.24,0,0,1-7.47,4.82,48.49,48.49,0,0,1-11,4.26,115.2,115.2,0,0,1-17,3.08,242.42,242.42,0,0,1-25.66,1.25c-7.76,0-15.3-.25-22.7-.88a155.45,155.45,0,0,1-19.69-2.8,61.21,61.21,0,0,1-14.13-4.63c-3.66-1.84-5.72-3.95-6.15-6.34l-23-.23a29.44,29.44,0,0,1-5.42-.48c-1.58-.3-2.39-.71-2.39-1.22v-2.29l31.37.29c1.39-2.41,4.23-4.52,8.58-6.32a99.31,99.31,0,0,1,15.92-4.79l10.51,1.45q4.79.67,4.78,1.57c0,.33-.64.73-2,1.21s-2.9,1.06-4.71,1.73a41.62,41.62,0,0,0-5.23,2.36,11.08,11.08,0,0,0-3.82,3.06Zm-77.4,3.12a8.28,8.28,0,0,0,4.16,3.89,33.14,33.14,0,0,0,8,2.7,82.16,82.16,0,0,0,10.74,1.54q6,.5,12.52.46a129.73,129.73,0,0,0,13.3-.65,77.85,77.85,0,0,0,10-1.69,46.16,46.16,0,0,0,7.48-2.47,41.94,41.94,0,0,0,5.72-3Zm184.13-2.05c-.63-1.52-2.17-2.86-4.56-4a40.82,40.82,0,0,0-9.16-2.89,102,102,0,0,0-13-1.75q-7.4-.57-16.34-.53a128.14,128.14,0,0,0-13.69.71,70.31,70.31,0,0,0-9.94,1.81,36.93,36.93,0,0,0-7.15,2.64,51.35,51.35,0,0,0-5.48,3.23Z"/><path class="cls-52" d="M945.78,2929.3c-110.38,0-225.31,9.71-243.7,28.51a22.32,22.32,0,0,1,2,2.12c15.5-13.06,110.4-26.2,241.69-26.2,134.66,0,231.09,13.83,242.76,27.2a23,23,0,0,1,1.86-2.09C1175.21,2939.37,1058.12,2929.3,945.78,2929.3Z"/><path class="cls-53" d="M629.37,2900.27v54.91c0,17.74,110.83,32.12,247.56,32.12s247.55-14.38,247.55-32.12v-54.91Z"/><ellipse class="cls-54" cx="876.93" cy="2900.27" rx="247.56" ry="32.13"/><path class="cls-55" d="M876.93,2934.61c-121.09,0-247.71-11.56-247.71-33.87,0-1.23.44-3.38,1.67-3.38s.69,1.68.69,2.91c0,14.15,100.76,29.91,245.35,29.91s245.34-15.76,245.34-29.91c0-1.23.21-2.37,1.43-2.37s.93,1.63.93,2.86C1124.63,2923.06,998,2934.61,876.93,2934.61Z"/><path class="cls-35" d="M853.53,2902.06q3.65-2.52,7.78-5a49.13,49.13,0,0,1,10.64-4.43,102.48,102.48,0,0,1,16.32-3.23,207.84,207.84,0,0,1,24.44-1.32q14.35-.06,26.95.92a183.23,183.23,0,0,1,22.15,2.93,68.66,68.66,0,0,1,15.56,4.82c4,1.92,6.35,4.12,7.11,6.59l27.87.29a27.1,27.1,0,0,1,5.35.49c1.56.32,2.31.72,2.31,1.21v2.29l-35.83-.34q-1.89,4.22-9.61,7.71a97,97,0,0,1-19.65,6.06l-13-1.81a15.74,15.74,0,0,1-2.88-.68c-.76-.28-1.12-.58-1.12-.9s1-.95,3-1.51,4.3-1.27,6.84-2.11a67.89,67.89,0,0,0,7.48-2.95,10.14,10.14,0,0,0,4.9-4.08l-84.58-.84a79.24,79.24,0,0,1-7.47,4.82,48.93,48.93,0,0,1-11,4.27,115.34,115.34,0,0,1-17,3.07,239.42,239.42,0,0,1-25.66,1.26c-7.76,0-15.3-.26-22.7-.88a157.17,157.17,0,0,1-19.69-2.81,61.21,61.21,0,0,1-14.13-4.63c-3.66-1.83-5.72-3.94-6.15-6.33l-23-.24a30.39,30.39,0,0,1-5.42-.47c-1.58-.31-2.39-.72-2.39-1.23v-2.29l31.37.3c1.39-2.42,4.23-4.53,8.58-6.32a98.3,98.3,0,0,1,15.92-4.79l10.51,1.44c3.19.45,4.78,1,4.78,1.58,0,.32-.64.72-2,1.21s-2.9,1-4.71,1.72a43.1,43.1,0,0,0-5.23,2.36,11.08,11.08,0,0,0-3.82,3.06Zm-77.4,3.13a8.33,8.33,0,0,0,4.16,3.89,33.16,33.16,0,0,0,8,2.69,82.07,82.07,0,0,0,10.74,1.55q6,.49,12.52.46a132.37,132.37,0,0,0,13.3-.66,76.24,76.24,0,0,0,9.95-1.68,46.16,46.16,0,0,0,7.48-2.47,42,42,0,0,0,5.72-3.06Zm184.13-2.05c-.63-1.53-2.17-2.87-4.56-4a41.34,41.34,0,0,0-9.16-2.89,101.86,101.86,0,0,0-13-1.74q-7.39-.57-16.34-.53a123.09,123.09,0,0,0-13.69.71,71.88,71.88,0,0,0-9.94,1.8,36.26,36.26,0,0,0-7.15,2.65,51.32,51.32,0,0,0-5.48,3.22Z"/><path class="cls-56" d="M877,2871.62c-110.38,0-225.31,9.71-243.7,28.52a22.21,22.21,0,0,1,2,2.11c15.5-13.05,110.4-26.2,241.69-26.2,134.66,0,231.09,13.83,242.77,27.21a20.43,20.43,0,0,1,1.85-2.1C1106.39,2881.69,989.3,2871.62,877,2871.62Z"/><path class="cls-57" d="M688.75,2842.76v54.91c0,17.74,110.84,32.13,247.56,32.13s247.56-14.39,247.56-32.13v-54.91Z"/><ellipse class="cls-58" cx="936.31" cy="2842.76" rx="247.56" ry="32.13"/><path class="cls-59" d="M936.31,2877.1c-121.09,0-247.7-11.56-247.7-33.87,0-1.22.43-3.38,1.66-3.38s.7,1.69.7,2.91c0,14.15,100.76,29.91,245.34,29.91s245.34-15.76,245.34-29.91c0-1.22.21-2.37,1.43-2.37s.93,1.63.93,2.86C1184,2865.56,1057.39,2877.1,936.31,2877.1Z"/><path class="cls-35" d="M912.92,2844.55q3.63-2.52,7.78-5a48.72,48.72,0,0,1,10.63-4.44,101.48,101.48,0,0,1,16.32-3.22,203.58,203.58,0,0,1,24.44-1.32q14.35-.07,26.95.91a183.42,183.42,0,0,1,22.16,2.93,68,68,0,0,1,15.55,4.83q6,2.88,7.11,6.59l27.88.28a27.85,27.85,0,0,1,5.34.49c1.56.32,2.31.72,2.31,1.21v2.3l-35.83-.35q-1.89,4.22-9.61,7.71a96.93,96.93,0,0,1-19.65,6.07l-13-1.82a15,15,0,0,1-2.88-.68c-.75-.27-1.12-.57-1.12-.9s1-.94,3-1.51,4.29-1.27,6.83-2.1a70,70,0,0,0,7.48-3,10.2,10.2,0,0,0,4.91-4.07l-84.59-.84a81.29,81.29,0,0,1-7.47,4.82,48.3,48.3,0,0,1-11,4.26,115.34,115.34,0,0,1-17,3.07,239.13,239.13,0,0,1-25.66,1.26c-7.76,0-15.3-.26-22.69-.88a155.24,155.24,0,0,1-19.7-2.81,62.06,62.06,0,0,1-14.13-4.62c-3.66-1.84-5.72-3.95-6.15-6.34l-22.94-.23a30.37,30.37,0,0,1-5.43-.48c-1.58-.31-2.38-.71-2.39-1.22v-2.3l31.38.3c1.39-2.42,4.23-4.53,8.57-6.32a99.14,99.14,0,0,1,15.93-4.79l10.51,1.44c3.19.45,4.77,1,4.77,1.58,0,.32-.64.73-2,1.21s-2.9,1.06-4.71,1.73a43,43,0,0,0-5.23,2.35,11.18,11.18,0,0,0-3.82,3.06Zm-77.41,3.13a8.27,8.27,0,0,0,4.17,3.89,32.79,32.79,0,0,0,8,2.69,80.4,80.4,0,0,0,10.74,1.55q6,.49,12.53.46a129.67,129.67,0,0,0,13.29-.65,77.85,77.85,0,0,0,9.95-1.69,46.16,46.16,0,0,0,7.48-2.47,42.46,42.46,0,0,0,5.72-3.05Zm184.13-2c-.63-1.53-2.16-2.86-4.55-4a40.57,40.57,0,0,0-9.17-2.89,100,100,0,0,0-13-1.75q-7.39-.57-16.34-.53a127.79,127.79,0,0,0-13.68.71A70.47,70.47,0,0,0,953,2839a35.67,35.67,0,0,0-7.15,2.64,51.35,51.35,0,0,0-5.48,3.23Z"/><path class="cls-60" d="M936.34,2814.11c-110.38,0-225.31,9.72-243.7,28.52a22.21,22.21,0,0,1,2,2.11c15.5-13,110.4-26.19,241.69-26.19,134.66,0,231.09,13.83,242.77,27.2a22.78,22.78,0,0,1,1.85-2.1C1165.77,2824.19,1048.68,2814.11,936.34,2814.11Z"/><path class="cls-61" d="M657.86,2785.09V2840c0,17.74,110.84,32.12,247.56,32.12S1153,2857.74,1153,2840v-54.91Z"/><ellipse class="cls-62" cx="905.42" cy="2785.09" rx="247.56" ry="32.13"/><path class="cls-63" d="M905.42,2819.43c-121.08,0-247.7-11.57-247.7-33.87,0-1.23.44-3.38,1.66-3.38s.7,1.68.7,2.91c0,14.14,100.76,29.91,245.34,29.91s245.34-15.77,245.34-29.91c0-1.23.21-2.38,1.44-2.38s.93,1.64.93,2.86C1153.13,2807.88,1026.51,2819.43,905.42,2819.43Z"/><path class="cls-35" d="M882,2786.88c2.43-1.68,5-3.34,7.78-5a49.25,49.25,0,0,1,10.63-4.43,101.37,101.37,0,0,1,16.32-3.23,208,208,0,0,1,24.45-1.32q14.34-.08,26.94.91a181.29,181.29,0,0,1,22.16,2.94,68.56,68.56,0,0,1,15.55,4.82q6,2.88,7.11,6.59l27.88.28a27.79,27.79,0,0,1,5.34.5c1.56.32,2.31.72,2.32,1.2v2.3l-35.84-.35q-1.87,4.23-9.61,7.72a97.63,97.63,0,0,1-19.65,6.06l-13-1.81a15.26,15.26,0,0,1-2.88-.69c-.75-.27-1.12-.57-1.12-.89s1-.95,3-1.51,4.3-1.27,6.83-2.11a67.18,67.18,0,0,0,7.48-3,10.15,10.15,0,0,0,4.91-4.07L904,2791a80.55,80.55,0,0,1-7.47,4.82,48.59,48.59,0,0,1-11,4.26,113.66,113.66,0,0,1-17,3.08,242.13,242.13,0,0,1-25.66,1.25c-7.75,0-15.3-.25-22.69-.88a155.63,155.63,0,0,1-19.7-2.8,61.27,61.27,0,0,1-14.12-4.63c-3.67-1.84-5.73-4-6.15-6.33l-23-.24a29.44,29.44,0,0,1-5.42-.48c-1.59-.3-2.39-.71-2.39-1.22l0-2.29,31.38.3c1.39-2.42,4.23-4.53,8.58-6.32a96.7,96.7,0,0,1,15.92-4.79l10.51,1.44c3.19.45,4.77,1,4.78,1.57,0,.33-.65.73-2,1.21l-4.71,1.73a43.67,43.67,0,0,0-5.22,2.36,11.13,11.13,0,0,0-3.83,3.06ZM804.62,2790a8.35,8.35,0,0,0,4.17,3.89,33.66,33.66,0,0,0,8,2.69,80.73,80.73,0,0,0,10.74,1.54q6,.49,12.53.47a132.69,132.69,0,0,0,13.3-.66,78.28,78.28,0,0,0,9.95-1.68,47.12,47.12,0,0,0,7.48-2.48,40.18,40.18,0,0,0,5.71-3.05ZM988.76,2788c-.63-1.52-2.17-2.86-4.56-4a41.44,41.44,0,0,0-9.17-2.89,101.48,101.48,0,0,0-13-1.75q-7.39-.57-16.33-.52a123.09,123.09,0,0,0-13.69.71,69.17,69.17,0,0,0-10,1.8,36.82,36.82,0,0,0-7.14,2.64,52.05,52.05,0,0,0-5.48,3.23Z"/><path class="cls-64" d="M905.46,2756.44c-110.39,0-225.32,9.71-243.7,28.51a23.59,23.59,0,0,1,2,2.12c15.49-13.06,110.39-26.2,241.69-26.2,134.66,0,231.08,13.83,242.76,27.21a21.7,21.7,0,0,1,1.85-2.1C1134.89,2766.51,1017.8,2756.44,905.46,2756.44Z"/><path class="cls-65" d="M1223.4,2823.8l-44.75,31.82c-14.46,10.29,38.07,108.94,117.32,220.35s155.21,193.4,169.67,183.11l44.74-31.82Z"/><path class="cls-66" d="M1510.38,3227.26c-14.46,10.28-90.42-71.7-169.67-183.11s-131.77-210.07-117.31-220.35,90.42,71.69,169.67,183.11S1524.84,3217,1510.38,3227.26Z"/><path class="cls-67" d="M1338.9,3045.43c-70.18-98.67-134.15-208.55-116-221.48,1-.71,3-1.6,3.72-.6s-1,1.54-2,2.25c-11.53,8.2,34,99.44,117.84,217.26s155,190.79,166.58,182.59c1-.71,2.05-1.2,2.76-.21s-.79,1.71-1.79,2.42C1491.89,3240.59,1409.09,3144.1,1338.9,3045.43Z"/><path class="cls-35" d="M1351.87,3007.5c2.78,1,5.63,2.15,8.57,3.46a49,49,0,0,1,9.77,6.09,101.14,101.14,0,0,1,12.09,11.43,205.69,205.69,0,0,1,15.25,19.16q8.37,11.64,14.87,22.48a182.54,182.54,0,0,1,10.45,19.76,68.23,68.23,0,0,1,5.09,15.47q1.11,6.53-1.25,9.61l15.92,22.88a27.31,27.31,0,0,1,2.7,4.64c.64,1.46.75,2.3.36,2.59l-1.87,1.34L1423.33,3117c-3,.61-7-.51-11.85-3.35a97.53,97.53,0,0,1-16.33-12.5l-6.09-11.69a15.11,15.11,0,0,1-1.11-2.74c-.21-.77-.18-1.24.08-1.43s1.36.27,3,1.59,3.52,2.76,5.67,4.35a71.57,71.57,0,0,0,6.75,4.38,10.11,10.11,0,0,0,6.16,1.63l-48.34-69.41a79.54,79.54,0,0,1-8.26-3.29,48.75,48.75,0,0,1-9.83-6.47A114.38,114.38,0,0,1,1330.8,3006a242,242,0,0,1-15.9-20.18q-6.8-9.45-12.44-19a155.08,155.08,0,0,1-9.12-17.67,61.16,61.16,0,0,1-4.42-14.19q-.95-6.09,1.59-8.69l-13.11-18.83a30.07,30.07,0,0,1-2.75-4.7c-.67-1.47-.8-2.36-.39-2.66l1.86-1.34,18,25.75q4.15-.42,10.12,3.32a97.94,97.94,0,0,1,13.13,10.2l4.92,9.4c1.48,2.86,2,4.45,1.48,4.81-.26.19-1-.11-2.12-.9s-2.55-1.75-4.14-2.84a41.51,41.51,0,0,0-5-2.89,11.08,11.08,0,0,0-4.71-1.34Zm-47.42-61.26a8.3,8.3,0,0,0-.75,5.65,33,33,0,0,0,2.43,8.06,83.29,83.29,0,0,0,5,9.65q3.08,5.16,6.89,10.47a129.51,129.51,0,0,0,8.24,10.46,77.11,77.11,0,0,0,7.14,7.13,46.23,46.23,0,0,0,6.35,4.66,41.7,41.7,0,0,0,5.8,2.89Zm108.41,148.86c.87-1.4,1.07-3.43.62-6a41.17,41.17,0,0,0-3-9.15,100.36,100.36,0,0,0-6.12-11.6q-3.81-6.36-9-13.62a124.58,124.58,0,0,0-8.52-10.74,70,70,0,0,0-7.23-7.06,35.29,35.29,0,0,0-6.3-4.29,52.15,52.15,0,0,0-5.8-2.6Z"/><path class="cls-68" d="M1390.25,3009c-64-89.95-138.51-178-164.49-182.06a21.4,21.4,0,0,1-.56,2.87c19.62,5.06,85.34,74.77,161.44,181.76,78.06,109.73,122.68,196.32,118.55,213.59a23.82,23.82,0,0,1,2.78.29C1515,3201.75,1455.37,3100.49,1390.25,3009Z"/></g></g></svg>