<svg id="Capa_1" enable-background="new 0 0 512 512" height="512" viewBox="0 0 512 512" width="512" xmlns="http://www.w3.org/2000/svg"><g><path d="m408.228 24.578-.512.316c-2.535 1.568-5.664 1.89-8.525.893-21.464-7.477-48.717-.658-68.624 19.249-20.6 20.6-27.185 49.067-18.415 70.846.939 2.331 1.428 4.81 1.454 7.304l.071 6.672c.063 5.886 4.885 10.709 10.771 10.771l6.672.071c2.494.027 4.973.516 7.304 1.454 21.778 8.77 50.245 2.185 70.846-18.415 19.907-19.907 26.726-47.16 19.249-68.624-.997-2.861-.675-5.99.893-8.525l.316-.512c2.664-4.307 1.963-9.947-1.692-13.601l-6.209-6.209c-3.652-3.653-9.292-4.354-13.599-1.69z" fill="#f7e782"/><path d="m391.383 26.27 6.209 6.209c3.654 3.654 4.356 9.294 1.691 13.601l-.316.512c-1.568 2.536-1.89 5.664-.893 8.525 7.477 21.464.658 48.717-19.249 68.624-10.307 10.307-22.583 17.104-35.005 20.227 20.927 5.794 46.512-1.287 65.451-20.227 19.907-19.907 26.726-47.16 19.249-68.624-.997-2.861-.675-5.99.893-8.525l.316-.512c2.664-4.307 1.963-9.947-1.691-13.601l-6.209-6.209c-3.654-3.654-9.294-4.356-13.601-1.691l-.512.316c-2.535 1.568-5.664 1.89-8.525.893-4.4-1.533-9.043-2.463-13.816-2.802 0 0 4.331 1.607 6.008 3.284z" fill="#f4dd46"/><g><g><path d="m292.34 43.513c-2.131 0-4.25-.89-5.755-2.626-2.753-3.176-2.41-7.984.767-10.737 3.144-2.725 5.763-6.138 7.575-9.872 1.927-3.97 2.997-8.408 3.095-12.836.092-4.202 3.585-7.501 7.777-7.441 4.203.092 7.535 3.575 7.441 7.778-.146 6.599-1.742 13.219-4.618 19.145-2.743 5.653-6.545 10.609-11.3 14.73-1.44 1.248-3.215 1.859-4.982 1.859z" fill="#78c2a4"/></g><path d="m301.807 131.694c-15.963 18.882-52.278 46.779-81.138 32.784-28.972-14.049-32.025-61.388-20.887-91.688 14.22-38.683 57.085-64.298 73.922-55.586 6.505 3.365 5.983 10.227 16.881 17.687 13.112 8.975 21.87 4.519 28.756 10.063 14.495 11.67 7.552 57.068-17.534 86.74z" fill="#b3e59f"/><path d="m319.341 44.954c-6.886-5.544-15.643-1.087-28.756-10.063-10.898-7.46-10.376-14.321-16.881-17.687-6.201-3.208-15.936-1.748-26.467 3.294 3.028 3.69 4.844 8.877 12.901 14.392 13.112 8.976 21.87 4.519 28.756 10.063 14.495 11.67 7.552 57.068-17.534 86.741-10.175 12.035-28.618 27.73-48.128 33.908 28.414 11.236 63.08-15.581 78.574-33.908 25.087-29.672 32.03-75.07 17.535-86.74z" fill="#95d6a4"/></g><g><g><circle cx="145.417" cy="82.786" fill="#e28086" r="61.281"/><path d="m145.417 21.505c-4.007 0-7.919.397-11.711 1.131 28.241 5.467 49.57 30.312 49.57 60.15s-21.329 54.683-49.57 60.15c3.792.734 7.704 1.131 11.711 1.131 33.845 0 61.281-27.437 61.281-61.281s-27.436-61.281-61.281-61.281z" fill="#dd636e"/><g><path d="m153.63 64.315c-3.258 0-6.269-2.105-7.27-5.384-2.751-9.008-3.907-28.28 9.209-43.374 16.564-19.062 40.959-15.286 41.993-15.117 4.148.685 6.955 4.602 6.271 8.749-.684 4.149-4.603 6.948-8.749 6.272-.686-.112-17.025-2.576-28.024 10.082-10.927 12.574-6.34 28.281-6.14 28.943 1.218 4.021-1.049 8.275-5.068 9.497-.74.225-1.488.332-2.222.332z" fill="#b3e59f"/></g><g><path d="m153.724 64.322c-1.225 0-2.495-.082-3.807-.266-9.958-1.39-15.961-7.641-18.08-10.265-2.641-3.271-2.132-8.062 1.138-10.704 3.271-2.642 8.063-2.133 10.704 1.138.767.949 3.633 4.096 8.343 4.754 5.249.729 9.203-2.161 9.943-2.749 3.291-2.616 8.079-2.067 10.695 1.222 2.616 3.292 2.068 8.079-1.222 10.695-1.974 1.569-8.559 6.175-17.714 6.175z" fill="#dd636e"/></g></g></g><path d="m86.304 110.147c4.399 1.919 9.399 1.919 13.798 0l18.767-8.188c4.399-1.92 9.4-1.919 13.799 0l18.762 8.187c4.4 1.92 9.4 1.92 13.8 0l18.762-8.187c4.4-1.92 9.4-1.92 13.8 0l18.761 8.186c4.4 1.92 9.4 1.92 13.8 0l18.76-8.186c4.4-1.92 9.401-1.92 13.801 0l18.755 8.185c4.4 1.92 9.402 1.92 13.802 0l18.754-8.185c4.4-1.92 9.401-1.92 13.801 0l18.76 8.186c4.4 1.92 9.401 1.92 13.8 0l18.759-8.186c4.4-1.92 9.401-1.92 13.801 0l18.757 8.185c4.4 1.92 9.401 1.92 13.801 0l17.132-7.477c4.022-1.755 8.525 1.192 8.525 5.581v373.304c0 16.815-13.631 30.446-30.446 30.446h-329.831c-16.815 0-30.446-13.631-30.446-30.446v-373.302c0-4.389 4.502-7.336 8.525-5.581l17.132 7.477c4.4 1.92 9.401 1.92 13.801 0l18.757-8.185c4.4-1.92 9.401-1.92 13.801 0l18.759 8.186c4.4 1.92 9.4 1.92 13.8 0l18.76-8.186c4.4-1.92 9.401-1.92 13.801 0l18.754 8.185c4.4 1.92 9.402 1.92 13.802 0l18.755-8.185c4.4-1.92 9.401-1.92 13.801 0l18.76 8.186c4.4 1.92 9.4 1.92 13.8 0l18.761-8.186c4.4-1.92 9.4-1.92 13.8 0l18.763 8.187c4.399 1.92 9.4 1.92 13.8 0l18.762-8.187c4.4-1.92 9.4-1.92 13.799 0l18.767 8.188c4.399 1.919 9.399 1.919 13.798 0" fill="#efe7e4"/><g><path d="m420.916 110.147v1.294c1.632-.202 3.243-.624 4.779-1.294z" fill="#f6f1f1"/><path d="m442.837 102.669-17.132 7.477c-1.539.672-3.154 1.094-4.789 1.296v59.181c0 180.13-146.024 326.154-326.154 326.154h-30.041c5.265 9.098 15.095 15.223 26.363 15.223h329.832c16.815 0 30.446-13.631 30.446-30.446v-373.304c0-4.389-4.502-7.337-8.525-5.581z" fill="#dad0cb"/></g><g><path d="m303.69 332.393c13.708-35.385-6.918-85.287-55.838-113.401-2.932-1.685-6.627.306-6.794 3.684-.318 6.435-1.522 14.153-4.747 22.262-4.853 12.2-10.795 16.518-17.355 26.543-8.425 12.875-16.038 32.359-14.633 48.322 3.039 34.518 48.328 53.737 51.725 55.128 9.357-3.565 37.2-15.583 47.642-42.538z" fill="#b3e59f"/><path d="m284.252 299.853c-3.207-2.717-8.01-2.321-10.728.886l-3.161 3.729c-1.132-10.071-3.123-20.068-5.982-29.934-1.171-4.038-5.391-6.363-9.43-5.192-4.038 1.17-6.362 5.392-5.192 9.43 4.029 13.899 6.187 28.08 6.463 42.354-4.674-5.365-9.928-10.227-15.677-14.472-3.382-2.499-8.147-1.781-10.645 1.601-2.497 3.382-1.78 8.148 1.601 10.645 5.819 4.297 11.046 9.33 15.534 14.957 2.932 3.677 5.537 7.635 7.806 11.769-2.065 15.652-6.386 30.9-12.884 45.394-1.719 3.836-.004 8.34 3.832 10.06 3.756 1.684 8.318.051 10.059-3.832 10.02-22.344 15.132-46.15 15.601-70.516l13.688-16.151c2.718-3.207 2.322-8.01-.885-10.728z" fill="#78c2a4"/></g></g></svg>