<svg xmlns="http://www.w3.org/2000/svg" xmlns:xlink="http://www.w3.org/1999/xlink" viewBox="0 0 2203.92 1236.09"><defs><style>.cls-1{fill:url(#Безымянный_градиент_108);}.cls-2{fill:#d9e9fe;}.cls-3{fill:#ed7d2b;}.cls-4{fill:#ffb583;}.cls-5{fill:#ea6c2d;}.cls-6{fill:#a8d29f;}.cls-7{fill:#82b378;}.cls-8{fill:#95c38b;}.cls-9{fill:#233862;}.cls-10{fill:#2b478b;}.cls-11{fill:#ffb07b;}.cls-12{fill:#2a4e96;}.cls-13{fill:#1e3d70;}.cls-14{fill:#ea8e50;}.cls-15{fill:#ffb93e;}.cls-16{fill:#ffa412;}.cls-17{fill:#d1f2c9;}.cls-18{fill:#699dee;}.cls-19{fill:#92beff;}.cls-20{fill:#fcecdb;}.cls-21{fill:#efcbab;}.cls-22{fill:#ffda9f;}.cls-23{fill:#2c3a64;}.cls-24{fill:#ed985f;}.cls-25{fill:#f99746;}.cls-26{fill:#ffb27d;}.cls-27{fill:#2e3552;}</style><linearGradient id="Безымянный_градиент_108" x1="3180.18" y1="-133.81" x2="3180.18" y2="-133.81" gradientUnits="userSpaceOnUse"><stop offset="0" stop-color="#7094fb"/><stop offset="1" stop-color="#f31e61"/></linearGradient></defs><title>form-form</title><g id="_Layer_" data-name="&lt;Layer&gt;"><path class="cls-1" d="M3180.18-133.81" transform="translate(-773.39 -591.03)"/></g><g id="Слой_1" data-name="Слой 1"><path class="cls-2" d="M904.58,1825.59S641.74,1531.45,860.13,1213c193.78-282.55,419.7-263.23,585.45-148.57,70.6,48.83,274.14,6,447.38-281.49,236.25-392.07,1055.17-154.28,905.85,448.94-72.25,291.91,219.91,302.53,71,594.32Z" transform="translate(-773.39 -591.03)"/><path class="cls-3" d="M2447.12,1580.36a71.86,71.86,0,0,0,15.93,3.3c21.41,2,47.12-4.49,70.94-24.27,0,0,2.25-17.81-2.82-34h0c-3.52-11.24-11.22-25.73-24.62-30.23a30.07,30.07,0,0,0-21.93.76c-10.44,4.26-17.92,12.54-24.69,11.86a47.8,47.8,0,0,0-21.74,3.3c-1.18.46-2.35,1-3.5,1.54h0c-.48.23-.95.46-1.42.72h0c-10.28,5.5-18.38,14.92-18.52,28.2a36.39,36.39,0,0,0,1.37,10.06C2419.59,1564.53,2431.21,1575.09,2447.12,1580.36Z" transform="translate(-773.39 -591.03)"/><path class="cls-4" d="M2497.78,1500s13-.24,16.17,8.62-5.67,10.78-11.51,7.61S2490.69,1501.92,2497.78,1500Z" transform="translate(-773.39 -591.03)"/><path class="cls-5" d="M2414.71,1541.54a36.39,36.39,0,0,0,1.37,10.06c3.51,12.93,18.22,42.83,34.13,48.11,0,0,31.56,14.5,49.6,7.75,20.14-7.53,32.55-23.45,34.18-48.07,0,0,2.25-17.81-2.82-34h0s-20.12,35.94-68.06,34.2C2441.32,1558.77,2425.5,1550.42,2414.71,1541.54Z" transform="translate(-773.39 -591.03)"/><path class="cls-6" d="M2449.79,1492.13c2.52-6.92,10.82-6.86,18.41-9.29s18.63-11.51,18.63-11.51a103.48,103.48,0,0,0-22.67-3.28C2451.38,1467.62,2449.79,1492.13,2449.79,1492.13Z" transform="translate(-773.39 -591.03)"/><path class="cls-7" d="M2449.79,1492.13c1.52-7.54,8.27-16.65,13.82-18.33s23.22-2.47,23.22-2.47a103.48,103.48,0,0,0-22.67-3.28C2451.38,1467.62,2449.79,1492.13,2449.79,1492.13Z" transform="translate(-773.39 -591.03)"/><path class="cls-5" d="M2459.92,1507.76a47.8,47.8,0,0,0-21.74,3.3c12.78-4.31,28.29,3.7,30.83-.76,2.73-4.8,15.12-14,15.6-14.4C2474.17,1500.16,2466.69,1508.44,2459.92,1507.76Z" transform="translate(-773.39 -591.03)"/><path class="cls-8" d="M2433.26,1513.33c.38-.17.85-.4,1.42-.72C2434.2,1512.84,2433.73,1513.07,2433.26,1513.33Z" transform="translate(-773.39 -591.03)"/><path class="cls-7" d="M2468.12,1510.61h0c-2.52-9.49-11.22-16.71-18.08-21.1a174.56,174.56,0,0,0-17.71-9.33,1,1,0,0,0-1.39,1.3l.87,2.3a8.42,8.42,0,0,0,5,4.93c7.12,2.54,22.77,9.3,27.89,21.19C2465.3,1511.23,2468.57,1512.31,2468.12,1510.61Z" transform="translate(-773.39 -591.03)"/><path class="cls-9" d="M2413.79,1793.69s-9.54,7.15-24.17,3.37c0,0-11.79-2.69-14.38,3.19,0,0,18.09,9.19,22.67,11.7a55.71,55.71,0,0,1,9.59,7.2,4.75,4.75,0,0,0,6.87-.53c.79-1,1.7-2.14,2.7-3.5,2.79-3.78,9.29-16,9.29-16Z" transform="translate(-773.39 -591.03)"/><path class="cls-10" d="M2408.19,1790.05s5.81,13.41,19.23,10.94c0,0,27.37-22.61,46.15-46.09,6.1-7.63,11.29-15.35,14.35-22.42,12.45-28.83,46.06-71.83,67.43-93.62l-53.47-19.34s-17.12,34.44-39.91,76.76C2445.55,1726.77,2426.2,1761.34,2408.19,1790.05Z" transform="translate(-773.39 -591.03)"/><path class="cls-9" d="M2462,1696.28l11.6,58.62c6.1-7.63,11.29-15.35,14.35-22.42,12.45-28.83,46.06-71.83,67.43-93.62l-53.47-19.34S2484.76,1654,2462,1696.28Z" transform="translate(-773.39 -591.03)"/><path class="cls-9" d="M2505.68,1801.47s.58,10.69-12.39,12.12c0,0-7.4,0-7.42,6.84l37.67.12s1.1-2.75,1.36-8.63c.21-4.51-4.37-16.32-4.37-16.32Z" transform="translate(-773.39 -591.03)"/><path class="cls-10" d="M2519.42,1619.52s-23.82,26.17-38.94,73.32c-8.22,25.65,15.08,90.15,19.62,112.56,0,0,15.64,1.33,26.33-2.8,0,0,.81-46.29-5.44-82-3.5-20,31.36-42.7,46.59-78.77,10.36-24.54-2.25-24.13-17.74-24.72Z" transform="translate(-773.39 -591.03)"/><path class="cls-11" d="M2546.92,1502.75c13.25,7.48,40.38.58,40.38.58s-11-12.59-6-32.88l-10.41,5.29-11.18,5.67a93.31,93.31,0,0,0-1.22,10c-.13,1.66-.24,3.51-.32,5.53A34.61,34.61,0,0,0,2546.92,1502.75Z" transform="translate(-773.39 -591.03)"/><path class="cls-12" d="M2498.32,1618.16c0,2.33,2.69,3.45,3.26,3.56,5.34,1,20.26,6.78,33.71,8.11,11.32,1.19,21.83.06,33.38-2.25,1.52-.31,5.11-1.28,5.37-2.74s44.54-90.15,10.16-128.18c-.81-.9-7.59.71-13.8,2.18a25.42,25.42,0,0,1-15.68-1.28l-5.82,3.06c-7.14,4-20.67,18.14-22.25,29.24-.8,5.64-4,9.82-5,14.79-.35,1.84-.7,3.63-1.07,5.38-.7,3.43-1.43,6.69-2.17,9.8-2,8.39-4.16,15.62-6.25,21.87-2.23,6.63-4.42,12.14-6.38,16.75-2.53,6-4.67,10.46-6,13.88A17.24,17.24,0,0,0,2498.32,1618.16Z" transform="translate(-773.39 -591.03)"/><path class="cls-13" d="M2499.81,1612.33c62.42-29.41,84-85.88,84-85.88s-50.72,18.71-63.23,23.58c-.7,3.43-1.43,6.69-2.17,9.8-2,8.39-4.16,15.62-6.25,21.87-2.23,6.63-4.42,12.14-6.38,16.75C2503.29,1604.44,2501.15,1608.91,2499.81,1612.33Z" transform="translate(-773.39 -591.03)"/><path class="cls-11" d="M2457.48,1596.79s-8.68-3.56-10.67-3.27-7.51-1.1-7.2.71c.22,1.25,7.34,2.56,7.34,2.56s-7.95-1.79-7.34.07c.42,1.28,2.11,6.37,4.74,8,3.15,2,8.85,1,15.52.06C2472.13,1603.19,2457.48,1596.79,2457.48,1596.79Z" transform="translate(-773.39 -591.03)"/><path class="cls-12" d="M2458.85,1602.91c-2-5.2-2.9-7.56-2.9-7.56s40.75-33.22,44.91-36.07c2.83-1.94,31-23,44.73-39.41a28.75,28.75,0,0,1,27.95-9.68l8.56,1.79a12.73,12.73,0,0,1,5.67,22.12c-22.57,19.34-60.64,41.79-67.74,46.46-17.62,11.58-56.59,27.82-56.59,27.82A10,10,0,0,1,2458.85,1602.91Z" transform="translate(-773.39 -591.03)"/><path class="cls-14" d="M2558.48,1491.43c13,.73,21.51-10,21.51-10a102.68,102.68,0,0,1-9.11-5.66l-11.18,5.67A93.31,93.31,0,0,0,2558.48,1491.43Z" transform="translate(-773.39 -591.03)"/><path class="cls-11" d="M2552.93,1478.05s19.74,14.17,28.38,1.74,17-19,4.75-28.55-18-6.55-21.9-3.1S2548,1474,2552.93,1478.05Z" transform="translate(-773.39 -591.03)"/><path class="cls-9" d="M2562.07,1436.91a31.62,31.62,0,0,1,2.31-8.14s1.23,5.13,10.61,4.43,24.25.92,29.21,11.61c.31.68.59,1.38.84,2.09a24.74,24.74,0,0,0,1.12-5.92c1.78,4.61,0,10.36,0,10.36h0c0,.17.05.34.07.51,2.07,1.75,3.81,7.19,3.81,7.19a6.53,6.53,0,0,0-3.51-3.12c0,8.32-3.33,16.45-9.25,18.87-8.66,3.54-8.59.84-17.29,6.61,0,0-2.34-2.89-.75-4.84s7.61-4.78,4.25-7.61-4.6.35-5.84-1.6,5-7.61-3-12.92S2561.37,1441.69,2562.07,1436.91Z" transform="translate(-773.39 -591.03)"/><path class="cls-7" d="M2638.51,1819.44h-85.34c-4.57-3.88,3.17-12.69,11.25-13.28,3.51-.26,7.95.47,13,1.54,1.17-15.59,7.88-85.71,33.15-82.89,28.42,3.15,0,30.88-8,47.29-6,12.16-12.23,29.59-15.1,37.82,2.31.5,4.7,1,7.13,1.44,3.77-11.57,17.79-50.47,35.61-48.2,20.93,2.65,12.51,18.25-2.32,27.51-10.88,6.81-24.24,16.48-30.59,21.16a89.84,89.84,0,0,0,16.69,1.33C2628.61,1812.82,2635.74,1817.13,2638.51,1819.44Z" transform="translate(-773.39 -591.03)"/><path class="cls-6" d="M1118.62,1375.06l-.06,1.17-.38-1.14c-2-6.19-11.82-36.76-20.75-70.8-12.36-47.1-23-100.83-9-105.8,26.58-9.41,31.48,65.83,31.55,121.36C1120,1347.21,1118.91,1369.77,1118.62,1375.06Z" transform="translate(-773.39 -591.03)"/><path class="cls-6" d="M1144.63,1313.91c-9.6,21.31-17.94,39.23-22.72,50-2.08,4.68-3.49,8-4,9.62.46-2.65,1.72-9.77,3.51-19.9h0c2.68-15.17,6.58-37.09,10.86-60.89,10.39-57.85,23-126.77,26-136.62,5.2-17.38,29.19-54.39,45.34-22.19C1214.06,1154.81,1173.58,1249.69,1144.63,1313.91Z" transform="translate(-773.39 -591.03)"/><path class="cls-6" d="M1146.57,1344.31c-9.93,10.47-18.27,19-22.93,23.67-2.55,2.57-4,4-4,4s2.54-5.42,6.87-14.07c4.1-8.18,9.78-19.24,16.42-31.34,21.77-39.67,53.83-90.52,73.7-87.58C1239.31,1242.34,1182.55,1306.33,1146.57,1344.31Z" transform="translate(-773.39 -591.03)"/><path class="cls-7" d="M1118.62,1375.06l-.44,0c-2-6.19-11.82-36.76-20.75-70.8,4.16,6.24,11.7,14.6,22.56,15.56C1120,1347.21,1118.91,1369.77,1118.62,1375.06Z" transform="translate(-773.39 -591.03)"/><path class="cls-7" d="M1144.63,1313.91c-9.6,21.31-17.94,39.23-22.72,50a88.09,88.09,0,0,1-.52-10.28h0c2.68-15.17,6.58-37.09,10.86-60.89C1133.92,1301,1137.4,1310.21,1144.63,1313.91Z" transform="translate(-773.39 -591.03)"/><path class="cls-7" d="M1146.57,1344.31c-9.93,10.47-18.27,19-22.93,23.67a62.9,62.9,0,0,1,2.87-10.07c4.1-8.18,9.78-19.24,16.42-31.34C1143.09,1331.64,1143.81,1339.2,1146.57,1344.31Z" transform="translate(-773.39 -591.03)"/><path class="cls-6" d="M1117.87,1373.51l-.2,1.14C1117.57,1374.59,1117.64,1374.21,1117.87,1373.51Z" transform="translate(-773.39 -591.03)"/><path class="cls-3" d="M1131.2,1450c-16.65,47.18-37.39,98.62-37.39,98.62l-46.84-14s5.48-34.94,13.53-73.82c9.39-45.34,14.75-91.08,34-103a36.37,36.37,0,0,1,16.62-5.2,40.34,40.34,0,0,1,8.38.24c.66.09,1.3.19,2,.3a44.51,44.51,0,0,1,4.79,1.13c.61.18,1.21.37,1.81.58a45.2,45.2,0,0,1,6,2.52c8.11,4.13,14.65,10.33,17.21,17C1159,1394.55,1143.79,1414.36,1131.2,1450Z" transform="translate(-773.39 -591.03)"/><path class="cls-15" d="M1108.31,1507.79c-12.31,37.34-16,78.31-10.91,122a24.46,24.46,0,0,0,19.62,21.12c7.23,0,21.49-13.19,29.65-30a62.77,62.77,0,0,0,5.07-14.46c8.18-38.8,23.32-85.51,42.11-109.39,19.21-24.42,45.09-53.6,80.67-73.68h0c3.43-2,84.16-60.76,84.16-60.76,8-8.49-1.48-18-1.48-18s-7.67,6.72-31.06,20.19-64.46-2.32-64.47-2.32a39.17,39.17,0,0,0-36.48,2.19,289.46,289.46,0,0,0-62.72,51.34A252.17,252.17,0,0,0,1108.31,1507.79Z" transform="translate(-773.39 -591.03)"/><path class="cls-16" d="M1151.74,1606.51c8.18-38.8,23.32-85.51,42.11-109.39,19.21-24.42,45.09-53.6,80.67-73.68h0c.62-.46,24.69-18.2-2-34.28-26.11-15.73-132.68,101.45-125.87,231.81A62.77,62.77,0,0,0,1151.74,1606.51Z" transform="translate(-773.39 -591.03)"/><path class="cls-6" d="M1054,1454.78a86.93,86.93,0,0,1-12.39,15.23c-18.5,18.23-47.55,31.75-84.94,31.39,0,0-15.69-15-23.3-34h0c-5.27-13.2-9.12-32.65,0-47.09a36.28,36.28,0,0,1,21.11-16c13-4,26.34-1.92,32.16-7.72a57.76,57.76,0,0,1,22.87-13.49c1.46-.47,3-.89,4.45-1.23h0c.63-.14,1.24-.28,1.87-.4h0c13.83-2.7,28.59,0,38.86,12.27a44.29,44.29,0,0,1,6.39,10.46C1067.73,1419,1064.9,1437.7,1054,1454.78Z" transform="translate(-773.39 -591.03)"/><path class="cls-17" d="M945.28,1418.16s-12.34,9.69-8.56,20.41,13.53,5.76,16.58-1.66S953.39,1414.57,945.28,1418.16Z" transform="translate(-773.39 -591.03)"/><path class="cls-8" d="M1054.76,1393.7a44.29,44.29,0,0,1,6.39,10.46c6.58,14.79,15.61,54,4.74,71.09l-14.59,13.34c-18.5,18.22-57.22,13.16-94.6,12.81,0,0-15.7-15-23.31-34h0s46.25,18.3,89.82-19.9C1043,1430.14,1051.43,1410.25,1054.76,1393.7Z" transform="translate(-773.39 -591.03)"/><path class="cls-6" d="M984.22,1374.19c-7.63-4.54-15.36,1.84-24.32,5.35s-26.23,3.44-26.23,3.44a125.29,125.29,0,0,1,18.73-20.37C964,1352.46,984.22,1374.19,984.22,1374.19Z" transform="translate(-773.39 -591.03)"/><path class="cls-7" d="M984.22,1374.19c-7.17-5.89-20.44-9.26-26.92-6.61s-23.63,15.4-23.63,15.4a125.29,125.29,0,0,1,18.73-20.37C964,1352.46,984.22,1374.19,984.22,1374.19Z" transform="translate(-773.39 -591.03)"/><path class="cls-8" d="M986.66,1396.56a57.76,57.76,0,0,1,22.87-13.49c-15.25,5.71-23.66,25-29.45,22.8-6.2-2.41-24.87-1.62-25.58-1.59C967.52,1400.32,980.84,1402.36,986.66,1396.56Z" transform="translate(-773.39 -591.03)"/><path class="cls-8" d="M1015.86,1381.44c-.48.13-1.1.27-1.87.4C1014.62,1381.7,1015.23,1381.56,1015.86,1381.44Z" transform="translate(-773.39 -591.03)"/><path class="cls-7" d="M981.16,1405.48h0c-4.89-10.8-2.25-24.21.83-33.55a212.29,212.29,0,0,1,9.46-22.24,1.25,1.25,0,0,1,2.3.16l.93,2.82a10.17,10.17,0,0,1-.95,8.45c-4.72,7.81-14.21,26.07-9.94,41.11C984.27,1403.92,982,1407.42,981.16,1405.48Z" transform="translate(-773.39 -591.03)"/><path class="cls-10" d="M1081.82,1454.18l-1.52-.61c6.73-10,17.18-16.89,25.41-20.07a66.44,66.44,0,0,1,15-4,1.45,1.45,0,0,1,1.32.51l1.28,1.48a1.26,1.26,0,0,1-.77,2C1115.21,1434.63,1092,1439.05,1081.82,1454.18Z" transform="translate(-773.39 -591.03)"/><path class="cls-18" d="M1053.17,1457.05c7.72-19.3,18.59-14.94,32-9.58s24.28,9.72,16.56,29c-5.54,13.82-20.9,20.68-34.31,15.31S1047.63,1470.87,1053.17,1457.05Z" transform="translate(-773.39 -591.03)"/><path class="cls-19" d="M1061.3,1453.06c.49-3.46,6-7.1,9.51-6.62s5.07,4.35,4.58,7.81-5.24,6.43-8.7,6A6.33,6.33,0,0,1,1061.3,1453.06Z" transform="translate(-773.39 -591.03)"/><path class="cls-20" d="M1239.32,1461.91l41.41,295a60.8,60.8,0,0,1-60.22,69.26h-62.39a52.92,52.92,0,0,1-52.61-58.68l35-274.42Z" transform="translate(-773.39 -591.03)"/><path class="cls-20" d="M1021.83,1461.91s100.38,34.22,217.49,0l-34.51,365.21H986.27Z" transform="translate(-773.39 -591.03)"/><path class="cls-21" d="M1021.83,1461.91l41.41,295.76a60.92,60.92,0,0,1-60.22,69.45h-62.4A53,53,0,0,1,888,1768.28l29.67-306.37s14.61,2.85,50.16,2.85C1003.05,1464.76,1021.83,1461.91,1021.83,1461.91Z" transform="translate(-773.39 -591.03)"/><path class="cls-3" d="M1207.57,1494.8a7.78,7.78,0,1,0-11.68,6.71c3.3,26.18-1.9,47.57-14.88,60.67-11.8,11.92-29.69,16.33-51.75,12.77-19.39-3.13-32.15-24.59-39.45-42a202.31,202.31,0,0,1-10.14-32.25,7.77,7.77,0,1,0-8.94.89c4.18,19.18,19.66,76.13,57.12,82.18a98.43,98.43,0,0,0,15.69,1.31c18,0,32.92-5.62,43.79-16.6,14.88-15,21-38.88,17.43-67.66A7.79,7.79,0,0,0,1207.57,1494.8Z" transform="translate(-773.39 -591.03)"/><path class="cls-15" d="M1240.17,1733.46a203.42,203.42,0,0,0,9,32.28c27.19,71.64,83.86,56.19,139.19,56.19,62.45,0,62.33-41.83,62.33-98.38s-34.6-101.49-97-101.49S1229.13,1678,1240.17,1733.46Z" transform="translate(-773.39 -591.03)"/><path class="cls-16" d="M1488.69,1741.93c.39-57.29-41.27-103.32-96.89-118.6-56.76-15.59-103.89,22.55-103.81,78.11.09,55.82,48.21,111.11,105.78,118.54C1449.45,1827.16,1488.31,1797.66,1488.69,1741.93Z" transform="translate(-773.39 -591.03)"/><path class="cls-22" d="M1483.69,1740.55c.37-54.44-39.21-98.17-92.06-112.69-53.93-14.81-98.72,21.42-98.64,74.22.09,53,45.81,105.57,100.51,112.62C1446.4,1821.53,1483.33,1793.5,1483.69,1740.55Z" transform="translate(-773.39 -591.03)"/><path class="cls-15" d="M1387.44,1708.67l15.47-58.22c1.15-4.33-2.22-9.44-6.92-10.46a122.23,122.23,0,0,0-45.47-1.5c-4.37.67-6.11,5.57-3.54,9.91l35.69,60.17C1384,1710.72,1386.88,1710.78,1387.44,1708.67Z" transform="translate(-773.39 -591.03)"/><path class="cls-15" d="M1400.84,1726.54l58,36.24c4.32,2.7,9.25,1,10.1-3.42a117.32,117.32,0,0,0,2.09-21.54,146,146,0,0,0-2.13-24.53c-.81-4.71-5.7-8.21-9.9-7.09l-58.21,15.48C1398.69,1722.24,1398.73,1725.22,1400.84,1726.54Z" transform="translate(-773.39 -591.03)"/><path class="cls-15" d="M1397.26,1715.76l57.36-15.26c4.27-1.13,5.61-6.29,2.74-10.57a164.2,164.2,0,0,0-14.9-19.13,184.6,184.6,0,0,0-19.36-18.31c-3.92-3.21-9.09-2.28-10.47,1.87l-19,57.5A3.21,3.21,0,0,0,1397.26,1715.76Z" transform="translate(-773.39 -591.03)"/><path class="cls-15" d="M1391.74,1731.92l17.74,64c1.32,4.77,6.48,7.9,10.59,6.4a96.05,96.05,0,0,0,18.23-8.83,104.14,104.14,0,0,0,17.23-13.67c3-2.95,1.83-8.57-2.34-11.38l-57.76-39C1393.36,1728.11,1391.09,1729.6,1391.74,1731.92Z" transform="translate(-773.39 -591.03)"/><path class="cls-15" d="M1377.66,1710.42,1338.91,1653c-2.88-4.27-8.47-5.43-11.44-2.38a94,94,0,0,0-12.42,15.8,111.42,111.42,0,0,0-9.77,20.25c-1.49,4.09,1.57,9.28,6.18,10.51l63.92,17C1377.67,1714.85,1379.07,1712.5,1377.66,1710.42Z" transform="translate(-773.39 -591.03)"/><path class="cls-15" d="M1375.36,1719.49l-63.13-11c-4.7-.81-8.1,3-7,7.74a147.51,147.51,0,0,0,7.19,22.23,176.82,176.82,0,0,0,11.93,23.39c2.62,4.31,8.13,5.68,11.15,2.77l41.88-40.37C1378.92,1722.83,1377.66,1719.89,1375.36,1719.49Z" transform="translate(-773.39 -591.03)"/><path class="cls-15" d="M1381,1729.28l-34,46.56c-2.54,3.47-.74,9.11,3.68,11.56a149.46,149.46,0,0,0,21.31,9.76,153.46,153.46,0,0,0,24.14,6.5c4.63.84,7.94-2.94,6.71-7.63l-17-65.09C1385.21,1728.61,1382.27,1727.59,1381,1729.28Z" transform="translate(-773.39 -591.03)"/><path class="cls-23" d="M1240.9,1435.58c.25-1-22.58,10.42-23.74,11.72-10.71,12-7.65,27.66-1.53,27.81,3.93.09,3.17,6.69,3.17,6.69l43.78-18.7S1257.31,1432,1240.9,1435.58Z" transform="translate(-773.39 -591.03)"/><path class="cls-23" d="M1246.29,1438s1.56-17.23-17.49-17.23c0,0,5.77,1.58,8.76,4.75,0,0-12.16-7.21-25.38,3.87s-5,38.85-9,44.12-19.68,6.33-17.77,23.38,49.72,38.41,46.65,52.52c0,0,18.73-27.81,5.33-40.5,0,0,6.53,6.21,7.2,13.59,0,0,1.77-14.41-7.31-19-8-4.08-14.62-19-13.93-21.67S1246.29,1438,1246.29,1438Z" transform="translate(-773.39 -591.03)"/><path class="cls-24" d="M1229,1519.05c-2.94-14.29-21.28-18.72-30-7a15.5,15.5,0,0,0-3,7.51c-2,16.22,23.7,82.31,27.38,88.29,6.69,10.9,46.12,48.24,46.12,48.24l7.27-4.45s-28-47.82-32.3-52.3C1239.46,1594.12,1234.56,1546.19,1229,1519.05Z" transform="translate(-773.39 -591.03)"/><path class="cls-24" d="M1266.74,1651.61s10.6-7,14.62-6.58,15.63,3.83,15.77,5.56-12.94,2.8-13.82,3.74-9.77,6.94-13,5.06S1266.74,1651.61,1266.74,1651.61Z" transform="translate(-773.39 -591.03)"/><path class="cls-25" d="M1192.76,1810.52l-9.48-1.41s-31.85-25.57-36.6-73.28a86.47,86.47,0,0,1-.22-14.76,2.64,2.64,0,0,0-.33-1.63h0c-1-1.58-3.56-5.53-7-11.16s-9.18-16-15.55-27.78c-11.49-21.17-24.86-46.49-29.45-54.56-14.62-25.7-7.57-43-7.57-43s40.77-4.07,51.94-13.94l4,6.26s8.83,39.51,8.41,39.69l1.33,4.11c7,21.73,15,48.9,19.36,71,2.46,12.45,3.76,23.29,3.06,30.68a55.08,55.08,0,0,0,.72,11.25C1179.35,1760.37,1192.76,1810.52,1192.76,1810.52Z" transform="translate(-773.39 -591.03)"/><path class="cls-9" d="M1212.63,1822.63h-39.52s-.95-6.09,1.11-10.7c2-4.43,4.8-4.57.36-11.52,2.52,2.61,10.59,3.69,16.3,2.92.7,1.14,4.52,8.84,6.86,10.53C1200.32,1815.74,1211.84,1815.07,1212.63,1822.63Z" transform="translate(-773.39 -591.03)"/><path class="cls-3" d="M1152.26,1619.06c-3.45,19.23-11.61,51.25-28.69,61.43-11.49-21.17-24.86-46.49-29.45-54.56-14.62-25.7-7.57-43-7.57-43s40.77-4.07,51.94-13.94l4,6.26s8.83,39.51,8.41,39.69Z" transform="translate(-773.39 -591.03)"/><path class="cls-12" d="M1224.75,1510.18a42.84,42.84,0,0,1,8.15,12.91s-8.92,25.86-29.76,29.1C1203.14,1552.19,1219.63,1510.17,1224.75,1510.18Z" transform="translate(-773.39 -591.03)"/><path class="cls-25" d="M1124.54,1585.91l.13-7.46c-14.73,1.87-50.79-17.78-50.79-17.78s-15.4,10.35-17.51,39.91c-1,14.44-7.55,75.47-8.27,93.69-.26,6.6-.35,11.32-.38,13.2a0,0,0,0,1,0,0,2.56,2.56,0,0,1-.62,1.54,85,85,0,0,0-8,12.36c-22.48,42.24-10.73,99.63-10.73,99.63l5.22-1.34s19-59.5,31.43-85.24a54.11,54.11,0,0,1,5.62-9.72c4.67-5.73,9.6-15.46,14.45-27.17,9.18-22.14,18.09-51.36,24.44-74C1110,1623.66,1124.54,1585.91,1124.54,1585.91Z" transform="translate(-773.39 -591.03)"/><path class="cls-26" d="M1210.73,1536.07c-24.07-5.58-8.69-39.76-7.3-39.16,3.34-.68,10.67-6.6,17.22-18.16l.89.78,14.79,13.1s-3.42,5.09-6.3,10.08c-2.24,3.91-4.15,7.76-3.85,9.08C1227.37,1512.73,1217.16,1537.56,1210.73,1536.07Z" transform="translate(-773.39 -591.03)"/><path class="cls-24" d="M1236.33,1492.63s-3.42,5.09-6.3,10.08c-9.19-5.72-9.2-17.22-8.49-23.18Z" transform="translate(-773.39 -591.03)"/><path class="cls-26" d="M1236.74,1499.19s-22.33-12.55-14.38-26.47,10.43-24.92,25-17.5,14.3,14.34,12.76,19.63S1242.75,1502.1,1236.74,1499.19Z" transform="translate(-773.39 -591.03)"/><path class="cls-23" d="M1263.91,1466.73c-1-6.18-4.13-6.77-6.29-6.36-8.25-13.77-21.72-8.39-21.72-8.39a30.27,30.27,0,0,1-17.6,10.67s2.59,4.87,13.27,7.89c3.26.92,7,.36,10.53-.85a59.09,59.09,0,0,1-15.15,5.76c14.07,1.3,27.45-11.69,28.84-13.08.65,2,1.79,6.23,1.1,9.31-.92,4.19-4.6,11.77-2.36,12.76C1254.53,1484.44,1265.45,1476,1263.91,1466.73Z" transform="translate(-773.39 -591.03)"/><path class="cls-9" d="M1059.83,1822.63H1020.3s-.95-6.09,1.12-10.7c2-4.43,5.07-6.45,4.33-11.81,2.51,2.62,6.61,5.54,12.32,4.76.7,1.15,4.52,7.29,6.86,9C1047.51,1815.74,1059,1815.07,1059.83,1822.63Z" transform="translate(-773.39 -591.03)"/><path class="cls-12" d="M1213.57,1563.17c-5.09,1.79-12.23,2.77-19.53,3.57-10.39,1.15-21.12,1.94-26.75,4.2-2,.83-3.42,1.85-3.85,3.15-2.43,7.4-13.17,18.82-13.17,18.82-68.83-3.16-76.39-32.24-76.39-32.24,46.31-54.4,124.72-70.14,124.72-70.14s5.6-2.4,19.71,8.92c9.41,7.56,8.17,10.46,8.17,10.46S1228.53,1557.9,1213.57,1563.17Z" transform="translate(-773.39 -591.03)"/><path class="cls-13" d="M1194,1566.74c-10.39,1.15-21.12,1.94-26.75,4.2-2.29-34.68,13.91-60.76,13.91-60.76S1191.76,1553.62,1194,1566.74Z" transform="translate(-773.39 -591.03)"/><path class="cls-26" d="M1204.74,1503.47s-26,2.6-28.14,19.7,25,86.74,28.85,93c7.06,11.48,48.6,50.84,48.6,50.84l7.66-4.69s-29.47-50.4-34-55.11C1220.51,1599.84,1213.56,1509.4,1204.74,1503.47Z" transform="translate(-773.39 -591.03)"/><path class="cls-12" d="M1177.35,1533.46c.07.39,24,7.91,39.47,0,0,0,3.3-36-15.12-34s-29.32,7.81-29.79,16.72S1177.35,1533.46,1177.35,1533.46Z" transform="translate(-773.39 -591.03)"/><path class="cls-26" d="M1251.69,1662.05s9.34-8.67,13.38-8.88,16,1.24,16.45,2.92-12.33,4.87-13,5.94-8.54,8.44-12,7.11S1251.69,1662.05,1251.69,1662.05Z" transform="translate(-773.39 -591.03)"/><rect class="cls-27" x="15.47" y="1228.81" width="2188.44" height="5.81" rx="2.03"/><path class="cls-7" d="M2654.85,1452.48" transform="translate(-773.39 -591.03)"/><path class="cls-7" d="M827.34,1819.48h85.34c4.57-3.88-3.16-12.69-11.25-13.28-3.51-.27-7.95.47-13,1.54-1.18-15.6-7.89-85.71-33.16-82.9-28.42,3.16,0,30.88,8,47.29,6,12.16,12.23,29.6,15.1,37.83-2.31.49-4.69,1-7.13,1.43-3.77-11.56-17.79-50.46-35.61-48.2-20.92,2.66-12.51,18.26,2.32,27.51,10.88,6.81,24.24,16.49,30.59,21.16a90.7,90.7,0,0,1-16.69,1.34C837.24,1812.85,830.11,1817.16,827.34,1819.48Z" transform="translate(-773.39 -591.03)"/></g></svg>