<svg xmlns="http://www.w3.org/2000/svg" xmlns:xlink="http://www.w3.org/1999/xlink" viewBox="0 0 2451.07 1311.6"><defs><style>.cls-1{fill:url(#Безымянный_градиент_108);}.cls-2{fill:#d9e9fe;}.cls-3{fill:#a8d29f;}.cls-4{fill:#82b378;}.cls-5{fill:#ed7d2b;}.cls-6{fill:#ffb93e;}.cls-7{fill:#ffa412;}.cls-8{fill:#d1f2c9;}.cls-9{fill:#95c38b;}.cls-10{fill:#2b478b;}.cls-11{fill:#699dee;}.cls-12{fill:#92beff;}.cls-13{fill:#fcecdb;}.cls-14{fill:#efcbab;}.cls-15{fill:#ffb583;}.cls-16{fill:#ea6c2d;}.cls-17{fill:#233862;}.cls-18{fill:#ffb07b;}.cls-19{fill:#2a4e96;}.cls-20{fill:#1e3d70;}.cls-21{fill:#ea8e50;}.cls-22{fill:#ffda9f;}.cls-23{fill:#2c3a64;}.cls-24{fill:#ed985f;}.cls-25{fill:#f99746;}.cls-26{fill:#ffb27d;}.cls-27{fill:#2e3552;}</style><linearGradient id="Безымянный_градиент_108" x1="3180.18" y1="-133.81" x2="3180.18" y2="-133.81" gradientUnits="userSpaceOnUse"><stop offset="0" stop-color="#7094fb"/><stop offset="1" stop-color="#f31e61"/></linearGradient></defs><title>form-login</title><g id="_Layer_" data-name="&lt;Layer&gt;"><path class="cls-1" d="M3180.18-133.81" transform="translate(-619.79 -514.6)"/><path class="cls-2" d="M808.18,1825.55s-290.9-312.34-49.2-650.49c214.46-300,464.5-279.52,648-157.77,78.13,51.86,303.4,6.39,495.13-298.9,261.47-416.33,1167.81-163.82,1002.56,476.72-80,310,243.38,321.24,78.62,631.09Z" transform="translate(-619.79 -514.6)"/></g><g id="Слой_1" data-name="Слой 1"><path class="cls-3" d="M1036.59,1004c-.07,1.39-.12,2.12-.12,2.12l-.67-2.06c-3.63-11.18-21.34-66.36-37.46-127.8-22.3-85-41.55-182-16.22-190.94,48-17,56.82,118.82,56.95,219C1039.15,953.74,1037.11,994.46,1036.59,1004Z" transform="translate(-619.79 -514.6)"/><path class="cls-3" d="M1083.53,893.64c-17.33,38.46-32.37,70.81-41,90.19-3.76,8.45-6.3,14.42-7.28,17.36.84-4.78,3.1-17.63,6.33-35.9v0c4.85-27.38,11.89-66.94,19.61-109.9,18.74-104.4,41.55-228.8,46.88-246.58,9.4-31.38,52.7-98.16,81.85-40C1208.85,606.49,1135.78,777.73,1083.53,893.64Z" transform="translate(-619.79 -514.6)"/><path class="cls-3" d="M1087,948.51c-17.92,18.91-33,34.24-41.39,42.71-4.6,4.65-7.21,7.23-7.21,7.23s4.59-9.78,12.4-25.4c7.39-14.75,17.65-34.72,29.64-56.56,39.29-71.6,97.14-163.37,133-158.07C1254.42,764.47,1152,880,1087,948.51Z" transform="translate(-619.79 -514.6)"/><path class="cls-4" d="M1036.59,1004l-.79.06c-3.63-11.18-21.34-66.36-37.46-127.8,7.51,11.27,21.11,26.37,40.73,28.09C1039.15,953.74,1037.11,994.46,1036.59,1004Z" transform="translate(-619.79 -514.6)"/><path class="cls-4" d="M1083.53,893.64c-17.33,38.46-32.37,70.81-41,90.19a156.39,156.39,0,0,1-1-18.54v0c4.85-27.38,11.89-66.94,19.61-109.9C1064.2,870.36,1070.49,887,1083.53,893.64Z" transform="translate(-619.79 -514.6)"/><path class="cls-4" d="M1087,948.51c-17.92,18.91-33,34.24-41.39,42.71a114,114,0,0,1,5.19-18.17c7.39-14.75,17.65-34.72,29.64-56.56C1080.75,925.65,1082.05,939.29,1087,948.51Z" transform="translate(-619.79 -514.6)"/><path class="cls-3" d="M1035.24,1001.22c-.24,1.34-.36,2-.36,2C1034.7,1003.17,1034.82,1002.47,1035.24,1001.22Z" transform="translate(-619.79 -514.6)"/><path class="cls-5" d="M1059.3,1139.27c-30.06,85.15-67.49,178-67.49,178l-84.55-25.34s9.9-63.06,24.43-133.24c16.95-81.82,26.63-164.38,61.39-185.85a65.65,65.65,0,0,1,30-9.4,74.08,74.08,0,0,1,15.13.44c1.18.16,2.34.34,3.52.54a80.26,80.26,0,0,1,8.63,2.05c1.1.31,2.19.66,3.26,1a81.59,81.59,0,0,1,10.81,4.55c14.64,7.44,26.43,18.64,31,30.75C1109.38,1039.19,1082,1074.94,1059.3,1139.27Z" transform="translate(-619.79 -514.6)"/><path class="cls-6" d="M1018,1243.58c-22.21,67.38-28.81,141.32-19.69,220.21a44.09,44.09,0,0,0,35.4,38.12c13.06-.07,38.8-23.79,53.52-54.06a113.84,113.84,0,0,0,9.16-26.11c14.76-70,42.09-154.34,76-197.43,34.67-44.07,81.38-96.75,145.6-133l0,0c6.2-3.55,151.9-109.65,151.9-109.65,14.5-15.33-2.67-32.5-2.67-32.5s-13.84,12.14-56,36.45-116.35-4.19-116.38-4.19a70.67,70.67,0,0,0-65.82,4,522.58,522.58,0,0,0-113.2,92.67C1071,1126.89,1038.11,1182.58,1018,1243.58Z" transform="translate(-619.79 -514.6)"/><path class="cls-7" d="M1096.37,1421.74c14.76-70,42.09-154.34,76-197.43,34.67-44.07,81.38-96.75,145.6-133l0,0c1.12-.81,44.56-32.85-3.59-61.86-47.12-28.39-239.46,183.11-227.18,418.39A113.84,113.84,0,0,0,1096.37,1421.74Z" transform="translate(-619.79 -514.6)"/><path class="cls-3" d="M920,1147.89a156.62,156.62,0,0,1-22.37,27.49c-33.39,32.9-85.82,57.3-153.3,56.66,0,0-28.33-27-42.06-61.37h0c-9.52-23.84-16.48-58.94,0-85,10.61-16.78,24.26-24.73,38.1-28.92,23.5-7.14,47.54-3.46,58-13.93,10.36-10.32,25.1-19.23,41.28-24.36,2.64-.84,5.33-1.59,8-2.2h0c1.12-.27,2.24-.52,3.38-.74h.07c24.95-4.87,51.6-.1,70.14,22.15a79.77,79.77,0,0,1,11.52,18.87C944.73,1083.22,939.63,1117.07,920,1147.89Z" transform="translate(-619.79 -514.6)"/><path class="cls-8" d="M723.73,1081.81s-22.27,17.48-15.44,36.82,24.42,10.41,29.92-3S738.37,1075.31,723.73,1081.81Z" transform="translate(-619.79 -514.6)"/><path class="cls-9" d="M921.33,1037.65a80.14,80.14,0,0,1,11.53,18.89c11.87,26.69,28.17,97.48,8.55,128.3l-26.32,24.07c-33.39,32.9-103.28,23.77-170.75,23.13,0,0-28.33-27-42.07-61.37h0s83.47,33,162.1-35.92C900.08,1103.42,915.32,1067.52,921.33,1037.65Z" transform="translate(-619.79 -514.6)"/><path class="cls-3" d="M794,1002.45c-13.78-8.21-27.72,3.32-43.91,9.64s-47.34,6.21-47.34,6.21a225.91,225.91,0,0,1,33.81-36.76C757.58,963.22,794,1002.45,794,1002.45Z" transform="translate(-619.79 -514.6)"/><path class="cls-4" d="M794,1002.45c-12.95-10.63-36.9-16.73-48.59-12s-42.66,27.8-42.66,27.8a225.91,225.91,0,0,1,33.81-36.76C757.58,963.22,794,1002.45,794,1002.45Z" transform="translate(-619.79 -514.6)"/><path class="cls-9" d="M798.41,1042.82c10.36-10.32,25.1-19.23,41.28-24.36-27.52,10.32-42.7,45.2-53.14,41.16-11.21-4.35-44.9-2.93-46.18-2.87C763.87,1049.61,787.91,1053.29,798.41,1042.82Z" transform="translate(-619.79 -514.6)"/><path class="cls-9" d="M851.13,1015.52c-.87.25-2,.49-3.38.74C848.87,1016,850,1015.74,851.13,1015.52Z" transform="translate(-619.79 -514.6)"/><path class="cls-4" d="M788.49,1058.92h0c-8.83-19.5-4.06-43.69,1.5-60.55,4.43-13.42,12.91-31.53,17.07-40.14a2.25,2.25,0,0,1,4.16.28l1.67,5.09a18.3,18.3,0,0,1-1.7,15.24c-8.53,14.11-25.67,47.07-18,74.2C794.11,1056.1,790.06,1062.41,788.49,1058.92Z" transform="translate(-619.79 -514.6)"/><path class="cls-10" d="M970.17,1146.82l-2.75-1.1c12.15-18.09,31-30.49,45.86-36.23a120.5,120.5,0,0,1,27.13-7.15,2.66,2.66,0,0,1,2.39.92l2.31,2.68a2.26,2.26,0,0,1-1.39,3.69C1030.44,1111.53,988.52,1119.5,970.17,1146.82Z" transform="translate(-619.79 -514.6)"/><path class="cls-11" d="M918.45,1152c13.94-34.83,33.56-27,57.77-17.28s43.81,17.54,29.87,52.36c-10,25-37.7,37.33-61.91,27.65S908.46,1176.94,918.45,1152Z" transform="translate(-619.79 -514.6)"/><path class="cls-12" d="M933.14,1144.79c.87-6.24,10.91-12.81,17.16-11.94s9.14,7.85,8.27,14.09-9.47,11.6-15.71,10.73A11.4,11.4,0,0,1,933.14,1144.79Z" transform="translate(-619.79 -514.6)"/><path class="cls-13" d="M1254.44,1160.76l74.74,532.45c9.27,66-42,125-108.69,125H1107.87a95.51,95.51,0,0,1-94.95-105.91l63.25-495.3Z" transform="translate(-619.79 -514.6)"/><path class="cls-13" d="M861.89,1160.76s181.17,61.77,392.55,0l-62.28,659.15H797.72Z" transform="translate(-619.79 -514.6)"/><path class="cls-14" d="M861.89,1160.76l74.74,533.81c9.28,66.21-42,125.34-108.69,125.34H715.32c-56.86,0-101.13-49.51-95-106.18l53.54-553s26.38,5.14,90.55,5.14C828,1165.9,861.89,1160.76,861.89,1160.76Z" transform="translate(-619.79 -514.6)"/><path class="cls-5" d="M1197.12,1220.12a14,14,0,1,0-21.07,12.13c6,47.23-3.43,85.84-26.86,109.49-21.29,21.5-53.59,29.47-93.39,23-35-5.65-58-44.38-71.2-75.88a365.88,365.88,0,0,1-18.32-58.2,14,14,0,1,0-16.12,1.6c7.54,34.62,35.48,137.41,103.08,148.32a178.85,178.85,0,0,0,28.33,2.37c32.41,0,59.4-10.16,79-30,26.86-27.12,37.85-70.17,31.46-122.11A14,14,0,0,0,1197.12,1220.12Z" transform="translate(-619.79 -514.6)"/><path class="cls-5" d="M2679.51,1356.53a138.82,138.82,0,0,0,30.63,6.35c41.18,3.89,90.65-8.64,136.46-46.69,0,0,4.33-34.27-5.43-65.44h0c-6.77-21.62-21.58-49.51-47.37-58.15a57.78,57.78,0,0,0-42.18,1.45c-20.07,8.21-34.45,24.13-47.48,22.82-12.83-1.29-27.89.83-41.82,6.35-2.28.89-4.53,1.88-6.73,3h0c-.92.44-1.82.89-2.72,1.38l-.06,0c-19.78,10.58-35.36,28.7-35.64,54.25a70.77,70.77,0,0,0,2.64,19.34C2626.55,1326.07,2648.91,1346.39,2679.51,1356.53Z" transform="translate(-619.79 -514.6)"/><path class="cls-15" d="M2777,1201.92s25-.45,31.09,16.58-10.91,20.74-22.14,14.64S2763.32,1205.64,2777,1201.92Z" transform="translate(-619.79 -514.6)"/><path class="cls-16" d="M2617.15,1281.85a70.4,70.4,0,0,0,2.64,19.35c6.75,24.88,35.06,82.4,65.66,92.55,0,0,60.7,27.88,95.41,14.91,38.75-14.49,62.6-45.11,65.74-92.47,0,0,4.33-34.27-5.43-65.44h0s-38.7,69.13-130.92,65.78C2668.35,1315,2637.91,1298.94,2617.15,1281.85Z" transform="translate(-619.79 -514.6)"/><path class="cls-3" d="M2684.63,1186.8c4.86-13.3,20.82-13.18,35.42-17.87s35.85-22.14,35.85-22.14a199.38,199.38,0,0,0-43.63-6.31C2687.7,1139.65,2684.63,1186.8,2684.63,1186.8Z" transform="translate(-619.79 -514.6)"/><path class="cls-4" d="M2684.63,1186.8c2.94-14.49,15.93-32,26.59-35.25s44.68-4.76,44.68-4.76a199.38,199.38,0,0,0-43.63-6.31C2687.7,1139.65,2684.63,1186.8,2684.63,1186.8Z" transform="translate(-619.79 -514.6)"/><path class="cls-16" d="M2704.13,1216.87c-12.83-1.29-27.89.83-41.82,6.35,24.58-8.28,54.41,7.12,59.3-1.47,5.24-9.22,29.09-27,30-27.7C2731.54,1202.26,2717.16,1218.18,2704.13,1216.87Z" transform="translate(-619.79 -514.6)"/><path class="cls-9" d="M2652.85,1227.58c.73-.32,1.63-.77,2.72-1.38C2654.65,1226.64,2653.75,1227.09,2652.85,1227.58Z" transform="translate(-619.79 -514.6)"/><path class="cls-4" d="M2719.89,1222.36h0c-4.83-18.27-21.58-32.16-34.78-40.59-10.5-6.72-26.4-14.38-34.05-18a2,2,0,0,0-2.68,2.51l1.68,4.41a16.18,16.18,0,0,0,9.67,9.48c13.7,4.9,43.79,17.9,53.64,40.76C2714.48,1223.56,2720.77,1225.62,2719.89,1222.36Z" transform="translate(-619.79 -514.6)"/><path class="cls-17" d="M2615.4,1766.88s-18.36,13.76-46.5,6.49c0,0-22.68-5.17-27.66,6.14,0,0,34.79,17.67,43.6,22.51,6.63,3.64,13.55,9.39,18.45,13.83a9.12,9.12,0,0,0,13.21-1c1.53-1.88,3.28-4.12,5.2-6.72,5.36-7.27,17.86-30.75,17.86-30.75Z" transform="translate(-619.79 -514.6)"/><path class="cls-10" d="M2604.62,1759.89s11.18,25.78,37,21c0,0,52.67-43.49,88.79-88.67,11.73-14.67,21.72-29.52,27.59-43.11,23.95-55.46,88.6-138.18,129.71-180.1l-102.84-37.21s-32.95,66.27-76.78,147.66C2676.49,1638.15,2639.26,1704.65,2604.62,1759.89Z" transform="translate(-619.79 -514.6)"/><path class="cls-17" d="M2708.07,1579.5l22.32,112.76c11.73-14.67,21.72-29.52,27.59-43.11,23.95-55.46,88.6-138.18,129.71-180.1l-102.84-37.21S2751.9,1498.11,2708.07,1579.5Z" transform="translate(-619.79 -514.6)"/><path class="cls-17" d="M2792.14,1781.84s1.12,20.57-23.82,23.31c0,0-14.25.08-14.29,13.17l72.48.23s2.1-5.28,2.61-16.59c.4-8.69-8.41-31.4-8.41-31.4Z" transform="translate(-619.79 -514.6)"/><path class="cls-10" d="M2818.58,1431.84s-45.82,50.35-74.9,141.05c-15.82,49.34,29,173.41,37.74,216.52,0,0,30.07,2.55,50.63-5.4,0,0,1.57-89-10.46-157.66-6.73-38.4,60.32-82.13,89.62-151.53,19.94-47.21-4.31-46.41-34.11-47.54Z" transform="translate(-619.79 -514.6)"/><path class="cls-18" d="M2871.47,1207.24c25.49,14.39,77.67,1.12,77.67,1.12s-21.19-24.23-11.56-63.25l-20,10.16-21.5,10.92a178.67,178.67,0,0,0-2.36,19.27c-.24,3.19-.46,6.75-.62,10.64A66.83,66.83,0,0,0,2871.47,1207.24Z" transform="translate(-619.79 -514.6)"/><path class="cls-19" d="M2778,1429.24c0,4.48,5.16,6.63,6.25,6.85,10.29,1.87,39,13,64.85,15.6,21.78,2.28,42,.12,64.21-4.34,2.94-.59,9.84-2.45,10.33-5.27.62-3.08,85.67-173.4,19.55-246.56-1.55-1.72-14.6,1.37-26.54,4.2a49,49,0,0,1-30.16-2.46l-11.2,5.89c-13.75,7.66-39.76,34.87-42.8,56.23-1.55,10.86-7.76,18.9-9.55,28.45q-1,5.31-2.05,10.35-2,9.9-4.18,18.85c-3.89,16.15-8,30-12,42.07-4.29,12.75-8.5,23.36-12.25,32.23-4.88,11.51-9,20.11-11.57,26.69C2779,1422.66,2778,1426.29,2778,1429.24Z" transform="translate(-619.79 -514.6)"/><path class="cls-20" d="M2780.86,1418c120.07-56.57,161.65-165.19,161.65-165.19s-97.55,36-121.62,45.35q-2,9.9-4.18,18.85c-3.89,16.15-8,30-12,42.07-4.29,12.75-8.5,23.36-12.25,32.23C2787.55,1402.84,2783.43,1411.44,2780.86,1418Z" transform="translate(-619.79 -514.6)"/><path class="cls-18" d="M2699.42,1388.13s-16.69-6.84-20.52-6.3-14.45-2.11-13.84,1.37c.42,2.4,14.11,4.93,14.11,4.93s-15.29-3.44-14.11.13c.81,2.46,4.06,12.26,9.12,15.47,6.05,3.83,17,2,29.85.12C2727.61,1400.44,2699.42,1388.13,2699.42,1388.13Z" transform="translate(-619.79 -514.6)"/><path class="cls-19" d="M2702.07,1399.91c-3.84-10-5.59-14.54-5.59-14.54s78.4-63.9,86.39-69.39c5.44-3.73,59.64-44.24,86.06-75.81a55.29,55.29,0,0,1,53.75-18.63l16.46,3.45c19.88,4.17,26.33,29.32,10.92,42.54-43.42,37.22-116.65,80.39-130.3,89.37-33.9,22.29-108.87,53.53-108.87,53.53S2705.08,1407.77,2702.07,1399.91Z" transform="translate(-619.79 -514.6)"/><path class="cls-21" d="M2893.71,1185.46c25.07,1.41,41.37-19.29,41.37-19.29s-11.33-6.28-17.51-10.9l-21.5,10.92A178.67,178.67,0,0,0,2893.71,1185.46Z" transform="translate(-619.79 -514.6)"/><path class="cls-18" d="M2883,1159.73s38,27.25,54.59,3.34,32.7-36.5,9.15-54.92-34.64-12.59-42.13-6S2873.58,1152,2883,1159.73Z" transform="translate(-619.79 -514.6)"/><path class="cls-17" d="M2900.63,1080.59a61.24,61.24,0,0,1,4.42-15.66s2.39,9.87,20.43,8.51,46.64,1.78,56.18,22.34c.6,1.31,1.14,2.65,1.62,4,1.73-4.56,2.14-11.39,2.14-11.39,3.43,8.85,0,19.93,0,19.93h0c0,.32.1.64.14,1,4,3.36,7.33,13.83,7.33,13.83-1.2-2.92-4.13-4.82-6.75-6,.09,16-6.4,31.64-17.79,36.3-16.65,6.81-16.52,1.61-33.27,12.72,0,0-4.49-5.57-1.43-9.32s14.64-9.19,8.17-14.64-8.85.68-11.23-3.06,9.53-14.64-5.79-24.85S2899.27,1089.78,2900.63,1080.59Z" transform="translate(-619.79 -514.6)"/><path class="cls-4" d="M3011.47,1823.18h-85.33c-4.58-3.88,3.16-12.69,11.25-13.28,3.51-.26,8,.47,13,1.54,1.17-15.59,7.88-85.71,33.16-82.89,28.41,3.15,0,30.88-8,47.29-6,12.16-12.23,29.59-15.1,37.82,2.31.5,4.7,1,7.14,1.44,3.77-11.57,17.78-50.47,35.6-48.2,20.93,2.65,12.52,18.25-2.31,27.51-10.88,6.81-24.25,16.48-30.6,21.16a90.77,90.77,0,0,0,16.69,1.34C3001.57,1816.56,3008.71,1820.87,3011.47,1823.18Z" transform="translate(-619.79 -514.6)"/><path class="cls-4" d="M700.33,1819.91h85.34c4.57-3.88-3.17-12.69-11.25-13.28-3.51-.27-7.95.47-13,1.54-1.17-15.6-7.88-85.71-33.15-82.9-28.42,3.16,0,30.88,8,47.3,6,12.15,12.23,29.59,15.1,37.82-2.31.5-4.7,1-7.14,1.44-3.76-11.57-17.78-50.47-35.6-48.21-20.93,2.66-12.52,18.26,2.32,27.51,10.88,6.81,24.24,16.49,30.59,21.17a91.66,91.66,0,0,1-16.69,1.33C710.23,1813.29,703.1,1817.59,700.33,1819.91Z" transform="translate(-619.79 -514.6)"/><path class="cls-6" d="M1158,1688.31a301.7,301.7,0,0,0,13.36,48c40.41,106.47,124.64,83.51,206.86,83.51,92.82,0,92.64-62.17,92.64-146.21s-51.42-150.84-144.24-150.84S1141.55,1605.88,1158,1688.31Z" transform="translate(-619.79 -514.6)"/><path class="cls-7" d="M1527.32,1700.9c.57-85.14-61.34-153.55-144-176.26-84.35-23.17-154.4,33.51-154.27,116.09.13,83,71.64,165.12,157.2,176.16C1469,1827.57,1526.75,1783.72,1527.32,1700.9Z" transform="translate(-619.79 -514.6)"/><path class="cls-22" d="M1519.89,1698.85c.54-80.91-58.28-145.91-136.83-167.48-80.15-22-146.72,31.83-146.59,110.3.12,78.83,68.07,156.9,149.36,167.39C1464.47,1819.21,1519.35,1777.54,1519.89,1698.85Z" transform="translate(-619.79 -514.6)"/><path class="cls-6" d="M1376.83,1651.46l23-86.51c1.71-6.44-3.3-14-10.28-15.55a181.74,181.74,0,0,0-67.58-2.23c-6.49,1-9.08,8.27-5.26,14.73l53,89.41C1371.64,1654.52,1376,1654.61,1376.83,1651.46Z" transform="translate(-619.79 -514.6)"/><path class="cls-6" d="M1396.74,1678l86.2,53.87c6.41,4,13.74,1.53,15-5.09a173.38,173.38,0,0,0,3.11-32,217.06,217.06,0,0,0-3.16-36.46c-1.21-7-8.48-12.21-14.72-10.55l-86.51,23C1393.56,1671.63,1393.61,1676.07,1396.74,1678Z" transform="translate(-619.79 -514.6)"/><path class="cls-6" d="M1391.43,1662l85.24-22.68c6.35-1.68,8.35-9.35,4.09-15.71a245.34,245.34,0,0,0-22.16-28.43,274.45,274.45,0,0,0-28.76-27.22c-5.84-4.76-13.52-3.39-15.56,2.78L1386,1656.21C1385,1659.27,1388.33,1662.83,1391.43,1662Z" transform="translate(-619.79 -514.6)"/><path class="cls-6" d="M1383.22,1686l26.37,95.19c2,7.08,9.64,11.73,15.73,9.51a142.2,142.2,0,0,0,27.1-13.13,154.36,154.36,0,0,0,25.6-20.31c4.45-4.38,2.73-12.73-3.46-16.91l-85.85-57.94C1385.64,1680.37,1382.27,1682.57,1383.22,1686Z" transform="translate(-619.79 -514.6)"/><path class="cls-6" d="M1362.3,1654.07l-57.59-85.29c-4.29-6.35-12.59-8.08-17-3.53a139.27,139.27,0,0,0-18.45,23.47,166.23,166.23,0,0,0-14.53,30.1c-2.2,6.08,2.34,13.79,9.19,15.62l95,25.31C1362.31,1660.66,1364.39,1657.17,1362.3,1654.07Z" transform="translate(-619.79 -514.6)"/><path class="cls-6" d="M1358.88,1667.55l-93.82-16.31c-7-1.22-12,4.39-10.34,11.49a217.93,217.93,0,0,0,10.68,33,262.32,262.32,0,0,0,17.72,34.76c3.9,6.42,12.09,8.45,16.58,4.12l62.25-60C1364.17,1672.51,1362.29,1668.14,1358.88,1667.55Z" transform="translate(-619.79 -514.6)"/><path class="cls-6" d="M1367.31,1682.1l-50.6,69.21c-3.76,5.15-1.1,13.52,5.47,17.16a220.59,220.59,0,0,0,31.67,14.51,227.4,227.4,0,0,0,35.89,9.67c6.87,1.24,11.79-4.37,10-11.35l-25.29-96.74C1373.52,1681.1,1369.15,1679.59,1367.31,1682.1Z" transform="translate(-619.79 -514.6)"/><path class="cls-23" d="M1159,1252.84c.38-1.54-33.56,15.34-35.28,17.25-15.91,17.65-11.37,40.69-2.27,40.92,5.84.14,4.71,9.85,4.71,9.85l65.07-27.53S1183.44,1247.65,1159,1252.84Z" transform="translate(-619.79 -514.6)"/><path class="cls-23" d="M1167.05,1256.41s2.32-25.35-26-25.35c0,0,8.58,2.33,13,7,0,0-18.06-10.6-37.72,5.69s-7.44,57.17-13.42,64.93-29.26,9.31-26.41,34.4,73.88,56.51,69.32,77.27c0,0,27.84-40.92,7.93-59.6,0,0,9.71,9.14,10.69,20,0,0,2.64-21.21-10.86-28-11.94-6-21.73-28-20.69-31.88S1167.05,1256.41,1167.05,1256.41Z" transform="translate(-619.79 -514.6)"/><path class="cls-24" d="M1141.33,1375.66c-4.37-21-31.63-27.55-44.54-10.38a22.76,22.76,0,0,0-4.48,11c-3,23.88,35.22,121.11,40.69,129.91,10,16,68.55,71,68.55,71l10.8-6.55s-41.57-70.37-48-77C1156.91,1486.11,1149.62,1415.59,1141.33,1375.66Z" transform="translate(-619.79 -514.6)"/><path class="cls-24" d="M1197.44,1570.7s15.76-10.35,21.73-9.68,23.24,5.63,23.45,8.17-19.24,4.12-20.55,5.51-14.52,10.21-19.3,7.44S1197.44,1570.7,1197.44,1570.7Z" transform="translate(-619.79 -514.6)"/><path class="cls-25" d="M1087.5,1804.51l-14.09-2.07s-47.34-37.63-54.39-107.83a125.71,125.71,0,0,1-.34-21.71,3.79,3.79,0,0,0-.49-2.39v0c-1.52-2.33-5.29-8.15-10.4-16.42s-13.64-23.57-23.12-40.87c-17.07-31.16-36.95-68.41-43.77-80.28-21.72-37.82-11.25-63.25-11.25-63.25s60.6-6,77.21-20.52l6,9.22s13.13,58.13,12.51,58.39q1,3,2,6c10.36,32,22.28,72,28.77,104.51,3.66,18.32,5.59,34.28,4.55,45.15-.36,3.73.08,9.46,1.07,16.54C1067.57,1730.72,1087.5,1804.51,1087.5,1804.51Z" transform="translate(-619.79 -514.6)"/><path class="cls-17" d="M1117,1822.32h-58.74s-1.41-9,1.66-15.74c2.94-6.52,7.13-6.73.53-16.95,3.74,3.85,15.74,5.44,24.23,4.29,1,1.69,6.71,13,10.18,15.51C1098.73,1812.19,1115.85,1811.2,1117,1822.32Z" transform="translate(-619.79 -514.6)"/><path class="cls-5" d="M1027.31,1522.8c-5.14,28.3-17.26,75.41-42.65,90.4-17.07-31.16-36.95-68.41-43.77-80.28-21.72-37.82-11.25-63.25-11.25-63.25s60.6-6,77.21-20.52l6,9.22s13.13,58.13,12.51,58.39Q1026.3,1519.73,1027.31,1522.8Z" transform="translate(-619.79 -514.6)"/><path class="cls-19" d="M1135.05,1362.61s8.3,8.64,12.1,19c0,0-13.25,38.05-44.22,42.82C1102.93,1424.42,1127.43,1362.6,1135.05,1362.61Z" transform="translate(-619.79 -514.6)"/><path class="cls-25" d="M986.1,1474l.2-11c-21.89,2.76-75.48-26.16-75.48-26.16s-22.9,15.23-26,58.73c-1.54,21.24-11.22,111-12.29,137.84-.39,9.72-.52,16.66-.56,19.43v0a3.81,3.81,0,0,1-.93,2.26,125.09,125.09,0,0,0-11.86,18.18c-33.4,62.15-15.94,146.6-15.94,146.6l7.76-2s28.25-87.55,46.71-125.41c3.13-6.43,6-11.42,8.36-14.32,6.94-8.43,14.26-22.74,21.47-40,13.64-32.58,26.88-75.56,36.32-108.84C964.49,1529.57,986.1,1474,986.1,1474Z" transform="translate(-619.79 -514.6)"/><path class="cls-26" d="M1114.21,1400.71c-35.79-8.22-12.92-58.51-10.85-57.62,5-1,15.85-9.72,25.59-26.72l1.32,1.14,22,19.27s-5.08,7.5-9.36,14.84c-3.34,5.74-6.18,11.41-5.73,13.35C1138.93,1366.36,1123.76,1402.9,1114.21,1400.71Z" transform="translate(-619.79 -514.6)"/><path class="cls-24" d="M1152.25,1336.79s-5.08,7.48-9.36,14.83c-13.66-8.42-13.68-25.34-12.63-34.1Z" transform="translate(-619.79 -514.6)"/><path class="cls-26" d="M1152.86,1346.44s-33.18-18.47-21.37-39,15.49-36.67,37.18-25.75,21.25,21.1,19,28.89S1161.79,1350.71,1152.86,1346.44Z" transform="translate(-619.79 -514.6)"/><path class="cls-23" d="M1193.25,1298.68c-1.52-9.09-6.14-10-9.36-9.35-12.26-20.27-32.28-12.36-32.28-12.36a45.17,45.17,0,0,1-26.15,15.71s3.85,7.16,19.71,11.6c4.85,1.35,10.35.53,15.66-1.25a89,89,0,0,1-22.52,8.49c20.91,1.91,40.8-17.2,42.86-19.25,1,3,2.66,9.16,1.64,13.7-1.37,6.16-6.84,17.32-3.5,18.76C1179.31,1324.73,1195.53,1312.33,1193.25,1298.68Z" transform="translate(-619.79 -514.6)"/><path class="cls-17" d="M889.93,1822.32H831.18s-1.4-9,1.66-15.74c2.94-6.52,7.55-9.48,6.45-17.37,3.73,3.84,9.81,8.15,18.31,7,1,1.69,6.71,10.72,10.19,13.22C871.63,1812.19,888.75,1811.2,889.93,1822.32Z" transform="translate(-619.79 -514.6)"/><path class="cls-19" d="M1118.42,1440.57c-7.56,2.64-18.17,4.08-29,5.26-15.45,1.69-31.4,2.84-39.75,6.18-3.05,1.21-5.09,2.71-5.72,4.63-3.62,10.89-19.58,27.69-19.58,27.69-102.3-4.65-113.53-47.44-113.53-47.44,68.83-80,185.36-103.2,185.36-103.2s8.32-3.52,29.28,13.13c14,11.13,12.15,15.39,12.15,15.39S1140.67,1432.81,1118.42,1440.57Z" transform="translate(-619.79 -514.6)"/><path class="cls-20" d="M1089.4,1445.83c-15.45,1.69-31.4,2.84-39.75,6.18-3.42-51,20.66-89.4,20.66-89.4S1086,1426.53,1089.4,1445.83Z" transform="translate(-619.79 -514.6)"/><path class="cls-26" d="M1105.3,1352.74s-38.72,3.83-41.82,29,37.12,127.62,42.88,136.9c10.48,16.89,72.23,74.79,72.23,74.79l11.38-6.9s-43.79-74.15-50.58-81.09C1128.75,1494.53,1118.41,1361.46,1105.3,1352.74Z" transform="translate(-619.79 -514.6)"/><path class="cls-19" d="M1064.6,1396.86c.1.57,35.73,11.64,58.66,0,0,0,4.9-52.9-22.47-50s-43.58,11.49-44.27,24.59S1064.6,1396.86,1064.6,1396.86Z" transform="translate(-619.79 -514.6)"/><path class="cls-26" d="M1175.07,1586.06S1189,1573.3,1195,1573s23.84,1.82,24.46,4.29-18.33,7.17-19.39,8.75-12.68,12.41-17.86,10.45S1175.07,1586.06,1175.07,1586.06Z" transform="translate(-619.79 -514.6)"/><rect class="cls-27" x="59.62" y="1304.7" width="2391.45" height="6.34" rx="2.03"/><path class="cls-4" d="M2654.85,1452.48" transform="translate(-619.79 -514.6)"/></g></svg>