<svg xmlns="http://www.w3.org/2000/svg" xmlns:xlink="http://www.w3.org/1999/xlink" viewBox="0 0 512 512"><defs><linearGradient id="linear-gradient" x1="67.183" y1="473.379" x2="415.245" y2="125.316" gradientUnits="userSpaceOnUse"><stop offset="0" stop-color="#41dfd0"/><stop offset="1" stop-color="#ee83ef"/></linearGradient></defs><g id="gradient"><path d="M409.954,321.326l5.984-47.87a8,8,0,0,0-14.012-6.2l-21.7,25.314L368,278.6V104a8,8,0,0,0-8-8H324.64l.5-6.007A24,24,0,0,0,301.224,64h-.482l16.73-27.884a8,8,0,1,0-13.72-8.232l-9.14,15.233V24a8,8,0,0,0-16,0V43.118l-9.14-15.234a8,8,0,0,0-13.72,8.232L272.483,64H272a23.976,23.976,0,0,0-23.034,17.288,31.86,31.86,0,0,0-16.345-.422,39.982,39.982,0,0,0-65.244,0A31.951,31.951,0,0,0,132.305,96H72a8,8,0,0,0-8,8V452a44.049,44.049,0,0,0,44,44s190.127.324,194.29.324a181.362,181.362,0,0,0,43.606-5.337A47.008,47.008,0,0,0,367,496h34a47.053,47.053,0,0,0,47-47V367.46A47.072,47.072,0,0,0,409.954,321.326Zm-16.016-.866H377.4l19.365-22.593Zm-28.516-10.615-1.69-11.829,5.976,6.829ZM352,160H319.307l4-48H352Zm-169.441,0-4.344-21.716c.186-.128.381-.243.564-.376A39.808,39.808,0,0,0,192,143.185V160ZM208,143.184a39.784,39.784,0,0,0,13.221-5.276c.164.119.338.221.5.337L217.426,160H208Zm28.929.652c1.017.1,2.039.164,3.071.164a31.818,31.818,0,0,0,12.377-2.492L253.918,160H233.735Zm29.185-61.253A7.912,7.912,0,0,1,272,80h29.223a8,8,0,0,1,7.972,8.664L308.585,96H294.612a8,8,0,0,0,0,16h12.64l-1.334,16H294.612a8,8,0,0,0,0,16h9.973l-1.334,16H269.973l-2.618-31.411a31.923,31.923,0,0,0-3.12-37.451l-.207-2.474A7.915,7.915,0,0,1,266.114,82.583ZM160,96a15.817,15.817,0,0,1,7.278,1.753,8,8,0,0,0,10.915-3.773,24,24,0,0,1,43.614,0,8,8,0,0,0,10.915,3.773A15.817,15.817,0,0,1,240,96a16,16,0,1,1-12.2,26.339,8,8,0,0,0-5.613-2.809c-.162-.01-.325-.015-.487-.015a8,8,0,0,0-5.426,2.122,23.982,23.982,0,0,1-32.54,0,8,8,0,0,0-11.526.7A16,16,0,1,1,160,96Zm-32,16a32.036,32.036,0,0,0,32,32c1.011,0,2.014-.062,3.01-.156L166.241,160H80V112ZM80,452V176H352v88.482a7.944,7.944,0,0,0-7.919,9.109l7.088,49.62A47.076,47.076,0,0,0,320,367.46v2.452c-.45-.521-.906-1.034-1.351-1.559l-10.217-12.037A57.346,57.346,0,0,0,267,336.146l-3.641-.14a8.025,8.025,0,0,0-8.2,6.7l-1.82,11.071a57.209,57.209,0,0,0,2.17,27.389,57.336,57.336,0,0,0-39.353-1.572,29.758,29.758,0,0,0-34.312,4.263,82.17,82.17,0,0,1,14.933-35.11,8,8,0,0,0-12.885-9.486c-1.326,1.8-2.571,3.645-3.764,5.514l-3.462-5.193A25.947,25.947,0,0,0,155.029,328H132.663a8,8,0,0,0-6.657,12.438l10.657,15.984A25.947,25.947,0,0,0,158.3,368h10.951a97.762,97.762,0,0,0-3.466,14.948,29.778,29.778,0,0,0-44.657,7.516,63.748,63.748,0,0,0,.607,66.871L135.9,480H108A28.032,28.032,0,0,1,80,452Zm287.4,15.153-6.569,2.471C337.048,480,292.215,480,292.215,480a166.205,166.205,0,0,1-54.977-13.011A34.688,34.688,0,0,1,222.8,455.528c-.143-.231-4-6.648-5.069-10.018L216,440.042a.211.211,0,0,1,.122-.258,34.5,34.5,0,0,1,26.573.258l3.98,1.693a132.409,132.409,0,0,0,97.957,2.434l31.9-11.742a8,8,0,0,0,4.6-4.374l10.462-24.581,10.185,5.923L391.3,427.414a8,8,0,0,0-1.069,4.511A35.149,35.149,0,0,1,367.4,467.153Zm-181.689,9.723a12.727,12.727,0,0,0-22.766,0,5.648,5.648,0,0,1-9.842.467L135.3,448.854a47.813,47.813,0,0,1-.457-50.158,13.791,13.791,0,0,1,23.3-.554,19.425,19.425,0,0,0,6.519,6.085v2.027a27.334,27.334,0,0,1-2.754-1.187,8,8,0,0,0-7.155,14.312,43.995,43.995,0,0,0,39.155,0,8,8,0,0,0-7.155-14.312,27.584,27.584,0,0,1-6.091,2.193v-1.519a19.419,19.419,0,0,0,9.856-7.6,13.744,13.744,0,0,1,16.919-5.006l1.588,7.936A41.552,41.552,0,0,0,219.861,422.1a51.276,51.276,0,0,0-9.716,2.839,16.285,16.285,0,0,0-9.4,19.922l1.728,5.468a50.782,50.782,0,0,0,4.078,9.418l-11,17.594a5.648,5.648,0,0,1-9.843-.469Zm148.874-46.168a116.441,116.441,0,0,1-81.646-3.694l-3.98-1.694a51.238,51.238,0,0,0-9.09-2.9,41.164,41.164,0,0,1-15.157-24.489L223.928,394a41.326,41.326,0,0,1,29.786,4.018l13.8,7.672A238.935,238.935,0,0,0,334.588,430.708ZM217.157,472.973A50.66,50.66,0,0,0,227.394,480H212.765ZM347.3,416.82a222.535,222.535,0,0,1-59.223-18.558c-1.152-.831-2.241-1.634-3.287-2.432a41.148,41.148,0,0,1-15.668-39.462l.651-3.962a41.326,41.326,0,0,1,26.456,14.261L306.448,378.7A238.926,238.926,0,0,0,347.3,416.82ZM165.714,352H158.3a9.979,9.979,0,0,1-8.32-4.453L147.611,344h7.418a9.982,9.982,0,0,1,8.321,4.453ZM432,449a31.036,31.036,0,0,1-31,31H377.907a51,51,0,0,0,28.384-46.543l13.337-22.935a8,8,0,0,0-2.894-10.937l-24.935-14.5a8,8,0,0,0-11.382,3.783l-10.278,24.148q-6.929-4.355-13.5-9.191l9.018-9.018-11.314-11.314-10.32,10.32q-4.1-3.5-8.023-7.189V367.46a31.036,31.036,0,0,1,31-31h34a31.036,31.036,0,0,1,31,31Zm-48-97.507,11.313,11.314L384,374.121l-11.313-11.314Zm29.657,0,11.313,11.314-11.313,11.314-11.314-11.314Zm0,96,11.313,11.314-11.313,11.314-11.314-11.314Zm-59.314-96,11.314,11.314-11.314,11.314L343.03,362.807ZM112,216a16,16,0,1,1,24.969,13.25,8.043,8.043,0,0,1,.341,1.243,80.017,80.017,0,0,0,157.38,0,8,8,0,0,1,.342-1.242,16.006,16.006,0,1,1,15.415,1.386,7.958,7.958,0,0,1-.017,2.731,96.021,96.021,0,0,1-188.86,0,7.978,7.978,0,0,1-.018-2.73A16,16,0,0,1,112,216Z" style="fill:url(#linear-gradient)"/></g></svg>