<svg id="Layer_1" data-name="Layer 1" xmlns="http://www.w3.org/2000/svg" viewBox="0 0 150.97 150.97"><defs><style>.cls-1{fill:#b3822c;}.cls-2{fill:#231f20;}.cls-3{fill:#92c73e;}.cls-4{fill:#759f40;}.cls-5{fill:#b3d460;}.cls-6{fill:#fff;}</style></defs><title>kiwi</title><circle class="cls-1" cx="715.04" cy="684.02" r="72.67" transform="translate(-739.9 -485.17) rotate(-9.22)"/><path class="cls-2" d="M715,759.51A75.49,75.49,0,1,1,790.53,684,75.57,75.57,0,0,1,715,759.51Zm0-145.35A69.87,69.87,0,1,0,784.91,684,69.94,69.94,0,0,0,715,614.16Z" transform="translate(-639.56 -608.54)"/><circle class="cls-3" cx="715.04" cy="684.02" r="63.01" transform="translate(-802.62 -380.7) rotate(-16.28)"/><polygon class="cls-4" points="108.04 76.91 121.98 75.48 108.04 74.06 121.81 71.43 107.79 71.23 121.28 67.41 107.3 68.43 120.4 63.45 106.56 65.68 119.18 59.58 105.59 63.01 117.63 55.83 104.39 60.44 115.75 52.23 102.97 57.97 113.57 48.81 101.34 55.65 111.1 45.59 99.51 53.47 108.36 42.6 97.5 51.46 105.37 39.86 95.32 49.63 102.15 37.39 92.99 48 98.73 35.21 90.53 46.58 95.14 33.34 87.95 45.38 91.39 31.79 85.28 44.4 87.52 30.57 82.54 43.67 83.56 29.69 79.74 43.17 79.54 29.16 76.91 42.93 75.48 28.98 74.06 42.93 71.43 29.16 71.23 43.17 67.41 29.69 68.43 43.67 63.45 30.57 65.68 44.4 59.58 31.79 63.01 45.38 55.83 33.34 60.44 46.58 52.23 35.21 57.97 48 48.81 37.39 55.65 49.63 45.59 39.86 53.47 51.46 42.6 42.6 51.46 53.47 39.86 45.59 49.63 55.65 37.39 48.81 48 57.97 35.21 52.23 46.58 60.44 33.34 55.83 45.38 63.01 31.79 59.58 44.4 65.68 30.57 63.45 43.67 68.43 29.69 67.41 43.17 71.23 29.16 71.43 42.93 74.06 28.98 75.48 42.93 76.91 29.16 79.54 43.17 79.74 29.69 83.56 43.67 82.54 30.57 87.52 44.4 85.28 31.79 91.39 45.38 87.95 33.34 95.14 46.58 90.53 35.21 98.73 48 92.99 37.39 102.15 49.63 95.32 39.86 105.37 51.46 97.5 42.6 108.36 53.47 99.51 45.59 111.1 55.65 101.34 48.81 113.57 57.97 102.97 52.23 115.75 60.44 104.39 55.83 117.63 63.01 105.59 59.58 119.18 65.68 106.56 63.45 120.4 68.43 107.3 67.41 121.28 71.23 107.79 71.43 121.81 74.06 108.04 75.48 121.98 76.91 108.04 79.54 121.81 79.74 107.79 83.56 121.28 82.54 107.3 87.52 120.4 85.28 106.56 91.39 119.18 87.95 105.59 95.14 117.63 90.53 104.39 98.73 115.75 92.99 102.97 102.15 113.57 95.32 101.34 105.37 111.1 97.5 99.51 108.36 108.36 99.51 97.5 111.1 105.37 101.34 95.32 113.57 102.15 102.97 92.99 115.75 98.73 104.39 90.53 117.63 95.14 105.59 87.95 119.18 91.39 106.56 85.28 120.4 87.52 107.3 82.54 121.28 83.56 107.79 79.74 121.81 79.54 108.04 76.91"/><circle class="cls-5" cx="715.04" cy="684.02" r="31.94" transform="translate(-794.43 -396.14) rotate(-15.27)"/><path class="cls-6" d="M665.25,657.37a1.26,1.26,0,0,1-.59-.15,1.2,1.2,0,0,1-.46-1.64A61,61,0,0,1,695.4,628a55.18,55.18,0,0,1,18.14-4h0a1.21,1.21,0,0,1,0,2.41,54,54,0,0,0-17.36,3.91,58.65,58.65,0,0,0-29.89,26.47A1.2,1.2,0,0,1,665.25,657.37Z" transform="translate(-639.56 -608.54)"/><path class="cls-6" d="M664.6,661.12a1.58,1.58,0,1,0-1.58,1.59A1.58,1.58,0,0,0,664.6,661.12Z" transform="translate(-639.56 -608.54)"/><path class="cls-2" d="M705.56,662.69a1.68,1.68,0,1,0-1.88-1.54c-1,1.22-1.38,2.55-.86,3S704.57,663.91,705.56,662.69Z" transform="translate(-639.56 -608.54)"/><path class="cls-2" d="M717.92,660.48a1.68,1.68,0,1,0,.76-2.31c-1.49-.49-2.86-.37-3.07.26S716.43,660,717.92,660.48Z" transform="translate(-639.56 -608.54)"/><path class="cls-2" d="M693.48,675.54a4.64,4.64,0,0,0,.62-3,4.69,4.69,0,0,0-2.62,1.65c-.89,1.29-1.16,2.64-.61,3S692.59,676.83,693.48,675.54Z" transform="translate(-639.56 -608.54)"/><path class="cls-2" d="M730.3,680.48a4.7,4.7,0,0,0-.13-3.08,4.65,4.65,0,0,0-2.15,2.22c-.55,1.47-.5,2.85.13,3.09S729.74,682,730.3,680.48Z" transform="translate(-639.56 -608.54)"/><path class="cls-2" d="M704.75,677a4.66,4.66,0,0,0,.85-3,4.72,4.72,0,0,0-2.74,1.43c-1,1.22-1.37,2.54-.85,3S703.75,678.21,704.75,677Z" transform="translate(-639.56 -608.54)"/><path class="cls-2" d="M706.86,693.25a1.68,1.68,0,1,0,.81-2.3c-1.49-.52-2.87-.42-3.09.21S705.38,692.73,706.86,693.25Z" transform="translate(-639.56 -608.54)"/><path class="cls-2" d="M729.5,705.61a4.69,4.69,0,0,0-.32-3.07,4.63,4.63,0,0,0-2,2.35c-.47,1.5-.32,2.87.32,3.07S729,707.11,729.5,705.61Z" transform="translate(-639.56 -608.54)"/><path class="cls-2" d="M739.24,680.25a4.68,4.68,0,0,0-3,.83,4.69,4.69,0,0,0,2.65,1.58c1.56.21,2.89-.16,3-.82S740.79,680.46,739.24,680.25Z" transform="translate(-639.56 -608.54)"/><path class="cls-2" d="M724.86,692.56a4.63,4.63,0,0,0-2.74-1.43,4.7,4.7,0,0,0,.86,3c1,1.21,2.22,1.85,2.74,1.42S725.86,693.77,724.86,692.56Z" transform="translate(-639.56 -608.54)"/><path class="cls-2" d="M716.53,704.23a1.68,1.68,0,1,0-2.43.22c.15,1.57.81,2.78,1.48,2.72S716.67,705.79,716.53,704.23Z" transform="translate(-639.56 -608.54)"/><path class="cls-2" d="M702.53,705.69a1.68,1.68,0,1,0-1.63-1.81c-1.16,1-1.74,2.31-1.29,2.81S701.37,706.74,702.53,705.69Z" transform="translate(-639.56 -608.54)"/><path class="cls-2" d="M694.35,691.82a1.68,1.68,0,1,0-1.79-1.64c-1.06,1.15-1.52,2.46-1,2.91S693.29,693,694.35,691.82Z" transform="translate(-639.56 -608.54)"/><path class="cls-2" d="M718.26,669.21a1.68,1.68,0,1,0,.92,2.25c1.45-.59,2.42-1.57,2.17-2.19S719.71,668.62,718.26,669.21Z" transform="translate(-639.56 -608.54)"/><path class="cls-2" d="M731.13,665.1a1.68,1.68,0,1,0,.91,2.26c1.46-.59,2.43-1.58,2.17-2.2S732.58,664.51,731.13,665.1Z" transform="translate(-639.56 -608.54)"/><path class="cls-2" d="M716.93,681.92a1.68,1.68,0,1,0-2.09,1.25c.81,1.34,1.93,2.15,2.51,1.81S717.74,683.26,716.93,681.92Z" transform="translate(-639.56 -608.54)"/><path class="cls-2" d="M738,692.93a1.68,1.68,0,1,0-2,1.37c.88,1.3,2,2,2.61,1.66S738.85,694.22,738,692.93Z" transform="translate(-639.56 -608.54)"/></svg>