<svg xmlns="http://www.w3.org/2000/svg" viewBox="0 0 172.68 121.48"><defs><style>.cls-1{fill:#56d973;}.cls-1,.cls-10,.cls-100,.cls-101,.cls-102,.cls-103,.cls-104,.cls-105,.cls-106,.cls-107,.cls-108,.cls-109,.cls-11,.cls-110,.cls-111,.cls-112,.cls-113,.cls-114,.cls-115,.cls-116,.cls-117,.cls-118,.cls-119,.cls-12,.cls-120,.cls-121,.cls-122,.cls-123,.cls-124,.cls-125,.cls-126,.cls-127,.cls-128,.cls-129,.cls-13,.cls-130,.cls-131,.cls-132,.cls-133,.cls-134,.cls-135,.cls-136,.cls-137,.cls-138,.cls-139,.cls-14,.cls-140,.cls-141,.cls-142,.cls-143,.cls-144,.cls-145,.cls-146,.cls-147,.cls-148,.cls-149,.cls-15,.cls-150,.cls-151,.cls-152,.cls-153,.cls-154,.cls-155,.cls-156,.cls-157,.cls-158,.cls-159,.cls-16,.cls-160,.cls-161,.cls-162,.cls-163,.cls-164,.cls-165,.cls-166,.cls-167,.cls-168,.cls-169,.cls-17,.cls-170,.cls-171,.cls-172,.cls-173,.cls-174,.cls-175,.cls-176,.cls-177,.cls-178,.cls-179,.cls-18,.cls-180,.cls-181,.cls-182,.cls-183,.cls-184,.cls-185,.cls-186,.cls-187,.cls-188,.cls-189,.cls-19,.cls-190,.cls-191,.cls-192,.cls-193,.cls-194,.cls-195,.cls-196,.cls-197,.cls-198,.cls-199,.cls-2,.cls-20,.cls-200,.cls-201,.cls-21,.cls-22,.cls-23,.cls-24,.cls-25,.cls-26,.cls-27,.cls-28,.cls-29,.cls-3,.cls-30,.cls-31,.cls-32,.cls-33,.cls-34,.cls-35,.cls-36,.cls-37,.cls-38,.cls-39,.cls-4,.cls-40,.cls-41,.cls-42,.cls-43,.cls-44,.cls-45,.cls-46,.cls-47,.cls-48,.cls-49,.cls-5,.cls-50,.cls-51,.cls-52,.cls-53,.cls-54,.cls-55,.cls-56,.cls-57,.cls-58,.cls-59,.cls-6,.cls-60,.cls-61,.cls-62,.cls-63,.cls-64,.cls-65,.cls-66,.cls-67,.cls-68,.cls-69,.cls-7,.cls-70,.cls-71,.cls-72,.cls-73,.cls-74,.cls-75,.cls-76,.cls-77,.cls-78,.cls-79,.cls-8,.cls-80,.cls-81,.cls-82,.cls-83,.cls-84,.cls-85,.cls-86,.cls-87,.cls-88,.cls-89,.cls-9,.cls-90,.cls-91,.cls-92,.cls-93,.cls-94,.cls-95,.cls-96,.cls-97,.cls-98,.cls-99{fill-rule:evenodd;}.cls-2{fill:#d7f6de;}.cls-3{fill:#e1faec;}.cls-4{fill:#d1f3d3;}.cls-5{fill:#e0f9e9;}.cls-6{fill:#fefffe;}.cls-7{fill:#e0f8e7;}.cls-8{fill:#d9f8e4;}.cls-9{fill:#e6f9eb;}.cls-10{fill:#e1f8e6;}.cls-11{fill:#dcf7e2;}.cls-12{fill:#e7faee;}.cls-13{fill:#d4f5d9;}.cls-14{fill:#cff4d7;}.cls-15{fill:#c7f2d1;}.cls-16{fill:#d7f6dd;}.cls-17{fill:#e1f9e7;}.cls-18{fill:#e0f8e6;}.cls-19{fill:#e2f8e6;}.cls-20{fill:#ebfefc;}.cls-21{fill:#e3faed;}.cls-22{fill:#d9f8e7;}.cls-23{fill:#d8f6dd;}.cls-24{fill:#f9fefb;}.cls-25{fill:#cdf4d8;}.cls-26{fill:#caf2d1;}.cls-27{fill:#dff7e2;}.cls-28{fill:#d5f7e1;}.cls-29{fill:#dcf5db;}.cls-30{fill:#ddf8e5;}.cls-31{fill:#e5faec;}.cls-32{fill:#daf7e3;}.cls-33{fill:#e1f7e3;}.cls-34{fill:#ccf6dc;}.cls-35{fill:#d2f6df;}.cls-36{fill:#78e292;}.cls-37{fill:#e7faed;}.cls-38{fill:#77e190;}.cls-39{fill:#d9f5dc;}.cls-40{fill:#c9f3d2;}.cls-41{fill:#e3f8e6;}.cls-42{fill:#f4fcf3;}.cls-43{fill:#c2f1cd;}.cls-44{fill:#d5f5da;}.cls-45{fill:#ddf7e0;}.cls-46{fill:#d0f6de;}.cls-47{fill:#d0f5da;}.cls-48{fill:#d7f9e7;}.cls-49{fill:#eefcf3;}.cls-50{fill:#ddf8e6;}.cls-51{fill:#e7fffd;}.cls-52{fill:#feffff;}.cls-53{fill:#d1f4d8;}.cls-54{fill:#def7e0;}.cls-55{fill:#e8f8e6;}.cls-56{fill:#e1faef;}.cls-57{fill:#d1f9e8;}.cls-58{fill:#fafefc;}.cls-59{fill:#cbf6dd;}.cls-60{fill:#caf5d9;}.cls-61{fill:#d4f7e1;}.cls-62{fill:#ecfcf3;}.cls-63{fill:#f2fefb;}.cls-64{fill:#e2faed;}.cls-65{fill:#f7fefa;}.cls-66{fill:#dcfaeb;}.cls-67{fill:#d8f8e5;}.cls-68{fill:#d3f6dc;}.cls-69{fill:#ecfdf8;}.cls-70{fill:#dffaeb;}.cls-71{fill:#dcf6de;}.cls-72{fill:#d8f8e7;}.cls-73{fill:#ddf6df;}.cls-74{fill:#d7f4d6;}.cls-75{fill:#d2f9e7;}.cls-76{fill:#d5f4d8;}.cls-77{fill:#e6f7e2;}.cls-78{fill:#e3f8e5;}.cls-79{fill:#c1f3d2;}.cls-80{fill:#f7fdf9;}.cls-81{fill:#d6faec;}.cls-82{fill:#e5f9e9;}.cls-83{fill:#d4f3d4;}.cls-84{fill:#dafaeb;}.cls-85{fill:#dbf6dd;}.cls-86{fill:#e2f9ea;}.cls-87{fill:#f7fdf6;}.cls-88{fill:#f5fcf4;}.cls-89{fill:#d7faeb;}.cls-90{fill:#edfcf3;}.cls-91{fill:#f1fcf5;}.cls-92{fill:#d5f6de;}.cls-93{fill:#def9ea;}.cls-94{fill:#d8f4d8;}.cls-95{fill:#ecfaeb;}.cls-96{fill:#fffffe;}.cls-97{fill:#b7efc4;}.cls-98{fill:#e1f8e5;}.cls-99{fill:#e3f9e9;}.cls-100{fill:#e2fdf9;}.cls-101{fill:#d7f5d8;}.cls-102{fill:#b6eec0;}.cls-103{fill:#dff9ea;}.cls-104{fill:#d0f4d9;}.cls-105{fill:#ecfbf0;}.cls-106{fill:#ccf4d6;}.cls-107{fill:#cef6dd;}.cls-108{fill:#cbf4d9;}.cls-109{fill:#f2fefa;}.cls-110{fill:#f5fefb;}.cls-111{fill:#e0fdf6;}.cls-112{fill:#f5fdf8;}.cls-113{fill:#c3f0c7;}.cls-114{fill:#e5fbf0;}.cls-115{fill:#c3efc4;}.cls-116{fill:#dbf5d9;}.cls-117{fill:#defaec;}.cls-118{fill:#d8f9ea;}.cls-119{fill:#dbf5da;}.cls-120{fill:#c3efc5;}.cls-121{fill:#e8f9e9;}.cls-122{fill:#f2fcf5;}.cls-123{fill:#caf3d4;}.cls-124{fill:#e9fffe;}.cls-125{fill:#fff;}.cls-126{fill:#e9fdf7;}.cls-127{fill:#ecfaee;}.cls-128{fill:#d0f3d4;}.cls-129{fill:#d9faed;}.cls-130{fill:#fafffe;}.cls-131{fill:#e5fcf2;}.cls-132{fill:#d2f9e8;}.cls-133{fill:#f2fdf8;}.cls-134{fill:#85e39a;}.cls-135{fill:#9bebb4;}.cls-136{fill:#e0f9e6;}.cls-137{fill:#d0f4d5;}.cls-138{fill:#d0f7e2;}.cls-139{fill:#b6f0ca;}.cls-140{fill:#e0f6dd;}.cls-141{fill:#7de294;}.cls-142{fill:#e4fcf4;}.cls-143{fill:#eafbf1;}.cls-144{fill:#fbfefb;}.cls-145{fill:#dff9e9;}.cls-146{fill:#e1faed;}.cls-147{fill:#eafcf4;}.cls-148{fill:#e6fbee;}.cls-149{fill:#dcfbf2;}.cls-150{fill:#dbfaed;}.cls-151{fill:#d8f9e8;}.cls-152{fill:#f9ffff;}.cls-153{fill:#d9f6dd;}.cls-154{fill:#7fe295;}.cls-155{fill:#daf8e4;}.cls-156{fill:#f0fcf5;}.cls-157{fill:#e6f9e8;}.cls-158{fill:#f7ffff;}.cls-159{fill:#fdfffd;}.cls-160{fill:#c7f3d0;}.cls-161{fill:#ecffff;}.cls-162{fill:#ddfbef;}.cls-163{fill:#cff8e4;}.cls-164{fill:#defefa;}.cls-165{fill:#cdfdf8;}.cls-166{fill:#daf7e1;}.cls-167{fill:#c0f2cf;}.cls-168{fill:#d2fefa;}.cls-169{fill:#d0f7e3;}.cls-170{fill:#7ae191;}.cls-171{fill:#c6f4d7;}.cls-172{fill:#ebfdf8;}.cls-173{fill:#7ae192;}.cls-174{fill:#75e293;}.cls-175{fill:#c7f0c8;}.cls-176{fill:#bbf1cb;}.cls-177{fill:#f3fdf6;}.cls-178{fill:#7be292;}.cls-179{fill:#eaf7e3;}.cls-180{fill:#7ee294;}.cls-181{fill:#c0f4d7;}.cls-182{fill:#b0f0c6;}.cls-183{fill:#d2f4d6;}.cls-184{fill:#eafefc;}.cls-185{fill:#bef3d3;}.cls-186{fill:#d3f3d1;}.cls-187{fill:#f1f9e9;}.cls-188{fill:#eaf8e6;}.cls-189{fill:#c4f8e4;}.cls-190{fill:#7ae59f;}.cls-191{fill:#c6f2ce;}.cls-192{fill:#a4eab4;}.cls-193{fill:#f8fcf4;}.cls-194{fill:#c2f1cc;}.cls-195{fill:#ecfdf7;}.cls-196{fill:#b6f2ce;}.cls-197{fill:#effcf4;}.cls-198{fill:#edffff;}.cls-199{fill:#f7fffe;}.cls-200{fill:#c8f3d3;}.cls-201{fill:#ecfdfa;}.cls-202{fill:#140a26;}</style></defs><title>leaf</title><g id="OBJECTS"><path class="cls-1" d="M311.13,231.82c4.92-6.16,9.81-12.36,15.77-17.59A36,36,0,0,1,339,206.81c2.28-.77,4.4-.13,6.59-.36,1.92-.2,2.43,1.18,2.2,3.79-.08.82.13,1.85,1.32,1s1.2,1.91,2.83.67c1.35-1,2.83-1.24,3.65-3.34s3.31-3.31,5-5a48.5,48.5,0,0,1,11.07-7.89,13.62,13.62,0,0,1,9.56-1.68,8.65,8.65,0,0,1,4.28,2.4c.48.47.65.87.16,1.5-1.09,1.38-.49,1.64.91,1.23.81-.24,1.07.32,1.27.86.28.77.47,1.56.76,2.52l4.48-2.26c.59.6,1.16.79,1.72,0,2.76-2.51,5.79-4.45,9.65-4.7l0,0c3.88-3.61,9-4.7,13.64-6.84,1.35-.63,1.35,1.87,2.62.92.82-.61.18-2.07,1.64-2.5a61.22,61.22,0,0,1,9-2.24,39.3,39.3,0,0,1,11.81.24,18.5,18.5,0,0,1,4.12,1.19c5.1,2.13,7.59,6,7.28,11.55a35.08,35.08,0,0,1-6.16,17.38c-4.7,7.19-10.74,13.13-17.21,18.7A190.44,190.44,0,0,1,412.2,248c-2.43,1.62-2.48,1.73-.08,3.36a16.64,16.64,0,0,1,7,9.61c1.29,4.69,0,8.85-4,11.65a24,24,0,0,1-9.54,4,226.52,226.52,0,0,1-23.49,3c-3.35.24-6.66.68-10,1.24a2.3,2.3,0,0,0-2.21,2.27c-1.16,7.25-5.81,11.63-12.38,14.09-8,3-16.37,3.45-24.78,2.48-6.06-.71-12.09-1.74-18.12-2.65-3-.45-5.73-1.68-8.57-2.61-5.68-1.86-11.3-3.9-17-5.75-1.65-.53-2.1-1.34-1.43-2.88s.52-3.9,2.89-4.58a.66.66,0,0,0,.26-1.15c-1.48-1.54-.49-2.55.75-3.45.73-.54,1.49-1,.55-1.91-.58-.57-.25-1.1-.06-1.63q1-2.87,2.16-5.71c.39-1,.65-2.25,2.19-1.11.47.34.94,0,1.12-.48s.53-1.25-.34-1.44c-1.09-.24-1.64-1.11-1-1.76,1.8-1.94,1.59-4.56,2.64-6.73.51-1,1.31-.81,2.06-1s1.32-.41.3-1.07c-2-1.44-.14-2.57.53-3.5a6.18,6.18,0,0,0,1.08-2.05c1-3.17,1.79-6.65,4.91-8.7.41-.26,1-.61.8-1-1.16-2.36,1-3.63,1.68-5.37C310.2,232.54,311.76,233,311.13,231.82Z" transform="translate(-282.43 -178.71)"/><path class="cls-2" d="M311.13,231.82a7.89,7.89,0,0,0,.92.46c.8.32,1.64.74.84,1.7s-1.37.33-1.9-.44c-.16-.22-.59-.25-.9-.36A1.37,1.37,0,0,1,311.13,231.82Z" transform="translate(-282.43 -178.71)"/><path class="cls-3" d="M301.09,253.83a3.7,3.7,0,0,1,1-.34c.6,0,1.24,0,1.22.86a1,1,0,0,1-1.17,1,6.3,6.3,0,0,1-1.35-.45C300.9,254.55,301,254.19,301.09,253.83Z" transform="translate(-282.43 -178.71)"/><path class="cls-4" d="M394.87,200.27a3,3,0,0,1,0,.67c-.13.57.28,1.52-.8,1.48-.84,0-1.08-.64-.93-1.43a3.75,3.75,0,0,0,0-.67Z" transform="translate(-282.43 -178.71)"/><path class="cls-5" d="M300.89,263.34c.68-.52,1.43-1.43,2.36-.37.45.51-.2,3.1-.78,3.24a3,3,0,0,1-3.05-1C298.68,264.06,299.79,263.55,300.89,263.34Z" transform="translate(-282.43 -178.71)"/><path class="cls-6" d="M304.8,259.7c0-.86.69-1.24,1.18-1.68.68-.62,1.42-1.57,2.44-1,1.29.7-.12,1.65,0,2.51.13,1.07-.73,1.24-1.39,1S305.3,260.54,304.8,259.7Z" transform="translate(-282.43 -178.71)"/><path class="cls-7" d="M364,215.93c-.1.58-.17,1.17-.32,1.74s-.45,1.38-1.41,1.22c-.75-.13-.74-.76-.88-1.33a6.09,6.09,0,0,1-.32-2.43h0c.83-.5,1.67-1.15,2.56-.09A.61.61,0,0,1,364,215.93Z" transform="translate(-282.43 -178.71)"/><path class="cls-8" d="M352.83,220.51c.53-.29.93-.56,1.35-.74a.85.85,0,0,1,1.18.37.79.79,0,0,1-.36,1.17,2.72,2.72,0,0,0-2.25,2.34c-.08.37-.53.4-.88.28a.76.76,0,0,1-.57-.77C351.26,221.9,351.5,220.8,352.83,220.51Z" transform="translate(-282.43 -178.71)"/><path class="cls-9" d="M320.09,237.94a6.81,6.81,0,0,1,.85-1.06c.72-.59,1.53-1.41,2.49-.87,1.11.62.8,1.77.53,3-1.14.46-2.21-.62-3.33-.3C320.14,238.65,320,238.41,320.09,237.94Z" transform="translate(-282.43 -178.71)"/><path class="cls-10" d="M325.81,233.18c-1.19.69-2.33,1.92-3.77.5-.5-.5-1-1.13-.49-1.85s1.12-.67,1.76,0a3.33,3.33,0,0,0,2.25.91C325.64,232.9,325.73,233,325.81,233.18Z" transform="translate(-282.43 -178.71)"/><path class="cls-11" d="M414,196.31c0-1.06-.7-2.31.7-3.08.42-.24,1.12-.2,1.26.22a3.21,3.21,0,0,1-.76,3.22C414.8,197.05,414.28,196.81,414,196.31Z" transform="translate(-282.43 -178.71)"/><path class="cls-12" d="M399.56,202.51c-.46.17-1,.25-1.2-.26-.46-1.05-.88-2.21.05-3.2.44-.48,1.12-.16,1.5.31A2.75,2.75,0,0,1,399.56,202.51Z" transform="translate(-282.43 -178.71)"/><path class="cls-11" d="M329.17,236.06c0,.3.11.77-.06.94a4.94,4.94,0,0,1-1.21.63c-.75.36-.7,2-2.07,1.31a1,1,0,0,1-.18-.95,4.79,4.79,0,0,1,2.89-2.32C328.69,235.63,328.91,235.89,329.17,236.06Z" transform="translate(-282.43 -178.71)"/><path class="cls-13" d="M295.35,274.45c.35.05.75.22,1,.1.75-.3.44-2.16,1.8-1.45,1.15.6.16,1.77.08,2.58-.15,1.7-1.46.33-2.23.54-.2,0-.45-.1-.68-.16A2,2,0,0,1,295.35,274.45Z" transform="translate(-282.43 -178.71)"/><path class="cls-14" d="M320.09,237.94l.54.72c-3.33,1.49-3.6,1.37-3.71-1.78C318.19,236.61,318.91,238,320.09,237.94Z" transform="translate(-282.43 -178.71)"/><path class="cls-15" d="M332.45,222.84c-.36-.84-.56-1.7.06-2.1,1-.66,1.68.44,2.32,1s.06,1.15-.36,1.47C333.65,223.81,333,223.33,332.45,222.84Z" transform="translate(-282.43 -178.71)"/><path class="cls-16" d="M409.11,197.41a4,4,0,0,1-.27-3.31,1,1,0,0,1,1.09-.67.92.92,0,0,1,.95,1.16C410.66,195.67,410.64,196.91,409.11,197.41Z" transform="translate(-282.43 -178.71)"/><path class="cls-17" d="M333.36,228.09c-.77-.22-1.53-.56-1.64-1.46s.52-1.24,1.16-1.57a1.14,1.14,0,0,1,1.3,0c.58.46.35,1,.12,1.57S333.94,227.76,333.36,228.09Z" transform="translate(-282.43 -178.71)"/><path class="cls-18" d="M326.15,232.41c1-.55,1.11-2.17,2.86-2,0,1.08-.06,2.17-.09,3.21-1.21.8-1.58-.8-2.49-.72-.21,0-.33-.11-.34-.25S326.1,232.44,326.15,232.41Z" transform="translate(-282.43 -178.71)"/><path class="cls-19" d="M329.82,227.33c.27.59.15,1.09-.31,1.28-1,.43-1.69-.06-2.21-1-.36-.65-.79-1.5-.06-1.81C328.62,225.24,328.77,227.2,329.82,227.33Z" transform="translate(-282.43 -178.71)"/><path class="cls-20" d="M335.31,228.34a4.7,4.7,0,0,1,4.3-3C338.07,227.21,338.07,227.21,335.31,228.34Z" transform="translate(-282.43 -178.71)"/><path class="cls-21" d="M344.26,217.85c-.25,0-.66.08-.89-.09a2.25,2.25,0,0,1-.9-2.15,1.19,1.19,0,0,1,1.19-1.09c.59,0,.7.46.81.94C344.7,216.5,344.67,217.5,344.26,217.85Z" transform="translate(-282.43 -178.71)"/><path class="cls-22" d="M305.63,253.12l.57-.39c.73-.45,1.6-.74,2.07.16.34.63.77,1.62,0,2.22s-1-1.09-1.91-.82A.92.92,0,0,1,305.63,253.12Z" transform="translate(-282.43 -178.71)"/><path class="cls-23" d="M337.75,215.18c.76-.25,1,.28,1.28.8.33.7.92,1.5-.14,2-.57.29-1.11-.05-1.39-.66A1.69,1.69,0,0,1,337.75,215.18Z" transform="translate(-282.43 -178.71)"/><path class="cls-24" d="M373.81,210.55c-1.09.84,1.11,2-.27,2.76-.41.23-1,.29-1.26-.19a2,2,0,0,1,.62-2.77A.63.63,0,0,1,373.81,210.55Z" transform="translate(-282.43 -178.71)"/><path class="cls-25" d="M366.53,216.18c.6-.31,1.26-1.1,1.87-.58,1,.84.19,2,0,3-.08.4-.81.19-1.17-.13-.67-.62-.17-1.61-.7-2.29Z" transform="translate(-282.43 -178.71)"/><path class="cls-26" d="M389.47,205.65a2,2,0,0,1,.31,1.64c-.12.51-.45.85-1,.71-.84-.22-.93-.9-.81-1.64s-.55-1.94,1.08-1.21A.42.42,0,0,0,389.47,205.65Z" transform="translate(-282.43 -178.71)"/><path class="cls-27" d="M358.57,226a1.52,1.52,0,0,1-.34,2c-.45.47-1,.61-1.46,0a1.15,1.15,0,0,1,.3-1.79A1.63,1.63,0,0,1,358.57,226Z" transform="translate(-282.43 -178.71)"/><path class="cls-28" d="M358.05,218.41c-.81.19-1.16-.1-1.29-.56a1.64,1.64,0,0,1,.42-1.89.75.75,0,0,1,1.14.39A2,2,0,0,1,358.05,218.41Z" transform="translate(-282.43 -178.71)"/><path class="cls-29" d="M312.18,263.63c.58.86.37,1.45-.06,1.84a1.11,1.11,0,0,1-1.82-.14,1.14,1.14,0,0,1,.5-1.52A1.44,1.44,0,0,1,312.18,263.63Z" transform="translate(-282.43 -178.71)"/><path class="cls-30" d="M399,204.57a1.54,1.54,0,0,1,1.79.66.88.88,0,0,1-.38,1.23c-.8.3-1.71.34-2.08-.69C398.21,205.31,398.46,204.84,399,204.57Z" transform="translate(-282.43 -178.71)"/><path class="cls-31" d="M300.39,258.46a17.74,17.74,0,0,0,2,.41c.92.08,1.35.59,1.09,1.39-.35,1-1.12.54-1.71.18a3.55,3.55,0,0,1-.72-.77A.92.92,0,0,1,300.39,258.46Z" transform="translate(-282.43 -178.71)"/><path class="cls-32" d="M383.67,213c-.29-.11-.49-.15-.49-.19,0-.94-1.13-2,.18-2.8a1,1,0,0,1,.93.07C385,211.28,384.5,212.2,383.67,213Z" transform="translate(-282.43 -178.71)"/><path class="cls-33" d="M339.62,222.44a1.05,1.05,0,0,1-1.39,1.1c-.53-.12-.58-.64-.35-1.12.23-1.06-.3-2.61,1.67-2.55.41.55.11,1.11,0,1.66A9.08,9.08,0,0,1,339.62,222.44Z" transform="translate(-282.43 -178.71)"/><path class="cls-34" d="M339.55,219.87c-1.11.49-1,1.8-1.67,2.55a2.56,2.56,0,0,0-.42-.56c-.53-.46-1.2-.89-.8-1.73.32-.66,1-.44,1.58-.52S339.18,219.46,339.55,219.87Z" transform="translate(-282.43 -178.71)"/><path class="cls-35" d="M405.68,210.07a1.45,1.45,0,0,1-.79,1.75c-.45.24-1,.19-1.09-.39s-.17-1.45.65-1.79A1.11,1.11,0,0,1,405.68,210.07Z" transform="translate(-282.43 -178.71)"/><path class="cls-15" d="M410.85,199.4c.26.49.41,1-.05,1.28a1.27,1.27,0,0,1-1.83-.28.86.86,0,0,1,.16-1.23A1.08,1.08,0,0,1,410.85,199.4Z" transform="translate(-282.43 -178.71)"/><path class="cls-36" d="M307.39,250.26c-.56.55-.67,1.58-1.77,1.62-.26-.85.55-1.59.13-2.59-.31-.71.76-.89,1.5-.7A2.12,2.12,0,0,1,307.39,250.26Z" transform="translate(-282.43 -178.71)"/><path class="cls-37" d="M324,228.57a1.23,1.23,0,0,1-1.87-.39.74.74,0,0,1,.21-1.16,1.2,1.2,0,0,1,1.76.45A.77.77,0,0,1,324,228.57Z" transform="translate(-282.43 -178.71)"/><path class="cls-38" d="M311.85,255.26l-.46-.68a.39.39,0,0,1-.39-.46.48.48,0,0,1,.42-.45.38.38,0,0,1-.12-.58l1.32-.79c.53.12.71.77,1.27.86a2.07,2.07,0,0,1-.6,2C312.8,255,312.34,255.32,311.85,255.26Z" transform="translate(-282.43 -178.71)"/><path class="cls-39" d="M363.68,221.26a1.08,1.08,0,0,1-.55,1.45.9.9,0,0,1-1.38-.54c-.22-.69.25-1.07.8-1.33S363.41,220.85,363.68,221.26Z" transform="translate(-282.43 -178.71)"/><path class="cls-40" d="M351.73,226.19a1,1,0,0,1,1.34,1.56.84.84,0,0,1-1.25-.05A1,1,0,0,1,351.73,226.19Z" transform="translate(-282.43 -178.71)"/><path class="cls-41" d="M347.72,233.23a1,1,0,0,1-1.51-.39,1,1,0,0,1,.55-1.46.89.89,0,0,1,1.23.31A1.11,1.11,0,0,1,347.72,233.23Z" transform="translate(-282.43 -178.71)"/><path class="cls-42" d="M431.56,194.05c.06.64-.08,1-.66,1.14a1,1,0,0,1-1.12-.63.79.79,0,0,1,.48-1.13A.94.94,0,0,1,431.56,194.05Z" transform="translate(-282.43 -178.71)"/><path class="cls-43" d="M331,242.19a1.32,1.32,0,0,1,1.56.92.75.75,0,0,1-.54,1.06,1.21,1.21,0,0,1-1.36-.78A.84.84,0,0,1,331,242.19Z" transform="translate(-282.43 -178.71)"/><path class="cls-44" d="M425.93,189.31c.06.22.1.45.18.66.24.66.47,1.32-.39,1.72a.74.74,0,0,1-.94-.14c-.54-.66-.24-1.25.2-1.82A.7.7,0,0,1,425.93,189.31Z" transform="translate(-282.43 -178.71)"/><path class="cls-45" d="M452.77,193.27c.12.43.31.9-.25,1.19a1.23,1.23,0,0,1-1.58-.25c-.32-.39-.15-.87.3-1.18A1.06,1.06,0,0,1,452.77,193.27Z" transform="translate(-282.43 -178.71)"/><path class="cls-46" d="M343.07,247.74a.93.93,0,0,1-.22,1.52.84.84,0,0,1-1.24-.22,1.06,1.06,0,0,1,.25-1.55A.89.89,0,0,1,343.07,247.74Z" transform="translate(-282.43 -178.71)"/><path class="cls-47" d="M327.36,253.72c.08.55-.13.92-.7,1s-1,0-1.15-.55a.91.91,0,0,1,.87-1.24A.89.89,0,0,1,327.36,253.72Z" transform="translate(-282.43 -178.71)"/><path class="cls-48" d="M432.22,198.8a1.42,1.42,0,0,1-1,1.56.7.7,0,0,1-1-.52c-.13-.7-.06-1.4.89-1.51C431.53,198.28,432,198.27,432.22,198.8Z" transform="translate(-282.43 -178.71)"/><path class="cls-49" d="M348.24,214.82c.5-.2,1.09-.71,1.57-.09s-.09,1.09-.63,1.36-1.15.58-1.54-.15C347.35,215.4,347.85,215.11,348.24,214.82Z" transform="translate(-282.43 -178.71)"/><path class="cls-50" d="M368.05,210.13c.69,1.58.88,2.53-.17,3.54C366.83,212.61,367.06,211.64,368.05,210.13Z" transform="translate(-282.43 -178.71)"/><path class="cls-51" d="M359.87,210.48c-.4.05-.89.65-1.21.1a1.22,1.22,0,0,1,.57-1.73.87.87,0,0,1,1.21.29C360.79,209.74,360.56,210.23,359.87,210.48Z" transform="translate(-282.43 -178.71)"/><path class="cls-52" d="M314.18,238.66c-.17.67-.76.82-1.3,1a.81.81,0,0,1-1.09-.61c-.17-.92.51-.9,1.1-.86A1.54,1.54,0,0,1,314.18,238.66Z" transform="translate(-282.43 -178.71)"/><path class="cls-53" d="M307.12,243.06a.72.72,0,0,1,1.13.41,1.11,1.11,0,0,1-.34,1.3.79.79,0,0,1-1.23-.21C306.31,243.94,306.56,243.45,307.12,243.06Z" transform="translate(-282.43 -178.71)"/><path class="cls-54" d="M366,209.31c.13.44.35.92-.19,1.23a1.21,1.21,0,0,1-1.55-.37.72.72,0,0,1,.21-1.17A1.08,1.08,0,0,1,366,209.31Z" transform="translate(-282.43 -178.71)"/><path class="cls-55" d="M403.83,201.47c-.09-.75-.14-1.56.64-2.07a.58.58,0,0,1,.8.37,1.52,1.52,0,0,1-.57,2.06A.62.62,0,0,1,403.83,201.47Z" transform="translate(-282.43 -178.71)"/><path class="cls-56" d="M337.64,232.23a.78.78,0,0,1-.42,1.15,1.22,1.22,0,0,1-1.52-.54c-.3-.55.08-.94.49-1.14A1,1,0,0,1,337.64,232.23Z" transform="translate(-282.43 -178.71)"/><path class="cls-57" d="M383,206.93a3.69,3.69,0,0,1-.38-1c-.05-.55-.13-1.33.63-1.37,1.2-.08,1.27.71.94,1.63A.94.94,0,0,1,383,206.93Z" transform="translate(-282.43 -178.71)"/><path class="cls-58" d="M318.57,232.65c.11.55.29,1.17-.4,1.49s-.87-.18-1.1-.58a.86.86,0,0,1,.3-1.22A.8.8,0,0,1,318.57,232.65Z" transform="translate(-282.43 -178.71)"/><path class="cls-59" d="M364,215.93c-.13-.29-.26-.58-.38-.88,1.69-1.39,1.84-1.33,2.95,1.13l0-.05Z" transform="translate(-282.43 -178.71)"/><path class="cls-60" d="M358.08,223.07c-.8.35-.93-.22-1.13-.56a1,1,0,0,1,.51-1.69.85.85,0,0,1,1.16.46C359,222.08,358.22,222.54,358.08,223.07Z" transform="translate(-282.43 -178.71)"/><path class="cls-61" d="M371,203.82c.24.59.28,1.18-.33,1.5a.89.89,0,0,1-1.19-.43.94.94,0,0,1,.36-1.22C370.19,203.41,370.65,203.28,371,203.82Z" transform="translate(-282.43 -178.71)"/><path class="cls-62" d="M298.11,280.92c-.79.15-1.33.27-1.87.36s-1.32.16-1.27-.67.79-.69,1.37-.62S297.55,279.85,298.11,280.92Z" transform="translate(-282.43 -178.71)"/><path class="cls-63" d="M327.16,243c.26.5.28.94-.22,1.24a1,1,0,0,1-1.28-.13.87.87,0,0,1,0-1.27C326.18,242.3,326.69,242.67,327.16,243Z" transform="translate(-282.43 -178.71)"/><path class="cls-64" d="M354.94,215a.54.54,0,0,1,0,.91c-.55.39-1.16.8-1.85.27-.41-.33-.08-.65.14-.84C353.71,214.89,354.3,214.56,354.94,215Z" transform="translate(-282.43 -178.71)"/><path class="cls-65" d="M342.71,220.42c.56-.31,1.12-.48,1.62,0s0,.85-.32,1.09-1,.61-1.54,0S342.38,220.73,342.71,220.42Z" transform="translate(-282.43 -178.71)"/><path class="cls-66" d="M332.56,254.6a1,1,0,0,1-1.22-.08c-.54-.55-.25-1.1.26-1.43a.86.86,0,0,1,1.21.27A.9.9,0,0,1,332.56,254.6Z" transform="translate(-282.43 -178.71)"/><path class="cls-67" d="M358.57,238.53a1,1,0,0,1-1.32-.09c-.5-.54-.22-1.09.26-1.44a.78.78,0,0,1,1.16.34C358.89,237.74,359,238.21,358.57,238.53Z" transform="translate(-282.43 -178.71)"/><path class="cls-68" d="M430.18,188.34c.57-.29,1.05-.39,1.33.07.38.61,0,1.08-.51,1.39s-.89.43-1.17-.08A1.06,1.06,0,0,1,430.18,188.34Z" transform="translate(-282.43 -178.71)"/><path class="cls-69" d="M343.49,237.24c.27.35.1.65-.17.87a1,1,0,0,1-1.53-.08c-.26-.28-.61-.82.11-1.05A1.41,1.41,0,0,1,343.49,237.24Z" transform="translate(-282.43 -178.71)"/><path class="cls-70" d="M388.41,209.72a1,1,0,0,1,1.33.2.88.88,0,0,1-.3,1.43c-.51.29-.93,0-1.17-.45A.81.81,0,0,1,388.41,209.72Z" transform="translate(-282.43 -178.71)"/><path class="cls-71" d="M362.68,231.47a.85.85,0,0,1,1.2.38c.21.44.26,1-.28,1.21a.93.93,0,0,1-1.25-.34A.94.94,0,0,1,362.68,231.47Z" transform="translate(-282.43 -178.71)"/><path class="cls-72" d="M296.8,271.1c-.34,0-.68.1-1,.11-.57,0-1.23.11-1.41-.62a1,1,0,0,1,.39-.82c.74-.47,1.27-.11,1.66.57a.53.53,0,0,1,.43.42C296.87,271,296.85,271.07,296.8,271.1Z" transform="translate(-282.43 -178.71)"/><path class="cls-73" d="M389.94,215.2a1,1,0,0,1-.28,1.52,1,1,0,0,1-1.25-.26c-.5-.61-.2-1.11.31-1.44A.83.83,0,0,1,389.94,215.2Z" transform="translate(-282.43 -178.71)"/><path class="cls-74" d="M379.56,222.23a1,1,0,0,1-1.24-.14.71.71,0,0,1,0-1.16c.47-.42,1-.57,1.43,0A1,1,0,0,1,379.56,222.23Z" transform="translate(-282.43 -178.71)"/><path class="cls-75" d="M311.76,258.78c0,.7-.45,1-1,1.17-.33.09-.75.14-.8-.38a1.08,1.08,0,0,1,1-1.23A.67.67,0,0,1,311.76,258.78Z" transform="translate(-282.43 -178.71)"/><path class="cls-76" d="M404.33,204.59c.46-.19.92-.34,1.22.22a1,1,0,0,1-.18,1.29.86.86,0,0,1-1.26,0C403.52,205.55,404,205.05,404.33,204.59Z" transform="translate(-282.43 -178.71)"/><path class="cls-77" d="M336.62,242.47a.88.88,0,0,1,1.15.42.77.77,0,0,1-.51,1.09.88.88,0,0,1-1.16-.41C335.84,243.06,336.22,242.73,336.62,242.47Z" transform="translate(-282.43 -178.71)"/><path class="cls-78" d="M326.9,249.15a.71.71,0,0,1-1-.23c-.39-.72.1-1.09.71-1.27a.58.58,0,0,1,.82.41A.89.89,0,0,1,326.9,249.15Z" transform="translate(-282.43 -178.71)"/><path class="cls-79" d="M317.81,251.85c.24,0,.71-.13.87,0a.7.7,0,0,1-.23,1.15c-.26.15-.82.24-.94.09C317.18,252.74,317.31,252.28,317.81,251.85Z" transform="translate(-282.43 -178.71)"/><path class="cls-14" d="M373.94,220.9c.29.3.14.61-.07.87a.85.85,0,0,1-1.21.13c-.42-.31-.36-.78.08-1.1A.85.85,0,0,1,373.94,220.9Z" transform="translate(-282.43 -178.71)"/><path class="cls-80" d="M353,231.81a1,1,0,0,1-.27,1.47.79.79,0,0,1-1.18-.25,1.06,1.06,0,0,1,.29-1.23A.73.73,0,0,1,353,231.81Z" transform="translate(-282.43 -178.71)"/><path class="cls-81" d="M306.59,264.06c.26.44-.15.79-.52,1s-.82.21-.94.06a.78.78,0,0,1,.17-1.21C305.7,263.65,306.12,263.47,306.59,264.06Z" transform="translate(-282.43 -178.71)"/><path class="cls-82" d="M352.19,237.09a.86.86,0,0,1,1.22,0,.74.74,0,0,1,0,1.18.93.93,0,0,1-1.25-.06C351.67,237.87,351.82,237.47,352.19,237.09Z" transform="translate(-282.43 -178.71)"/><path class="cls-83" d="M358.51,231.84a.88.88,0,0,1-.31,1.11.68.68,0,0,1-1.14-.2.91.91,0,0,1,.44-1.18A.74.74,0,0,1,358.51,231.84Z" transform="translate(-282.43 -178.71)"/><path class="cls-84" d="M395,210.36a.63.63,0,0,1-.19.89.91.91,0,0,1-1.2-.21.63.63,0,0,1,.21-1.08A1,1,0,0,1,395,210.36Z" transform="translate(-282.43 -178.71)"/><path class="cls-85" d="M321.22,253.1c.55-.22.94,0,1,.53a1,1,0,0,1-.45.85c-.41.21-1,.23-1.17-.33S320.77,253.32,321.22,253.1Z" transform="translate(-282.43 -178.71)"/><path class="cls-86" d="M361,215.13c-.09.07-.16.16-.26.23-.59.41-1.21.72-1.78,0a.59.59,0,0,1,.19-.87c.9-.66,1.46-.23,1.84.64Z" transform="translate(-282.43 -178.71)"/><path class="cls-87" d="M359.34,219.72a.76.76,0,0,1,.94.13.64.64,0,0,1,.07.92.72.72,0,0,1-1.16-.14A.68.68,0,0,1,359.34,219.72Z" transform="translate(-282.43 -178.71)"/><path class="cls-88" d="M332.35,231.65c.26-.38.44-1,.8-1.11a.84.84,0,0,1,1.27.74c0,.5-.42.8-1,.72-.35-.06-.69-.15-1-.23Z" transform="translate(-282.43 -178.71)"/><path class="cls-89" d="M378,210.76c.3-.27.65-.27.76.12s.51,1.1,0,1.58c-.19.18-.78.28-.9.15C377.29,212,377.65,211.36,378,210.76Z" transform="translate(-282.43 -178.71)"/><path class="cls-90" d="M317.3,243.21c-.5.25-.93.77-1.58.56-.4-.13-.44-.5-.24-.82.46-.75,1.06-1.24,2-.75C317.46,242.54,317.65,242.92,317.3,243.21Z" transform="translate(-282.43 -178.71)"/><path class="cls-91" d="M376.33,209a.85.85,0,0,1-.52,1.17c-.44.19-.94.21-1.19-.35a.77.77,0,0,1,.53-1.09C375.58,208.56,376.08,208.48,376.33,209Z" transform="translate(-282.43 -178.71)"/><path class="cls-92" d="M378.5,206.44a1.19,1.19,0,0,1,.4,1.25c-.16.43-.57.39-.9.31a.82.82,0,0,1-.63-1.07,5.83,5.83,0,0,1,.68-1.21c.27.05.43.17.47.37S378.56,206.41,378.5,206.44Z" transform="translate(-282.43 -178.71)"/><path class="cls-93" d="M376.08,203.66c.09.56.21,1.09-.32,1.33s-.82-.18-1-.63a.75.75,0,0,1,.49-1.1C375.49,203.19,375.83,203.53,376.08,203.66Z" transform="translate(-282.43 -178.71)"/><path class="cls-17" d="M305.63,253.12l.71,1.17c-.14,1-.69,1.16-1.3.47S304.41,253.3,305.63,253.12Z" transform="translate(-282.43 -178.71)"/><path class="cls-94" d="M342.65,232.24c.11.44.3.94-.29,1.16s-.82-.16-1.07-.57a.62.62,0,0,1,.2-.89C342,231.58,342.33,231.87,342.65,232.24Z" transform="translate(-282.43 -178.71)"/><path class="cls-95" d="M347.88,220.4c.54-.45,1.06-1.05,1.81-.42.27.23.36.72.05.89A1.4,1.4,0,0,1,347.88,220.4Z" transform="translate(-282.43 -178.71)"/><path class="cls-96" d="M311.47,248.85a7.68,7.68,0,0,1,1.21-.69c.41-.15.66.19.7.55a4.06,4.06,0,0,1-.14,1,4.44,4.44,0,0,1-1-.24,4.38,4.38,0,0,1-.79-.71Z" transform="translate(-282.43 -178.71)"/><path class="cls-97" d="M336.46,237.39a.84.84,0,0,1,1.21.17.74.74,0,0,1-.25,1.15,1.09,1.09,0,0,1-.94-.17C336,238.23,336.07,237.78,336.46,237.39Z" transform="translate(-282.43 -178.71)"/><path class="cls-98" d="M383.62,220.4a.67.67,0,0,1,1,.16.78.78,0,0,1-.35,1.18c-.4.22-1,.31-1.17-.31A.81.81,0,0,1,383.62,220.4Z" transform="translate(-282.43 -178.71)"/><path class="cls-99" d="M337.91,248a.91.91,0,0,1-.59,1.09.7.7,0,0,1-1.06-.55.92.92,0,0,1,.83-1C337.43,247.48,337.81,247.46,337.91,248Z" transform="translate(-282.43 -178.71)"/><path class="cls-100" d="M426.66,199a.9.9,0,0,1-.26,1.2.68.68,0,0,1-.92-.11.82.82,0,0,1,0-1.21C425.88,198.51,426.3,198.76,426.66,199Z" transform="translate(-282.43 -178.71)"/><path class="cls-101" d="M320.85,258.33a.87.87,0,0,1,1.21.35c.26.41.37.92-.25,1.14-.45.16-1,.23-1.3-.21A1.07,1.07,0,0,1,320.85,258.33Z" transform="translate(-282.43 -178.71)"/><path class="cls-102" d="M291.09,285.8c.58-.24,1.26-.38,1.4.39.09.54-.52.71-1,.62s-1.19.25-1.68-.27A1.07,1.07,0,0,1,291.09,285.8Z" transform="translate(-282.43 -178.71)"/><path class="cls-103" d="M441.92,199.06a.87.87,0,0,1-.56,1.22c-.52.21-1,0-1.07-.51s.36-.85.86-1C441.48,198.73,441.87,198.74,441.92,199.06Z" transform="translate(-282.43 -178.71)"/><path class="cls-104" d="M306.75,274.74c.17.39.14.8-.18,1-.51.28-.88-.1-1.13-.5a.64.64,0,0,1,.07-.6C306,274.21,306.37,274.47,306.75,274.74Z" transform="translate(-282.43 -178.71)"/><path class="cls-105" d="M339,212.66a.89.89,0,0,1-1.2-.17c-.5-.53,0-.86.35-1.06a.68.68,0,0,1,1.09.35C339.4,212.09,339.47,212.45,339,212.66Z" transform="translate(-282.43 -178.71)"/><path class="cls-106" d="M391.93,204c.08.34.12.68-.32.81a.81.81,0,0,1-1.1-.51.6.6,0,0,1,.35-.83C391.39,203.24,391.72,203.5,391.93,204Z" transform="translate(-282.43 -178.71)"/><path class="cls-107" d="M333.53,217.9c-.35.32-.63.12-.83-.15a.83.83,0,0,1,.13-1.2.5.5,0,0,1,.84.12A1,1,0,0,1,333.53,217.9Z" transform="translate(-282.43 -178.71)"/><path class="cls-108" d="M333.09,236a.62.62,0,0,1,.91,0,.84.84,0,0,1,.18,1.18c-.12.15-.65.09-.92,0C332.72,236.86,332.87,236.41,333.09,236Z" transform="translate(-282.43 -178.71)"/><path class="cls-109" d="M332.35,231.65l0,.12a4.14,4.14,0,0,1-.24,1c-.3.59-.86.92-1.35.35s-.09-1.08.52-1.33A4.26,4.26,0,0,1,332.35,231.65Z" transform="translate(-282.43 -178.71)"/><path class="cls-110" d="M300.31,269.63a.52.52,0,0,1,.78.29,1.23,1.23,0,0,1-.17.89c-.24.33-.62.22-.85-.06C299.73,270.32,300,270,300.31,269.63Z" transform="translate(-282.43 -178.71)"/><path class="cls-111" d="M386.1,203.85c.15.44.27.92-.33,1.09a.57.57,0,0,1-.75-.47,1.24,1.24,0,0,1,.28-.91C385.61,203.27,385.89,203.58,386.1,203.85Z" transform="translate(-282.43 -178.71)"/><path class="cls-112" d="M366,203.83a.79.79,0,0,1-.67,1c-.31.06-.85,0-1-.15a.83.83,0,0,1,.42-1.15A.89.89,0,0,1,366,203.83Z" transform="translate(-282.43 -178.71)"/><path class="cls-113" d="M321.53,263.72c.59-.1.93.23.83.74a.94.94,0,0,1-1.32.75c-.47-.18-.52-.69-.15-1.13A.45.45,0,0,0,321.53,263.72Z" transform="translate(-282.43 -178.71)"/><path class="cls-114" d="M301.24,274.9c.19.46.25.89-.31,1.12a.63.63,0,0,1-.85-.3c-.21-.39-.48-.83,0-1.17S300.89,274.62,301.24,274.9Z" transform="translate(-282.43 -178.71)"/><path class="cls-115" d="M373.9,216.07a1.92,1.92,0,0,1,.18.31c.24.56.44,1.38-.1,1.61-.92.38-.9-.74-1.3-1.2A1,1,0,0,1,373.9,216.07Z" transform="translate(-282.43 -178.71)"/><path class="cls-116" d="M384.56,215.66a1,1,0,0,1-.65,1.11.56.56,0,0,1-.71-.53,1.35,1.35,0,0,1,.55-.82A.48.48,0,0,1,384.56,215.66Z" transform="translate(-282.43 -178.71)"/><path class="cls-117" d="M362.78,226.37c.22,0,.73-.12.83,0,.31.45.05.89-.37,1.17a.58.58,0,0,1-.88-.26C362.17,227,362.38,226.66,362.78,226.37Z" transform="translate(-282.43 -178.71)"/><path class="cls-118" d="M420.14,195c-.31.08-.68.22-.79-.25a.89.89,0,0,1,.54-1.11.57.57,0,0,1,.83.31C420.93,194.48,420.57,194.77,420.14,195Z" transform="translate(-282.43 -178.71)"/><path class="cls-119" d="M426,194.69a.69.69,0,0,1-.9-.12c-.37-.3-.22-.63.05-.88a.62.62,0,0,1,.9,0A.76.76,0,0,1,426,194.69Z" transform="translate(-282.43 -178.71)"/><path class="cls-120" d="M394.92,215.63c0,.19.1.5,0,.62a.53.53,0,0,1-.87-.07.65.65,0,0,1,0-.62A.52.52,0,0,1,394.92,215.63Z" transform="translate(-282.43 -178.71)"/><path class="cls-121" d="M441.31,187.75a.69.69,0,0,1-.12.93c-.31.34-.61.18-.83-.09s-.08-.64.15-.91S441.08,187.53,441.31,187.75Z" transform="translate(-282.43 -178.71)"/><path class="cls-122" d="M347.69,238.06c-.32.12-.65.1-.79-.27a.55.55,0,0,1,.36-.77.64.64,0,0,1,.54.22A.49.49,0,0,1,347.69,238.06Z" transform="translate(-282.43 -178.71)"/><path class="cls-123" d="M414.23,199.58c.42-.48.74-.22.89,0a1,1,0,0,1,0,.89.56.56,0,0,1-.89-.11C414.13,200.18,414.23,199.81,414.23,199.58Z" transform="translate(-282.43 -178.71)"/><path class="cls-124" d="M409.46,205.19c0-.22-.09-.51,0-.64a.5.5,0,0,1,.86.08c.11.15.15.55.05.63A.65.65,0,0,1,409.46,205.19Z" transform="translate(-282.43 -178.71)"/><path class="cls-125" d="M400.43,210.41c0,.17,0,.45-.12.53a.56.56,0,0,1-.86-.17.6.6,0,0,1,.11-.56C399.9,209.9,400.18,210.15,400.43,210.41Z" transform="translate(-282.43 -178.71)"/><path class="cls-19" d="M316.58,259.76c-.36.06-.66,0-.77-.4s-.14-.67.32-.76.68-.05.79.36S317,259.62,316.58,259.76Z" transform="translate(-282.43 -178.71)"/><path class="cls-37" d="M368.42,227.53c-.19,0-.71.14-.77,0-.24-.47.14-.81.48-1.1a.44.44,0,0,1,.77.17C369.07,227,368.8,227.24,368.42,227.53Z" transform="translate(-282.43 -178.71)"/><path class="cls-126" d="M341.71,243.78c.24,0-.1,0-.2-.44s0-.69.37-.8.68-.1.78.34S342.73,243.55,341.71,243.78Z" transform="translate(-282.43 -178.71)"/><path class="cls-127" d="M295.35,274.45a1.4,1.4,0,0,1,0,1.61c-.56,0-1-.26-1-.78S294.81,274.48,295.35,274.45Z" transform="translate(-282.43 -178.71)"/><path class="cls-128" d="M353.18,242.63c.05.37-.08.73-.44.71s-.51-.31-.71-.54c0,0,.18-.4.34-.47A.54.54,0,0,1,353.18,242.63Z" transform="translate(-282.43 -178.71)"/><path class="cls-129" d="M441.16,193.19c.19-.15.52-.08.75.23a.64.64,0,0,1,0,.6.61.61,0,0,1-.89.21C440.77,194,440.75,193.63,441.16,193.19Z" transform="translate(-282.43 -178.71)"/><path class="cls-71" d="M317.07,264.65c.07.37,0,.71-.43.75a.65.65,0,0,1-.75-.55.72.72,0,0,1,.36-.54A.54.54,0,0,1,317.07,264.65Z" transform="translate(-282.43 -178.71)"/><path class="cls-130" d="M368.59,231.78a.62.62,0,0,1-.49.73.51.51,0,0,1-.64-.53.68.68,0,0,1,.33-.51A.55.55,0,0,1,368.59,231.78Z" transform="translate(-282.43 -178.71)"/><path class="cls-131" d="M415.78,204.37c.28.41.22.72-.06.94a.66.66,0,0,1-.58,0,.5.5,0,0,1-.17-.8C415.15,204.36,415.53,204.41,415.78,204.37Z" transform="translate(-282.43 -178.71)"/><path class="cls-132" d="M435.85,193.77a.61.61,0,0,1,.81.39.56.56,0,0,1-.51.71.67.67,0,0,1-.56-.28A.52.52,0,0,1,435.85,193.77Z" transform="translate(-282.43 -178.71)"/><path class="cls-133" d="M447.09,187.89c.32.36.12.65-.14.9s-.65.14-.9-.12-.16-.65.12-.89S446.81,187.64,447.09,187.89Z" transform="translate(-282.43 -178.71)"/><path class="cls-134" d="M436,199.22c-.06.18-.08.45-.2.52a.43.43,0,0,1-.68-.35c0-.14.22-.4.38-.45S435.81,199.12,436,199.22Z" transform="translate(-282.43 -178.71)"/><path class="cls-135" d="M446.36,193.19c.24.08.49.09.58.21.27.38.53.84-.07,1.17a.34.34,0,0,1-.51-.32C446.34,193.91,446.36,193.57,446.36,193.19Z" transform="translate(-282.43 -178.71)"/><path class="cls-136" d="M323.54,222.35c.08.32.08.65-.33.75a.59.59,0,0,1-.79-.36c-.1-.31-.17-.68.31-.74C323.05,222,323.42,221.89,323.54,222.35Z" transform="translate(-282.43 -178.71)"/><path class="cls-137" d="M344.3,212a.51.51,0,0,1-.8-.28.52.52,0,0,1,.39-.75.67.67,0,0,1,.56.18C344.74,211.43,344.58,211.73,344.3,212Z" transform="translate(-282.43 -178.71)"/><path class="cls-138" d="M328.75,217c.09.37,0,.7-.39.78a.6.6,0,0,1-.73-.49.63.63,0,0,1,.3-.53A.52.52,0,0,1,328.75,217Z" transform="translate(-282.43 -178.71)"/><path class="cls-139" d="M328.82,222.54c-.46.16-1,.79-1.36,0a.59.59,0,0,1,.15-.57c.78-.52.89.28,1.22.64Z" transform="translate(-282.43 -178.71)"/><path class="cls-140" d="M369.85,198.28c.48,0,.77.24.7.62s-.25.75-.5.83a.52.52,0,0,1-.63-.59A2.78,2.78,0,0,1,369.85,198.28Z" transform="translate(-282.43 -178.71)"/><path class="cls-48" d="M321.73,243.73c-.35.17-.69.18-.81-.26a.8.8,0,0,1,.09-.63.59.59,0,0,1,.9,0C322.24,243.19,322,243.47,321.73,243.73Z" transform="translate(-282.43 -178.71)"/><path class="cls-141" d="M380.61,209.8c.06-.17.07-.45.2-.51a.41.41,0,0,1,.66.35.6.6,0,0,1-.37.44C381,210.11,380.78,209.9,380.61,209.8Z" transform="translate(-282.43 -178.71)"/><path class="cls-14" d="M404.47,195.55c.31.49.58,1-.06,1.43a.49.49,0,0,1-.79-.27c-.22-.76.43-.9.9-1.14Z" transform="translate(-282.43 -178.71)"/><path class="cls-142" d="M402.1,198.74c.06.25,0,.61-.39.59-.26,0-.51-.27-.78-.42.12-.17.2-.41.37-.51S401.92,198.26,402.1,198.74Z" transform="translate(-282.43 -178.71)"/><path class="cls-112" d="M343.84,230.68a.6.6,0,0,1,.87.12.64.64,0,0,1,0,.6.5.5,0,0,1-.81.16A.66.66,0,0,1,343.84,230.68Z" transform="translate(-282.43 -178.71)"/><path class="cls-143" d="M332.28,237.83c-.11.22-.17.66-.4.79a.72.72,0,0,1-1.11-.41c0-.18.36-.56.64-.74S332.06,237.28,332.28,237.83Z" transform="translate(-282.43 -178.71)"/><path class="cls-144" d="M383,206.93l1.19-.7c.31.58.76,1.27-.16,1.63C383.28,208.13,383.07,207.49,383,206.93Z" transform="translate(-282.43 -178.71)"/><path class="cls-145" d="M311.48,248.79a3.94,3.94,0,0,1-1,.34.6.6,0,0,1-.68-.58c0-.61.53-.69,1-.46.28.15.44.5.66.76Z" transform="translate(-282.43 -178.71)"/><path class="cls-146" d="M347.52,226.79c.29.33.13.61-.12.86s-.61.1-.84-.15a.55.55,0,0,1,.08-.85C347,226.39,347.25,226.56,347.52,226.79Z" transform="translate(-282.43 -178.71)"/><path class="cls-147" d="M307.39,250.26c-.35-.53-.63-1.07-.14-1.67.43,0,.9.07,1,.58C308.44,249.87,307.86,250,307.39,250.26Z" transform="translate(-282.43 -178.71)"/><path class="cls-148" d="M300.39,258.46l.66,1.21c-.5.24-1.07.63-1.44-.08S299.8,258.61,300.39,258.46Z" transform="translate(-282.43 -178.71)"/><path class="cls-149" d="M425.93,189.31c-.32.15-.63.29-.95.42-.14-.62-.53-1.43.49-1.53C426.25,188.12,426.28,188.73,425.93,189.31Z" transform="translate(-282.43 -178.71)"/><path class="cls-150" d="M379,216.43c-.37.19-.68.12-.82-.28s-.07-.72.38-.8a.81.81,0,0,1,.6.2C379.49,215.89,379.25,216.17,379,216.43Z" transform="translate(-282.43 -178.71)"/><path class="cls-151" d="M316.28,248.54a.51.51,0,0,1-.09.82.65.65,0,0,1-.88-.14c-.34-.31-.12-.59.12-.81S316,248.34,316.28,248.54Z" transform="translate(-282.43 -178.71)"/><path class="cls-152" d="M379.5,199.06c-.18-.24-.07-.54.17-.82a.37.37,0,0,1,.6,0,.67.67,0,0,1,.21.9C380.27,199.38,379.88,199.41,379.5,199.06Z" transform="translate(-282.43 -178.71)"/><path class="cls-153" d="M313.31,243.67c.08.37,0,.73-.38.83a.56.56,0,0,1-.71-.51.71.71,0,0,1,.3-.56A.46.46,0,0,1,313.31,243.67Z" transform="translate(-282.43 -178.71)"/><path class="cls-154" d="M352.56,218.24c-.05.19,0,.46-.15.55a.43.43,0,0,1-.71-.3c0-.14.19-.4.35-.46S352.39,218.16,352.56,218.24Z" transform="translate(-282.43 -178.71)"/><path class="cls-155" d="M342.42,226.38c.28.34.08.62-.15.87s-.59.18-.81-.09-.08-.63.15-.88S342.18,226.16,342.42,226.38Z" transform="translate(-282.43 -178.71)"/><path class="cls-156" d="M370.78,209.43c.09.39,0,.7-.43.76a.65.65,0,0,1-.55-.32.51.51,0,0,1,.43-.73C370.38,209.1,370.59,209.32,370.78,209.43Z" transform="translate(-282.43 -178.71)"/><path class="cls-157" d="M370.63,215.11c-.12.17-.21.42-.38.49-.36.16-.66,0-.63-.42,0-.14.29-.35.46-.36S370.45,215,370.63,215.11Z" transform="translate(-282.43 -178.71)"/><path class="cls-158" d="M339.72,231.13c-.08.2-.11.51-.25.57a.44.44,0,0,1-.67-.42c0-.14.24-.37.41-.45S339.67,230.86,339.72,231.13Z" transform="translate(-282.43 -178.71)"/><path class="cls-52" d="M373.9,216.07l-1.22.72a.9.9,0,0,1,.34-1.36C373.44,215.22,373.76,215.64,373.9,216.07Z" transform="translate(-282.43 -178.71)"/><path class="cls-159" d="M317.3,243.21l.18-1a1.46,1.46,0,0,1,.8,1,.62.62,0,0,1,.4.89C317.9,244.3,317.59,243.77,317.3,243.21Z" transform="translate(-282.43 -178.71)"/><path class="cls-160" d="M333.16,211.46c.19.08.46.09.56.23.25.36,0,.6-.34.62-.15,0-.38-.21-.45-.38S333.08,211.62,333.16,211.46Z" transform="translate(-282.43 -178.71)"/><path class="cls-17" d="M381,203.72c0,.22.05.45.07.67a5.13,5.13,0,0,1-1-.21c-.23-.1-.24-.38,0-.58A.59.59,0,0,1,381,203.72Z" transform="translate(-282.43 -178.71)"/><path class="cls-161" d="M317.54,228.68c-.17-.07-.44-.08-.5-.2a.55.55,0,0,1,.26-.81c.12,0,.4.1.49.24A.48.48,0,0,1,317.54,228.68Z" transform="translate(-282.43 -178.71)"/><path class="cls-52" d="M373.21,226.41c.18-.23.45-.3.62-.08a1.5,1.5,0,0,1,.13.66,1.83,1.83,0,0,1-.66,0C373,226.89,373,226.64,373.21,226.41Z" transform="translate(-282.43 -178.71)"/><path class="cls-162" d="M301,281c-.3.1-.64.27-.74-.22a.86.86,0,0,1,.1-.61c.23-.37.54-.23.78,0S301.21,280.78,301,281Z" transform="translate(-282.43 -178.71)"/><path class="cls-163" d="M298,285.72a.65.65,0,0,1-.2.89.61.61,0,0,1-.55-.13.46.46,0,0,1,.16-.8C297.57,285.6,297.8,285.7,298,285.72Z" transform="translate(-282.43 -178.71)"/><path class="cls-164" d="M292.26,281.61c0-.18,0-.43.08-.53s.57-.32.79,0a.51.51,0,1,1-.87.54Z" transform="translate(-282.43 -178.71)"/><path class="cls-165" d="M296.8,271.1l-.38-.76c.45,0,1.09-.81,1.27.2C297.77,270.92,297.44,271.46,296.8,271.1Z" transform="translate(-282.43 -178.71)"/><path class="cls-166" d="M347.12,242.3a.7.7,0,0,1,.7.67c0,.17-.12.52-.21.53a.63.63,0,0,1-.69-.64C346.9,242.69,347.05,242.49,347.12,242.3Z" transform="translate(-282.43 -178.71)"/><path class="cls-85" d="M425.84,205.32a.68.68,0,0,1-.85-.39c0-.11.19-.43.37-.51a.51.51,0,0,1,.77.38C426.16,205,425.94,205.15,425.84,205.32Z" transform="translate(-282.43 -178.71)"/><path class="cls-167" d="M410.29,210.36c-.06.18-.07.49-.18.53a.57.57,0,0,1-.79-.4c0-.11.26-.41.44-.44S410.11,210.24,410.29,210.36Z" transform="translate(-282.43 -178.71)"/><path class="cls-168" d="M311.3,253.09l.46.54v0c-.12.31-.24.62-.37.93-.49,0-1-.13-1-.61S310.89,253.28,311.3,253.09Z" transform="translate(-282.43 -178.71)"/><path class="cls-169" d="M316.41,253.85a.76.76,0,0,1-.59.74,1.15,1.15,0,0,1-.62-.1.73.73,0,0,1,.57-.74A1.82,1.82,0,0,1,316.41,253.85Z" transform="translate(-282.43 -178.71)"/><path class="cls-170" d="M316.13,269.14c0,.09.08.21,0,.27s-.29.13-.38-.11c0-.08,0-.18.08-.27Z" transform="translate(-282.43 -178.71)"/><path class="cls-171" d="M326.55,258.9a1.71,1.71,0,0,1,.47.08c.06,0,.1.17.1.26,0,.32-.18.42-.4.21S326.61,259.1,326.55,258.9Z" transform="translate(-282.43 -178.71)"/><path class="cls-172" d="M336.83,253.54l.61,0a.76.76,0,0,1-.1.3c-.16.24-.37.26-.55.05C336.74,253.81,336.81,253.65,336.83,253.54Z" transform="translate(-282.43 -178.71)"/><path class="cls-173" d="M331.45,258.31c-.06.06-.13.16-.18.15a.29.29,0,0,1-.21-.16c-.07-.27.05-.38.29-.25C331.41,258.09,331.42,258.22,331.45,258.31Z" transform="translate(-282.43 -178.71)"/><path class="cls-174" d="M328.83,222.56l1-.23c-.17.87-.62.35-1,.2Z" transform="translate(-282.43 -178.71)"/><path class="cls-175" d="M447.37,198.94a.4.4,0,0,1-.4.49.74.74,0,0,1-.33-.12,4,4,0,0,1,.42-.49S447.27,198.89,447.37,198.94Z" transform="translate(-282.43 -178.71)"/><path class="cls-176" d="M343,210.09a3.64,3.64,0,0,1-.4.48c-.05,0-.21,0-.32-.07a3.17,3.17,0,0,1,.4-.49S342.86,210.05,343,210.09Z" transform="translate(-282.43 -178.71)"/><path class="cls-177" d="M291.09,285.8l-1.3.74C289.58,285.19,290.18,285.22,291.09,285.8Z" transform="translate(-282.43 -178.71)"/><path class="cls-178" d="M295.29,285.39c-.08,0-.2-.07-.23-.13-.12-.24,0-.37.2-.31.07,0,.15.13.16.21S295.34,285.31,295.29,285.39Z" transform="translate(-282.43 -178.71)"/><path class="cls-179" d="M378.5,206.44c-.15-.24-.31-.48-.45-.72.15-.35.52-.55.74-.32C379.17,205.79,378.65,206.1,378.5,206.44Z" transform="translate(-282.43 -178.71)"/><path class="cls-180" d="M332.33,248.3c.07.06.18.1.2.17.07.28,0,.38-.28.25-.07,0-.1-.17-.09-.26S332.27,248.35,332.33,248.3Z" transform="translate(-282.43 -178.71)"/><path class="cls-79" d="M323.72,247l.37.1a5,5,0,0,1-.4.51s-.3-.05-.31-.11A.38.38,0,0,1,323.72,247Z" transform="translate(-282.43 -178.71)"/><path class="cls-181" d="M307.72,263.19l-.38-.27a2.58,2.58,0,0,1,.45-.31c.06,0,.18.07.28.11C308,262.88,307.84,263,307.72,263.19Z" transform="translate(-282.43 -178.71)"/><path class="cls-182" d="M318.21,247.35l-.59,0c0-.11,0-.29.09-.3a4,4,0,0,1,.6,0C318.28,247.15,318.24,247.25,318.21,247.35Z" transform="translate(-282.43 -178.71)"/><path class="cls-183" d="M368.28,221.18a2.39,2.39,0,0,1-.08.49c0,.06-.19.09-.29.09-.33,0-.43-.19-.2-.42S368.07,221.24,368.28,221.18Z" transform="translate(-282.43 -178.71)"/><path class="cls-184" d="M394.17,206.79c0,.29-.12.45-.41.44a1,1,0,0,1-.32-.12,3.34,3.34,0,0,1,.44-.48S394.07,206.73,394.17,206.79Z" transform="translate(-282.43 -178.71)"/><path class="cls-185" d="M362.66,213a3.15,3.15,0,0,1,.41-.48s.21.06.32.1a3.9,3.9,0,0,1-.42.48S362.76,213,362.66,213Z" transform="translate(-282.43 -178.71)"/><path class="cls-186" d="M311.85,255.26c.46-.31.92-.63,1.44-.12C312.83,255.45,312.37,255.76,311.85,255.26Z" transform="translate(-282.43 -178.71)"/><path class="cls-187" d="M318.68,244.1c-.13-.3-.26-.59-.4-.89.43.11,1,.18,1,.67S319,244.31,318.68,244.1Z" transform="translate(-282.43 -178.71)"/><path class="cls-188" d="M323.86,241.56l.06.6a2,2,0,0,1-.5-.12c-.23-.14-.27-.38-.06-.54S323.69,241.53,323.86,241.56Z" transform="translate(-282.43 -178.71)"/><path class="cls-189" d="M349.7,225.14a1.39,1.39,0,0,1-.09.46c0,.07-.17.11-.27.11-.33,0-.42-.17-.19-.4S349.5,225.2,349.7,225.14Z" transform="translate(-282.43 -178.71)"/><path class="cls-190" d="M313.26,257.38c-.06.07-.11.19-.18.21-.28.08-.38,0-.25-.29a.34.34,0,0,1,.27-.09C313.16,257.21,313.2,257.32,313.26,257.38Z" transform="translate(-282.43 -178.71)"/><path class="cls-191" d="M302.92,268a4.11,4.11,0,0,1-.42.5s-.29-.06-.3-.12a.38.38,0,0,1,.38-.49A.9.9,0,0,1,302.92,268Z" transform="translate(-282.43 -178.71)"/><path class="cls-192" d="M305.92,270.47c-.1,0-.27,0-.28-.06a2.48,2.48,0,0,1-.06-.54c.09,0,.26,0,.28.06A5.24,5.24,0,0,1,305.92,270.47Z" transform="translate(-282.43 -178.71)"/><path class="cls-193" d="M420.31,205.42c-.1-.06-.26-.11-.29-.19-.09-.31.06-.48.38-.45a1.13,1.13,0,0,1,.33.13Z" transform="translate(-282.43 -178.71)"/><path class="cls-194" d="M394.79,204.88c0,.22,0,.43,0,.65-.12,0-.32,0-.33-.07a3.48,3.48,0,0,1-.07-.64Z" transform="translate(-282.43 -178.71)"/><path class="cls-195" d="M313.89,253.16c-.79.24-1.05-.28-1.27-.86C313.46,252,313.7,252.53,313.89,253.16Z" transform="translate(-282.43 -178.71)"/><polygon class="cls-196" points="72.65 46.79 72.49 46.96 72.42 46.78 72.65 46.79"/><path class="cls-197" d="M389.47,205.65a2.47,2.47,0,0,1-.46-.23s.05-.17.08-.27A.51.51,0,0,1,389.47,205.65Z" transform="translate(-282.43 -178.71)"/><path class="cls-198" d="M347.11,221.65c0,.06.11.12.1.17,0,.23-.2.27-.42.11,0,0,0-.2.09-.26S347,221.65,347.11,221.65Z" transform="translate(-282.43 -178.71)"/><path class="cls-199" d="M326.15,232.41l.28.5-.62.27c-.09-.14-.17-.29-.25-.43Z" transform="translate(-282.43 -178.71)"/><polygon class="cls-200" points="116.9 36.59 117.06 36.4 117.15 36.61 116.9 36.59"/><path class="cls-34" d="M339.62,222.44c0-.31,0-.61-.05-.91C339.59,221.83,339.6,222.13,339.62,222.44Z" transform="translate(-282.43 -178.71)"/><path class="cls-52" d="M321.53,263.72c.06.61-.17.7-.64.36Z" transform="translate(-282.43 -178.71)"/><path class="cls-201" d="M436,189.2c-.1,0-.27,0-.3-.12s.05-.21.09-.31.27,0,.3.11S436,189.09,436,189.2Z" transform="translate(-282.43 -178.71)"/><path class="cls-1" d="M311.76,253.63c.1,0,.27,0,.28,0,.08.2,0,.21-.28,0Z" transform="translate(-282.43 -178.71)"/><path class="cls-202" d="M360.6,290.78c4.17-2.92,6.85-6.75,5.81-12.15-.37-1.91.46-2.15,2-2.41,4.95-.81,9.89-1.71,14.82-2.67,7.09-1.37,14-3.36,20-7.51a18.82,18.82,0,0,0,4.77-4.3c3.22-4.43,2.9-8.68-1-12.5-1.45-1.41-3.07-2.64-4.73-4.05a30,30,0,0,1,2.38-2.15c8.26-5.94,16.23-12.27,24.09-18.73,5.63-4.63,11.46-9,16.63-14.22a39.4,39.4,0,0,0,8.58-11.83c2.38-5.39,1.13-10.07-3.51-13.68a27,27,0,0,0-2.67-1.79,28.44,28.44,0,0,0-14.32-4.06A73.58,73.58,0,0,0,403,184.58c-2.66,1.12-4.78,1.94-7.22-.79-2.08-2.33-5.27-3.19-8.49-3.34A31.06,31.06,0,0,0,374,182.76c-6.42,2.61-11.87,6.68-17.12,11.07-1.18,1-2,1.7-3.59.33-4.64-4-9.79-3.83-15-1.15a42.48,42.48,0,0,0-10.34,7.09c-23.08,22.23-37.38,49.4-45.25,80.15-.68,2.64.39,4.3,3.11,5.11,2.41.72,4.86,1.26,7.29,1.93a237.84,237.84,0,0,0,37.58,7.58,71.57,71.57,0,0,0,18.95-.06A25.63,25.63,0,0,0,360.6,290.78Zm-56.43-6.13c-5.43-1.36-10.76-3.13-16.37-4.79,1-3.07,2-6.35,3.11-9.63,7.68-23.53,19.69-44.55,36.89-62.52a49.5,49.5,0,0,1,11.72-9.4c5.19-2.87,8-2.45,12.1,1.76,2.12,2.18,3.29,2.28,5.85.29,2.82-2.21,5.53-4.58,8.39-6.74a43.34,43.34,0,0,1,11.93-6.54,26.36,26.36,0,0,1,8.11-1.3,9.06,9.06,0,0,1,7.67,3.19c2.73,3.45,5.76,3.1,9.22,1.49a71,71,0,0,1,18.53-5.52,54.22,54.22,0,0,1,13.93-.7,22.33,22.33,0,0,1,11.87,4.61c2.72,2.1,3.26,4.09,1.88,7.23a34.23,34.23,0,0,1-7.85,10.61c-5.48,5.37-11.71,9.87-17.54,14.84-8.22,7-17.12,13.09-25.46,19.93a12.13,12.13,0,0,0-1.62,1.41c-1.83,2.09-1.62,4.15.64,5.81,1.63,1.2,3.46,2.14,5,3.43,3.44,2.86,3.42,4.9.1,7.89a30.89,30.89,0,0,1-12.35,6.37c-6.79,2-13.79,3-20.72,4.28-1.06.2-2.13.35-3.18.55-5.36,1-6.22,2.28-5.1,7.55.79,3.74-1.05,6.8-5.19,8.68-5.27,2.39-10.88,2.88-16.51,2.67A171,171,0,0,1,304.17,284.65Z" transform="translate(-282.43 -178.71)"/></g></svg>