<svg xmlns="http://www.w3.org/2000/svg" xmlns:xlink="http://www.w3.org/1999/xlink" viewBox="0 0 2825.5 2800.61"><defs><style>.cls-1{fill:url(#linear-gradient);}.cls-2{fill:url(#linear-gradient-2);}.cls-3{fill:url(#linear-gradient-3);}.cls-4{fill:url(#linear-gradient-4);}.cls-5{isolation:isolate;}.cls-6{fill:#f4f7fa;}.cls-7{clip-path:url(#clip-path);}.cls-8{mix-blend-mode:soft-light;}.cls-9{fill:#fff;}.cls-10{clip-path:url(#clip-path-2);}.cls-11{fill:url(#linear-gradient-7);}.cls-12{clip-path:url(#clip-path-3);}.cls-13{clip-path:url(#clip-path-4);}.cls-14{fill:url(#linear-gradient-10);}.cls-15{fill:url(#linear-gradient-11);}.cls-16{fill:url(#linear-gradient-12);}.cls-17,.cls-20{opacity:0.35;}.cls-17,.cls-20,.cls-28,.cls-34{mix-blend-mode:multiply;}.cls-17{fill:url(#linear-gradient-13);}.cls-18{fill:url(#linear-gradient-14);}.cls-19{fill:url(#linear-gradient-15);}.cls-21{fill:url(#linear-gradient-16);}.cls-22{fill:url(#linear-gradient-17);}.cls-23{fill:url(#linear-gradient-18);}.cls-24{fill:url(#linear-gradient-19);}.cls-25{fill:url(#linear-gradient-20);}.cls-26{fill:url(#linear-gradient-21);}.cls-27{fill:url(#linear-gradient-22);}.cls-28,.cls-34{opacity:0.3;}.cls-29{fill:url(#linear-gradient-23);}.cls-30{fill:url(#linear-gradient-24);}.cls-31{fill:url(#linear-gradient-25);}.cls-32{fill:url(#linear-gradient-26);}.cls-33{fill:url(#linear-gradient-27);}.cls-34{fill:url(#linear-gradient-28);}.cls-35{fill:url(#linear-gradient-29);}.cls-36{fill:url(#linear-gradient-30);}.cls-37{fill:url(#linear-gradient-31);}.cls-38{fill:url(#linear-gradient-32);}.cls-39{fill:url(#linear-gradient-33);}.cls-40{fill:url(#linear-gradient-34);}.cls-41{fill:url(#linear-gradient-35);}</style><linearGradient id="linear-gradient" x1="2565.68" y1="1549.37" x2="2161.77" y2="2199.79" gradientUnits="userSpaceOnUse"><stop offset="0" stop-color="#e38ddd"/><stop offset="1" stop-color="#9571f6"/></linearGradient><linearGradient id="linear-gradient-2" x1="2907.08" y1="1413.87" x2="2440.57" y2="2805.75" gradientUnits="userSpaceOnUse"><stop offset="0" stop-color="#aa80f9"/><stop offset="1" stop-color="#6165d7"/></linearGradient><linearGradient id="linear-gradient-3" x1="1902.8" y1="997.85" x2="1384.56" y2="1832.35" xlink:href="#linear-gradient"/><linearGradient id="linear-gradient-4" x1="1347.2" y1="1132.33" x2="974.89" y2="2243.16" xlink:href="#linear-gradient-2"/><clipPath id="clip-path" transform="translate(-456.05 -507.1)"><path class="cls-1" d="M2454.53,2877.3c-83.19-77-194.47-203.35-246.26-383.43-59.48-206.78,13.84-295.46-10.83-538.08-35.22-346.35-283.57-473.52-206.74-628,37.47-75.33,132.76-128.28,214.76-119,233.93,26.34,476.71,572,323.4,922.59-69.34,158.58-180.37,206-204.7,374.87C2302.66,2655.44,2385.79,2790.44,2454.53,2877.3Z"/></clipPath><clipPath id="clip-path-2" transform="translate(-456.05 -507.1)"><path class="cls-2" d="M2344.72,2882.08c-56.17-70.8-131.16-188.43-128.15-332.54,5.25-251.4,242-300.41,322.17-611.13,64.66-250.61-55.25-350.93,56.81-555.83,18.76-34.3,115.64-219.52,262.76-222,82.91-1.42,145,55.72,156.6,66.45,176,162.12,146.35,585.43-38.4,874.06-106.14,165.83-169.85,166.26-383.56,409.58A1715.77,1715.77,0,0,0,2344.72,2882.08Z"/></clipPath><linearGradient id="linear-gradient-7" x1="151.94" y1="2151.14" x2="-1152.37" y2="3222.54" gradientTransform="translate(2580.4 -104.54) rotate(-10.06)" gradientUnits="userSpaceOnUse"><stop offset="0" stop-color="#ff9085"/><stop offset="1" stop-color="#fb6fbb"/></linearGradient><clipPath id="clip-path-3" transform="translate(-456.05 -507.1)"><path class="cls-3" d="M1597.32,2600.47c75.75-106.25,171.63-274.62,187.91-489.68,18.68-246.93-84.67-329.73-113.59-608.94-41.28-398.55,208.88-599.93,86.18-756.07-59.83-76.14-179.6-113.53-269.85-84-257.48,84.37-403.54,756-148.79,1115.35,115.22,162.5,251.41,189.95,318.32,374.61C1716.62,2315,1654.49,2486.52,1597.32,2600.47Z"/></clipPath><clipPath id="clip-path-4" transform="translate(-456.05 -507.1)"><path class="cls-4" d="M1722.2,2580.2c46.75-92.92,103.77-243,66.68-404.72-64.69-282.1-343-282-505.94-613.42-131.46-267.32-19.77-408.4-194-613.13-29.15-34.27-181.63-220.36-348-188.79-93.77,17.79-150.33,96.69-161,111.5-160.48,223.86-28.08,694,247.6,976.06,158.39,162.08,230.28,147.67,528,371.93C1530.57,2351.4,1650.15,2488.13,1722.2,2580.2Z"/></clipPath><linearGradient id="linear-gradient-10" x1="-965.63" y1="2278.02" x2="-2466.93" y2="3511.23" gradientTransform="matrix(-1, 0.03, 0.03, 1, -375.76, -499.68)" xlink:href="#linear-gradient"/><linearGradient id="linear-gradient-11" x1="1125.68" y1="1221.09" x2="1294.76" y2="1283.89" gradientUnits="userSpaceOnUse"><stop offset="0" stop-color="#444b8c"/><stop offset="1" stop-color="#26264f"/></linearGradient><linearGradient id="linear-gradient-12" x1="652.08" y1="1802.19" x2="1123.07" y2="2592" gradientUnits="userSpaceOnUse"><stop offset="0" stop-color="#ffc444"/><stop offset="1" stop-color="#f36f56"/></linearGradient><linearGradient id="linear-gradient-13" x1="724.9" y1="1758.76" x2="1195.89" y2="2548.58" xlink:href="#linear-gradient-12"/><linearGradient id="linear-gradient-14" x1="1015.95" y1="1613.26" x2="2341.97" y2="2634.95" xlink:href="#linear-gradient-12"/><linearGradient id="linear-gradient-15" x1="1732.56" y1="929.69" x2="1867.82" y2="1792.01" xlink:href="#linear-gradient-11"/><linearGradient id="linear-gradient-16" x1="1489.13" y1="2098.11" x2="2815.16" y2="3119.8" xlink:href="#linear-gradient-12"/><linearGradient id="linear-gradient-17" x1="1433.82" y1="1699.24" x2="1455.59" y2="1707.32" gradientTransform="translate(2840.63 -136.7) rotate(76.72)" xlink:href="#linear-gradient-11"/><linearGradient id="linear-gradient-18" x1="1682.06" y1="1187.13" x2="1703.83" y2="1195.21" xlink:href="#linear-gradient-11"/><linearGradient id="linear-gradient-19" x1="1332.46" y1="2688.79" x2="1369.84" y2="2980.95" gradientTransform="matrix(-1, 0, 0, 1, 3691.38, 0)" xlink:href="#linear-gradient-2"/><linearGradient id="linear-gradient-20" x1="3290.52" y1="1522.41" x2="2494.5" y2="2179.52" xlink:href="#linear-gradient-11"/><linearGradient id="linear-gradient-21" x1="969.54" y1="2880.08" x2="959.9" y2="3070.49" gradientTransform="matrix(-1, 0, 0, 1, 3235.34, -507.1)" gradientUnits="userSpaceOnUse"><stop offset="0" stop-color="#893976"/><stop offset="1" stop-color="#311944"/></linearGradient><linearGradient id="linear-gradient-22" x1="2141.04" y1="2752.89" x2="2191.81" y2="3149.63" gradientTransform="translate(522.12)" xlink:href="#linear-gradient-2"/><linearGradient id="linear-gradient-23" x1="2142.06" y1="2760.8" x2="2191.56" y2="3147.66" gradientTransform="translate(522.12)" xlink:href="#linear-gradient-2"/><linearGradient id="linear-gradient-24" x1="2357.32" y1="2724.81" x2="2406.99" y2="3113.03" gradientTransform="translate(522.12)" xlink:href="#linear-gradient-2"/><linearGradient id="linear-gradient-25" x1="1020.32" y1="2072.91" x2="1025.42" y2="2315.04" gradientTransform="matrix(-1, 0, 0, 1, 3691.38, 0)" gradientUnits="userSpaceOnUse"><stop offset="0" stop-color="#311944"/><stop offset="1" stop-color="#a03976"/></linearGradient><linearGradient id="linear-gradient-26" x1="3300.96" y1="2409.75" x2="2804.12" y2="2238.8" gradientTransform="matrix(1, 0, 0, 1, 0, 0)" xlink:href="#linear-gradient-25"/><linearGradient id="linear-gradient-27" x1="1035.93" y1="3050.89" x2="1599.45" y2="3050.89" gradientTransform="matrix(-1, 0, 0, 1, 3691.38, 0)" xlink:href="#linear-gradient-21"/><linearGradient id="linear-gradient-28" x1="1035.93" y1="3052.21" x2="1599.45" y2="3052.21" gradientTransform="matrix(-1, 0, 0, 1, 3691.38, 0)" xlink:href="#linear-gradient-21"/><linearGradient id="linear-gradient-29" x1="1195.5" y1="3270.16" x2="1087.04" y2="3135.19" gradientTransform="matrix(-1, 0, 0, 1, 3691.38, 0)" xlink:href="#linear-gradient-2"/><linearGradient id="linear-gradient-30" x1="1128.92" y1="3238.11" x2="979.48" y2="3050.11" gradientTransform="matrix(-1, 0, 0, 1, 3691.38, 0)" xlink:href="#linear-gradient-12"/><linearGradient id="linear-gradient-31" x1="807.2" y1="3044.59" x2="683.03" y2="3302.85" gradientTransform="matrix(-1, 0, 0, 1, 3691.38, 0)" xlink:href="#linear-gradient-21"/><linearGradient id="linear-gradient-32" x1="1831.79" y1="2631.22" x2="1889.34" y2="2337.55" gradientTransform="translate(522.12)" xlink:href="#linear-gradient-25"/><linearGradient id="linear-gradient-33" x1="12267.43" y1="6166.57" x2="12324.98" y2="5872.89" gradientTransform="matrix(-0.95, 0.31, 0.31, 0.95, 12487.59, -6928.52)" xlink:href="#linear-gradient-25"/><linearGradient id="linear-gradient-34" x1="2644.11" y1="2389.9" x2="2561.71" y2="2487.16" xlink:href="#linear-gradient-12"/><linearGradient id="linear-gradient-35" x1="2368.21" y1="2547.11" x2="2820.77" y2="2547.11" gradientTransform="matrix(1, 0, 0, 1, 0, 0)" xlink:href="#linear-gradient-7"/></defs><title>Wavy_Gen-04_Single-02 [Converted]</title><g class="cls-5"><g id="Illustration"><path class="cls-6" d="M2942.42,2915.7c-73.36,75.62-139,120.08-189.27,153.64-490.18,327.29-1050.51,233-1223.74,200.72-279.51-52-515.44-88.72-718.16-271.87C350.63,2582,373,1713.91,725,1176.14c41.73-63.77,393.17-584.71,954.71-658.11,13.74-1.8,24-2.82,33-3.77,86.87-9.2,625.18-57.74,1064.12,310,62.83,52.64,163.95,147.59,257.71,292.41C3377.36,1646.17,3378.45,2466.26,2942.42,2915.7Z" transform="translate(-456.05 -507.1)"/><path class="cls-1" d="M2454.53,2877.3c-83.19-77-194.47-203.35-246.26-383.43-59.48-206.78,13.84-295.46-10.83-538.08-35.22-346.35-283.57-473.52-206.74-628,37.47-75.33,132.76-128.28,214.76-119,233.93,26.34,476.71,572,323.4,922.59-69.34,158.58-180.37,206-204.7,374.87C2302.66,2655.44,2385.79,2790.44,2454.53,2877.3Z" transform="translate(-456.05 -507.1)"/><g class="cls-7"><g class="cls-8"><path class="cls-9" d="M2300.73,2651.68a821.28,821.28,0,0,1-24.05-138.63c-9.2-107.17,7-177.82,27.52-267.26,13.32-58.09,28.42-123.94,39.08-212.2,19.95-165.08,23.46-221.1,10.21-300.7-26.24-157.61-98.94-271.62-139.94-325.56A732.81,732.81,0,0,0,2000,1218.14l1.76-3a736.2,736.2,0,0,1,214.53,190.08c41.2,54.19,114.24,168.75,140.6,327.09,13.33,80,9.81,136.22-10.18,301.69-10.68,88.44-25.81,154.38-39.15,212.56-20.44,89.14-36.59,159.55-27.44,266.18a817.58,817.58,0,0,0,23.94,138.05Z" transform="translate(-456.05 -507.1)"/><path class="cls-9" d="M2328,1626.2l-1.43-2.48c-55.49-95.91-152.21-124.25-223.57-131.14-77.52-7.48-142.76,8-143.41,8.16l-.82-3.37c.66-.16,66.37-15.78,144.46-8.26,71.58,6.9,168.39,35.16,224.86,130.35,6.75-11.47,34.6-62,46.18-131.81,12.11-73.17,8.33-183.2-78.52-291.88l2.71-2.17c87.69,109.73,91.47,220.85,79.2,294.75-13.28,80-47.78,134.89-48.13,135.43Z" transform="translate(-456.05 -507.1)"/><path class="cls-9" d="M2349.15,1989.48l-.36-1.41c-27.88-109.06-88.5-167.14-134.44-196.67-49.73-32-93.35-38.24-93.78-38.3l.47-3.44c.44.06,44.82,6.45,95.19,38.82,46.26,29.73,107.22,88.07,135.55,197.29,17.89-1.88,195.49-24.59,264.93-187.64l3.19,1.36c-73.64,172.9-267.35,189.73-269.3,189.88Z" transform="translate(-456.05 -507.1)"/><path class="cls-9" d="M2340,2228.05c-18.68,0-29.6-2.5-29.8-2.54l-1.21-.29-.12-1.24c-11.45-120-158.15-245.54-159.63-246.79l2.25-2.65c1.48,1.25,148.21,126.78,160.71,247.83,13.87,2.59,144.71,21.87,281.59-136.18l2.63,2.27c-76,87.73-149.66,120.34-198.09,132.24A245.29,245.29,0,0,1,2340,2228.05Z" transform="translate(-456.05 -507.1)"/></g></g><path class="cls-2" d="M2344.72,2882.08c-56.17-70.8-131.16-188.43-128.15-332.54,5.25-251.4,242-300.41,322.17-611.13,64.66-250.61-55.25-350.93,56.81-555.83,18.76-34.3,115.64-219.52,262.76-222,82.91-1.42,145,55.72,156.6,66.45,176,162.12,146.35,585.43-38.4,874.06-106.14,165.83-169.85,166.26-383.56,409.58A1715.77,1715.77,0,0,0,2344.72,2882.08Z" transform="translate(-456.05 -507.1)"/><g class="cls-10"><g class="cls-8"><path class="cls-9" d="M2370.77,2989.49c-64.66-207.9-60.57-374,12.14-493.58,35.6-58.56,74.45-86.26,115.57-115.59,44.21-31.52,89.92-64.12,132.69-138.8,41.56-72.56,43.77-121.45,46.56-183.35,2.52-55.69,5.65-125,38.84-233.43,29.09-95,59-148.56,85.36-195.77,28.56-51.14,51.12-91.52,62-165.79,17.72-121.31-9-249.44-79.27-380.84l3.06-1.63c70.68,132.06,97.48,260.91,79.65,383-11,74.9-33.64,115.54-62.38,167-26.29,47.06-56.09,100.41-85.07,195.1-33.06,108-36.18,177.08-38.69,232.57-2.81,62.36-5,111.62-47,184.92-43.14,75.33-89.17,108.16-133.69,139.9-40.82,29.11-79.38,56.61-114.61,114.56-72.17,118.74-76.14,283.85-11.79,490.75Z" transform="translate(-456.05 -507.1)"/><path class="cls-9" d="M2790.74,1653l-.44-2.29c-.58-3.07-60.51-308.08-215.08-362.08l1.15-3.27c81.87,28.6,136.62,126.33,168.13,203.28,30.79,75.2,46,145.73,48.76,159.15,143.72-74.84,219.28-186.89,257.4-267.9,41.52-88.24,48.8-159.7,48.87-160.42l3.46.34c-.07.71-7.39,72.67-49.13,161.43-38.52,81.92-115.08,195.38-261.06,270.69Z" transform="translate(-456.05 -507.1)"/><path class="cls-9" d="M2689.29,1941.89l-.35-1.45c-19.64-81.22-67.08-166.83-103.41-224.35-39.41-62.38-74.62-106.08-75-106.52l2.7-2.18c.35.44,35.67,44.27,75.17,106.81,36.27,57.4,83.56,142.7,103.53,224,11.63-1.24,90.17-10.91,186.49-52.88,95.86-41.78,229.46-125,321.54-284.38l3,1.74c-92.57,160.22-226.89,243.89-323.27,285.87-104.42,45.48-188.11,53.19-188.94,53.26Z" transform="translate(-456.05 -507.1)"/><path class="cls-9" d="M2577.84,2356c-24.79,0-38.75-1.65-39.29-1.72l-1.81-.23.32-1.8c33-181.79-121.5-366.12-123.07-368l2.65-2.24c1.57,1.84,156.08,186.2,124.17,369,10.05,1,61.19,5.19,137.86-5.95,78.84-11.44,201.57-41.88,338.57-121.84l1.75,3C2821.85,2341.36,2651.74,2356,2577.84,2356Z" transform="translate(-456.05 -507.1)"/></g></g><path class="cls-11" d="M2305.24,2817.37a962.32,962.32,0,0,1,148.64-226.54c136.36-154.43,233.88-162.12,265.9-273.79,33.15-115.59-55.66-162-12.65-294.42,3.62-11.14,51.08-151,155.54-166.72,73.07-11,134.81,44.68,163.77,70.8,112.42,101.37,193.37,306,112,474.24-77.11,159.52-261,206-319.63,220.4-102.8,25.26-143.29,2.21-246.29,30.59C2447.3,2686.46,2359.07,2761.37,2305.24,2817.37Z" transform="translate(-456.05 -507.1)"/><path class="cls-3" d="M1597.32,2600.47c75.75-106.25,171.63-274.62,187.91-489.68,18.68-246.93-84.67-329.73-113.59-608.94-41.28-398.55,208.88-599.93,86.18-756.07-59.83-76.14-179.6-113.53-269.85-84-257.48,84.37-403.54,756-148.79,1115.35,115.22,162.5,251.41,189.95,318.32,374.61C1716.62,2315,1654.49,2486.52,1597.32,2600.47Z" transform="translate(-456.05 -507.1)"/><g class="cls-12"><g class="cls-8"><path class="cls-9" d="M1717.66,2310.24l-3.47-.18a940.32,940.32,0,0,0-5.29-161.22c-14.62-122.34-49.28-197.94-93.17-293.64-28.63-62.44-61.09-133.21-93.8-230.38-61.2-181.78-78.3-244.26-82-337.53-7.3-184.57,48.22-330.69,82-401.37a846.82,846.82,0,0,1,197.28-264.29l2.32,2.58A843.57,843.57,0,0,0,1525,887.42c-33.61,70.38-88.91,215.91-81.63,399.73,3.67,92.83,20.74,155.16,81.81,336.57,32.65,97,65.07,167.67,93.67,230,44,96,78.77,171.79,93.46,294.68A945.2,945.2,0,0,1,1717.66,2310.24Z" transform="translate(-456.05 -507.1)"/><path class="cls-9" d="M1447.33,1160.45l-2-2c-.52-.54-52.19-54.25-85.85-141.29-31.08-80.37-52.77-206.4,20.35-350.49l3.1,1.58c-72.55,142.94-51,267.95-20.21,347.65,29.69,76.78,73.42,127.35,83.14,138,41.25-120.67,143.82-175.2,222.91-199.71,86.21-26.72,163.88-24.48,164.65-24.46l-.12,3.47c-.76,0-77.93-2.23-163.59,24.33-78.88,24.47-181.34,79.06-221.49,200.23Z" transform="translate(-456.05 -507.1)"/><path class="cls-9" d="M1472.3,1576.89a446.24,446.24,0,0,1-92.48-9.75c-65.06-13.94-156.15-50-220.6-142.81l2.85-2c63.77,91.81,154,127.56,218.36,141.38,63.63,13.66,115.36,9.21,124.53,8.24,6.33-129.76,61.4-209.76,106.57-254.07,49.17-48.22,97.63-65.77,98.12-65.94l1.16,3.27c-.48.17-48.34,17.52-97,65.27-44.85,44-99.55,123.69-105.48,253.11l-.07,1.46-1.44.19A309.12,309.12,0,0,1,1472.3,1576.89Z" transform="translate(-456.05 -507.1)"/><path class="cls-9" d="M1518.37,1847.32q-5.47,0-11.23-.21c-57.32-2.09-147.92-21.6-254-102.66l2.11-2.76c105.36,80.51,195.21,99.88,252,102,55.49,2,91-11.56,97.6-14.34-7.48-72.64,26.19-154.66,55.85-210.82,32.28-61.11,66.91-105.62,67.26-106.06l2.73,2.13c-1.37,1.76-137.41,177.58-122.25,315.64l.13,1.24-1.12.53C1607.11,1832.12,1573.89,1847.32,1518.37,1847.32Z" transform="translate(-456.05 -507.1)"/></g></g><path class="cls-4" d="M1722.2,2580.2c46.75-92.92,103.77-243,66.68-404.72-64.69-282.1-343-282-505.94-613.42-131.46-267.32-19.77-408.4-194-613.13-29.15-34.27-181.63-220.36-348-188.79-93.77,17.79-150.33,96.69-161,111.5-160.48,223.86-28.08,694,247.6,976.06,158.39,162.08,230.28,147.67,528,371.93C1530.57,2351.4,1650.15,2488.13,1722.2,2580.2Z" transform="translate(-456.05 -507.1)"/><g class="cls-13"><g class="cls-8"><path class="cls-9" d="M1717.68,2707.31l-3.45-.34c24.16-248.29-18.93-433.51-128.08-550.5-53.28-57.12-103.19-79.1-156-102.38-57.55-25.36-117.07-51.58-183.27-126.35-64.41-72.74-78.42-127.71-96.16-197.3-15.8-62-35.47-139.09-98-253.12-54.81-100-100.87-153.12-141.52-200-44.39-51.24-79.45-91.71-109.28-173.51-48.61-133.34-48.53-284.77.24-450.06l3.33,1c-48.55,164.57-48.66,315.26-.3,447.89,29.6,81.2,64.48,121.46,108.64,172.43,40.75,47,86.94,100.35,141.93,200.63,62.74,114.41,82.46,191.77,98.31,253.93,17.63,69.14,31.55,123.75,95.4,195.86,65.69,74.2,124.86,100.27,182.07,125.47,53.18,23.43,103.41,45.55,157.18,103.19C1698.54,2271.85,1741.94,2458,1717.68,2707.31Z" transform="translate(-456.05 -507.1)"/><path class="cls-9" d="M932,1299l-2.24-.62c-182-50.73-294.8-160.66-357.34-243.94-67.77-90.24-92.82-169.58-93.07-170.37l3.32-1c.24.79,25.16,79.65,92.61,169.43,62,82.47,173.45,191.22,353.19,241.94-.05-14.83.49-98.42,17.74-191.05,17.51-94,56.33-216.9,141.83-268.22l1.79,3c-161.7,97.07-157.93,455-157.87,458.57Z" transform="translate(-456.05 -507.1)"/><path class="cls-9" d="M1059.19,1603.39a850.13,850.13,0,0,1-172.14-18.13c-118.39-24.77-289.27-87.64-431-246.51l2.59-2.31c141.07,158.12,311.15,220.72,429,245.4,119.08,24.94,210.23,17.23,222.82,16,6.65-184.61,122.87-412.36,124-414.65l3.09,1.59c-1.18,2.29-117.68,230.59-123.72,414.69l-.05,1.49-1.48.18C1111.92,1601.17,1092.29,1603.39,1059.19,1603.39Z" transform="translate(-456.05 -507.1)"/><path class="cls-9" d="M1162.61,2058.26c-94.88,0-215.95-13.58-353.52-59.76l1.1-3.29c316.42,106.2,545.14,39.52,567.24,32.56-78.9-198.47,52.22-442.46,53.56-444.91l3,1.66c-1.34,2.45-132.42,246.44-52.7,443.68l.68,1.69-1.72.6C1378.92,2031,1297.08,2058.26,1162.61,2058.26Z" transform="translate(-456.05 -507.1)"/></g></g><path class="cls-14" d="M1751.56,2498a1107.87,1107.87,0,0,0-220.47-220.56c-189.78-142.16-301.47-128-363.66-246.39-64.39-122.52,24.85-195.6-54.58-334.77-6.68-11.7-92.86-158.23-214.25-151.53-84.93,4.7-141.49,81.87-168,118.07-103,140.53-146.4,390.06-15.41,560.66,124.19,161.75,342.34,171.14,411.75,173.67,121.75,4.43,162-31,284.71-23.1C1560.87,2383.71,1677.81,2447.52,1751.56,2498Z" transform="translate(-456.05 -507.1)"/><path class="cls-15" d="M2029,1691.62a19.32,19.32,0,0,1-19.21-17.49c-16.92-177.54-74.81-346.23-163-475C1768.64,1085.06,1675.63,1017,1597.92,1017h-.26c-283,.55-342.25,650.39-342.81,657a19.33,19.33,0,0,1-38.51-3.31c2.43-28.24,63-691.67,381.25-692.3h.34c91.82,0,194.11,72.5,280.72,199,91.82,134.08,152,309.22,169.58,493.16a19.33,19.33,0,0,1-17.4,21.07Q2029.89,1691.62,2029,1691.62Z" transform="translate(-456.05 -507.1)"/><path class="cls-16" d="M849.81,3029l372.59,188.64,225.75-692.76-372-928.76L970.7,1622,810.65,2955.88A72.35,72.35,0,0,0,849.81,3029Z" transform="translate(-456.05 -507.1)"/><path class="cls-17" d="M1448.15,2524.91l-372-928.75L1014,1611.42a2022.81,2022.81,0,0,0,1,300.36c24.94,316.21,107.76,404.21,67.64,624.8-33.36,183.43-106.21,208.32-99.84,331.73,6.93,134.4,100.68,247,212.13,335.45l27.49,13.92Z" transform="translate(-456.05 -507.1)"/><polygon class="cls-18" points="620.13 1089.06 2009.39 1089.06 2469.17 2573.37 766.36 2710.58 620.13 1089.06"/><path class="cls-19" d="M1506.55,1723.38a19.33,19.33,0,0,1-18.8-14.92c-4-16.83-95.23-414.55,33.47-609.74,36.89-56,88.43-90.1,153.18-101.52,332.7-58.63,537.54,656,546.09,686.39a19.32,19.32,0,0,1-37.2,10.46c-2-7.12-203.64-711.5-502.18-658.79-54.63,9.63-96.38,37.35-127.62,84.73-119.63,181.44-29,575.69-28.11,579.65a19.32,19.32,0,0,1-18.83,23.74Z" transform="translate(-456.05 -507.1)"/><g class="cls-20"><path class="cls-21" d="M2465.43,1596.16h-689.2c-34,34.58-58.11,74.42-60.42,119.12-10.83,210,472,279,518.52,566.83,33.59,207.63-173.08,447.21-357.49,553.95-194.28,112.45-325.92,55.5-457.32,180.35-57.74,54.86-92.89,123.45-113.8,194.56l1619.49-130.49Z" transform="translate(-456.05 -507.1)"/></g><circle class="cls-22" cx="1506.68" cy="1726.3" r="54" transform="translate(-975.65 2288.95) rotate(-76.72)"/><circle class="cls-23" cx="1754.92" cy="1214.19" r="54"/><path class="cls-24" d="M2356.33,2366.43s-182.2,192.15-146.51,314.19,321.41-84.6,321.41-84.6Z" transform="translate(-456.05 -507.1)"/><path class="cls-25" d="M2499.52,2248.51c-17.88-2.75-72.77-26.94-87.44-73-10-31.39,7.41-48.5-5.66-80.54-14.85-36.38-44.29-31.4-71.09-66.64-31.25-41.1-36.93-108-12.34-151.72,19.82-35.22,43.19-26.71,80.48-74.33,33-42.08,23-59.32,46.18-80.8,45.13-41.82,103.66,4.19,184.31-14.26,112.05-25.64,109.86-139.78,198.16-146.88,81.18-6.53,181.25,82.06,196.11,167.05,5.95,34.06-3.69,52.18,12.64,82,25.08,45.86,69.64,33.77,105.55,79.39,27.16,34.5,41.65,92.21,19.62,126.61-25.8,40.3-81.76,17.51-107.77,57.1-28,42.63,23.06,90.11-3.75,135.06-25.32,42.45-97.28,47.44-138.94,45.36-50.2-2.51-98.92-17.08-148.53-25.15C2675,2212.81,2589.89,2262.4,2499.52,2248.51Z" transform="translate(-456.05 -507.1)"/><polygon class="cls-26" points="2275.96 2519.13 1826.19 2406.63 1803.69 2515.91 2215.45 2705.94 2541.48 2625.41 2738.15 2432.3 2275.96 2519.13"/><path class="cls-27" d="M2302.08,2454.09c-15.07-36.67,88.34-137.09,218-174.22,94.12-27,173.9-11.92,215.41-4.59,134.64,23.77,218.49,91.07,250.05,119.36-25.84,14-97.16,56.8-132.48,138-34.15,78.46-9.74,150.55,3,192.42,11.07,36.48,27.91,91.92,77.68,132,26.29,21.18,55.33,31.93,113.42,53.44,68.5,25.36,111,32.37,110.66,46.09-.39,17.49-70,31.76-67.54,42.67.18.81.69.87.76,1.46.94,7.61-77.21,26.32-176,41.18-115.5,17.37-173.25,26.06-228.46,16.61-86.06-14.72-71.59-41.22-157.84-56.07-100.34-17.28-145.92,14.12-236.76-20.77-15.3-5.88-76.53-29.49-74.77-54,2.17-30.31,103.16-19.95,191.07-97.61,38.72-34.2,57.46-70.07,63.94-83.53,8.38-17.42,43.56-107.39,8.28-205.36a61.71,61.71,0,0,0-6-12.25C2431.84,2456,2316.32,2488.7,2302.08,2454.09Z" transform="translate(-456.05 -507.1)"/><g class="cls-28"><path class="cls-29" d="M3047.13,2910.49c-58.09-21.51-87.13-32.26-113.42-53.44-49.77-40.12-66.6-95.56-77.68-132-12.71-41.87-37.12-114-3-192.42q1.49-3.39,3.05-6.69c-22.29,22-56.83,48.61-99.35,48.63-55.66,0-91.84-45.41-120.76-29.32-19.66,10.93-21.47,42.24-22.42,58.65-6.21,107,86.82,179.44,67.28,203.57-13.91,17.18-59.05-21.49-107,0-40.34,18.09-39.45,57.2-70.73,79.36-25.07,17.75-70,24-156.69-15.4-67.6,33.66-127.62,33-129.29,56.27-1.76,24.51,59.47,48.12,74.76,54,90.85,34.89,136.43,3.49,236.77,20.77,86.25,14.85,71.78,41.35,157.84,56.07,55.21,9.45,113,.76,228.46-16.61,98.78-14.86,176.93-33.57,176-41.18-.07-.59-.58-.65-.76-1.46-2.43-10.91,67.15-25.18,67.54-42.67C3158.1,2942.86,3115.63,2935.85,3047.13,2910.49Z" transform="translate(-456.05 -507.1)"/></g><path class="cls-30" d="M2637.73,2593.51c-8.56,79.53,130.4,184.45,263.95,182.87,27.58-.33,102.15-1.21,149.91-56.48,53.52-61.93,35.66-148.57,30.51-174.3-33.47-167.21-230-236.8-248.08-242.89-47.83,74.12-47.06,120.87-37,150.13,13.15,38.09,55.17,45.46,73.7,101.47,4.79,14.49,15,45.46-.13,65.08-16.64,21.51-54.24,16.92-75.22,14.36-64.4-7.86-113.28-45.39-143.47-75.51C2646,2566.48,2639.34,2578.46,2637.73,2593.51Z" transform="translate(-456.05 -507.1)"/><path class="cls-31" d="M2680.22,2171.58s8.59,68.64,33.93,84.37,66.29,36.27,70.81,41.85-157,22.93-237-17.45h0c26.37-5.5,33.54-7.52,33.54-7.52,7.15-2,20.5-5.79,33.89-13.42,9.11-5.18,23.79-15.32,37.26-34.46l-.3-38Z" transform="translate(-456.05 -507.1)"/><path class="cls-32" d="M2681.35,2203.76s-20.12,58.3-80.66,55.13c-54.21-2.83-63.72-137.69-29.44-163.91,11.43-8.75,35.77-13.89,54.63-8.87,13.27,3.54,54.34,31.37,50,78,11.22-7.35,23.06-7.43,27.64-2.16,5.82,6.68-1.38,20.41-3,23.52A43.3,43.3,0,0,1,2681.35,2203.76Z" transform="translate(-456.05 -507.1)"/><path class="cls-33" d="M2655.46,3177.49c-89.4-47.93-155.42-96.74-200.24-133.64-88.17-72.6-128.62-127.36-217.88-149-16-3.87-106.85-25.9-136.18,14.46-32.48,44.69,30.66,138.14,38.33,149.49,114,168.81,404.47,160.93,495.56,155.46Q2645.25,3195.87,2655.46,3177.49Z" transform="translate(-456.05 -507.1)"/><path class="cls-34" d="M2101.16,2909.31c8.57-11.79,22.46-18.16,38.14-21.31-5.22,18.07-5.7,35,.82,49.83,17.82,40.49,70.59,28,107.66,75.52,36.4,46.66,11.2,91.63,43.38,110.88,36.89,22.05,82.61-29.48,122.12-4.83,26.87,16.76,18.51,48.56,49.81,65.88,21.64,12,42.84,6.31,67.49,3.22,28.25-3.55,67-4.31,115.52,5.84q-5.52,10-11,19.92c-91.09,5.47-381.52,13.35-495.56-155.46C2131.82,3047.45,2068.68,2954,2101.16,2909.31Z" transform="translate(-456.05 -507.1)"/><path class="cls-35" d="M2587.87,3202.71s-16.38-11.74-40.15-3.74-61.51,14.46-61.45,26.09,37.82,18.89,63.91,14.11C2575.15,3234.61,2594.78,3212.91,2587.87,3202.71Z" transform="translate(-456.05 -507.1)"/><path class="cls-36" d="M2611.87,3182.87,2568.13,3197s-7.11,11.83,2.48,19.34,42.92-8.37,42.92-8.37Z" transform="translate(-456.05 -507.1)"/><path class="cls-37" d="M3219.91,2981.22c12.91,75.2-149.39,156.55-186.54,175.18-75.73,37.95-218.21,91.53-429.68,71.06l-8.43-50.61a1002.51,1002.51,0,0,0,117.37-48.76c82-40.33,113.11-69.13,226.87-137.91,125.89-76.1,162.56-85.87,200.07-76.45C3171.64,2921.79,3213.91,2946.27,3219.91,2981.22Z" transform="translate(-456.05 -507.1)"/><path class="cls-38" d="M2390.2,2534.3s-29-26.85-32.2-58,18.75-56.14,40-62.5,32.57,3,18.31,33.73S2379.43,2498.14,2390.2,2534.3Z" transform="translate(-456.05 -507.1)"/><path class="cls-39" d="M2639.09,2623.34s19.4-34.46,12.84-65.1-35.08-47.67-57.23-47.21-30.07,12.87-7.08,37.71S2638.24,2585.62,2639.09,2623.34Z" transform="translate(-456.05 -507.1)"/><path class="cls-40" d="M2371.18,2465l149.2,180.16a13.89,13.89,0,0,0,11,5.35h106a13.89,13.89,0,0,0,11.73-21.33l-113.55-179.06c-2.6-4.09-9.12-12.95-18.51-12.95L2389,2440.55C2377.51,2440.77,2364.15,2456,2371.18,2465Z" transform="translate(-456.05 -507.1)"/><path class="cls-41" d="M2371.16,2468.63l137.51,176.55a13.9,13.9,0,0,0,11,5.35h106a13.89,13.89,0,0,0,11.73-21.33l-113.55-179.06a13.89,13.89,0,0,0-12-6.44l-130,2.51A13.89,13.89,0,0,0,2371.16,2468.63Z" transform="translate(-456.05 -507.1)"/></g></g></svg>