<svg xmlns="http://www.w3.org/2000/svg" xmlns:xlink="http://www.w3.org/1999/xlink" viewBox="0 0 2579.6 2389.69"><defs><style>.cls-1{isolation:isolate;}.cls-2,.cls-3,.cls-4{opacity:0.25;}.cls-2,.cls-4{mix-blend-mode:multiply;}.cls-2{fill:url(#Безымянный_градиент_108);}.cls-3{fill:url(#Безымянный_градиент_108-2);}.cls-4{fill:url(#Безымянный_градиент_122);}.cls-5{fill:url(#Безымянный_градиент_108-3);}.cls-6{fill:#a8d29f;}.cls-7{fill:#82b378;}.cls-8{fill:#ed7d2b;}.cls-9{fill:#ffb93e;}.cls-10{fill:#ffa412;}.cls-11{fill:#d1f2c9;}.cls-12{fill:#95c38b;}.cls-13{fill:#2b478b;}.cls-14{fill:#699dee;}.cls-15{fill:#92beff;}.cls-16{fill:#fcecdb;}.cls-17{fill:#efcbab;}.cls-18{fill:#ffb583;}.cls-19{fill:#ea6c2d;}.cls-20{fill:#233862;}.cls-21{fill:#ffb07b;}.cls-22{fill:#2a4e96;}.cls-23{fill:#1e3d70;}.cls-24{fill:#ea8e50;}.cls-25{fill:#2c3a64;}.cls-26{fill:#ffb27d;}.cls-27{fill:#f99746;}.cls-28{fill:#ed985f;}.cls-29{fill:#f46c0f;}.cls-30{fill:#ff9045;}.cls-31{fill:#ffda9f;}.cls-32{fill:#2e3552;}</style><linearGradient id="Безымянный_градиент_108" x1="1810.77" y1="2130.85" x2="1810.77" y2="34.33" gradientUnits="userSpaceOnUse"><stop offset="0" stop-color="#7094fb"/><stop offset="1" stop-color="#f31e61"/></linearGradient><linearGradient id="Безымянный_градиент_108-2" x1="2140.73" y1="2315.3" x2="2140.73" y2="132.36" xlink:href="#Безымянный_градиент_108"/><linearGradient id="Безымянный_градиент_122" x1="1104.58" y1="2039.84" x2="2879.15" y2="550.8" gradientUnits="userSpaceOnUse"><stop offset="0" stop-color="#f31e61"/><stop offset="1" stop-color="#7094fb"/></linearGradient><linearGradient id="Безымянный_градиент_108-3" x1="3180.18" y1="-133.81" x2="3180.18" y2="-133.81" xlink:href="#Безымянный_градиент_108"/></defs><title>login-login</title><g class="cls-1"><g id="_Layer_" data-name="&lt;Layer&gt;"><path class="cls-2" d="M2249.84,2129.43c489.87-15.55,694.15-518.77,647-1087.95C2868.15,695.32,2713,375.11,2430.69,191c-95.76-54.28-322.75-165.78-629.16-156-263.14,8.37-458.08,102.12-553,156C1165,242.05,1062.18,329.08,960.65,450.66,668.9,800,631.93,1390.59,895.61,1693.08S1685.28,2147.34,2249.84,2129.43Z" transform="translate(-679.41 -34.33)"/><path class="cls-3" d="M1780.18,2237.44c414.44,176.46,986.1,42.26,1199.12-294.39q18.81-29.71,35.34-61.56c236.75-454.43,182.15-943,182.15-943h0a1429.43,1429.43,0,0,0-92.15-288.09C3050.2,527.28,2994.3,408.44,2871,300.23c-44.61-39.13-119.39-93.3-233.82-130.62A1424.62,1424.62,0,0,0,2324,132.39C2122.22,131,1970,173.45,1911.61,191c-27.37,8.21-68,22.51-116.7,41.68-474.24,186.8-816.74,619.13-688.59,1197.61C1218.36,1936,1536.68,2133.77,1780.18,2237.44Z" transform="translate(-679.41 -34.33)"/><path class="cls-4" d="M2495.32,2112.33c560.85-359.48,671.4-586,699.23-648.15,21.5-48,83.62-185.43,58.62-338.66-12.25-75.11-44.88-150.8-50.06-162.65-2.1-4.81-3.89-8.77-5.12-11.46-50.78-84.32-126.1-184.2-236.84-274.08a1017.08,1017.08,0,0,0-82.82-60.55S2799,554.34,2712.55,516.35c-292.69-128.57-568.86-95-721.63-69.68-336.25,55.69-945.34,156.56-1117.81,623.85-147.91,400.75,72.18,944,567.48,1269.52,55.08,29.8,167,80.82,316.94,83.84,165.74,3.34,289.29-53.75,344.94-83.84C2263.22,2253.64,2396.66,2175.57,2495.32,2112.33Z" transform="translate(-679.41 -34.33)"/><path class="cls-5" d="M3180.18-133.81" transform="translate(-679.41 -34.33)"/></g><g id="Слой_1" data-name="Слой 1"><path class="cls-6" d="M1609.7,1061.57c-.07,1.39-.12,2.12-.12,2.12s-.22-.71-.66-2.06c-3.63-11.18-21.35-66.36-37.47-127.8-22.3-85-41.54-182-16.22-190.94,48-17,56.82,118.82,57,219C1612.27,1011.3,1610.22,1052,1609.7,1061.57Z" transform="translate(-679.41 -34.33)"/><path class="cls-6" d="M1656.65,951.2c-17.33,38.46-32.38,70.81-41,90.19-3.76,8.45-6.29,14.42-7.28,17.36.84-4.78,3.1-17.63,6.34-35.9v0c4.84-27.38,11.88-66.94,19.6-109.9,18.74-104.4,41.56-228.8,46.89-246.58,9.39-31.38,52.69-98.16,81.84-40.05C1782,664.05,1708.89,835.29,1656.65,951.2Z" transform="translate(-679.41 -34.33)"/><path class="cls-6" d="M1660.14,1006.07c-17.91,18.91-33,34.24-41.39,42.71-4.59,4.65-7.2,7.23-7.2,7.23s4.58-9.77,12.4-25.39c7.38-14.76,17.64-34.73,29.63-56.57,39.3-71.6,97.14-163.37,133-158.06C1827.53,822,1725.09,937.52,1660.14,1006.07Z" transform="translate(-679.41 -34.33)"/><path class="cls-7" d="M1609.7,1061.57l-.78.06c-3.63-11.18-21.35-66.36-37.47-127.8,7.52,11.27,21.12,26.37,40.73,28.09C1612.27,1011.3,1610.22,1052,1609.7,1061.57Z" transform="translate(-679.41 -34.33)"/><path class="cls-7" d="M1656.65,951.2c-17.33,38.46-32.38,70.81-41,90.19a156.43,156.43,0,0,1-.94-18.54v0c4.84-27.38,11.88-66.94,19.6-109.9C1637.32,927.92,1643.6,944.53,1656.65,951.2Z" transform="translate(-679.41 -34.33)"/><path class="cls-7" d="M1660.14,1006.07c-17.91,18.91-33,34.24-41.39,42.71a114.85,114.85,0,0,1,5.2-18.16c7.38-14.76,17.64-34.73,29.63-56.57C1653.86,983.21,1655.16,996.85,1660.14,1006.07Z" transform="translate(-679.41 -34.33)"/><path class="cls-6" d="M1608.35,1058.78c-.24,1.34-.36,2-.36,2C1607.81,1060.73,1607.93,1060,1608.35,1058.78Z" transform="translate(-679.41 -34.33)"/><path class="cls-8" d="M1632.41,1196.83c-30.05,85.15-67.48,178-67.48,178l-84.55-25.34s9.9-63.06,24.43-133.24c17-81.82,26.62-164.37,61.39-185.85a65.62,65.62,0,0,1,30-9.4,74.06,74.06,0,0,1,15.13.44c1.19.16,2.35.34,3.52.54a79.69,79.69,0,0,1,8.63,2c1.1.31,2.19.66,3.27,1a82.16,82.16,0,0,1,10.81,4.55c14.64,7.44,26.43,18.64,31,30.75C1682.49,1096.75,1655.13,1132.5,1632.41,1196.83Z" transform="translate(-679.41 -34.33)"/><path class="cls-9" d="M1591.1,1301.14c-22.22,67.38-28.82,141.32-19.69,220.21a44.06,44.06,0,0,0,35.4,38.12c13-.07,38.79-23.79,53.52-54.06a114.29,114.29,0,0,0,9.15-26.11c14.76-70,42.09-154.33,76-197.43,34.67-44.07,81.38-96.75,145.59-133l0,0c6.19-3.55,151.9-109.65,151.9-109.65,14.5-15.33-2.67-32.5-2.67-32.5s-13.84,12.14-56.06,36.45S1867.93,1039,1867.9,1039a70.72,70.72,0,0,0-65.83,4,523.05,523.05,0,0,0-113.2,92.67C1644.12,1184.45,1611.22,1240.14,1591.1,1301.14Z" transform="translate(-679.41 -34.33)"/><path class="cls-10" d="M1669.48,1479.3c14.76-70,42.09-154.33,76-197.43,34.67-44.07,81.38-96.75,145.59-133l0,0c1.11-.81,44.56-32.85-3.59-61.86-47.13-28.39-239.47,183.11-227.18,418.39A114.29,114.29,0,0,0,1669.48,1479.3Z" transform="translate(-679.41 -34.33)"/><path class="cls-6" d="M1493.11,1205.45a156.64,156.64,0,0,1-22.36,27.49c-33.4,32.9-85.82,57.3-153.3,56.66,0,0-28.33-27-42.07-61.37h0c-9.52-23.84-16.47-58.94,0-85,10.62-16.78,24.27-24.73,38.1-28.91,23.51-7.15,47.54-3.47,58-13.94s25.1-19.23,41.28-24.36c2.65-.84,5.33-1.59,8-2.2h0c1.13-.27,2.24-.52,3.38-.74h.07c25-4.87,51.6-.1,70.14,22.15A79.31,79.31,0,0,1,1506,1114.1C1517.84,1140.78,1512.74,1174.63,1493.11,1205.45Z" transform="translate(-679.41 -34.33)"/><path class="cls-11" d="M1296.84,1139.37s-22.26,17.48-15.44,36.82,24.42,10.41,29.93-3S1311.48,1132.87,1296.84,1139.37Z" transform="translate(-679.41 -34.33)"/><path class="cls-12" d="M1494.45,1095.21A80.12,80.12,0,0,1,1506,1114.1c11.88,26.69,28.18,97.48,8.56,128.3l-26.32,24.07c-33.4,32.9-103.28,23.77-170.76,23.13,0,0-28.33-27-42.07-61.37h0s83.48,33,162.1-35.92C1473.2,1161,1488.44,1125.08,1494.45,1095.21Z" transform="translate(-679.41 -34.33)"/><path class="cls-6" d="M1367.13,1060c-13.78-8.21-27.72,3.32-43.9,9.65s-47.34,6.2-47.34,6.2a225.91,225.91,0,0,1,33.81-36.76C1330.69,1020.78,1367.13,1060,1367.13,1060Z" transform="translate(-679.41 -34.33)"/><path class="cls-7" d="M1367.13,1060c-13-10.63-36.9-16.73-48.58-12s-42.66,27.8-42.66,27.8a225.91,225.91,0,0,1,33.81-36.76C1330.69,1020.78,1367.13,1060,1367.13,1060Z" transform="translate(-679.41 -34.33)"/><path class="cls-12" d="M1371.52,1100.38c10.36-10.32,25.1-19.23,41.28-24.36-27.52,10.32-42.7,45.2-53.14,41.16-11.2-4.35-44.89-2.93-46.18-2.86C1337,1107.17,1361,1110.85,1371.52,1100.38Z" transform="translate(-679.41 -34.33)"/><path class="cls-12" d="M1424.24,1073.08c-.87.25-2,.49-3.38.74C1422,1073.55,1423.1,1073.3,1424.24,1073.08Z" transform="translate(-679.41 -34.33)"/><path class="cls-7" d="M1361.61,1116.48h0c-8.83-19.5-4.06-43.69,1.5-60.55,4.42-13.42,12.9-31.53,17.06-40.14a2.25,2.25,0,0,1,4.16.28l1.68,5.09a18.34,18.34,0,0,1-1.71,15.24c-8.53,14.11-25.66,47.07-18,74.21C1367.22,1113.66,1363.17,1120,1361.61,1116.48Z" transform="translate(-679.41 -34.33)"/><path class="cls-13" d="M1543.28,1204.38l-2.75-1.1c12.16-18.09,31-30.49,45.87-36.23a120.47,120.47,0,0,1,27.12-7.15,2.68,2.68,0,0,1,2.4.92l2.3,2.68a2.26,2.26,0,0,1-1.38,3.69C1603.55,1169.09,1561.64,1177.06,1543.28,1204.38Z" transform="translate(-679.41 -34.33)"/><path class="cls-14" d="M1491.57,1209.55c13.94-34.82,33.56-27,57.76-17.28s43.82,17.54,29.88,52.36c-10,25-37.71,37.34-61.91,27.65S1481.58,1234.5,1491.57,1209.55Z" transform="translate(-679.41 -34.33)"/><path class="cls-15" d="M1506.25,1202.35c.87-6.24,10.92-12.81,17.16-11.94s9.14,7.85,8.27,14.09-9.47,11.6-15.71,10.73A11.41,11.41,0,0,1,1506.25,1202.35Z" transform="translate(-679.41 -34.33)"/><path class="cls-16" d="M1827.55,1218.32l74.75,532.45a109.76,109.76,0,0,1-108.7,125H1681a95.53,95.53,0,0,1-95-105.91l63.26-495.3Z" transform="translate(-679.41 -34.33)"/><path class="cls-16" d="M1435,1218.32s181.18,61.77,392.55,0l-62.28,659.15H1370.83Z" transform="translate(-679.41 -34.33)"/><path class="cls-17" d="M1435,1218.32l74.75,533.82c9.27,66.2-42,125.33-108.69,125.33H1288.44c-56.87,0-101.14-49.51-95-106.18l53.55-553s26.37,5.15,90.54,5.15C1401.12,1223.47,1435,1218.32,1435,1218.32Z" transform="translate(-679.41 -34.33)"/><path class="cls-8" d="M1770.24,1277.68a14,14,0,1,0-21.07,12.13c5.95,47.23-3.44,85.84-26.86,109.49-21.29,21.5-53.59,29.47-93.4,23-35-5.65-58-44.38-71.2-75.88a365.66,365.66,0,0,1-18.31-58.2,14,14,0,1,0-16.13,1.6c7.55,34.62,35.49,137.41,103.08,148.32a178.85,178.85,0,0,0,28.33,2.37c32.42,0,59.41-10.15,79-30,26.85-27.12,37.84-70.17,31.45-122.11A14,14,0,0,0,1770.24,1277.68Z" transform="translate(-679.41 -34.33)"/><path class="cls-8" d="M2678.41,1416.79a138.82,138.82,0,0,0,30.63,6.35c41.18,3.89,90.65-8.64,136.46-46.69,0,0,4.33-34.27-5.43-65.44h0c-6.78-21.62-21.58-49.51-47.37-58.15a57.78,57.78,0,0,0-42.18,1.45c-20.07,8.21-34.46,24.13-47.48,22.82-12.84-1.29-27.89.83-41.82,6.35-2.28.89-4.53,1.88-6.73,3h0c-.92.44-1.82.9-2.72,1.38,0,0,0,0-.06,0-19.79,10.58-35.36,28.7-35.64,54.25a70,70,0,0,0,2.64,19.34C2625.44,1386.34,2647.8,1406.65,2678.41,1416.79Z" transform="translate(-679.41 -34.33)"/><path class="cls-18" d="M2775.85,1262.18s25-.45,31.1,16.58-10.91,20.74-22.15,14.64S2762.22,1265.9,2775.85,1262.18Z" transform="translate(-679.41 -34.33)"/><path class="cls-19" d="M2616.05,1342.11a70.4,70.4,0,0,0,2.64,19.35c6.75,24.88,35.06,82.4,65.66,92.55,0,0,60.7,27.88,95.4,14.91,38.75-14.49,62.61-45.11,65.75-92.47,0,0,4.32-34.27-5.43-65.44h0s-38.7,69.13-130.93,65.78C2667.24,1375.26,2636.81,1359.2,2616.05,1342.11Z" transform="translate(-679.41 -34.33)"/><path class="cls-6" d="M2683.53,1247.06c4.85-13.3,20.82-13.18,35.42-17.87s35.84-22.14,35.84-22.14a199.21,199.21,0,0,0-43.62-6.31C2686.59,1199.91,2683.53,1247.06,2683.53,1247.06Z" transform="translate(-679.41 -34.33)"/><path class="cls-7" d="M2683.53,1247.06c2.93-14.49,15.92-32,26.58-35.25s44.68-4.76,44.68-4.76a199.21,199.21,0,0,0-43.62-6.31C2686.59,1199.91,2683.53,1247.06,2683.53,1247.06Z" transform="translate(-679.41 -34.33)"/><path class="cls-19" d="M2703,1277.13c-12.84-1.29-27.89.83-41.82,6.35,24.58-8.28,54.41,7.12,59.3-1.47,5.24-9.22,29.08-27,30-27.7C2730.44,1262.52,2716.05,1278.44,2703,1277.13Z" transform="translate(-679.41 -34.33)"/><path class="cls-12" d="M2651.75,1287.84c.73-.32,1.63-.77,2.72-1.38C2653.55,1286.9,2652.65,1287.36,2651.75,1287.84Z" transform="translate(-679.41 -34.33)"/><path class="cls-7" d="M2718.79,1282.62h0c-4.83-18.26-21.58-32.16-34.78-40.59-10.5-6.72-26.4-14.38-34.05-18a2,2,0,0,0-2.69,2.51L2649,1231a16.18,16.18,0,0,0,9.67,9.48c13.69,4.9,43.79,17.9,53.64,40.76C2713.37,1283.82,2719.66,1285.88,2718.79,1282.62Z" transform="translate(-679.41 -34.33)"/><path class="cls-20" d="M2614.29,1827.14s-18.36,13.76-46.49,6.49c0,0-22.68-5.17-27.66,6.14,0,0,34.79,17.67,43.59,22.51,6.64,3.64,13.56,9.39,18.46,13.83a9.13,9.13,0,0,0,13.21-1c1.53-1.89,3.28-4.13,5.2-6.73,5.36-7.27,17.86-30.75,17.86-30.75Z" transform="translate(-679.41 -34.33)"/><path class="cls-13" d="M2603.51,1820.15s11.19,25.78,37,21c0,0,52.66-43.49,88.79-88.67,11.73-14.67,21.72-29.52,27.59-43.11,23.95-55.46,88.6-138.18,129.71-180.1l-102.85-37.21s-32.94,66.27-76.77,147.66C2675.38,1698.41,2638.15,1764.91,2603.51,1820.15Z" transform="translate(-679.41 -34.33)"/><path class="cls-20" d="M2707,1639.76l22.32,112.76c11.73-14.67,21.72-29.52,27.59-43.11,23.95-55.46,88.6-138.18,129.71-180.1l-102.85-37.21S2750.8,1558.37,2707,1639.76Z" transform="translate(-679.41 -34.33)"/><path class="cls-20" d="M2791,1842.1s1.12,20.57-23.82,23.31c0,0-14.25.08-14.29,13.17l72.48.23s2.1-5.28,2.61-16.59c.39-8.69-8.42-31.4-8.42-31.4Z" transform="translate(-679.41 -34.33)"/><path class="cls-13" d="M2817.48,1492.1s-45.82,50.35-74.9,141.05c-15.83,49.34,29,173.41,37.74,216.52,0,0,30.07,2.55,50.63-5.4,0,0,1.56-89-10.46-157.65-6.73-38.41,60.32-82.14,89.62-151.54,19.93-47.21-4.31-46.41-34.11-47.54Z" transform="translate(-679.41 -34.33)"/><path class="cls-21" d="M2870.36,1267.5c25.5,14.39,77.68,1.12,77.68,1.12s-21.19-24.23-11.56-63.25l-20,10.16L2895,1226.45a178.67,178.67,0,0,0-2.36,19.27c-.25,3.19-.47,6.75-.62,10.64A67,67,0,0,0,2870.36,1267.5Z" transform="translate(-679.41 -34.33)"/><path class="cls-22" d="M2776.89,1489.5c0,4.48,5.17,6.63,6.26,6.85,10.28,1.88,39,13,64.85,15.6,21.78,2.28,42,.12,64.2-4.34,2.94-.59,9.85-2.45,10.34-5.27.61-3.08,85.67-173.4,19.55-246.56-1.55-1.72-14.61,1.37-26.54,4.2a49,49,0,0,1-30.17-2.46l-11.19,5.89c-13.75,7.66-39.76,34.87-42.8,56.23-1.55,10.86-7.76,18.9-9.56,28.45q-1,5.31-2,10.35-2,9.9-4.19,18.85c-3.88,16.15-8,30-12,42.07-4.29,12.75-8.5,23.36-12.26,32.23-4.87,11.51-9,20.11-11.57,26.69C2777.94,1482.92,2776.89,1486.55,2776.89,1489.5Z" transform="translate(-679.41 -34.33)"/><path class="cls-23" d="M2779.75,1478.28c120.07-56.57,161.66-165.19,161.66-165.19s-97.56,36-121.62,45.35q-2,9.9-4.19,18.85c-3.88,16.15-8,30-12,42.07-4.29,12.75-8.5,23.36-12.26,32.23C2786.45,1463.1,2782.33,1471.7,2779.75,1478.28Z" transform="translate(-679.41 -34.33)"/><path class="cls-21" d="M2698.32,1448.39s-16.69-6.84-20.52-6.3-14.45-2.11-13.84,1.37c.41,2.4,14.11,4.93,14.11,4.93s-15.3-3.44-14.11.13c.81,2.46,4.06,12.26,9.12,15.47,6.05,3.83,17,2,29.85.12C2726.51,1460.7,2698.32,1448.39,2698.32,1448.39Z" transform="translate(-679.41 -34.33)"/><path class="cls-22" d="M2701,1460.17c-3.83-10-5.58-14.54-5.58-14.54s78.4-63.9,86.39-69.39c5.44-3.73,59.63-44.24,86.05-75.81a55.31,55.31,0,0,1,53.76-18.63l16.46,3.45c19.87,4.17,26.33,29.33,10.91,42.54-43.41,37.22-116.64,80.39-130.3,89.37-33.89,22.29-108.86,53.53-108.86,53.53S2704,1468,2701,1460.17Z" transform="translate(-679.41 -34.33)"/><path class="cls-24" d="M2892.61,1245.72c25.07,1.41,41.37-19.29,41.37-19.29s-11.34-6.28-17.52-10.9L2895,1226.45A178.67,178.67,0,0,0,2892.61,1245.72Z" transform="translate(-679.41 -34.33)"/><path class="cls-21" d="M2881.93,1220s38,27.25,54.59,3.34,32.7-36.5,9.15-54.92-34.65-12.59-42.13-6S2872.48,1212.28,2881.93,1220Z" transform="translate(-679.41 -34.33)"/><path class="cls-20" d="M2899.52,1140.85a61.47,61.47,0,0,1,4.43-15.66s2.38,9.87,20.43,8.51,46.64,1.78,56.17,22.34a43,43,0,0,1,1.63,4c1.73-4.56,2.14-11.39,2.14-11.39,3.43,8.85,0,19.93,0,19.93h0c0,.32.09.64.14,1,4,3.36,7.33,13.83,7.33,13.83-1.2-2.92-4.14-4.82-6.75-6,.08,16-6.41,31.64-17.79,36.3-16.66,6.81-16.52,1.61-33.27,12.72,0,0-4.5-5.57-1.43-9.32s14.64-9.19,8.17-14.64-8.85.69-11.24-3.06,9.54-14.64-5.78-24.85S2898.16,1150,2899.52,1140.85Z" transform="translate(-679.41 -34.33)"/><path class="cls-25" d="M1048.52,689.11c-.07-1.8-1.46-21.22-31-22.23,0,0,14.54,1.73,17.06,8.12,0,0-9.91-7.9-18-5.36s-12.81,16.68-12.85,21.32,4.43,19.64,9.55,20.91a15.78,15.78,0,0,0,6.2,0,68.15,68.15,0,0,0-4,7.09c-11.81,24.23.36,47.91,10.36,45.29,6.41-1.68,8.22,9.26,8.22,9.26l62.26-50.41S1073.47,675.79,1048.52,689.11Z" transform="translate(-679.41 -34.33)"/><path class="cls-13" d="M1070.19,1402.91l-13.22,4.92s-57.44-79.67-64.51-149.76c-1.27-12.52-.85-24.64,1.89-35.84,0,0-.57-3.2-1.55-8.87-.45-2.65-1-5.83-1.65-9.48-1.87-10.7-4.44-25.34-7.37-42-6.76-38.37-15.52-87.41-22.32-123.46l3.56-1.14,38.56-12.44,8-25.31,28.7-7.56s6.42,12.55,12.15,71.82c1.06,7.77,2,16.34,2.74,25.64a507,507,0,0,1-2.73,103.81q-2,15.45-5,31.86c-1.51,8-1.74,18.93-1.1,31.47C1049.16,1313.86,1070.19,1402.91,1070.19,1402.91Z" transform="translate(-679.41 -34.33)"/><path class="cls-20" d="M1055.14,1089.42,992.8,1213.36c-.45-2.65-1-5.83-1.65-9.48-1.87-10.7-4.44-25.34-7.37-42-6.76-38.37-15.52-87.41-22.32-123.46l3.56-1.14,38.56-12.44,8-25.31,28.7-7.56s6.42,12.55,12.15,71.82C1053.46,1071.55,1054.42,1080.12,1055.14,1089.42Z" transform="translate(-679.41 -34.33)"/><path class="cls-13" d="M1027.72,1007.87l-1.44-12.38c-24.18,6.43-88.79-17.94-88.79-17.94s-23.42,20.59-20.34,69.94c1.5,24.09,4.24,126.46,7.1,156.75,1,11,2,18.79,2.32,21.91v0a4.3,4.3,0,0,1-.7,2.68,141.92,141.92,0,0,0-10.57,22.23c-28.11,74.9,4.33,167.14,4.33,167.14l8.42-3.39s18.46-102.65,33.45-148c2.55-7.7,5-13.74,7.23-17.35,6.52-10.53,12.57-27.72,18.06-48.18,10.38-38.67,18.74-89,24.3-127.8C1011.86,1073.54,1027.72,1007.87,1027.72,1007.87Z" transform="translate(-679.41 -34.33)"/><path class="cls-26" d="M1218.2,992.06c-5.2,4.6-19-11.21-20.91-13.31a1.24,1.24,0,0,0-.2-.3l4.2-11.71s18.11-.7,21.12,2.3S1223.91,987.16,1218.2,992.06Z" transform="translate(-679.41 -34.33)"/><path class="cls-26" d="M1201.29,966.74l-1.8,12.11s-.8,0-2.2-.1c-4.41-.3-15.12-.9-27.23-2.2-18.21-1.8-39.83-5-48.44-10.31-13.11-8-34.62-32.53-48.64-57a16.18,16.18,0,0,1-1-1.8c-7.3-13-12.41-25.92-12.81-36.23a51.77,51.77,0,0,1,1.7-16.41,42,42,0,0,1,7.41-14.81,7.29,7.29,0,0,1,1.4-1.71,34.64,34.64,0,0,1,9.51-8.1c2.4-1,5,.2,7.71,3.1v.1a45.73,45.73,0,0,1,6.9,10.21c.1.1.2.2.2.3.5.9,1,1.9,1.6,3a2.51,2.51,0,0,1,.4.7c1.1,2.3,2.2,4.71,3.31,7.21,12.31,26.82,25.42,67.45,36.33,79.56,4.7,5.21,26.22,15.42,43.33,23C1191.28,962.74,1201.29,966.74,1201.29,966.74Z" transform="translate(-679.41 -34.33)"/><path class="cls-26" d="M1073.91,857.76a75.4,75.4,0,0,1-27.85,6.52c-41.57,2.28-51-34.16-52.72-58.35a34.9,34.9,0,0,1,14.27-1.8c2.94.16,6,.46,8.56.78,5.08-2.66,14.22-15.56,19.5-37.15l1.79.84,30,14.1s-3.18,9.76-5.54,19.1c-1.83,7.31-3.15,14.37-2.05,16.34,2.37,1,3.78,1.57,3.78,1.57v0A205.62,205.62,0,0,1,1073.91,857.76Z" transform="translate(-679.41 -34.33)"/><path class="cls-27" d="M1084.31,885c-.32.83-.66,1.64-1,2.47-10.53,22.68-30,116.6-30,116.6,2.78,16.89-126.9-3.31-127.24-18.69-4.57-16.3,16.21-42.5,27.92-55.64A37.49,37.49,0,0,0,963.18,909c2.3-21.8,1.42-42.22,1.61-54.64h0c2.29-1.69,4.51-3.26,6.57-4.75a58,58,0,0,0,8-6.63c2.26-2.37,3.67-4.8,3.83-7.54a39.53,39.53,0,0,0-.16-6.33c-.1-1-.23-2-.38-3a86,86,0,0,0-6-20.12c11.15-4.51,31-1.82,31-1.82s0,1.1,0,2.9c-.06,7.25,0,25.85,2.32,29.37,2.91,4.38,56,23.59,58.85,17.64s-4.81-33.26-5.09-34.3v0c17.79,7,24.15,12.85,24.15,12.85C1077.07,839.51,1092.6,863,1084.31,885Z" transform="translate(-679.41 -34.33)"/><path class="cls-28" d="M1067.45,782.7s-3.19,9.75-5.54,19.1c-17.53-4.89-22.85-23.32-24.45-33.2Z" transform="translate(-679.41 -34.33)"/><path class="cls-26" d="M1071.15,793s-42-9.71-35.5-35.74,5.37-44.81,32.43-39.71,29.77,16.31,29.73,25.52S1082.22,794.88,1071.15,793Z" transform="translate(-679.41 -34.33)"/><path class="cls-25" d="M1100.17,728.33c-4.51-9.44-9.81-8.93-13.13-7.26-19.71-18.24-39-3.34-39-3.34a51.19,51.19,0,0,1-23.57,25.32s6.44,6.6,25.12,6.45c5.7,0,11.44-2.66,16.66-6.27a100.45,100.45,0,0,1-21.87,16.31c23.38-4.47,39.05-31.54,40.66-34.41,2,2.92,5.77,9.15,6.09,14.41.43,7.14-2,21,2.07,21.54C1093.16,761.08,1106.94,742.47,1100.17,728.33Z" transform="translate(-679.41 -34.33)"/><path class="cls-27" d="M1087.8,832.55s10.1,17.62,11.61,22.15c0,0-13.1-.5-18.39,9.57C1081,864.27,1079.76,834.93,1087.8,832.55Z" transform="translate(-679.41 -34.33)"/><path class="cls-8" d="M1018.34,972.54c-25.58-.27-47.24-26.83-60.48-48.06a36.84,36.84,0,0,0,5.32-15.5c2.3-21.8,1.42-42.22,1.61-54.64h0c2.29-1.69,4.51-3.26,6.57-4.75a58,58,0,0,0,8-6.63C1000.3,878.36,1053,972.91,1018.34,972.54Z" transform="translate(-679.41 -34.33)"/><path class="cls-20" d="M968.57,1425.11H902s-1.6-10.15,1.88-17.85c3.33-7.4,8.56-10.75,7.31-19.7,4.23,4.36,11.13,9.24,20.76,8,1.18,1.91,7.61,12.15,11.55,15C947.82,1413.62,967.23,1412.5,968.57,1425.11Z" transform="translate(-679.41 -34.33)"/><path class="cls-20" d="M1111.58,1425.11H1045s-2.49-10.62,1.89-17.85c3.87-6.4,2.38-10-.48-15.34a25.9,25.9,0,0,0,11.22,2.12c3.31-.19,6.82-1.7,9.9-3.49,2.87,3.27,15.14,17.18,19,19.94C1090.83,1413.62,1110.24,1412.5,1111.58,1425.11Z" transform="translate(-679.41 -34.33)"/><path class="cls-13" d="M1178.16,949.46l-3.26-.81c10.82-22.25,30.08-39.16,45.88-47.95a136.8,136.8,0,0,1,29.38-12.32,3.07,3.07,0,0,1,2.84.67l3,2.65a2.57,2.57,0,0,1-1,4.37C1240.39,900.3,1194.51,915.85,1178.16,949.46Z" transform="translate(-679.41 -34.33)"/><path class="cls-29" d="M1120.82,963.4c10.2-41.35,33.5-35.6,62.24-28.51s52,12.83,41.84,54.18c-7.31,29.64-36.53,47.92-65.27,40.83S1113.51,993,1120.82,963.4Z" transform="translate(-679.41 -34.33)"/><path class="cls-30" d="M1136.2,953c0-7.16,10.27-16.12,17.42-16.12s11.52,7.38,11.52,14.54-8.82,14.54-16,14.54A13,13,0,0,1,1136.2,953Z" transform="translate(-679.41 -34.33)"/><path class="cls-26" d="M1115,986.46l-3.5,12.81-11.41-2.11c-2.11-.4-3.31-.7-3.31-.7-5.6-1.1-12.31-2.6-19.61-4.2h-.1c-12.51-3-26.52-6.6-38.33-10.61-8.31-2.9-15.52-6-20.42-9.11a12.13,12.13,0,0,1-1.4-1c-11.71-8.5-25.62-33.52-36.43-60.35-1.5-3.7-2.9-7.4-4.31-11a274.37,274.37,0,0,1-11.4-38A106.63,106.63,0,0,1,962.09,844a44.37,44.37,0,0,1-.1-5.11c.2-29,14.62-33,14.62-33,.3-.1.6-.2,1-.3,2.5-.4,5.1,1.3,7.8,4.6,3.41,4.1,7,10.81,10.71,18.92,5.71,12.91,11.71,29.62,17.32,46.23,3.1,9.11,6.1,18.22,9.1,26.63,1.7,5.1,3.41,9.9,5,14.31,3.1,8.4,5.9,15.21,8.4,19.51,1.6,2.81,6.21,6.71,12.31,11.11,10.61,7.71,26.12,17,39.64,24.62,5.6,3.21,10.91,6.11,15.31,8.51C1110.31,984,1115,986.46,1115,986.46Z" transform="translate(-679.41 -34.33)"/><path class="cls-27" d="M996.09,829.17C976.82,823.86,962,838.9,962,838.9c.24-29,14.66-32.94,14.66-32.94C982.43,803.55,989.15,813.6,996.09,829.17Z" transform="translate(-679.41 -34.33)"/><path class="cls-26" d="M1115,986.46s6.28.13,9.84-2,13.62-5.13,18.17-4.64a1.81,1.81,0,0,1,1.08,2.27c-.59,1.58-8,2.86-8,5.83,0,0,9.29-.3,12.05-1.48s13.42,1.53,15.5,2.76-13.52,10.62-20.44,14.42-31.7-4.31-31.7-4.31Z" transform="translate(-679.41 -34.33)"/><path class="cls-16" d="M1158.08,1875.37a4.88,4.88,0,0,1-4.6-4.37l-22.54-148.19-32.42-213.13-9.06-59.6,23.09-.76,4,34.59L1144.68,1727l16.68,144.11A3.6,3.6,0,0,1,1158.08,1875.37Z" transform="translate(-679.41 -34.33)"/><path class="cls-16" d="M921.8,1450.08l-10.28,67.55h0l-28.38,186.58L857.77,1871a4.88,4.88,0,0,1-4.6,4.37,3.6,3.6,0,0,1-3.28-4.22l21.88-189.07,23.4-202.25,3.53-30.51Z" transform="translate(-679.41 -34.33)"/><path class="cls-17" d="M911.52,1517.63c1.35-29-16.35-37.8-16.35-37.8l3.53-30.51,23.1.76Z" transform="translate(-679.41 -34.33)"/><path class="cls-17" d="M1116.55,1483.91c-15,7.66-18,25.77-18,25.77l-9.06-59.6,23.09-.76Z" transform="translate(-679.41 -34.33)"/><rect class="cls-16" x="140.64" y="1392.35" width="371.15" height="23.4" rx="8.38"/><path class="cls-7" d="M2958.56,1875.64h-85.34c-4.57-3.88,3.17-12.69,11.25-13.28,3.51-.27,8,.47,13,1.54,1.17-15.6,7.88-85.72,33.15-82.9,28.42,3.15,0,30.88-8,47.29-5.95,12.16-12.23,29.59-15.1,37.82,2.31.5,4.7,1,7.14,1.44,3.76-11.56,17.78-50.46,35.6-48.2,20.93,2.65,12.52,18.25-2.32,27.51-10.88,6.81-24.24,16.49-30.59,21.16a90.7,90.7,0,0,0,16.69,1.34C2948.66,1869,2955.79,1873.32,2958.56,1875.64Z" transform="translate(-679.41 -34.33)"/><path class="cls-7" d="M733.35,1874.91h85.34c4.57-3.88-3.17-12.69-11.25-13.28-3.52-.27-8,.47-13,1.54-1.17-15.6-7.88-85.71-33.15-82.9-28.42,3.16,0,30.88,8,47.3,6,12.15,12.23,29.59,15.1,37.82-2.31.5-4.7,1-7.14,1.44-3.76-11.57-17.78-50.47-35.6-48.21-20.93,2.66-12.52,18.26,2.31,27.51,10.89,6.81,24.25,16.49,30.6,21.17a91.66,91.66,0,0,1-16.69,1.33C743.25,1868.29,736.11,1872.59,733.35,1874.91Z" transform="translate(-679.41 -34.33)"/><path class="cls-9" d="M1483.29,1745.1a301.75,301.75,0,0,0,13.35,48c40.42,106.47,124.65,83.51,206.87,83.51,92.82,0,92.64-62.17,92.64-146.22s-51.42-150.83-144.24-150.83S1466.88,1662.67,1483.29,1745.1Z" transform="translate(-679.41 -34.33)"/><path class="cls-10" d="M1852.64,1757.69c.58-85.15-61.33-153.56-144-176.26-84.35-23.17-154.41,33.5-154.28,116.09.13,83,71.64,165.12,157.2,176.16C1794.32,1884.36,1852.08,1840.51,1852.64,1757.69Z" transform="translate(-679.41 -34.33)"/><path class="cls-31" d="M1845.21,1755.63c.55-80.9-58.28-145.9-136.83-167.47-80.15-22-146.71,31.83-146.59,110.3.13,78.82,68.07,156.9,149.37,167.39C1789.79,1876,1844.68,1834.33,1845.21,1755.63Z" transform="translate(-679.41 -34.33)"/><path class="cls-9" d="M1702.16,1708.25l23-86.52c1.71-6.43-3.3-14-10.29-15.54a187,187,0,0,0-32.68-4.25,189,189,0,0,0-34.89,2c-6.49,1-9.09,8.28-5.26,14.73l53,89.42C1697,1711.3,1701.32,1711.39,1702.16,1708.25Z" transform="translate(-679.41 -34.33)"/><path class="cls-9" d="M1722.07,1734.81l86.19,53.87c6.42,4,13.75,1.53,15-5.09a173.49,173.49,0,0,0,3.1-32,218.27,218.27,0,0,0-3.15-36.46c-1.21-7-8.48-12.21-14.73-10.55l-86.51,23C1718.88,1728.42,1718.94,1732.85,1722.07,1734.81Z" transform="translate(-679.41 -34.33)"/><path class="cls-9" d="M1716.75,1718.79l85.25-22.67c6.34-1.69,8.34-9.36,4.08-15.72a244.24,244.24,0,0,0-22.16-28.42,273.38,273.38,0,0,0-28.76-27.22c-5.83-4.76-13.52-3.39-15.56,2.77L1711.35,1713C1710.33,1716.06,1713.66,1719.62,1716.75,1718.79Z" transform="translate(-679.41 -34.33)"/><path class="cls-9" d="M1708.55,1742.82l26.36,95.19c2,7.08,9.64,11.73,15.74,9.51a143.1,143.1,0,0,0,27.1-13.13,154.78,154.78,0,0,0,25.6-20.31c4.44-4.38,2.73-12.74-3.47-16.92L1714,1739.23C1711,1737.15,1707.59,1739.36,1708.55,1742.82Z" transform="translate(-679.41 -34.33)"/><path class="cls-9" d="M1687.63,1710.85l-57.6-85.29c-4.28-6.34-12.58-8.07-17-3.53a138.89,138.89,0,0,0-18.45,23.48,165.6,165.6,0,0,0-14.53,30.1c-2.21,6.08,2.33,13.79,9.19,15.62l95,25.31C1687.63,1717.45,1689.72,1714,1687.63,1710.85Z" transform="translate(-679.41 -34.33)"/><path class="cls-9" d="M1684.21,1724.34,1590.38,1708c-7-1.21-12,4.39-10.34,11.5a219.43,219.43,0,0,0,10.68,33,262.83,262.83,0,0,0,17.73,34.76c3.9,6.42,12.09,8.45,16.58,4.12l62.24-60C1689.5,1729.3,1687.62,1724.93,1684.21,1724.34Z" transform="translate(-679.41 -34.33)"/><path class="cls-9" d="M1692.63,1738.89l-50.59,69.2c-3.77,5.15-1.1,13.53,5.47,17.17a221.17,221.17,0,0,0,31.67,14.51,227.11,227.11,0,0,0,35.88,9.66c6.88,1.24,11.8-4.36,10-11.34l-25.28-96.74C1698.84,1737.89,1694.47,1736.38,1692.63,1738.89Z" transform="translate(-679.41 -34.33)"/><path class="cls-25" d="M1485.9,1305.69c.38-1.54-33.55,15.34-35.28,17.25-15.91,17.66-11.37,40.7-2.27,40.92,5.84.14,4.71,9.85,4.71,9.85l65.07-27.53S1510.3,1300.5,1485.9,1305.69Z" transform="translate(-679.41 -34.33)"/><path class="cls-25" d="M1493.91,1309.26s2.33-25.35-26-25.35c0,0,8.59,2.33,13,7,0,0-18.07-10.6-37.73,5.69s-7.44,57.17-13.42,64.93-29.26,9.31-26.41,34.4,73.88,56.51,69.32,77.27c0,0,27.84-40.92,7.93-59.6,0,0,9.71,9.14,10.69,20,0,0,2.64-21.21-10.86-28-11.94-6-21.73-28-20.69-31.88S1493.91,1309.26,1493.91,1309.26Z" transform="translate(-679.41 -34.33)"/><path class="cls-28" d="M1468.19,1428.51c-4.36-21-31.63-27.55-44.53-10.37a22.7,22.7,0,0,0-4.49,11c-2.94,23.88,35.22,121.11,40.69,129.91,10,16,68.55,71,68.55,71l10.8-6.55s-41.56-70.36-48-77C1483.77,1539,1476.49,1468.44,1468.19,1428.51Z" transform="translate(-679.41 -34.33)"/><path class="cls-28" d="M1524.3,1623.55s15.76-10.35,21.73-9.68,23.24,5.64,23.45,8.17-19.24,4.13-20.55,5.51-14.51,10.21-19.3,7.44S1524.3,1623.55,1524.3,1623.55Z" transform="translate(-679.41 -34.33)"/><path class="cls-27" d="M1414.36,1857.36l-14.08-2.07s-47.35-37.63-54.4-107.83a125.71,125.71,0,0,1-.34-21.71,3.74,3.74,0,0,0-.49-2.39v0c-1.52-2.33-5.29-8.15-10.4-16.42s-13.64-23.57-23.12-40.87c-17.07-31.15-37-68.41-43.77-80.28-21.72-37.82-11.25-63.25-11.25-63.25s60.6-6,77.21-20.52l6,9.22s13.13,58.13,12.51,58.39q1,3,2,6c10.36,32,22.28,72,28.77,104.51,3.66,18.32,5.59,34.28,4.55,45.15-.35,3.73.08,9.46,1.07,16.54C1394.43,1783.57,1414.36,1857.36,1414.36,1857.36Z" transform="translate(-679.41 -34.33)"/><path class="cls-20" d="M1443.89,1875.17h-58.74s-1.41-9,1.66-15.74c2.94-6.52,7.13-6.73.53-16.94,3.74,3.84,15.74,5.43,24.23,4.29,1,1.68,6.71,13,10.18,15.5C1425.59,1865,1442.71,1864.06,1443.89,1875.17Z" transform="translate(-679.41 -34.33)"/><path class="cls-8" d="M1354.17,1575.65c-5.14,28.3-17.26,75.41-42.65,90.4-17.07-31.15-37-68.41-43.77-80.28-21.72-37.82-11.25-63.25-11.25-63.25s60.6-6,77.21-20.52l6,9.22s13.13,58.13,12.51,58.39Q1353.16,1572.58,1354.17,1575.65Z" transform="translate(-679.41 -34.33)"/><path class="cls-22" d="M1461.91,1415.47s8.31,8.63,12.1,19c0,0-13.25,38-44.22,42.82C1429.79,1477.27,1454.29,1415.45,1461.91,1415.47Z" transform="translate(-679.41 -34.33)"/><path class="cls-27" d="M1313,1526.89l.2-11c-21.9,2.76-75.49-26.16-75.49-26.16s-22.9,15.23-26,58.74c-1.53,21.23-11.21,111-12.29,137.84-.39,9.71-.52,16.65-.56,19.42v0a3.81,3.81,0,0,1-.93,2.26,125.64,125.64,0,0,0-11.86,18.18c-33.4,62.15-15.94,146.6-15.94,146.6l7.76-2s28.25-87.55,46.71-125.41c3.13-6.43,6-11.42,8.36-14.31,6.94-8.43,14.26-22.75,21.47-40,13.64-32.58,26.88-75.56,36.32-108.84C1291.35,1582.42,1313,1526.89,1313,1526.89Z" transform="translate(-679.41 -34.33)"/><path class="cls-26" d="M1441.07,1453.56c-35.79-8.22-12.92-58.5-10.85-57.62,5-1,15.85-9.72,25.59-26.72l1.32,1.14,22,19.27s-5.08,7.5-9.36,14.84c-3.34,5.75-6.18,11.41-5.72,13.35C1465.8,1419.21,1450.62,1455.75,1441.07,1453.56Z" transform="translate(-679.41 -34.33)"/><path class="cls-28" d="M1479.11,1389.64s-5.08,7.48-9.36,14.83c-13.66-8.42-13.68-25.34-12.62-34.1Z" transform="translate(-679.41 -34.33)"/><path class="cls-26" d="M1479.72,1399.29s-33.18-18.46-21.37-39,15.49-36.67,37.18-25.75,21.26,21.1,19,28.89S1488.65,1403.56,1479.72,1399.29Z" transform="translate(-679.41 -34.33)"/><path class="cls-25" d="M1520.11,1351.54c-1.52-9.1-6.14-10-9.36-9.36-12.26-20.27-32.28-12.36-32.28-12.36a45.17,45.17,0,0,1-26.15,15.71s3.85,7.17,19.72,11.6c4.84,1.35,10.34.53,15.65-1.25a88.54,88.54,0,0,1-22.52,8.49c20.91,1.91,40.8-17.2,42.86-19.25,1,3,2.66,9.17,1.64,13.7-1.37,6.16-6.84,17.32-3.5,18.76C1506.17,1377.58,1522.39,1365.18,1520.11,1351.54Z" transform="translate(-679.41 -34.33)"/><path class="cls-20" d="M1216.79,1875.17H1158s-1.4-9,1.66-15.74c2.94-6.52,7.55-9.48,6.45-17.37,3.73,3.84,9.81,8.15,18.31,7,1,1.68,6.72,10.71,10.19,13.21C1198.49,1865,1215.61,1864.06,1216.79,1875.17Z" transform="translate(-679.41 -34.33)"/><path class="cls-22" d="M1445.28,1493.42c-7.56,2.64-18.17,4.09-29,5.27-15.45,1.68-31.4,2.84-39.75,6.17-3,1.21-5.09,2.71-5.72,4.63-3.62,10.89-19.58,27.69-19.58,27.69-102.3-4.65-113.53-47.44-113.53-47.44,68.83-80,185.36-103.19,185.36-103.19s8.32-3.53,29.28,13.13c14,11.12,12.15,15.39,12.15,15.39S1467.53,1485.67,1445.28,1493.42Z" transform="translate(-679.41 -34.33)"/><path class="cls-23" d="M1416.26,1498.69c-15.45,1.68-31.4,2.84-39.75,6.17-3.41-51,20.66-89.4,20.66-89.4S1412.88,1479.38,1416.26,1498.69Z" transform="translate(-679.41 -34.33)"/><path class="cls-26" d="M1432.16,1405.59s-38.72,3.83-41.82,29,37.12,127.62,42.88,136.9c10.48,16.89,72.23,74.79,72.23,74.79l11.39-6.9s-43.8-74.15-50.59-81.09C1455.61,1547.38,1445.27,1414.31,1432.16,1405.59Z" transform="translate(-679.41 -34.33)"/><path class="cls-22" d="M1391.46,1449.71c.1.57,35.73,11.64,58.66,0,0,0,4.9-52.9-22.47-50s-43.58,11.49-44.27,24.6S1391.46,1449.71,1391.46,1449.71Z" transform="translate(-679.41 -34.33)"/><path class="cls-26" d="M1501.94,1638.91s13.88-12.76,19.88-13.06,23.84,1.82,24.46,4.29-18.33,7.17-19.39,8.75-12.68,12.41-17.86,10.45S1501.94,1638.91,1501.94,1638.91Z" transform="translate(-679.41 -34.33)"/><rect class="cls-32" y="1839.97" width="2391.45" height="6.34" rx="2.03"/><path class="cls-7" d="M2654.85,1452.48" transform="translate(-679.41 -34.33)"/></g></g></svg>