<svg xmlns="http://www.w3.org/2000/svg" viewBox="0 0 223.94 41.32"><defs><style>.cls-1{fill:#03ac0e;}</style></defs><title>Asset 8</title><g id="Layer_2" data-name="Layer 2"><g id="OBJECTS"><path class="cls-1" d="M16.43,11.57c3-7.55-2.21-8.63-2.93-8.78C9.24,2,4.21,6.28,7.39,12.34c3,6,17,9.2,15.93,16.85-.77,6.22-11.61,9.66-19.73,4.73A1.33,1.33,0,0,1,4,31.56c.72-.36,1.49-.1,3.49.92,4.52,2.37,11.15.67,7.66-3.59-1.75-2.21-4.47-3.45-7.81-5.6C2.82,20.36-1.14,16,.3,9.16,1.94,3.25,7.7-.24,13.66,0c10.07.41,14.49,10.59,9.5,14.34C19.67,16,15.56,13.89,16.43,11.57Z"/><path class="cls-1" d="M41.86,33.92c-6.06,4.37-12.74-.51-13.36-6.73C27,13,46.23,10.55,45.15,22c.15,4.32,2.67,8.17,3.13,10C48.59,35.05,44.69,37.26,41.86,33.92ZM41.19,32a14.56,14.56,0,0,1,1.29-8.37c.36-3.14.05-5.76-2.42-5.76-2.77,0-5.29,4.22-5.19,8.84C35,31.56,37.91,33.72,41.19,32Z"/><path class="cls-1" d="M61.64,35.21c-1.9-.06-1.54-1.8-.21-2,4.53-1.07,5.5-5.54,5-9.4-.82-7-7.19-6-7.3-1.08a72.07,72.07,0,0,0,.47,9.82c0,2.67-3.6,3.34-4.78.66-3.65-8.22-2.16-28-.52-28.87,1.19-1.49,4.58-1.54,5.14.21.62,1.59.52,10.63.11,13.46a7.49,7.49,0,0,1,6.26-2.57C75.25,16,74.74,35.51,61.64,35.21Z"/><path class="cls-1" d="M83,34.13c-.82,2.36-3.8,2.26-5.09.25-2.36-3.64-.51-16.69,0-17.67.72-1.64,4.11-.77,4.78.67C83.93,19.9,84,31.2,83,34.13ZM80.49,13.52c-4,.37-5-5.49-1-6.37C83.83,6.59,84.09,12.86,80.49,13.52Z"/><path class="cls-1" d="M101.91,31.46c-1.59,5.9-8.63,6-11.5-1.49-1.85-4.63-2.93-14.44-.83-24.61.31-1.65,6.79-3.91,7.15.66.36,5.6-3.14,27.7,2.15,26.1.67-.2.88-1,1.44-1.79S102.17,30.33,101.91,31.46Z"/><path class="cls-1" d="M118.35,33.92c-6.06,4.37-12.74-.51-13.36-6.73C103.45,13,122.72,10.55,121.64,22c.16,4.32,2.67,8.17,3.14,10C125.08,35.05,121.18,37.26,118.35,33.92Zm-.66-1.9A14.48,14.48,0,0,1,119,23.65c.36-3.14,0-5.76-2.41-5.76-2.78,0-5.3,4.22-5.19,8.84C111.47,31.56,114.4,33.72,117.69,32Z"/><path class="cls-1" d="M149.38,11.68c-.61,2.72-8.27,4-7.55-2.52.26-2.06-.1-4.06-1.9-1.59s-3.65,7.14-3.24,16.59c.72.05,4.63-.41,4.88,1.28.21,1.5-2.46,1.6-4.77,1.5.51,8,3.64,14.38,1.28,14.38-3.44,0-7.35-12.69-7.3-14.38-4.57.2-5.34-3-.56-2.78a42.49,42.49,0,0,1-.15-6.22C130.78-2.25,152.16.32,149.38,11.68Z"/><path class="cls-1" d="M161.71,17.33c-1.8,1.33-6.78,3.34-6.78,6.37-.31,3.29,1.23,7.45.21,10.32a2.54,2.54,0,0,1-3.55,1.19c-2.72-1.19-3.29-5.45-3.54-8.48-.52-6.73,1-12,5.08-12.49a1.84,1.84,0,0,1,2.11,2.27c-.1.82-.31,2.15-.52,3.18C159.81,12.65,163.82,15.79,161.71,17.33Z"/><path class="cls-1" d="M179.69,32.28c-2.87,5.7-14.49,4.78-15.51-5.09-.52-5.34,2.62-11.51,8.73-12.59,5.7-1,9.3,3.55,6.88,8.69-1.28,3-5.75,6.32-7.65,7.14,1.34,1.28,3.65,1,5.91.1C179,30.22,180.41,30.38,179.69,32.28Zm-8.22-3.8c2.16-1.34,6.78-5.66,5.55-8.69a1.28,1.28,0,0,0-1.49-.87c-2.83.51-5.55,5.5-4.88,8.48C170.8,28.48,171.06,28.73,171.47,28.48Z"/><path class="cls-1" d="M199.78,30.63c2.57,5.19-7,7.61-13.26,4.27-1.64-.88-1.08-3.44,2.06-1.75,3.9,2.16,9.3.46,4-2.36-4.68-2.42-9.51-5.81-7.3-11.61,2-5.4,11-6.89,14.49-2,2,2.93,1.39,7.35-1.54,7.35-1.24,0-3.34-.62-4-1.44-.87-1.38-.26-2.46-.57-4.62-.82-2-5-.82-4.62,2.26C189.5,25,198,27.09,199.78,30.63Z"/><path class="cls-1" d="M223,33.36c-1.29,2.62-6.43,3.39-4.06-4.27.72-2.36,2.77-8.22,1.13-10.27-1.29-1.6-3.75-.93-5.6,1.69a3,3,0,0,0-.41,1.75c-.11,4.62,2.72,14.85-4.32,13-5.08-1.29-4.42-25-1.54-30.06,1.29-2.26,3.75-2.51,5-.92,1.24,1.44,1.13,11.09,1,12.94,3.9-3.64,9.09-2.26,9.66,3.86C224,22.82,224.23,30.74,223,33.36Z"/></g></g></svg>