<svg xmlns="http://www.w3.org/2000/svg" viewBox="0 0 157.77 187.32"><defs><style>.cls-1{fill:#397837;}</style></defs><title>organic</title><g id="Objects"><path class="cls-1" d="M589.19,569.66a78.91,78.91,0,0,1-69.87-115.55,79.58,79.58,0,0,1,24-27.54,3,3,0,1,1,3.45,4.82,72.85,72.85,0,0,0-30.57,59.38,73,73,0,1,0,137.57-33.9,73.63,73.63,0,0,0-22.23-25.48,3,3,0,0,1,3.45-4.82,78.76,78.76,0,0,1,33.05,64.2,78.89,78.89,0,0,1-78.88,78.89Z" transform="translate(-510.3 -382.34)"/><path class="cls-1" d="M591.55,415.11A40.92,40.92,0,0,0,577.44,395c-7.1-5.56-15.32-8-23.57-11.24-1.41,12.73-3.48,28.9,3.1,40.6a35.78,35.78,0,0,0,17.23,15.34,33.27,33.27,0,0,0,8.13,2.31,12.81,12.81,0,0,0,1.44.13,95.82,95.82,0,0,0-17.68-35.36,1.68,1.68,0,1,1,2.62-2.09,99.29,99.29,0,0,1,18.4,36.93,8.27,8.27,0,0,0,3.36-2.35C596.53,432.24,591.6,415.28,591.55,415.11Z" transform="translate(-510.3 -382.34)"/><path class="cls-1" d="M625.75,382.34l-6.63,2.81c-7.61,3.36-17,7.79-20.32,15.73a35.52,35.52,0,0,0-2.09,18.48c0,.2,0,.41.07.62.28,2.38.66,5.65,3.42,7.31l.32.17a42.56,42.56,0,0,1,10.7-25.68,1.8,1.8,0,0,1,2.46-.18,1.64,1.64,0,0,1,.19,2.37A39.23,39.23,0,0,0,604,428.08a8.86,8.86,0,0,0,2.07-.46,29.94,29.94,0,0,0,11.1-7.18c.45-.43.89-.88,1.31-1.34C627.89,408.76,625.75,382.34,625.75,382.34Z" transform="translate(-510.3 -382.34)"/><path class="cls-1" d="M589.19,559.37a67.71,67.71,0,0,1-60-99.15,68.33,68.33,0,0,1,20.61-23.64,1.49,1.49,0,0,1,1.73,2.42,64.62,64.62,0,0,0-27.12,52.68,64.73,64.73,0,1,0,122-30.08A65.26,65.26,0,0,0,626.79,439a1.49,1.49,0,0,1,1.73-2.42,67.69,67.69,0,0,1,28.36,55.1,67.7,67.7,0,0,1-67.69,67.69Z" transform="translate(-510.3 -382.34)"/><path class="cls-1" d="M550.88,502.48v-26.4h-4.41v-3.61a7.69,7.69,0,0,0,3.54-1.41,6.85,6.85,0,0,0,2.43-2.89h3.61v34.31Z" transform="translate(-510.3 -382.34)"/><path class="cls-1" d="M578.9,494.66a7.8,7.8,0,0,1-2.41,5.79,8.2,8.2,0,0,1-14-5.79V475.94a8.2,8.2,0,1,1,16.39,0Zm-5.36-18.83a3,3,0,0,0-5.08-2.1,2.89,2.89,0,0,0-.86,2.1v18.74a2.91,2.91,0,0,0,.86,2.11,3,3,0,0,0,5.08-2.11Z" transform="translate(-510.3 -382.34)"/><path class="cls-1" d="M601.67,494.66a7.8,7.8,0,0,1-2.41,5.79,8.2,8.2,0,0,1-14-5.79V475.94a8.2,8.2,0,1,1,16.39,0Zm-5.36-18.83a3,3,0,0,0-5.08-2.1,2.89,2.89,0,0,0-.86,2.1v18.74a2.91,2.91,0,0,0,.86,2.11,3,3,0,0,0,5.08-2.11Z" transform="translate(-510.3 -382.34)"/><path class="cls-1" d="M615.74,480.79a4.05,4.05,0,0,1-1.27,3,4.27,4.27,0,0,1-6.06,0,4.08,4.08,0,0,1-1.26-3V471a4.29,4.29,0,0,1,7.34-3,4.17,4.17,0,0,1,1.25,3Zm-3.91,22.26h-3l17.52-36.27h3Zm-2-22.32a1.56,1.56,0,0,0,2.66,1.11,1.48,1.48,0,0,0,.46-1.11v-9.79a1.48,1.48,0,0,0-.46-1.11,1.56,1.56,0,0,0-2.66,1.11Zm16.88,3.58a4.07,4.07,0,0,1,3,1.28,4.15,4.15,0,0,1,1.24,3v9.79a4.07,4.07,0,0,1-1.25,3,4.32,4.32,0,0,1-6.05,0,4.06,4.06,0,0,1-1.26-3v-9.79a4.3,4.3,0,0,1,4.3-4.3Zm1.47,4.24a1.56,1.56,0,0,0-3.12,0v9.8a1.52,1.52,0,0,0,.46,1.11,1.56,1.56,0,0,0,2.66-1.11Z" transform="translate(-510.3 -382.34)"/><path class="cls-1" d="M554.9,510.59a3.24,3.24,0,0,1,2.18.77,2.33,2.33,0,0,1,.89,1.83v5.93a2.32,2.32,0,0,1-.9,1.84,3.23,3.23,0,0,1-2.17.76,3.18,3.18,0,0,1-2.16-.76,2.35,2.35,0,0,1-.89-1.84v-5.93a2.33,2.33,0,0,1,.9-1.84A3.26,3.26,0,0,1,554.9,510.59Zm1.06,2.57a.84.84,0,0,0-.32-.66,1.16,1.16,0,0,0-.79-.28,1.13,1.13,0,0,0-.78.28.82.82,0,0,0-.33.66v5.94a.84.84,0,0,0,.33.67,1.17,1.17,0,0,0,.78.27,1.2,1.2,0,0,0,.79-.27.86.86,0,0,0,.32-.67Z" transform="translate(-510.3 -382.34)"/><path class="cls-1" d="M567.76,510.73a3.23,3.23,0,0,1,2.37.76,2.46,2.46,0,0,1,.66,1.83v1.58a2.38,2.38,0,0,1-1,2l1.43,4.74H569.1l-1.17-4.09h-1.29v4.09h-1.93V510.73Zm1.15,2.62c0-.63-.37-1-1.1-1h-1.17v3.48h1.17a1.12,1.12,0,0,0,.78-.28.81.81,0,0,0,.32-.66Z" transform="translate(-510.3 -382.34)"/><path class="cls-1" d="M580.62,521.73a3.23,3.23,0,0,1-2.17-.76,2.33,2.33,0,0,1-.9-1.83v-5.93a2.32,2.32,0,0,1,.9-1.84,3.48,3.48,0,0,1,4.34,0,2.35,2.35,0,0,1,.89,1.84v1.24h-2v-1.27a.86.86,0,0,0-.32-.67,1.16,1.16,0,0,0-.79-.28,1.12,1.12,0,0,0-.78.28.83.83,0,0,0-.32.67v5.94a.85.85,0,0,0,.32.67,1.16,1.16,0,0,0,.78.27,1.2,1.2,0,0,0,.79-.27.88.88,0,0,0,.32-.67V517H580.6v-1.65h3.08v3.8a2.33,2.33,0,0,1-.9,1.84A3.26,3.26,0,0,1,580.62,521.73Z" transform="translate(-510.3 -382.34)"/><path class="cls-1" d="M592.52,519.1l-.47,2.49h-2l2.18-10.86h2.65L597,521.59h-2l-.45-2.49Zm1-5.88-.71,4.28h1.43Z" transform="translate(-510.3 -382.34)"/><path class="cls-1" d="M605.85,510.72l2.56,7.31v-7.31h1.93v10.87h-2.07l-2.66-7v7h-1.93V510.72Z" transform="translate(-510.3 -382.34)"/><path class="cls-1" d="M619,521.59H617.1V510.73H619Z" transform="translate(-510.3 -382.34)"/><path class="cls-1" d="M628.84,521.73a3.23,3.23,0,0,1-2.17-.76,2.32,2.32,0,0,1-.89-1.83v-5.93a2.32,2.32,0,0,1,.9-1.84,3.46,3.46,0,0,1,4.33,0,2.35,2.35,0,0,1,.89,1.84v1.24h-2v-1.27a.84.84,0,0,0-.33-.67,1.24,1.24,0,0,0-1.57,0,.86.86,0,0,0-.32.67v5.94a.88.88,0,0,0,.32.67,1.28,1.28,0,0,0,1.57,0,.86.86,0,0,0,.33-.67v-1.5h2v1.52A2.33,2.33,0,0,1,631,521,3.26,3.26,0,0,1,628.84,521.73Z" transform="translate(-510.3 -382.34)"/></g></svg>