<svg xmlns="http://www.w3.org/2000/svg" xmlns:xlink="http://www.w3.org/1999/xlink" viewBox="0 0 220.17 220.87"><defs><style>.cls-1{fill:#fff;}.cls-2{mask:url(#mask);}.cls-3{fill:#52a058;}</style><mask id="mask" x="-63.82" y="-90.42" width="388.84" height="363.97" maskUnits="userSpaceOnUse"><rect class="cls-1" x="-18.25" y="-24.74" width="288.5" height="266.56" transform="translate(-23.07 34.82) rotate(-14.43)"/><path d="M113.72,115.31h0l-.81.2v0h0v0l1.6.41h0a1.43,1.43,0,0,0,0-.62h0a.77.77,0,0,0,0-.15l-.81.19Z"/><path d="M119.33,102.09h0l-.8-.15h0l-.06,0,.2.77h0l-.21-.76.36,1.55h.06l-.21-.78h0l.2.78a1.69,1.69,0,0,0,1.28-1.27l-.82-.15Z"/><path d="M66.36,126.8h0l-.27-.07-.52-.16a.57.57,0,0,1-.08.13.8.8,0,0,0-.08.16.64.64,0,0,0-.08.14h0l1.53.61h0s0-.09.07-.13a1.91,1.91,0,0,0,.21-.43l0,0-.8-.21Z"/><path d="M137.35,155.51l.78-.27a1.72,1.72,0,0,0-1.1-1.11l-.58,1.51h0s.05,0,.08.12h0l.8-.26Z"/><path d="M48.88,88.56l.47.64a1.46,1.46,0,0,0,.58-.74h0a1.8,1.8,0,0,0,.07-.9v-.08l0-.08a2,2,0,0,0-.4-.64.75.75,0,0,0-.19-.17h0l-1,1.26,0,.06v0h0v0l0,0h0l.05,0,.43.59h0Z"/><path d="M156.57,129.94h0l.65.49-.65-.49a0,0,0,0,0,0,0l.66.47a.27.27,0,0,0,.07-.08h0l.1-.14h0L156,129.3h0l-.07.09h0l0,0,.65.48Zm-.64-.49.65.47a0,0,0,0,1,0,0Z"/><path d="M121.74,159.25l.27.75a1.64,1.64,0,0,0,1.08-1.54v-.14a1.91,1.91,0,0,0-.59-1.17l-1.15,1.17h0s0,0,0,0a.26.26,0,0,1,.06.13l0,.07h0l0,0v0h.06l.25.71h0Z"/><polygon points="101.64 130.55 101.64 130.55 101.64 130.55 102.1 129.88 102.1 129.88 102.1 129.88 101.51 129.51 100.59 130.87 100.85 131.03 100.85 131.03 101.18 131.23 101.64 130.55 101.64 130.55"/><path d="M121.69,24.67h0l-.73.41a1.87,1.87,0,0,0,.56.59h0a1.76,1.76,0,0,0,1.28.25h.08c.23-.06.82-.21,2.61-2.44l-.66-.48h0l-.65-.49a11.41,11.41,0,0,1-1.71,1.84.22.22,0,0,1-.08-.1l-.72.42Z"/><path d="M233,151.22h0l-.83.13a.76.76,0,0,1,0,.37h0l1.39.85a1.77,1.77,0,0,0,.27-.8h0a2.62,2.62,0,0,0,0-.68h0l-.82.13Z"/><path d="M127.53,141.62h0l-.77-.28v0l0,.09,0,.05h0l1.59.45v0l-.77-.29Z"/><path d="M189.08,71.47h0l.71.41h0l.07-.1.17-.27h0l-1.47-.74h0a.76.76,0,0,1-.08.11v0l-.09.14v0l.7.41Z"/><path d="M151.68-4l-.07.79h.17V-4h0v.79l1,0,0-1c0-.07,0-.13,0-.21h0c0-.1,0-.2,0-.3h0l-.76.12h0l.75-.14-.75.13,0-.21h-.25l0,.25-.64.11.64-.1h0l-.63.1c0,.09,0,.21,0,.34V-4h0Z"/><path d="M41.24,47.26h0a7.07,7.07,0,0,0,.69-.65,7.51,7.51,0,0,0,.85-1.18l.12-.23-.75-.34h0l-.74-.35-.09.17a5.12,5.12,0,0,1-1.16,1.39l1.08,1.2Z"/><path d="M167.42,128.1a.83.83,0,0,0,.09.16,1.78,1.78,0,0,0,1.12.79l.4-1.56h0a.06.06,0,0,1-.05,0,.76.76,0,0,1-.1-.15l-1.46.79Z"/><path d="M43.74,38.38a2,2,0,0,0,.11.28h0a1.19,1.19,0,0,0,.08.16,1.07,1.07,0,0,0,.19.28l0,0,.74-.68.5-.41a.39.39,0,0,1,0-.09l0-.09a2.47,2.47,0,0,0-.1-.29h0l-1.53.64h0C43.71,38.27,43.72,38.33,43.74,38.38Z"/><path d="M140.6,43h0l.17-.25h0L139.33,42h0l-.07.1a2,2,0,0,0-.26.42l1.54.59A.24.24,0,0,1,140.6,43Z"/><path d="M145,46.35l.7-.45h0l.69-.46h0l-.08-.13a2,2,0,0,0-.32-.46h-.24a.92.92,0,0,0-.23-.09l-.26.76h0l-.26.77a.45.45,0,0,1-.24-.15l.08.13A1.75,1.75,0,0,0,145,46.35Z"/><path d="M133.31,31.62a1.36,1.36,0,0,1,.24.17l.15.11h0l1.05-1.27h0l-.12-.09a2.63,2.63,0,0,0-.39-.28h0l-.11-.06-.8,1.42h0Z"/><path d="M150.7,185.91h0l.5-.63-.48.65.12.09,1-1.29h0l-.29-.21-1,1.28.16.11Zm.64-.79-.12.15.48-.62Z"/><path d="M94.12,210.65a2,2,0,0,1,0-.23l0-.15h0l-1.65-.12h0v.14a3,3,0,0,0,0,.54v0h0l1.66-.11Z"/><path d="M109.9,206.93l.54.11.38.07h0l.24,0,.08-.8h0l0-.27h0L111,206l.27-.13,0-.32a4.18,4.18,0,0,1-.41-.08l-.17,0h0l-.11.43-.91-.29a1.26,1.26,0,0,0,.08,1Z"/><path d="M92.18,104.09l.07,0,0,.15.18-.06L92.4,104l1.23-.37a1.43,1.43,0,0,0-1.62-1l-.15,0-.13.07.29.57Z"/><path d="M61.9,82.56a.45.45,0,0,1,.05-.1l0,0h0l-.11,0h0a.37.37,0,0,1,0,.14h0Z"/><path d="M189.85,162.4l.06-.05.24.35-.41.16a.17.17,0,0,1,0-.08v.05a1.18,1.18,0,0,0,0,.2h0l.53-.14.08.11h0l.46.66a1.62,1.62,0,0,0,.26-.22l.41-.33-.12-.48v0s0-.09,0-.14h0a.82.82,0,0,0-.06-.19l-.77.31h0l-.15.06-.34-.38h0l-.15.14,0,0Z"/><path d="M49.5,124.8h0a1.83,1.83,0,0,0,.13.16l.58-.48.08.16h0l.1-.06-.09-.17.61-.5v0h0l-.19-.27-.08-.12h0l-.6.39-.38-.69-.91.48.58.84A3.1,3.1,0,0,0,49.5,124.8Z"/><polygon points="189.72 162.78 189.72 162.78 189.72 162.78 189.72 162.78 189.72 162.78"/><path d="M57.83,151h0a.61.61,0,0,1,0,.12,1.88,1.88,0,0,0-.16.49l1.63.25,0-.09,0,0a2.33,2.33,0,0,0,.11-.28h0Z"/><path d="M114.62,23.19l.42-.68-.13-.28,0-.19h-.06l-.09-.13-.21.16-.62.08-.12-.36,0,0,.13.34-.23,0-.24-.14a.41.41,0,0,1,0,.09l0,0,0,.11h0v.05l-.7,1.64,1.79-.63Z"/><path d="M165,61.32l0,.3h0l.21.21.12-.08c.08-.06.17-.11.24-.17h0l-.3-.36.16-.06h0l.78-.29a1.15,1.15,0,0,0-.25-.37h0a1.31,1.31,0,0,0-.84-.34l-.33,0-.25.21-.12.07a2.22,2.22,0,0,0-.37.29l.73.7Z"/><path d="M208.66,96.45c.06.09.11.18.17.26l1.34-1h0l-.08-.12a0,0,0,0,1,0,0l0,0-.05-.08,0,0s0,0,0,0,0,0,0,0a1.16,1.16,0,0,0-.18-.2l-1.19,1.14.09.13Z"/><path d="M198.19,111.52c.14,0,.46,0,.76.67a1,1,0,0,1,0,.44v0h0l1.56.54a2.35,2.35,0,0,0,0-1.49l0-.11a2.66,2.66,0,0,0-1.4-1.49h0a2.44,2.44,0,0,0-.92-.17v.8h0v.8Z"/><path d="M211.25,149.3l.81-1.41h0l-.09-.06c-.55-.35-.8-1.17-1.42-3.48l-.13-.43-.24-.07-1.89-1.56.31,1.21h0l.36,1.3C209.65,147.43,210,148.64,211.25,149.3Z"/><path d="M75.14,107.56h0a.61.61,0,0,1,0-.12,2.17,2.17,0,0,0,.12-.26h0a1.09,1.09,0,0,0,.05-.17l-.59-.13.59.11-.81-.15h0l-.8-.17h0a.61.61,0,0,1,0,.12,2.06,2.06,0,0,0-.12.26h0Z"/><path d="M113.7,125.56s0,0,0,0h0l1.6-.46a1.92,1.92,0,0,0-.41-.76l-1.26,1.07h0A.39.39,0,0,1,113.7,125.56Z"/><polygon points="0.22 85.55 0.57 84.98 0.8 83.98 -0.73 83.83 -0.8 84.36 -0.8 84.36 -0.82 84.57 -1.02 84.53 -0.82 84.57 -0.93 85.43 0.22 85.55"/><path d="M58.19,187h0l-.08.12a1.68,1.68,0,0,0-.26.46l1.55.54h0s0,0,0,0l.07-.1,0,0c0-.08.11-.16.15-.24h0Z"/><path d="M169.21,128.89h0a.16.16,0,0,1,0-.08l0,0,1.15,1.14.05-.06,0,0a1.62,1.62,0,0,0,.25-1.69h0l-.79.28h0l-.78.27a.31.31,0,0,1,0,.19Z"/><polygon points="196.19 164.55 195.56 164.38 195.63 164.27 195.56 164.38 195.39 164.34 195.39 164.34 195.39 164.34 194.58 164.13 194.22 165.35 195.7 166.19 196.19 164.55"/><path d="M38.23,108.29h0l-.28-.75A1.5,1.5,0,0,0,37,109l1.49,0Z"/><path d="M143.31,159.41h0l.29.42s0,0,0,0h0l.19-.07h0l-.2-.42,1-.16,0-.1h0s0,0,0-.05h0a.77.77,0,0,0-.15-.3h0a1.33,1.33,0,0,0-.68-.43l-.33-.08-.28.13-.1,0h0l-.08,0h0l-.13.07.58.92Z"/><path d="M21.6,148.78h0a.58.58,0,0,1,0-.14c0-.09.07-.17.1-.25l-1.58-.47h0a.69.69,0,0,1-.05.13,1.9,1.9,0,0,0-.1.28h0Z"/><path d="M196.06,79.85h0l.13,0a1.52,1.52,0,0,0,.82-1.13h0s0-.09,0-.14h0l-1.51-.1h0Z"/><path d="M7.72,90.26v-.15a2.07,2.07,0,0,0-.36-.91A1.41,1.41,0,0,0,7,88.85l-.06,0-.48.66.46-.68L6.11,90,6,90.13H6a.6.6,0,0,1,.06.18.38.38,0,0,1,0,.18H6l1.35.9A2,2,0,0,0,7.72,90.26Z"/><path d="M113.46,80.13l0,.07a.44.44,0,0,1-.12.1l.79,1.39h0l.07,0h0a1.89,1.89,0,0,0,.9-1.16l-.8-.18.8.18a1.86,1.86,0,0,0,.06-.48l-1.66,0S113.46,80.1,113.46,80.13Z"/><path d="M137.12,105h0l-.06.11,0,0a.41.41,0,0,0-.05.09h0l.73.38h0l.73.38.05-.08a.41.41,0,0,0,.05-.09l.1-.17h0Z"/><path d="M49.27,111.23h0c-.06-.06-.11-.12-.18-.18h0a1.54,1.54,0,0,0-.52-.33l-.66,1.48h0s.15.14.28.59a1.81,1.81,0,0,1,0,.5h0l.75.33.76.31a.84.84,0,0,0,.08-.2h0a2.12,2.12,0,0,0,.08-.41h0a3.64,3.64,0,0,0,0-.74v-.08l0-.07A3.19,3.19,0,0,0,49.27,111.23Z"/><path d="M120.36,144.2h0l-.1.09,0,0-.13.1-.07.08,1.19,1.09h0l.12-.1a2.69,2.69,0,0,0,.3-.29h0l.07-.09h0l-1.33-.93Z"/><path d="M113.13,129.8l.05.79-.08-.79-.11,0h-.09l.19.78-.22-.77.2.78h0l.13.49h0l0,.29v-.22l0,.22,0-.21h0v0h0l0,.17,0-.1,0,.1,0-.21v-.09l.93-.94A1.33,1.33,0,0,0,113.13,129.8Z"/><path d="M130.16,149a2.43,2.43,0,0,0-.31-.37l-1.16,1.17.09.12a2,2,0,0,0,.21.26h0l.08.38h0l.18.78h.05a1.48,1.48,0,0,0,1-.87,1.94,1.94,0,0,0,.13-.88l0-.26-.18-.19Z"/><path d="M140.67,189.6h0a1.82,1.82,0,0,0-1.63-1.07l-.13,1.6h0a.18.18,0,0,1,.1,0c.08,0,.17.19.25.61a.76.76,0,0,1,0,.23h0l1.28,1h0l.15-.22a2.05,2.05,0,0,0,.27-1.11v-.13a3.29,3.29,0,0,0-.28-.93Z"/><path d="M131.07,171.46h0l-.12.09a2.83,2.83,0,0,0-.31.25h0a.23.23,0,0,1-.07.07h0l1.24,1,.12-.09.26-.19h0Z"/><path d="M192.76,165l-.19,0a2.87,2.87,0,0,0-.42,0l0,.49-.09,0-.17.29.08.32.21,0,0,.6.28,0,1.37.14-.21-.8.5-.8L192.9,165Z"/><path d="M156.54,86.48h0a1.92,1.92,0,0,0,.21-1v-.13a2,2,0,0,0-1.39-1.66h0l-.55,1.53.06,0a.49.49,0,0,1,.25.37c0,.1,0,.15,0,.14l.2.78h0l-.2-.77.19.78h0l.18.77h0l-.2-.78h0l.21.77h0a1.61,1.61,0,0,0,1.05-.83Z"/><path d="M209.19,189.5l0-.05a3.31,3.31,0,0,0-.48-1h0a1.74,1.74,0,0,0-1.24-.75l-.12.8h0l-.12.79s.06,0,.13.12h0a2.31,2.31,0,0,1,.22.5,1.68,1.68,0,0,1,0,.31l1.66,0h0s0,0,0,0h0a4.55,4.55,0,0,0,0-.61Z"/><path d="M197.83,171.39h-.11s-.07-.05-.11-.14a.08.08,0,0,1,0,0l-1.53.66h0a.14.14,0,0,0,0,.06A1.79,1.79,0,0,0,198,173h.12l.11,0,.17-.08.17-.09h0l-.69-1.09Z"/><path d="M180.15,102.47h0l0,0h0a.2.2,0,0,1,.11-.06h0l0,.26-.18,0,.18,0,.21,1.32.09,0h0a1.49,1.49,0,0,0,1.12-1.42v-.12l-1.32-5.13-.35,5.18A.15.15,0,0,1,180.15,102.47Z"/><path d="M181.43,130.58l-.13,0,.28,1.57c.18,0,.19,0,.23.11l1.54-.62A1.76,1.76,0,0,0,181.43,130.58Z"/><path d="M152.55,35.28l.07-.11.13-.2a1.71,1.71,0,0,0,.12-.23l-.78-.28.16-.25-.16.25-.77-.27.62.34-.62-.34h0l-.07.1c-.06.08-.11.16-.16.24l-.39.68,1.43.81Z"/><path d="M156.46,37.17l-.18,0-3.91,1,3.8.6-.07,0h.08l.31,0,0,.06,0-.06,1.25-.11A1.45,1.45,0,0,0,156.46,37.17Z"/><path d="M177.42,151.7h0a1.42,1.42,0,0,0-1.82-.7l-.15,0-.19.15,0,0-.17.16.93.78.06.14.08,0,.18.15h0l0,0-.12-.14h0l.12.13-.05-.05.05.05-.11-.13,1.21-.4h0A.5.5,0,0,0,177.42,151.7Z"/><path d="M179.3,130h0l-.14.44-.9-.36,0,0a.91.91,0,0,0-.06.26,1.37,1.37,0,0,0,.1.71l.15.34,1.06.3.49-1.54-.68-.19Zm.52.44a.77.77,0,0,1,0,.1s0,.08,0,.13l-.28-.1Z"/><path d="M71.12,76.61a1.41,1.41,0,0,0-1.1-.67l-.08.8,0-.8-.06.81h0l.06-.81a1.83,1.83,0,0,0-.46,0h0l.19.78L69.46,76l.2.78h0l-.2-.78-.15,0,.28.75h0l.27.73v0a.14.14,0,0,1-.09,0l-.06,0h0a1.18,1.18,0,0,1,.15.3.4.4,0,0,1,0,.11h0l0-.06s0,0,0,.06h0l.11,0,1.15,1h0a1.42,1.42,0,0,0,.29-.51h0a2.36,2.36,0,0,0,.06-.77v-.11l0-.1A4.13,4.13,0,0,0,71.12,76.61Zm-1.42.16Zm0,0h0Zm.16.76-.2-.74h0l.2.74Zm0,0h0v0l-.16-.74h0l.16.72-.16-.72h0l.16.7Zm0-.16,0-.58h0l0,.57Z"/><path d="M46.16,64.34s0,0,0,0h0l-.06.12a.16.16,0,0,1,0,.07l0,.12,0,.08,1.56.52h0l.06-.11h0a1.86,1.86,0,0,0,.2-.59v-.07l-1.66,0S46.16,64.36,46.16,64.34Z"/><path d="M76.54,112.36l.48,2.82c0,.07,0,.1,0,.1h0l0,0,0,0v0l.17.29.63,1.07h0l.12-.08a1.54,1.54,0,0,0,.64-1.62v0l-.06-.21Z"/><path d="M102.52,213.7a2,2,0,0,0-.41-.28h0a1,1,0,0,0-.25-.08h-.21l0,1.26h0l0,0,0,0v.3a.39.39,0,0,1-.23-.06h0l.11.09.24.19h0l.26-.37.18.1h0l.73.37a1.29,1.29,0,0,0,.11-1l-.07-.3-.26-.17Z"/><path d="M63.08,81.52l-.27-.21a.93.93,0,0,0-.1,0h0L62,82.37h0l0,0H62l-.16.25a.48.48,0,0,1,.11.09l.26.2h0l.12-.16.61.9a1.41,1.41,0,0,0,.57-1.56l-.06-.33-.28-.18Z"/><path d="M99.34,70.49h0l-.52.64h0l-.06.07-.26-.41h0l-.19.12h0l0,0h0l.06,0h0l.23.51-.14.18.2,0,0,.09h0l.34.72.12-.06h0l.11-.07h0l.06,0,.56-.32-.15-.58v0a1,1,0,0,0-.34-.71Z"/><path d="M111.86,138.19h0l-.3-.16a.37.37,0,0,1,.1-.11h0l-.12.07-.18.11-.24,0h0l-.82-.15V138s0,0,0,.05a1.3,1.3,0,0,0,.53,1.25h0a1.83,1.83,0,0,0,.81.31l.35,0,.28-.21.12-.08a1.46,1.46,0,0,0,.61-.52Z"/><path d="M98.07,71.52h0a.17.17,0,0,1,0,0h0v0h0v0a1.29,1.29,0,0,1,0,.19h0l.07,0h0Z"/><path d="M95,170.1l-.38.64.36-.65a1.72,1.72,0,0,0-.5-.16l-.22,1.4-.1.17a.76.76,0,0,1,.13.16q0,.08,0,.09h0a0,0,0,0,1,0,0l0,0h0l0,0,1,1.19.07-.06a1.26,1.26,0,0,0,.2-.2h0a1.37,1.37,0,0,0,.26-.59h0a2,2,0,0,0-.05-.87l-.07-.16A2.09,2.09,0,0,0,95,170.1Zm-.77,1.42s-.06,0-.06,0l0-.09,0,.09.09-.15Z"/><path d="M86.89,120.6a.9.9,0,0,1,0,.16h0l1.65-.15a2.11,2.11,0,0,0,0-.33.31.31,0,0,0,0-.08h0l-1.63.35A.09.09,0,0,1,86.89,120.6Z"/><path d="M104.1,136.45h0l-.09-.1-.2-.2h0l-.17-.13-1,1.32.1.1.17.18,0,0h0l.56-.6h0l.56-.6Z"/><path d="M78,96.17h0a1.59,1.59,0,0,0-1-.57l-.15.8h0l-.14.78a1.94,1.94,0,0,1,.26.62.62.62,0,0,1,0,.4h0l1,1.29.06,0a1.92,1.92,0,0,0,.64-1.93v-.14A3.45,3.45,0,0,0,78,96.17Z"/><path d="M105.31,178.3l-.61-.09a3.34,3.34,0,0,0-.66-.05v.8h0v.31h.13l-.13.05v.43l.36,0,.19,0h0l.09-.5.93.08h0v0h0a1.33,1.33,0,0,0-.12-.67Z"/><path d="M100.79,139.82h0l-.11-.1-.17-.13h0l-.2-.12,0,0-.41.71.37-.73-.54,1-.25.39.09.08,0,0,.07.05a1.25,1.25,0,0,0,.19.15l.49-.66h0l.48-.66Z"/><path d="M129.3,111.24h0a1.81,1.81,0,0,0-1-.28l-.43,0-.26.33-.11.11-.2.21h0l-.12.16h0v0l1.07.61v0h0l.3.17.1-.11.07-.07h1.12a.79.79,0,0,0,0-.22.28.28,0,0,0,0-.09h0a1.34,1.34,0,0,0-.57-.85Z"/><path d="M123.18,60.19h0l0,0h0A.31.31,0,0,1,123,60h.07l.24,0,0,.18,0-.18,1.35-.14a.09.09,0,0,0,0-.05.28.28,0,0,0,0-.09,1.42,1.42,0,0,0-1.44-1.12h-.12L117.62,60l5.52.2Z"/><path d="M119.12,31.56l-.71-.4.71.4a.37.37,0,0,0,.07-.14.64.64,0,0,0,.08-.14h0a2.46,2.46,0,0,0,.09-.29l-1.56-.29,0,0h0a0,0,0,0,1,0,0v0h0l0,0h0l0,0-.07,0,0,.05.14.07.82,1.18a1.59,1.59,0,0,0,.42-.4ZM118,30.81l.54.19-.53-.19Zm.14.11,0,0,1,.45Z"/><path d="M242.43,151s0,0,0,0h0s0,0,0-.05h-.1a1.63,1.63,0,0,0-1.75-.62l-.11,0-.1.05a2.05,2.05,0,0,0-.59.45l1.13.93,0,.1h.06l0,0h0l0,0a.33.33,0,0,1,.11-.07h0l.6-.22-.59.23,1.36-.53Z"/><polygon points="216.5 87.31 216.2 87.21 215.74 86.92 215.27 87.19 213.84 88.14 214.91 88.49 214.96 88.82 216.62 88.7 216.57 88.26 217.16 87.85 216.5 87.41 216.5 87.31"/><path d="M204,52.54a1.5,1.5,0,0,0,1.18-1.61h0l-.83.07h0l-.72.09.17.67h0l-.19-.66h0l.12.69h0l.13.78Zm-.2-.78h0Z"/><path d="M155.25,177.17a.69.69,0,0,1-.05.13c0,.12-.08.24-.11.36l.51.11-.19.16.19-.16,1.1.23h0l.06-.18.07-.18.14-.43-1.28-1.42Z"/><path d="M215,101.51h0a.94.94,0,0,1-.1-.1l-.16-.14h0a1,1,0,0,0-.22-.16l-.88,1.37.1.1a2.31,2.31,0,0,0,.24.2h0l1-1.27Z"/><path d="M154.45,171.93l.24.54h0l.32.73h0l.18-.09a1.28,1.28,0,0,0,.57-1.43h0s0,0,0,0h0l-1.3.29Z"/><path d="M137.07,46.57h0l-.06.12a2.16,2.16,0,0,0-.18.4h0a2.5,2.5,0,0,0,0,.29h1.67a.38.38,0,0,1,0,.13h0s0-.07.06-.11.1-.19.14-.28h0Z"/><path d="M217.74,96.2a1.74,1.74,0,0,0-.1-.19h0a1.88,1.88,0,0,0-.12-.18l0,0-.66.5h0l-.34.25-.33.24h0l0,0,0,.07.07.15a.47.47,0,0,1,.05.1h0l1.46-.81h0A.67.67,0,0,1,217.74,96.2Z"/><path d="M164.94,140.68l0,1v.15a2.34,2.34,0,0,0,0,.57v0l.64-.15h0l-.64.15v0l.63-.15,0,.13,0-.13.18,0h0l.81-.2-.81.19h0l.81-.18v0h0v-1l-.54-.17Zm.89,1.58-.18,0h0l.18,0Z"/><path d="M227.69,56.91l0-.08a1.24,1.24,0,0,0-.8-.67l-.35,1.14-.41.1h0c0,.13,0,.16-.05.2l0,0,1,1.24a.39.39,0,0,1,.1-.08,1.77,1.77,0,0,0,.56-1.79Zm-1.32.79h0a.37.37,0,0,1-.18-.12l.31-.15Z"/><polygon points="71.6 167.99 71.62 167.98 71.62 167.98 71.64 167.96 71.62 167.98 71.6 167.99"/><polygon points="71.64 167.96 71.66 167.95 71.66 167.95 71.64 167.96"/><polygon points="103.81 82.54 103.81 82.54 103.81 82.54 103.88 82.49 103.88 82.49 103.81 82.54"/><path d="M116.35,9.76l1.48.71,0-.07a2.94,2.94,0,0,0,.28-1.13h0A3.43,3.43,0,0,0,118,8.13c-.54-1.86-3-3.53-5.21-4.35l-.63,1.5c2.1.78,3.91,2.2,4.24,3.32a1.5,1.5,0,0,1,0,1.13Z"/><path d="M237.15,97.63a1.14,1.14,0,0,0-.11-.11l-.1-.1s0,0-.05,0l-.55.61h0l.53-.62-.53.6.52-.61-.54.62h0l-.41.48h0v0l-.09.09.05,0-.05,0h0l.11.11a2.55,2.55,0,0,0,.24.23h0l.14-.14.14.27h0l.37.71a1.28,1.28,0,0,0,.51-.44h0a1.57,1.57,0,0,0,.22-1.11l0-.29-.22-.19A.57.57,0,0,1,237.15,97.63Zm-1.23.83a.27.27,0,0,1,.13-.1l0,.08Zm0,0h0l.44-.48h0Z"/><path d="M141.68,43.16l-.07,1.36s0,0,0,0l0,.11v.11h0l.15.55.25.76h0l.25-.1h0a1.9,1.9,0,0,0,.91-1.07l.05-.15v-.16A1.45,1.45,0,0,0,141.68,43.16Z"/><path d="M219,130.92a2.65,2.65,0,0,0-.24-.25h0a1.08,1.08,0,0,0-.49-.24h-.1s0,0,0,0h0l-.08,1.15h-.12l.11.05,0,.41a.59.59,0,0,1-.33-.11h0l.08.09.21.23h0l.43-.44.83.39a1.26,1.26,0,0,0,.14-.44l.07-.42-.32-.28A.73.73,0,0,1,219,130.92Z"/><path d="M105.14,81.56l0,0,0,0-.67.49h0l.67-.49-.59.43.59-.44-.67.5h0l.66-.49-.57.42.56-.43,0,0,0,0-.66.5h0l.66-.5-.59.45.59-.46-.66.5.65-.51-.66.51h0l.65-.52-.65.52h0l.66-.52-.59.46.57-.46h0l-.65.52h0l.65-.52a1.52,1.52,0,0,0-1.58-.49l-.2.07-.12,0-.11.08a1.55,1.55,0,0,0-.66,1.35l1.44-.11,0,0-.08.06h0l.08,0h0l.05,0h0l-.08.06h0l.06,0h0l-.14.1h0l.07-.06,0,0h0l.08-.06h0l-.08.06h0l0,0,0,0h0l.09-.06h.11v0s0,0,0,0h0l0,0h0l-.06-.06h0l.44-.3.66-.51-.67.49Zm-.69.47-.21.17.21-.17Zm0,0h0l-.41.33Zm-.41.33.41-.32h0l-.41.32Zm0,0,.42-.32h0l-.42.32Zm0,0,.43-.32h0l-.43.31Zm0,0h0l.42-.31h0Z"/><polygon points="210.53 158.43 210.09 157.88 208.77 158.87 208.77 158.87 208.77 158.87 209.2 159.42 210.53 158.43 210.53 158.43 210.53 158.43"/><path d="M207.61,149.58l.14-.08-.86-1.35-.09,0-.14.07.86,1.36h0Z"/><path d="M148.18,166.85l-1.63.33a.38.38,0,0,1,0,.14h0a.18.18,0,0,1,0-.08s0,0,0,0l1.25,1a1.44,1.44,0,0,0,.35-1.11,2.51,2.51,0,0,0,0-.27h0Z"/><polygon points="105.09 81.5 105.08 81.51 105.08 81.51 105.09 81.5"/><polygon points="103.8 82.53 103.8 82.53 103.8 82.53 103.8 82.53"/><polygon points="204.7 138.46 204.69 138.46 204.69 138.46 204.31 138.1 203.9 138.86 203.34 139.15 203.65 139.84 204.03 140.6 204.34 140.44 204.43 140.54 205.01 140.17 205.75 139.53 205.51 139.29 206.32 137.64 204.7 138.46"/><path d="M188.34,42.21h0l-1.18-1.1h0l-.1.08-.11.09a1.56,1.56,0,0,0-.25.26.44.44,0,0,0-.08.11l.72.4h0l-.72-.4-.07.13.76.3h0l.16.06.58.3-.05.07,0,0,.07-.05h0l.23-.19Zm-1-.17h0l.1.05Z"/><path d="M216,131.5l-.06,0h0c-.22,0-.45.13-.67.19l-.39.13h0l.22.76v0l-.82-.48-.07.12.78.5-.39.49h0l.36.27.39.29.46-.59c.19-.06.38-.12.57-.16h0l.17,0h0l-.29-1.57-.28.06Z"/><polygon points="225.07 188.59 224.39 188.37 223.83 189.89 224.51 190.11 224.51 190.11 224.51 190.11 225.07 188.59 225.07 188.59 225.07 188.59"/><path d="M31.64,126.86l-.06,0,0,0-.08,0,.47.66-.47-.65a2,2,0,0,0-.28.21,0,0,0,0,0,0,0h0l1.12,1.15h0l.1-.07,0,0,.18-.13.1-.1-.73-.71Z"/><path d="M133.92,191.66l0,0,0,0,0,0h0l-1.09.87-.21,0h0v.08h0l0-.05h0l0,.06h0l-.05,0h0a.19.19,0,0,1,.05.09h0l0,0h0l.66,1.24a1.48,1.48,0,0,0,.28-.17h0a1.56,1.56,0,0,0,.58-1.48v-.12l-.05-.1A2.36,2.36,0,0,0,133.92,191.66Z"/><path d="M146.84,201.14h0l-.13-.06h0a1.67,1.67,0,0,0-.49-.19h0l-.39,1.57.15.06.26.12h0l.6-1.5Z"/><path d="M52.42,118.7l-.13,0h0l0-.15,0,.15h0l0-.16v0l0,.15-.59.12h0l-.82.16h0a1.46,1.46,0,0,0,1.47,1.15l.18,0,.16,0h0v0l-.19-.74h0l.2.78.13,0-.43-1.22v-.14Zm0,.65-.09-.3v0l.09.35Z"/><path d="M60.88,141.91l.36.72h0l.28.58-.12.07.05,0-.05,0,.12-.07h0l.59-.36.7-.46A1.52,1.52,0,0,0,60.88,141.91Z"/><path d="M42.59,102.33l-.25,1.59h0a.88.88,0,0,1,.32.38,1.61,1.61,0,0,1,0,.23h0l1.52.62a2.09,2.09,0,0,0,.1-1.26l0-.1,0-.08A2.14,2.14,0,0,0,42.59,102.33Z"/><path d="M40.5,67.75h0l0,0-.42.72-.23-.11h0l-.16.29h0l.21.1-.46.62h0a2.62,2.62,0,0,0,.42.24l.87.46.9-1.74Z"/><path d="M68.52,96l-2.44-3.44.85,4a.87.87,0,0,1,0,.11h0a.55.55,0,0,1,.08-.13h0l0,0,.17.22-.17.12.17-.12.33.41h0l.51.62a.86.86,0,0,0,.14-.13,1.49,1.49,0,0,0,.35-1.42h0s0,0,0,0Z"/><path d="M166.46,201.56l-.32.09-.18.28.71.39.18.68h0l0,.1h0l.3-.07.18-.29.85-.44h0a.41.41,0,0,1-.07-.11A1.47,1.47,0,0,0,166.46,201.56Z"/><polygon points="79.83 136.58 79.77 136.17 79.77 136.17 79.83 136.58"/><path d="M156.43,204.07a1.49,1.49,0,0,0-.28.44,1.17,1.17,0,0,0-.11.33v0l.82.12h0l.65.1.17,0h0Z"/><path d="M60.18,204.5h0l-.65.51a1.77,1.77,0,0,0,.7.5h0l.63-1.49-.06,0Z"/><path d="M71.13,224.72a1.94,1.94,0,0,0-.28-.29h0l-1.1,1.22a.55.55,0,0,1,.1.19h0a.25.25,0,0,0,0,.07h0l.23-.06.25.56h0l.33.73.19-.1H71a1.52,1.52,0,0,0,.52-1.37v-.06l0-.07A2.41,2.41,0,0,0,71.13,224.72Zm-1.24,1.06.08-.07h0l0,0,0,.08Z"/><path d="M46.86,61.47l-.24-.18h0a1.18,1.18,0,0,0-.41-.17l-.2.78h0l-.11.39h0v0l0,0,0,0h0l-.09.35-.06,0h0l.12.09.26.19h0l0,0,.28.92.12-.05.13,0h0a1.28,1.28,0,0,0,.68-.91h0a2.05,2.05,0,0,0,0-.66l-.05-.37L47,61.56Z"/><path d="M23.6,91.39h0l0-.08h0l-1.4.59h0l.87,1.3h0l.22-.17a1.44,1.44,0,0,0,.35-1.61Z"/><path d="M88.31,92.54a.28.28,0,0,1,0-.08l-1.54.63a1.66,1.66,0,0,0,.9.92l.7-1.47h0Z"/><path d="M40.63,121.34a.89.89,0,0,1,.18.38l.79-.26h0l.8-.25a2.08,2.08,0,0,0-1-1.28Z"/><path d="M67.85,53.24l-.31.16-.1.32a.78.78,0,0,1,0,.14l-.1.24h0l-.06.22h0l1.12.17h0l.52.08a1.21,1.21,0,0,1,0-.14,1,1,0,0,0,.11-.29h0L68.64,54l.53-.84A1.38,1.38,0,0,0,67.85,53.24Z"/><path d="M87.31,111.57l-.8.23h0l-.81.24a.18.18,0,0,1,0,.11h0a.15.15,0,0,1,0-.06s0,0,0,0l1,1.26a1.56,1.56,0,0,0,.52-1.75Z"/><path d="M80.41,135.18l-.07-.05-.43.7h0l.43-.7-.11,0h0a1.07,1.07,0,0,0-.63-.08h-.08l-.23.08.45,1h0v0l-.27.44.19-.29.08-.11h0v.06l.11.4,0-.21,0-.11,0,.11,0-.08.12.27-.16-.47Zm-.5.65-.14.22.14-.22Z"/><path d="M118.14,196.47a1.68,1.68,0,0,0,1.16,1.2l.5-1.54s0,0,0-.11Z"/><path d="M113.13,214.48a.8.8,0,0,1,.28-.34l-.5-.63h0l.51.62-.5-.62h0l-.51-.63h0l.52.62h0l-.52-.62a2.83,2.83,0,0,0-.72.84h0a1.42,1.42,0,0,0-.08.18h0Z"/><path d="M3.18,60.19a1.76,1.76,0,0,0-1.5-.34l.19.78h0l.18.78s0,0,.07.05l1.16-1.18h0Z"/><path d="M96.85,48.44h-.06v0l-.23.07.23-.1-.24,0-1.41.23a2.13,2.13,0,0,0,.07.27A1.59,1.59,0,0,0,96.66,50l.15,0,4.69-1.21Z"/><path d="M29.68,93.71l-.18-.2L27.3,92.3l.89,2.17a.32.32,0,0,1,.15-.28l.36,1.55h.1a1.45,1.45,0,0,0,.22-.09,1.36,1.36,0,0,0,.69-.62,1.32,1.32,0,0,0,0-1.17Zm-1.33.48h0l.06.2v0l.05.19h0l-.05-.19h0l-.06-.19Z"/><polygon points="23.08 84.16 23.08 84.16 22.6 83.64 22.6 83.64 22.6 83.64 21.34 84.71 21.82 85.23 22.45 84.69 22.45 84.69 22.45 84.69 22.45 84.69 23.08 84.16 23.08 84.16"/><path d="M36.46,88.29a3.56,3.56,0,0,0-.39-.38h0l0,0h0l-.26.32v0l-.19,0-.15.13.12.13-.54.67a2.22,2.22,0,0,1,.23.22l.66.7.46-.4,1.17-.3-.95-1Z"/><path d="M94.41,132.65l.12-.19-.12.19-1.09.06h0v.05l0,.08,0,.27,0,.39.31.26,1.3.74.08-1.33a.61.61,0,0,1,0-.14l0-.11a.13.13,0,0,1,0-.06,2.08,2.08,0,0,0,0-.25l-.43,0Z"/><path d="M61.7,152.16l0,0h0l-.83-1.37a2.08,2.08,0,0,1-1.07.17l-4.8-.18,4.22,1.65.33.29.41-.11h0l.16-.05a3.8,3.8,0,0,0,.86-.12,2.89,2.89,0,0,0,.68-.25Z"/><path d="M70.11,193.79a2,2,0,0,0-.31-.54h-.14l0,0h-.06l0,0h0l-.43.7h0l-.27.46-.08,0h0l.07,0h0l0,0h0l.06,0-.13.21h0l0,0h0a.33.33,0,0,1-.12-.1h0s0,.09.07.13a2.52,2.52,0,0,0,.12.29h0l.51-.27.14.08h0l.72.39a1.48,1.48,0,0,0,.17-.41l.08-.29-.15-.27Z"/><path d="M67.32,186.11h0s0,0,.06.16l0,.07h0l0,0h.06l.15.74h0l.16.78h.09l.26-.1h0a1.63,1.63,0,0,0,.49-.37h0a1.72,1.72,0,0,0,.39-1.13v-.11a1.86,1.86,0,0,0-.57-1.14Z"/><path d="M178.9,113.64,178,115h0s0,0,0,.06,0,.19,0,.22h-.05l.44,1.54a1.69,1.69,0,0,0,.27-.1,1.78,1.78,0,0,0,1-2.09l0-.08,0-.08A1.8,1.8,0,0,0,178.9,113.64Z"/><polygon points="94.65 64.27 94.65 64.27 94.65 64.27 94.65 64.27"/><polygon points="94.65 64.27 94.65 64.27 94.65 64.27 94.65 64.27"/><path d="M95.7,62.18h0a1.45,1.45,0,0,0-.43-.33h0l-.2-.08-.58,1.51s.11,0,.24.57a.89.89,0,0,1,0,.44s0,0,0,0l.58.57h0l.57.57a1.62,1.62,0,0,0,.49-.93,2.92,2.92,0,0,0,0-.89l0-.08a2.73,2.73,0,0,0-.6-1.3Z"/><path d="M199.69,182.71h0a.59.59,0,0,1-.06.14v0a2.17,2.17,0,0,0-.14.43v0l1.64.22h0a1.12,1.12,0,0,1,.05-.13,1.76,1.76,0,0,0,.1-.3h0Z"/><path d="M186.82,186.34h0a1.68,1.68,0,0,0-1,0l-.36.09-.18.32a.61.61,0,0,1-.07.1l-.14.2h0l-.06.1h0l1.1.52h0v0l.33.15.07-.11a2,2,0,0,0,.18-.26h0l-.05,0,.11,0h0l.78-.29v0A1.29,1.29,0,0,0,186.82,186.34Z"/><path d="M122.7,130.31h-.06a.24.24,0,0,1,0,.08h0a.2.2,0,0,1,0-.09Z"/><path d="M124,131.25a1.47,1.47,0,0,0,.25-1.3h0l0-.08h0l-.69.21.69-.22-1.52.45h0Z"/><path d="M112.78,119.2l.57,1.39h0l1.07-1.2A1.56,1.56,0,0,0,112.78,119.2Z"/><polygon points="244.37 157.77 244.37 157.77 244.37 157.77 245.46 158.96 245.46 158.96 245.46 158.96 245.93 158.55 244.84 157.36 244.37 157.77"/><path d="M120.57,14.85h0v0h0v0h0v0l-.13-.06-1-1.08a1.29,1.29,0,0,0-.17.16l.6.54-.61-.54-.06.08a1.13,1.13,0,0,0-.1.13l.69.43-.7-.42,0,.07a1.28,1.28,0,0,0-.19.49l1.45.2Zm-.35-.28-.37-.29.38.29Z"/><path d="M94.26,31.7l.38-.1a4.13,4.13,0,0,0,1.72-.8h0a2.24,2.24,0,0,0,.7-1.13l-.8-.18.81.17-.82-.18h0l.82.17v-.07l-.8-.15.81.14-1.63-.29.79.15-.79-.15v0l.8.17h0l-.8-.17a.54.54,0,0,1-.12.24h0a2.11,2.11,0,0,1-1.09.51l-.36.09-.14,0a5.78,5.78,0,0,1-1,.18h0a.57.57,0,0,1-.23,0l-.47,1.55h0l.28,0h.08a5.35,5.35,0,0,0,1.65-.23Z"/><path d="M53.92,24.07l.13-.05a2.37,2.37,0,0,0,.32-.14l-.61-1.07v-.19l.07,0-.07,0h0l-.11,0-.08-.14h0l-.07,0h0l0,.12-.51.1h0l-.82.15a.17.17,0,0,0,0,.07,1.47,1.47,0,0,0,1.58,1.11Z"/><path d="M198.22,37.66h0l-.81.21.79-.19-.78.2s0,0,0,.08a.83.83,0,0,1,0,.21h0l0,0s0,0,0,0l.65.5.65.47a1.51,1.51,0,0,0,.29-.58h0a2.41,2.41,0,0,0,.07-.53v-.11a2,2,0,0,0-.06-.39l-.8.2.79-.24Z"/><path d="M202.84,40.86a2,2,0,0,0-.92-.89l0,0-.72,1.46c.06,0,.13.09.23.27a3.68,3.68,0,0,1,.25.63,1.76,1.76,0,0,1,0,.77h0l1.61.37a3.27,3.27,0,0,0,0-1.55v0A5.39,5.39,0,0,0,202.84,40.86Z"/><polygon points="232.19 151.73 232.19 151.73 232.19 151.73 232.19 151.73"/><path d="M97.2,212.93l-.45-.86,0,0-.09-.14-1.38.83H95.2l.53,1.19.17.46.22,0,.19.36,1.51-.72-.22-.4L98,213Z"/><path d="M88.48,148.44,88,150l.09,0a2.68,2.68,0,0,1,1.62,2,3.21,3.21,0,0,1,.06,1.46,2.23,2.23,0,0,1,0,.23h0l1.63.29a4.84,4.84,0,0,0,0-2.43A4.15,4.15,0,0,0,88.48,148.44Z"/><polygon points="141.55 163.26 141.75 163.18 141.76 163.18 141.55 163.26"/><path d="M143.09,163.54h0a1.08,1.08,0,0,0,.08-.66h0v0h0a0,0,0,0,0,0,0,.88.88,0,0,0-.05-.15l-.77.3.77-.32-.78.32h0l-.33.14h0l-.15.06h0l-.09,0-.2.08.3-.12.17,0,1.07.44Z"/><polygon points="129.6 176.18 130.4 175.99 130.49 176.73 130.54 176.72 130.41 175.99 130.52 175.96 131.2 176.15 131.58 174.92 129.38 175.31 129.6 176.18"/><path d="M101.55,21.44s0,0-.06.06h0a.1.1,0,0,1,0,.06l-.36,0,.2-.25h0l-.84-1.11h0a1.48,1.48,0,0,0-.35.36h0a2,2,0,0,0-.3,1v.11a1.23,1.23,0,0,0,.5.95l.75-1,.41,0h0a.77.77,0,0,1,0-.23Z"/><path d="M115.16,109l-.13,0a4.43,4.43,0,0,0-.6-.14l-.23,1.6h0l.1,0,.22,0h0l.15.05h0l.49-1.54Z"/><polygon points="250.13 34.34 250.13 34.34 250.13 34.34 250.13 34.34"/><path d="M254.23,108.14h0l0,.8h0l0,.51h0l0,.3h.21l.14,0-.07-.34-.07-1.55-.3,0Z"/><path d="M41.16,83.65h-.09a1.24,1.24,0,0,0-.27,0h-.5l-.2.07a3,3,0,0,0-.44.16h0l-.19.1.92,1.33h0l.19-.07h.11v0h0Z"/><path d="M73,167l-.66.48L73,167l-.67.48h0L73,167a2.73,2.73,0,0,0-.23-.25h0a1.53,1.53,0,0,0-1.63-.27l-.14,0-.11.1a1.57,1.57,0,0,0-.64,1.26h0a1.35,1.35,0,0,0,0,.28L71,168h0l.59-.13,0,.05,0,0-.05,0h0s0,0,0,0h0l.17-.12h0l-.14.09h0l.17-.11h0s0,0,0,.06h0a.17.17,0,0,1,0-.05h0l0,0h0l.43-.28Zm-1.09.78h0l.09-.06.32-.23h0l-.33.23-.09.06.42-.29h0Z"/><path d="M219.1.29h0a.17.17,0,0,1,.09-.07h0l.05.19-.1,0,.1,0,.13.59h0l.17.78,0,0A1.58,1.58,0,0,0,220.78.29l0-.14-1.2-4.67L219.13.17A.4.4,0,0,1,219.1.29Z"/><path d="M170.53,100.14a3.07,3.07,0,0,0-1.05-1.07h0a2,2,0,0,0-1.56-.22h0a2,2,0,0,0-.39.13l.32.73h0l.31.74.16-.06c.14,0,.37-.05.75.51a.33.33,0,0,1,0,.13h0l1.52.63h0a.44.44,0,0,0,.06-.16h0a2,2,0,0,0,0-1.17l0-.09Z"/><path d="M264,155.85h0l-.08.13-.09.13h0a.61.61,0,0,0-.07.1l1.44.78.08-.12.18-.25h0Z"/><path d="M45.71,35.78l1.44.79h0l.06-.11a4.14,4.14,0,0,0,.4-1.12L46,35A2.79,2.79,0,0,1,45.71,35.78Z"/><path d="M215.81,120.25l-.06-.06h0l-.06-.07a2.45,2.45,0,0,0-.28-.24l-1,1.3a.57.57,0,0,1,.11.11l.21.2,1.12-1.2h0A.08.08,0,0,0,215.81,120.25Z"/><path d="M80.06,170.72h0a.5.5,0,0,1,0,.13,2.16,2.16,0,0,0-.15.43l1.63.3a.14.14,0,0,1,0-.06h0l0-.07.12-.29h0Z"/><path d="M55.35,126.43l.15.21h0l.05.07h0l.62-.56h0l.61-.57-.79.26h0l-.79.26A1.83,1.83,0,0,0,55.35,126.43Z"/><path d="M48.51,69.79h0l-.1.08-.16.14a.46.46,0,0,0-.07.07h0l1.21,1.08h0l.1-.08c.1-.09.21-.19.32-.31h0l0,0h0l-1.37-.88Z"/><path d="M136.59,96.63h0Z"/><path d="M34.53,107.25l-.13-.07-.5-.22h0l-.06,0h0l-.58,1.51a2.68,2.68,0,0,1,.36.16l.14.07h0l.39-.72h0l.39-.71Z"/><path d="M166.94,173.5h0a2.35,2.35,0,0,1,0-.26v-.14h-.54l.14-.77h0l-.25,0-1-.08,0,1a2.44,2.44,0,0,0,0,.27h0c0,.1,0,.2,0,.3l.76-.09,0,.19h.24l0-.23.63-.07A.28.28,0,0,1,166.94,173.5Z"/><path d="M137.78,95.78l.11,0,0-.06-.09,0h0l.08,0a1.3,1.3,0,0,0-.49-.47h0s0,0,0,0h-.05a1.11,1.11,0,0,0-.3-.08,1.38,1.38,0,0,0-.91.21l-.41.25V96s0,.09,0,.13a1.51,1.51,0,0,0,0,.48v0l.73-.12h0a.91.91,0,0,0,.16.11.3.3,0,0,1-.13-.11l.22,0-.08.15h0l.08-.16.14,0,.12.19,0,0a.5.5,0,0,1-.21,0l-.07,0a.85.85,0,0,0,.55,0A.83.83,0,0,0,137.78,95.78Z"/><path d="M176.41,58.31h0a.19.19,0,0,1-.07-.08,0,0,0,0,1,0,0l.26-.09,0,.16,0-.16.51-.18h0l.8-.26a1.53,1.53,0,0,0-1.36-1l-.16,0L172,57.82l4.35.47Z"/><path d="M185.67,197.39a17.1,17.1,0,0,1-.53,2.38l1.6.41a19.88,19.88,0,0,0,.58-2.59Z"/><polygon points="186.28 201.89 185.32 201.6 184.66 201.43 184.26 202.08 184.08 202.92 184.8 203.13 184.95 202.7 184.83 203.14 185.01 202.52 185.18 202.61 185.41 203.09 187.29 202.19 186.28 201.89 186.28 201.89"/><path d="M44.65,101.64h0v.13a2.81,2.81,0,0,0,0,.56v0l.82-.19h0l.81-.18a.06.06,0,0,0,0,0h0v-.21a.54.54,0,0,0,0-.18h0Z"/><path d="M174.91,36.47,177.13,34l-3.36,1.68-.06,0,0,0h0l-.6.39-.09.06-.11.06h0l-.75.48.85.46,0,.06s0,0,0,0l.12.1h0l0,0,.08.43.09,0h0l.07,0h.13l.24-.11,2.78.32Z"/><path d="M87.06,225.47c-1.89.32-2.28.31-2.72-.85a4,4,0,0,0-4-2.71,3.06,3.06,0,0,1-.63-.2l2.46-2.3c2.61,1.21,5.1,0,7.64-.18l3.24-.3c1.16-.11,2.32-.16,3.47-.3.84-.1,1.68-.45,2.58.27A3,3,0,0,1,96,220a6.91,6.91,0,0,0-3.85.48c-2.06.8-2.48,1.55-2,3.62,0,.19.08.39.13.65a4.47,4.47,0,0,1-3.27.76c.07-.36.15-.72.23-1.09h-.31Z"/><path d="M105,198.11a3.43,3.43,0,0,1,1,.34c.58.45.74,1.05.18,1.57s-1.08.24-1.52-.2A6.42,6.42,0,0,1,104,199Z"/><path d="M325,83.4l-2.24.65c-.64-1-.13-1.7.33-2.37Z"/><path d="M116,258.68c-1.26-1.17-1.37-2.06-.38-3,1.35-1.23,2.83-1.31,4-.2a2.24,2.24,0,0,1,.16,3.57C118.7,260.1,117.35,260,116,258.68Z"/><path d="M91.14,244.54a2.84,2.84,0,0,1,3.73-.23,2.39,2.39,0,0,1,.14,3.3,3.38,3.38,0,0,1-3.81.39A2.4,2.4,0,0,1,91.14,244.54Z"/><path d="M106.08,252c-1.44,1.38-2.42,1.23-3.4-.15-.77-1.1-1.5-2.16-.72-3.51a1.28,1.28,0,0,1,1.77-.67,4.26,4.26,0,0,1,2.64,2.81A3.12,3.12,0,0,1,106.08,252Z"/><path d="M261.88,80.57a2.44,2.44,0,0,1-3-.25,1.37,1.37,0,0,1,0-2.15,2.41,2.41,0,0,1,2.84.22A1.48,1.48,0,0,1,261.88,80.57Z"/><path d="M99.45,239.73a1.32,1.32,0,0,1,2-.28,1.08,1.08,0,0,1,.26,1.72,1.19,1.19,0,0,1-1.73,0A3.9,3.9,0,0,1,99.45,239.73Z"/><path d="M80.37,226.68a2.33,2.33,0,0,1,2.36-2.06C83.32,226.62,82.72,227.17,80.37,226.68Z"/><path d="M260.64,150.77c1.89.45,1.89.46,2.15,2.31C260.55,153,260.48,152.89,260.64,150.77Z"/><path d="M228,86c0-.66,0-1.13-.05-1.6.51.07,1.19,0,1.47.26s.14.89.18,1.36Z"/><path d="M223,141.82c.81.16,1.43.11,1.64.36a1.23,1.23,0,0,1-.08,1.18c-.09.15-.91.14-1.11,0S223.21,142.55,223,141.82Z"/><path d="M297.79,127c-.36.39-.52.73-.71.74a6.34,6.34,0,0,1-1.56-.19c-.07,0-.14-.49-.08-.51a4.69,4.69,0,0,1,1.29-.44C297,126.58,297.25,126.8,297.79,127Z"/><path d="M290.64,67.68c.25-.61.31-1.09.48-1.12a4.83,4.83,0,0,1,1.36.08c-.05.24,0,.64-.18.7A9.53,9.53,0,0,1,290.64,67.68Z"/><path d="M245.91,69.9c.67-.17,1.13,0,1.23.65,0,.12-.24.38-.37.38C246,70.94,245.77,70.58,245.91,69.9Z"/><path d="M214.36,140.81a4.83,4.83,0,0,1,.29-1.18c0-.09.48,0,.73,0a8.24,8.24,0,0,1-.07,1.22A5.2,5.2,0,0,1,214.36,140.81Z"/><path d="M151.67,251.15c0-.46,0-.8.09-.89a1.1,1.1,0,0,1,.76,0,.53.53,0,0,1,0,.52A3,3,0,0,1,151.67,251.15Z"/><path d="M210.89,117c0-.33,0-.64.05-.66a1.63,1.63,0,0,1,.73,0c.05,0,.1.43,0,.47A2.88,2.88,0,0,1,210.89,117Z"/><path d="M287.43,123.46c-.3,0-.55.12-.69,0s-.1-.32-.15-.5c.2,0,.43-.15.59-.09S287.33,123.22,287.43,123.46Z"/><path d="M75.56,227.45c0,.11.06.26,0,.31s-.23.05-.35.07c0-.15,0-.29,0-.44Z"/><path d="M300.62,123.77a1,1,0,0,1,0-.17,1.77,1.77,0,0,1,.32,0,.67.67,0,0,1,0,.17Z"/><path d="M252.75,137.72a2.7,2.7,0,0,1,.48.25s-.1.29-.12.29a3.13,3.13,0,0,1-.52-.16Z"/><path d="M244,117.08l-.14-.14.29-.13c0,.07,0,.14,0,.19S244.05,117.05,244,117.08Z"/><path d="M290,65.57l-.05.17-.25-.16s.09-.1.14-.1S290,65.54,290,65.57Z"/><path d="M257.32,73.31l-.15-.13.28-.14c0,.06.05.14,0,.18S257.37,73.29,257.32,73.31Z"/><path d="M255.45,120.62s-.09.1-.13.1-.1-.06-.15-.1l.21-.16Z"/><path d="M294,70.07s0-.15,0-.15.26,0,.39,0a1.3,1.3,0,0,1,0,.17A2.54,2.54,0,0,1,294,70.07Z"/><path d="M150.49,239.55a1.94,1.94,0,0,1-.07-.33s.15-.09.17-.06a1.43,1.43,0,0,1,.23.26Z"/><path d="M87.06,225.47l-.12-1.09h.31c-.08.37-.16.73-.23,1.09Z"/><path d="M209,204.67c.12,0,.28.1.36.05s.1-.2.14-.32l-.49-.08C209,204.44,209,204.56,209,204.67Z"/><path d="M220.35,230.68c-1.56.08-3.07.22-4.59.2-.88,0-1.8-.25-2-1.3-.12-.87.61-1.71,1.79-2s2.26-.44,3.55-.7C219.26,228.22,221.15,229,220.35,230.68Z"/><path d="M176.91,223.28c-1.69,1.78-3.38,3.09-5.82,3.25-1.52.1-2.12-.56-1.53-1.84a3.31,3.31,0,0,1,1.63-1.74A9.68,9.68,0,0,1,176.91,223.28Z"/><path d="M197.25,214.71a2,2,0,0,1-.26-2.93,2.7,2.7,0,0,1,3.39.13,2.26,2.26,0,0,1,.06,3.12A2.53,2.53,0,0,1,197.25,214.71Z"/><path d="M124,187.76a9.44,9.44,0,0,1-1.18-1.71c-.45-1.14.16-2,1.45-2.18,1.69-.28,3.06.32,3.4,1.51.18.63-.09,1.29-.77,1.07C125.5,186,125,187,124,187.76Z"/><path d="M134.44,190.4a1.72,1.72,0,0,1-.14-2.38,2.31,2.31,0,0,1,3-.05,2,2,0,0,1-.25,2.58A2.08,2.08,0,0,1,134.44,190.4Z"/><path d="M182.56,188a7.16,7.16,0,0,1-2.12-.2,1.08,1.08,0,0,1-.1-1.76,1.19,1.19,0,0,1,1.75,0C182.4,186.46,182.36,187.09,182.56,188Z"/><path d="M212.45,158.75a7.64,7.64,0,0,1-2.29-.37c-.23-.13-.22-1,0-1.38a1.18,1.18,0,0,1,1.85,0C212.28,157.34,212.25,157.89,212.45,158.75Z"/><path d="M176.24,144.35a8.14,8.14,0,0,1-2.18-.39.89.89,0,0,1-.18-1.54,1.14,1.14,0,0,1,1.72,0C175.94,142.79,176,143.41,176.24,144.35Z"/><path d="M152.47,160.29a7.13,7.13,0,0,1-2-.51.88.88,0,0,1-.06-1.54,1,1,0,0,1,1.48.27A8.81,8.81,0,0,1,152.47,160.29Z"/><path d="M194.78,140.2a7,7,0,0,1,2,.47,1.12,1.12,0,0,1,.11,1.17,1.1,1.1,0,0,1-1.69-.05C195,141.51,195,141,194.78,140.2Z"/><path d="M204.25,218.27c-.29-1.37,0-2,1.17-2.4C205.94,217,205.48,217.6,204.25,218.27Z"/><path d="M204.15,197.46c.08-.54,0-1.05.21-1.18a1.33,1.33,0,0,1,1.08.14.8.8,0,0,1,0,.83A3.91,3.91,0,0,1,204.15,197.46Z"/><path d="M166.66,205.91a3.41,3.41,0,0,1-1.1-.29c-.11-.08,0-.65.08-.66a1.66,1.66,0,0,1,1,.07C166.71,205.08,166.63,205.48,166.66,205.91Z"/><path d="M180.29,218.82c-.5-.09-.84-.07-1-.2a.75.75,0,0,1,0-.65.68.68,0,0,1,.56,0C180.09,218.12,180.12,218.38,180.29,218.82Z"/><path d="M173.79,170.1c0-.28,0-.53.05-.61s.36,0,.54,0,.09.29,0,.34A2.38,2.38,0,0,1,173.79,170.1Z"/><path d="M197.41,174.29l-.68-.13a1.87,1.87,0,0,1,.15-.49s.33,0,.37,0A2,2,0,0,1,197.41,174.29Z"/><path d="M206.12,229.44c-.33,0-.61,0-.65-.05a.59.59,0,0,1,0-.53c.06-.11.31-.14.47-.2Z"/><path d="M134.06,177.74c-.12-.07-.28-.11-.33-.19s.06-.22.09-.32c.11.06.28.09.32.17S134.09,177.62,134.06,177.74Z"/><path d="M219,168.19c-.12,0-.26.1-.33.06s-.07-.19-.11-.29c.12,0,.26-.11.34-.07S219,168.09,219,168.19Z"/><path d="M159.9,161.74l.06-.32a2,2,0,0,1,.33.15s0,.17,0,.17A1.45,1.45,0,0,1,159.9,161.74Z"/><path d="M209,204.67c0-.11,0-.23,0-.35l.49.08c0,.12-.06.27-.14.32S209.12,204.69,209,204.67Z"/><path d="M148.89,139.82c1,2.2.21,4.69-1.62,5.3-2.05.69-5.25-.58-6.08-2.42a3.85,3.85,0,0,1,2-5.19A4.4,4.4,0,0,1,148.89,139.82Zm-3.23.6c-.14-.08-.28-.22-.39-.2s-.21.19-.31.29c.17.1.34.2.52.29Z"/><path d="M159.79,193.84c-.95-1.89-.46-3.05,1.65-3.9s4.82,0,5.59,1.6c.63,1.29-.4,4.54-1.6,5.09C163.75,197.38,160.85,196,159.79,193.84Z"/><path d="M195.11,124c2.77-1.34,5.32-2.15,8.2-1.37,1.78.47,2.16,1.46.88,2.68a4.43,4.43,0,0,1-2.67,1.33C199.17,126.62,197.18,125.5,195.11,124Z"/><path d="M167.79,125.73a2.47,2.47,0,0,1-1.07,3.41,3.24,3.24,0,0,1-3.83-1.47,2.78,2.78,0,0,1,1.39-3.55A3,3,0,0,1,167.79,125.73Z"/><path d="M239.16,185.06a10.25,10.25,0,0,1,.56,2.4c0,1.45-1.11,2.15-2.69,1.88-2.07-.34-3.35-1.56-3.19-3,.08-.79.71-1.42,1.38-.91C236.61,186.47,237.68,185.57,239.16,185.06Z"/><path d="M228.43,178a2.1,2.1,0,0,1-1,2.74c-1.23.53-3,0-3.42-1.1a2.53,2.53,0,0,1,1.49-2.83A2.5,2.5,0,0,1,228.43,178Z"/><path d="M172.13,161.75a8.58,8.58,0,0,1,2.34,1.06c.61.62.14,1.71-.7,2a1.4,1.4,0,0,1-2-.73C171.6,163.54,172,162.83,172.13,161.75Z"/><path d="M124.21,183.06a9,9,0,0,1,2.46,1.32c.21.24-.22,1.21-.65,1.56a1.41,1.41,0,0,1-2.13-.71A7.15,7.15,0,0,1,124.21,183.06Z"/><path d="M159,213.61a9.33,9.33,0,0,1,2.3,1.3c.57.66.37,1.42-.51,1.81a1.39,1.39,0,0,1-2-.67C158.61,215.5,158.88,214.79,159,213.61Z"/><path d="M193.69,204.92c1,.66,1.69.9,2,1.36A1.07,1.07,0,0,1,195,208a1.13,1.13,0,0,1-1.57-.89A9.81,9.81,0,0,1,193.69,204.92Z"/><path d="M135.8,211a8.22,8.22,0,0,1-2.11-1.33c-.2-.26.08-1.18.42-1.37A1.34,1.34,0,0,1,136,209C136.2,209.44,135.94,210,135.8,211Z"/><path d="M161.44,119c-.32,1.67-1,2.26-2.48,2.25C158.9,119.71,159.71,119.23,161.44,119Z"/><path d="M151.82,142.53c-.35.58-.5,1.19-.8,1.26a1.59,1.59,0,0,1-1.17-.59c-.13-.16.16-.87.39-.93A4.56,4.56,0,0,1,151.82,142.53Z"/><path d="M198.74,147.72a4.69,4.69,0,0,1,1.13.76c.08.14-.29.74-.4.73a2,2,0,0,1-1.06-.46C198.3,148.65,198.57,148.22,198.74,147.72Z"/><path d="M189.15,127.75c.53.3.93.41,1,.61s-.14.54-.34.72a.79.79,0,0,1-.65-.22C189.05,128.63,189.14,128.32,189.15,127.75Z"/><path d="M173.83,185.43c-.15.32-.18.62-.34.67s-.43-.1-.61-.22,0-.36.12-.39A3.59,3.59,0,0,1,173.83,185.43Z"/><path d="M148.72,171.39l.71.43a2.14,2.14,0,0,1-.4.49c-.05,0-.39-.1-.41-.19A2.25,2.25,0,0,1,148.72,171.39Z"/><path d="M164.51,105.58c.36.14.71.21.72.31a.69.69,0,0,1-.21.61c-.12.1-.42,0-.64,0C164.42,106.26,164.45,106,164.51,105.58Z"/><path d="M223,192.44c.1.11.27.22.28.34s-.16.21-.25.32c-.1-.1-.28-.21-.29-.33S222.86,192.55,223,192.44Z"/><path d="M121.11,169.79c.14,0,.34,0,.41.07s0,.24,0,.37-.35,0-.41,0S121.1,169.93,121.11,169.79Z"/><path d="M185.85,200.36l-.22.34a2.22,2.22,0,0,1-.31-.3s.09-.19.11-.18A3,3,0,0,1,185.85,200.36Z"/><path d="M149.63,132.47l-.18.38-.52-.29c.1-.1.19-.27.31-.29S149.5,132.39,149.63,132.47Z"/><path d="M252.31,121.66c-1,.71-2.1.48-3.12.61a1.39,1.39,0,0,1-.74-.21c-1.07-.57-2-2.46-1.42-3.62a3.62,3.62,0,0,1,2.23-2.26,3.81,3.81,0,0,1,4.34,1.6,3,3,0,0,1,.16,2.32C253.6,120.88,253.32,121.65,252.31,121.66Z"/><path d="M236.48,184.5c0-.25,0-.5,0-.77a1.38,1.38,0,0,1,1,1.83,7.24,7.24,0,0,1-.74,1.47,1.21,1.21,0,0,1-.6.43,2.8,2.8,0,0,1-3.74-1.26c-.21-.34-.37-.71-.56-1.06a4.71,4.71,0,0,1,1.39-1.93,1.33,1.33,0,0,1,1-.4c1.5,0,1.58.09,2,1.47a1.5,1.5,0,0,0,.15.23Z"/><path d="M265,160a8,8,0,0,0,.88-.8,2.33,2.33,0,0,1,2.37-.93c.26.05.53.06.79.12s.46.07.53.19c.43.69,1.06,1.33,1,2.21a1.28,1.28,0,0,1-.05.27c-.12.42-.1,1.05-.4,1.23a5.52,5.52,0,0,1-2.18.73,2.51,2.51,0,0,1-2.66-2.11A6.59,6.59,0,0,0,265,160Zm2.74.83c-.05,0-.11-.08-.14-.07s-.08.07-.13.11a.87.87,0,0,1,.18.11Z"/><path d="M212.68,205.43c-.93.11-1,.1-1-.6a5.79,5.79,0,0,1-.06-.83,1.33,1.33,0,0,1,1.32-1.33c.26,0,.53,0,.79-.06a1.53,1.53,0,0,1,1.59.9,2.85,2.85,0,0,0,.87,1.09,2,2,0,0,1,.55.85,1.6,1.6,0,0,1-1.07,2.06,2,2,0,0,1-2.61-1.07C212.92,206.12,212.81,205.8,212.68,205.43Z"/><path d="M274.39,186.13a1.78,1.78,0,0,0-1.53.57,1.89,1.89,0,0,1-2.35,0,2,2,0,0,1-.41-2.37,2.57,2.57,0,0,1,2.43-1.12,2.38,2.38,0,0,1,1.91,1.31C274.79,185,274.51,185.56,274.39,186.13Zm-2.48-1.22.13-.18-.85-.59C271.31,184.74,271.55,184.88,271.91,184.91Z"/><path d="M244,176.85c-.59-.1-1.14-.18-1.68-.29-.7-.13-1.34-.68-1.31-1.32a4.19,4.19,0,0,1,.54-1.79c.29-.5,1-.41,1.54-.39a1.77,1.77,0,0,1,1.56,2.62Z"/><path d="M300.68,179.5a2,2,0,0,1-2.41-.91,1.83,1.83,0,0,1,.93-2.17,2.43,2.43,0,0,1,2.76,1.14C302.18,178,301.38,179.22,300.68,179.5Zm-.87-1.76.25.06c0-.21.07-.43.1-.65-.23,0-.33.08-.34.15A2.14,2.14,0,0,0,299.81,177.74Z"/><path d="M231.08,142.67a1.79,1.79,0,0,1,1.9.21,1.67,1.67,0,0,1,.47,1.86,1.49,1.49,0,0,1-1.47,1,4.43,4.43,0,0,1-1.7-.83c-.41-.32-.11-.81,0-1.19S230.58,142.82,231.08,142.67Z"/><path d="M251.56,127.23a2.26,2.26,0,0,1-2.38-.94,1.6,1.6,0,0,1,1-2,1.66,1.66,0,0,1,2.19.72A1.57,1.57,0,0,1,251.56,127.23Z"/><path d="M262.58,139a1.92,1.92,0,0,1-1.7-.22c-.16-.12-.36-.38-.33-.53a8.27,8.27,0,0,1,.58-1.6c.06-.14.39-.2.61-.22a8.24,8.24,0,0,1,1,.07c.48.06,1,.51.88.93A2,2,0,0,1,262.58,139Z"/><path d="M220,156.92a1.37,1.37,0,0,1-1.85-.54,1.45,1.45,0,0,1,.59-1.9,1.5,1.5,0,0,1,2,.65A1.24,1.24,0,0,1,220,156.92Z"/><path d="M304.46,187.28a5.16,5.16,0,0,1,.88-.51.87.87,0,0,1,1.12.31,2.86,2.86,0,0,1,.48.69.84.84,0,0,1,0,.73.89.89,0,0,1-.76.24A2.13,2.13,0,0,1,304.46,187.28Z"/><path d="M204,144.27a1,1,0,0,1,.51-1.38,1.11,1.11,0,0,1,1.47.53.93.93,0,0,1-.38,1.34A1.28,1.28,0,0,1,204,144.27Z"/><path d="M278.77,192.93a1.11,1.11,0,0,1,1.29.42.85.85,0,0,1-.44,1.08,1.12,1.12,0,0,1-1.25-.3A1,1,0,0,1,278.77,192.93Z"/><path d="M274.26,118.13a.86.86,0,0,1-1.21-.47,1,1,0,0,1,.52-1.15,1.07,1.07,0,0,1,1.12.58A.68.68,0,0,1,274.26,118.13Z"/><path d="M225.35,190.05a.79.79,0,0,1-.39,1,1,1,0,0,1-1.18-.36.68.68,0,0,1,.38-1A1,1,0,0,1,225.35,190.05Z"/><path d="M194.29,152.43a.64.64,0,0,1-.4.88,1,1,0,0,1-1.16-.45c-.12-.32.09-.68.52-.84A.81.81,0,0,1,194.29,152.43Z"/><path d="M227,176.17a.78.78,0,0,1-1.38.71.66.66,0,0,1,.34-.94A.8.8,0,0,1,227,176.17Z"/><path d="M261.67,186.86c.62-.29,1.28-.14,1.45.24s0,.52-.31.67-1.14.08-1.27-.32C261.48,187.24,261.64,187,261.67,186.86Z"/><path d="M213.7,168.63c.12.26-.26.91-.63,1s-.62-.12-.79-.4a.71.71,0,0,1,.4-1A.93.93,0,0,1,213.7,168.63Z"/><path d="M221.79,171.21a4.84,4.84,0,0,1-.89.82,1,1,0,0,1-.8-.08c-.13-.06-.21-.38-.17-.55.09-.32.41-.35.73-.32Z"/><path d="M292.76,148.81a.94.94,0,0,1-1.26-.25c-.15-.32.06-.51.32-.65.42-.23,1-.13,1.09.22A1.55,1.55,0,0,1,292.76,148.81Z"/><path d="M206.38,147.22a.59.59,0,0,1-.76-.35.6.6,0,0,1,.38-.81.57.57,0,0,1,.78.33A.6.6,0,0,1,206.38,147.22Z"/><path d="M237.44,143.43c.7-.37,1.1-.35,1.27,0a.54.54,0,0,1-.32.75C238,144.43,237.76,144.22,237.44,143.43Z"/><path d="M228.22,153.47c.47-.59.9-.69,2-.45C229.32,153.64,228.85,153.75,228.22,153.47Z"/><path d="M280.68,158.73c-.45.19-.9.05-.95-.26a.73.73,0,0,1,.22-.61.57.57,0,0,1,.82.24C280.83,158.32,280.7,158.57,280.68,158.73Z"/><path d="M251.92,130.12c-.38-.18-.7-.24-.84-.42s-.1-.53.2-.69.76,0,.82.25A2.63,2.63,0,0,1,251.92,130.12Z"/><path d="M243.38,158.53c-.24.38-.32.68-.53.82a.49.49,0,0,1-.74-.21.52.52,0,0,1,.31-.75A3.26,3.26,0,0,1,243.38,158.53Z"/><path d="M277.83,184.15c.42.21.73.27.87.45s.1.54-.21.68a.51.51,0,0,1-.75-.24C277.67,184.84,277.78,184.57,277.83,184.15Z"/><path d="M199.53,159.88a3.46,3.46,0,0,1-.44.8c-.19.17-.63,0-.72-.28a.45.45,0,0,1,.32-.65A2.62,2.62,0,0,1,199.53,159.88Z"/><path d="M279.58,127.16c-.39-.18-.7-.24-.82-.41s.06-.46.21-.57a.47.47,0,0,1,.72.2C279.76,126.55,279.64,126.79,279.58,127.16Z"/><path d="M271.33,189.09c-.4.2-.94.13-1.05-.13a.48.48,0,0,1,.13-.45c.33-.23.91-.13,1,.18C271.46,188.83,271.35,189,271.33,189.09Z"/><path d="M247.06,170.67c.33.17.61.23.73.38a.35.35,0,0,1-.25.57.89.89,0,0,1-.64-.27C246.82,171.26,247,171,247.06,170.67Z"/><path d="M245.38,188c.29.13.61.21.61.29s-.07.5-.22.57-.43-.09-.66-.15C245.19,188.52,245.26,188.32,245.38,188Z"/><path d="M228.33,166.2c.35.14.67.18.7.29a.67.67,0,0,1-.17.58c-.05.07-.48,0-.54-.13S228.31,166.54,228.33,166.2Z"/><path d="M265.58,123c.27.14.55.21.55.3a.61.61,0,0,1-.2.48c-.06,0-.43-.07-.46-.17S265.52,123.24,265.58,123Z"/><path d="M222.05,141.07a3.38,3.38,0,0,1-.63.52c-.07,0-.26-.12-.39-.19a2.72,2.72,0,0,1,.37-.56S221.71,141,222.05,141.07Z"/><path d="M202,169.55a.65.65,0,0,1-1,.31.32.32,0,0,1-.08-.3C201.28,169.25,201.63,169.29,202,169.55Z"/><path d="M202,172.59c-.27-.11-.53-.15-.56-.25a1.17,1.17,0,0,1,.08-.54c.19,0,.47,0,.55.16S202.08,172.32,202,172.59Z"/><path d="M236.35,144c.23.11.47.16.53.27s-.09.3-.14.46a1.87,1.87,0,0,1-.56-.22C236.12,144.48,236.27,144.24,236.35,144Z"/><path d="M308.58,187l.44-.9C309.43,186.76,309.4,186.83,308.58,187Z"/><path d="M237.37,174.55c-.12.18-.19.37-.28.39a1.9,1.9,0,0,1-.5-.15c.06-.15.1-.38.21-.43S237.12,174.46,237.37,174.55Z"/><path d="M259.94,149.45c-.05.38-.17.58-.51.48a.38.38,0,0,1-.17-.35C259.38,149.28,259.64,149.34,259.94,149.45Z"/><path d="M220,202.79c-.14.17-.21.34-.31.36s-.26-.1-.4-.16c.07-.11.11-.29.21-.33S219.75,202.73,220,202.79Z"/><path d="M218.94,191.77c-.26-.11-.47-.14-.57-.25s0-.35.07-.37a.67.67,0,0,1,.51.06C219,191.29,219,191.51,218.94,191.77Z"/><path d="M249.77,135.87l-1-.22C249.3,135.28,249.3,135.28,249.77,135.87Z"/><path d="M274.74,166.23c-.17.19-.25.35-.37.37a.51.51,0,0,1-.34-.22s.09-.25.18-.26A1.88,1.88,0,0,1,274.74,166.23Z"/><path d="M294.54,154.89a2.28,2.28,0,0,1-.29.47s-.22-.05-.32-.07a1.49,1.49,0,0,1,.17-.43C294.13,154.81,294.32,154.87,294.54,154.89Z"/><path d="M228.2,185.47l-1,.29a1.12,1.12,0,0,1,0-.13l1-.41Z"/><path d="M258.91,179.12c-.1.18-.14.35-.2.36a1.33,1.33,0,0,1-.42-.12c0-.1,0-.27.11-.29A1.42,1.42,0,0,1,258.91,179.12Z"/><path d="M219.08,189.91l-.38-.54C218.92,189.18,219,189.24,219.08,189.91Z"/><path d="M211.27,175.58c-.5.56-.5.56-.91.1Z"/><path d="M247,142.72c-.21-.08-.36-.09-.41-.17s0-.19,0-.3.27,0,.34.09S247,142.53,247,142.72Z"/><path d="M234.54,130.93l-1-.22C234.14,130.61,234.14,130.61,234.54,130.93Z"/><path d="M203.45,141.74c-.09.15-.15.31-.19.31a1.5,1.5,0,0,1-.38-.15c.06-.09.1-.21.18-.25S203.27,141.69,203.45,141.74Z"/><path d="M283.46,194.42a1.27,1.27,0,0,1,.29.23s-.1.18-.14.18a1.23,1.23,0,0,1-.31-.14Z"/><path d="M228.16,205.28c-.08.17-.11.35-.17.36a.66.66,0,0,1-.39-.11s0-.27.06-.29A1.59,1.59,0,0,1,228.16,205.28Z"/><path d="M243.71,132.91l-.37-.14c0-.09.07-.18.11-.27a1.22,1.22,0,0,1,.33.14S243.75,132.78,243.71,132.91Z"/><path d="M216.77,177.91c.09.09.21.17.25.29s0,.25-.06.29a.31.31,0,0,1-.32-.05c-.06-.06,0-.2,0-.3Z"/><path d="M232,209.92c-.07.1-.12.21-.17.22s-.16-.06-.24-.1.07-.17.13-.19S231.85,209.89,232,209.92Z"/><path d="M207.21,142.24c.11.06.25.12.24.14a1.35,1.35,0,0,1-.15.26c-.07,0-.18-.09-.19-.16S207.17,142.34,207.21,142.24Z"/><path d="M267.15,147.85c-.17.19-.21.3-.28.31s-.16-.07-.24-.11.08-.16.15-.19A1.3,1.3,0,0,1,267.15,147.85Z"/><path d="M237.26,149.15c0-.11,0-.22.09-.24s.17,0,.25,0,0,.18,0,.22S237.4,149.14,237.26,149.15Z"/><path d="M265.59,143.65l.51.32s0,.08,0,.12l-.56-.12Z"/><path d="M281.41,181.6c.1.07.22.13.22.18s-.06.18-.09.27-.19-.06-.22-.11S281.35,181.79,281.41,181.6Z"/><path d="M291.44,187.05h.17c0,.08,0,.15,0,.23a.56.56,0,0,1-.17-.06S291.43,187.11,291.44,187.05Z"/><path d="M233.83,133.52l-.34-.1s0-.08,0-.12l.36,0C233.86,133.39,233.84,133.46,233.83,133.52Z"/><path d="M284.44,153.05l.2.14c-.05.05-.12.14-.15.13a.75.75,0,0,1-.2-.15Z"/><path d="M289.52,150a.93.93,0,0,1-.16.18s-.11,0-.16-.07a.9.9,0,0,1,.14-.2S289.44,149.93,289.52,150Z"/><path d="M220.42,163.07l0,.15a.56.56,0,0,1-.17-.06s0-.1,0-.16Z"/><path d="M288.75,142.31a.83.83,0,0,1-.15.22s-.16,0-.16,0a.54.54,0,0,1,0-.22Z"/><path d="M276.51,193.22l-.16-.27.07,0,.21.23Z"/><path d="M271.59,201.22c.05,0,.13,0,.15,0s0,.1,0,.15-.14,0-.16,0S271.58,201.28,271.59,201.22Z"/><path d="M307.56,186.93s0,.1,0,.15-.14,0-.17,0,0-.1,0-.15Z"/><path d="M228.56,136.35l-.29.34a.61.61,0,0,1-.16-.16s0-.11.08-.13A2.73,2.73,0,0,1,228.56,136.35Z"/><path d="M253.78,172.44c0,.05,0,.1-.05.15l-.21-.09s0-.11.09-.12S253.73,172.42,253.78,172.44Z"/><path d="M275.2,169.18h.18c0,.08,0,.16,0,.23s-.14,0-.17-.06S275.2,169.24,275.2,169.18Z"/><path d="M258.29,186.5s0,.09-.05.14-.14,0-.16-.06,0-.1.05-.15Z"/><path d="M210.59,162l.16,0s0,.12-.06.14-.11,0-.17-.05A.91.91,0,0,0,210.59,162Z"/><path d="M194.71,151a.38.38,0,0,1-.09.13s-.11-.05-.13-.1.06-.07.09-.11Z"/><path d="M277.64,177.15a.67.67,0,0,1-.15-.06s0-.08,0-.08l.17,0A.78.78,0,0,0,277.64,177.15Z"/><path d="M301.18,167.51l.08,0c0,.05,0,.1,0,.14a.19.19,0,0,1-.09,0A1.21,1.21,0,0,1,301.18,167.51Z"/><path d="M267.37,152.54a.13.13,0,0,1,0,.07s0,0-.06,0l-.06-.11Z"/><path d="M260.58,188.11c-.08,0-.13.1-.16.09a.27.27,0,0,1-.14-.11s.05-.09.07-.13Z"/><path d="M218.54,161.81l.17.06s0,.13-.07.14-.11,0-.16,0Z"/><path d="M256,193.13l.16,0-.09.19s-.12-.06-.13-.1S255.93,193.17,256,193.13Z"/><path d="M267.74,160.87l-.09.15a.87.87,0,0,0-.18-.11s.08-.1.13-.11S267.69,160.85,267.74,160.87Z"/><path d="M271.91,184.91c-.36,0-.6-.17-.72-.77l.85.59Z"/><path d="M299.81,177.74a2.14,2.14,0,0,1,0-.44c0-.07.11-.12.34-.15,0,.22-.07.44-.1.65Z"/><path d="M-52,140.68c-1.89.32-2.28.32-2.71-.85a4,4,0,0,0-4-2.71,2.85,2.85,0,0,1-.63-.19c.82-.77,1.63-1.54,2.46-2.3,2.6,1.2,5.1,0,7.64-.19,1.08-.09,2.16-.21,3.23-.3s2.32-.16,3.47-.3c.85-.1,1.68-.45,2.59.27A3,3,0,0,1-43,135.17a7,7,0,0,0-3.85.49c-2.06.79-2.49,1.55-2,3.61l.13.65a4.45,4.45,0,0,1-3.28.76c.07-.36.15-.72.23-1.08h-.31Z"/><path d="M-34.06,113.32a3.18,3.18,0,0,1,1,.35c.57.44.74,1,.17,1.56s-1.08.24-1.51-.2a5.6,5.6,0,0,1-.59-.85Z"/><path d="M186-1.38l-2.25.64c-.64-1-.13-1.7.33-2.36Z"/><path d="M-23,173.89c-1.25-1.17-1.36-2-.38-2.95a2.79,2.79,0,0,1,4.06-.2,2.23,2.23,0,0,1,.15,3.56C-20.33,175.31-21.67,175.17-23,173.89Z"/><path d="M-47.88,159.76a2.83,2.83,0,0,1,3.72-.24,2.38,2.38,0,0,1,.14,3.31,3.38,3.38,0,0,1-3.8.38A2.38,2.38,0,0,1-47.88,159.76Z"/><path d="M-32.94,167.21c-1.45,1.39-2.43,1.23-3.4-.15-.77-1.1-1.5-2.15-.72-3.5a1.26,1.26,0,0,1,1.76-.68,4.3,4.3,0,0,1,2.65,2.81A3.21,3.21,0,0,1-32.94,167.21Z"/><path d="M122.85-4.21a2.45,2.45,0,0,1-3-.25,1.38,1.38,0,0,1,0-2.16,2.38,2.38,0,0,1,2.83.23A1.46,1.46,0,0,1,122.85-4.21Z"/><path d="M-39.57,154.94a1.32,1.32,0,0,1,2-.28,1.09,1.09,0,0,1,.26,1.73,1.19,1.19,0,0,1-1.72,0A3.69,3.69,0,0,1-39.57,154.94Z"/><path d="M-58.66,141.89a2.32,2.32,0,0,1,2.37-2C-55.71,141.83-56.31,142.39-58.66,141.89Z"/><path d="M121.62,66c1.88.45,1.89.46,2.14,2.31C121.52,68.17,121.46,68.1,121.62,66Z"/><path d="M88.93,1.23c0-.66,0-1.13,0-1.6.5.07,1.19,0,1.47.26s.13.89.18,1.35Z"/><path d="M84,57c.81.16,1.44.12,1.64.36a1.25,1.25,0,0,1-.07,1.18,1.28,1.28,0,0,1-1.11,0C84.17,58.27,84.18,57.77,84,57Z"/><path d="M158.77,42.23c-.36.39-.53.73-.72.75a6.86,6.86,0,0,1-1.55-.2.78.78,0,0,1-.09-.51,5,5,0,0,1,1.3-.44C157.94,41.8,158.22,42,158.77,42.23Z"/><path d="M151.61-17.11c.25-.61.31-1.08.49-1.12a5.29,5.29,0,0,1,1.36.08c-.06.25,0,.64-.19.7A8.67,8.67,0,0,1,151.61-17.11Z"/><path d="M106.88-14.88c.67-.18,1.14,0,1.23.64,0,.12-.24.39-.37.39C107-13.84,106.74-14.2,106.88-14.88Z"/><path d="M75.34,56a4.78,4.78,0,0,1,.28-1.17c0-.1.48,0,.74,0A9.71,9.71,0,0,1,76.29,56,5.23,5.23,0,0,1,75.34,56Z"/><path d="M12.64,166.37c0-.46,0-.81.09-.9a1.1,1.1,0,0,1,.76,0,.55.55,0,0,1,0,.52C13.39,166.16,13.1,166.19,12.64,166.37Z"/><path d="M71.87,32.2c0-.33,0-.64,0-.65a1.39,1.39,0,0,1,.73,0s.11.42,0,.47A3,3,0,0,1,71.87,32.2Z"/><path d="M148.4,38.67c-.3,0-.55.12-.69,0s-.1-.33-.14-.5c.2,0,.43-.16.58-.1S148.3,38.43,148.4,38.67Z"/><path d="M-63.46,142.66c0,.11.06.27,0,.32s-.23,0-.35.06c0-.15,0-.29,0-.43Z"/><path d="M161.59,39a1,1,0,0,0,0-.17,3.16,3.16,0,0,1,.32,0s0,.1,0,.16Z"/><path d="M113.73,52.93a3,3,0,0,1,.47.25s-.09.3-.12.29a3,3,0,0,1-.51-.16C113.61,53.21,113.65,53.1,113.73,52.93Z"/><path d="M105,32.29l-.15-.13.29-.13c0,.06,0,.14,0,.18S105,32.27,105,32.29Z"/><path d="M151-19.22a1.21,1.21,0,0,1,0,.18l-.25-.16s.1-.11.14-.11S151-19.25,151-19.22Z"/><path d="M118.29-11.47l-.15-.13.28-.15c0,.07,0,.14,0,.19S118.34-11.5,118.29-11.47Z"/><path d="M116.43,35.84c-.05,0-.09.1-.14.09s-.09-.06-.15-.09l.21-.16Z"/><path d="M155-14.71a1.32,1.32,0,0,1,0-.16,2.54,2.54,0,0,1,.39,0,.59.59,0,0,1,0,.17Z"/><path d="M11.46,154.77a2.21,2.21,0,0,1-.06-.34s.15-.08.17-.06a1.88,1.88,0,0,1,.22.26Z"/><path d="M-52,140.68l-.12-1.08h.31c-.08.36-.16.72-.23,1.08Z"/><path d="M70,119.88c.13,0,.28.1.36.05s.1-.2.15-.31l-.49-.08Z"/><path d="M25.27,94c1.32,1.22,1.31,2.24,0,3.46s-3.68,1.28-4.78.25c-.89-.83-1.13-3.62-.38-4.36C21.13,92.36,23.79,92.7,25.27,94Z"/><path d="M81.32,145.89c-1.55.08-3.07.22-4.58.2-.89,0-1.8-.25-2-1.3-.13-.86.61-1.71,1.78-2s2.26-.45,3.56-.7C80.24,143.43,82.12,144.17,81.32,145.89Z"/><path d="M36,140.84c-1.69,1.78-3.38,3.09-5.83,3.25-1.51.1-2.11-.57-1.52-1.84a3.31,3.31,0,0,1,1.63-1.74C32,139.91,33.92,140.26,36,140.84Z"/><path d="M58.22,129.93A2,2,0,0,1,58,127a2.7,2.7,0,0,1,3.39.12,2.25,2.25,0,0,1,0,3.12A2.54,2.54,0,0,1,58.22,129.93Z"/><path d="M-15,103a8.79,8.79,0,0,1-1.18-1.71c-.44-1.13.17-2,1.45-2.17,1.7-.29,3.06.31,3.41,1.51.18.63-.1,1.28-.77,1.06C-13.53,101.2-14.06,102.18-15,103Z"/><path d="M-4.58,105.61a1.69,1.69,0,0,1-.14-2.37,2.29,2.29,0,0,1,3-.06A2,2,0,0,1-2,105.76,2.07,2.07,0,0,1-4.58,105.61Z"/><path d="M43.54,103.2a7.47,7.47,0,0,1-2.12-.2,1.08,1.08,0,0,1-.11-1.76,1.18,1.18,0,0,1,1.75,0C43.38,101.67,43.34,102.31,43.54,103.2Z"/><path d="M73.42,74a8.18,8.18,0,0,1-2.29-.36c-.23-.13-.22-1,0-1.38a1.19,1.19,0,0,1,1.86,0A5.84,5.84,0,0,1,73.42,74Z"/><path d="M37.21,59.56A8.13,8.13,0,0,1,35,59.17a.89.89,0,0,1-.18-1.54,1.15,1.15,0,0,1,1.72,0C36.91,58,36.93,58.62,37.21,59.56Z"/><path d="M13.44,75.51a7.43,7.43,0,0,1-2-.52.87.87,0,0,1-.05-1.53,1,1,0,0,1,1.47.26A8.15,8.15,0,0,1,13.44,75.51Z"/><path d="M55.76,55.42a7,7,0,0,1,2,.46A1,1,0,1,1,56.2,57C55.94,56.73,56,56.22,55.76,55.42Z"/><path d="M65.22,133.49c-.29-1.38,0-2,1.18-2.41C66.91,132.22,66.45,132.81,65.22,133.49Z"/><path d="M65.13,112.68c.08-.55,0-1.06.21-1.19a1.33,1.33,0,0,1,1.08.14.8.8,0,0,1,0,.83A3.6,3.6,0,0,1,65.13,112.68Z"/><path d="M27.64,121.13a4,4,0,0,1-1.11-.29c-.1-.08,0-.65.08-.67a1.83,1.83,0,0,1,1,.07C27.68,120.29,27.61,120.7,27.64,121.13Z"/><path d="M41.27,134c-.5-.09-.84-.06-1-.2s-.06-.45,0-.65a.7.7,0,0,1,.57,0A3,3,0,0,1,41.27,134Z"/><path d="M34.77,85.31c0-.28-.06-.53,0-.6s.37,0,.55,0,.08.28,0,.33A2.44,2.44,0,0,1,34.77,85.31Z"/><path d="M58.38,89.51l-.67-.14a1.56,1.56,0,0,1,.15-.49.49.49,0,0,1,.37,0A2,2,0,0,1,58.38,89.51Z"/><path d="M67.1,144.65c-.33,0-.62,0-.66-.05a.56.56,0,0,1,0-.52c.06-.12.31-.15.47-.21C66.94,144.09,67,144.32,67.1,144.65Z"/><path d="M-5,93c-.11-.06-.28-.1-.32-.19s0-.21.09-.32c.11.06.28.1.32.18S-4.94,92.83-5,93Z"/><path d="M80,83.41c-.11,0-.26.1-.33.06s-.07-.19-.1-.3.26-.1.33-.07S80,83.3,80,83.41Z"/><path d="M20.87,77l.06-.33c.11.05.23.09.34.15s0,.17,0,.17A2.29,2.29,0,0,1,20.87,77Z"/><path d="M70,119.88l0-.34.49.08c0,.11-.06.27-.15.31S70.1,119.91,70,119.88Z"/><path d="M13.84,47.09c1,2.2.21,4.68-1.62,5.3C10.17,53.07,7,51.8,6.14,50a3.85,3.85,0,0,1,2-5.19A4.38,4.38,0,0,1,13.84,47.09Zm-3.24.59c-.13-.07-.27-.22-.38-.2s-.21.19-.32.3l.53.29Z"/><path d="M49.77,94.51c-1-1.89-.46-3.05,1.66-3.91s4.81,0,5.59,1.61c.62,1.29-.4,4.54-1.61,5.09C53.73,98.05,50.84,96.62,49.77,94.51Z"/><path d="M9.75,13.79c1.82.53,3.62,1,5.35,1.57,1,.37,2,1,1.63,2.25-.25,1-1.49,1.7-3,1.55s-2.79-.39-4.4-.62C9.85,17,8,15.42,9.75,13.79Z"/><path d="M55.28,41.76c2.78-1.34,5.32-2.16,8.2-1.38,1.78.48,2.17,1.47.89,2.69a4.43,4.43,0,0,1-2.68,1.33C59.34,44.35,57.36,43.23,55.28,41.76Z"/><path d="M28.77,40.94a2.47,2.47,0,0,1-1.08,3.41,3.22,3.22,0,0,1-3.82-1.46,2.77,2.77,0,0,1,1.39-3.56A3,3,0,0,1,28.77,40.94Z"/><path d="M33.11,77A9.13,9.13,0,0,1,35.44,78c.61.62.15,1.72-.7,2a1.4,1.4,0,0,1-2-.74C32.58,78.75,32.92,78.05,33.11,77Z"/><path d="M-14.81,98.28a9,9,0,0,1,2.46,1.32c.2.23-.23,1.21-.65,1.55a1.41,1.41,0,0,1-2.13-.7A6.5,6.5,0,0,1-14.81,98.28Z"/><path d="M20,128.82a9.44,9.44,0,0,1,2.31,1.3,1.08,1.08,0,0,1-.51,1.81,1.38,1.38,0,0,1-2-.66C19.58,130.71,19.86,130,20,128.82Z"/><path d="M54.67,120.14c1,.65,1.68.9,2,1.35a1.07,1.07,0,0,1-.65,1.76,1.13,1.13,0,0,1-1.57-.88A9.22,9.22,0,0,1,54.67,120.14Z"/><path d="M-3.23,126.21a8.25,8.25,0,0,1-2.1-1.32,1.36,1.36,0,0,1,.42-1.37,1.33,1.33,0,0,1,1.92.72C-2.82,124.66-3.09,125.22-3.23,126.21Z"/><path d="M22.41,34.16c-.31,1.67-1,2.26-2.47,2.26C19.87,34.93,20.68,34.45,22.41,34.16Z"/><path d="M12.79,57.74c-.34.59-.5,1.19-.79,1.26a1.54,1.54,0,0,1-1.17-.59c-.13-.16.15-.87.38-.93A4.5,4.5,0,0,1,12.79,57.74Z"/><path d="M59.72,62.93c.52.34.93.49,1.12.77.09.13-.28.74-.4.72A1.93,1.93,0,0,1,59.38,64C59.28,63.86,59.54,63.43,59.72,62.93Z"/><path d="M50.12,43c.53.3.93.4,1,.61s-.15.53-.34.72a.8.8,0,0,1-.65-.22C50,43.84,50.12,43.53,50.12,43Z"/><path d="M34.8,100.65c-.14.31-.18.62-.33.67s-.44-.1-.62-.22,0-.37.12-.4A3.19,3.19,0,0,1,34.8,100.65Z"/><path d="M9.69,86.61l.71.42a2.79,2.79,0,0,1-.39.5c-.06,0-.4-.11-.41-.19A2.45,2.45,0,0,1,9.69,86.61Z"/><path d="M25.48,20.79c.37.15.71.21.73.32a.75.75,0,0,1-.21.6c-.13.11-.42,0-.64,0C25.39,21.48,25.43,21.21,25.48,20.79Z"/><path d="M83.92,107.66c.1.11.27.21.28.33s-.16.22-.25.33c-.1-.11-.27-.22-.28-.33S83.83,107.76,83.92,107.66Z"/><path d="M-17.92,85c.14,0,.35,0,.41.06s0,.25,0,.38c-.14,0-.34,0-.41-.06S-17.93,85.14-17.92,85Z"/><path d="M46.83,115.57l-.22.35a3.06,3.06,0,0,1-.32-.3s.09-.19.11-.19A3.09,3.09,0,0,1,46.83,115.57Z"/><path d="M10.6,47.68l-.17.39-.53-.29c.11-.11.2-.28.32-.3S10.47,47.61,10.6,47.68Z"/><path d="M105.61,36.88a3.57,3.57,0,0,1-1.9.38.86.86,0,0,1-.45-.13,1.93,1.93,0,0,1-.86-2.2,2.18,2.18,0,0,1,1.35-1.38,2.34,2.34,0,0,1,2.64,1,1.85,1.85,0,0,1,.1,1.42C106.39,36.42,106.22,36.88,105.61,36.88Z"/><path d="M126,75.25a8.13,8.13,0,0,0,.88-.79,2.32,2.32,0,0,1,2.38-.93c.25,0,.52,0,.78.11s.46.07.54.19c.43.7,1.06,1.33,1,2.22a1.38,1.38,0,0,1-.06.26c-.12.43-.09,1.06-.39,1.23a5.41,5.41,0,0,1-2.19.73,2.48,2.48,0,0,1-2.65-2.11A8.28,8.28,0,0,0,126,75.25Zm2.74.84c-.05,0-.1-.09-.14-.08s-.08.07-.12.11l.17.11S128.68,76.13,128.71,76.09Z"/><path d="M73.66,120.64c-.94.12-1,.11-1-.6a5.64,5.64,0,0,1,0-.82,1.3,1.3,0,0,1,1.31-1.33c.27,0,.53-.06.79-.07a1.54,1.54,0,0,1,1.6.9,3,3,0,0,0,.86,1.1,1.92,1.92,0,0,1,.56.84,1.6,1.6,0,0,1-1.08,2.06,2,2,0,0,1-2.6-1.07C73.89,121.34,73.79,121,73.66,120.64Z"/><path d="M135.36,101.34a1.78,1.78,0,0,0-1.53.57,1.89,1.89,0,0,1-2.35,0,2,2,0,0,1-.4-2.37,2.6,2.6,0,0,1,2.43-1.12,2.44,2.44,0,0,1,1.91,1.31C135.76,100.24,135.48,100.78,135.36,101.34Zm-2.48-1.22a1.18,1.18,0,0,0,.13-.18l-.85-.59C132.28,100,132.53,100.1,132.88,100.12Z"/><path d="M105,92.06l-1.69-.28c-.69-.14-1.34-.69-1.3-1.32a4.12,4.12,0,0,1,.53-1.8c.3-.5,1-.41,1.54-.38a1.77,1.77,0,0,1,1.57,2.61Z"/><path d="M161.65,94.71a2,2,0,0,1-2.4-.91,1.81,1.81,0,0,1,.92-2.17,2.47,2.47,0,0,1,2.77,1.14C163.15,93.24,162.36,94.44,161.65,94.71ZM160.79,93,161,93c0-.22.07-.44.1-.65-.22,0-.32.07-.34.14A3.38,3.38,0,0,0,160.79,93Z"/><path d="M92.05,57.88A1.83,1.83,0,0,1,94,58.1,1.66,1.66,0,0,1,94.42,60,1.5,1.5,0,0,1,93,61a4.59,4.59,0,0,1-1.7-.84c-.41-.32-.11-.81,0-1.19S91.55,58,92.05,57.88Z"/><path d="M112.53,42.44a2.26,2.26,0,0,1-2.38-.94,1.6,1.6,0,0,1,1-2,1.68,1.68,0,0,1,2.2.72A1.58,1.58,0,0,1,112.53,42.44Z"/><path d="M123.55,54.16a1.9,1.9,0,0,1-1.7-.22c-.16-.12-.36-.38-.32-.53a8.48,8.48,0,0,1,.57-1.6c.07-.13.4-.2.61-.21a5.5,5.5,0,0,1,1,.07c.49,0,1,.5.88.92A2,2,0,0,1,123.55,54.16Z"/><path d="M81,72.13a1.38,1.38,0,0,1-1.85-.54,1.47,1.47,0,0,1,.59-1.9,1.51,1.51,0,0,1,2,.65A1.23,1.23,0,0,1,81,72.13Z"/><path d="M165.44,102.49a6.38,6.38,0,0,1,.87-.51.91.91,0,0,1,1.13.31,2.81,2.81,0,0,1,.47.69.66.66,0,0,1-.78,1A2.12,2.12,0,0,1,165.44,102.49Z"/><path d="M65,59.48a1,1,0,0,1,.52-1.37,1.1,1.1,0,0,1,1.47.53A.92.92,0,0,1,66.59,60,1.28,1.28,0,0,1,65,59.48Z"/><path d="M139.74,108.14a1.13,1.13,0,0,1,1.3.42.87.87,0,0,1-.44,1.09,1.13,1.13,0,0,1-1.25-.31A1,1,0,0,1,139.74,108.14Z"/><path d="M135.23,33.35a.87.87,0,0,1-1.21-.47,1,1,0,0,1,.52-1.15,1.07,1.07,0,0,1,1.13.58A.69.69,0,0,1,135.23,33.35Z"/><path d="M86.33,105.26a.8.8,0,0,1-.4,1,.94.94,0,0,1-1.17-.36.66.66,0,0,1,.37-1A1,1,0,0,1,86.33,105.26Z"/><path d="M55.27,67.64a.65.65,0,0,1-.4.89,1,1,0,0,1-1.16-.45c-.13-.33.09-.68.51-.85A.82.82,0,0,1,55.27,67.64Z"/><path d="M88,91.39a.77.77,0,0,1-1.38.7.66.66,0,0,1,.34-.93A.78.78,0,0,1,88,91.39Z"/><path d="M122.64,102.08a1.09,1.09,0,0,1,1.45.24c.14.31,0,.52-.31.66-.44.23-1.14.08-1.26-.32C122.45,102.46,122.61,102.21,122.64,102.08Z"/><path d="M74.68,83.85c.12.26-.27.9-.63,1a.66.66,0,0,1-.79-.4.7.7,0,0,1,.4-1A.91.91,0,0,1,74.68,83.85Z"/><path d="M82.77,86.42a4.52,4.52,0,0,1-.9.82,1,1,0,0,1-.79-.07c-.14-.06-.22-.38-.17-.56s.4-.35.72-.31Z"/><path d="M153.73,64a.94.94,0,0,1-1.26-.24c-.15-.33.06-.51.32-.66.43-.22,1-.13,1.09.22A1.49,1.49,0,0,1,153.73,64Z"/><path d="M67.35,62.44A.62.62,0,1,1,67,61.27a.59.59,0,0,1,.79.34A.61.61,0,0,1,67.35,62.44Z"/><path d="M98.42,58.64c.69-.36,1.09-.34,1.26,0a.54.54,0,0,1-.31.75C99,59.65,98.73,59.44,98.42,58.64Z"/><path d="M89.19,68.68c.48-.59.91-.69,2-.45C90.29,68.85,89.82,69,89.19,68.68Z"/><path d="M141.66,73.94c-.45.19-.9,0-.95-.26a.72.72,0,0,1,.22-.61.57.57,0,0,1,.82.24A1.71,1.71,0,0,1,141.66,73.94Z"/><path d="M112.9,45.34a2.73,2.73,0,0,1-.85-.43c-.2-.24-.1-.52.2-.69s.77,0,.82.26A2.41,2.41,0,0,1,112.9,45.34Z"/><path d="M104.35,73.74c-.23.39-.32.68-.53.83a.49.49,0,0,1-.73-.21.51.51,0,0,1,.3-.75C103.6,73.54,103.9,73.67,104.35,73.74Z"/><path d="M138.81,99.36c.42.21.72.28.87.46s.09.54-.22.68a.52.52,0,0,1-.74-.24C138.64,100.05,138.75,99.78,138.81,99.36Z"/><path d="M60.5,75.1a3.31,3.31,0,0,1-.44.8c-.19.17-.62,0-.71-.29a.45.45,0,0,1,.31-.65A3,3,0,0,1,60.5,75.1Z"/><path d="M140.56,42.38c-.39-.18-.71-.25-.83-.42s.06-.46.21-.57a.47.47,0,0,1,.72.21C140.73,41.76,140.62,42,140.56,42.38Z"/><path d="M132.3,104.3c-.4.21-.94.13-1.05-.13a.49.49,0,0,1,.13-.44c.33-.24.92-.13,1,.18C132.44,104,132.33,104.21,132.3,104.3Z"/><path d="M108,85.89c.33.16.61.22.74.38a.35.35,0,0,1-.26.56.89.89,0,0,1-.64-.26C107.8,86.48,108,86.21,108,85.89Z"/><path d="M106.35,103.23c.29.12.62.2.62.29s-.08.49-.23.56-.43-.09-.65-.15Z"/><path d="M89.31,81.41c.34.14.66.19.69.29a.72.72,0,0,1-.16.59.67.67,0,0,1-.55-.13C89.2,82,89.29,81.75,89.31,81.41Z"/><path d="M126.55,38.18c.28.14.55.21.56.3a.61.61,0,0,1-.21.48.57.57,0,0,1-.46-.17C126.39,38.65,126.5,38.45,126.55,38.18Z"/><path d="M83,56.29a2.67,2.67,0,0,1-.62.51c-.08,0-.26-.12-.4-.19a2.41,2.41,0,0,1,.37-.55C82.43,56,82.69,56.16,83,56.29Z"/><path d="M63,84.77a.66.66,0,0,1-1,.31.33.33,0,0,1-.07-.31C62.26,84.46,62.6,84.51,63,84.77Z"/><path d="M63,87.81c-.27-.12-.54-.15-.57-.25s0-.36.08-.55c.19,0,.47,0,.55.17S63.06,87.53,63,87.81Z"/><path d="M97.32,59.23c.24.12.48.16.53.28s-.08.3-.14.45a1.71,1.71,0,0,1-.55-.22C97.1,59.69,97.24,59.45,97.32,59.23Z"/><path d="M169.56,102.2c.13-.27.26-.54.44-.89C170.4,102,170.38,102.05,169.56,102.2Z"/><path d="M98.35,89.76c-.13.18-.2.38-.29.39a1.67,1.67,0,0,1-.5-.15c.07-.15.1-.38.22-.42S98.1,89.67,98.35,89.76Z"/><path d="M120.92,64.67c0,.37-.18.57-.52.47-.09,0-.21-.26-.17-.34C120.35,64.5,120.61,64.56,120.92,64.67Z"/><path d="M81,118c-.14.18-.21.34-.31.36s-.26-.1-.39-.15c.06-.12.1-.29.2-.33S80.72,117.94,81,118Z"/><path d="M79.92,107c-.27-.11-.47-.13-.57-.25s0-.35.07-.36a.64.64,0,0,1,.5,0C80,106.5,79.93,106.72,79.92,107Z"/><path d="M110.74,51.09l-1-.22C110.28,50.5,110.28,50.5,110.74,51.09Z"/><path d="M135.71,81.45c-.17.18-.25.34-.36.36s-.27-.11-.34-.21.09-.25.17-.27A1.85,1.85,0,0,1,135.71,81.45Z"/><path d="M155.51,70.1a1.92,1.92,0,0,1-.29.47s-.21,0-.32-.07a1.36,1.36,0,0,1,.18-.43S155.29,70.08,155.51,70.1Z"/><path d="M89.18,100.68l-1,.29s0-.09,0-.13l1-.4A2.34,2.34,0,0,0,89.18,100.68Z"/><path d="M119.89,94.33c-.1.18-.15.35-.2.36a1.36,1.36,0,0,1-.43-.11c0-.11,0-.28.12-.3A1.45,1.45,0,0,1,119.89,94.33Z"/><path d="M80.06,105.12l-.39-.53C79.89,104.39,80,104.46,80.06,105.12Z"/><path d="M72.25,90.79c-.5.56-.5.56-.92.1Z"/><path d="M108,57.93c-.2-.08-.36-.09-.4-.16s0-.2,0-.3.27,0,.34.08S108,57.74,108,57.93Z"/><path d="M95.52,46.14l-1-.22C95.11,45.83,95.11,45.83,95.52,46.14Z"/><path d="M64.43,57c-.09.15-.16.31-.2.31a2,2,0,0,1-.38-.14c.06-.09.1-.22.19-.26S64.25,56.9,64.43,57Z"/><path d="M144.44,109.64a1.14,1.14,0,0,1,.28.22s-.1.19-.14.18a1.66,1.66,0,0,1-.31-.14Z"/><path d="M89.13,120.49c-.07.18-.11.36-.16.36a.64.64,0,0,1-.4-.11s0-.27.07-.28A1.47,1.47,0,0,1,89.13,120.49Z"/><path d="M104.68,48.12l-.37-.14.12-.27a1.36,1.36,0,0,1,.33.14S104.72,48,104.68,48.12Z"/><path d="M77.75,93.12c.08.1.2.18.24.29a.29.29,0,0,1,0,.29.35.35,0,0,1-.33,0c-.06-.06,0-.21,0-.31S77.69,93.2,77.75,93.12Z"/><path d="M93,125.14c-.07.1-.11.2-.17.21s-.16-.06-.23-.09.06-.17.12-.2S92.83,125.1,93,125.14Z"/><path d="M68.19,57.46c.1,0,.25.11.24.13a.87.87,0,0,1-.16.26c-.07-.05-.17-.09-.19-.16S68.14,57.55,68.19,57.46Z"/><path d="M128.12,63.07c-.17.19-.21.29-.28.3s-.15-.06-.23-.1.08-.16.15-.2A1,1,0,0,1,128.12,63.07Z"/><path d="M98.24,64.37c0-.12,0-.22.09-.25s.16,0,.24,0,0,.18,0,.22S98.37,64.35,98.24,64.37Z"/><path d="M126.56,58.87l.52.31s0,.09,0,.13c-.18-.05-.37-.08-.56-.12Z"/><path d="M142.38,96.81c.11.08.22.13.22.18s0,.19-.09.27-.19-.06-.21-.11S142.33,97,142.38,96.81Z"/><path d="M152.41,102.27l.18,0a1.79,1.79,0,0,1,0,.23s-.14,0-.16-.06S152.41,102.32,152.41,102.27Z"/><path d="M94.8,48.73l-.34-.1a.5.5,0,0,0,0-.12l.37,0C94.83,48.61,94.82,48.67,94.8,48.73Z"/><path d="M145.41,68.26l.2.15c-.05,0-.12.13-.15.12s-.13-.1-.19-.15Z"/><path d="M150.5,65.18a.74.74,0,0,1-.17.18s-.1,0-.16-.07a2.43,2.43,0,0,1,.14-.2Z"/><path d="M81.39,78.28l0,.15c-.06,0-.13,0-.16-.06s0-.1,0-.15Z"/><path d="M149.72,57.52c-.06.1-.09.18-.15.22a.21.21,0,0,1-.16,0,.81.81,0,0,1,0-.22Z"/><path d="M137.49,108.44l-.17-.27s.07,0,.08,0,.13.15.2.23Z"/><path d="M132.56,116.44a.39.39,0,0,1,.16,0s0,.1,0,.15-.13,0-.15,0S132.55,116.49,132.56,116.44Z"/><path d="M168.53,102.14a.86.86,0,0,1,0,.16c-.05,0-.14,0-.16,0s0-.11,0-.16Z"/><path d="M89.53,51.57l-.29.34c0-.06-.12-.1-.15-.16s0-.12.08-.13A1.48,1.48,0,0,1,89.53,51.57Z"/><path d="M114.76,87.65l-.06.16-.21-.09s.06-.12.1-.12S114.7,87.63,114.76,87.65Z"/><path d="M136.18,84.39h.18a2,2,0,0,0,0,.23c-.07,0-.14,0-.17,0S136.17,84.45,136.18,84.39Z"/><path d="M119.27,101.71l-.06.15s-.14,0-.15-.07,0-.09,0-.14Z"/><path d="M71.56,77.17l.17.06s0,.11-.07.13-.11,0-.16,0Z"/><path d="M55.69,66.2l-.09.12c-.05,0-.12,0-.13-.09s.05-.08.08-.12Z"/><path d="M138.61,92.36a.47.47,0,0,1-.15-.06s0-.07,0-.08l.16,0S138.62,92.31,138.61,92.36Z"/><path d="M162.15,82.72l.08,0a.33.33,0,0,1,0,.13l-.08,0C162.12,82.82,162.14,82.78,162.15,82.72Z"/><path d="M128.35,67.75s0,0,0,.07,0,0-.06.06,0-.08,0-.12Z"/><path d="M121.55,103.33c-.08,0-.13.1-.16.09s-.12-.07-.13-.12,0-.09.07-.13Z"/><path d="M79.52,77l.17.07s0,.12-.08.14-.1,0-.16-.06A1,1,0,0,0,79.52,77Z"/><path d="M116.93,108.34l.16,0a1.62,1.62,0,0,0-.1.18s-.11-.06-.12-.1S116.91,108.39,116.93,108.34Z"/><path d="M128.71,76.09s-.05.09-.09.14l-.17-.11s.07-.1.12-.11S128.66,76.06,128.71,76.09Z"/><path d="M132.88,100.12c-.35,0-.6-.17-.72-.77l.85.59A1.18,1.18,0,0,1,132.88,100.12Z"/><path d="M160.79,93a3.38,3.38,0,0,1,0-.45c0-.07.12-.12.34-.14,0,.21-.06.43-.1.65Z"/><path d="M64.21,76.23c-1.89.32-2.28.31-2.71-.86a4.05,4.05,0,0,0-4-2.71,2.34,2.34,0,0,1-.62-.19l2.45-2.3C62,71.38,64.48,70.2,67,70c1.09-.08,2.16-.2,3.24-.3s2.32-.15,3.47-.29c.84-.1,1.68-.45,2.58.26a2.94,2.94,0,0,1-3.1,1.06,7,7,0,0,0-3.85.49c-2.07.8-2.49,1.55-2,3.62,0,.19.07.39.12.64a4.44,4.44,0,0,1-3.28.76l.24-1.08h-.31Z"/><path d="M86.43,42.21a3.76,3.76,0,0,1,1,.35c.57.45.73,1,.17,1.57s-1.08.24-1.52-.21a6.31,6.31,0,0,1-.59-.84Z"/><path d="M306.47-72.49l-2.24.65c-.64-1-.13-1.7.33-2.37Z"/><path d="M72.6,88.65a2.83,2.83,0,0,1,3.73-.23,2.39,2.39,0,0,1,.14,3.3,3.37,3.37,0,0,1-3.81.39A2.41,2.41,0,0,1,72.6,88.65Z"/><path d="M243.34-75.32a2.45,2.45,0,0,1-3-.25,1.38,1.38,0,0,1,0-2.16,2.42,2.42,0,0,1,2.84.23A1.47,1.47,0,0,1,243.34-75.32Z"/><path d="M80.92,83.84a1.31,1.31,0,0,1,2-.28,1.08,1.08,0,0,1,.26,1.72,1.18,1.18,0,0,1-1.72,0A3.55,3.55,0,0,1,80.92,83.84Z"/><path d="M61.83,70.79a2.31,2.31,0,0,1,2.36-2.06C64.78,70.72,64.18,71.28,61.83,70.79Z"/><path d="M242.1-5.13c1.89.46,1.89.47,2.15,2.31C242-2.94,242-3,242.1-5.13Z"/><path d="M209.42-69.88c0-.66,0-1.13,0-1.6.51.07,1.19,0,1.47.26s.14.89.19,1.35Z"/><path d="M204.47-14.07c.81.16,1.44.11,1.64.36a1.23,1.23,0,0,1-.08,1.18,1.3,1.3,0,0,1-1.1-.05C204.66-12.84,204.67-13.34,204.47-14.07Z"/><path d="M279.25-28.87c-.36.38-.52.73-.71.74a6.28,6.28,0,0,1-1.55-.2c-.07,0-.15-.48-.09-.51a5.39,5.39,0,0,1,1.3-.44C278.43-29.31,278.71-29.09,279.25-28.87Z"/><path d="M272.1-88.21c.25-.61.31-1.09.49-1.12a4.78,4.78,0,0,1,1.35.08c-.05.24,0,.63-.18.7A9.74,9.74,0,0,1,272.1-88.21Z"/><path d="M227.37-86c.67-.18,1.13,0,1.23.65,0,.11-.24.38-.37.38C227.51-84.95,227.23-85.31,227.37-86Z"/><path d="M195.82-15.08a4.83,4.83,0,0,1,.29-1.18c0-.09.48,0,.74,0a9.87,9.87,0,0,1-.08,1.22A8.62,8.62,0,0,1,195.82-15.08Z"/><path d="M133.13,95.26c0-.46,0-.8.09-.89a1.1,1.1,0,0,1,.76,0c.08,0,.14.43.05.52A3.23,3.23,0,0,1,133.13,95.26Z"/><path d="M192.35-38.91c0-.32,0-.63.05-.65a1.63,1.63,0,0,1,.73,0c.05,0,.11.43,0,.47A2.84,2.84,0,0,1,192.35-38.91Z"/><path d="M268.89-32.43c-.3,0-.55.12-.69,0s-.1-.33-.15-.5c.2,0,.43-.15.59-.09S268.79-32.67,268.89-32.43Z"/><path d="M57,71.56c0,.11.07.26,0,.31s-.23,0-.35.06c0-.15,0-.29,0-.43Z"/><path d="M282.08-32.13s0-.11,0-.16a1.72,1.72,0,0,1,.32,0,.62.62,0,0,1,0,.16Z"/><path d="M234.21-18.18a2.71,2.71,0,0,1,.48.26s-.1.29-.12.29a3.13,3.13,0,0,1-.52-.16C234.1-17.9,234.14-18,234.21-18.18Z"/><path d="M225.45-38.82l-.14-.13.29-.13c0,.07,0,.14,0,.19S225.51-38.84,225.45-38.82Z"/><path d="M271.5-90.32l-.05.17-.25-.16c.05,0,.09-.1.14-.11S271.44-90.36,271.5-90.32Z"/><path d="M238.78-82.58l-.15-.13.28-.14c0,.06.05.14,0,.18S238.83-82.6,238.78-82.58Z"/><path d="M236.91-35.27s-.09.1-.13.1a.44.44,0,0,1-.15-.1l.22-.16A1.66,1.66,0,0,0,236.91-35.27Z"/><path d="M275.45-85.82c0-.05,0-.16,0-.15a2.55,2.55,0,0,1,.39,0,1.3,1.3,0,0,1,0,.17Z"/><path d="M132,83.66a1.94,1.94,0,0,1-.07-.33s.15-.09.17-.07a1.49,1.49,0,0,1,.23.27Z"/><path d="M68.52,69.57l-.12-1.08h.31c-.08.37-.16.73-.23,1.08Z"/><path d="M190.46,48.78c.12,0,.28.09.36,0s.1-.2.15-.32l-.49-.08C190.47,48.55,190.47,48.66,190.46,48.78Z"/><path d="M145.75,22.94c1.33,1.21,1.32,2.24,0,3.46s-3.69,1.27-4.79.24c-.88-.83-1.12-3.62-.37-4.36C141.61,21.25,144.28,21.59,145.75,22.94Z"/><path d="M201.81,74.79c-1.55.08-3.07.22-4.59.19-.88,0-1.79-.24-1.95-1.29-.13-.87.6-1.71,1.78-2s2.26-.45,3.55-.7C200.72,72.33,202.61,73.07,201.81,74.79Z"/><path d="M158.37,67.39c-1.69,1.78-3.38,3.09-5.82,3.25-1.52.1-2.12-.57-1.53-1.84a3.31,3.31,0,0,1,1.63-1.74C154.46,66.46,156.33,66.81,158.37,67.39Z"/><path d="M178.71,58.82a2,2,0,0,1-.26-2.93,2.69,2.69,0,0,1,3.39.13,2.25,2.25,0,0,1,.06,3.12A2.53,2.53,0,0,1,178.71,58.82Z"/><path d="M105.46,31.87a10.09,10.09,0,0,1-1.19-1.71c-.43-1.14.17-2,1.46-2.18,1.69-.28,3.06.32,3.4,1.51.18.63-.09,1.29-.77,1.07C107,30.1,106.43,31.08,105.46,31.87Z"/><path d="M115.9,34.51a1.71,1.71,0,0,1-.13-2.38,2.31,2.31,0,0,1,3-.06,2,2,0,0,1-.25,2.59A2.09,2.09,0,0,1,115.9,34.51Z"/><path d="M164,32.09a7.12,7.12,0,0,1-2.12-.2,1.08,1.08,0,0,1-.11-1.76,1.17,1.17,0,0,1,1.74.05C163.86,30.57,163.82,31.2,164,32.09Z"/><path d="M193.91,2.86a7.7,7.7,0,0,1-2.29-.37c-.23-.13-.22-1,0-1.38a1.17,1.17,0,0,1,1.85,0C193.74,1.45,193.71,2,193.91,2.86Z"/><path d="M157.69-11.54a8.13,8.13,0,0,1-2.17-.39.89.89,0,0,1-.17-1.54,1.13,1.13,0,0,1,1.71,0C157.4-13.1,157.41-12.48,157.69-11.54Z"/><path d="M133.93,4.4a8,8,0,0,1-2-.51.88.88,0,0,1-.06-1.54,1,1,0,0,1,1.48.27A8,8,0,0,1,133.93,4.4Z"/><path d="M176.25-15.69a6.89,6.89,0,0,1,2,.47,1.09,1.09,0,0,1,.11,1.17,1.1,1.1,0,0,1-1.69,0C176.43-14.38,176.45-14.89,176.25-15.69Z"/><path d="M185.71,62.38c-.29-1.37,0-2,1.17-2.4C187.4,61.11,186.94,61.71,185.71,62.38Z"/><path d="M185.61,41.57c.08-.54,0-1,.22-1.18a1.27,1.27,0,0,1,1.07.14.78.78,0,0,1,0,.82A3.62,3.62,0,0,1,185.61,41.57Z"/><path d="M148.12,50a4,4,0,0,1-1.1-.29c-.11-.08,0-.65.08-.66a1.66,1.66,0,0,1,1,.07C148.17,49.19,148.1,49.59,148.12,50Z"/><path d="M161.76,62.93c-.5-.1-.85-.07-1-.2a.75.75,0,0,1,0-.65c0-.08.47-.1.56,0S161.58,62.49,161.76,62.93Z"/><path d="M155.26,14.21c0-.29-.06-.53,0-.61s.37,0,.54,0,.09.29,0,.34A2.89,2.89,0,0,1,155.26,14.21Z"/><path d="M178.87,18.4l-.68-.14a1.8,1.8,0,0,1,.15-.48c0-.05.33,0,.37,0A2,2,0,0,1,178.87,18.4Z"/><path d="M187.58,73.55c-.33,0-.61,0-.65,0a.59.59,0,0,1,0-.53c.06-.11.31-.14.47-.2Z"/><path d="M115.52,21.84c-.11-.06-.28-.1-.33-.18s.06-.22.09-.32c.12.05.28.09.32.17S115.55,21.73,115.52,21.84Z"/><path d="M200.47,12.3c-.11,0-.26.1-.33.06s-.08-.19-.11-.29c.12,0,.26-.11.34-.07S200.44,12.19,200.47,12.3Z"/><path d="M141.36,5.85l.06-.32a1.68,1.68,0,0,1,.34.15s0,.17,0,.17A2.28,2.28,0,0,1,141.36,5.85Z"/><path d="M190.46,48.78c0-.12,0-.23,0-.35l.49.08c-.05.12-.06.27-.15.32S190.58,48.8,190.46,48.78Z"/><path d="M134.33-24c1,2.2.21,4.68-1.62,5.3-2.05.69-5.26-.59-6.08-2.42a3.85,3.85,0,0,1,2-5.19A4.4,4.4,0,0,1,134.33-24Zm-3.24.6c-.13-.08-.28-.22-.39-.21s-.2.2-.31.3l.53.29C131-23.17,131-23.3,131.09-23.42Z"/><path d="M173.7,18.06c-.95-1.9-.46-3,1.65-3.91s4.82,0,5.59,1.61c.63,1.28-.4,4.54-1.6,5.08C177.66,21.59,174.77,20.16,173.7,18.06Z"/><path d="M130.24-57.32c1.81.53,3.62,1,5.35,1.58,1,.36,1.94,1,1.63,2.24-.26,1-1.49,1.7-3,1.55s-2.8-.39-4.4-.61C130.34-54.1,128.52-55.69,130.24-57.32Z"/><path d="M176.57-31.86c2.77-1.34,5.32-2.16,8.2-1.38,1.78.48,2.16,1.47.89,2.69A4.48,4.48,0,0,1,183-29.22C180.63-29.27,178.64-30.39,176.57-31.86Z"/><path d="M149.25-30.16a2.47,2.47,0,0,1-1.07,3.41,3.24,3.24,0,0,1-3.83-1.47,2.79,2.79,0,0,1,1.4-3.56A3,3,0,0,1,149.25-30.16Z"/><path d="M220.62,29.17a9.77,9.77,0,0,1,.56,2.4c0,1.45-1.11,2.15-2.68,1.88-2.07-.34-3.36-1.56-3.2-3.05.09-.78.71-1.41,1.39-.9C218.08,30.57,219.14,29.68,220.62,29.17Z"/><path d="M209.89,22.07a2.1,2.1,0,0,1-1,2.74c-1.23.52-3-.06-3.42-1.1A2.53,2.53,0,0,1,207,20.88,2.49,2.49,0,0,1,209.89,22.07Z"/><path d="M153.59,5.85a8.85,8.85,0,0,1,2.34,1.07c.61.62.15,1.71-.7,2a1.4,1.4,0,0,1-2-.74C153.07,7.64,153.41,6.94,153.59,5.85Z"/><path d="M105.68,27.17a9,9,0,0,1,2.45,1.32c.21.23-.22,1.21-.64,1.56a1.43,1.43,0,0,1-2.14-.71A6.93,6.93,0,0,1,105.68,27.17Z"/><path d="M140.46,57.72a9.52,9.52,0,0,1,2.3,1.29,1.08,1.08,0,0,1-.51,1.82,1.39,1.39,0,0,1-2-.67C140.07,59.6,140.35,58.9,140.46,57.72Z"/><path d="M175.15,49c1,.65,1.69.9,2,1.36a1.06,1.06,0,0,1-.65,1.75,1.13,1.13,0,0,1-1.57-.88A9.08,9.08,0,0,1,175.15,49Z"/><path d="M117.26,55.11a8.22,8.22,0,0,1-2.11-1.33c-.2-.26.08-1.18.43-1.37a1.34,1.34,0,0,1,1.92.72C117.66,53.55,117.4,54.12,117.26,55.11Z"/><path d="M142.9-36.95c-.32,1.67-1,2.27-2.48,2.26C140.36-36.18,141.17-36.66,142.9-36.95Z"/><path d="M133.28-13.36c-.34.58-.5,1.19-.8,1.26a1.64,1.64,0,0,1-1.17-.59c-.12-.16.16-.87.39-.94A4.59,4.59,0,0,1,133.28-13.36Z"/><path d="M180.2-8.17a4.42,4.42,0,0,1,1.13.76c.09.13-.29.74-.4.73a2,2,0,0,1-1.06-.47C179.76-7.24,180-7.67,180.2-8.17Z"/><path d="M170.61-28.14c.53.3.93.41,1,.61s-.14.54-.34.72-.58-.08-.65-.22A3.48,3.48,0,0,1,170.61-28.14Z"/><path d="M155.29,29.54c-.15.32-.18.62-.33.67s-.44-.1-.62-.22,0-.36.12-.39A3.59,3.59,0,0,1,155.29,29.54Z"/><path d="M130.18,15.5l.71.43a2.38,2.38,0,0,1-.4.49c-.05,0-.39-.1-.41-.19A2.22,2.22,0,0,1,130.18,15.5Z"/><path d="M146-50.31c.37.14.71.2.72.31a.67.67,0,0,1-.21.6c-.12.11-.42,0-.63,0C145.88-49.63,145.92-49.9,146-50.31Z"/><path d="M204.41,36.55c.1.11.27.22.28.34s-.16.21-.25.32c-.1-.11-.28-.22-.28-.33S204.32,36.66,204.41,36.55Z"/><path d="M102.57,13.9c.14,0,.35,0,.41.06s0,.25,0,.38-.35,0-.41-.05S102.56,14,102.57,13.9Z"/><path d="M167.32,44.46l-.22.35a3.18,3.18,0,0,1-.33-.3s.1-.19.12-.18S167.17,44.42,167.32,44.46Z"/><path d="M131.09-23.42c-.06.12-.12.25-.17.38l-.53-.29c.11-.1.19-.28.31-.3S131-23.5,131.09-23.42Z"/><path d="M233.77-34.23c-1,.71-2.09.48-3.12.61a1.43,1.43,0,0,1-.74-.22c-1.07-.56-2-2.45-1.42-3.61a3.65,3.65,0,0,1,2.23-2.26,3.82,3.82,0,0,1,4.34,1.59,3.05,3.05,0,0,1,.16,2.33C235.06-35,234.78-34.24,233.77-34.23Z"/><path d="M217.94,28.61c0-.25,0-.5,0-.77a1.38,1.38,0,0,1,1,1.83,7.24,7.24,0,0,1-.74,1.47,1.21,1.21,0,0,1-.6.43,2.8,2.8,0,0,1-3.74-1.26c-.21-.35-.37-.71-.56-1.06a4.74,4.74,0,0,1,1.39-1.94,1.36,1.36,0,0,1,1-.39c1.5,0,1.58.09,2,1.47a1,1,0,0,0,.14.23Z"/><path d="M246.46,4.14a7.2,7.2,0,0,0,.88-.79,2.34,2.34,0,0,1,2.37-.93c.26.05.53.06.79.11s.46.08.53.19c.43.7,1.07,1.33,1,2.22a1.31,1.31,0,0,1-.06.27c-.12.42-.1,1-.4,1.23a5.46,5.46,0,0,1-2.18.72,2.5,2.5,0,0,1-2.66-2.11A7.5,7.5,0,0,0,246.46,4.14ZM249.2,5s-.1-.08-.14-.07-.08.06-.12.1l.17.11Z"/><path d="M194.14,49.54c-.93.11-.95.1-1-.61a7.36,7.36,0,0,1-.06-.82,1.33,1.33,0,0,1,1.32-1.33c.26,0,.53-.05.79-.06a1.52,1.52,0,0,1,1.59.9,2.94,2.94,0,0,0,.87,1.09,2,2,0,0,1,.56.85,1.61,1.61,0,0,1-1.08,2.06,2,2,0,0,1-2.61-1.07C194.38,50.23,194.28,49.91,194.14,49.54Z"/><path d="M255.85,30.24a1.75,1.75,0,0,0-1.53.57,1.88,1.88,0,0,1-2.35,0,2,2,0,0,1-.4-2.36A2.57,2.57,0,0,1,254,27.3a2.43,2.43,0,0,1,1.92,1.32C256.25,29.13,256,29.67,255.85,30.24ZM253.37,29l.13-.18-.85-.59C252.77,28.85,253,29,253.37,29Z"/><path d="M225.5,21c-.59-.1-1.15-.18-1.69-.29-.7-.13-1.34-.69-1.31-1.32a4.19,4.19,0,0,1,.54-1.79c.29-.5,1-.41,1.54-.39a1.78,1.78,0,0,1,1.57,2.62C225.94,20.15,225.74,20.52,225.5,21Z"/><path d="M282.14,23.61a2,2,0,0,1-2.4-.91,1.81,1.81,0,0,1,.92-2.18,2.44,2.44,0,0,1,2.76,1.15C283.64,22.13,282.85,23.33,282.14,23.61Zm-.86-1.76.24.06c0-.21.07-.43.1-.65-.23,0-.32.08-.34.14A2.26,2.26,0,0,0,281.28,21.85Z"/><path d="M212.54-13.22a1.81,1.81,0,0,1,1.91.21,1.69,1.69,0,0,1,.46,1.86,1.49,1.49,0,0,1-1.47,1,4.45,4.45,0,0,1-1.7-.84c-.41-.31-.11-.8,0-1.18S212-13.07,212.54-13.22Z"/><path d="M233-28.66a2.28,2.28,0,0,1-2.38-.95,1.6,1.6,0,0,1,1.05-2,1.68,1.68,0,0,1,2.19.72A1.58,1.58,0,0,1,233-28.66Z"/><path d="M244-16.95a1.86,1.86,0,0,1-1.7-.22c-.16-.11-.36-.37-.33-.52a8.27,8.27,0,0,1,.58-1.6c.06-.14.39-.2.61-.22a6.69,6.69,0,0,1,1,.07c.48.06,1,.5.88.93A2,2,0,0,1,244-16.95Z"/><path d="M201.44,1a1.39,1.39,0,0,1-1.85-.55,1.45,1.45,0,0,1,.59-1.89,1.5,1.5,0,0,1,2,.65A1.24,1.24,0,0,1,201.44,1Z"/><path d="M285.92,31.39a5.16,5.16,0,0,1,.88-.51.89.89,0,0,1,1.13.31,3.31,3.31,0,0,1,.47.68.86.86,0,0,1,0,.74.89.89,0,0,1-.76.24A2.13,2.13,0,0,1,285.92,31.39Z"/><path d="M185.48-11.62A1,1,0,0,1,186-13a1.1,1.1,0,0,1,1.47.53.93.93,0,0,1-.38,1.34A1.3,1.3,0,0,1,185.48-11.62Z"/><path d="M260.23,37a1.11,1.11,0,0,1,1.29.41.85.85,0,0,1-.44,1.09,1.12,1.12,0,0,1-1.25-.3A1,1,0,0,1,260.23,37Z"/><path d="M255.72-37.76a.86.86,0,0,1-1.21-.47,1,1,0,0,1,.52-1.15,1.05,1.05,0,0,1,1.12.58A.68.68,0,0,1,255.72-37.76Z"/><path d="M206.81,34.15a.8.8,0,0,1-.39,1,1,1,0,0,1-1.18-.37.67.67,0,0,1,.38-1A1,1,0,0,1,206.81,34.15Z"/><path d="M175.75-3.46a.64.64,0,0,1-.4.88A1,1,0,0,1,174.19-3c-.12-.32.09-.68.52-.84A.81.81,0,0,1,175.75-3.46Z"/><path d="M208.44,20.28a.83.83,0,0,1-.36,1,.84.84,0,0,1-1-.33.66.66,0,0,1,.34-.94A.78.78,0,0,1,208.44,20.28Z"/><path d="M243.13,31c.62-.29,1.28-.14,1.45.24s0,.52-.31.66c-.44.24-1.14.09-1.27-.32C242.94,31.35,243.1,31.1,243.13,31Z"/><path d="M195.16,12.74c.13.26-.26.91-.63,1s-.62-.12-.78-.4a.69.69,0,0,1,.39-1A.93.93,0,0,1,195.16,12.74Z"/><path d="M203.25,15.32a4.84,4.84,0,0,1-.89.82,1.09,1.09,0,0,1-.8-.08c-.13-.06-.21-.38-.17-.55.09-.32.41-.35.73-.32Z"/><path d="M274.22-7.08A.94.94,0,0,1,273-7.33c-.15-.32.06-.51.32-.66.42-.22,1-.12,1.09.23A1.55,1.55,0,0,1,274.22-7.08Z"/><path d="M187.84-8.67a.6.6,0,0,1-.76-.35.61.61,0,0,1,.38-.82.59.59,0,0,1,.79.34A.61.61,0,0,1,187.84-8.67Z"/><path d="M218.9-12.47c.7-.36,1.1-.34,1.27.05a.55.55,0,0,1-.32.76C219.48-11.46,219.22-11.67,218.9-12.47Z"/><path d="M209.68-2.42c.47-.6.91-.69,2-.45C210.78-2.25,210.31-2.15,209.68-2.42Z"/><path d="M262.14,2.83c-.45.2-.89.06-.95-.25a.73.73,0,0,1,.22-.61.57.57,0,0,1,.82.23A1.38,1.38,0,0,1,262.14,2.83Z"/><path d="M233.39-25.77c-.39-.18-.7-.24-.85-.42s-.1-.53.2-.69.77-.05.82.25A2.9,2.9,0,0,1,233.39-25.77Z"/><path d="M224.84,2.64c-.24.38-.32.68-.53.82a.48.48,0,0,1-.73-.21.51.51,0,0,1,.3-.75A3,3,0,0,1,224.84,2.64Z"/><path d="M259.29,28.26c.42.21.73.27.88.45s.09.54-.22.68a.52.52,0,0,1-.75-.24C259.13,29,259.24,28.68,259.29,28.26Z"/><path d="M181,4a3.69,3.69,0,0,1-.44.8c-.19.17-.62,0-.71-.28a.45.45,0,0,1,.31-.66A3,3,0,0,1,181,4Z"/><path d="M261-28.73c-.38-.18-.7-.24-.82-.42s.06-.45.21-.56a.46.46,0,0,1,.72.2C261.22-29.34,261.1-29.1,261-28.73Z"/><path d="M252.79,33.2c-.4.2-.94.13-1-.13a.51.51,0,0,1,.13-.45c.33-.24.91-.13,1,.18C252.93,32.93,252.81,33.11,252.79,33.2Z"/><path d="M228.52,14.78c.33.16.61.22.73.38a.35.35,0,0,1-.25.57.89.89,0,0,1-.64-.27C228.28,15.37,228.44,15.11,228.52,14.78Z"/><path d="M226.84,32.12c.29.13.61.21.61.29a.69.69,0,0,1-.22.57c-.15.07-.43-.09-.66-.16C226.65,32.63,226.72,32.43,226.84,32.12Z"/><path d="M209.79,10.31c.35.14.67.18.7.29a.67.67,0,0,1-.17.58c0,.07-.48,0-.54-.13S209.77,10.65,209.79,10.31Z"/><path d="M247-32.92c.28.13.55.2.56.29a.67.67,0,0,1-.21.49.6.6,0,0,1-.46-.17C246.87-32.46,247-32.65,247-32.92Z"/><path d="M203.51-14.82a3.38,3.38,0,0,1-.62.52c-.08,0-.27-.12-.4-.19a2.72,2.72,0,0,1,.37-.56S203.17-14.94,203.51-14.82Z"/><path d="M183.5,13.66a.65.65,0,0,1-1,.31c-.07,0-.12-.26-.07-.3C182.74,13.36,183.09,13.4,183.5,13.66Z"/><path d="M183.51,16.7c-.28-.11-.54-.15-.57-.25a1.17,1.17,0,0,1,.08-.54c.19,0,.47.05.55.16S183.54,16.42,183.51,16.7Z"/><path d="M217.81-11.88c.23.12.47.16.53.28s-.09.3-.14.45a1.51,1.51,0,0,1-.55-.22C217.59-11.42,217.73-11.66,217.81-11.88Z"/><path d="M290,31.09l.45-.89C290.89,30.87,290.86,30.94,290,31.09Z"/><path d="M218.84,18.65c-.13.19-.2.38-.29.39a1.57,1.57,0,0,1-.5-.14c.07-.15.1-.38.22-.43S218.59,18.57,218.84,18.65Z"/><path d="M241.4-6.44c-.05.38-.17.58-.51.48a.38.38,0,0,1-.17-.35C240.84-6.61,241.1-6.55,241.4-6.44Z"/><path d="M201.44,46.89c-.14.18-.21.34-.31.36s-.26-.09-.4-.15c.07-.12.11-.29.21-.33S201.21,46.83,201.44,46.89Z"/><path d="M200.41,35.87a1.82,1.82,0,0,1-.58-.24c-.06-.07,0-.35.08-.37a.61.61,0,0,1,.5.06C200.49,35.4,200.41,35.62,200.41,35.87Z"/><path d="M231.23-20l-1-.22C230.77-20.61,230.77-20.61,231.23-20Z"/><path d="M256.2,10.34c-.17.18-.25.35-.36.37s-.27-.12-.34-.22.09-.25.17-.26S255.94,10.28,256.2,10.34Z"/><path d="M276-1a2.14,2.14,0,0,1-.29.48s-.21,0-.32-.08a1.75,1.75,0,0,1,.17-.43S275.78-1,276-1Z"/><path d="M209.67,29.57l-1,.3-.06-.14,1-.4A1.73,1.73,0,0,0,209.67,29.57Z"/><path d="M240.37,23.22c-.1.18-.14.36-.2.37a1.66,1.66,0,0,1-.42-.12c0-.1.05-.28.12-.29A1.59,1.59,0,0,1,240.37,23.22Z"/><path d="M200.54,34l-.38-.53C200.38,33.29,200.44,33.35,200.54,34Z"/><path d="M192.74,19.69c-.5.56-.5.56-.92.09Z"/><path d="M228.48-13.17c-.21-.08-.36-.1-.41-.17s0-.2.05-.3.26,0,.33.09S228.47-13.36,228.48-13.17Z"/><path d="M216-25,215-25.18C215.6-25.28,215.6-25.28,216-25Z"/><path d="M184.91-14.15c-.09.14-.15.31-.19.31a1.31,1.31,0,0,1-.37-.15c.05-.09.09-.22.17-.25S184.73-14.2,184.91-14.15Z"/><path d="M264.93,38.53a1.38,1.38,0,0,1,.28.23s-.1.18-.14.17a1.2,1.2,0,0,1-.31-.13Z"/><path d="M209.62,49.38c-.08.18-.11.36-.17.37a.71.71,0,0,1-.39-.12s0-.26.06-.28A1.52,1.52,0,0,1,209.62,49.38Z"/><path d="M225.17-23l-.37-.14c0-.09.07-.18.11-.28a1.66,1.66,0,0,1,.33.15S225.21-23.11,225.17-23Z"/><path d="M198.23,22c.09.09.21.17.25.28a.33.33,0,0,1,0,.3.38.38,0,0,1-.33-.05c-.06-.06,0-.2,0-.31S198.19,22.09,198.23,22Z"/><path d="M213.44,54c-.07.1-.11.2-.17.22s-.16-.06-.24-.1.07-.17.13-.2S213.31,54,213.44,54Z"/><path d="M188.68-13.65a1.49,1.49,0,0,1,.24.14,1.83,1.83,0,0,1-.16.26c-.07-.05-.18-.1-.19-.16S188.63-13.55,188.68-13.65Z"/><path d="M248.61-8c-.17.19-.21.29-.28.31s-.15-.07-.24-.11.08-.16.15-.19S248.42-8,248.61-8Z"/><path d="M218.72-6.74c0-.11,0-.22.09-.24s.17,0,.25,0,0,.18,0,.22A1.19,1.19,0,0,1,218.72-6.74Z"/><path d="M247.05-12.24l.51.32a.56.56,0,0,1,0,.12l-.56-.12Z"/><path d="M262.87,25.71c.1.07.22.12.22.18s-.06.18-.09.27-.19-.06-.22-.12S262.81,25.9,262.87,25.71Z"/><path d="M272.9,31.16h.18c0,.08,0,.15,0,.22s-.14,0-.17-.05S272.89,31.22,272.9,31.16Z"/><path d="M215.29-22.37l-.34-.1s0-.08,0-.12l.37,0A1.05,1.05,0,0,0,215.29-22.37Z"/><path d="M265.9-2.84l.2.14c-.05,0-.12.14-.15.12a.56.56,0,0,1-.2-.14Z"/><path d="M271-5.92c-.06.06-.11.13-.17.18s-.11,0-.16-.07a.9.9,0,0,1,.14-.2A1.2,1.2,0,0,1,271-5.92Z"/><path d="M201.88,7.17l0,.16c-.06,0-.14,0-.16-.06s0-.11,0-.16Z"/><path d="M270.21-13.58a.63.63,0,0,1-.15.21s-.16,0-.16,0a.59.59,0,0,1,0-.23Z"/><path d="M258,37.33c-.06-.09-.12-.18-.17-.27l.07,0,.21.23A.41.41,0,0,0,258,37.33Z"/><path d="M253.05,45.33s.13,0,.15,0,0,.11,0,.16-.13,0-.15,0S253,45.38,253.05,45.33Z"/><path d="M289,31c0,.05,0,.1,0,.15a.34.34,0,0,1-.16,0s0-.1,0-.15Z"/><path d="M210-19.54l-.29.34c-.06-.05-.13-.1-.15-.16s0-.12.07-.13A1.69,1.69,0,0,1,210-19.54Z"/><path d="M235.24,16.55c0,.05,0,.1-.05.15l-.21-.09s.05-.11.1-.12S235.19,16.53,235.24,16.55Z"/><path d="M256.67,13.29h.18a1.8,1.8,0,0,0,0,.22c-.07,0-.15,0-.17-.05S256.66,13.35,256.67,13.29Z"/><path d="M239.76,30.61l-.06.14c-.06,0-.14,0-.16-.07s0-.09.05-.14Z"/><path d="M192.05,6.06l.17.06s0,.12-.08.14-.1,0-.15,0Z"/><path d="M176.18-4.91a1,1,0,0,0-.09.13c-.05,0-.12-.06-.14-.1S176-4.95,176-5A.55.55,0,0,0,176.18-4.91Z"/><path d="M259.1,21.26,259,21.2s0-.08,0-.08a.5.5,0,0,1,.17,0A.78.78,0,0,0,259.1,21.26Z"/><path d="M282.64,11.62l.08,0s0,.1,0,.14l-.08,0A.43.43,0,0,1,282.64,11.62Z"/><path d="M248.84-3.36s0,0,0,.07,0,0-.06.06a.54.54,0,0,1-.05-.11Z"/><path d="M242,32.22c-.08.05-.13.1-.17.09a.25.25,0,0,1-.13-.12s0-.08.07-.12Z"/><path d="M200,5.92l.16.06s0,.13-.07.14-.1,0-.16,0A1,1,0,0,1,200,5.92Z"/><path d="M237.42,37.24l.16,0a1.62,1.62,0,0,0-.1.18s-.12-.05-.13-.09S237.39,37.28,237.42,37.24Z"/><path d="M249.2,5l-.09.14L248.94,5s.07-.1.12-.1S249.15,5,249.2,5Z"/><path d="M253.37,29c-.35,0-.6-.17-.72-.77l.85.59Z"/><path d="M281.28,21.85a2.26,2.26,0,0,1,0-.45c0-.06.11-.12.34-.14,0,.22-.07.44-.1.65Z"/></mask></defs><title>Asset 1</title><g id="Layer_2" data-name="Layer 2"><g id="Layer_1-2" data-name="Layer 1"><g class="cls-2"><path class="cls-3" d="M211.94,76.45c-5.83-3.47-9.49-11.75-8.12-18.4a12.16,12.16,0,0,0-9.65-14.39c-6.67-1.27-12.93-7.79-13.92-14.51a12.16,12.16,0,0,0-14-10.22c-6.7,1.09-14.82-2.9-18-8.87a12.14,12.14,0,0,0-16.63-4.83c-5.92,3.32-14.92,2.35-20-2.16A12.15,12.15,0,0,0,94.3,4.22C89.87,9.37,81.08,11.53,74.77,9a12.15,12.15,0,0,0-15.84,7C56.52,22.38,49,27.42,42.22,27.23a12.15,12.15,0,0,0-12.5,12C29.63,46,24.29,53.31,17.85,55.46A12.15,12.15,0,0,0,10.21,71c2.24,6.41-.28,15.1-5.6,19.32a12.15,12.15,0,0,0-1.86,17.22c4.29,5.25,4.9,14.28,1.34,20.07a12.13,12.13,0,0,0,4.14,16.81c5.83,3.47,9.49,11.75,8.12,18.4A12.16,12.16,0,0,0,26,177.21c6.67,1.27,12.94,7.8,13.93,14.51a12.15,12.15,0,0,0,14,10.22c6.69-1.09,14.82,2.9,18,8.87a12.14,12.14,0,0,0,16.63,4.83c5.92-3.32,14.92-2.35,20,2.16a12.15,12.15,0,0,0,17.28-1.15c4.43-5.15,13.22-7.31,19.53-4.81a12.15,12.15,0,0,0,15.84-7c2.41-6.35,9.92-11.38,16.71-11.19a12.16,12.16,0,0,0,12.5-12c.08-6.79,5.43-14.09,11.87-16.24A12.15,12.15,0,0,0,210,149.87c-2.24-6.41.28-15.1,5.6-19.32a12.15,12.15,0,0,0,1.86-17.22c-4.29-5.25-4.9-14.28-1.34-20.06A12.15,12.15,0,0,0,211.94,76.45ZM134.47,205.23A97.88,97.88,0,1,1,204.88,86,97.88,97.88,0,0,1,134.47,205.23Z"/><path class="cls-3" d="M87,20.56A92.8,92.8,0,1,0,200,87.31,92.8,92.8,0,0,0,87,20.56Zm45.36,176.28A89.22,89.22,0,1,1,196.49,88.2,89.22,89.22,0,0,1,132.32,196.84Z"/><path class="cls-3" d="M59.65,134l-3.85,1-1.43-5.53a30.71,30.71,0,0,0,4-.76,31.36,31.36,0,0,0,7-2.6,16.74,16.74,0,0,0,4.86-3.84,10.82,10.82,0,0,0,2.43-5.42,16.91,16.91,0,0,0-.56-7,20.52,20.52,0,0,0-1.49-4A12.76,12.76,0,0,0,68.66,103,11.23,11.23,0,0,0,66.34,101a9.26,9.26,0,0,0-2.66-1.14,15.77,15.77,0,0,0-2.92-.46,15,15,0,0,0-3.13.09c-1.08.13-2.17.29-3.29.48a32.33,32.33,0,0,0-3.4.74c-1.14.32-2.28.61-3.42.89l-.65.16-.57.15-.63.16L28.51,106.5l2.39,9.3,4-1,6.18,24-4.11,1,2.43,9.47,22.7-5.84Zm-10-23,2.21-.57a5.51,5.51,0,0,1,3.74.22,4.29,4.29,0,0,1,2.3,3.12q1.35,5.3-4.63,6.84l-1.08.27Z"/><path class="cls-3" d="M118.46,118.88l-2.27.58a.88.88,0,0,1-.76-.15,2.14,2.14,0,0,1-.63-.64c-.17-.25-.4-.64-.68-1.15L98.05,88.6l-26.2,6.75,2.39,9.3,5.59-1.44.07,19.07a28.33,28.33,0,0,1-.13,3.66,4.22,4.22,0,0,1-2.28,3.26,9.63,9.63,0,0,1-2,.74l2.44,9.46,17.87-4.6-2.44-9.46-2.21.57c-.37.09-.73-.15-1.09-.73a6,6,0,0,1-.72-1.62c-.08-.37-.14-.65-.17-.85a1.22,1.22,0,0,1,.07-.62.62.62,0,0,1,.45-.42l7.25-1.86c1.18-.3,2.14,1,2.88,3.87l-3.16.81L99.12,134l21.78-5.6Zm-29.75-4-.49-14.15,6.53,12.6Z"/><polygon class="cls-3" points="136.9 88.53 134.51 79.22 111.73 85.08 114.13 94.39 117.89 93.42 124.07 117.44 120.2 118.43 122.63 127.9 145.36 122.05 142.92 112.59 139.21 113.54 133.03 89.53 136.9 88.53"/><path class="cls-3" d="M138.44,78.21l2.38,9.28,4.46-1.14,6.18,24-4.29,1.11L149.6,121l21.15-5.44a26,26,0,0,0,9.16-4.24,19.82,19.82,0,0,0,5.79-6.56,22,22,0,0,0,2.41-7.92,23.76,23.76,0,0,0-.65-8.52Q184.77,77.84,178,73.82t-17.66-1.24Zm28.85,5.3a9.63,9.63,0,0,1,2,2.47,18.9,18.9,0,0,1,1.47,3,34.44,34.44,0,0,1,1,3.3,26.67,26.67,0,0,1,.67,3.39,17.67,17.67,0,0,1,.08,3.43,10.47,10.47,0,0,1-.7,3.18,6.72,6.72,0,0,1-1.84,2.53,7.59,7.59,0,0,1-3.19,1.62l-.93.24-6.18-24,1.24-.32a7.48,7.48,0,0,1,3.59-.13A6.52,6.52,0,0,1,167.29,83.51Z"/><rect class="cls-3" x="43.88" y="84.91" width="4.8" height="2.64" transform="translate(-50.97 97.14) rotate(-68.17)"/><polygon class="cls-3" points="43.77 74.14 55.11 80.89 56.92 77.84 45.56 71.08 47.19 68.34 44.46 66.72 39.36 75.31 42.11 76.94 43.77 74.14"/><polygon class="cls-3" points="62.93 69.89 57.84 65.19 60.07 62.77 65.17 67.47 67.57 64.86 55.52 53.74 53.12 56.35 57.72 60.59 55.47 63.03 50.87 58.79 48.46 61.39 60.51 72.51 62.93 69.89"/><path class="cls-3" d="M72.76,60.8l-1-2.45,3.57-2.43,1.89,1.81,2.87-1.95L67.5,44.55l-3,2L69.9,62.76ZM68.24,48.9,73.47,54,70.85,55.8l-2.66-6.87Z"/><polygon class="cls-3" points="86.21 53.19 82.54 43.52 82.59 43.49 90.16 51.69 93.66 50.36 87.83 35 84.69 36.2 88.3 45.72 88.24 45.74 80.78 37.68 77.16 39.05 82.99 54.41 86.21 53.19"/><polygon class="cls-3" points="100.22 40.76 100.27 40.75 104.64 48.52 108.36 48.01 103.51 40 105.89 31.8 102.29 32.29 100.19 40.14 100.14 40.15 99.13 32.72 95.58 33.2 97.79 49.45 101.34 48.97 100.22 40.76"/><polygon class="cls-3" points="118.45 48.63 119.04 41.4 123.44 32.59 119.93 32.3 117.52 37.3 115.85 31.97 112.04 31.66 115.53 41.13 114.94 48.34 118.45 48.63"/><path class="cls-3" d="M126.24,48.29a5.2,5.2,0,0,0,3.5,3.1,5.39,5.39,0,0,0,4.62-.55q2.13-1.32,3.58-6.05A15.8,15.8,0,0,0,138.7,41a6.12,6.12,0,0,0-.43-2.69,6.22,6.22,0,0,0-1.25-2A6.14,6.14,0,0,0,131.5,35a6.19,6.19,0,0,0-2.63,1.81,12.67,12.67,0,0,0-2.2,4.63Q125.29,46,126.24,48.29Zm3.16-2.39a21.48,21.48,0,0,1,.83-3.31l.31-1a7.18,7.18,0,0,1,1.38-2.82,1.7,1.7,0,0,1,1.85-.46,1.73,1.73,0,0,1,1.08.92,2.87,2.87,0,0,1,.26,1.62,19,19,0,0,1-.73,3A17.66,17.66,0,0,1,133.2,47a2.45,2.45,0,0,1-1.11,1.12,1.68,1.68,0,0,1-1.24.1,2,2,0,0,1-1.13-.84A2.19,2.19,0,0,1,129.4,45.9Z"/><path class="cls-3" d="M140.49,54.18a6.3,6.3,0,0,0,6.69,3.93,4.76,4.76,0,0,0,3-2.45l5.91-10.18-3.1-1.8-5.57,9.61a2.71,2.71,0,0,1-1.2,1.18,1.39,1.39,0,0,1-1.34-.08,1.49,1.49,0,0,1-.79-1.17,3,3,0,0,1,.51-1.77L150.11,42,147,40.2l-5.77,9.95A5.14,5.14,0,0,0,140.49,54.18Z"/><rect class="cls-3" x="154.73" y="56.69" width="2.64" height="4.81" transform="translate(10.49 140.68) rotate(-50.01)"/><rect class="cls-3" x="61.88" y="161.59" width="2.64" height="4.8" transform="translate(-100.46 99.93) rotate(-47.55)"/><polygon class="cls-3" points="80.63 167.43 82.37 164.77 74 159.31 72.25 161.99 74.98 163.77 67.77 174.81 70.74 176.75 77.96 165.68 80.63 167.43"/><polygon class="cls-3" points="91.46 168.51 89.25 174.38 86.15 173.21 88.35 167.34 85.03 166.1 79.26 181.44 82.6 182.7 85.04 176.21 88.13 177.37 85.69 183.86 89 185.11 94.78 169.76 91.46 168.51"/><path class="cls-3" d="M95.5,186.79l3.44.42.91-2.46,4.28.53.23,2.6,3.44.43-2.07-16.78-3.56-.44Zm7.91-11.5.55,7.29-3.14-.39,2.53-6.91Z"/><polygon class="cls-3" points="121.89 181.01 121.83 181.02 116.49 171.42 112.65 171.9 114.68 188.19 118.09 187.77 116.81 177.5 116.86 177.5 122.28 187.25 126 186.78 123.97 170.49 120.64 170.9 121.89 181.01"/><polygon class="cls-3" points="137.5 165.74 134.1 167.03 133.82 175.15 133.77 175.17 131.12 168.16 127.76 169.43 133.56 184.76 136.92 183.49 133.99 175.74 134.03 175.73 140.04 182.31 143.55 180.98 137.02 174.27 137.5 165.74"/><polygon class="cls-3" points="149.05 158.31 146.12 160.27 147.34 165.68 142.72 162.54 139.54 164.67 148.17 169.92 152.19 175.94 155.11 173.98 151.08 167.95 149.05 158.31"/><path class="cls-3" d="M161.31,151.61a6.08,6.08,0,0,0-2.61-.81,6,6,0,0,0-2.32.26,5.31,5.31,0,0,0-2.11,1.47,5.22,5.22,0,0,0-1.49,2.89,6.09,6.09,0,0,0,.46,3.17,12.69,12.69,0,0,0,3.17,4q3.42,3.24,5.93,3.42a5.19,5.19,0,0,0,4.34-1.76,5.4,5.4,0,0,0,1.55-4.39q-.24-2.49-3.84-5.89A16.06,16.06,0,0,0,161.31,151.61Zm3.46,9.09a1.71,1.71,0,0,1-.46,1.15,2,2,0,0,1-1.26.65,2.25,2.25,0,0,1-1.44-.36,21,21,0,0,1-2.6-2.21l-.76-.72a7.37,7.37,0,0,1-1.92-2.5,1.69,1.69,0,0,1,.41-1.85,1.71,1.71,0,0,1,1.31-.57,2.94,2.94,0,0,1,1.57.49,19.44,19.44,0,0,1,2.35,2,18.18,18.18,0,0,1,2.28,2.44A2.61,2.61,0,0,1,164.77,160.7Z"/><path class="cls-3" d="M165.66,136.58l-1.77,3.12,9.66,5.48a2.8,2.8,0,0,1,1.2,1.19,1.42,1.42,0,0,1-.07,1.34,1.48,1.48,0,0,1-1.17.8,3.06,3.06,0,0,1-1.77-.49l-9.51-5.4-1.76,3.1,10,5.68a5.18,5.18,0,0,0,4,.73,6.3,6.3,0,0,0,3.86-6.73,4.77,4.77,0,0,0-2.47-3Z"/><rect class="cls-3" x="175.25" y="133.47" width="4.8" height="2.64" transform="translate(-8.3 257.88) rotate(-70.69)"/></g></g></g></svg>