<svg xmlns="http://www.w3.org/2000/svg" viewBox="0 0 500 500"><defs><style>.cls-1{isolation:isolate;}.cls-2,.cls-3{fill:#fff;}.cls-3,.cls-5{stroke:#52823c;stroke-linecap:round;stroke-linejoin:round;stroke-width:3.34px;}.cls-4,.cls-6{fill:#93c754;}.cls-5{fill:none;}.cls-6{opacity:0.5;mix-blend-mode:multiply;}.cls-7{font-size:13.87px;font-family:WestDjakarta, West Djakarta;}.cls-8{font-size:51.37px;fill:#08ba71;font-family:MagicOwl-PersonalUse, Magic Owl;letter-spacing:0.01em;}.cls-9{letter-spacing:0.03em;}.cls-10{letter-spacing:0.02em;}.cls-11,.cls-12,.cls-13{fill:#f89b1c;}.cls-11{letter-spacing:0.01em;}.cls-12{letter-spacing:0.01em;}.cls-13{letter-spacing:0.03em;}</style></defs><title>sabilafreshlogo</title><g class="cls-1"><g id="BACKGROUND"><rect class="cls-2" width="500" height="500"/></g><g id="OBJECTS"><path class="cls-3" d="M259.63,157.47s-6.52-39.91,38.31-38.16C296.25,134,288.07,153.85,259.63,157.47Z" transform="translate(0)"/><path class="cls-4" d="M303.35,125.17c-3.54,14.34-14.19,33-42.87,33C260.48,158.13,259.12,117.71,303.35,125.17Z" transform="translate(0)"/><path class="cls-4" d="M251.19,156.14s-22.54-4.74-20.18-28.6C245.33,129,255.6,143.34,251.19,156.14Z" transform="translate(0)"/><path class="cls-5" d="M251.19,156.14s-22.54-4.74-20.18-28.6C245.33,129,255.6,143.34,251.19,156.14Z" transform="translate(0)"/><path class="cls-6" d="M303.35,125.17c-3.54,14.34-14.19,33-42.87,33C265.88,140.81,303.35,125.17,303.35,125.17Z" transform="translate(0)"/><path class="cls-5" d="M259.63,157.47s-6.52-39.91,38.31-38.16C296.25,134,288.07,153.85,259.63,157.47Z" transform="translate(0)"/><text class="cls-7" transform="translate(218.84 218.46)">freshness for everybody</text><text class="cls-8" transform="translate(137.89 198.93)">S<tspan class="cls-9" x="27.79" y="0">abil</tspan><tspan class="cls-10" x="104.28" y="0">a</tspan><tspan class="cls-11" x="127.5" y="0">f</tspan><tspan class="cls-12" x="147.08" y="0">r</tspan><tspan class="cls-13" x="163.93" y="0">esh</tspan></text></g></g></svg>