<svg xmlns="http://www.w3.org/2000/svg" viewBox="0 0 204.29 243.59"><defs><style>.cls-1,.cls-10,.cls-13,.cls-7{fill:#3e479b;}.cls-1{opacity:0.14;}.cls-2,.cls-4{fill:#f7a9b4;}.cls-3,.cls-8,.cls-9{fill:#fff;}.cls-4{opacity:0.39;}.cls-5{fill:#599af2;}.cls-6{fill:#ecf1f7;opacity:0.07;}.cls-8{opacity:0.21;}.cls-9{opacity:0.76;}.cls-10{opacity:0.58;}.cls-11{fill:none;}.cls-12{fill:#4c65ba;}.cls-13{opacity:0.43;}</style></defs><title>Asset 1</title><g id="Layer_2" data-name="Layer 2"><g id="OBJECTS"><rect class="cls-1" x="15.12" y="69.36" width="176.9" height="130.91" rx="1.85" transform="translate(-65.21 155.15) rotate(-59.34)"/><rect class="cls-2" x="12.27" y="63.39" width="176.9" height="130.91" rx="1.85" transform="translate(-61.47 149.78) rotate(-59.34)"/><path class="cls-1" d="M141.76,235.54,16.66,212.48a1.86,1.86,0,0,1-1.49-2.16L46.57,40a1.85,1.85,0,0,1,2.16-1.48l125.1,23.05a1.86,1.86,0,0,1,1.48,2.16l-31.4,170.33A1.85,1.85,0,0,1,141.76,235.54Z"/><rect class="cls-3" x="4.12" y="66.78" width="176.9" height="130.91" transform="translate(-54.25 199.29) rotate(-79.56)"/><rect class="cls-4" x="4.12" y="66.78" width="176.9" height="130.91" rx="1.85" transform="translate(-54.25 199.29) rotate(-79.56)"/><path class="cls-3" d="M153.49,77.6h-.18L122,71.81a1,1,0,1,1,.37-2l31.31,5.77a1,1,0,0,1-.18,2Z"/><path class="cls-3" d="M151.65,87.61l-.19,0-31.31-5.77a1,1,0,0,1,.36-2l31.32,5.77a1,1,0,0,1-.18,2Z"/><path class="cls-3" d="M149.64,98.48l-.18,0-31.32-5.77a1,1,0,0,1-.8-1.16,1,1,0,0,1,1.17-.81l31.31,5.78a1,1,0,0,1-.18,2Z"/><rect class="cls-1" x="48.71" y="42.68" width="62.68" height="58.56" rx="2" transform="translate(-5.23 137.64) rotate(-79.56)"/><rect class="cls-5" x="49.27" y="42.37" width="59.56" height="56.02" rx="2" transform="translate(-4.49 135.35) rotate(-79.56)"/><path class="cls-6" d="M110.68,53.29,55.59,43.14l1-5.21a1.93,1.93,0,0,1,2.26-1.56l51.34,9.46a1.87,1.87,0,0,1,1.5,2.18Z"/><path class="cls-7" d="M71,70.31a6.82,6.82,0,0,1-1.18-.11l-.76-.14a7.48,7.48,0,0,1-6-8.7L65,50.92a1.5,1.5,0,0,1,3,.55L66,61.9a4.47,4.47,0,0,0,3.58,5.21l.77.14a3.47,3.47,0,0,0,4-2.79L79.28,38a3.59,3.59,0,0,0-2.87-4.18l-1.31-.24a3.8,3.8,0,0,0-4.43,3.06l-.12.65a1.5,1.5,0,0,1-3-.54l.12-.66a6.82,6.82,0,0,1,7.93-5.46l1.3.24a6.59,6.59,0,0,1,5.28,7.67L77.36,65A6.48,6.48,0,0,1,71,70.31Z"/><path class="cls-3" d="M76.21,48.12h-.1l-20-3.68a.5.5,0,0,1-.4-.58.49.49,0,0,1,.59-.4l20,3.68a.5.5,0,0,1,.4.58A.51.51,0,0,1,76.21,48.12Z"/><path class="cls-3" d="M137.33,151.46l-.19,0L41.46,133.8a1,1,0,0,1,.36-2l95.69,17.64a1,1,0,0,1-.18,2Z"/><path class="cls-3" d="M130.49,188.57h-.19L34.62,170.92a1,1,0,0,1,.36-2l95.69,17.64a1,1,0,0,1-.18,2Z"/><path class="cls-3" d="M83.46,160.72l-.19,0L38,152.36a1,1,0,0,1,.36-2l45.24,8.34a1,1,0,0,1-.18,2Z"/><path class="cls-3" d="M89.69,126.9h-.18l-45.24-8.34a1,1,0,0,1-.8-1.16,1,1,0,0,1,1.17-.81l45.23,8.34a1,1,0,0,1-.18,2Z"/><path class="cls-3" d="M133.93,169.87a.55.55,0,0,1-.18,0l-43.1-7.94a1,1,0,0,1,.37-2l43.09,7.95a1,1,0,0,1-.18,2Z"/><circle class="cls-8" cx="79.28" cy="74.86" r="63.29" transform="translate(-29.71 77.98) rotate(-45)"/><path class="cls-9" d="M29.68,79.41a4,4,0,0,1-4-4A58,58,0,0,1,83.59,17.5a4,4,0,0,1,0,8A50,50,0,0,0,33.68,75.41,4,4,0,0,1,29.68,79.41Z"/><path class="cls-10" d="M79.28,140.15a65.29,65.29,0,1,1,65.29-65.29A65.37,65.37,0,0,1,79.28,140.15Zm0-126.58a61.29,61.29,0,1,0,61.29,61.29A61.35,61.35,0,0,0,79.28,13.57Z"/><circle class="cls-11" cx="79.28" cy="74.86" r="63.29"/><path class="cls-7" d="M137.45,120.21a3.31,3.31,0,0,1,.3-.25,74,74,0,1,0-13.53,13.48l8.54-8.54ZM79.28,138.15a63.29,63.29,0,1,1,63.29-63.29A63.29,63.29,0,0,1,79.28,138.15Z"/><path class="cls-7" d="M79.28,149.72a74.86,74.86,0,1,1,74.86-74.86,74.12,74.12,0,0,1-15.59,45.71l-.19.19-.2.15-13.33,13.32A74.15,74.15,0,0,1,79.28,149.72ZM79.28,2a72.86,72.86,0,0,0,0,145.72,72.17,72.17,0,0,0,44.28-15l13.19-13.19.29-.26a72.11,72.11,0,0,0,15.1-44.38A72.94,72.94,0,0,0,79.28,2Zm0,137.15a64.29,64.29,0,1,1,64.29-64.29A64.36,64.36,0,0,1,79.28,139.15Zm0-126.58a62.29,62.29,0,1,0,62.29,62.29A62.36,62.36,0,0,0,79.28,12.57Z"/><path class="cls-12" d="M135.63,131.75l-2.87-2.86a2.82,2.82,0,0,1,0-4l-8.54,8.54-.14.14a2.82,2.82,0,0,0,0,4l3.48,3.48C128.7,139.13,132.06,135.37,135.63,131.75Z"/><path class="cls-12" d="M132.76,124.9a2.82,2.82,0,0,0,0,4l2.87,2.86a77.62,77.62,0,0,1,9.15-8.21l-3.33-3.33a2.82,2.82,0,0,0-3.7-.25,3.31,3.31,0,0,0-.3.25Z"/><path class="cls-13" d="M132.76,124.9a2.82,2.82,0,0,0,0,4l2.87,2.86a77.62,77.62,0,0,1,9.15-8.21l-3.33-3.33a2.82,2.82,0,0,0-3.7-.25,3.31,3.31,0,0,0-.3.25Z"/><path class="cls-5" d="M198.36,175.5l-52-52.58c-.19-.19-.76.06-1.57.62a77.62,77.62,0,0,0-9.15,8.21c-3.57,3.62-6.93,7.38-8.07,9.3-.38.63-.52,1.06-.36,1.23l52,52.57a13.43,13.43,0,0,0,19.15,0A13.78,13.78,0,0,0,198.36,175.5Z"/><path class="cls-1" d="M198.36,175.5l-52-52.58c-.7-.71-6.63,4.6-11.72,9.85-4.32,4.46,58.44,67.43,63.73,62.08h0A13.78,13.78,0,0,0,198.36,175.5Z"/></g></g></svg>