<svg xmlns="http://www.w3.org/2000/svg" viewBox="0 0 392.37 196.46"><defs><style>.cls-1{fill:#ffcc3b;}.cls-2{fill:#ffb600;}.cls-3{fill:#ffce00;}.cls-4{fill:#b4ba3c;}.cls-5{fill:#8c9916;}.cls-6{fill:#a0b718;}.cls-7{fill:#66515e;}.cls-8{fill:#c0cc4a;}.cls-9{fill:#c4915b;}.cls-10{fill:#e0ae80;}.cls-11{fill:#ff7c48;}.cls-12{fill:#ff6029;}.cls-13{fill:#fff;}.cls-14{fill:#b26b5e;}.cls-15{fill:#d2e0ff;}.cls-16{fill:#d08d83;}.cls-17{fill:#4b3d51;}.cls-18{fill:#4b3c4f;}.cls-19{fill:#ebb6a5;}.cls-20{fill:#a57142;}</style></defs><title>Asset 2</title><g id="Layer_2" data-name="Layer 2"><g id="Layer_1-2" data-name="Layer 1"><rect class="cls-1" width="392.37" height="196.46"/><path class="cls-2" d="M0,87.25C4.16,90.53,8.45,94.11,9.12,95c4.61,6.09,7,12.48,9.82,19.6,5.79,14.41,13,28.91,25.12,38.32,16.75,13,40.06,13.74,59.87,12.07,18.17-1.54,36.15-6.48,54.48-4.93,16.88,1.43,34.91,11.06,35.18,36.4h28.28c2.89-3.27-.53-38.09-1.58-42.41-3-12.44-9.36-24.14-19.28-31.63-16.74-12.64-38.26-15.81-55.88-26.18-19.45-11.44-22.94-27.35-23.21-49.52C121.71,29.11,121.23,9.88,104.5,1c-.66-.35-1.32-.69-2-1H0Z"/><path class="cls-3" d="M309.23,158l.1-.12-.21,0Z"/><path class="cls-3" d="M318.76,161.46a13.08,13.08,0,0,1-7.17,1.84,2.19,2.19,0,0,1-.15,1.24s-.14.09-.35.12c-.78.2-2.76.37-4.65-2.28a19.78,19.78,0,0,1-.48,5.4,7.34,7.34,0,0,0,5.41,3.87,6.94,6.94,0,0,0,5.56-1.66A15.83,15.83,0,0,1,318.76,161.46Z"/><path class="cls-4" d="M263,60.84a13.72,13.72,0,0,1,1.31-4.06,6.29,6.29,0,0,1,2.55,3.62,22.36,22.36,0,0,1,3-4.94,15.94,15.94,0,0,1,4.35,6.13,16.8,16.8,0,0,1,8.8-6.54,18.17,18.17,0,0,1,.9,5.56A11.66,11.66,0,0,1,287.67,59a6.84,6.84,0,0,1-1,4.67,15.28,15.28,0,0,1,4.47-.42,17.81,17.81,0,0,1-.46-2.84,9.47,9.47,0,0,1-2.25,0,6.56,6.56,0,0,1,2.3-4.11,13.4,13.4,0,0,1-6.33-2.19,5.49,5.49,0,0,1,1.64-1.65,23.36,23.36,0,0,1-2.7-2.08,14.51,14.51,0,0,1,6.6-5.1,19.1,19.1,0,0,1-4.5-9.24,13.39,13.39,0,0,1,8.35.26,15.86,15.86,0,0,0-.31-5.42,17.81,17.81,0,0,0-5.63,3.33,16.45,16.45,0,0,0-.76-4.09,16.67,16.67,0,0,0-7.92,7.68,14.55,14.55,0,0,0-6.51-9.83c-2.18,5.3-2,9.66-.92,13.07a12.48,12.48,0,0,0-11-3.23,19.72,19.72,0,0,0,3.87,8,12,12,0,0,0-7.93,1.67c2.54,4.13,5.44,6.31,8.24,7.36a13.45,13.45,0,0,0-4.78,3.38A14.7,14.7,0,0,1,263,60.84Z"/><path class="cls-4" d="M317.55,124a17.36,17.36,0,0,1-6.5.42,19.3,19.3,0,0,1,2.9,5.14l.31-.08a5.86,5.86,0,0,1,.08,1.32,5.31,5.31,0,0,1,.14,3.12,12.42,12.42,0,0,1,5.46.16,7.12,7.12,0,0,1-4.49,4.57,22.27,22.27,0,0,1,2.95.95c-1.57,4.6-4.18,7.25-7,8.68a18.48,18.48,0,0,1,6.34,7.55,13.5,13.5,0,0,1-8.4,2l-.1.12a11.65,11.65,0,0,1,2.36,5.28,13.08,13.08,0,0,0,7.17-1.84,15.83,15.83,0,0,0-1.83,8.53,16.3,16.3,0,0,0,.76,3.84,17.26,17.26,0,0,0,6.91-6,15.11,15.11,0,0,0,2.81,8.73,18,18,0,0,0,5.28-10,15,15,0,0,0,3.66,4.52c-.66-4.3-1.5-8.65-2.56-12.84A98.42,98.42,0,0,0,317.55,124Z"/><path class="cls-4" d="M360.3,83.17a7.77,7.77,0,0,1,1.06,2.07,7.25,7.25,0,0,1,.26.91,7,7,0,0,1,2.37-.94l-.2-4.47Z"/><path class="cls-4" d="M366,85.13a6,6,0,0,1,1.2-1.12A11.35,11.35,0,0,1,371.91,82a15.18,15.18,0,0,1-1.81-6.88A15.93,15.93,0,0,1,365,79.3l.32,5.79A5.63,5.63,0,0,1,366,85.13Z"/><path class="cls-4" d="M343.57,114.47a7,7,0,0,1-6.49,1.67c-.38,2-.65,6.27.32,15.66,2,19.48,8.25,30,8.25,30L361,142.46a17.36,17.36,0,0,1-.47-2.89,9.47,9.47,0,0,1-2.25,0,6.56,6.56,0,0,1,2.3-4.11,13.53,13.53,0,0,1-6.33-2.2,5.34,5.34,0,0,1,1.64-1.64,23.56,23.56,0,0,1-2.69-2.08,14.37,14.37,0,0,1,6.59-5.1,19.15,19.15,0,0,1-4.5-9.24,12.84,12.84,0,0,1,10.41,1.27c-.86-3.29-.74-7.44,1.55-12.52a15.45,15.45,0,0,1,5.05,4,13.77,13.77,0,0,1,1.3-4.06,6.24,6.24,0,0,1,2.55,3.62,22.43,22.43,0,0,1,3-4.94,15.9,15.9,0,0,1,4.34,6.13,15.45,15.45,0,0,1,5.63-5.11,5.9,5.9,0,0,1-1-.42,7.27,7.27,0,0,1-3.18-9.36,7.56,7.56,0,0,1,1-1.65,5.31,5.31,0,0,1-3-3.89,9.46,9.46,0,0,1,4.95,1A5.21,5.21,0,0,1,389,90a6.13,6.13,0,0,1,1.53-.26l.74-3.72a7.86,7.86,0,0,1-1.14.77,7.76,7.76,0,0,1-10.82-3.71,9.14,9.14,0,0,1-.8-5.29A19.54,19.54,0,0,1,373.17,84c-.29-.42-.56-.84-.8-1.26a6.53,6.53,0,0,1-2.55,4,7.63,7.63,0,0,1,1.39,1.59,8.2,8.2,0,0,1-1.71,10.9,7,7,0,0,1-10.15-1.85,8,8,0,0,1-1.15-2.72,7.58,7.58,0,0,1-1.14.57,7.14,7.14,0,0,1-9.35-4.62,8,8,0,0,1,4.3-10,6.77,6.77,0,0,1,2-.46c-.59-1.88-.7-4,.44-5.61a12,12,0,0,1,3.2,4.9,6.82,6.82,0,0,1,.41,1.65,8,8,0,0,1,1.4,1.07l2.48-1.74a18.46,18.46,0,0,1-.78-4,9.43,9.43,0,0,1-2.25,0,6.51,6.51,0,0,1,2.3-4.1,13.47,13.47,0,0,1-6.33-2.2,5.49,5.49,0,0,1,1.64-1.65l-.43-.28a6.17,6.17,0,0,1-4.36,2.91,6.32,6.32,0,0,1-7-5.76,6.62,6.62,0,0,1,5.35-7.52,6,6,0,0,1,1.26,0c.74-1.2,2.19-2.43,5-2.95a7.5,7.5,0,0,1-1.93,4.12,6.71,6.71,0,0,1,2.56,4.2,12.71,12.71,0,0,1,3.4-1.86A19.11,19.11,0,0,1,355.9,52a12.84,12.84,0,0,1,10.41,1.27c-.86-3.29-.74-7.44,1.55-12.52a15.18,15.18,0,0,1,5,4,13.72,13.72,0,0,1,1.31-4.07,6.34,6.34,0,0,1,2.55,3.63,22.75,22.75,0,0,1,3-4.94,15.76,15.76,0,0,1,4.35,6.13,16.56,16.56,0,0,1,8.26-6.34v-10a18.91,18.91,0,0,0-4.09,5.56,17.88,17.88,0,0,0-8-12.09c-2.67,6.51-2.47,11.88-1.13,16.08a15.32,15.32,0,0,0-13.48-4,28.75,28.75,0,0,0,1.92,5.4,16.16,16.16,0,0,0-9.26,1.28,19.1,19.1,0,0,0,2.67-15,22,22,0,0,0-6.93,4.1,20.61,20.61,0,0,0-.94-5c-.27.13-.53.27-.79.41-.44,3.1-2.2,10.1-9.07,11.45l-.14-.24c-3.76-1.25-5.71-6.83-4.37-11.5a17.65,17.65,0,0,0-3.38-2.76c-2.67,6.51-2.47,11.88-1.13,16.08a17.3,17.3,0,0,0-5.18-3.26,7.35,7.35,0,0,1-.76.34,22.39,22.39,0,0,1,2.95,1c-1.57,4.6-4.17,7.25-7,8.68a18.44,18.44,0,0,1,6.34,7.54,13.32,13.32,0,0,1-8.61,2c1.93,2.43,2.92,5.6,2.32,6.67,0,0-.14.08-.34.12-.78.2-2.76.36-4.66-2.29a21.48,21.48,0,0,1-1.26,8.2,14,14,0,0,1-8.77-9.14,17.83,17.83,0,0,1-6.52,9.2,15.91,15.91,0,0,1-3.07-9,16.62,16.62,0,0,1-6.42,4.84,7.23,7.23,0,0,1-4.39,4.23,21,21,0,0,1,2.95,1c-1.57,4.6-4.18,7.24-7,8.68a16.49,16.49,0,0,1,4.92,5.07,35.89,35.89,0,0,1,3-4.5A22.84,22.84,0,0,1,299,87.2c2.42-3.73,6.38-7.17,12.74-9.47a26.24,26.24,0,0,1,1.32,8,16.8,16.8,0,0,1,5.39-2.39,9.93,9.93,0,0,1-1.4,6.77,19,19,0,0,1,9.62-.11c-.86,3.27-3.54,5.41-6.49,6.61A31.27,31.27,0,0,1,324.48,98c-2.27,6.66-6,10.49-10.14,12.57,3.26,2.08,6.45,5.5,9.17,10.92a24.27,24.27,0,0,1-3.87,1.86c9.33,10.81,18.56,34,18.56,34s-1.09-9.13-2.67-19c-2.09-12.94-1.12-20.43-.56-23.18a7.66,7.66,0,0,1-1.81-1.66,8.35,8.35,0,0,1,.85-11.19,7,7,0,0,1,4.86-1.88A6,6,0,0,1,340,99.25a10.91,10.91,0,0,1,5.1-2.63,6.26,6.26,0,0,1-2.22,5.2,7.62,7.62,0,0,1,1.54,1.47A8.34,8.34,0,0,1,343.57,114.47ZM339.4,84.36a14.33,14.33,0,0,1-3-5,6.9,6.9,0,0,1-5.76,3.13s-.54-9,6.42-11.08l.12.18C341.4,72.56,343.5,80.35,339.4,84.36Zm9.3,44.08a7.9,7.9,0,0,1-1,4.55,6.55,6.55,0,0,1,3.62,3.87,6.94,6.94,0,0,1-3.59,8.78,6.18,6.18,0,0,1-8.17-3.86,7,7,0,0,1,3.59-8.78,6.4,6.4,0,0,1,1.23-.37C344.86,131.26,346,129.68,348.7,128.44Z"/><path class="cls-4" d="M392.37,135.28v-.78l-.61-.06C392,134.71,392.18,135,392.37,135.28Z"/><path class="cls-4" d="M392.37,141.28a5.09,5.09,0,0,1-3.29-2.34,21.71,21.71,0,0,1-1.27,8.2A14,14,0,0,1,379,138a17.9,17.9,0,0,1-6.51,9.2,15.93,15.93,0,0,1-3.08-9,16.15,16.15,0,0,1-5.95,4.63c-.86,1.13-1.78,2.4-2.74,3.77,4.53-.92,10.57,3.32,10.49,9.62a15.5,15.5,0,0,1-6.8-1.23,10,10,0,0,1-2.25,8.31s-5.33-4.69-5.11-11.08c-3.47,5.7-6.71,12.36-7.95,18.76a20.46,20.46,0,0,0,6.49-6.22,18.75,18.75,0,0,0,3.46,10.74,22.26,22.26,0,0,0,6.5-12.35,16.5,16.5,0,0,0,11.07,8.72c.57-6.2-.67-10.82-2.65-14.24a17,17,0,0,0,3.83-.2,14.37,14.37,0,0,0,4.76-.31,19,19,0,0,0-.52,13.48,21.24,21.24,0,0,0,8.5-7.34,18.51,18.51,0,0,0,1.79,7.88Z"/><path class="cls-4" d="M392.37,86.42l-.69,3.39a5.63,5.63,0,0,1,.69.14Z"/><path class="cls-5" d="M264.34,56.78s1.32,12.77,1.33,12.84C267,69,268,64.14,266.89,60.4A6.29,6.29,0,0,0,264.34,56.78Z"/><path class="cls-5" d="M265.67,69.62a2.25,2.25,0,0,1-.34-.12C265.51,69.6,265.64,69.64,265.67,69.62Z"/><path class="cls-6" d="M264.34,56.78A13.72,13.72,0,0,0,263,60.84a20.13,20.13,0,0,0-.31,3.44c0,3.72,1.83,4.89,2.61,5.22a2.25,2.25,0,0,0,.34.12C265.66,69.55,264.34,56.78,264.34,56.78Z"/><path class="cls-5" d="M291.47,64.33l-9.35,3.85c.73,1,3.92,1.08,6.74-.06a7.23,7.23,0,0,0,4.39-4.23c-.54.24-1.11.47-1.71.68A2.17,2.17,0,0,0,291.47,64.33Z"/><path class="cls-5" d="M282.12,68a12,12,0,0,0,4.58-4.39,6.84,6.84,0,0,0,1-4.67l-8.08,9.57a3.2,3.2,0,0,0,2.52-.5.28.28,0,0,0,0,.15Z"/><path class="cls-6" d="M291.47,64.33c-.11-.38-.22-.75-.3-1.12a15.28,15.28,0,0,0-4.47.42A12,12,0,0,1,282.12,68v.16Z"/><path class="cls-5" d="M279.59,68.53a1.8,1.8,0,0,1-.14-.35A.74.74,0,0,0,279.59,68.53Z"/><path class="cls-6" d="M287.67,59a11.66,11.66,0,0,0-3.73,1.65,17.17,17.17,0,0,0-2.57,2c-2.61,2.45-2.21,4.71-1.92,5.56a1.8,1.8,0,0,0,.14.35Z"/><path class="cls-5" d="M257,85.59c-.59-1.74-6.75-3.46-10.38-1.09A5.43,5.43,0,0,0,245,86.14Z"/><path class="cls-6" d="M257,85.75a.87.87,0,0,0,.05-.16l-12,.55a13.47,13.47,0,0,0,6.33,2.2A11.27,11.27,0,0,1,257,85.75Z"/><path class="cls-5" d="M259.5,86.12a3.2,3.2,0,0,0-2.53-.38q0-.12,0-.15a.87.87,0,0,1-.05.16,11.27,11.27,0,0,0-5.63,2.59,6.54,6.54,0,0,0-2.3,4.11Z"/><path class="cls-5" d="M259.5,86.12a2.55,2.55,0,0,1,0,.39C259.55,86.28,259.53,86.14,259.5,86.12Z"/><path class="cls-6" d="M259.54,86.51a2.55,2.55,0,0,0,0-.39L249,92.45a9.36,9.36,0,0,0,2.24,0,15.59,15.59,0,0,0,4.81-1.33C259.27,89.69,259.56,87.41,259.54,86.51Z"/><path class="cls-2" d="M357.59,83.47l1.85-1.31a8,8,0,0,0-1.4-1.07A3.84,3.84,0,0,1,357.59,83.47Z"/><path class="cls-2" d="M361.07,86.53c.18-.14.36-.26.55-.38a7.25,7.25,0,0,0-.26-.91,7.77,7.77,0,0,0-1.06-2.07l-2.4,1.67c-.46.11-.79-.33-.94-.62h0c-.85,0-2.24-1.86-2.95-4.07a6.77,6.77,0,0,0-2,.46,8,8,0,0,0-4.3,10,7.14,7.14,0,0,0,9.35,4.62,7.58,7.58,0,0,0,1.14-.57A8.13,8.13,0,0,1,361.07,86.53Z"/><path class="cls-7" d="M357.16,84a1,1,0,0,1-.2.19c.15.29.48.73.94.62l2.4-1.67,3.49-2.43.2,4.47.14,3.09a.91.91,0,0,0,1.11.06.87.87,0,0,1-.07-.28,3.41,3.41,0,0,1,.17-1.84l-.06-1.15L365,79.3a21.84,21.84,0,0,1-3,1.31c0-.07,0-.13-.05-.19l-2.48,1.74-1.85,1.31A3,3,0,0,1,357.16,84Z"/><path class="cls-8" d="M356.94,84.22s-2.51-9.68-2.51-9.68c-1.14,1.58-1,3.73-.44,5.61C354.7,82.36,356.09,84.19,356.94,84.22Z"/><path class="cls-8" d="M357.16,84a1.63,1.63,0,0,1-.22.19h0A1,1,0,0,0,357.16,84Z"/><path class="cls-6" d="M356.94,84.22a1.63,1.63,0,0,0,.22-.19,3,3,0,0,0,.43-.56,3.84,3.84,0,0,0,.45-2.38,6.82,6.82,0,0,0-.41-1.65,12,12,0,0,0-3.2-4.9S356.93,84.17,356.94,84.22Z"/><path class="cls-3" d="M365.28,85.09l.06,1.15a4,4,0,0,1,.65-1.11A5.63,5.63,0,0,0,365.28,85.09Z"/><path class="cls-3" d="M365.25,88.37h0a.91.91,0,0,1-1.11-.06L364,85.21a7,7,0,0,0-2.37.94c-.19.12-.37.24-.55.38a8.13,8.13,0,0,0-2.87,8.18,8,8,0,0,0,1.15,2.72,7,7,0,0,0,10.15,1.85,8.2,8.2,0,0,0,1.71-10.9,7.63,7.63,0,0,0-1.39-1.59C368.08,88.2,366,88.86,365.25,88.37Z"/><path class="cls-8" d="M365.17,88.08a.87.87,0,0,0,.07.28h0A1.94,1.94,0,0,1,365.17,88.08Z"/><path class="cls-6" d="M366,85.13a4,4,0,0,0-.65,1.11,3.41,3.41,0,0,0-.17,1.84,1.94,1.94,0,0,0,.08.29l6.8-6.15-.14-.26A11.35,11.35,0,0,0,367.19,84,6,6,0,0,0,366,85.13Z"/><path class="cls-2" d="M392.37,90a5.63,5.63,0,0,0-.69-.14l-.55,2.7a.81.81,0,0,1-1,.25h0c-.57.56-2.53.34-4.29-.6a7.56,7.56,0,0,0-1,1.65,7.27,7.27,0,0,0,3.18,9.36,5.9,5.9,0,0,0,1,.42,21.15,21.15,0,0,1,3.17-1.43c0,.11.07.23.11.34Z"/><path class="cls-2" d="M390.11,91.85l.42-2.09A6.13,6.13,0,0,0,389,90,3.19,3.19,0,0,1,390.11,91.85Z"/><path class="cls-7" d="M392.37,85a8,8,0,0,1-1.1,1.07l-.74,3.72-.42,2.09a2.32,2.32,0,0,1,.06.65.87.87,0,0,1,0,.26.81.81,0,0,0,1-.25l.55-2.7.69-3.39Z"/><path class="cls-8" d="M390.15,92.77l-7.33-4.49a5.31,5.31,0,0,0,3,3.89C387.62,93.11,389.58,93.33,390.15,92.77Z"/><path class="cls-8" d="M390.17,92.5a1.52,1.52,0,0,1,0,.27h0A.87.87,0,0,0,390.17,92.5Z"/><path class="cls-6" d="M390.15,92.77a1.52,1.52,0,0,0,0-.27,2.32,2.32,0,0,0-.06-.65A3.19,3.19,0,0,0,389,90a5.21,5.21,0,0,0-1.23-.77,9.46,9.46,0,0,0-4.95-1Z"/><path class="cls-3" d="M270.75,87.37a6.2,6.2,0,0,0,1.59-8.21,6,6,0,0,0-1-1.25c-1.36,1-3,1.45-3.51,1.06h0a.67.67,0,0,1-.84-.08V77.15l.9,0,0,.37a3.07,3.07,0,0,1,.57-1,5.17,5.17,0,0,0-3.77.92,6.21,6.21,0,0,0-1.59,8.22A5.3,5.3,0,0,0,270.75,87.37Z"/><path class="cls-7" d="M267.89,77.49l0-.37-.9,0v1.73a.67.67,0,0,0,.84.08.58.58,0,0,1,0-.21A2.48,2.48,0,0,1,267.89,77.49Z"/><path class="cls-8" d="M267.77,78.75a.58.58,0,0,0,0,.21h0A1.15,1.15,0,0,1,267.77,78.75Z"/><path class="cls-6" d="M267.77,78.75a1.15,1.15,0,0,0,.05.22l5.6-4.69a8,8,0,0,0-4,1.44,4.66,4.66,0,0,0-1,.81,3.07,3.07,0,0,0-.57,1A2.48,2.48,0,0,0,267.77,78.75Z"/><path class="cls-8" d="M285.47,36a19.1,19.1,0,0,0,4.5,9.24,14.51,14.51,0,0,0-6.6,5.1,23.36,23.36,0,0,0,2.7,2.08c3.63-2.37,9.78-.65,10.38,1.09a.57.57,0,0,1,0,.16A3.24,3.24,0,0,1,299,54a1,1,0,0,1,0,.39c0,.9-.27,3.18-3.46,4.62a16,16,0,0,1-4.81,1.32,17.81,17.81,0,0,0,.46,2.84c.08.37.19.74.3,1.12a2.17,2.17,0,0,1,.07.24c.6-.21,1.17-.44,1.71-.68a16.62,16.62,0,0,0,6.42-4.84,15.91,15.91,0,0,0,3.07,9,17.83,17.83,0,0,0,6.52-9.2A14,14,0,0,0,318,67.94a21.48,21.48,0,0,0,1.26-8.2q-.14-.18-.27-.39a16.14,16.14,0,0,1-2.67-7.14c2.22-.19,4.18,1.21,5.62,3a13.32,13.32,0,0,0,8.61-2,18.44,18.44,0,0,0-6.34-7.54c2.84-1.43,5.44-4.08,7-8.68a22.39,22.39,0,0,0-2.95-1c-2.82,1.15-6,1.05-6.74.07a.34.34,0,0,1,0-.16,3.24,3.24,0,0,1-2.51.51.76.76,0,0,1-.15-.36c-.29-.85-.69-3.11,1.92-5.56a17.21,17.21,0,0,1,2.58-2,18.25,18.25,0,0,0-.91-5.56,16.86,16.86,0,0,0-8.8,6.54,15.83,15.83,0,0,0-4.35-6.13,23,23,0,0,0-3,4.94c1.15,3.75.11,8.59-1.21,9.22,0,0-.16,0-.35-.11-.78-.34-2.62-1.51-2.61-5.23a21.19,21.19,0,0,1,.31-3.44,15.3,15.3,0,0,0-5-4c-2.29,5.08-2.41,9.23-1.55,12.52a12.31,12.31,0,0,0-2.06-1A13.39,13.39,0,0,0,285.47,36Z"/><path class="cls-5" d="M305.12,37.54a2.66,2.66,0,0,1-.35-.11C305,37.52,305.09,37.56,305.12,37.54Z"/><path class="cls-5" d="M305.12,37.54c1.32-.63,2.36-5.47,1.21-9.22a6.35,6.35,0,0,0-2.55-3.62S305.11,37.47,305.12,37.54Z"/><path class="cls-6" d="M304.77,37.43a2.66,2.66,0,0,0,.35.11c0-.07-1.34-12.84-1.34-12.84a13.72,13.72,0,0,0-1.31,4.06,21.19,21.19,0,0,0-.31,3.44C302.15,35.92,304,37.09,304.77,37.43Z"/><path class="cls-5" d="M324.29,61.91A2,2,0,0,1,324,62C324.15,62,324.28,61.94,324.29,61.91Z"/><path class="cls-5" d="M316.35,52.21l7.94,9.7c.6-1.07-.39-4.24-2.32-6.67C320.53,53.42,318.57,52,316.35,52.21Z"/><path class="cls-6" d="M316.35,52.21A16.14,16.14,0,0,0,319,59.35q.14.21.27.39c1.9,2.65,3.88,2.49,4.66,2.29a2,2,0,0,0,.34-.12Z"/><path class="cls-5" d="M321.56,36.11c.74,1,3.92,1.08,6.74-.07a7.35,7.35,0,0,0,.76-.34,6.75,6.75,0,0,0,3.73-4.22S321.63,36.07,321.56,36.11Z"/><path class="cls-6" d="M321.56,35.94v.17c.07,0,11.23-4.63,11.23-4.63a13.15,13.15,0,0,0-6.65.08A12,12,0,0,1,321.56,35.94Z"/><path class="cls-5" d="M319,36.46a2.72,2.72,0,0,1-.15-.36A.76.76,0,0,0,319,36.46Z"/><path class="cls-5" d="M319,36.46a3.24,3.24,0,0,0,2.51-.51.34.34,0,0,0,0,.16v-.17a12,12,0,0,0,4.58-4.38,6.82,6.82,0,0,0,1-4.68S319.08,36.4,319,36.46Z"/><path class="cls-6" d="M318.89,36.1a2.72,2.72,0,0,0,.15.36c0-.06,8.07-9.58,8.07-9.58a11.67,11.67,0,0,0-3.72,1.65,17.21,17.21,0,0,0-2.58,2C318.2,33,318.6,35.25,318.89,36.1Z"/><path class="cls-5" d="M296.45,53.51c-.6-1.74-6.75-3.46-10.38-1.09a5.49,5.49,0,0,0-1.64,1.65Z"/><path class="cls-6" d="M296.4,53.67l.05-.16-12,.56a13.4,13.4,0,0,0,6.33,2.19A11.3,11.3,0,0,1,296.4,53.67Z"/><path class="cls-5" d="M299,54a3.24,3.24,0,0,0-2.54-.37.57.57,0,0,0,0-.16l-.05.16a11.3,11.3,0,0,0-5.64,2.59,6.56,6.56,0,0,0-2.3,4.11Z"/><path class="cls-5" d="M299,54.43a1,1,0,0,0,0-.39S299,54.18,299,54.43Z"/><path class="cls-6" d="M295.52,59.05c3.19-1.44,3.48-3.72,3.46-4.62,0-.25,0-.39,0-.39l-10.49,6.33a9.47,9.47,0,0,0,2.25,0A16,16,0,0,0,295.52,59.05Z"/><path class="cls-8" d="M306.44,162.38l-.27-.4a16.1,16.1,0,0,1-2.67-7.14c2.21-.19,4.18,1.21,5.62,3l.21,0a13.5,13.5,0,0,0,8.4-2,18.48,18.48,0,0,0-6.34-7.55c2.83-1.43,5.44-4.08,7-8.68a22.27,22.27,0,0,0-2.95-.95c-2.82,1.14-6,1-6.74.06a.32.32,0,0,1,0-.16,3.86,3.86,0,0,1-2.3.58c0-.15.06-.3.1-.44a31,31,0,0,0,.66-4.7,8.83,8.83,0,0,1,.8-.85c.21-.2.42-.38.62-.56a12,12,0,0,1-1.8-2.21,23.41,23.41,0,0,1-3.87-10.34c3.21-.28,6,1.76,8.14,4.39a17.36,17.36,0,0,0,6.5-.42,19.87,19.87,0,0,0,2.09-.64,24.27,24.27,0,0,0,3.87-1.86c-2.72-5.42-5.91-8.84-9.17-10.92,4.1-2.08,7.87-5.91,10.14-12.57a31.27,31.27,0,0,0-4.26-1.38c-4.09,1.65-8.7,1.52-9.77.09a.68.68,0,0,1,0-.23c-1.54.8-2.9,1.1-3.64.73-.05,0-.14-.2-.21-.51-.42-1.22-1-4.5,2.77-8a24.69,24.69,0,0,1,3.74-2.91,26.24,26.24,0,0,0-1.32-8C305.42,80,301.46,83.47,299,87.2a22.84,22.84,0,0,0-6.29-8.87,35.89,35.89,0,0,0-3,4.5,16.49,16.49,0,0,0-4.92-5.07c2.83-1.44,5.44-4.08,7-8.68a21,21,0,0,0-2.95-1c-2.82,1.14-6,1-6.74.06a.28.28,0,0,1,0-.15,3.2,3.2,0,0,1-2.52.5.74.74,0,0,1-.14-.35c-.29-.85-.69-3.11,1.92-5.56a17.17,17.17,0,0,1,2.57-2,18.17,18.17,0,0,0-.9-5.56,16.8,16.8,0,0,0-8.8,6.54,15.94,15.94,0,0,0-4.35-6.13,22.36,22.36,0,0,0-3,4.94c1.15,3.74.11,8.59-1.22,9.22,0,0-.16,0-.34-.12-.78-.33-2.63-1.5-2.61-5.22a20.13,20.13,0,0,1,.31-3.44,14.7,14.7,0,0,0-2.82-2.66A17.57,17.57,0,0,0,258,56.83c-2.28,5.08-2.41,9.23-1.54,12.52A12.88,12.88,0,0,0,246,68.08a19.14,19.14,0,0,0,4.49,9.24,14.42,14.42,0,0,0-6.59,5.1,23.56,23.56,0,0,0,2.69,2.08c3.63-2.37,9.79-.65,10.38,1.09t0,.15a3.2,3.2,0,0,1,2.53.38s.05.16,0,.39c0,.9-.27,3.18-3.47,4.61a15.59,15.59,0,0,1-4.81,1.33,19.27,19.27,0,0,0,.84,4.2,17.36,17.36,0,0,0,8.13-5.52,14.67,14.67,0,0,0,.92,4.88,24.43,24.43,0,0,0-2.95.59c1.38,6.18,3.74,10.45,6.51,13.37a21,21,0,0,0-9.55,7.38,33.78,33.78,0,0,0,3.9,3c5.26-3.43,14.17-.94,15,1.58a.39.39,0,0,1,0,.22c1.69-.23,3.07-.06,3.67.54a1.1,1.1,0,0,1,.05.56c0,1.31-.38,4.61-5,6.69a22.4,22.4,0,0,1-7,1.91A27.78,27.78,0,0,0,267,138a25.13,25.13,0,0,0,11.77-8,21.66,21.66,0,0,0,2.08,8.88,13.32,13.32,0,0,0-8.22-.21,19.1,19.1,0,0,0,4.49,9.23,14.49,14.49,0,0,0-6.59,5.1,21.48,21.48,0,0,0,2.69,2.08c3.63-2.36,9.79-.64,10.38,1.1t0,.15a3.24,3.24,0,0,1,2.53.37.77.77,0,0,1,0,.39c0,.9-.27,3.19-3.47,4.62a15.53,15.53,0,0,1-4.81,1.32,18.67,18.67,0,0,0,.84,4.21,17.37,17.37,0,0,0,8.13-5.53,15.88,15.88,0,0,0,3.07,9,18,18,0,0,0,6.52-9.2,13.94,13.94,0,0,0,8.77,9.14,26.46,26.46,0,0,0,.78-2.8A19.78,19.78,0,0,0,306.44,162.38ZM263.1,85.67a6.21,6.21,0,0,1,1.59-8.22,5.17,5.17,0,0,1,3.77-.92,4.66,4.66,0,0,1,1-.81,8,8,0,0,1,4-1.44L267.82,79c.53.39,2.15,0,3.51-1.06a6,6,0,0,1,1,1.25,6.2,6.2,0,0,1-1.59,8.21A5.3,5.3,0,0,1,263.1,85.67Zm28.39,47.11a22.09,22.09,0,0,0,1.15-3.17,21.14,21.14,0,0,0,1.21,3c.47,3.37-.46,7-1.59,7.53a.71.71,0,0,1-.34-.12,4.45,4.45,0,0,1-2.49-3.65A24.88,24.88,0,0,0,291.49,132.78Zm-21.67-41.9a14,14,0,0,0,3,5.3,22.58,22.58,0,0,0,.46,2.26,17.42,17.42,0,0,0-6-2.33A16,16,0,0,0,269.82,90.88Zm13.4,21.18a7.89,7.89,0,0,1,6.38-9,7,7,0,0,1,5,1.25,5.7,5.7,0,0,1,1.58-.39,10.71,10.71,0,0,1,5.63.76l-9.31,2.18c.43.81,2.62,1.29,4.81.91a8.86,8.86,0,0,1,.56,2.14,7.87,7.87,0,0,1-6.38,8.94A7.53,7.53,0,0,1,283.22,112.06Zm3.42-13.23a1,1,0,0,1-.49-.17c-1.13-.48-3.81-2.18-3.78-7.57,0-6.84,2.34-10.86,2.34-10.86C291.21,84.32,289.32,97.54,286.64,98.83Z"/><path class="cls-5" d="M292.26,140.18a2.25,2.25,0,0,1-.34-.12A.71.71,0,0,0,292.26,140.18Z"/><path class="cls-5" d="M292.26,140.18c1.13-.54,2.06-4.16,1.59-7.53a21.14,21.14,0,0,1-1.21-3,22.09,22.09,0,0,1-1.15,3.17C291.85,136.26,292.26,140.14,292.26,140.18Z"/><path class="cls-6" d="M291.92,140.06a2.25,2.25,0,0,0,.34.12s-.41-3.92-.77-7.4a24.88,24.88,0,0,1-2.06,3.63A4.45,4.45,0,0,0,291.92,140.06Z"/><path class="cls-5" d="M311.44,164.54a2.47,2.47,0,0,1-.35.12C311.3,164.63,311.42,164.58,311.44,164.54Z"/><path class="cls-5" d="M303.5,154.84s7.89,9.65,7.94,9.7a2.19,2.19,0,0,0,.15-1.24,11.65,11.65,0,0,0-2.36-5.28l-.11-.15C307.68,156.05,305.71,154.65,303.5,154.84Z"/><path class="cls-6" d="M303.5,154.84a16.1,16.1,0,0,0,2.67,7.14l.27.4c1.89,2.65,3.87,2.48,4.65,2.28a2.47,2.47,0,0,0,.35-.12C311.39,164.49,303.5,154.84,303.5,154.84Z"/><path class="cls-5" d="M308.71,138.74c.73,1,3.92,1.08,6.74-.06a7.12,7.12,0,0,0,4.49-4.57Z"/><path class="cls-5" d="M308.71,138.57a11.92,11.92,0,0,0,4.45-4.17,5.18,5.18,0,0,1-2.63-.47c-1.64,1.95-3.35,4-4,4.79,0,.14-.07.29-.1.44a3.86,3.86,0,0,0,2.3-.58.32.32,0,0,0,0,.16A.74.74,0,0,1,308.71,138.57Z"/><path class="cls-6" d="M314.41,134.11a1,1,0,0,1-.5.16,3.36,3.36,0,0,0,.5-.16l-11.5-14.05a23.41,23.41,0,0,0,3.87,10.34,12,12,0,0,0,1.8,2.21c-.2.18-.41.36-.62.56a8.83,8.83,0,0,0-.8.85,31,31,0,0,1-.66,4.7c.68-.82,2.39-2.84,4-4.79a5.18,5.18,0,0,0,2.63.47,11.92,11.92,0,0,1-4.45,4.17.74.74,0,0,0,0,.17l11.23-4.63a12.42,12.42,0,0,0-5.46-.16A1.11,1.11,0,0,1,314.41,134.11Z"/><path class="cls-6" d="M314,129.79l.24-.28-.31.08C314,129.65,314,129.72,314,129.79Z"/><path class="cls-5" d="M283.59,156.15c-.59-1.74-6.75-3.46-10.38-1.1a5.35,5.35,0,0,0-1.63,1.65Z"/><path class="cls-6" d="M283.54,156.3a1,1,0,0,0,0-.15l-12,.55a13.46,13.46,0,0,0,6.32,2.2A11.32,11.32,0,0,1,283.54,156.3Z"/><path class="cls-5" d="M286.09,156.67a2.79,2.79,0,0,1,0,.39A.77.77,0,0,0,286.09,156.67Z"/><path class="cls-5" d="M286.09,156.67a3.24,3.24,0,0,0-2.53-.37q0-.12,0-.15a1,1,0,0,1,0,.15,11.32,11.32,0,0,0-5.64,2.6,6.6,6.6,0,0,0-2.3,4.1Z"/><path class="cls-6" d="M286.13,157.06a2.79,2.79,0,0,0,0-.39L275.6,163a9.47,9.47,0,0,0,2.25,0,15.53,15.53,0,0,0,4.81-1.32C285.86,160.25,286.15,158,286.13,157.06Z"/><path class="cls-5" d="M337.13,71.62l-.12-.18c-7,2.12-6.42,11.08-6.42,11.08a6.9,6.9,0,0,0,5.76-3.13,14.33,14.33,0,0,0,3,5C343.5,80.35,341.4,72.56,337.13,71.62Z"/><path class="cls-5" d="M343.12,37.14l.14.24c6.87-1.35,8.63-8.35,9.07-11.45a13,13,0,0,0,.14-1.47,8.45,8.45,0,0,0-7.5,3.13A18.23,18.23,0,0,0,341.74,21a9,9,0,0,0-3,4.61C337.41,30.31,339.36,35.89,343.12,37.14Z"/><path class="cls-5" d="M357.09,152.26c-.22,6.39,5.11,11.08,5.11,11.08a10,10,0,0,0,2.25-8.31,15.5,15.5,0,0,0,6.8,1.23c.08-6.3-6-10.54-10.49-9.62C359.56,148.36,358.31,150.25,357.09,152.26Z"/><path class="cls-7" d="M336.35,171.07a221.45,221.45,0,0,1,2.28,25.39h11c-.61-9.23-1.25-21.37-.64-24.88,0-.19.07-.37.11-.56,1.24-6.4,4.48-13.06,7.95-18.76,1.22-2,2.47-3.9,3.67-5.62,1-1.37,1.88-2.64,2.74-3.77-.68.32-1.4.62-2.17.9-.14-.44-.26-.88-.37-1.31l-15.31,19.35s-6.24-10.53-8.25-30c-1-9.39-.7-13.7-.32-15.66a6.81,6.81,0,0,1-2.11-.92c-.56,2.75-1.53,10.24.56,23.18,1.58,9.83,2.67,19,2.67,19s-9.23-23.16-18.56-34a19.87,19.87,0,0,1-2.09.64,98.42,98.42,0,0,1,16.24,34.2C334.85,162.42,335.69,166.77,336.35,171.07Z"/><path class="cls-2" d="M343.57,114.47a8.34,8.34,0,0,0,.85-11.18,7.62,7.62,0,0,0-1.54-1.47c-1.65,1.58-3.72,2.45-4.49,2h0c-.28.17-.77.39-1.13,0l-.27-2.3,1.19-.19.09.48a4.26,4.26,0,0,1,.61-1.37,7,7,0,0,0-4.86,1.88,8.35,8.35,0,0,0-.85,11.19,7.66,7.66,0,0,0,1.81,1.66,6.81,6.81,0,0,0,2.11.92A7,7,0,0,0,343.57,114.47Z"/><path class="cls-7" d="M338.26,101.86l-.09-.48-1.19.19.27,2.3c.36.35.85.13,1.13,0a.73.73,0,0,1-.09-.27A3.31,3.31,0,0,1,338.26,101.86Z"/><path class="cls-8" d="M338.39,103.84c.77.43,2.84-.44,4.49-2a6.26,6.26,0,0,0,2.22-5.2Z"/><path class="cls-8" d="M338.29,103.56a.73.73,0,0,0,.09.27h0A1.71,1.71,0,0,1,338.29,103.56Z"/><path class="cls-6" d="M338.26,101.86a3.31,3.31,0,0,0,0,1.7,1.71,1.71,0,0,0,.1.28l6.71-7.22a10.91,10.91,0,0,0-5.1,2.63,6,6,0,0,0-1.13,1.24A4.26,4.26,0,0,0,338.26,101.86Z"/><path class="cls-3" d="M347.75,145.64a6.94,6.94,0,0,0,3.59-8.78,6.55,6.55,0,0,0-3.62-3.87,5.13,5.13,0,0,1-3.39,2.67,5,5,0,0,1,.07-3,6.4,6.4,0,0,0-1.23.37,7,7,0,0,0-3.59,8.78A6.18,6.18,0,0,0,347.75,145.64Z"/><path class="cls-5" d="M344.33,135.66a5.13,5.13,0,0,0,3.39-2.67,7.9,7.9,0,0,0,1-4.55c-2.68,1.24-3.84,2.82-4.3,4.19A5,5,0,0,0,344.33,135.66Z"/><path class="cls-5" d="M286.64,98.83c2.68-1.29,4.57-14.51-1.93-18.6C284.71,80.23,286.63,98.72,286.64,98.83Z"/><path class="cls-5" d="M286.64,98.83a2.86,2.86,0,0,1-.49-.17A1,1,0,0,0,286.64,98.83Z"/><path class="cls-6" d="M284.71,80.23s-2.31,4-2.34,10.86c0,5.39,2.65,7.09,3.78,7.57a2.86,2.86,0,0,0,.49.17C286.63,98.72,284.71,80.23,284.71,80.23Z"/><path class="cls-5" d="M314.41,134.11a3.36,3.36,0,0,1-.5.16A1,1,0,0,0,314.41,134.11Z"/><path class="cls-5" d="M302.91,120.06l11.5,14.05a1.11,1.11,0,0,0,.07-.16,5.31,5.31,0,0,0-.14-3.12,5.86,5.86,0,0,0-.08-1.32l-.24.28c0-.07,0-.14-.07-.2a19.3,19.3,0,0,0-2.9-5.14C309,121.82,306.12,119.78,302.91,120.06Z"/><path class="cls-5" d="M310.45,96.75c1.07,1.43,5.68,1.56,9.77-.09,2.95-1.2,5.63-3.34,6.49-6.61Z"/><path class="cls-6" d="M310.46,96.51c0,.15,0,.24,0,.24l16.26-6.7a19,19,0,0,0-9.62.11A17.52,17.52,0,0,1,310.46,96.51Z"/><path class="cls-5" d="M306.8,97.25c.74.37,2.1.07,3.64-.73a.68.68,0,0,0,0,.23s0-.09,0-.24a17.52,17.52,0,0,0,6.63-6.35,9.93,9.93,0,0,0,1.4-6.77Z"/><path class="cls-5" d="M306.59,96.74c.07.31.16.49.21.51A3.3,3.3,0,0,1,306.59,96.74Z"/><path class="cls-6" d="M309.36,88.69c-3.77,3.55-3.19,6.83-2.77,8a3.3,3.3,0,0,0,.21.51l11.69-13.86a16.8,16.8,0,0,0-5.39,2.39A24.69,24.69,0,0,0,309.36,88.69Z"/><path class="cls-5" d="M274.09,122c-.86-2.52-9.77-5-15-1.58a7.77,7.77,0,0,0-2.36,2.38Z"/><path class="cls-6" d="M274,122.17c.05-.14.07-.22.07-.22l-17.39.8a19.46,19.46,0,0,0,9.16,3.18A16.46,16.46,0,0,1,274,122.17Z"/><path class="cls-5" d="M277.71,122.71c-.6-.6-2-.77-3.67-.54a.39.39,0,0,0,0-.22s0,.08-.07.22a16.46,16.46,0,0,0-8.16,3.76,9.46,9.46,0,0,0-3.33,5.94Z"/><path class="cls-5" d="M277.71,122.71a3.9,3.9,0,0,1,.05.56A1.1,1.1,0,0,0,277.71,122.71Z"/><path class="cls-6" d="M277.76,123.27a3.9,3.9,0,0,0-.05-.56l-15.18,9.16a13.15,13.15,0,0,0,3.25,0,22.4,22.4,0,0,0,7-1.91C277.38,127.88,277.79,124.58,277.76,123.27Z"/><path class="cls-3" d="M291.54,118.9a7.87,7.87,0,0,0,6.38-8.94,8.86,8.86,0,0,0-.56-2.14c-2.19.38-4.38-.1-4.81-.91v0a.93.93,0,0,1-1-.62l.93-2.09,1.11.53-.18.45a3.75,3.75,0,0,1,1.21-.8,7,7,0,0,0-5-1.25,7.89,7.89,0,0,0-6.38,9A7.53,7.53,0,0,0,291.54,118.9Z"/><path class="cls-7" d="M292.61,106.61a3.3,3.3,0,0,1,.83-1.45l.18-.45-1.11-.53-.93,2.09a.93.93,0,0,0,1,.62A.67.67,0,0,1,292.61,106.61Z"/><path class="cls-8" d="M292.61,106.61a.67.67,0,0,0-.06.28v0A1.8,1.8,0,0,1,292.61,106.61Z"/><path class="cls-6" d="M293.44,105.16a3.3,3.3,0,0,0-.83,1.45,1.8,1.8,0,0,0-.06.3l9.31-2.18a10.71,10.71,0,0,0-5.63-.76,5.7,5.7,0,0,0-1.58.39A3.75,3.75,0,0,0,293.44,105.16Z"/><path class="cls-8" d="M392.37,115.88a1.81,1.81,0,0,1-1-.58s0-.07,0-.16a3.15,3.15,0,0,1-2.51.51.82.82,0,0,1-.15-.35c-.28-.85-.68-3.11,1.92-5.56a16.81,16.81,0,0,1,1.78-1.47v-5.76c0-.11-.07-.23-.11-.34a21.15,21.15,0,0,0-3.17,1.43,15.45,15.45,0,0,0-5.63,5.11,15.9,15.9,0,0,0-4.34-6.13,22.43,22.43,0,0,0-3,4.94c1.15,3.74.11,8.59-1.21,9.22a.71.71,0,0,1-.34-.12c-.79-.33-2.63-1.5-2.61-5.23a19,19,0,0,1,.31-3.43,15.45,15.45,0,0,0-5.05-4c-2.29,5.08-2.41,9.23-1.55,12.52a12.84,12.84,0,0,0-10.41-1.27,19.15,19.15,0,0,0,4.5,9.24,14.37,14.37,0,0,0-6.59,5.1,23.56,23.56,0,0,0,2.69,2.08c3.63-2.37,9.79-.65,10.38,1.09t0,.15a3.21,3.21,0,0,1,2.53.38s0,.16,0,.38c0,.91-.26,3.19-3.46,4.62a15.59,15.59,0,0,1-4.81,1.33,17.36,17.36,0,0,0,.47,2.89c.11.43.23.87.37,1.31.77-.28,1.49-.58,2.17-.9a16.15,16.15,0,0,0,5.95-4.63,15.93,15.93,0,0,0,3.08,9A17.9,17.9,0,0,0,379,138a14,14,0,0,0,8.77,9.14,21.71,21.71,0,0,0,1.27-8.2l-.27-.4a16.21,16.21,0,0,1-2.68-7.14c2.22-.19,4.19,1.22,5.63,3l.61.06Z"/><path class="cls-5" d="M374.9,116.74c1.32-.63,2.36-5.48,1.21-9.22a6.24,6.24,0,0,0-2.55-3.62S374.89,116.66,374.9,116.74Z"/><path class="cls-5" d="M374.9,116.74a2.25,2.25,0,0,1-.34-.12A.71.71,0,0,0,374.9,116.74Z"/><path class="cls-6" d="M372,111.39c0,3.73,1.82,4.9,2.61,5.23a2.25,2.25,0,0,0,.34.12c0-.08-1.34-12.84-1.34-12.84a13.77,13.77,0,0,0-1.3,4.06A19,19,0,0,0,372,111.39Z"/><path class="cls-5" d="M392.37,135.28c-.19-.29-.4-.57-.61-.84-1.44-1.82-3.41-3.23-5.63-3l6.24,7.62Z"/><path class="cls-6" d="M392.37,139l-6.24-7.62a16.21,16.21,0,0,0,2.68,7.14l.27.4a5.09,5.09,0,0,0,3.29,2.34Z"/><path class="cls-5" d="M392.37,114.88l-1,.42a1.81,1.81,0,0,0,1,.58Z"/><path class="cls-6" d="M392.37,114.52a11.61,11.61,0,0,1-1,.62.67.67,0,0,0,0,.16l1-.42Z"/><path class="cls-5" d="M392.37,114.52v-3.08l-3.55,4.21a3.15,3.15,0,0,0,2.51-.51c0,.09,0,.15,0,.16a.67.67,0,0,1,0-.16A11.61,11.61,0,0,0,392.37,114.52Z"/><path class="cls-5" d="M388.82,115.65a2.19,2.19,0,0,1-.15-.35A.82.82,0,0,0,388.82,115.65Z"/><path class="cls-6" d="M392.37,108.27a16.81,16.81,0,0,0-1.78,1.47c-2.6,2.45-2.2,4.71-1.92,5.56a2.19,2.19,0,0,0,.15.35l3.55-4.21Z"/><path class="cls-5" d="M366.23,132.71c-.59-1.74-6.75-3.46-10.38-1.09a5.34,5.34,0,0,0-1.64,1.64Z"/><path class="cls-6" d="M366.18,132.86a.69.69,0,0,0,.05-.15l-12,.55a13.53,13.53,0,0,0,6.33,2.2A11.41,11.41,0,0,1,366.18,132.86Z"/><path class="cls-5" d="M368.73,133.24a3.21,3.21,0,0,0-2.53-.38q0-.12,0-.15a.69.69,0,0,1-.05.15,11.41,11.41,0,0,0-5.64,2.6,6.56,6.56,0,0,0-2.3,4.11Z"/><path class="cls-5" d="M368.76,133.62c0-.22,0-.36,0-.38A2,2,0,0,1,368.76,133.62Z"/><path class="cls-6" d="M365.3,138.24c3.2-1.43,3.48-3.71,3.46-4.62a2,2,0,0,0,0-.38l-10.49,6.33a9.47,9.47,0,0,0,2.25,0A15.59,15.59,0,0,0,365.3,138.24Z"/><path class="cls-2" d="M392.37,78a5.57,5.57,0,0,1-2.65-2.17,21.48,21.48,0,0,1-1.26,8.2,14,14,0,0,1-8.77-9.14,14.57,14.57,0,0,1-1.18,3,9.14,9.14,0,0,0,.8,5.29,7.76,7.76,0,0,0,10.82,3.71,7.86,7.86,0,0,0,1.14-.77,8,8,0,0,0,1.1-1.07Z"/><path class="cls-8" d="M392.37,71.23V52.46a1.22,1.22,0,0,1-.38-.32.32.32,0,0,1,0-.16,3.24,3.24,0,0,1-2.51.51s-.1-.14-.15-.35c-.29-.85-.69-3.12,1.92-5.57.38-.35.76-.68,1.13-1V39.21a16.56,16.56,0,0,0-8.26,6.34,15.76,15.76,0,0,0-4.35-6.13,22.75,22.75,0,0,0-3,4.94c1.15,3.74.11,8.58-1.21,9.22a.73.73,0,0,1-.35-.12c-.78-.33-2.62-1.51-2.61-5.23a19.91,19.91,0,0,1,.31-3.43,15.18,15.18,0,0,0-5-4c-2.29,5.08-2.41,9.23-1.55,12.52A12.84,12.84,0,0,0,355.9,52a19.11,19.11,0,0,0,4.5,9.23,12.71,12.71,0,0,0-3.4,1.86c0,.14.05.28.07.43a7,7,0,0,1-1,4.61l.43.28c3.63-2.36,9.78-.64,10.38,1.1a.54.54,0,0,1,0,.15,3.23,3.23,0,0,1,2.54.38.91.91,0,0,1,0,.38c0,.91-.27,3.19-3.46,4.62a15.67,15.67,0,0,1-4.81,1.32,18.46,18.46,0,0,0,.78,4c0,.06,0,.12.05.19a21.84,21.84,0,0,0,3-1.31,15.93,15.93,0,0,0,5.14-4.22A15.18,15.18,0,0,0,371.91,82l.14.26-6.8,6.15c.72.49,2.83-.17,4.57-1.58a6.53,6.53,0,0,0,2.55-4c.24.42.51.84.8,1.26a19.54,19.54,0,0,0,5.34-6.23,14.57,14.57,0,0,0,1.18-3A14,14,0,0,0,388.46,84a21.48,21.48,0,0,0,1.26-8.2l-.27-.4a16.1,16.1,0,0,1-2.67-7.14C389,68.05,390.93,69.43,392.37,71.23Z"/><path class="cls-5" d="M375.55,53.58c1.32-.64,2.36-5.48,1.21-9.22a6.34,6.34,0,0,0-2.55-3.63S375.54,53.5,375.55,53.58Z"/><path class="cls-5" d="M375.55,53.58a2.11,2.11,0,0,1-.35-.12A.73.73,0,0,0,375.55,53.58Z"/><path class="cls-6" d="M372.59,48.23c0,3.72,1.83,4.9,2.61,5.23a2.11,2.11,0,0,0,.35.12c0-.08-1.34-12.85-1.34-12.85a13.72,13.72,0,0,0-1.31,4.07A19.91,19.91,0,0,0,372.59,48.23Z"/><path class="cls-5" d="M392.37,71.23c-1.44-1.8-3.39-3.18-5.59-3,0,0,3.24,4,5.59,6.83Z"/><path class="cls-6" d="M392.37,75.07c-2.35-2.86-5.59-6.83-5.59-6.83a16.1,16.1,0,0,0,2.67,7.14l.27.4A5.57,5.57,0,0,0,392.37,78Z"/><path class="cls-5" d="M392.37,52l-.38.16a1.22,1.22,0,0,0,.38.32Z"/><path class="cls-5" d="M392.37,51.77V49.05c-1.57,1.85-2.89,3.42-2.9,3.44A3.24,3.24,0,0,0,392,52a.32.32,0,0,0,0,.16V52Z"/><path class="cls-5" d="M389.32,52.14c.05.21.11.34.15.35A2.9,2.9,0,0,1,389.32,52.14Z"/><path class="cls-6" d="M392.37,45.6c-.37.29-.75.62-1.13,1-2.61,2.45-2.21,4.72-1.92,5.57a2.9,2.9,0,0,0,.15.35s1.33-1.59,2.9-3.44Z"/><path class="cls-5" d="M366.88,69.55c-.6-1.74-6.75-3.46-10.38-1.1a5.49,5.49,0,0,0-1.64,1.65Z"/><path class="cls-6" d="M366.83,69.7l.05-.15-12,.55a13.47,13.47,0,0,0,6.33,2.2A11.32,11.32,0,0,1,366.83,69.7Z"/><path class="cls-5" d="M369.38,70.08a3.23,3.23,0,0,0-2.54-.38.54.54,0,0,0,0-.15l-.05.15a11.32,11.32,0,0,0-5.64,2.6,6.51,6.51,0,0,0-2.3,4.1Z"/><path class="cls-5" d="M369.38,70.08s0,.14,0,.38A.91.91,0,0,0,369.38,70.08Z"/><path class="cls-6" d="M366,75.08c3.19-1.43,3.48-3.71,3.46-4.62,0-.24,0-.38,0-.38L358.89,76.4a9.43,9.43,0,0,0,2.25,0A15.67,15.67,0,0,0,366,75.08Z"/><path class="cls-3" d="M357.07,63.56c0-.15,0-.29-.07-.43a6.71,6.71,0,0,0-2.56-4.2,4.9,4.9,0,0,1-3.83,1.72,4.87,4.87,0,0,1,.72-2.89,6,6,0,0,0-1.26,0,6.62,6.62,0,0,0-5.35,7.52,6.32,6.32,0,0,0,7,5.76,6.17,6.17,0,0,0,4.36-2.91A7,7,0,0,0,357.07,63.56Z"/><path class="cls-5" d="M350.61,60.65a4.9,4.9,0,0,0,3.83-1.72,7.5,7.5,0,0,0,1.93-4.12c-2.85.52-4.3,1.75-5,2.95A4.87,4.87,0,0,0,350.61,60.65Z"/><path class="cls-9" d="M230.67,49.18a14,14,0,0,0-12.3-.74c-5.13,1.89-7.57,5-8.57,8.35a47.89,47.89,0,0,1,10.83-5.32A47.4,47.4,0,0,1,230.67,49.18Z"/><path class="cls-10" d="M216.14,74.91a.57.57,0,0,1,.08-.13c-1.17-1-2-3.17-2.34-5.65,1.69-2.43,7.88-10.79,23.35-8.94a11.7,11.7,0,0,1,1.47,6.13,15,15,0,0,1-1.52.6c.19.71.35,1.46.49,2.23a2.22,2.22,0,0,1,.56.2,2.06,2.06,0,0,1,.65.48,1.77,1.77,0,0,1,.26.39.79.79,0,0,1,.06.5.77.77,0,0,0-.37.1l-.27.16a4,4,0,0,1-.47.29l-.12.06q.09.94.15,1.92l.09.08.11.11.09.12v.09h-.26c.08,1.66.07,3.38,0,5.08a4.56,4.56,0,0,1,.7.25A13.89,13.89,0,0,1,241,80.24c9.32-6,14.61-14.48,12.52-21.5-2.16-7.24-11.55-10.82-22.85-9.56a47.4,47.4,0,0,0-10,2.29,47.89,47.89,0,0,0-10.83,5.32c-9,6-14.05,14.26-12,21.15,2.16,7.24,11.54,10.82,22.85,9.56-.07-2.14-.16-4.09-.25-5.68C217.53,81,215.07,76.8,216.14,74.91Z"/><path class="cls-11" d="M233.93,98.6a.87.87,0,0,1,0,.11l-2.36,20a52,52,0,0,1,10.48-1.8l.38,0a55.59,55.59,0,0,0-6.35-20.56h0l-.36-.1.47,3.13Z"/><path class="cls-11" d="M249.23,116.94c-.07-7.06-.07-14.1.24-14.11a43.2,43.2,0,0,0-7.7-4.38c1.71,3.23,4.11,9.19,5.12,18.37Q248.08,116.85,249.23,116.94Z"/><path class="cls-11" d="M220.87,130.87l21.71-.49a55.32,55.32,0,0,0,.2-9.61l-.47,0c-7.89.58-14.69,2.72-20.21,6.37-.37.23-.72.48-1.07.73,0,.91-.06,1.84-.11,2.79C220.9,130.75,220.89,130.81,220.87,130.87Z"/><path class="cls-11" d="M247.25,130.65l.39,16.57q.83,0,1.65,0c.06-6,.11-11.9.14-17.34,0-1.78-.1-5.24-.15-9.1-.68-.06-1.36-.1-2.06-.12A91.26,91.26,0,0,1,247.25,130.65Z"/><path class="cls-11" d="M208.06,151.53a40.1,40.1,0,0,1,7.9-2.16l.11-17.1a35.8,35.8,0,0,0-4.7,6.37,41.57,41.57,0,0,0-4.71,12.8l.57.47C207.57,151.74,207.86,151.62,208.06,151.53Z"/><path class="cls-11" d="M231,118.92l-6-16.57-6.92-6.24.09-.43c-1.29.17-2.55.37-3.77.59,1.88,3,6.25,11.47,6.61,27.08A41,41,0,0,1,231,118.92Z"/><path class="cls-11" d="M205.47,129.05l-3.76,18.41,1.79,1.44a45,45,0,0,1,4.74-12.14,38,38,0,0,1,8.29-10.1c.26-6.29-.33-18.43-6.16-29.6-5.86,1.26-10,2.62-10,2.62C208.24,98,205.47,129.05,205.47,129.05Z"/><path class="cls-12" d="M231.52,95.41a4.59,4.59,0,0,1,2.41,3.19l2.29.79-.47-3.13-.88-5.81-4.28-.31A14.73,14.73,0,0,0,231.52,95.41Z"/><path class="cls-13" d="M233.93,98.6a4.59,4.59,0,0,0-2.41-3.19,5.52,5.52,0,0,0,.42.76c1.28,2-1.35,5.83-5.14,5.27l-.25,2.29L225,102.35l6,16.57.59-.17,2.36-20A.87.87,0,0,0,233.93,98.6Z"/><path class="cls-14" d="M226.8,101.44c3.79.56,6.42-3.3,5.14-5.27a5.52,5.52,0,0,1-.42-.76,14.73,14.73,0,0,1-.93-5.27c0-.25,0-.49,0-.72a18.85,18.85,0,0,1-4.6-1.83,9.17,9.17,0,0,1-4.32-4.39c-.19-.39-.38-.8-.58-1.25a4,4,0,0,1-.67-.13c.09,1.59.18,3.54.25,5.68,0,1.16.06,2.38.07,3.63l6.92,2.48Z"/><path class="cls-15" d="M225.64,196.45c-13.21-5.65-18.14-16.63-19.83-25.83-2.48-1.37-5-2.84-7.44-4.36l.47,30.19Z"/><path class="cls-15" d="M216.63,149.25a157.84,157.84,0,0,1,24.3-2,5.58,5.58,0,0,1,.56-4.6,11,11,0,0,1,2.94,4.52l0,.05c1.07,0,2.13,0,3.19,0l-.39-16.57a91.26,91.26,0,0,0,0-10c-1.44,0-2.92,0-4.44.08a55.32,55.32,0,0,1-.2,9.61l-21.71.49c0-.06,0-.12,0-.18.05-.95.08-1.88.11-2.79a33.24,33.24,0,0,0-5,4.37l-.11,17.1Z"/><path class="cls-16" d="M237,81.61c-.62-.4-1.13-.72-1.52-1A18.23,18.23,0,0,0,233.17,82a4.77,4.77,0,0,1-2.23.69l.49.07a9.29,9.29,0,0,0,1.66.09,11.86,11.86,0,0,0,1.66-.18c.56-.1,1.12-.25,1.74-.39A4.12,4.12,0,0,1,235,83.45a4.75,4.75,0,0,1-1.85.45,4.61,4.61,0,0,1-1.88-.34,4.35,4.35,0,0,1-1.34-.87,7.33,7.33,0,0,1-3.14-1c1.11.22,2.25-1.27,4.53-2.33a3.72,3.72,0,0,1,2.47-.27A22.07,22.07,0,0,1,233,72a.52.52,0,0,1,1-.06c.4,1.74,1.18,4.62,2,5.16s1.28.93,1.39,1.49a4.2,4.2,0,0,1,.66.12c.06-1.7.07-3.42,0-5.08h-.32a1,1,0,0,1-.23,1.08.6.6,0,0,1-1-.22,1.15,1.15,0,0,1-.11-.61,2.32,2.32,0,0,0-.51.29,2.21,2.21,0,0,0-.32.29,1.76,1.76,0,0,0-.25.34l-.08,0a.93.93,0,0,1,0-.33,1.05,1.05,0,0,1,0-.31,1.5,1.5,0,0,1,.26-.54,1.77,1.77,0,0,1,.89-.65l.26-.07.26,0h.13l.12,0,.26.05a1.82,1.82,0,0,1,.47.22l.12.1q-.06-1-.15-1.92a2.72,2.72,0,0,1-.82.23,2.63,2.63,0,0,1-1-.08,3,3,0,0,1-.57-.2l-.32-.15c-.11,0-.23-.12-.38-.18a1.12,1.12,0,0,1,.13-.45,1.88,1.88,0,0,1,.21-.37,2.58,2.58,0,0,1,.51-.53,2.49,2.49,0,0,1,2-.45c-.14-.77-.3-1.52-.49-2.23-6.66,2.23-14.26.12-16.22-.5.16.84,1.18,6.73-2.06,8.67-1-.74-2.1-1.13-2.68-.31a.57.57,0,0,0-.08.13c-1.07,1.89,1.39,6.07,4.27,6.91a4,4,0,0,0,.67.13c.2.45.39.86.58,1.25A9.17,9.17,0,0,0,226,87.59a18.85,18.85,0,0,0,4.6,1.83,18,18,0,0,0,5.2.22,1.61,1.61,0,0,0,1.41-1.41c.29-1.87.56-4,.75-6.18A3.92,3.92,0,0,1,237,81.61Zm-5.05-6.41a.93.93,0,0,1,.13.15v.1h-.75a1,1,0,0,1-.32,1.14.86.86,0,0,1-1.24-.23,1,1,0,0,1-.15-.63A3.76,3.76,0,0,0,229,76l-.22.14a2.28,2.28,0,0,0-.57.55l-.09,0a.75.75,0,0,1,0-.21c0-.06,0-.13,0-.2a2.24,2.24,0,0,1,.1-.37,2.55,2.55,0,0,1,.17-.33l.11-.15a.81.81,0,0,1,.12-.14,2.28,2.28,0,0,1,1.14-.67,2.37,2.37,0,0,1,1.24,0,2.64,2.64,0,0,1,.57.26,1.44,1.44,0,0,1,.27.22Zm-6.61-1.63a2.44,2.44,0,0,1,.15-.59,2.72,2.72,0,0,1,.65-1,3.88,3.88,0,0,1,1.84-1,4.51,4.51,0,0,1,1-.11,3.7,3.7,0,0,1,1,.12,3.32,3.32,0,0,1,1,.4,2.21,2.21,0,0,1,.77.78l-.92.32-.79.29-.77.24c-.25.07-.51.14-.76.19-.5.12-1,.2-1.45.3a5.82,5.82,0,0,0-.73.17,2.37,2.37,0,0,0-.82.42A1.53,1.53,0,0,1,225.31,73.57Zm-5.84,5.31a1.59,1.59,0,0,1-.33.08l-.47,0a.76.76,0,0,1,.15-.56.87.87,0,0,1,.4-.31.64.64,0,0,1,.23,0l-.22-.21a12.11,12.11,0,0,0-1-.82l-.28-.18-.28-.18a1.14,1.14,0,0,0-.62-.22.62.62,0,0,1,.35-.15,1.21,1.21,0,0,1,.38,0c.12,0,.23,0,.35.06l.35.11a4,4,0,0,1,1.26.77,4.16,4.16,0,0,1,.93,1.19,3.56,3.56,0,0,1,.42,1.47c-.31-.39-.59-.76-.89-1.1l-.2-.22-.19.12A1.46,1.46,0,0,1,219.47,78.88ZM234,87.13h-1.27l0-2.06h1.8Z"/><path class="cls-17" d="M218.9,75.09c3.24-1.94,2.22-7.83,2.06-8.67,2,.62,9.56,2.73,16.22.5a15,15,0,0,0,1.52-.6,11.7,11.7,0,0,0-1.47-6.13c-15.47-1.85-21.66,6.51-23.35,8.94.3,2.48,1.17,4.63,2.34,5.65C216.8,74,217.86,74.35,218.9,75.09Z"/><path class="cls-17" d="M226.21,73.75a5.82,5.82,0,0,1,.73-.17c.48-.1.95-.18,1.45-.3.25,0,.51-.12.76-.19l.77-.24.79-.29.92-.32a2.21,2.21,0,0,0-.77-.78,3.32,3.32,0,0,0-1-.4,3.7,3.7,0,0,0-1-.12,4.51,4.51,0,0,0-1,.11,3.88,3.88,0,0,0-1.84,1,2.72,2.72,0,0,0-.65,1,2.44,2.44,0,0,0-.15.59,1.53,1.53,0,0,0,.08.6A2.37,2.37,0,0,1,226.21,73.75Z"/><path class="cls-17" d="M236.91,69.12a2.42,2.42,0,0,0-1.21.48,2.58,2.58,0,0,0-.51.53,1.88,1.88,0,0,0-.21.37,1.12,1.12,0,0,0-.13.45c.15.06.27.13.38.18l.32.15a3,3,0,0,0,.57.2,2.63,2.63,0,0,0,1,.08,2.72,2.72,0,0,0,.82-.23l.12-.06a4,4,0,0,0,.47-.29l.27-.16a.77.77,0,0,1,.37-.1.79.79,0,0,0-.06-.5,1.77,1.77,0,0,0-.26-.39,2.06,2.06,0,0,0-.65-.48,2.22,2.22,0,0,0-.56-.2A2.44,2.44,0,0,0,236.91,69.12Z"/><path class="cls-18" d="M230.45,75.52a4.59,4.59,0,0,0-.51.1l-.36.11a1,1,0,0,0,.15.63.86.86,0,0,0,1.24.23,1,1,0,0,0,.32-1.14H231Z"/><path class="cls-19" d="M220,78.6l.2.22c.3.34.58.71.89,1.1a3.56,3.56,0,0,0-.42-1.47,4.16,4.16,0,0,0-.93-1.19,4,4,0,0,0-1.26-.77l-.35-.11c-.12,0-.23,0-.35-.06a1.21,1.21,0,0,0-.38,0,.62.62,0,0,0-.35.15,1.14,1.14,0,0,1,.62.22l.28.18.28.18a12.11,12.11,0,0,1,1,.82l.22.21a.64.64,0,0,0-.23,0,.87.87,0,0,0-.4.31.76.76,0,0,0-.15.56l.47,0a1.59,1.59,0,0,0,.33-.08,1.46,1.46,0,0,0,.3-.16Z"/><path class="cls-13" d="M233.12,83.9a4.75,4.75,0,0,0,1.85-.45,4.12,4.12,0,0,0,1.52-1.17c-.62.14-1.18.29-1.74.39a11.86,11.86,0,0,1-1.66.18,9.29,9.29,0,0,1-1.66-.09l-.49-.07a9,9,0,0,1-1,0,4.35,4.35,0,0,0,1.34.87A4.61,4.61,0,0,0,233.12,83.9Z"/><path class="cls-17" d="M231,74.6a2.37,2.37,0,0,0-1.24,0,2.28,2.28,0,0,0-1.14.67.81.81,0,0,0-.12.14l-.11.15a2.55,2.55,0,0,0-.17.33,2.24,2.24,0,0,0-.1.37c0,.07,0,.14,0,.2a.75.75,0,0,0,0,.21l.09,0a2.28,2.28,0,0,1,.57-.55L229,76a3.76,3.76,0,0,1,.62-.27l.36-.11a4.59,4.59,0,0,1,.51-.1l.53-.06H232v-.1a.93.93,0,0,0-.13-.15l-.13-.12a1.44,1.44,0,0,0-.27-.22A2.64,2.64,0,0,0,231,74.6Z"/><path class="cls-18" d="M237.36,73.68h-.11l-.1,0-.2.05-.2.06-.23.08a1.15,1.15,0,0,0,.11.61.6.6,0,0,0,1,.22,1,1,0,0,0,.23-1.08h-.26Z"/><path class="cls-17" d="M237.53,72.93l-.26-.05-.12,0H237l-.26,0-.26.07a1.77,1.77,0,0,0-.89.65,1.5,1.5,0,0,0-.26.54,1.05,1.05,0,0,0,0,.31.93.93,0,0,0,0,.33l.08,0a1.76,1.76,0,0,1,.25-.34,2.21,2.21,0,0,1,.32-.29,2.32,2.32,0,0,1,.51-.29l.23-.08.2-.06.2-.05.1,0h.11l.2,0h.84v-.09l-.09-.12-.11-.11-.09-.08-.12-.1A1.82,1.82,0,0,0,237.53,72.93Z"/><path class="cls-16" d="M299.27,65.85,301,60.91c.72-2.11-.83-2.71-.83-2.71s-5.69,11.56-5.81,14.12l2.36-2.75A8,8,0,0,1,299.27,65.85Z"/><path class="cls-16" d="M303.89,64.27,305.08,62c1-2-.44-2.8-.44-2.8s-1.86,2.71-3.75,5.71a7.21,7.21,0,0,1,1.84-.53A7.65,7.65,0,0,1,303.89,64.27Z"/><path class="cls-16" d="M308.26,63.66c1.23-1.82-.12-2.84-.12-2.84s-1.37,1.56-3.06,3.58a7.06,7.06,0,0,1,2.13.81Z"/><path class="cls-16" d="M297.91,77.19c.67,1.92.95,4.55-1.66,6l-1.18-3.49-2.14,8.52,6.64,3.64,1.4-7.55a10.76,10.76,0,0,0,1.75-4.17A7.34,7.34,0,0,1,297.91,77.19Z"/><path class="cls-12" d="M289.5,86.32l-12.6,34.14s-26.82-17.65-27.43-17.63c-.31,0-.31,7-.24,14.11a35.83,35.83,0,0,1,15.17,4.4,34.64,34.64,0,0,1,12.53,12.39,46.62,46.62,0,0,1,4.16,8.88l3.73,1.35L302.05,93.2l-2.48-1.36-6.64-3.64Z"/><path class="cls-12" d="M249.46,131.18l27.1,9.8a39.79,39.79,0,0,0-2.7-5.26,31.12,31.12,0,0,0-11.2-11,32.54,32.54,0,0,0-13.38-3.9c.05,3.86.11,7.32.15,9.1C249.45,130.72,249.46,131.18,249.46,131.18Z"/><path class="cls-20" d="M268,153.12a3.81,3.81,0,0,1,.24.32,6.83,6.83,0,0,1,2.3-2.05l-.54-.09A6.87,6.87,0,0,1,268,153.12Z"/><path class="cls-20" d="M280.07,153.85l-.28-.12c-.33-.14-.69-.28-1.09-.41a7.35,7.35,0,0,1,1.39,3.51c1.94-.87,2.07-1.48,2.07-1.48a.34.34,0,0,0-.05-.11l0-.05h0l0-.05h0s0,0-.05,0h0l-.05-.06-.06-.06,0,0,0,0,0,0s-.05,0-.08-.06h0l-.11-.09,0,0-.09-.07h0a1.78,1.78,0,0,1-1.1-.62l-.15-.07Z"/><path class="cls-20" d="M255.24,153.28a7,7,0,0,1,1.28,1.46l.23.36a6.6,6.6,0,0,1,7-4.45,6.79,6.79,0,0,1,1.31.33l.36-.3c-2.5-.29-5.16-.53-7.95-.71A6.29,6.29,0,0,1,255.24,153.28Z"/><path class="cls-20" d="M251.72,151.75a5.53,5.53,0,0,1,1.1-1,12.62,12.62,0,0,1,1.54-.93c-1.12,0-2.26-.1-3.41-.13l.11,2.05A4.87,4.87,0,0,1,251.72,151.75Z"/><path class="cls-20" d="M248.28,149.59l-1.39,1a7.12,7.12,0,0,1,1,1.9l0,.11a6.31,6.31,0,0,1,2-.75l-.1-2.19Z"/><path class="cls-20" d="M213.36,152.34a31.26,31.26,0,0,0-4.07,1.22l2.3,1.86A7.22,7.22,0,0,1,213.36,152.34Z"/><path class="cls-20" d="M246.2,149.57H246l.07.07Z"/><path class="cls-20" d="M231.85,154.19a7.35,7.35,0,0,1,1.27,1.17,6.2,6.2,0,0,1,1.81-1,7.42,7.42,0,0,1,2.12-4.71l-3.13.13A5.91,5.91,0,0,1,231.85,154.19Z"/><path class="cls-20" d="M229.21,151.83a11.71,11.71,0,0,1,3.12-1.93c-4.19.24-8.12.61-11.64,1.1a7,7,0,0,1,3.28,3.48,6.43,6.43,0,0,1,4.21-1.51A5.82,5.82,0,0,1,229.21,151.83Z"/><path class="cls-9" d="M249.78,149.63l0-1-1.46,1Z"/><path class="cls-9" d="M281.8,154.58a1.78,1.78,0,0,1-.4,0h0l.09.07,0,0,.11.09h0s.05.05.08.06l0,0,0,0,0,0,.06.06h0l.05.06h0s0,0,.05,0h0l0,.05h0l0,.05a.34.34,0,0,1,.05.11s-.13.61-2.07,1.48l-.3.13a40.55,40.55,0,0,1-8.12,2.15c-1.42.25-2.93.49-4.53.69-3.14.42-6.58.74-10.23,1-3.88.24-8,.37-12.21.37h-1.1c-3,0-5.93-.08-8.76-.2-4.87-.22-9.44-.61-13.5-1.15-1.52-.2-3-.43-4.35-.67l-1.06-.2,3.76,3a177.56,177.56,0,0,0,24.64,1.56A165,165,0,0,0,272,161.44a41.63,41.63,0,0,0,8.56-2.28,9.12,9.12,0,0,0,2.73-1.65,3,3,0,0,0,1-2.16,2.12,2.12,0,0,0,0-.44,3.09,3.09,0,0,0-1-1.71A1.85,1.85,0,0,1,281.8,154.58Z"/><path class="cls-9" d="M250.82,147.29l.13,2.37c1.15,0,2.29.08,3.41.13a8.62,8.62,0,0,1,3.26-1,4.26,4.26,0,0,1-.11,1.19c2.79.18,5.45.42,7.95.71,1.09-.87,2.84-1.51,5.59-1.22A9.9,9.9,0,0,1,270,151.3l.54.09a6.1,6.1,0,0,1,3.36-.75,6.45,6.45,0,0,1,4.81,2.68c.4.13.76.27,1.09.41l.28.12.08,0,.15.07a2,2,0,0,1-.46-1.11s-.07-.65-.25-1.71a46.32,46.32,0,0,0-7.55-1.89A148.94,148.94,0,0,0,250.82,147.29Z"/><path class="cls-9" d="M218.32,150.37a6.5,6.5,0,0,1,2.37.63c3.52-.49,7.45-.86,11.64-1.1a7,7,0,0,1,1.56-.47,2.34,2.34,0,0,1,0,.38l3.13-.13a6.62,6.62,0,0,1,2.22-1.47,6.06,6.06,0,0,1,1.83-.42c-.06-.19-.12-.38-.17-.57a157.84,157.84,0,0,0-24.3,2l-.67.12a40.1,40.1,0,0,0-7.9,2.16c-.2.09-.49.21-.83.38l2.06,1.65a31.26,31.26,0,0,1,4.07-1.22A6.39,6.39,0,0,1,218.32,150.37Z"/><path class="cls-9" d="M246,149.57h.17l3.29-2.32h-.2q-.82,0-1.65,0c-1.06,0-2.12,0-3.19,0a5.43,5.43,0,0,1,.36,1.46A7.1,7.1,0,0,1,246,149.57Z"/><path class="cls-15" d="M216.53,126.66a38.44,38.44,0,0,1,3.59-2.72l.91-.59c-.36-15.61-4.73-24.13-6.61-27.08a12.4,12.4,0,0,0-.84-1.22l-3.8.92.59,1.09C216.2,108.23,216.79,120.37,216.53,126.66Z"/><path class="cls-15" d="M242.44,116.93c1.52-.1,3-.14,4.45-.11-1-9.18-3.41-15.14-5.12-18.37a19,19,0,0,0-1.88-3l-3.78.91h0A55.59,55.59,0,0,1,242.44,116.93Z"/><path class="cls-3" d="M305.69,68.13v0a.93.93,0,0,1-1-.62l.92-2.1,1.11.54-.17.45a3.75,3.75,0,0,1,1.21-.8l-.58-.37a7.06,7.06,0,0,0-2.13-.81,6.67,6.67,0,0,0-1.19-.13,7.65,7.65,0,0,0-1.16.06,7.13,7.13,0,0,0-3.46,1.52,8,8,0,0,0-2.55,3.72l1.2-1.39,5.41-.78s-.94,3.13-3.29,3.3a14.6,14.6,0,0,0-3.26,4.15,11.81,11.81,0,0,1,1.13,2.34,7.34,7.34,0,0,0,4.81,2.93,6.77,6.77,0,0,0,2,0c4.06-.57,6.91-4.58,6.38-8.94A8.86,8.86,0,0,0,310.5,69C308.31,69.42,306.12,68.94,305.69,68.13Z"/><path class="cls-7" d="M305.75,67.83a3.11,3.11,0,0,1,.83-1.45l.17-.45-1.11-.54-.92,2.1a.93.93,0,0,0,1,.62A1.06,1.06,0,0,1,305.75,67.83Z"/><path class="cls-8" d="M315,66l-9.31,2.18c.43.81,2.62,1.29,4.81.91A5.63,5.63,0,0,0,315,66Z"/><path class="cls-8" d="M305.75,67.83a1.06,1.06,0,0,0-.07.28v0A1.8,1.8,0,0,1,305.75,67.83Z"/><path class="cls-6" d="M305.75,67.83a1.8,1.8,0,0,0-.06.3L315,66a10.71,10.71,0,0,0-5.63-.76,5.7,5.7,0,0,0-1.58.39,3.75,3.75,0,0,0-1.21.8A3.11,3.11,0,0,0,305.75,67.83Z"/><path class="cls-14" d="M297.91,77.19a11.81,11.81,0,0,0-1.13-2.34A14.6,14.6,0,0,1,300,70.7c2.35-.17,3.29-3.3,3.29-3.3l-5.41.78-1.2,1.39-2.36,2.75-1.28,1.48,2,5.88,1.18,3.49C298.86,81.74,298.58,79.11,297.91,77.19Z"/><path class="cls-2" d="M247.19,153a6.22,6.22,0,0,1,.71-.47l0-.11a7.12,7.12,0,0,0-1-1.9l-2.2,1.53c-.43.11-.73-.3-.87-.56h0c-.78,0-2.06-1.71-2.7-3.74a6.06,6.06,0,0,0-1.83.42,6.62,6.62,0,0,0-2.22,1.47,7.42,7.42,0,0,0-2.12,4.71,6.18,6.18,0,0,1,2.4-.33,6.94,6.94,0,0,1,6.27,7.07h1.1A7.5,7.5,0,0,1,247.19,153Z"/><path class="cls-2" d="M246,149.57a7.1,7.1,0,0,0-1.22-.92,3.47,3.47,0,0,1-.41,2.18l1.7-1.19Z"/><path class="cls-7" d="M246.2,149.57l-.1.07-1.7,1.19a2.24,2.24,0,0,1-.4.52,1,1,0,0,1-.18.18c.14.26.44.67.87.56l2.2-1.53,1.39-1,1.46-1,0,1,.1,2.19.13,2.84a.82.82,0,0,0,1,.06.62.62,0,0,1-.06-.25,3,3,0,0,1,.15-1.7l-.06-1.06-.11-2.05-.13-2.37-.24-4.23-1.09.07.18,4-.18.13Z"/><path class="cls-8" d="M243.8,151.53c0-.05-2.31-8.91-2.31-8.91a5.58,5.58,0,0,0-.56,4.6c0,.19.11.38.17.57C241.74,149.82,243,151.5,243.8,151.53Z"/><path class="cls-8" d="M244,151.35a1.24,1.24,0,0,1-.2.18h0A1,1,0,0,0,244,151.35Z"/><path class="cls-6" d="M243.8,151.53a1.24,1.24,0,0,0,.2-.18,2.24,2.24,0,0,0,.4-.52,3.47,3.47,0,0,0,.41-2.18,5.43,5.43,0,0,0-.36-1.46l0-.05a11,11,0,0,0-2.94-4.52S243.79,151.48,243.8,151.53Z"/><path class="cls-3" d="M251.06,151.71l.06,1.06a3.56,3.56,0,0,1,.6-1A4.87,4.87,0,0,0,251.06,151.71Z"/><path class="cls-3" d="M256.34,156.79a7.2,7.2,0,0,1,.41-1.69l-.23-.36a7,7,0,0,0-1.28-1.46c-1.6,1.29-3.54,1.9-4.2,1.45h0a.82.82,0,0,1-1-.06l-.13-2.84a6.31,6.31,0,0,0-2,.75,6.22,6.22,0,0,0-.71.47,7.5,7.5,0,0,0-2.49,8.09c4.22,0,8.33-.13,12.21-.37A7.54,7.54,0,0,1,256.34,156.79Z"/><path class="cls-8" d="M251,154.73c.66.45,2.6-.16,4.2-1.45a6.29,6.29,0,0,0,2.27-3.31,4.26,4.26,0,0,0,.11-1.19Z"/><path class="cls-8" d="M251,154.47a.62.62,0,0,0,.06.25h0A1.23,1.23,0,0,1,251,154.47Z"/><path class="cls-6" d="M251.72,151.75a3.56,3.56,0,0,0-.6,1,3,3,0,0,0-.15,1.7,1.23,1.23,0,0,0,.07.26l6.58-5.95a8.62,8.62,0,0,0-3.26,1,12.62,12.62,0,0,0-1.54.93A5.53,5.53,0,0,0,251.72,151.75Z"/><path class="cls-2" d="M266.88,157.36a7.41,7.41,0,0,1,1.35-3.92,3.81,3.81,0,0,0-.24-.32,5.08,5.08,0,0,1-4.38.62A5,5,0,0,1,265.1,151a6.79,6.79,0,0,0-1.31-.33,6.6,6.6,0,0,0-7,4.45,7.2,7.2,0,0,0-.41,1.69,7.54,7.54,0,0,0,.57,4c3.65-.22,7.09-.54,10.23-1A7.56,7.56,0,0,1,266.88,157.36Z"/><path class="cls-5" d="M263.61,153.74a5.08,5.08,0,0,0,4.38-.62,6.87,6.87,0,0,0,2-1.82,9.9,9.9,0,0,0,1.06-1.84c-2.75-.29-4.5.35-5.59,1.22l-.36.3A5,5,0,0,0,263.61,153.74Z"/><path class="cls-3" d="M223.72,154.7l.25-.22a7,7,0,0,0-3.28-3.48,6.5,6.5,0,0,0-2.37-.63,6.39,6.39,0,0,0-5,2,7.22,7.22,0,0,0-1.77,3.08l4.34,3.49,1.06.2c1.37.24,2.83.47,4.35.67A7.48,7.48,0,0,1,223.72,154.7Z"/><path class="cls-3" d="M273.89,150.64a6.1,6.1,0,0,0-3.36.75,6.83,6.83,0,0,0-2.3,2.05,7.41,7.41,0,0,0-1.35,3.92,7.56,7.56,0,0,0,.26,2.44c1.6-.2,3.11-.44,4.53-.69a40.55,40.55,0,0,0,8.12-2.15l.3-.13a7.35,7.35,0,0,0-1.39-3.51A6.45,6.45,0,0,0,273.89,150.64Z"/><path class="cls-3" d="M237.33,154.06a6.33,6.33,0,0,0-4.21,1.3l.14.18a7.62,7.62,0,0,1,1.58,5.39c2.83.12,5.77.19,8.76.2A6.94,6.94,0,0,0,237.33,154.06Z"/><path class="cls-2" d="M233.26,155.54l-.14-.18a7.35,7.35,0,0,0-1.27-1.17c-1.51,1.45-3.41,2.25-4.12,1.86v0a.82.82,0,0,1-1,0l-.25-2.1,1.1-.19.08.45a3.79,3.79,0,0,1,.56-1.26,6.43,6.43,0,0,0-4.21,1.51l-.25.22a7.48,7.48,0,0,0-2.38,5.08c4.06.54,8.63.93,13.5,1.15A7.62,7.62,0,0,0,233.26,155.54Z"/><path class="cls-7" d="M227.62,154.23l-.08-.45-1.1.19.25,2.1a.82.82,0,0,0,1,0,.87.87,0,0,1-.08-.25A3.1,3.1,0,0,1,227.62,154.23Z"/><path class="cls-8" d="M233.92,149.81a2.34,2.34,0,0,0,0-.38l-6.16,6.62c.71.39,2.61-.41,4.12-1.86A5.91,5.91,0,0,0,233.92,149.81Z"/><path class="cls-8" d="M227.64,155.78a.87.87,0,0,0,.08.25v0S227.69,156,227.64,155.78Z"/><path class="cls-6" d="M233.89,149.43a7,7,0,0,0-1.56.47,11.71,11.71,0,0,0-3.12,1.93,5.82,5.82,0,0,0-1,1.14,3.79,3.79,0,0,0-.56,1.26,3.1,3.1,0,0,0,0,1.55c.05.17.09.27.09.27Z"/><path class="cls-10" d="M205.81,170.62c1.69,9.2,6.62,20.18,19.83,25.83h43.3c8.36-4.77,15-15.41,14.39-38.94a9.12,9.12,0,0,1-2.73,1.65,41.63,41.63,0,0,1-8.56,2.28,165,165,0,0,1-27.71,2.06,177.56,177.56,0,0,1-24.64-1.56l4.31,3.47.26-.78,7.22,4.16-.62,2.45,4.7,1.72c.39-.75,1.53-1.83,4.82-1.49a11.48,11.48,0,0,0,8-2.08s1.3,2.56-.42,3.52c-.73.42-1.76,1-2.7,1.47l2.82.41s5.72-2.15,7.7-2.87a1.74,1.74,0,0,1,2.49,1s-5.41,2.89-9.44,4.62l7.35-.84a1.79,1.79,0,0,1,2.22,1.53s-5.52,1.41-9.76,2.14l7.32.14a1.83,1.83,0,0,1,2,1.82s-5.09.6-9.28.8l1.48.13a1.22,1.22,0,0,1,1.26,1.29s-8.73.42-9.62-.35c-.52-.44-2.19-1.75-3.52-2.79L229,178.67l-.67,2.63-9-1.47.65-2C217.28,176.58,211.73,173.9,205.81,170.62Z"/><path class="cls-14" d="M238.32,181.36c1.33,1,3,2.35,3.52,2.79.89.77,9.62.35,9.62.35a1.22,1.22,0,0,0-1.26-1.29l-1.48-.13c4.19-.2,9.28-.8,9.28-.8a1.83,1.83,0,0,0-2-1.82l-7.32-.14c4.24-.73,9.76-2.14,9.76-2.14a1.79,1.79,0,0,0-2.22-1.53l-7.35.84c4-1.73,9.44-4.62,9.44-4.62a1.74,1.74,0,0,0-2.49-1c-2,.72-7.7,2.87-7.7,2.87l-2.82-.41c.94-.5,2-1,2.7-1.47,1.72-1,.42-3.52.42-3.52a11.48,11.48,0,0,1-8,2.08c-3.29-.34-4.43.74-4.82,1.49l-4.7-1.72L229,178.67Z"/><path class="cls-10" d="M264.4,121.34a35.83,35.83,0,0,0-15.17-4.4q-1.15-.09-2.34-.12c-1.45,0-2.93,0-4.45.11l-.38,0a52,52,0,0,0-10.48,1.8l-.59.17a41,41,0,0,0-10,4.43l-.91.59a38.44,38.44,0,0,0-3.59,2.72,38,38,0,0,0-8.29,10.1,45,45,0,0,0-4.74,12.14l3.16,2.54a41.57,41.57,0,0,1,4.71-12.8,35.8,35.8,0,0,1,4.7-6.37,33.24,33.24,0,0,1,5-4.37c.35-.25.7-.5,1.07-.73,5.52-3.65,12.32-5.79,20.21-6.37l.47,0c1.52-.1,3-.12,4.44-.08.7,0,1.38.06,2.06.12a32.54,32.54,0,0,1,13.38,3.9,31.12,31.12,0,0,1,11.2,11,39.79,39.79,0,0,1,2.7,5.26,47,47,0,0,1,3,10.16c.18,1.06.25,1.69.25,1.71a2,2,0,0,0,.46,1.11h0a1.65,1.65,0,0,0,1.5.62,1.85,1.85,0,0,0,1.55-1.38,2.21,2.21,0,0,0,.06-.73,45.14,45.14,0,0,0-2.32-9.86,46.62,46.62,0,0,0-4.16-8.88A34.64,34.64,0,0,0,264.4,121.34Z"/><path class="cls-12" d="M205.81,170.62c5.92,3.28,11.47,6,14.15,7.22l4-12.43-4.31-3.47-3.76-3-4.34-3.49-2.3-1.86-2.06-1.65-.57-.47-3.16-2.54-1.79-1.44,3.76-18.41s2.77-31-5.08-29.37-19.24,46.2-15,55.32c1.56,3.36,6.87,7.44,13,11.26C200.79,167.78,203.33,169.25,205.81,170.62Z"/><path class="cls-17" d="M238.15,78.73a4.2,4.2,0,0,0-.66-.12,1.81,1.81,0,0,1-.3,1.25c-.73,1.28-2.53.85-3.2-.21a2.15,2.15,0,0,1-.23-.55,3.72,3.72,0,0,0-2.47.27c-2.28,1.06-3.42,2.55-4.53,2.33a7.33,7.33,0,0,0,3.14,1,9,9,0,0,0,1,0,4.77,4.77,0,0,0,2.23-.69,18.23,18.23,0,0,1,2.28-1.34c.39.23.9.55,1.52,1a3.92,3.92,0,0,0,1,.44,6.87,6.87,0,0,0,5.44-.75c-.69.14-1.39-.39-2.38-1.06A13.89,13.89,0,0,0,238.85,79,4.56,4.56,0,0,0,238.15,78.73Z"/><path class="cls-14" d="M236.1,77.12c-.86-.54-1.64-3.42-2-5.16a.52.52,0,0,0-1,.06,22.07,22.07,0,0,0,.73,7.08,2.15,2.15,0,0,0,.23.55c.67,1.06,2.47,1.49,3.2.21a1.81,1.81,0,0,0,.3-1.25C237.38,78.05,236.87,77.6,236.1,77.12Z"/><polygon class="cls-17" points="232.72 87.13 233.99 87.13 234.56 85.07 232.76 85.07 232.72 87.13"/><polygon class="cls-12" points="225.02 102.35 226.55 103.73 226.8 101.44 227.65 93.61 220.73 91.13 219.21 90.58 218.19 95.68 218.1 96.11 225.02 102.35"/><polygon class="cls-11" points="219.96 177.84 219.31 179.83 228.3 181.3 228.97 178.67 230.86 171.24 231.48 168.79 224.26 164.63 224 165.41 219.96 177.84"/></g></g></svg>