<svg xmlns="http://www.w3.org/2000/svg" viewBox="0 0 392.45 196.85"><defs><style>.cls-1{fill:#ff822e;}.cls-2{fill:#ff7031;}.cls-3{fill:#e2de4b;}.cls-4{fill:#bcbc1d;}.cls-5{fill:#ffe02c;}.cls-6{fill:#66515e;}.cls-7{fill:#ffce00;}.cls-8{fill:#d6ce43;}.cls-9{fill:#ffa300;}.cls-10{fill:#ffc994;}.cls-11{fill:#fa0;}.cls-12{fill:#fff;}.cls-13{fill:#ffde76;}.cls-14{fill:#fff46c;}.cls-15{fill:#acaf37;}.cls-16{fill:#725454;}.cls-17{fill:#4b3d51;}.cls-18{fill:#ffd6ca;}.cls-19{fill:#eebbb0;}.cls-20{fill:#fad2c6;}.cls-21{fill:#ffc0c0;}.cls-22{fill:#ebb6a5;}.cls-23{fill:#ffa6a6;}</style></defs><title>Asset 3</title><g id="Layer_2" data-name="Layer 2"><g id="Layer_1-2" data-name="Layer 1"><rect class="cls-1" width="392.45" height="196.16"/><path class="cls-2" d="M392.45,125.68c-5.39,5.24-21.46,13.33-24.23,14.76A191.38,191.38,0,0,1,340.62,152a509.68,509.68,0,0,1-126,25C173,179.83,130,180.88,88.87,172c-26.4-5.69-55.26-19.83-60-51.53-2.79-18.77,4.2-39.07,22-45.62,18.2-6.7,40.46-2.39,56.66-14.74,14.84-11.31,21.14-33.43,8.66-49.38A69.07,69.07,0,0,0,105.13,0H0V196.16H392.45Z"/><path class="cls-2" d="M286.74,90.47a11.83,11.83,0,0,0-3.91-6.77c.47-2.35.36-4-.44-4.48s-2.28.38-4,2.21a9.27,9.27,0,0,0-1.66-.27,10.7,10.7,0,0,0,4-5c3.29-7.22,2.8-12.75,2.8-12.75-4.59.35-8,4.56-9.9,8.92a24.23,24.23,0,0,0-2.89-7.95,10.91,10.91,0,0,0-4,6.63A14.92,14.92,0,0,0,258.56,70a7.84,7.84,0,0,0-2.14-1.81,15,15,0,0,0-7.56-2.36,8.29,8.29,0,0,0,3.77,6.32,8,8,0,0,0-2.51,2.66,16.21,16.21,0,0,0-1,2.16c-4.13-2.59-7.71-3.5-9.08-2.06a30.23,30.23,0,0,0-2.26-3.56,23.49,23.49,0,0,0-4.38-4.47,16,16,0,0,0-2.46-5,12.82,12.82,0,0,0-4.51-3.72c-4.73-2.38-11.22-2.48-15.25,1.51A10.54,10.54,0,0,0,210,61.11,20.93,20.93,0,0,0,196.77,69c0-.37-.1-.75-.18-1.15-1.49-7.88-5-11.94-5-11.94-3.44,3.28-3.75,8.84-2.78,13.54A21.55,21.55,0,0,0,182,65c-1.8,5.77,2.13,12,6.06,15.45a35.77,35.77,0,0,0-7.13,3.94c-.56.38-1.09.78-1.61,1.17.41-6-3.36-11.07-9-11.65a11.2,11.2,0,0,0-7.1,1.76l-.25-.11a4.46,4.46,0,0,0-4.39.92L156.76,75l-1.26,1.59,1.75,1.65c-.06.12-.11.24-.16.36a4.79,4.79,0,0,0,.41,4.49,13.59,13.59,0,0,0-.47,1.8,13.36,13.36,0,0,0-.19,3.54,14,14,0,0,0-1.55.24c-7.36,1.53-11.17,5.28-11.17,5.28,3,3.72,8.21,4.1,12.6,3.1a23.72,23.72,0,0,0-4.18,7.27c5.26,1.94,11-2,14.27-6.13a10.92,10.92,0,0,0,4.46-.94l.12.22s3,7.21,9.12,9.54c-1,4.77.43,9.54,4.79,11.55,5.22,2.4,17.11.62,19.34-5a10.28,10.28,0,0,0,.67-4.75,28.36,28.36,0,0,0,5.72,2.33,23.56,23.56,0,0,0-1,12.07c.32,3.23,7.68,5,16.43,4a32.09,32.09,0,0,0,12-3.52A4.22,4.22,0,0,0,244,125c3,2.39,7.49,3.23,12.93-.29,1.76-1,.93-6.33-1.85-11.84s-6.47-9.14-8.23-8.12a13.7,13.7,0,0,0-6.64,5.87,16.45,16.45,0,0,0-2.83-4.93,21.26,21.26,0,0,0,2.92-3.52c.37-.56.71-1.14,1-1.72,5.51,3.81,14,4.7,21.07-5.29.59-.77.59-2,.09-3.46a21.89,21.89,0,0,0,2.58-.29,12.44,12.44,0,0,0,.15,4.07,12,12,0,0,0,3,5.91c-.53,2.48-.44,4.22.39,4.72s2.14-.3,3.72-2a10.29,10.29,0,0,0,6,.4C284.23,103.14,288,96.85,286.74,90.47Z"/><path class="cls-3" d="M162.38,92.75l-9.84,7.18c5.26,1.94,11-2,14.27-6.12-.34,0-.67,0-1,0A9.65,9.65,0,0,1,162.38,92.75Z"/><path class="cls-4" d="M160.42,91.42a18.9,18.9,0,0,1-3.7,1.24,23.85,23.85,0,0,0-4.18,7.27l9.84-7.18A9.4,9.4,0,0,1,160.42,91.42Z"/><path class="cls-3" d="M160.42,91.42a10.16,10.16,0,0,1-2.34-3l-14,1.15c3,3.72,8.21,4.1,12.6,3.09A18.9,18.9,0,0,0,160.42,91.42Z"/><path class="cls-4" d="M156.84,84.05a13.87,13.87,0,0,0-1.55.23c-7.36,1.54-11.17,5.29-11.17,5.29l14-1.15A11.89,11.89,0,0,1,156.84,84.05Z"/><path class="cls-5" d="M179.3,81.2c.41-6-3.36-11.07-9-11.65a11.19,11.19,0,0,0-7.1,1.75l-.25-.1a4.46,4.46,0,0,0-4.39.92,5.17,5.17,0,0,0-1.34,1.74c-.06.12-.11.24-.16.36a4.8,4.8,0,0,0,.41,4.49,13.42,13.42,0,0,0-.66,5.34,11.89,11.89,0,0,0,1.24,4.37,10.16,10.16,0,0,0,2.34,3,9.4,9.4,0,0,0,2,1.33,9.65,9.65,0,0,0,3.42,1c.34,0,.67,0,1,0a11.09,11.09,0,0,0,4.46-.94C170.22,90.48,173.66,85.54,179.3,81.2Z"/><path class="cls-6" d="M158.59,72.12l-1.83-1.51-1.26,1.6,1.75,1.65A5.17,5.17,0,0,1,158.59,72.12Z"/><path class="cls-3" d="M270.37,69.62c.23-5,.44-9.58.44-9.58a10.91,10.91,0,0,0-4,6.63,7.33,7.33,0,0,1,.91.51A11.23,11.23,0,0,1,270.37,69.62Z"/><path class="cls-4" d="M272.22,72.73A22.33,22.33,0,0,1,273.7,68,24.23,24.23,0,0,0,270.81,60s-.21,4.59-.44,9.58A13.32,13.32,0,0,1,272.22,72.73Z"/><path class="cls-3" d="M272.22,72.73a14,14,0,0,1,1,3.69L283.6,59.07c-4.59.35-8,4.56-9.9,8.92A22.33,22.33,0,0,0,272.22,72.73Z"/><path class="cls-4" d="M273.22,76.42c0,.24,0,.47.06.71l.38-.1a10.54,10.54,0,0,1,3.1-.24,10.61,10.61,0,0,0,4-5c3.29-7.23,2.8-12.75,2.8-12.75Z"/><path class="cls-7" d="M273.28,77.13c0-.24,0-.47-.06-.71a14,14,0,0,0-1-3.69,13.32,13.32,0,0,0-1.85-3.11,11.23,11.23,0,0,0-2.67-2.44,7.33,7.33,0,0,0-.91-.51,14.83,14.83,0,0,0-8.23-1.06,5.1,5.1,0,0,1,.79,1.33l0-.67,1.68,0,.11,3.21a1.25,1.25,0,0,1-1.55.22s0,0,0,0c-1,.81-4.3,0-7-2a8.05,8.05,0,0,0-2.51,2.66,16.34,16.34,0,0,0-1,2.17,39.52,39.52,0,0,1,5.25,4c4.13,3.7,7.1,7.75,8.1,10.72a21.89,21.89,0,0,0,2.58-.28A11.56,11.56,0,0,1,273.28,77.13Z"/><path class="cls-6" d="M259.68,69.28a1.08,1.08,0,0,1-.07.4,1.25,1.25,0,0,0,1.55-.22l-.11-3.21-1.68,0,0,.67A4.65,4.65,0,0,1,259.68,69.28Z"/><path class="cls-3" d="M259.6,69.7l-10.74-8.27a8.25,8.25,0,0,0,3.77,6.32C255.3,69.71,258.58,70.51,259.6,69.7Z"/><path class="cls-3" d="M259.6,69.7s0,0,0,0a1.08,1.08,0,0,0,.07-.4A4.19,4.19,0,0,1,259.6,69.7Z"/><path class="cls-4" d="M259.6,69.7a4.19,4.19,0,0,0,.08-.42,4.65,4.65,0,0,0-.33-2.34,5.1,5.1,0,0,0-.79-1.33,7.86,7.86,0,0,0-2.14-1.82,15,15,0,0,0-7.56-2.36Z"/><path class="cls-8" d="M286.74,86.1a11.9,11.9,0,0,0-3.91-6.77c.47-2.35.36-4-.44-4.47s-2.28.37-4,2.2a11.49,11.49,0,0,0-1.66-.27,10.54,10.54,0,0,0-3.1.24l-.38.1A11.56,11.56,0,0,0,265.05,87a12.44,12.44,0,0,0,.15,4.07,12,12,0,0,0,3,5.91c-.53,2.47-.44,4.22.39,4.71s2.14-.3,3.72-2a10.2,10.2,0,0,0,6,.4C284.23,98.77,288,92.49,286.74,86.1Z"/><path class="cls-3" d="M182,60.64c-1.8,5.77,2.13,12,6.06,15.45a19.31,19.31,0,0,1,3.27-1Z"/><path class="cls-4" d="M192.35,74.91c.11-.59.24-1.17.38-1.75-1.49-1-3.14-4.25-3.94-8.1A21.33,21.33,0,0,0,182,60.64l9.33,14.44C191.68,75,192,75,192.35,74.91Z"/><path class="cls-3" d="M192.73,73.16c.13-.52.28-1,.44-1.53-.42-5.24-1.6-20.12-1.6-20.12-3.44,3.28-3.75,8.84-2.78,13.55C189.59,68.91,191.24,72.18,192.73,73.16Z"/><path class="cls-4" d="M193.17,71.63a22.79,22.79,0,0,1,3.6-7c0-.37-.1-.76-.18-1.16-1.49-7.88-5-11.94-5-11.94S192.75,66.39,193.17,71.63Z"/><path class="cls-9" d="M247.94,84.83a40.08,40.08,0,0,1-4.51-4.7A24.63,24.63,0,0,1,241.31,96c5.51,3.82,14,4.7,21.07-5.29C260.61,93,254.14,90.38,247.94,84.83Z"/><path class="cls-10" d="M254.37,76.56a39.52,39.52,0,0,0-5.25-4C245,70,241.41,69.07,240,70.52c.47.84.89,1.72,1.28,2.61a1.78,1.78,0,0,1,.34-.86c.72-.92,2.37-.86,4.66.15a29.44,29.44,0,0,1,7.28,5c4.61,4.13,8.43,9.62,6.83,11.68a1.93,1.93,0,0,1-1.61.64,7.93,7.93,0,0,1-3-.8,29.26,29.26,0,0,1-7.28-5,33,33,0,0,1-5.67-6.48q.36,1.32.6,2.67a40.08,40.08,0,0,0,4.51,4.7c6.2,5.55,12.67,8.2,14.44,5.91.59-.76.59-2,.09-3.46C261.47,84.31,258.5,80.26,254.37,76.56Z"/><path class="cls-11" d="M247,73.25c.79,1.13,1.54,2.28,2.28,3.44.5.8,1,1.59,1.49,2.4a7.24,7.24,0,0,1,.75.54l.58-.68c.38-.42.78-.84,1.21-1.24A31,31,0,0,0,247,73.25Z"/><path class="cls-11" d="M260.34,88c-1.58-1.14-3.13-2.33-4.66-3.54-.8-.62-1.59-1.26-2.38-1.89l-.64-.52-.16,0c.53.9,1.05,1.81,1.56,2.72.69,1.25,1.37,2.5,2,3.78,2,.87,3.46,1,4,.24A1.38,1.38,0,0,0,260.34,88Z"/><path class="cls-11" d="M253.35,77.77c-.28.52-.6,1-.92,1.5-.17.25-.34.49-.52.73.14.14.27.27.39.41.8.3,1.59.61,2.39.93,1.09.44,2.18.9,3.26,1.4A33.41,33.41,0,0,0,253.35,77.77Z"/><path class="cls-11" d="M254.54,81.8l-1.62-.54a1.24,1.24,0,0,1,.15.38l.57.47c.77.66,1.55,1.3,2.32,2,1.48,1.27,3,2.56,4.39,3.89,0-1.13-.74-3-2.31-5.12C256.86,82.54,255.7,82.18,254.54,81.8Z"/><path class="cls-11" d="M246.92,79c-1.19-.48-2.37-1-3.54-1.53a31.77,31.77,0,0,0,5.37,6.07,15,15,0,0,1,.92-1.5c.3-.45.61-.88.94-1.31-.17-.16-.32-.32-.46-.48C249.07,79.87,248,79.45,246.92,79Z"/><path class="cls-11" d="M241.87,72.8c1.59,1.15,3.15,2.35,4.7,3.56l2.37,1.89.61.5a.47.47,0,0,1,.32,0l-1-1.76c-.69-1.23-1.37-2.48-2-3.75a7.79,7.79,0,0,0-.72-.34,7.42,7.42,0,0,0-2.88-.77,1.54,1.54,0,0,0-1.27.48A1.26,1.26,0,0,0,241.87,72.8Z"/><path class="cls-11" d="M256,88.48c-.79-1.14-1.55-2.3-2.3-3.47s-1.45-2.34-2.16-3.52a4.67,4.67,0,0,1-.46-.35c-.34.42-.68.83-1,1.23s-.79.85-1.21,1.24a29.07,29.07,0,0,0,7.13,4.86Z"/><path class="cls-11" d="M247.07,78.56l2.27.77-.74-.62c-.77-.65-1.55-1.3-2.32-2-1.49-1.28-3-2.58-4.42-3.92-.37.88.16,2.56,1.49,4.63C244.6,77.78,245.84,78.16,247.07,78.56Z"/><path class="cls-12" d="M242.83,77.46a33,33,0,0,0,5.67,6.48,29.26,29.26,0,0,0,7.28,5,7.93,7.93,0,0,0,3,.8,1.93,1.93,0,0,0,1.61-.64c1.6-2.06-2.22-7.55-6.83-11.68a29.44,29.44,0,0,0-7.28-5c-2.29-1-3.94-1.07-4.66-.15a1.78,1.78,0,0,0-.34.86A32.61,32.61,0,0,1,242.83,77.46Zm.44-5.37a7.42,7.42,0,0,1,2.88.77,7.79,7.79,0,0,1,.72.34c.64,1.27,1.32,2.52,2,3.75l1,1.76a.47.47,0,0,0-.32,0l-.61-.5-2.37-1.89c-1.55-1.21-3.11-2.41-4.7-3.56a1.26,1.26,0,0,1,.13-.23A1.54,1.54,0,0,1,243.27,72.09Zm12.81,16.43c-.65-1.28-1.33-2.53-2-3.78-.51-.91-1-1.82-1.56-2.72l.16,0,.64.52c.79.63,1.58,1.27,2.38,1.89,1.53,1.21,3.08,2.4,4.66,3.54a1.38,1.38,0,0,1-.25.76C259.54,89.47,258.08,89.39,256.08,88.52Zm-5.47-7.77c-.33.43-.64.86-.94,1.31a15,15,0,0,0-.92,1.5,31.77,31.77,0,0,1-5.37-6.07c1.17.55,2.35,1.05,3.54,1.53s2.15.85,3.23,1.25C250.29,80.43,250.44,80.59,250.61,80.75ZM250,82.37c.35-.4.69-.81,1-1.23a4.67,4.67,0,0,0,.46.35c.71,1.18,1.43,2.36,2.16,3.52s1.51,2.33,2.3,3.47h0a29.07,29.07,0,0,1-7.13-4.86C249.23,83.22,249.63,82.8,250,82.37ZM260.35,88c-1.44-1.33-2.91-2.62-4.39-3.89-.77-.67-1.55-1.31-2.32-2l-.57-.47a1.24,1.24,0,0,0-.15-.38l1.62.54c1.16.38,2.32.74,3.5,1C259.61,85,260.4,86.84,260.35,88Zm-5.66-6.63c-.8-.32-1.59-.63-2.39-.93-.12-.14-.25-.27-.39-.41.18-.24.35-.48.52-.73.32-.49.64-1,.92-1.5a33.41,33.41,0,0,1,4.6,5C256.87,82.24,255.78,81.78,254.69,81.34ZM252.08,79l-.58.68a7.24,7.24,0,0,0-.75-.54c-.49-.81-1-1.6-1.49-2.4-.74-1.16-1.49-2.31-2.28-3.44a31,31,0,0,1,6.31,4.46C252.86,78.11,252.46,78.53,252.08,79Zm-10.22-6.13c1.45,1.34,2.93,2.64,4.42,3.92.77.67,1.55,1.32,2.32,2l.74.62-2.27-.77c-1.23-.4-2.47-.78-3.72-1.11C242,75.38,241.49,73.7,241.86,72.82Z"/><path class="cls-13" d="M243.43,80.13q-.24-1.35-.6-2.67a32.61,32.61,0,0,0-1.51-4.33c-.39-.89-.81-1.77-1.28-2.61A29.43,29.43,0,0,0,237.78,67a23.2,23.2,0,0,0-4.38-4.47,16.2,16.2,0,0,0-2.46-5,12.69,12.69,0,0,0-4.51-3.71c-4.73-2.38-11.22-2.48-15.25,1.5A10.54,10.54,0,0,0,210,56.74a21.64,21.64,0,0,0-11.4,5.83,19.31,19.31,0,0,0-1.8,2,22.79,22.79,0,0,0-3.6,7c-.16.5-.31,1-.44,1.53s-.27,1.16-.38,1.75c1.72-.18,3,.15,3.55,1.07,4.77,7.12,4.59,13.39,2.35,18.06l.11,0a12.85,12.85,0,0,1,6.95,10.35,27.79,27.79,0,0,0,5.72,2.33,16.07,16.07,0,0,1,14.5-10.14c5.74-.2,9.44,1.84,11.84,4.64a20.47,20.47,0,0,0,2.92-3.52,19.93,19.93,0,0,0,1-1.72A24.63,24.63,0,0,0,243.43,80.13Z"/><path class="cls-9" d="M183.5,96.83a8.92,8.92,0,0,1-4-3.94c-4,1.62-7.13,1.82-8.11.2,0,0,3,7.2,9.12,9.53a15.92,15.92,0,0,1,.84-2.79A8.24,8.24,0,0,1,183.5,96.83Z"/><path class="cls-9" d="M186.38,89.05a38.75,38.75,0,0,1-3.48,2.18,18,18,0,0,1,3.85,1.13,7.86,7.86,0,0,1,2.36,1.49,14.11,14.11,0,0,1,9.14.19c2.24-4.67,2.42-10.94-2.35-18.06C197.41,78.48,193.15,84.33,186.38,89.05Z"/><path class="cls-10" d="M179.5,92.89a5.57,5.57,0,0,1-.38-1.06q-.59.23-1.14.39a9.4,9.4,0,0,1-2.56.44,2.28,2.28,0,0,1-2.08-.88c-.6-1-.07-2.68,1.51-4.73a30.8,30.8,0,0,1,6.56-6,28.94,28.94,0,0,1,7.77-4c2.39-.72,4-.56,4.64.44s.07,2.67-1.51,4.72a30.25,30.25,0,0,1-6.55,6A35,35,0,0,1,181,91a15,15,0,0,1,1.91.2,38.75,38.75,0,0,0,3.48-2.18c6.77-4.72,11-10.57,9.52-13.07-.56-.92-1.83-1.25-3.55-1.07-.33,0-.67.09-1,.17a19.31,19.31,0,0,0-3.27,1A36.2,36.2,0,0,0,180.91,80c-.56.39-1.09.78-1.61,1.18-5.64,4.34-9.08,9.28-8,11.67l.12.22C172.37,94.71,175.54,94.51,179.5,92.89Z"/><path class="cls-11" d="M182.75,82.81c.17.24.34.49.5.74.16-.1.32-.2.48-.28.5-.73,1-1.45,1.53-2.17.71-1,1.44-2,2.21-2.93a32.06,32.06,0,0,0-5.79,3.25C182.06,81.87,182.41,82.33,182.75,82.81Z"/><path class="cls-11" d="M175.79,86.62c1.23-.48,2.48-.91,3.73-1.32.86-.28,1.71-.56,2.57-.82a6.4,6.4,0,0,1,.71-.61c-.15-.26-.3-.53-.43-.8-.27-.52-.53-1-.75-1.6A31.29,31.29,0,0,0,175.79,86.62Z"/><path class="cls-11" d="M191.76,77.07a9.15,9.15,0,0,0-2.46.43c-.54.17-1.12.37-1.71.62-.63,1.11-1.29,2.19-2,3.27q-.47.75-1,1.5a1.12,1.12,0,0,1,.39,0l.59-.45c.81-.6,1.61-1.2,2.43-1.79,1.57-1.15,3.16-2.28,4.77-3.36A2.83,2.83,0,0,0,191.76,77.07Z"/><path class="cls-11" d="M192.87,77.26c-1.49,1.29-3,2.53-4.54,3.75L186,82.89l-.66.5a1,1,0,0,1-.07.15l2.89-.79q2-.52,4-1c1.35-1.79,1.86-3.27,1.39-4.05A1.24,1.24,0,0,0,192.87,77.26Z"/><path class="cls-11" d="M181.12,86.57c-.81.6-1.62,1.21-2.43,1.8-1.59,1.15-3.18,2.28-4.8,3.37.62.59,2,.61,4,0l.59-.2c.67-1.18,1.37-2.33,2.09-3.47.45-.71.9-1.42,1.36-2.12Z"/><path class="cls-11" d="M192,81.92l0,0c-1.25.48-2.51.91-3.77,1.33s-2.51.81-3.77,1.19l-.45.37c.27.46.54.93.79,1.41s.53,1.06.75,1.61A30.34,30.34,0,0,0,192,81.92Z"/><path class="cls-11" d="M184.42,86.46c-.31-.44-.6-.89-.89-1.35a4.18,4.18,0,0,1-.57.33c-.67,1-1.36,2-2.06,2.94s-1.56,2.14-2.4,3.18l.51-.19c0-.08,0-.17,0-.26a6.66,6.66,0,0,1,.9-.08,32.93,32.93,0,0,0,5.62-3.19A15.46,15.46,0,0,1,184.42,86.46Z"/><path class="cls-11" d="M173.71,91.53a1,1,0,0,0,.16.2c1.5-1.29,3-2.54,4.57-3.77.78-.63,1.58-1.25,2.38-1.88l.62-.48a.57.57,0,0,1,.06-.34l-1.86.51c-1.31.34-2.62.67-3.94,1q-.27.32-.51.63C173.76,89.2,173.22,90.73,173.71,91.53Z"/><path class="cls-12" d="M179,91.37l-.51.19c.84-1,1.63-2.1,2.4-3.18s1.39-1.95,2.06-2.94a4.18,4.18,0,0,0,.57-.33c.29.46.58.91.89,1.35a15.46,15.46,0,0,0,1.07,1.38A32.93,32.93,0,0,1,179.87,91,10.38,10.38,0,0,1,181,91a35,35,0,0,0,4.77-2.81,30.25,30.25,0,0,0,6.55-6c1.58-2,2.12-3.73,1.51-4.72s-2.25-1.16-4.64-.44a28.94,28.94,0,0,0-7.77,4,30.8,30.8,0,0,0-6.56,6c-1.58,2-2.11,3.73-1.51,4.73a2.28,2.28,0,0,0,2.08.88,9.4,9.4,0,0,0,2.56-.44q.56-.16,1.14-.39C179.08,91.68,179,91.53,179,91.37Zm-3.82-4q.24-.31.51-.63c1.32-.28,2.63-.61,3.94-1l1.86-.51a.57.57,0,0,0-.06.34l-.62.48c-.8.63-1.6,1.25-2.38,1.88-1.54,1.23-3.07,2.48-4.57,3.77a1,1,0,0,1-.16-.2C173.22,90.73,173.76,89.2,175.19,87.35Zm18.27-9.61c.47.78,0,2.26-1.39,4.05q-2,.43-4,1l-2.89.79a1,1,0,0,0,.07-.15l.66-.5L188.33,81c1.53-1.22,3-2.46,4.54-3.75A1.24,1.24,0,0,1,193.46,77.74Zm-5.39,2.87c-.82.59-1.62,1.19-2.43,1.79l-.59.45a1.12,1.12,0,0,0-.39,0q.5-.75,1-1.5c.68-1.08,1.34-2.16,2-3.27.59-.25,1.17-.45,1.71-.62a9.15,9.15,0,0,1,2.46-.43,2.83,2.83,0,0,1,1.08.18C191.23,78.33,189.64,79.46,188.07,80.61Zm-2.81.49c-.52.72-1,1.44-1.53,2.17-.16.08-.32.18-.48.28-.16-.25-.33-.5-.5-.74-.34-.48-.69-.94-1.07-1.39a32.06,32.06,0,0,1,5.79-3.25C186.7,79.13,186,80.11,185.26,81.1Zm-3.64.37c.22.55.48,1.08.75,1.6.13.27.28.54.43.8a6.4,6.4,0,0,0-.71.61c-.86.26-1.71.54-2.57.82-1.25.41-2.5.84-3.73,1.32A31.29,31.29,0,0,1,181.62,81.47Zm-1.08,6.63c-.72,1.14-1.42,2.29-2.09,3.47l-.59.2c-1.94.58-3.35.56-4,0,1.62-1.09,3.21-2.22,4.8-3.37.81-.59,1.62-1.2,2.43-1.8l.78-.59C181.44,86.68,181,87.39,180.54,88.1ZM184,84.78l.45-.37c1.26-.38,2.52-.78,3.77-1.19s2.52-.85,3.77-1.33l0,0a30.34,30.34,0,0,1-6.43,5.88c-.22-.55-.48-1.09-.75-1.61S184.28,85.24,184,84.78Z"/><path class="cls-9" d="M225.53,96.63A16.07,16.07,0,0,0,211,106.77a23.61,23.61,0,0,0-1,12.08c.32,3.22,7.68,5,16.43,4a32.07,32.07,0,0,0,12-3.53,5.22,5.22,0,0,1-.65-1.14,4.45,4.45,0,0,1,1.54-5.78,9.81,9.81,0,0,1,.88-6.2,16.7,16.7,0,0,0-2.83-4.93C235,98.47,231.27,96.43,225.53,96.63Z"/><path class="cls-8" d="M239.32,112.4a4.45,4.45,0,0,0-1.54,5.78,5.22,5.22,0,0,0,.65,1.14,4.22,4.22,0,0,0,5.56,1.27c3,2.39,7.49,3.22,12.93-.3-1.77,1-5.45-2.61-8.24-8.12s-3.61-10.81-1.84-11.83a13.71,13.71,0,0,0-6.64,5.86A9.81,9.81,0,0,0,239.32,112.4Z"/><path class="cls-14" d="M248.68,112.17c2.79,5.51,6.47,9.15,8.24,8.12s.93-6.32-1.85-11.83-6.47-9.15-8.23-8.12S245.9,106.66,248.68,112.17Zm5.67-3.38a24.11,24.11,0,0,1,2.24,6.25c.34,1.88.14,3.15-.56,3.56h0a1.09,1.09,0,0,1-.54.14,4.16,4.16,0,0,1-2.55-1.58,23,23,0,0,1-3.66-5.42c-2.07-4.1-3.26-8.89-1.68-9.81S252.28,104.69,254.35,108.79Z"/><path class="cls-15" d="M253.09,109.72l-.53.35a3.2,3.2,0,0,1,.16.39l.29.26c.36.35.73.69,1.08,1,.63.61,1.25,1.24,1.85,1.88a26.58,26.58,0,0,0-1.86-4.66A11.58,11.58,0,0,1,253.09,109.72Z"/><path class="cls-15" d="M256,113.74c-.71-.55-1.4-1.12-2.08-1.71l-.95-.83a1.49,1.49,0,0,1,0,.3l.27.48c.35.66.71,1.32,1.06,2,.68,1.28,1.35,2.57,2,3.88a5.17,5.17,0,0,0,0-2.75C256.2,114.67,256.09,114.21,256,113.74Z"/><path class="cls-15" d="M256.23,117.87c-.77-1.22-1.52-2.47-2.25-3.72l-1.13-2-.3-.53-.1-.07.1.58c.09.56.19,1.13.27,1.7.16,1,.3,2.08.41,3.12,1.13,1.16,2.09,1.63,2.65,1.31h0A.91.91,0,0,0,256.23,117.87Z"/><path class="cls-15" d="M254.06,108.93a23.83,23.83,0,0,0-3.13-4.81c.25,1,.47,2,.67,3,.12.56.23,1.13.34,1.69l.07.35a3.87,3.87,0,0,1,.36.58l.56-.29A11.26,11.26,0,0,1,254.06,108.93Z"/><path class="cls-15" d="M247.75,102.22a.81.81,0,0,0-.14.12c.78,1.23,1.53,2.49,2.27,3.75.38.64.75,1.3,1.12,2l.29.51a.34.34,0,0,1,.22.06c-.08-.48-.16-1-.23-1.46-.15-1-.3-2.07-.41-3.11-.13-.15-.26-.29-.4-.43a4,4,0,0,0-2.33-1.48A.86.86,0,0,0,247.75,102.22Z"/><path class="cls-15" d="M253.16,116.92h0c-.25-1-.47-2-.67-3-.12-.56-.23-1.13-.34-1.69l-.24-1.29c-.08-.12-.15-.24-.23-.38-.32.19-.65.37-1,.53a11.33,11.33,0,0,1-1.13.49A23,23,0,0,0,253.16,116.92Z"/><path class="cls-15" d="M247.45,105.89c.75.58,1.49,1.19,2.21,1.82.39.32.76.65,1.13,1l.21.19-.34-.63c-.36-.66-.72-1.32-1.07-2-.68-1.29-1.35-2.59-2-3.91C247.13,102.84,247.07,104.12,247.45,105.89Z"/><path class="cls-15" d="M250.54,110.8q.47-.31,1-.6c-.07-.16-.14-.32-.19-.46l-.77-.72c-.37-.35-.73-.69-1.09-1-.68-.66-1.35-1.33-2-2a24.93,24.93,0,0,0,2.1,5.62A11.7,11.7,0,0,1,250.54,110.8Z"/><path class="cls-12" d="M249.28,111.74a23,23,0,0,0,3.66,5.42,4.16,4.16,0,0,0,2.55,1.58,1.09,1.09,0,0,0,.54-.14h0c.7-.41.9-1.68.56-3.56a24.11,24.11,0,0,0-2.24-6.25c-2.07-4.1-5.16-7.79-6.75-6.86S247.21,107.64,249.28,111.74Zm1.19-8.13c.14.14.27.28.4.43.11,1,.26,2.08.41,3.11.07.49.15,1,.23,1.46a.34.34,0,0,0-.22-.06L251,108c-.37-.65-.74-1.31-1.12-2-.74-1.26-1.49-2.52-2.27-3.75a.81.81,0,0,1,.14-.12.86.86,0,0,1,.39-.09A4,4,0,0,1,250.47,103.61Zm5.41,14.69c-.56.32-1.52-.15-2.65-1.31-.11-1-.25-2.08-.41-3.12-.08-.57-.18-1.14-.27-1.7l-.1-.58.1.07.3.53,1.13,2c.73,1.25,1.48,2.5,2.25,3.72a.91.91,0,0,1-.35.43Zm-8.28-16c.64,1.32,1.31,2.62,2,3.91.35.67.71,1.33,1.07,2l.34.63-.21-.19c-.37-.33-.74-.66-1.13-1-.72-.63-1.46-1.24-2.21-1.82C247.07,104.12,247.13,102.84,247.6,102.35Zm4.77,7.35a3.87,3.87,0,0,0-.36-.58l-.07-.35c-.11-.56-.22-1.13-.34-1.69-.2-1-.42-2-.67-3a23.83,23.83,0,0,1,3.13,4.81,11.26,11.26,0,0,0-1.13.48ZM249.45,108c.36.36.72.7,1.09,1l.77.72c.05.14.12.3.19.46q-.5.28-1,.6a11.7,11.7,0,0,0-1,.75,24.93,24.93,0,0,1-2.1-5.62C248.1,106.64,248.77,107.31,249.45,108Zm1.25,3.14c.34-.16.67-.34,1-.53.08.14.15.26.23.38l.24,1.29c.11.56.22,1.13.34,1.69.2,1,.42,2,.67,3h0a23,23,0,0,1-3.59-5.32A11.33,11.33,0,0,0,250.7,111.11Zm5.54,6.74c-.63-1.31-1.3-2.6-2-3.88-.35-.67-.71-1.33-1.06-2l-.27-.48a1.49,1.49,0,0,0,0-.3l.95.83c.68.59,1.37,1.16,2.08,1.71.13.47.24.93.32,1.36A5.17,5.17,0,0,1,256.24,117.85Zm-2.15-6.09c-.35-.35-.72-.69-1.08-1l-.29-.26a3.2,3.2,0,0,0-.16-.39l.53-.35a11.58,11.58,0,0,0,1-.74,26.58,26.58,0,0,1,1.86,4.66C255.34,113,254.72,112.37,254.09,111.76Z"/><path class="cls-7" d="M198.36,94.09l-.11,0a14.11,14.11,0,0,0-9.14-.19,5.39,5.39,0,0,1,.95,1.22l-.07-.68,1.66-.26.51,3.16a1.27,1.27,0,0,1-1.51.45,0,0,0,0,1,0,0c-.9.94-4.25.63-7.14-.93a8.24,8.24,0,0,0-2.15,3,15.92,15.92,0,0,0-.84,2.79c-1,4.78.43,9.55,4.79,11.55,5.22,2.4,17.11.63,19.34-5a10.32,10.32,0,0,0,.67-4.76A12.85,12.85,0,0,0,198.36,94.09Z"/><path class="cls-6" d="M190.67,97.33a1.11,1.11,0,0,1,0,.41,1.27,1.27,0,0,0,1.51-.45l-.51-3.16-1.66.26.07.68A4.62,4.62,0,0,1,190.67,97.33Z"/><path class="cls-3" d="M179,91.11c0,.09,0,.18,0,.26s.07.31.11.46a5.57,5.57,0,0,0,.38,1.06,8.92,8.92,0,0,0,4,3.94c2.89,1.56,6.24,1.87,7.14.93C190.58,97.71,179,91.11,179,91.11Z"/><path class="cls-3" d="M190.67,97.33a2.58,2.58,0,0,1,0,.43,0,0,0,0,0,0,0A1.11,1.11,0,0,0,190.67,97.33Z"/><path class="cls-4" d="M182.9,91.23A15,15,0,0,0,181,91a10.38,10.38,0,0,0-1.12,0,6.66,6.66,0,0,0-.9.08s11.61,6.6,11.67,6.65a2.58,2.58,0,0,0,0-.43,4.62,4.62,0,0,0-.61-2.26,5.39,5.39,0,0,0-.95-1.22,7.86,7.86,0,0,0-2.36-1.49A18,18,0,0,0,182.9,91.23Z"/><path class="cls-16" d="M315.64,68.82v.51l3.92-.92c2-1.24,1.52-4.68,1-6.82a17.47,17.47,0,0,1-7.76.57c-.34-1.81-.67-3.91-.93-6.15-1.32,2.1-6.15,9.51-11.05,13.48a8.47,8.47,0,0,0-1.07,11.69l2.66-8.76Z"/><path class="cls-17" d="M299.06,196.85H356c-.37-2.14-1.44-8.23-2.63-14.61l-21.6,1.8s-2.42-35.48-3.8-62l-12.1.93.2,60.18-16-1.58C299.58,188.14,299.19,194.63,299.06,196.85Z"/><path class="cls-18" d="M261.81,135.08c-.87-.84-4.23-3.88-6.87-3.3a11.72,11.72,0,0,1-5.64-.19s.55,3.07,2.9,3.36a8.75,8.75,0,0,1,4,1.64c-1.34.14-6.94.85-6.94.85s-3.56-5.77-5.4-3.88c.45.77,1.23,2,2,3.25-1.16-1.11-2.49-2-3.36-1.22.35.57.72,1.15,1.1,1.73a1.47,1.47,0,0,0-1.71,0c.9,3.07,4.88,7.83,4.88,7.83l7.15-.16,9.28-2,3.1-2.4-1.94-6.1Z"/><path class="cls-12" d="M323.46,72.52a13,13,0,0,0,1.77-2.17,10,10,0,0,1-5.73-1.9l.07,0-3.92.92.18,53.65,12.1-.93c-.64-12.4-1.05-22.84-.88-26.77.13-3,.43-6.14.8-9.18C322.52,84.92,318.31,77.59,323.46,72.52Z"/><path class="cls-19" d="M325.23,70.35c4-6.15,3.2-15,3.2-15A9.55,9.55,0,0,1,324.07,60a26.4,26.4,0,0,1-3.5,1.64c.52,2.14,1,5.58-1,6.82l-.07,0A10,10,0,0,0,325.23,70.35Z"/><path class="cls-20" d="M320.57,61.59a26.4,26.4,0,0,0,3.5-1.64,9.55,9.55,0,0,0,4.36-4.65l0-.16c3.51.23,7-5.5,5.67-7.79-.91-1.58-3.11.2-4.55,1.67-1.82-1.32-2.95-5.17-3.58-8.16a14.59,14.59,0,0,1-.34-1.8c-.08-.49-.15-.91-.2-1.25-2.81,1.73-9.31,5.42-14,5.62a1.23,1.23,0,0,1,0,.19l.26,0a3,3,0,0,1,.93.11,2.16,2.16,0,0,1,.89.5,2.83,2.83,0,0,1-.9.43,3.78,3.78,0,0,1-.87.15h-.38c0,.77-.06,1.54-.07,2.33a3,3,0,0,1,1.07,0,2.14,2.14,0,0,1,.69.26.88.88,0,0,1,.17.12.44.44,0,0,1,.18.13,1.14,1.14,0,0,1,.09,1.22c-.2.39-.58.46-.83.17a1.15,1.15,0,0,1-.13-1.14l-.19,0a9.81,9.81,0,0,0-1,.25,74.8,74.8,0,0,0,.53,7.88c.26,2.24.59,4.34.93,6.15A17.47,17.47,0,0,0,320.57,61.59Zm-4.66-3.4c-2-.3-2.07-1.27-2.07-1.27l.91-1,.84.4.64-.43,3.75.58S317.89,58.48,315.91,58.19Zm15.7-9.34a1.78,1.78,0,0,1,1.07.06c-.33.15-.62.29-.9.45a7.32,7.32,0,0,0-.8.52c-.25.19-.49.39-.73.61s-.47.47-.73.74a2.37,2.37,0,0,1,.34-1.08,2.92,2.92,0,0,1,.76-.84A2.71,2.71,0,0,1,331.61,48.85Zm-12.81-5a8.46,8.46,0,0,1,.88-.08,4.77,4.77,0,0,1,.92,0,3.34,3.34,0,0,1,1,.26,2.69,2.69,0,0,1,.88.63,2.61,2.61,0,0,1,.52.93,3.67,3.67,0,0,1,.17,1c-.25-.21-.46-.44-.68-.64a3.17,3.17,0,0,0-.62-.47,3.76,3.76,0,0,0-1.38-.39l-.81-.1-.86-.12a7.09,7.09,0,0,1-1.73-.55A6.75,6.75,0,0,1,318.8,43.81Zm-2.21,3.49a1.59,1.59,0,0,0,.09.33,1,1,0,0,0,.14.25l.09.06.08,0a.65.65,0,0,0,.2,0h.12l.12,0a2.34,2.34,0,0,0,.26,0l.28-.07.32-.07a3.16,3.16,0,0,1,1.4,0,2.07,2.07,0,0,1,.67.32l.16.13a.47.47,0,0,1,.17.15,1.14,1.14,0,0,1,0,1.23c-.23.36-.61.4-.84.09a1.13,1.13,0,0,1,0-1.14h-.19a9.31,9.31,0,0,0-1.16.18,5.46,5.46,0,0,1-.67.09,1.71,1.71,0,0,1-.39,0l-.19,0-.2-.07a1.1,1.1,0,0,1-.39-.27.31.31,0,0,1-.07-.09l-.07-.11a1.55,1.55,0,0,1-.08-.23A.94.94,0,0,1,316.59,47.3Zm-4.21,6.11a3.62,3.62,0,0,1,.43-1,15.59,15.59,0,0,0,1.86-6.19,1.12,1.12,0,0,1,.13-.45c.41-.64.81.31.86.68a2.85,2.85,0,0,1,0,.4c-.14,2.19-.26,4.38-.42,6.57a1.68,1.68,0,0,1-.12.63c-.33.71-1.54.49-2.1.38a.86.86,0,0,1-.57-.36A1,1,0,0,1,312.38,53.41Z"/><path class="cls-16" d="M325.67,39.06a14.59,14.59,0,0,0,.34,1.8c.63,3,1.76,6.84,3.58,8.16,1.44-1.47,3.64-3.25,4.55-1.67,1.32,2.29-2.16,8-5.67,7.79l0,.16s.83,8.9-3.2,15a13,13,0,0,1-1.77,2.17c-5.15,5.07-.94,12.4,4.39,13.58a6.46,6.46,0,0,0,2.77,0c6.41-1.35,17-6.6,14.7-14.55,0-.12-.07-.25-.1-.38-2.2-8.62-3.42-42.13-14.45-39.69a4.89,4.89,0,0,0-.52-.25,9.84,9.84,0,0,0-6.75-2.82c-9.72-.73-14.94,7.8-12.87,15a8.35,8.35,0,0,0,.87,0c4.66-.2,11.16-3.89,14-5.62C325.52,38.15,325.59,38.57,325.67,39.06Z"/><path class="cls-19" d="M313,54.42c.56.11,1.77.33,2.1-.38a1.68,1.68,0,0,0,.12-.63c.16-2.19.28-4.38.42-6.57a2.85,2.85,0,0,0,0-.4c-.05-.37-.45-1.32-.86-.68a1.12,1.12,0,0,0-.13.45,15.59,15.59,0,0,1-1.86,6.19,3.62,3.62,0,0,0-.43,1,1,1,0,0,0,.08.65A.86.86,0,0,0,313,54.42Z"/><path class="cls-16" d="M319.64,45l.81.1a3.76,3.76,0,0,1,1.38.39,3.17,3.17,0,0,1,.62.47c.22.2.43.43.68.64a3.67,3.67,0,0,0-.17-1,2.61,2.61,0,0,0-.52-.93,2.69,2.69,0,0,0-.88-.63,3.34,3.34,0,0,0-1-.26,4.77,4.77,0,0,0-.92,0,8.46,8.46,0,0,0-.88.08,6.75,6.75,0,0,0-1.75.49,7.09,7.09,0,0,0,1.73.55Z"/><path class="cls-16" d="M311.79,44.78a3.78,3.78,0,0,0,.87-.15,2.83,2.83,0,0,0,.9-.43,2.16,2.16,0,0,0-.89-.5,3,3,0,0,0-.93-.11l-.26,0a2.71,2.71,0,0,0-.66.18,2.18,2.18,0,0,0-.84.61,2.76,2.76,0,0,0,.94.32,2.81,2.81,0,0,0,.49.05Z"/><path class="cls-21" d="M333.45,108.43a3.05,3.05,0,1,0,3-3.27A3.16,3.16,0,0,0,333.45,108.43Z"/><path class="cls-21" d="M332.88,98A3.05,3.05,0,1,0,339,98a3.4,3.4,0,0,0,0-.45l-6.05.3A.76.76,0,0,0,332.88,98Z"/><path class="cls-17" d="M312.58,47.85a1.15,1.15,0,0,0,.13,1.14c.25.29.63.22.83-.17a1.14,1.14,0,0,0-.09-1.22.44.44,0,0,0-.18-.13.88.88,0,0,0-.17-.12,2.14,2.14,0,0,0-.69-.26,3,3,0,0,0-1.07,0,2,2,0,0,0-.33.08l-.31.09-.27.09a1.45,1.45,0,0,1-.26.07l-.13,0h-.31s-.05,0-.09,0a.24.24,0,0,1-.09-.06.78.78,0,0,1-.16-.22,2.55,2.55,0,0,1-.11-.33,1,1,0,0,0-.13.79,1,1,0,0,0,.09.22l.08.1.08.09a1.16,1.16,0,0,0,.4.23l.21.05.2,0a2.42,2.42,0,0,0,.38,0,4.26,4.26,0,0,0,.66-.16l.1,0a9.81,9.81,0,0,1,1-.25Z"/><path class="cls-17" d="M316.48,48.3l.07.11a.31.31,0,0,0,.07.09,1.1,1.1,0,0,0,.39.27l.2.07.19,0a1.71,1.71,0,0,0,.39,0,5.46,5.46,0,0,0,.67-.09,9.31,9.31,0,0,1,1.16-.18h.19a1.13,1.13,0,0,0,0,1.14c.23.31.61.27.84-.09a1.14,1.14,0,0,0,0-1.23.47.47,0,0,0-.17-.15l-.16-.13a2.07,2.07,0,0,0-.67-.32,3.16,3.16,0,0,0-1.4,0l-.32.07-.28.07a2.34,2.34,0,0,1-.26,0l-.12,0h-.12a.65.65,0,0,1-.2,0l-.08,0-.09-.06a1,1,0,0,1-.14-.25,1.59,1.59,0,0,1-.09-.33.94.94,0,0,0-.19.77A1.55,1.55,0,0,0,316.48,48.3Z"/><path class="cls-22" d="M329.86,50.15a2.37,2.37,0,0,0-.34,1.08c.26-.27.49-.51.73-.74s.48-.42.73-.61a7.32,7.32,0,0,1,.8-.52c.28-.16.57-.3.9-.45a1.78,1.78,0,0,0-1.07-.06,2.71,2.71,0,0,0-1,.46A2.92,2.92,0,0,0,329.86,50.15Z"/><path class="cls-18" d="M371.91,49.23c.82-4.33,1.47-9.22,1.47-9.22a4,4,0,0,0-2,2.79c-.26,1-.78,2.62-1.26,4.1A6.71,6.71,0,0,1,371.91,49.23Z"/><path class="cls-18" d="M376.58,53.88c-.48.49-1.27,1.27-2,1.95,2-4.26,4.52-11.4,4.52-11.4a3.43,3.43,0,0,0-2.38,1.68c.77-1.71,1.29-2.92,1.29-2.92a4.29,4.29,0,0,0-2.73,2.19c-.69,1.16-2.08,3.21-3.08,4.66a7.22,7.22,0,0,1,.24,3.47,6.35,6.35,0,0,1-7.36,5.41,6.07,6.07,0,0,1-2.77-1.36,8.75,8.75,0,0,0-1.61,5.67l0-1.19,7.51-2.1,0,1.73.34-.21c1.43-.34,2.94-.69,3.49-.79,1.16-.21,6.79-7.66,6.79-7.66A3.06,3.06,0,0,0,376.58,53.88Z"/><polygon class="cls-20" points="368.29 59.94 360.78 62.04 360.74 63.23 360.56 69.83 368.39 69.19 368.31 61.67 368.29 59.94"/><path class="cls-21" d="M359,70l-1.65,16c-2.89-7.41-6.67-14-11-14.55l-1.14-.25c0,.13.06.26.1.38,2.26,8-8.29,13.2-14.7,14.55a6.46,6.46,0,0,1-2.77,0c-.37,3-.67,6.19-.8,9.18-.17,3.93.24,14.37.88,26.77,1.38,26.51,3.8,62,3.8,62l21.6-1.8,4.28-.36L346.48,95.71l7.64,22.17,0,0c1.29,1.24,7.85,5.7,11.75-3.2,6-12.12,4.11-45.6,4.11-45.6l-1.61.13-7.83.64ZM330.62,94.35l3.55-.09.24-.12-.1-1.18,2.07-.2.09,1.09a4.05,4.05,0,0,1,1,.32l3.41-.09.38,3.37-1.47.07c0,.17,0,.33,0,.5a4.12,4.12,0,0,1-3.27,4.15l.18,2.06a4.1,4.1,0,0,1,3.66,4.2,4.23,4.23,0,0,1-2.43,3.89l.11,1.27-2.07.2-.1-1.19a4.28,4.28,0,0,1-.26-8.29l-.18-2.1A4.13,4.13,0,0,1,332,98a.34.34,0,0,1,0-.1l-1.39.07Zm18.71,36.39-.92.09c1.93,17.63-2.5,17.93-6.66,18.46-8.79,1.13-8.17-13-7.81-17.1l-1.12.11v-2.87l16-1.44Z"/><path class="cls-7" d="M365.12,58.92a6.35,6.35,0,0,0,7.36-5.41,6.91,6.91,0,0,0-.57-4.28,6.71,6.71,0,0,0-1.78-2.33,6.24,6.24,0,0,0-2.69-1.29,5.93,5.93,0,0,0-4.35.82,3,3,0,0,1,1,.74l-.12-.4,1-.4.7,1.83a.81.81,0,0,1-.85.48h0c-.4.67-2.28,1-4.13.54a6.93,6.93,0,0,0-.56,1.79,7,7,0,0,0,2.27,6.54A6.07,6.07,0,0,0,365.12,58.92Z"/><path class="cls-6" d="M364.77,48.68a.81.81,0,0,0,.85-.48l-.7-1.83-1,.4.12.4a2.69,2.69,0,0,1,.65,1.26A.57.57,0,0,1,364.77,48.68Z"/><path class="cls-3" d="M364.77,48.69,357,46.39a4.86,4.86,0,0,0,3.69,2.84C362.49,49.65,364.37,49.36,364.77,48.69Z"/><path class="cls-3" d="M364.73,48.43a1.19,1.19,0,0,1,0,.26h0A.57.57,0,0,0,364.73,48.43Z"/><path class="cls-4" d="M364.77,48.69a1.19,1.19,0,0,0,0-.26,2.69,2.69,0,0,0-.65-1.26,3,3,0,0,0-1-.74,4.67,4.67,0,0,0-1.32-.41,9.06,9.06,0,0,0-4.82.37Z"/><path class="cls-22" d="M315.59,56.37l-.84-.4-.91,1s.1,1,2.07,1.27S320,56.52,320,56.52l-3.75-.58Z"/><polygon class="cls-23" points="302.42 72.42 299.76 81.19 289.02 116.59 263.96 133.17 264.37 134.47 266.31 140.57 266.79 142.06 298.14 130.81 299.67 126.99 302.42 72.42"/><polygon class="cls-21" points="315.82 122.98 315.64 69.33 315.64 68.82 302.42 72.42 299.67 126.99 296.94 181.28 299.98 181.58 316.03 183.16 315.82 122.98"/><path class="cls-23" d="M338.94,97.57a3,3,0,0,0-6.05.3Z"/><path class="cls-23" d="M334.17,94.26l-3.55.09V98l1.39-.07A4.23,4.23,0,0,1,334.17,94.26Z"/><path class="cls-23" d="M339.83,97.52l1.47-.07-.38-3.37-3.41.09A4.22,4.22,0,0,1,339.83,97.52Z"/><path class="cls-12" d="M332,97.92a.34.34,0,0,0,0,.1,4.13,4.13,0,0,0,3.49,4.19l.18,2.1a4.28,4.28,0,0,0,.26,8.29l.1,1.19,2.07-.2-.11-1.27a4.23,4.23,0,0,0,2.43-3.89,4.1,4.1,0,0,0-3.66-4.2l-.18-2.06A4.12,4.12,0,0,0,339.85,98c0-.17,0-.33,0-.5a4.22,4.22,0,0,0-2.32-3.35,4.05,4.05,0,0,0-1-.32l-.09-1.09-2.07.2.1,1.18-.24.12A4.23,4.23,0,0,0,332,97.92Zm7.53,10.51a3.05,3.05,0,1,1-3.05-3.27A3.17,3.17,0,0,1,339.54,108.43Zm-3.61-13.68a3.13,3.13,0,0,1,3,2.82,3.4,3.4,0,0,1,0,.45,3.05,3.05,0,1,1-6.09,0,.76.76,0,0,1,0-.15A3.16,3.16,0,0,1,335.93,94.75Z"/><path class="cls-23" d="M332.82,129.43v2.87l1.12-.11c-.36,4.09-1,18.23,7.81,17.1,4.16-.53,8.59-.83,6.66-18.46l.92-.09-.55-2.75Z"/><path class="cls-2" d="M212,12.79a8.68,8.68,0,0,0-5.72,10.5,8,8,0,0,0,9.79,6.14,8.68,8.68,0,0,0,5.72-10.5A8,8,0,0,0,212,12.79Z"/><path class="cls-2" d="M226.71,144.91a7.79,7.79,0,0,0-10.65,4.17A8.86,8.86,0,0,0,220,160.5a7.8,7.8,0,0,0,10.65-4.17A8.86,8.86,0,0,0,226.71,144.91Z"/><path class="cls-2" d="M171.12,129.35A8.68,8.68,0,0,0,165.6,140a8,8,0,0,0,9.9,5.93A8.7,8.7,0,0,0,181,135.27,8,8,0,0,0,171.12,129.35Z"/><path class="cls-2" d="M183.44,153.16a8,8,0,0,0-9.89,5.93,8.7,8.7,0,0,0,5.53,10.62,8,8,0,0,0,9.89-5.93A8.7,8.7,0,0,0,183.44,153.16Z"/><path class="cls-2" d="M258.55,29c-4.43.12-7.93,4.06-7.82,8.81s3.79,8.5,8.21,8.39,7.93-4.06,7.82-8.81S263,28.85,258.55,29Z"/><path class="cls-2" d="M279.23,39a8,8,0,0,0,9.67-6.34A8.65,8.65,0,0,0,283,22.31a8,8,0,0,0-9.68,6.34C272.28,33.27,274.92,37.92,279.23,39Z"/><ellipse class="cls-2" cx="275.64" cy="163.07" rx="8.02" ry="8.6"/><path class="cls-2" d="M148.75,143.16A9,9,0,0,0,146,155a7.71,7.71,0,0,0,11,3,9,9,0,0,0,2.79-11.79A7.73,7.73,0,0,0,148.75,143.16Z"/><path class="cls-21" d="M220.4,17.84a8.67,8.67,0,0,1-5.72,10.5,8,8,0,0,1-9.78-6.14,8.67,8.67,0,0,1,5.72-10.5A8,8,0,0,1,220.4,17.84Z"/><path class="cls-12" d="M217.83,22.26l-4,1L213.51,22l1.58-.52-.59-.68-3,.86-.15.88,1.51-.41.31,1.57-4,.76-.28-1.25,1.2-.33,1.23-4.67-2.1.69-.39-1.6,3.92-1.1,3.36,5,1.41-.47Zm-6.25-1.36,2.41-.68L212.06,18Z"/><path class="cls-21" d="M229.68,154.37A7.8,7.8,0,0,1,219,158.54a8.87,8.87,0,0,1-3.89-11.43A7.79,7.79,0,0,1,225.79,143,8.88,8.88,0,0,1,229.68,154.37Z"/><path class="cls-12" d="M225.07,156l-3.66-2,.49-1.19,1.52.68,0-.92-2.85-1.43-.64.58,1.4.72-.69,1.42L217,151.72l.53-1.14,1.12.56,3.73-2.75-2-.91L221,146l3.67,1.83-.37,6.12,1.37.61Zm-4-5.33,2.26,1.13-.16-3Z"/><path class="cls-21" d="M180.1,133.31a8.7,8.7,0,0,1-5.53,10.62,8,8,0,0,1-9.9-5.93,8.71,8.71,0,0,1,5.53-10.62A8,8,0,0,1,180.1,133.31Z"/><path class="cls-12" d="M176.5,136.17a2,2,0,0,1,0,.91,2,2,0,0,1-.4.84,3.2,3.2,0,0,1-.84.73,5.24,5.24,0,0,1-1.28.55l-1.1.33c-.37.11-.74.21-1.11.29s-.75.17-1.12.23a8.24,8.24,0,0,1-1.08.11l0-1.89a4.1,4.1,0,0,0,.49,0h.48l-1.23-3.75-.91.51-.58-1.44c.2-.14.41-.27.63-.4l.63-.34.61-.29.56-.25q.62-.26,1.2-.45a7,7,0,0,1,1.42-.28,3.66,3.66,0,0,1,1.21.05,2.1,2.1,0,0,1,.9.43,1.43,1.43,0,0,1,.46.83,1.77,1.77,0,0,1-.06.91,2.59,2.59,0,0,1-.56.92,1.89,1.89,0,0,1,.44.11,1.37,1.37,0,0,1,.36.19,1.64,1.64,0,0,1,.28.23,2.12,2.12,0,0,1,.55.9Zm-4.54.19-.35.11-.38.1.35,1.65c.29,0,.55-.07.79-.11L173,138l.55-.15a5.27,5.27,0,0,0,.87-.34,2.62,2.62,0,0,0,.56-.41.93.93,0,0,0,.25-.45.77.77,0,0,0-.07-.49.59.59,0,0,0-.32-.32,1.28,1.28,0,0,0-.5-.09,2.66,2.66,0,0,0-.65.09c-.24.05-.49.12-.75.19l-.47.19Zm-.49-.56.52-.17a6,6,0,0,0,.61-.25,4.36,4.36,0,0,0,.6-.33,2.16,2.16,0,0,0,.48-.41,1.2,1.2,0,0,0,.25-.49,1,1,0,0,0-.09-.6.63.63,0,0,0-.2-.24.87.87,0,0,0-.36-.18,1.66,1.66,0,0,0-.52,0,2.78,2.78,0,0,0-.7.12,6,6,0,0,0-.72.27c-.22.1-.46.21-.71.34l.45,2.08.19,0Z"/><path class="cls-21" d="M188.05,161.81a8,8,0,0,1-9.89,5.94,8.7,8.7,0,0,1-5.53-10.62,7.94,7.94,0,0,1,9.89-5.93A8.69,8.69,0,0,1,188.05,161.81Z"/><path class="cls-12" d="M185.16,157,183,160.18l-.57-.35.32-.68a3.64,3.64,0,0,0-.64-.61,5.6,5.6,0,0,0-.64-.41,3.57,3.57,0,0,0-.67-.29,5.57,5.57,0,0,0-.73-.19,4.82,4.82,0,0,0-.74-.09,4.05,4.05,0,0,0-.71,0,2.45,2.45,0,0,0-.63.2,1.77,1.77,0,0,0-.5.41,1.66,1.66,0,0,0-.31.64,2.27,2.27,0,0,0-.05.93,2.19,2.19,0,0,0,.36.83,2.82,2.82,0,0,0,.75.7,5,5,0,0,0,1.14.51,6.8,6.8,0,0,0,.94.18l.44,0a4,4,0,0,0,.49,0,2.94,2.94,0,0,0,.51,0,3,3,0,0,0,.52-.11l.06,1.69a1,1,0,0,1-.36.12,3.7,3.7,0,0,1-.48,0,5.29,5.29,0,0,1-.54,0l-.55-.09c-.43-.08-.88-.19-1.37-.33a4.76,4.76,0,0,1-1.56-.79,3.51,3.51,0,0,1-.91-1.11,3.23,3.23,0,0,1-.34-1.33,4.33,4.33,0,0,1,.15-1.42,3.52,3.52,0,0,1,.49-1.13,3.35,3.35,0,0,1,.73-.81,3.61,3.61,0,0,1,.9-.51,4.25,4.25,0,0,1,1-.24,4.78,4.78,0,0,1,1,0,4.47,4.47,0,0,1,.94.2c.22.09.46.19.7.31a7.64,7.64,0,0,1,.71.39,6.2,6.2,0,0,1,.78.55l.45-.91Z"/><ellipse class="cls-21" cx="257.82" cy="35.6" rx="8.02" ry="8.6"/><path class="cls-12" d="M259,36.19l-2.21-.13-.06,1.23,3.76-.1.16-1,.74,0-.1,2.67-6.9.46,0-1.94,1.41,0-.29-3.43-1.2.12-.05-1.93,7.08,0,.07,3-.74.17-.19-1.76-3.54.35-.07,1.48,2.14-.19Z"/><path class="cls-21" d="M272.39,26.69a8.65,8.65,0,0,0,5.91,10.38A8,8,0,0,0,288,30.73a8.65,8.65,0,0,0-5.91-10.38A8,8,0,0,0,272.39,26.69Z"/><path class="cls-12" d="M283.91,32l-.31,1.25-4-.9.35-1.56.88.27-.59-2.18-.65,0H279l-.51,0-.41-.05-.4,1.48,1.78.53-.31,1.25-4-.89.35-1.57,1.21.37.72-4.26-1-.23.35-1.56,4,1.21-.31,1.24-1.59-.34-.57,2.11a3.65,3.65,0,0,0,.92.06,4.12,4.12,0,0,0,.82-.14,3.54,3.54,0,0,0,.69-.27,4.45,4.45,0,0,0,.58-.35c.17-.12.31-.24.44-.35s.23-.22.31-.31l-1.1-.39.32-1.25,4,1.07-.44,1.56-1.17-.41a3.23,3.23,0,0,1-.55.5,4.57,4.57,0,0,1-.62.39,5.58,5.58,0,0,1-.67.28,5.69,5.69,0,0,1-.68.18l1.34,2.82Z"/><path class="cls-21" d="M267,163.55a7.94,7.94,0,0,0,10,5.81,8.72,8.72,0,0,0,5.41-10.69,8,8,0,0,0-10-5.8A8.7,8.7,0,0,0,267,163.55Z"/><path class="cls-12" d="M279.5,162l.32,1.25-3.89,1.38-.43-1.54.89-.24-1.53-1.58a6.19,6.19,0,0,1-.55.39l-.52.32-.46.24-.37.18.34,1.5,1.79-.5.32,1.25L271.52,166l-.42-1.54,1.21-.34-1.37-4.07-1,.34-.42-1.54,4-1.09.32,1.25-1.54.56.49,2.13a3.46,3.46,0,0,0,.83-.45,4.38,4.38,0,0,0,.64-.55,5.11,5.11,0,0,0,.48-.61,6.24,6.24,0,0,0,.33-.61c.09-.2.16-.38.22-.55s.09-.31.12-.43l-1.13.25-.31-1.25,4-1.22.35,1.58-1.2.27a3.58,3.58,0,0,1-.25.74,6.11,6.11,0,0,1-.35.67,6.7,6.7,0,0,1-.45.6c-.16.18-.33.36-.5.53l2.48,1.7Z"/><path class="cls-21" d="M145,153a7.72,7.72,0,0,0,11,3,9,9,0,0,0,2.79-11.79,7.72,7.72,0,0,0-11-3A9,9,0,0,0,145,153Z"/><path class="cls-12" d="M147,149.87l-.34.41a2.55,2.55,0,0,0-.27.35l-.69-.83c.18-.21.36-.42.54-.6s.35-.37.52-.53l.49-.45c.15-.14.3-.26.44-.37a11,11,0,0,1,.91-.67,4.08,4.08,0,0,1,.85-.41,2.07,2.07,0,0,1,.7-.11,1.12,1.12,0,0,1,.56.17,1.22,1.22,0,0,1,.4.44,1.53,1.53,0,0,1,.21.76,2.38,2.38,0,0,1-.14.78,4.21,4.21,0,0,1-.39.76,6.51,6.51,0,0,1-.55.72,7.41,7.41,0,0,1-.62.63l-.58.51.51.9,1.05-.66.42.76-2.52,1.86-.56-.95.93-.59Zm1.87-1.77-.24.17c-.08.07-.18.14-.27.23s-.2.18-.31.28-.22.2-.32.31l1,1.79c.14-.13.27-.27.41-.42a6,6,0,0,0,.39-.49,5.13,5.13,0,0,0,.34-.52,2.59,2.59,0,0,0,.23-.52,1.4,1.4,0,0,0,.07-.48.74.74,0,0,0-.13-.41.73.73,0,0,0-.22-.18.66.66,0,0,0-.28,0,1,1,0,0,0-.32.09A2.45,2.45,0,0,0,148.89,148.1Z"/><path class="cls-12" d="M152.15,146.59l-.34.4-.27.36-.69-.83c.18-.22.36-.42.54-.61l.52-.52c.17-.17.34-.31.49-.45l.44-.37a11,11,0,0,1,.91-.67,4.33,4.33,0,0,1,.85-.41,1.87,1.87,0,0,1,.71-.11,1.08,1.08,0,0,1,.95.61,1.53,1.53,0,0,1,.21.76,2.38,2.38,0,0,1-.14.78,3.22,3.22,0,0,1-.39.76,7.61,7.61,0,0,1-.55.72c-.2.22-.4.43-.61.63s-.41.36-.59.5l.51.91,1.05-.66.43.76L153.65,151l-.55-.95.93-.59Zm1.87-1.77-.24.17-.27.23c-.1.08-.2.18-.31.28l-.32.31,1,1.79.4-.43c.14-.15.27-.31.4-.48s.23-.35.33-.52a2.59,2.59,0,0,0,.23-.52,1.4,1.4,0,0,0,.07-.48.74.74,0,0,0-.13-.41.63.63,0,0,0-.22-.18.64.64,0,0,0-.28,0,1.11,1.11,0,0,0-.32.09A2.45,2.45,0,0,0,154,144.82Z"/></g></g></svg>