<svg xmlns="http://www.w3.org/2000/svg" viewBox="0 0 392.48 196.21"><defs><style>.cls-1{fill:#ffc0c0;}.cls-2{fill:#ff9292;}.cls-3{fill:#e5485e;}.cls-4{fill:#d08d83;}.cls-5{fill:#b26b5e;}.cls-6{fill:#db9f95;}.cls-7{fill:#fff;}.cls-8{fill:#9e6c43;}.cls-9{fill:#ff9700;}.cls-10{fill:#ffc200;}.cls-11{fill:#828716;}.cls-12{fill:#66515e;}.cls-13{fill:#a8a838;}.cls-14{fill:#93a013;}.cls-15{fill:#4b3c4f;}.cls-16{fill:#e0ae80;}.cls-17{fill:#b27d4d;}.cls-18{fill:#c4915b;}.cls-19{fill:#f2bbaa;}.cls-20{fill:#a0a030;}.cls-21{fill:#ffb600;}.cls-22{fill:#ff5a6a;}.cls-23{fill:#ffce00;}.cls-24{fill:#b4ba3c;}.cls-25{fill:#8c9916;}.cls-26{fill:#a0b718;}.cls-27{fill:#c0cc4a;}.cls-28{fill:#845939;}.cls-29{fill:#c6956d;}.cls-30{fill:#a06e45;}.cls-31{fill:#a87b52;}</style></defs><title>Asset 2</title><g id="Layer_2" data-name="Layer 2"><g id="Layer_1-2" data-name="Layer 1"><rect class="cls-1" width="392.48" height="196.21"/><path class="cls-2" d="M120.94,166.42C47.72,166.77,14.69,129.71,0,100.21v96H392.48V0H239.42C274.92,58.36,240.41,165.85,120.94,166.42Z"/><path class="cls-3" d="M201.47,196.21l0-4.75,6.92-.36.07,5.11h19.87l0-7.61a3.34,3.34,0,0,1-.55-.4l-.06-.07a21.26,21.26,0,0,1-4-4l-2.8.83c-1-.85-25.72-14-25.72-14l-.25-5.32-.51-.23.23-5.9,0-.75-1.51,6-11.57-2.65c-1.16,3.78-3.08,10-3.35,10.59-.17.4.74,11.44,1.81,23.57Z"/><path class="cls-4" d="M259.6,117.68l4.28,14.47,8.49,3.6.11,7,.36-.06v1.27c.62-.81,2.12-.65,3.37-.14,0-.2,0-.32,0-.32l-.64-4.38-3.08-29.85s-27.93-16.64-36.2-21.69a6.93,6.93,0,0,0-1.72-.77l-2.12,20.54C242.76,111.92,259.6,117.68,259.6,117.68Z"/><path class="cls-4" d="M271.63,171a6,6,0,0,0,.66-1.33l-2,.58C270.63,171,271.3,171.22,271.63,171Z"/><path class="cls-4" d="M273.88,156.06a10.82,10.82,0,0,1,2.58-3.05,20.55,20.55,0,0,1-3.59-6.49l.05,6-.28.06.11,6.46L273,159l-.05,9.17c1.27-3.16,3.1-8.09,3.87-10.39l-2.45,2.46S272.69,158.08,273.88,156.06Z"/><path class="cls-5" d="M272.85,143.92l0,2.6a20.55,20.55,0,0,0,3.59,6.49,10.82,10.82,0,0,0-2.58,3.05c-1.19,2,.47,4.16.47,4.16l2.45-2.46,3.8-3.82-2.53-8.77a3.59,3.59,0,0,0-1.85-1.39C275,143.27,273.47,143.11,272.85,143.92Zm3.58,13.35A.92.92,0,0,0,276,157a1.11,1.11,0,0,0-.88.27,3.44,3.44,0,0,0-.75.77,6.21,6.21,0,0,0-.55,1.06,2.53,2.53,0,0,1,.21-1.27,2.48,2.48,0,0,1,.82-1,1.87,1.87,0,0,1,.28-.16l.15-.07.17,0a1,1,0,0,1,.69.07,1.08,1.08,0,0,1,.48.49,1.57,1.57,0,0,1,.18.62A3.54,3.54,0,0,0,276.43,157.27Z"/><path class="cls-6" d="M276.14,156.62a1,1,0,0,0-.69-.07l-.17,0-.15.07a1.87,1.87,0,0,0-.28.16,2.48,2.48,0,0,0-.82,1,2.53,2.53,0,0,0-.21,1.27,6.21,6.21,0,0,1,.55-1.06,3.44,3.44,0,0,1,.75-.77A1.11,1.11,0,0,1,276,157a.92.92,0,0,1,.43.25,3.54,3.54,0,0,1,.37.46,1.57,1.57,0,0,0-.18-.62A1.08,1.08,0,0,0,276.14,156.62Z"/><path class="cls-7" d="M200.05,91.35c4.77,5.78-2.94,36-5.05,43.88l.27.11,5.59-1.34,4.73-18.7c1.07-17.61-4.19-28.08-5.86-30.93a23.47,23.47,0,0,0-7.15,4.77C194.92,87.65,197.51,88.26,200.05,91.35Z"/><path class="cls-7" d="M224.07,113.54l2.67-29.15-4.29-1L220.39,83a7.29,7.29,0,0,0,.51,2c1.66,3.66-9.35,9.48-12.55-2.12.05-.32.09-.64.14-1a36,36,0,0,0-4.06.8c5.72,8.33,6.28,28.27,6.33,32.07Z"/><polygon class="cls-7" points="194.61 158.73 194.47 155.85 183.45 147.04 181.33 162 181.53 162.05 193.1 164.7 194.61 158.73"/><path class="cls-7" d="M228.5,113.12l-.76,9a4.26,4.26,0,0,1,1,.4,6.31,6.31,0,0,1,2.13-.79l1.5-14.46,2.12-20.54.05-.5-4.23-1Z"/><path class="cls-8" d="M237.58,124.93a7.25,7.25,0,0,1,.8,1.85,6.17,6.17,0,0,1,2.06-1.4,5.78,5.78,0,0,1,5.74.77,11.38,11.38,0,0,1,3.53,2.38,5.34,5.34,0,0,1,.95,1.18,6.47,6.47,0,0,1,4.29,2,7.22,7.22,0,0,1,1.3,1.87,5.47,5.47,0,0,1,1-.56,6,6,0,0,1,7.94,3.79c0,.11.07.22.1.33l7-1.39-8.49-3.6-20.47-8.67Z"/><path class="cls-8" d="M203,138.56a6.44,6.44,0,0,1,3.79-4.7,5.77,5.77,0,0,1,5.38.51,6.92,6.92,0,0,1,.62-3.26v0c-4.33,1.07-8.46,2.08-11.89,2.91l-5.59,1.34Z"/><path class="cls-8" d="M223.63,130.81a4.22,4.22,0,0,1,1.83-.51,7.26,7.26,0,0,1-.09-2.33l-3.35.83A6.65,6.65,0,0,1,223.63,130.81Z"/><path class="cls-9" d="M233.94,143.22a6.75,6.75,0,0,1-3.29-7.37l-.09,0a6.94,6.94,0,0,1-5.1-5.53,4.22,4.22,0,0,0-1.83.51,7,7,0,0,1,.45,5.27,6.47,6.47,0,0,1,3.89,2,7.48,7.48,0,0,1,2,6.07l4.14-.81Z"/><path class="cls-9" d="M243.73,138a5.65,5.65,0,0,1-1,.1,7,7,0,0,1-.57,2.08,6.37,6.37,0,0,1-1.15,1.73l4-.78A7.52,7.52,0,0,1,243.73,138Z"/><path class="cls-9" d="M217.17,140.49a5.74,5.74,0,0,1-1.61-.57,4.76,4.76,0,0,1-.49-.28,7,7,0,0,1-.81,3.66l2.49,1A7.66,7.66,0,0,1,217.17,140.49Z"/><path class="cls-10" d="M212.12,134.37a5.77,5.77,0,0,0-5.38-.51,6.44,6.44,0,0,0-3.79,4.7l11.31,4.74a7,7,0,0,0,.81-3.66,4.76,4.76,0,0,0,.49.28,5.74,5.74,0,0,0,1.61.57,7.66,7.66,0,0,0-.42,3.85l3.87,1.62,9.34-1.85a7.48,7.48,0,0,0-2-6.07,6.47,6.47,0,0,0-3.89-2,7,7,0,0,0-.45-5.27,6.65,6.65,0,0,0-1.61-2,6.25,6.25,0,0,0-1.07-.72,6,6,0,0,0-1.16-.46,4.85,4.85,0,0,1-.17,2.94,5.12,5.12,0,0,1-3.08-2.89,6.23,6.23,0,0,0-3.79,3.42v0A6.92,6.92,0,0,0,212.12,134.37Zm6.16-2.19a10,10,0,0,1,4.46,2.68,4.51,4.51,0,0,1,1.43,2.46l.1-.43,1.07.25-.37,2.05a.8.8,0,0,1-1-.1h0C222.62,139.72,217.51,136.08,218.28,132.18Z"/><path class="cls-11" d="M219.62,130.56a4.85,4.85,0,0,0,.17-2.94c-.34-1.37-1.34-3-3.86-4.44a7.68,7.68,0,0,0,.61,4.49A5.12,5.12,0,0,0,219.62,130.56Z"/><path class="cls-10" d="M225.46,130.3a6.94,6.94,0,0,0,5.1,5.53l.09,0a6.75,6.75,0,0,0,3.29,7.37l.16.08,6.91-1.37a6.37,6.37,0,0,0,1.15-1.73,7,7,0,0,0,.57-2.08,5.65,5.65,0,0,0,1-.1,7.52,7.52,0,0,0,1.24,3.13l20.36-4c0-.11-.06-.22-.1-.33a6,6,0,0,0-7.94-3.79,5.47,5.47,0,0,0-1,.56,7.22,7.22,0,0,0-1.3-1.87,6.47,6.47,0,0,0-4.29-2,3.87,3.87,0,0,1,.48,1.27l.1-.43,1.07.26-.37,2c-.34.3-.77.07-1-.1h0c-1.33.62-6.43-3-5.67-6.91a5.66,5.66,0,0,1,.93.3,5.78,5.78,0,0,0-5.74-.77,6.17,6.17,0,0,0-2.06,1.4,7.25,7.25,0,0,0-.8-1.85,6.62,6.62,0,0,0-4.16-3.08,6.22,6.22,0,0,0-2.5-.08,6.31,6.31,0,0,0-2.13.79,3.25,3.25,0,0,1,1,.81l-.12-.42,1-.39.69,2a.83.83,0,0,1-.92.48v0c-.45.69-2.44.94-4.38.43a7.52,7.52,0,0,0-.65,1.87,5,5,0,0,0-.1.66A7.26,7.26,0,0,0,225.46,130.3ZM238,133.86c-.84,0-4.39-2.3-3.69-7.38C239.92,129.68,238,133.86,238,133.86Z"/><path class="cls-12" d="M230.5,125a.83.83,0,0,0,.92-.48l-.69-2-1,.39.12.42a3,3,0,0,1,.65,1.36A.74.74,0,0,1,230.5,125Z"/><path class="cls-13" d="M230.5,125l-8.2-2.7a5.15,5.15,0,0,0,3.82,3.13C228.06,126,230.05,125.7,230.5,125Z"/><path class="cls-13" d="M230.47,124.73a1.78,1.78,0,0,1,0,.28v0A.74.74,0,0,0,230.47,124.73Z"/><path class="cls-14" d="M230.5,125a1.78,1.78,0,0,0,0-.28,3,3,0,0,0-.65-1.36,3.25,3.25,0,0,0-1-.81,4.26,4.26,0,0,0-1-.4l-.34-.08a9.49,9.49,0,0,0-5.1.23Z"/><path class="cls-12" d="M251,132.51a1,1,0,0,1-.1.24c.24.17.67.4,1,.1l.37-2-1.07-.26-.1.43A3.11,3.11,0,0,1,251,132.51Z"/><path class="cls-13" d="M250.92,132.76h0a1,1,0,0,0,.1-.24A2,2,0,0,1,250.92,132.76Z"/><path class="cls-13" d="M245.25,125.85c-.76,3.89,4.34,7.53,5.67,6.91Z"/><path class="cls-14" d="M249.71,128.53a11.38,11.38,0,0,0-3.53-2.38,5.66,5.66,0,0,0-.93-.3l5.67,6.91a2,2,0,0,0,.11-.25,3.11,3.11,0,0,0,.11-1.53,3.87,3.87,0,0,0-.48-1.27A5.34,5.34,0,0,0,249.71,128.53Z"/><path class="cls-12" d="M224.05,138.85a.79.79,0,0,1-.09.24.8.8,0,0,0,1,.1l.37-2.05-1.07-.25-.1.43A3,3,0,0,1,224.05,138.85Z"/><path class="cls-13" d="M223.94,139.1l-5.66-6.92C217.51,136.08,222.62,139.72,223.94,139.1Z"/><path class="cls-13" d="M223.94,139.1h0a.79.79,0,0,0,.09-.24A1.06,1.06,0,0,1,223.94,139.1Z"/><path class="cls-14" d="M223.94,139.1a1.06,1.06,0,0,0,.11-.25,3,3,0,0,0,.12-1.53,4.51,4.51,0,0,0-1.43-2.46,10,10,0,0,0-4.46-2.68Z"/><path class="cls-11" d="M234.32,126.48c-.7,5.08,2.85,7.34,3.69,7.38C238,133.86,239.92,129.68,234.32,126.48Z"/><path class="cls-5" d="M220.9,85a7.29,7.29,0,0,1-.51-2,32.68,32.68,0,0,1,.59-8.66c-.7-.1-1.37-.23-2.07-.33a9.52,9.52,0,0,1-5.76-3.23c-.69-.79-1.47-1.75-2.28-2.83a4.62,4.62,0,0,1-.63-.11c-.42,3.75-1.05,9.09-1.75,14.08-.05.33-.09.65-.14,1C211.55,94.51,222.56,88.69,220.9,85Z"/><path class="cls-4" d="M215.48,48.33v0h0Z"/><path class="cls-4" d="M213.15,70.8A9.52,9.52,0,0,0,218.91,74c.7.1,1.37.23,2.07.33,2.37.34,5.07.38,10.18-1.78a115.21,115.21,0,0,0-1.76-14.07l-1.26.72a1,1,0,0,1,.06.31c0,.48-.15.93-.42,1s-.51-.22-.55-.69v-.13l-.5.28a2.69,2.69,0,0,1,1-1.61,1.27,1.27,0,0,1,1.68.05A50,50,0,0,0,228,53c-.13.09-.25.18-.39.26a3.92,3.92,0,0,1-1,.42,3.25,3.25,0,0,1-1.21.14A2.88,2.88,0,0,1,226,52.6a3.25,3.25,0,0,1,.89-.77,3.08,3.08,0,0,1,.61-.28c-.31-.84-.65-1.64-1-2.39a2.19,2.19,0,0,1-1.65.77,2.17,2.17,0,0,1-1.7-.85,2.23,2.23,0,0,1-1.92,1.15,2.13,2.13,0,0,1-1.47-.59,2.25,2.25,0,0,1-2,1.38,2.13,2.13,0,0,1-1.11-.31,2.31,2.31,0,0,1-2.23,2.13l-.31,0a2.53,2.53,0,0,1,0,.28,2.4,2.4,0,0,1-1.52,2.28,2.54,2.54,0,0,1,.27,3.24,2.46,2.46,0,0,1,1.08,2.06,2.35,2.35,0,0,1-2,2.4h0c-1.69-1-6.41-3.65-7.06-1.27a3.7,3.7,0,0,0,.91,3,8.32,8.32,0,0,0,4.5,3,4.62,4.62,0,0,0,.63.11C211.68,69.05,212.46,70,213.15,70.8Zm10.64-13.52a.35.35,0,0,1,.45.12,74.66,74.66,0,0,1,4.9,6.76c.13.25-1.89,1.3-2.65,1.78a.37.37,0,0,1-.55-.23l-2.36-7.94A.4.4,0,0,1,223.79,57.28Zm-.14,11.25a16.91,16.91,0,0,0,2.2-.47c.73-.2,1.45-.45,2.18-.72a5.24,5.24,0,0,1-.71.53l-.24,2a12.22,12.22,0,0,1-5.19-.63l-.5,0a7.78,7.78,0,0,1-2.27-.6c.78,0,1.54.09,2.29.07A18.63,18.63,0,0,0,223.65,68.53Zm-.54-7.59L221,62a1,1,0,0,1,.2.49c.07.48-.1,1-.39,1.06s-.59-.18-.66-.66a1.34,1.34,0,0,1,0-.49l-.62.31A3.08,3.08,0,0,1,220.9,61,1.92,1.92,0,0,1,223.11,60.94ZM216.49,56a3.93,3.93,0,0,1,1.47-1.1,4.52,4.52,0,0,1,1.72-.35,3.76,3.76,0,0,1,1.71.4,8.42,8.42,0,0,1-1.49.84c-.48.22-.93.4-1.38.6l-1.32.6c-.45.22-.89.46-1.44.77A2.93,2.93,0,0,1,216.49,56Zm-7.09,6.74a2.88,2.88,0,0,1,1,.6,2.23,2.23,0,0,1,.66,1c-.36-.17-.66-.33-1-.47a8.89,8.89,0,0,0-.93-.36,9.48,9.48,0,0,0-.95-.27c-.33-.07-.66-.12-1.05-.19a2.06,2.06,0,0,1,1.07-.44A2.84,2.84,0,0,1,209.4,62.75Z"/><path class="cls-15" d="M219.54,62.69l.62-.31a1.34,1.34,0,0,0,0,.49c.07.48.37.77.66.66s.46-.58.39-1.06A1,1,0,0,0,221,62l2.12-1a1.92,1.92,0,0,0-2.21,0A3.08,3.08,0,0,0,219.54,62.69Z"/><path class="cls-15" d="M227.71,58.41a2.69,2.69,0,0,0-1,1.61l.5-.28v.13c0,.47.28.78.55.69s.46-.54.42-1a1,1,0,0,0-.06-.31l1.26-.72h0l0,0A1.27,1.27,0,0,0,227.71,58.41Z"/><path class="cls-5" d="M225.94,65.71a.37.37,0,0,0,.55.23c.76-.48,2.78-1.53,2.65-1.78a74.66,74.66,0,0,0-4.9-6.76.35.35,0,0,0-.45-.12.4.4,0,0,0-.21.49Z"/><path class="cls-15" d="M218.52,56.4c.45-.2.9-.38,1.38-.6a8.42,8.42,0,0,0,1.49-.84,3.76,3.76,0,0,0-1.71-.4,4.52,4.52,0,0,0-1.72.35,3.93,3.93,0,0,0-1.47,1.1,2.93,2.93,0,0,0-.73,1.76c.55-.31,1-.55,1.44-.77Z"/><path class="cls-15" d="M226,52.6a2.88,2.88,0,0,0-.58,1.19,3.25,3.25,0,0,0,1.21-.14,3.92,3.92,0,0,0,1-.42c.14-.08.26-.17.39-.26l.43-.34.87-.8a1.59,1.59,0,0,0-1.26-.39,1.92,1.92,0,0,0-.54.11,3.08,3.08,0,0,0-.61.28A3.25,3.25,0,0,0,226,52.6Z"/><path class="cls-3" d="M202.28,57.53a2.41,2.41,0,0,1,1.5-2.27,2.6,2.6,0,0,1-.34-1.28,2.35,2.35,0,0,1,2.14-2.41,2.64,2.64,0,0,1,0-.29A2.41,2.41,0,0,1,207,49a2.51,2.51,0,0,1-.06-.55,2.35,2.35,0,0,1,2.13-2.41,2.31,2.31,0,0,1,1.89-1.8,2.33,2.33,0,0,1,2.24-2.39,2.26,2.26,0,0,1,.74.13,2.22,2.22,0,0,1,1.81-1,2,2,0,0,1,.77.15,2.19,2.19,0,0,1,1.77-.94,2.09,2.09,0,0,1,1.33.47,2.15,2.15,0,0,1,3.69.19,2.1,2.1,0,0,1,1.26-.42,2.13,2.13,0,0,1,1,.26c4-9.22-3.51-11.58-9.11-11.33-4.15.18-10.24,2-11.92,8.64-5.3,3.84-10.18,11.84-2.16,20.76l.16-.19A2.5,2.5,0,0,1,202.28,57.53Z"/><polygon class="cls-16" points="265.33 137.14 244.97 141.15 241.01 141.94 234.1 143.3 229.96 144.11 220.62 145.96 220.66 151.37 272.48 142.71 272.37 135.75 265.33 137.14"/><path class="cls-16" d="M272.64,152.58,221,163.42l0,.8-.32-.2v.49c.92.9,1.85,1.79,2.76,2.67l.61.4c1.67-.69,5.25-1.48,10.39,1l.22.11c14.81-3.79,35.6-9.08,38-9.69Z"/><path class="cls-17" d="M194.92,165.61l.25,5.32s24.68,13.18,25.72,14l-.5-5.3c-.86-1.28-1.62-2.5-2.16-3.51Z"/><path class="cls-17" d="M220.56,151l0,.36h.08l0-5.41-3.87-1.62-2.49-1L203,138.56l-7.68-3.22-.27-.11c-.32,1.19-.51,1.87-.51,1.87s1.54,1.71,4.08,4.46Z"/><polygon class="cls-17" points="194.64 159.48 194.75 156.64 196.27 157.28 194.47 155.85 194.61 158.73 194.64 159.48"/><path class="cls-17" d="M220.09,163.62l-.17,0v-.15l-.49-.3,1.33,1.3V164Z"/><polygon class="cls-18" points="220.66 151.37 220.58 151.38 221.03 163.42 272.64 152.58 272.92 152.52 272.87 146.52 272.85 143.92 272.84 142.65 272.48 142.71 220.66 151.37"/><polygon class="cls-18" points="219.91 163.66 220.09 163.62 219.91 163.51 219.91 163.66"/><path class="cls-18" d="M272.93,168.15,273,159l-.23.06c-2.42.61-23.21,5.9-38,9.69,7.1,3.44,8.32,1.76,8.32,1.76s-.46,3.7-5.32,2.72a11.9,11.9,0,0,0-5.43,0,17.88,17.88,0,0,1,3,2.5,30.35,30.35,0,0,1,2.21,4.3l32.86-9.76,2-.58.63-.19Z"/><path class="cls-18" d="M223.69,184.13c-1.14-1.41-2.3-3-3.3-4.47l.5,5.3Z"/><path class="cls-8" d="M220.09,163.62l.65.4.32.2,0-.8-.45-12,0-.36-22-9.46c4.66,5.05,12.69,13.61,20.85,21.65l.49.3Z"/><path class="cls-8" d="M194.75,156.64l-.11,2.84-.23,5.9.51.23,23.31,10.54a8.66,8.66,0,0,1-.86-2l-21.1-16.86Z"/><path class="cls-5" d="M232.3,173.23a11.9,11.9,0,0,1,5.43,0c4.86,1,5.32-2.72,5.32-2.72s-1.22,1.68-8.32-1.76l-.22-.11c-5.14-2.52-8.72-1.73-10.39-1l-.61-.4c-.91-.88-1.84-1.77-2.76-2.67l-1.33-1.3c-8.16-8-16.19-16.6-20.85-21.65-2.54-2.75-4.08-4.46-4.08-4.46s.19-.68.51-1.87c2.11-7.85,9.82-38.1,5.05-43.88-2.54-3.09-5.13-3.7-7.47-2.21-2.72,1.74-5.1,6.3-6.69,13.14-3,12.73-7.28,40.89-7.28,40.89l4.84,3.87,11,8.81,1.8,1.43,21.1,16.86a8.66,8.66,0,0,0,.86,2c.54,1,1.3,2.23,2.16,3.51,1,1.49,2.16,3.06,3.3,4.47a21.26,21.26,0,0,0,4,4l.06.07a3.34,3.34,0,0,0,.55.4,2.43,2.43,0,0,0,3.64-1.26c.79,0,1.55-.55,2.47-2.32a2.29,2.29,0,0,0,1.7-1.29,2.84,2.84,0,0,0,2.06-1.63,6.44,6.44,0,0,0-.65-2.07,30.35,30.35,0,0,0-2.21-4.3A17.88,17.88,0,0,0,232.3,173.23Z"/><path class="cls-15" d="M204.83,61.81c.65-2.38,5.37.25,7.06,1.27h0a2.35,2.35,0,0,0,2-2.4,2.46,2.46,0,0,0-1.08-2.06,2.54,2.54,0,0,0-.27-3.24,2.4,2.4,0,0,0,1.52-2.28,2.53,2.53,0,0,0,0-.28l.31,0a2.31,2.31,0,0,0,2.23-2.13,2.13,2.13,0,0,0,1.11.31,2.25,2.25,0,0,0,2-1.38,2.13,2.13,0,0,0,1.47.59,2.23,2.23,0,0,0,1.92-1.15,2.17,2.17,0,0,0,1.7.85,2.19,2.19,0,0,0,1.65-.77,2.48,2.48,0,0,0,.59-1.46,2.39,2.39,0,0,0,1.6-2.31A2.36,2.36,0,0,0,226.79,43a.49.49,0,0,0,0-.12,2.42,2.42,0,0,0-1.24-2.15,2.13,2.13,0,0,0-1-.26,2.1,2.1,0,0,0-1.26.42,2.15,2.15,0,0,0-3.69-.19,2.09,2.09,0,0,0-1.33-.47,2.19,2.19,0,0,0-1.77.94,2,2,0,0,0-.77-.15,2.22,2.22,0,0,0-1.81,1,2.26,2.26,0,0,0-.74-.13,2.33,2.33,0,0,0-2.24,2.39,2.31,2.31,0,0,0-1.89,1.8,2.35,2.35,0,0,0-2.13,2.41A2.51,2.51,0,0,0,207,49a2.41,2.41,0,0,0-1.42,2.24,2.64,2.64,0,0,0,0,.29A2.35,2.35,0,0,0,203.44,54a2.6,2.6,0,0,0,.34,1.28,2.41,2.41,0,0,0-1.5,2.27,2.5,2.5,0,0,0,.25,1.1l-.16.19a2.53,2.53,0,0,0-.48,1.5,2.47,2.47,0,0,0,.87,1.91,1.87,1.87,0,0,0,0,.34A2.34,2.34,0,0,0,205,65a1.91,1.91,0,0,0,.76-.15A3.7,3.7,0,0,1,204.83,61.81Zm10.65-13.48,0,0h0Z"/><path class="cls-19" d="M207.17,63.07c.39.07.72.12,1.05.19a9.48,9.48,0,0,1,.95.27,8.89,8.89,0,0,1,.93.36c.31.14.61.3,1,.47a2.23,2.23,0,0,0-.66-1,2.88,2.88,0,0,0-1-.6,2.84,2.84,0,0,0-1.16-.12A2.06,2.06,0,0,0,207.17,63.07Z"/><path class="cls-7" d="M223.73,69.2a9.42,9.42,0,0,1-1.84.09,12.22,12.22,0,0,0,5.19.63l.24-2a9.25,9.25,0,0,1-1.32.7A9.45,9.45,0,0,1,223.73,69.2Z"/><path class="cls-19" d="M219.12,68.65a7.78,7.78,0,0,0,2.27.6l.5,0a9.48,9.48,0,0,0,4.11-.72,9.25,9.25,0,0,0,1.32-.7,5.24,5.24,0,0,0,.71-.53c-.73.27-1.45.52-2.18.72a16.91,16.91,0,0,1-2.2.47,18.63,18.63,0,0,1-2.24.19C220.66,68.74,219.9,68.7,219.12,68.65Z"/><path class="cls-3" d="M205.59,115.3,200.86,134c3.43-.83,7.56-1.84,11.89-2.91a6.23,6.23,0,0,1,3.79-3.42,7.68,7.68,0,0,1-.61-4.49c2.52,1.44,3.52,3.07,3.86,4.44a6,6,0,0,1,1.16.46,6.25,6.25,0,0,1,1.07.72l3.35-.83a5,5,0,0,1,.1-.66,7.52,7.52,0,0,1,.65-1.87,5.15,5.15,0,0,1-3.82-3.13,9.49,9.49,0,0,1,5.1-.23l.34.08.76-9,1.86-27.86.09-1.32-3.57-1.09-.14,1.54-2.67,29.15-13.31,1.27c0-3.8-.61-23.74-6.33-32.07l-.45-.62a24.31,24.31,0,0,0-4.75,1.46s.19.26.5.79C201.4,87.22,206.66,97.69,205.59,115.3Z"/><path class="cls-10" d="M349.43,110.94l-.7-.1.23.56A5.13,5.13,0,0,1,349.43,110.94Z"/><path class="cls-10" d="M349.56,115.43l0,0s0,0,0-.08Z"/><path class="cls-10" d="M351.85,116.45a4,4,0,0,0,1.09,0,4.45,4.45,0,0,0,3.28-2.35c-.07-.3-.12-.6-.17-.9A12.17,12.17,0,0,1,351.85,116.45Z"/><path class="cls-20" d="M326.94,82.46,329.48,78l-5.63-1.45-.7,2C325.82,81.32,326.94,82.46,326.94,82.46Z"/><path class="cls-20" d="M349.39,114a6.87,6.87,0,0,1-1.7,0A4.69,4.69,0,0,1,349,111.4l-.23-.56a9.85,9.85,0,0,1-4.09-1.56,4,4,0,0,1,1.24-1.24,18,18,0,0,1-2-1.57,10.92,10.92,0,0,1,5-3.86,14.29,14.29,0,0,1-3.4-7,11.54,11.54,0,0,1,3.18-.4,3.55,3.55,0,0,1-.88-1.56,7.25,7.25,0,0,1,3-.14,15.84,15.84,0,0,1-.7-4.45,17.16,17.16,0,0,1-4.53,4,60,60,0,0,0-6.24,15.24,57,57,0,0,0-1.18,7.47,9.5,9.5,0,0,0,1.85-2.42,11,11,0,0,0,3.21,6.09,9.26,9.26,0,0,0,1.71-5.3,10.47,10.47,0,0,0,4.2,3.62,10.21,10.21,0,0,0,.46-2.33v-.06A12.41,12.41,0,0,1,349.39,114Z"/><path class="cls-20" d="M329,90.6c-.32.21-1.23-.17-2.42-.85a12.72,12.72,0,0,1,1,1.14,14.16,14.16,0,0,1-1.64,1.26,3.26,3.26,0,0,1,1,1,8.18,8.18,0,0,1-3.84,1.33,4.12,4.12,0,0,1,1.34,2.18l4.35,1.12,1.61-5.8a5.33,5.33,0,0,1-.41-1.43l-.76-.19A1.07,1.07,0,0,1,329,90.6Z"/><path class="cls-20" d="M331.7,87.13l1.8-6.5-.37-.3c-.78,2.28-1.62,4.66-2.36,6.56Z"/><path class="cls-20" d="M340.31,86c-.46,0-.9-.11-1.31-.19q0,.73,0,1.59A8.48,8.48,0,0,1,340.31,86Z"/><path class="cls-20" d="M338.26,96.27c-1,6-1.63,11.5-1.63,11.5a127.07,127.07,0,0,1,6.42-13.4c-.6.27-1.22.52-1.88.75a21,21,0,0,1-.92-4.6,11.29,11.29,0,0,1-1.33.07C338.81,92.25,338.6,94.13,338.26,96.27Z"/><path class="cls-20" d="M335.74,84.89l-6,22.56,2.4,3s3.79-6.39,5-18.21a59.39,59.39,0,0,0,.4-6.76A16.63,16.63,0,0,1,335.74,84.89Z"/><path class="cls-20" d="M328.6,63.13l1.16.3a14.74,14.74,0,0,1-.46-2.29Z"/><path class="cls-20" d="M334.72,64.72c-.07-.28-.14-.56-.2-.85l1.06-.24.18-.3a4.41,4.41,0,0,1-1.08-2.14,13.92,13.92,0,0,1-4.09,2.46Z"/><path class="cls-20" d="M316.94,72.08l0,0,3.78,4,6.87-18.7A9.13,9.13,0,0,1,324.52,56l.17-.25a9.75,9.75,0,0,1-2,.45,3.92,3.92,0,0,1,1.4,2.49,6,6,0,0,1-1.36,0,11.51,11.51,0,0,1-.51,2.55,10.62,10.62,0,0,1-4.94-3.35,9.53,9.53,0,0,1-1.87,5.43,14.2,14.2,0,0,1-1.72-1.62,2,2,0,0,1,0,.22.74.74,0,0,1,0,.21h0l.17,0-.15.1-.07,0a3.2,3.2,0,0,1-.1.42l.28.41v0l.2.29a5.31,5.31,0,0,0,.63,2.26c.28.33-.26.54-.8.62a10.32,10.32,0,0,1-.14,3.1c-.06.33-1.46.78-2.54.38-.05.49-.11,1.12-.16,1.79l1.63,0,.24-.55,2.38.24-.22.47c.67.08,1.29.17,1.84.29Z"/><path class="cls-20" d="M336.63,63.44h.12l-.06-.17Z"/><path class="cls-20" d="M345.92,65.26c-.14-.55-.26-1.12-.35-1.71a10.57,10.57,0,0,1-2.26-4,11.73,11.73,0,0,1-1.8,3.71l-.07.26A13.22,13.22,0,0,1,345.92,65.26Z"/><path class="cls-20" d="M331.42,69.33a6.6,6.6,0,0,1,1.83.63c0-.73-.05-1.42-.08-1.77l-5.83-1.51L325.1,73l6.3,1.64,1.13-2A4.37,4.37,0,0,1,331.42,69.33Z"/><path class="cls-20" d="M335.14,74.69l-.13-.06c-.08.28-.18.57-.28.88l.17,0Z"/><path class="cls-20" d="M339.44,74c-.2-.21-.41-.44-.61-.68l-.27,1C338.85,74.2,339.15,74.08,339.44,74Z"/><path class="cls-20" d="M339.62,32.3v0a10.21,10.21,0,0,1-3.1-1.84,5.84,5.84,0,0,1-1.66,3.67,13.08,13.08,0,0,1,1.17.75A10.41,10.41,0,0,1,339.62,32.3Z"/><path class="cls-20" d="M326.05,44.87l-.24-.69-.15.57Z"/><path class="cls-20" d="M326.38,47.56a4.82,4.82,0,0,1-1.07-1.72,10.36,10.36,0,0,1-2.16,3.64,8.24,8.24,0,0,1,1.47.71A4.78,4.78,0,0,1,326.38,47.56Z"/><path class="cls-20" d="M327.85,114.43a14.08,14.08,0,0,0,2.84,2,37.74,37.74,0,0,0-2-5.07Z"/><path class="cls-20" d="M325.16,105.06a8.24,8.24,0,0,1-1.26,4l1.61.42.73-2.65C325.88,106.25,325.52,105.64,325.16,105.06Z"/><path class="cls-20" d="M319.15,112.65l-1.76-.46.93,1.49A10.11,10.11,0,0,0,319.15,112.65Z"/><path class="cls-20" d="M324.27,114l-3.9-1a13.44,13.44,0,0,0,2.8,5Z"/><polygon class="cls-20" points="327.02 104.05 327.75 101.4 324.19 100.48 327.02 104.05"/><path class="cls-20" d="M320.65,108.25a6.65,6.65,0,0,1,0-1.89,9.52,9.52,0,0,1-4.14.74,5.85,5.85,0,0,1,6.11-5.88l-1-1.39-4.45-1.15a11,11,0,0,1-1.46,2.93c-.22-.17-.42-.34-.61-.51l-1.7,4.82.35.56Z"/><path class="cls-20" d="M312.22,97.43l.06,1.59.36-1c-.14-.25-.26-.51-.38-.76Z"/><path class="cls-20" d="M296.16,101.35a4.77,4.77,0,0,1-2.77-3.83,5.09,5.09,0,0,1,.34-2.56A7.08,7.08,0,0,1,292.06,92c-.19-1.18.94-4.68,2.31-8.32,1.48-4.84,3.37-10.41,4.36-10.9a6.12,6.12,0,0,1,1.72-.58l.05-.17s.91-.09,2.33-.19c0-.32.06-.5.06-.5l1.73-.16,0,.54,1.41-.07.13-2.3a10.48,10.48,0,0,1-2.45-1.12c-.68,1.35-2.81,1.88-3.24,1.46,0,0,0,0,0-.13a1.65,1.65,0,0,1,1.13-1.53,4.7,4.7,0,0,1,2.22-.46,6.13,6.13,0,0,0,1.11-3.86,8.3,8.3,0,0,1-1.29-4.11,2.11,2.11,0,0,1-1.09,0,.42.42,0,0,1-.21-.07c-.36-.64.24-2.57,1.41-4a7.72,7.72,0,0,1-4.38-.78,3.37,3.37,0,0,1-.21,2.37,2.89,2.89,0,0,1-4,1.38,3.33,3.33,0,0,1-1.29-4.32,3.21,3.21,0,0,1,.49-.73A2.43,2.43,0,0,1,293,51.64a4.33,4.33,0,0,1,2.23.53,2.87,2.87,0,0,1,.56.38,2.81,2.81,0,0,1,2.07.27,3.08,3.08,0,0,1,1,.87,10.7,10.7,0,0,1,3.51-3.94,8.75,8.75,0,0,1-4.26-5.27,13.81,13.81,0,0,1,1.8-.58,4.31,4.31,0,0,1-2.73-2.77,8,8,0,0,1,4,0,4.17,4.17,0,0,1-.59-2.84,7.22,7.22,0,0,1,2.26,1,11.31,11.31,0,0,1,.55-3.37,10.22,10.22,0,0,1,5.35,4,9.64,9.64,0,0,1,2.64-3.72,13.9,13.9,0,0,1,1.83,3,3.82,3.82,0,0,1,1.54-2.2,8.31,8.31,0,0,1,.8,2.46,9.29,9.29,0,0,1,3.07-2.43,11.23,11.23,0,0,1,.93,7.6,7.8,7.8,0,0,1,6.15-.82c-.14-.48-.28-1-.4-1.51a9.77,9.77,0,0,1,7.88,1,13.52,13.52,0,0,1,.8-8.58l-.34.13a1.09,1.09,0,0,1-.08.15c-4.18-.81-5.24-5.06-5.51-6.94l-.48-.25a12,12,0,0,0-.57,3.05,13.4,13.4,0,0,0-4.21-2.49,11.59,11.59,0,0,0,1.62,9.1,9.86,9.86,0,0,0-5.63-.78A16.83,16.83,0,0,0,320,33.4a9.32,9.32,0,0,0-8.19,2.41,13.89,13.89,0,0,0-.69-9.75,10.85,10.85,0,0,0-4.87,7.33,12.4,12.4,0,0,0-5.91-5.73,12,12,0,0,0-.57,3.05,13.4,13.4,0,0,0-4.21-2.49,11.59,11.59,0,0,0,1.62,9.1c-2.27-1-5.23-1.38-8.95.16a10,10,0,0,0,6.35,5.75,11.36,11.36,0,0,0-4.09,3.53,14.18,14.18,0,0,0-2.73-1.36,11.6,11.6,0,0,0,1.62,9.09c-2.26-1.05-5.22-1.38-8.94.16a10,10,0,0,0,6.34,5.76,12.68,12.68,0,0,0-5.64,6.11,9.22,9.22,0,0,0,1.89.65c-.16.25-.33.5-.49.76a9.12,9.12,0,0,0,8.46.54,12.37,12.37,0,0,0-2.16,6,13,13,0,0,0-5-4.12,12,12,0,0,0-.57,3,13.39,13.39,0,0,0-4.21-2.48A11.56,11.56,0,0,0,280.67,80c-2.27-1-5.23-1.38-8.95.16a10,10,0,0,0,6.35,5.76A12.69,12.69,0,0,0,272.42,92a9.51,9.51,0,0,0,1.9.65c-.17.24-.33.5-.5.76a9.12,9.12,0,0,0,8.46.54,13.74,13.74,0,0,0-2.16,9.51,10,10,0,0,0,6.72-5.29,12.47,12.47,0,0,0,.45,1.88,15.14,15.14,0,0,0-3,4.19,10.1,10.1,0,0,0,1.89.65c-.16.24-.33.49-.49.76a9.12,9.12,0,0,0,8.46.54,13.72,13.72,0,0,0-2.17,9.5,9.52,9.52,0,0,0,5-2.88c-.13-.81-.27-1.51-.45-2.21C294.66,107.7,295.14,104.2,296.16,101.35ZM296,72.93a3.11,3.11,0,0,1-3.56-2.69,3.3,3.3,0,0,1,2.5-3.83,3.12,3.12,0,0,1,.86,0,2.67,2.67,0,0,1,.58-2.29,5.12,5.12,0,0,1,1,2.3,2.69,2.69,0,0,1,.06.72,3.35,3.35,0,0,1,1.09,2A3.3,3.3,0,0,1,296,72.93Z"/><path class="cls-20" d="M297.47,91.08l.69,1a2.6,2.6,0,0,1,.39,0c-.06-1-.11-2-.13-2.94Z"/><path class="cls-13" d="M303.66,67.75l-3.23,2c.43.42,2.56-.11,3.24-1.46a3.13,3.13,0,0,1-.3-.2A3.23,3.23,0,0,0,303.66,67.75Z"/><path class="cls-13" d="M300.43,69.73a.73.73,0,0,1,0-.13C300.42,69.68,300.42,69.72,300.43,69.73Z"/><path class="cls-14" d="M303.66,67.75l.11-.14a4.7,4.7,0,0,0-2.22.46,1.65,1.65,0,0,0-1.13,1.53.73.73,0,0,0,0,.13Z"/><path class="cls-10" d="M297.46,67.11a1.48,1.48,0,0,1-.58,1.15.29.29,0,0,1-.1.06c-.35-.08-.8-1-.94-1.94a3.12,3.12,0,0,0-.86,0,3.3,3.3,0,0,0-2.5,3.83A3.11,3.11,0,0,0,296,72.93a3.3,3.3,0,0,0,2.51-3.83A3.35,3.35,0,0,0,297.46,67.11Z"/><path class="cls-13" d="M296.78,68.32s-.36-4.23-.36-4.23a2.67,2.67,0,0,0-.58,2.29C296,67.36,296.43,68.24,296.78,68.32Z"/><path class="cls-13" d="M296.88,68.26l-.1.06A.29.29,0,0,0,296.88,68.26Z"/><path class="cls-14" d="M296.78,68.32l.1-.06a1.48,1.48,0,0,0,.58-1.15,2.69,2.69,0,0,0-.06-.72,5.12,5.12,0,0,0-1-2.3S296.78,68.29,296.78,68.32Z"/><path class="cls-13" d="M363.37,113.08l.26.36c-.08-.19-.14-.39-.2-.58Z"/><path class="cls-13" d="M356.17,113.05l-.12.14c.05.3.1.6.17.9l0,.14C356.2,113.83,356.18,113.44,356.17,113.05Z"/><path class="cls-11" d="M348.61,95.23a9.08,9.08,0,0,1,3,.56c-.09-.21-.19-.42-.27-.62l-3.65-1.5A3.55,3.55,0,0,0,348.61,95.23Z"/><path class="cls-14" d="M347.73,93.67l3.65,1.5c-.23-.55-.43-1.1-.6-1.64A7.25,7.25,0,0,0,347.73,93.67Z"/><path class="cls-10" d="M293.73,95a5.09,5.09,0,0,0-.34,2.56,4.77,4.77,0,0,0,2.77,3.83,22.41,22.41,0,0,1,1.19-2.71A36.18,36.18,0,0,1,293.73,95Z"/><path class="cls-10" d="M298.6,92.73c0-.2,0-.4-.05-.59a2.6,2.6,0,0,0-.39,0Z"/><path class="cls-11" d="M335.76,63.33l.62-.94.05,0a10.69,10.69,0,0,1-.38-2.68,10.89,10.89,0,0,1-1.37,1.45A4.41,4.41,0,0,0,335.76,63.33Z"/><path class="cls-11" d="M333.56,35a1.09,1.09,0,0,0,.08-.15l.34-.13.37-.88.51.28a5.84,5.84,0,0,0,1.66-3.67,15.15,15.15,0,0,1-3.1-3.7,10.25,10.25,0,0,1,1.86-.86,5,5,0,0,0-.8-.8,11.11,11.11,0,0,0-2,4A5.17,5.17,0,0,0,328,27.15a8.62,8.62,0,0,0,.09.89C328.32,29.92,329.38,34.17,333.56,35Z"/><path class="cls-11" d="M325.16,105.06c-.85-1.38-1.7-2.67-2.5-3.84a5.85,5.85,0,0,0-6.11,5.88,9.52,9.52,0,0,0,4.14-.74,6.65,6.65,0,0,0,0,1.89l3.25.84A8.24,8.24,0,0,0,325.16,105.06Z"/><path class="cls-12" d="M345.55,93.06a20.18,20.18,0,0,1-2.5,1.31,127.07,127.07,0,0,0-6.42,13.4s.66-5.54,1.63-11.5c.34-2.14.55-4,.66-5.68a7.44,7.44,0,0,1-1.13-.07A6.59,6.59,0,0,1,339,87.43q0-.86,0-1.59c-.53-.1-1-.21-1.48-.34a59.39,59.39,0,0,1-.4,6.76c-1.22,11.82-5,18.21-5,18.21l-2.4-3-1,4a37.74,37.74,0,0,1,2,5.07,21.5,21.5,0,0,1,.79,3.45c.57,4.46.13,34.09-1.27,47.72,0,0,1,2,4.78,1.43l0-3.07.11,0,.06-2.84-.38-.07,0-4.28.42.07,0-3,1.88-.69c-.33-12.78-.12-29,1-39.47a57,57,0,0,1,1.18-7.47A60,60,0,0,1,345.55,93.06Z"/><path class="cls-12" d="M325.16,105.06c.36.58.72,1.19,1.08,1.8l.78-2.81-2.83-3.57-2.5-.65,1,1.39C323.46,102.39,324.31,103.68,325.16,105.06Z"/><path class="cls-13" d="M335.43,73.64l-.07-.08L335,74.63l.13.06Z"/><path class="cls-13" d="M331.42,69.33a4.37,4.37,0,0,0,1.11,3.34l.76-1.33Z"/><path class="cls-14" d="M331.42,69.33l1.87,2h0c0-.43,0-.91,0-1.37A6.6,6.6,0,0,0,331.42,69.33Z"/><path class="cls-14" d="M335.62,73a1.27,1.27,0,0,1-.13.19l-.13.41.07.08Z"/><path class="cls-11" d="M330.7,90.75l-.75-.2a5.33,5.33,0,0,0,.41,1.43Z"/><path class="cls-13" d="M312.26,97.27c.12.25.24.51.38.76l5.29-14.37c-.83-.64-1.34-1-1.34-1Z"/><path class="cls-13" d="M318.06,93.37a.75.75,0,0,1,0-.23,1.93,1.93,0,0,1,1.54-.23s0-.08,0-.09c.36-1.06,4.1-2.1,6.31-.67a14.16,14.16,0,0,0,1.64-1.26,12.72,12.72,0,0,0-1-1.14l-.23-.14-6.49-1.68-2.45,6.91,1.4.36A2.66,2.66,0,0,1,318.06,93.37Z"/><path class="cls-13" d="M317.24,98.68l-1.11-.29-1,2.71c.19.17.39.34.61.51A11,11,0,0,0,317.24,98.68Z"/><path class="cls-11" d="M319.6,92.82l7.3.33a3.26,3.26,0,0,0-1-1C323.7,90.72,320,91.76,319.6,92.82Z"/><path class="cls-14" d="M319.6,92.82l0,.09a7,7,0,0,1,3.43,1.57,8.18,8.18,0,0,0,3.84-1.33Z"/><path class="cls-11" d="M323.06,94.48a7,7,0,0,0-3.43-1.57l0-.09s0,0,0,.09a1.93,1.93,0,0,0-1.54.23l5.49,3.3.83.22A4.12,4.12,0,0,0,323.06,94.48Z"/><path class="cls-11" d="M318.06,93.37c0-.15,0-.23,0-.23A.75.75,0,0,0,318.06,93.37Z"/><path class="cls-14" d="M318.08,93.14s0,.08,0,.23a2.66,2.66,0,0,0,.72,1.83l4.79,1.24Z"/><path class="cls-21" d="M298.81,53.69a3.08,3.08,0,0,0-1-.87,2.81,2.81,0,0,0-2.07-.27,1.76,1.76,0,0,1,.35.48v-.2l.48,0,.09.94c-.11.17-.32.13-.45.09h0c-.27.24-1.16.1-1.94-.36a3.21,3.21,0,0,0-.49.73,3.33,3.33,0,0,0,1.29,4.32,2.89,2.89,0,0,0,4-1.38,3.37,3.37,0,0,0,.21-2.37c-.28-.13-.56-.28-.85-.45C298.58,54.1,298.69,53.9,298.81,53.69Z"/><path class="cls-12" d="M296.24,53.71a.2.2,0,0,1,0,.11c.13,0,.34.08.45-.09l-.09-.94-.48,0V53A1.32,1.32,0,0,1,296.24,53.71Z"/><path class="cls-13" d="M296.22,53.83,293,51.64a2.43,2.43,0,0,0,1.32,1.83C295.06,53.93,296,54.07,296.22,53.83Z"/><path class="cls-13" d="M296.24,53.71c0,.07,0,.12,0,.12h0A.2.2,0,0,0,296.24,53.71Z"/><path class="cls-14" d="M296.22,53.83s0,0,0-.12a1.32,1.32,0,0,0-.14-.68,1.76,1.76,0,0,0-.35-.48,2.87,2.87,0,0,0-.56-.38,4.33,4.33,0,0,0-2.23-.53Z"/><path class="cls-13" d="M319.55,44.65a11.23,11.23,0,0,0-.93-7.6,9.29,9.29,0,0,0-3.07,2.43,12.54,12.54,0,0,1,.19,2.09c0,2.26-1.11,3-1.59,3.17a.38.38,0,0,1-.21.07c-.8-.38-1.43-3.32-.73-5.59a13.9,13.9,0,0,0-1.83-3,9.64,9.64,0,0,0-2.64,3.72,10.22,10.22,0,0,0-5.35-4,11.31,11.31,0,0,0-.55,3.37,10.86,10.86,0,0,1,1.57,1.22c1.58,1.49,1.34,2.86,1.16,3.38a.6.6,0,0,1-.08.21,2,2,0,0,1-1.53-.31.22.22,0,0,1,0,.1c-.44.6-2.38.65-4.09,0a13.81,13.81,0,0,0-1.8.58,8.75,8.75,0,0,0,4.26,5.27,10.7,10.7,0,0,0-3.51,3.94c-.12.21-.23.41-.34.63.29.17.57.32.85.45a7.72,7.72,0,0,0,4.38.78,4.09,4.09,0,0,1,3.42-1.84,6.62,6.62,0,0,1-.11.71,5.26,5.26,0,0,1,4.41.31c2.37-1.27,4.81-1,5,.44.11,1-.73,2.12-1.55,3a.63.63,0,0,1,.11.17,1.91,1.91,0,0,1-1.55,1.76h0a8.77,8.77,0,0,1,.28,1.56,14.2,14.2,0,0,0,1.72,1.62,9.53,9.53,0,0,0,1.87-5.43,10.62,10.62,0,0,0,4.94,3.35,11.51,11.51,0,0,0,.51-2.55,9.8,9.8,0,0,1-2.92-.8,3,3,0,0,1-2.11-2.81.51.51,0,0,1,0-.23,2,2,0,0,1,1.54-.23.23.23,0,0,1,0-.09c.28-.81,2.53-1.61,4.56-1.3l0,0a10.57,10.57,0,0,1,.77-.93,5,5,0,0,1,.13-2,8.24,8.24,0,0,0-1.47-.71,10.36,10.36,0,0,0,2.16-3.64A6.77,6.77,0,0,1,325,44.6l.68.15.15-.57-.11-.35A7.8,7.8,0,0,0,319.55,44.65Z"/><path class="cls-11" d="M313.94,44.81s.81-7.79.81-7.79a3.82,3.82,0,0,0-1.54,2.2C312.51,41.49,313.14,44.43,313.94,44.81Z"/><path class="cls-11" d="M314.15,44.74l-.21.07A.38.38,0,0,0,314.15,44.74Z"/><path class="cls-14" d="M313.94,44.81l.21-.07c.48-.2,1.6-.91,1.59-3.17a12.54,12.54,0,0,0-.19-2.09,8.31,8.31,0,0,0-.8-2.46S314,44.77,313.94,44.81Z"/><path class="cls-11" d="M303.72,57.85a4.3,4.3,0,0,1,2.61-3.18l.79-1a4.09,4.09,0,0,0-3.42,1.84c-1.17,1.47-1.77,3.4-1.41,4Z"/><path class="cls-11" d="M302.5,59.66a1,1,0,0,1-.21-.07A.42.42,0,0,0,302.5,59.66Z"/><path class="cls-14" d="M303.72,57.85l-1.43,1.74a1,1,0,0,0,.21.07,2.11,2.11,0,0,0,1.09,0A6.76,6.76,0,0,1,303.72,57.85Z"/><path class="cls-14" d="M306.76,54.5l.25-.08a6.62,6.62,0,0,0,.11-.71l-.79,1Z"/><path class="cls-11" d="M304,43.94l-6.82-2.81a4.31,4.31,0,0,0,2.73,2.77C301.57,44.59,303.51,44.54,304,43.94Z"/><path class="cls-14" d="M304,43.94v-.1a7.31,7.31,0,0,1-2.78-2.66,8,8,0,0,0-4,0Z"/><path class="cls-11" d="M305.49,44.15a.6.6,0,0,0,.08-.21A1.51,1.51,0,0,1,305.49,44.15Z"/><path class="cls-11" d="M304,43.84v.1a.22.22,0,0,0,0-.1,2,2,0,0,0,1.53.31l-4.91-5.81a4.17,4.17,0,0,0,.59,2.84A7.31,7.31,0,0,0,304,43.84Z"/><path class="cls-14" d="M305.49,44.15a1.51,1.51,0,0,0,.08-.21c.18-.52.42-1.89-1.16-3.38a10.86,10.86,0,0,0-1.57-1.22,7.22,7.22,0,0,0-2.26-1Z"/><path class="cls-11" d="M319.21,54.5l6.43.29-.24-.3a17.63,17.63,0,0,1-1.63-1.29C321.74,52.89,319.49,53.69,319.21,54.5Z"/><path class="cls-14" d="M322.66,56.17a9.75,9.75,0,0,0,2-.45,4.19,4.19,0,0,1,1-.92h0l-6.43-.29,0,.09A6.82,6.82,0,0,1,322.66,56.17Z"/><path class="cls-11" d="M317.67,55.05a1.17,1.17,0,0,1,0-.23A.51.51,0,0,0,317.67,55.05Z"/><path class="cls-11" d="M324.06,58.66a3.92,3.92,0,0,0-1.4-2.49,6.82,6.82,0,0,0-3.42-1.58l0-.09a.23.23,0,0,0,0,.09,2,2,0,0,0-1.54.23Z"/><path class="cls-14" d="M324.06,58.66l-6.37-3.84a1.17,1.17,0,0,0,0,.23,3,3,0,0,0,2.11,2.81,9.8,9.8,0,0,0,2.92.8A6,6,0,0,0,324.06,58.66Z"/><path class="cls-10" d="M326.38,47.56a4.78,4.78,0,0,0-1.76,2.63,5,5,0,0,0-.13,2,10.38,10.38,0,0,1,4.22-2.93c-.18-.19-.36-.39-.54-.61A4.25,4.25,0,0,1,326.38,47.56Z"/><path class="cls-10" d="M325.65,54.8a.41.41,0,0,1,.11-.07l-.36-.24.24.3Z"/><path class="cls-11" d="M325.66,44.75,325,44.6a6.77,6.77,0,0,0,.33,1.24,4.82,4.82,0,0,0,1.07,1.72,4.25,4.25,0,0,0,1.79,1.13,13.35,13.35,0,0,1-2.12-3.82Z"/><path class="cls-7" d="M327.57,60.73a4.91,4.91,0,0,1,1.74-3.1,12.34,12.34,0,0,1-1.7-.31L320.74,76l2.41,2.52.7-2L329.48,78l1.92-3.37L325.1,73l2.24-6.33,5.83,1.51V68.1a11.79,11.79,0,0,1,1.6-3.19,1.33,1.33,0,0,1,0-.19l-4.13-1.07c-.22.09-.45.18-.69.26,0-.16-.1-.32-.14-.48l-1.16-.3.7-2,0-.41A6.87,6.87,0,0,1,327.57,60.73Z"/><path class="cls-7" d="M309.71,141.09l1-4.33-5.86-1.63c-.28,1.31-.61,2.82-1,4.53l6.45,1.8A6.12,6.12,0,0,1,309.71,141.09Z"/><path class="cls-7" d="M312.9,126.73l.88-3.93-.89-.88-4.63-1.29.88-2.5-2.41-2.5-.21,9.92.19-.54Z"/><path class="cls-7" d="M334.91,66.86V67l.34-.45c0-.08-.05-.15-.07-.22Z"/><path class="cls-5" d="M298.05,155.84c.47-1.31.79-2.18,1-2.75a7,7,0,0,1-3-.69l-.71,2.75c-1.38,1.74-2.81,3.41-2.15,5.41a1.94,1.94,0,0,0,.53.93l1.35.37a6.62,6.62,0,0,1,2,.56l5.66,1.58-.89-.66C300.23,162.05,298.19,157.38,298.05,155.84Z"/><path class="cls-5" d="M313.44,142.54a8.7,8.7,0,0,1-2.87-.93l-.7,2.73c-1.38,1.74-2.81,3.41-2.16,5.41s1.73.54,4.59,2.22l0,0a12.27,12.27,0,0,1,1.19.8l.83-3a16,16,0,0,1-1.82-4.75C312.94,143.9,313.23,143.11,313.44,142.54Z"/><path class="cls-5" d="M298.6,92.73l-.44-.64-.69-1,.95-1.88a56.28,56.28,0,0,1,2-17,6.12,6.12,0,0,0-1.72.58c-1,.49-2.88,6.06-4.36,10.9-1.37,3.64-2.5,7.14-2.31,8.32A7.08,7.08,0,0,0,293.73,95a36.18,36.18,0,0,0,3.62,3.68A23,23,0,0,1,298.94,96C298.79,94.9,298.68,93.8,298.6,92.73Z"/><path class="cls-7" d="M311,72.73c-.09,1.9-5.07.53-5.07.53l.08-1.57-1.41.07-.74,9.66,4.41.19,4.44-10-1.63,0C311,72,311,72.34,311,72.73Z"/><path class="cls-7" d="M312.21,97.23v.2l0-.16,4.33-14.66s-2.64-4.48.35-10.53v0c-.55-.12-1.17-.21-1.84-.29L310,83l-.79,14Z"/><path class="cls-7" d="M300.5,72.07l-.05.17a56.28,56.28,0,0,0-2,17c0,1,.07,1.93.13,2.94,0,.19,0,.39.05.59.08,1.07.19,2.17.34,3.3l.07-.1,1,.14,1.86-14.73c-.05-.1.74-7.45.95-9.46C301.41,72,300.5,72.07,300.5,72.07Z"/><path class="cls-5" d="M311,72.73c0-.39,0-.78.08-1.16.05-.67.11-1.3.16-1.79,1.08.4,2.48,0,2.54-.38a10.32,10.32,0,0,0,.14-3.1,4.06,4.06,0,0,1,0-.42,16.92,16.92,0,0,0-.56-1.63c-.09,0-.16-.14-.16-.31s0-.08,0-.12l-.35.1a.75.75,0,0,1,.53-.47c.06-.25.16-.49.24-.74a3.2,3.2,0,0,0,.1-.42l-.07,0-.28.13-.26.14a1.75,1.75,0,0,0-.26.18.48.48,0,0,1,.12-.36.8.8,0,0,1,.29-.23,1,1,0,0,1,.34-.09h.13a.74.74,0,0,0,0-.21,2,2,0,0,0,0-.22,8.77,8.77,0,0,0-.28-1.56c-1.37.34-1.23,3.41-1.87,3.78-.16-.42-.43-.91-.87-.86-.71.07-.7,1.92.58,2.84a8.1,8.1,0,0,1-.13.86,10.25,10.25,0,0,0,.44,2.5,7.43,7.43,0,0,1-5.41.16l-.13,2.3-.08,1.57S310.89,74.63,311,72.73Zm.22-8.89a.93.93,0,0,1,.22.3.88.88,0,0,1,.1.36,1.09,1.09,0,0,1,0,.18,1.06,1.06,0,0,1,0,.19,1.4,1.4,0,0,1-.1-.16l-.08-.15c-.05-.09-.09-.19-.13-.28s-.09-.19-.14-.27a2,2,0,0,0-.19-.28A.49.49,0,0,1,311.2,63.84Z"/><path class="cls-4" d="M313.34,63.45h0a.69.69,0,0,0,.5-.33l-.28-.41C313.5,63,313.4,63.2,313.34,63.45Z"/><path class="cls-4" d="M313.44,63.74a.54.54,0,0,1,0,.2c0,.17-.08.31-.17.31h0a16.92,16.92,0,0,1,.56,1.63,4.06,4.06,0,0,0,0,.42c.54-.08,1.08-.29.8-.62a5.31,5.31,0,0,1-.63-2.26l-.2-.29A.7.7,0,0,1,313.44,63.74Z"/><path class="cls-15" d="M313.36,63.45h0a.75.75,0,0,0-.53.47l.35-.1s0,.08,0,.12.07.31.16.31h0c.09,0,.17-.14.17-.31a.54.54,0,0,0,0-.2.7.7,0,0,0,.43-.61v0A.69.69,0,0,1,313.36,63.45Z"/><path class="cls-15" d="M313.22,62.18a.8.8,0,0,0-.29.23.48.48,0,0,0-.12.36,1.75,1.75,0,0,1,.26-.18l.26-.14.28-.13.07,0,.07,0,.15-.1-.17,0h-.17A1,1,0,0,0,313.22,62.18Z"/><path class="cls-15" d="M311.53,69.23a10.25,10.25,0,0,1-.44-2.5,8.1,8.1,0,0,0,.13-.86c-1.28-.92-1.29-2.77-.58-2.84.44-.05.71.44.87.86.64-.37.5-3.44,1.87-3.78h0A1.91,1.91,0,0,0,315,58.34a.63.63,0,0,0-.11-.17,15.9,15.9,0,0,1-1.48,1.37,9.39,9.39,0,0,1-3.09,2.76c-3.18,1.87-5.4,1.45-5.4,1.45a6.13,6.13,0,0,1-1.11,3.86l-.11.14a3.23,3.23,0,0,1-.29.32,3.13,3.13,0,0,0,.3.2,10.48,10.48,0,0,0,2.45,1.12A7.43,7.43,0,0,0,311.53,69.23Z"/><path class="cls-7" d="M310.28,62.3a9.39,9.39,0,0,0,3.09-2.76,15.9,15.9,0,0,0,1.48-1.37c.82-.88,1.66-2,1.55-3-.17-1.46-2.61-1.71-5-.44a5.26,5.26,0,0,0-4.41-.31l-.25.08-.43.17a4.3,4.3,0,0,0-2.61,3.18,6.76,6.76,0,0,0-.13,1.79,8.3,8.3,0,0,0,1.29,4.11S307.1,64.17,310.28,62.3Z"/><path class="cls-4" d="M311,64c0,.08.09.17.14.27s.08.19.13.28l.08.15a1.4,1.4,0,0,0,.1.16,1.06,1.06,0,0,0,0-.19,1.09,1.09,0,0,0,0-.18.88.88,0,0,0-.1-.36.93.93,0,0,0-.22-.3.49.49,0,0,0-.35-.11A2,2,0,0,1,311,64Z"/><path class="cls-3" d="M296.09,152.4a7,7,0,0,0,3,.69h0a5.48,5.48,0,0,0,1.86-.34q.43-2,.84-3.72c.82-3.66,1.51-6.76,2.08-9.37.37-1.71.7-3.22,1-4.53,1.36-6.4,1.68-8.31,1.68-8.31l0-1.27.21-9.92c-2.23-2.34-4.4-4.71-5.55-6.2-2.17-6.08,1.78-12.23,2.2-12.86l5.79.54V97L310,83l5.12-11.19.22-.47-2.38-.24-.24.55-4.44,10-4.41-.19.74-9.66,0-.54-1.73.16s0,.18-.06.5c-.21,2-1,9.36-.95,9.46L300,96.07l-1-.14-.07.1a23,23,0,0,0-1.59,2.61,22.41,22.41,0,0,0-1.19,2.71c-1,2.85-1.5,6.35.44,9.24.18.7.32,1.4.45,2.21.4,2.43.81,5.88,2.41,13.64a148.25,148.25,0,0,0-3.39,16.7c-.76,5.11-1.06,8.65-1.06,8.65A6.92,6.92,0,0,0,296.09,152.4Z"/><path class="cls-22" d="M312.22,97.43v-.2l-3-.25v.13l-5.79-.54c-.42.63-4.37,6.78-2.2,12.86,1.15,1.49,3.32,3.86,5.55,6.2l2.41,2.5c1.54,1.57,2.91,3,3.75,3.79l.89.88-.88,3.93-2.23,10-1,4.33a6.12,6.12,0,0,0,.57.37l.29.15a8.7,8.7,0,0,0,2.87.93,7.58,7.58,0,0,0,.84.05v0c.59-1.26,1.18-2.74,1.74-4.32,1.1-3.1,2.12-6.62,3-9.82.43-1.61.82-3.13,1.15-4.48.77-3.17,1.23-5.36,1.23-5.36l-3.06-4.91-.93-1.49-3.57-5.71-.35-.56-1-1.54L312.28,99Z"/><path class="cls-5" d="M318.12,155.71c.43-1.36.19-1.75-.65-2.39l-.56,2.09A4.87,4.87,0,0,0,318.12,155.71Z"/><path class="cls-5" d="M335.76,63.33l-.18.3c.35-.08.7-.14,1.05-.19l.06-.18c-.1-.28-.19-.56-.26-.84l-.05,0Z"/><path class="cls-5" d="M333.17,68.1v.09c0,.35.05,1,.08,1.77,0,.46,0,.94,0,1.37h0l-.76,1.33-1.13,2L329.48,78l-2.54,4.44s-1.12-1.14-3.79-3.92L320.74,76l-3.78-4,0,0c-3,6-.35,10.53-.35,10.53s.51.41,1.34,1a98.26,98.26,0,0,0,8.39,6l.23.14c1.19.68,2.1,1.06,2.42.85a1.07,1.07,0,0,0,.22-.24,20.69,20.69,0,0,0,1.58-3.47c.74-1.9,1.58-4.28,2.36-6.56-.3-.25-.61-.51-.91-.78a20.28,20.28,0,0,1,1.89-2.15l.62-1.89c.1-.31.2-.6.28-.88l.35-1.07.13-.41a1.27,1.27,0,0,0,.13-.19l.9-3.24a23.11,23.11,0,0,1-1.27-3.16l-.34.45v-.15l.27-.52c-.15-.46-.28-.93-.41-1.43A11.79,11.79,0,0,0,333.17,68.1Z"/><path class="cls-7" d="M341.34,63.5l.1,0,.07-.26Z"/><path class="cls-7" d="M329.71,107.45l6-22.56a11.09,11.09,0,0,1-2.36-1.26,5.91,5.91,0,0,1,1.79-1.8c-.55-.36-1.11-.76-1.67-1.2l-1.8,6.5-.93-.24a20.69,20.69,0,0,1-1.58,3.47l.76.19.75.2L330.36,92l-1.61,5.8-4.35-1.12-.83-.22-4.79-1.24-1.4-.36,2.45-6.91,6.49,1.68a98.26,98.26,0,0,1-8.39-6L312.64,98l-.36,1,.22,5.36,1,1.54,1.7-4.82,1-2.71,1.11.29,4.45,1.15,2.5.65,3.56.92-.73,2.65-.78,2.81-.73,2.65-1.61-.42-3.25-.84-6.83-1.77,3.57,5.71,1.76.46,1.22.31,3.9,1-1.1,4-1.76,6.35-1.26-.35c-.33,1.35-.72,2.87-1.15,4.48l1.18.33-2.74,9.88-1.41-.39c-.56,1.58-1.15,3.06-1.74,4.32l1.92.53-1.85,6.68-.83,3a12.27,12.27,0,0,0-1.19-.8l0,0L301.75,149q-.4,1.77-.84,3.72a5.48,5.48,0,0,1-1.86.34l13.37,3.72L309.88,166l-7.09-2-5.66-1.58-2-.56-1.35-.37a1.94,1.94,0,0,1-.53-.93c-.66-2,.77-3.67,2.15-5.41l.71-2.75a6.92,6.92,0,0,1-1.08-.61s.3-3.54,1.06-8.65l-11.32,30.8,3.95,2,3.56-10.06,16.38,4.56-3.37,12.19,4.05,1.24,7.59-28.45.56-2.09,10.38-38.89.81-3Z"/><path class="cls-7" d="M335.62,73l-.19.68-.29,1-.24.86-.17,0-.62,1.89a14.91,14.91,0,0,1,4.45-3.07l.27-1a17.87,17.87,0,0,1-2.31-3.57Z"/><path class="cls-23" d="M380.35,112.88a10,10,0,0,1-5.43,1.39,1.66,1.66,0,0,1-.12.94.55.55,0,0,1-.26.09c-.59.15-2.09.27-3.52-1.73a15,15,0,0,1-.36,4.09,5.57,5.57,0,0,0,4.09,2.92,5.34,5.34,0,0,0,4.21-1.25A11.92,11.92,0,0,1,380.35,112.88Z"/><path class="cls-23" d="M373.13,110.28l.08-.09-.16,0A.44.44,0,0,1,373.13,110.28Z"/><path class="cls-24" d="M336.52,30.43a10.21,10.21,0,0,0,3.1,1.84l0,0h0A10.41,10.41,0,0,0,336,34.85a10.57,10.57,0,0,1,2.14,2,10.49,10.49,0,0,1,1-3.07,4.79,4.79,0,0,1,1.93,2.74,16.88,16.88,0,0,1,2.27-3.73,11.88,11.88,0,0,1,3.29,4.63,12.69,12.69,0,0,1,6.66-4.94,13.83,13.83,0,0,1,.69,4.2,8.83,8.83,0,0,1,2.82-1.25,5.15,5.15,0,0,1-.74,3.53,11.86,11.86,0,0,1,3.38-.32,13.17,13.17,0,0,1-.34-2.14,7.67,7.67,0,0,1-1.71,0,5,5,0,0,1,1.74-3.11,10.09,10.09,0,0,1-4.78-1.66,4,4,0,0,1,1.24-1.24,16.93,16.93,0,0,1-2-1.57,10.85,10.85,0,0,1,5-3.85,14.47,14.47,0,0,1-3.41-7,10.08,10.08,0,0,1,6.33.19,12.38,12.38,0,0,0-.24-4.1A13.66,13.66,0,0,0,357,16.7a12.36,12.36,0,0,0-.57-3.09,12.58,12.58,0,0,0-6,5.8A11,11,0,0,0,345.48,12a14,14,0,0,0-.69,9.88,9.46,9.46,0,0,0-8.3-2.45,14.92,14.92,0,0,0,2.93,6,8.67,8.67,0,0,0-4.14.4,10.25,10.25,0,0,0-1.86.86A15.15,15.15,0,0,0,336.52,30.43Z"/><path class="cls-24" d="M392.48,112.79c-.25-.79-.5-1.58-.76-2.35a115.45,115.45,0,0,0-12.49-25.79,13.18,13.18,0,0,1-4.72.26,14.66,14.66,0,0,1,2.19,3.89,1.3,1.3,0,0,1,.24-.06,4.12,4.12,0,0,1,.06,1,4.06,4.06,0,0,1,.11,2.36,9.42,9.42,0,0,1,4.13.13,5.37,5.37,0,0,1-3.4,3.44,16.49,16.49,0,0,1,2.23.73,10.91,10.91,0,0,1-5.3,6.56,13.89,13.89,0,0,1,4.79,5.69,10.18,10.18,0,0,1-6.35,1.55l-.08.09a8.74,8.74,0,0,1,1.79,4,10,10,0,0,0,5.43-1.39,11.92,11.92,0,0,0-1.39,6.45,12.62,12.62,0,0,0,.57,2.89,13,13,0,0,0,5.23-4.51,11.42,11.42,0,0,0,2.13,6.6,13.71,13.71,0,0,0,4-7.58,12,12,0,0,0,1.59,2.28Z"/><path class="cls-24" d="M392.48,103.81V91.36a47.06,47.06,0,0,1,0-12.68v-.83a5.48,5.48,0,0,1-1.24-1.17,6.3,6.3,0,0,1,.64-8.45,5.39,5.39,0,0,1,.6-.47V52.12a4.86,4.86,0,0,1-3.19,1.11S389,48,392.48,45.65V9.33a16.79,16.79,0,0,0-.42,11,13.08,13.08,0,0,0-3.92-2.46l-.57.26a16.38,16.38,0,0,1,2.23.72,10.85,10.85,0,0,1-5.31,6.56,13.8,13.8,0,0,1,4.8,5.7,10.12,10.12,0,0,1-6.51,1.52c1.46,1.84,2.2,4.23,1.75,5,0,0-.1.06-.26.09-.59.15-2.09.28-3.52-1.73a16.39,16.39,0,0,1-1,6.2,10.52,10.52,0,0,1-6.63-6.91,13.53,13.53,0,0,1-4.94,7,12,12,0,0,1-2.32-6.77A12.53,12.53,0,0,1,361,39.16a5.43,5.43,0,0,1-3.32,3.19,16.49,16.49,0,0,1,2.23.73,10.88,10.88,0,0,1-5.31,6.56,12.5,12.5,0,0,1,3.73,3.82,26.35,26.35,0,0,1,2.29-3.4,17.35,17.35,0,0,1,4.76,6.71,18.41,18.41,0,0,1,9.64-7.15,19.88,19.88,0,0,1,1,6.08,12.78,12.78,0,0,1,4.08-1.81A7.48,7.48,0,0,1,379.08,59a14.42,14.42,0,0,1,7.28-.09,7.75,7.75,0,0,1-4.91,5,24,24,0,0,1,3.22,1c-1.72,5-4.57,7.93-7.67,9.5a20.12,20.12,0,0,1,6.94,8.25,18,18,0,0,1-2.93,1.4C385.42,89.22,389.81,98,392.48,103.81Z"/><path class="cls-25" d="M339.16,33.78s1,9.65,1,9.71c1-.48,1.79-4.14.92-7A4.79,4.79,0,0,0,339.16,33.78Z"/><path class="cls-25" d="M340.17,43.49a1.42,1.42,0,0,1-.26-.09A.6.6,0,0,0,340.17,43.49Z"/><path class="cls-26" d="M339.16,33.78a10.49,10.49,0,0,0-1,3.07,15.13,15.13,0,0,0-.23,2.6c0,2.81,1.38,3.7,2,3.95a1.42,1.42,0,0,0,.26.09C340.16,43.43,339.16,33.78,339.16,33.78Z"/><path class="cls-25" d="M359.75,39.67l-.06-.18-7.07,2.91c.55.75,3,.82,5.1,0A5.43,5.43,0,0,0,361,39.16Q360.42,39.43,359.75,39.67Z"/><path class="cls-25" d="M352.62,42.28A9.09,9.09,0,0,0,356.08,39a5.15,5.15,0,0,0,.74-3.53s-6.08,7.19-6.11,7.24a2.44,2.44,0,0,0,1.9-.39.17.17,0,0,0,0,.12A.36.36,0,0,1,352.62,42.28Z"/><path class="cls-26" d="M359.69,39.49c-.08-.29-.16-.57-.23-.85a11.86,11.86,0,0,0-3.38.32,9.09,9.09,0,0,1-3.46,3.32.36.36,0,0,0,0,.12Z"/><path class="cls-25" d="M350.59,42.4a.67.67,0,0,0,.12.27A1.63,1.63,0,0,1,350.59,42.4Z"/><path class="cls-26" d="M356.82,35.43A8.83,8.83,0,0,0,354,36.68a12.55,12.55,0,0,0-1.95,1.52c-2,1.85-1.67,3.56-1.46,4.2a1.63,1.63,0,0,0,.12.27C350.74,42.62,356.82,35.43,356.82,35.43Z"/><path class="cls-25" d="M325.65,54.8a4.19,4.19,0,0,0-1,.92l-.17.25,9.09-.42c-.45-1.31-5.11-2.61-7.85-.82A.41.41,0,0,0,325.65,54.8Z"/><path class="cls-26" d="M324.52,56a9.13,9.13,0,0,0,3.09,1.35,12.34,12.34,0,0,0,1.7.31,8.61,8.61,0,0,1,4.26-2,.67.67,0,0,0,0-.12Z"/><path class="cls-25" d="M335.5,56a2.6,2.6,0,0,1,0,.29A.57.57,0,0,0,335.5,56Z"/><path class="cls-25" d="M329.31,57.63a4.91,4.91,0,0,0-1.74,3.1L335.5,56a2.47,2.47,0,0,0-1.92-.28q0-.09,0-.12a.67.67,0,0,1,0,.12A8.61,8.61,0,0,0,329.31,57.63Z"/><path class="cls-26" d="M327.57,60.73a6.87,6.87,0,0,0,1.7,0,11.62,11.62,0,0,0,3.64-1c2.42-1.08,2.63-2.8,2.62-3.49a2.6,2.6,0,0,0,0-.29Z"/><path class="cls-23" d="M344,56.9a4.69,4.69,0,0,0,1.21-6.21,4.45,4.45,0,0,0-.77-.94c-1,.77-2.25,1.1-2.66.8h0a.49.49,0,0,1-.63-.06v-1.3l.68,0,0,.28a2.32,2.32,0,0,1,.43-.72,3.92,3.92,0,0,0-2.85.69,4.68,4.68,0,0,0-1.2,6.21A4,4,0,0,0,344,56.9Z"/><path class="cls-12" d="M341.85,49.43l0-.28-.68,0v1.3a.49.49,0,0,0,.63.06.3.3,0,0,1,0-.15A1.8,1.8,0,0,1,341.85,49.43Z"/><path class="cls-27" d="M341.76,50.39a.3.3,0,0,0,0,.15h0A.81.81,0,0,1,341.76,50.39Z"/><path class="cls-26" d="M341.76,50.39a.81.81,0,0,0,0,.16L346,47a6.09,6.09,0,0,0-3,1.1,3,3,0,0,0-.72.61,2.32,2.32,0,0,0-.43.72A1.8,1.8,0,0,0,341.76,50.39Z"/><path class="cls-27" d="M355.15,18.09a14.47,14.47,0,0,0,3.41,7,10.85,10.85,0,0,0-5,3.85,16.93,16.93,0,0,0,2,1.57c2.74-1.79,7.4-.49,7.85.83a.24.24,0,0,1,0,.11,2.42,2.42,0,0,1,1.92.29.53.53,0,0,1,0,.29c0,.68-.21,2.4-2.62,3.49a12.2,12.2,0,0,1-3.64,1,13.17,13.17,0,0,0,.34,2.14c.07.28.15.56.23.85l.06.18q.67-.24,1.29-.51a12.53,12.53,0,0,0,4.86-3.66,12,12,0,0,0,2.32,6.77,13.53,13.53,0,0,0,4.94-7,10.52,10.52,0,0,0,6.63,6.91,16.39,16.39,0,0,0,1-6.2l-.21-.29a12.22,12.22,0,0,1-2-5.4,5.12,5.12,0,0,1,4.26,2.29,10.12,10.12,0,0,0,6.51-1.52,13.8,13.8,0,0,0-4.8-5.7,10.85,10.85,0,0,0,5.31-6.56,16.38,16.38,0,0,0-2.23-.72c-2.14.86-4.55.79-5.1,0a.17.17,0,0,1,0-.12,2.47,2.47,0,0,1-1.91.39.65.65,0,0,1-.11-.27c-.21-.64-.52-2.35,1.46-4.2a12.55,12.55,0,0,1,2-1.52,13.88,13.88,0,0,0-.69-4.2,12.74,12.74,0,0,0-6.66,4.94,12,12,0,0,0-3.29-4.63,17.35,17.35,0,0,0-2.27,3.73c.87,2.83.08,6.49-.92,7a.48.48,0,0,1-.26-.09c-.59-.25-2-1.14-2-3.95a14.19,14.19,0,0,1,.23-2.6,11.68,11.68,0,0,0-3.82-3A14,14,0,0,0,363,19.05a9,9,0,0,0-1.55-.77A10.08,10.08,0,0,0,355.15,18.09Z"/><path class="cls-25" d="M370,19.25a1.42,1.42,0,0,1-.26-.09A.48.48,0,0,0,370,19.25Z"/><path class="cls-25" d="M370,19.25c1-.48,1.79-4.14.92-7A4.77,4.77,0,0,0,369,9.55S370,19.19,370,19.25Z"/><path class="cls-26" d="M369.76,19.16a1.42,1.42,0,0,0,.26.09c0-.06-1-9.7-1-9.7a10.13,10.13,0,0,0-1,3.06,14.19,14.19,0,0,0-.23,2.6C367.77,18,369.17,18.91,369.76,19.16Z"/><path class="cls-25" d="M384.53,37.66a1.1,1.1,0,0,1-.26.09C384.43,37.72,384.52,37.69,384.53,37.66Z"/><path class="cls-25" d="M378.52,30.33l6,7.33c.45-.81-.29-3.2-1.75-5A5.12,5.12,0,0,0,378.52,30.33Z"/><path class="cls-26" d="M378.52,30.33a12.22,12.22,0,0,0,2,5.4l.21.29c1.43,2,2.93,1.88,3.52,1.73a1.1,1.1,0,0,0,.26-.09Z"/><path class="cls-25" d="M382.47,18.16c.55.75,3,.82,5.1,0l.57-.26A5.11,5.11,0,0,0,391,14.67Z"/><path class="cls-26" d="M382.47,18a.36.36,0,0,0,0,.12L391,14.67a9.89,9.89,0,0,0-5,.06A9.13,9.13,0,0,1,382.47,18Z"/><path class="cls-25" d="M380.55,18.43a2.6,2.6,0,0,1-.11-.27A.65.65,0,0,0,380.55,18.43Z"/><path class="cls-25" d="M380.55,18.43a2.47,2.47,0,0,0,1.91-.39.17.17,0,0,0,0,.12.36.36,0,0,1,0-.12,9.13,9.13,0,0,0,3.46-3.31,5.18,5.18,0,0,0,.73-3.54Z"/><path class="cls-26" d="M380.44,18.16a2.6,2.6,0,0,0,.11.27l6.11-7.24a8.74,8.74,0,0,0-2.81,1.25,12.55,12.55,0,0,0-2,1.52C379.92,15.81,380.23,17.52,380.44,18.16Z"/><path class="cls-25" d="M363.46,31.32c-.45-1.32-5.11-2.62-7.85-.83a4,4,0,0,0-1.24,1.24Z"/><path class="cls-26" d="M363.42,31.43a.82.82,0,0,0,0-.11l-9.09.41a10.09,10.09,0,0,0,4.78,1.66A8.68,8.68,0,0,1,363.42,31.43Z"/><path class="cls-25" d="M365.35,31.72a2.42,2.42,0,0,0-1.92-.29.24.24,0,0,0,0-.11.82.82,0,0,1,0,.11,8.68,8.68,0,0,0-4.27,2,5,5,0,0,0-1.74,3.11Z"/><path class="cls-25" d="M365.38,32a.53.53,0,0,0,0-.29A2.25,2.25,0,0,1,365.38,32Z"/><path class="cls-26" d="M362.76,35.5c2.41-1.09,2.63-2.81,2.62-3.49a2.25,2.25,0,0,0,0-.29l-7.94,4.78a7.67,7.67,0,0,0,1.71,0A12.2,12.2,0,0,0,362.76,35.5Z"/><path class="cls-27" d="M371,113.57a2.23,2.23,0,0,1-.2-.3,12.11,12.11,0,0,1-2-5.39,5.09,5.09,0,0,1,4.26,2.29l.16,0a10.18,10.18,0,0,0,6.35-1.55,13.89,13.89,0,0,0-4.79-5.69,10.91,10.91,0,0,0,5.3-6.56,16.49,16.49,0,0,0-2.23-.73c-2.14.87-4.55.8-5.1,0a.17.17,0,0,1,0-.12A2.86,2.86,0,0,1,371,96c0-.11.05-.22.07-.34a22.7,22.7,0,0,0,.51-3.54,5.07,5.07,0,0,1,.6-.64l.47-.43a8.73,8.73,0,0,1-1.36-1.67,17.67,17.67,0,0,1-2.93-7.82c2.43-.2,4.58,1.33,6.16,3.32a13.18,13.18,0,0,0,4.72-.26,15.67,15.67,0,0,0,1.78-.54,18,18,0,0,0,2.93-1.4A20.12,20.12,0,0,0,377,74.46c3.1-1.57,5.95-4.47,7.67-9.5a24,24,0,0,0-3.22-1c-3.1,1.26-6.59,1.15-7.39.07,0,0,0-.08,0-.17a3.58,3.58,0,0,1-2.75.56,1,1,0,0,1-.16-.39c-.31-.93-.75-3.4,2.1-6.09a18.91,18.91,0,0,1,2.83-2.19,19.88,19.88,0,0,0-1-6.08,18.41,18.41,0,0,0-9.64,7.15,17.35,17.35,0,0,0-4.76-6.71,26.35,26.35,0,0,0-2.29,3.4,12.5,12.5,0,0,0-3.73-3.82A10.88,10.88,0,0,0,360,43.08a16.49,16.49,0,0,0-2.23-.73c-2.14.87-4.55.8-5.1,0a.17.17,0,0,1,0-.12,2.44,2.44,0,0,1-1.9.39.67.67,0,0,1-.12-.27c-.21-.64-.52-2.35,1.46-4.2A12.55,12.55,0,0,1,354,36.68a13.83,13.83,0,0,0-.69-4.2,12.69,12.69,0,0,0-6.66,4.94,11.88,11.88,0,0,0-3.29-4.63,16.88,16.88,0,0,0-2.27,3.73c.87,2.83.08,6.49-.92,7a.6.6,0,0,1-.26-.09c-.59-.25-2-1.14-2-3.95a15.13,15.13,0,0,1,.23-2.6,10.57,10.57,0,0,0-2.14-2,13.08,13.08,0,0,0-1.17-.75l-.51-.28-.37.88a13.52,13.52,0,0,0-.8,8.58,9.77,9.77,0,0,0-7.88-1c.12.53.26,1,.4,1.51l.11.35.24.69a13.35,13.35,0,0,0,2.12,3.82c.18.22.36.42.54.61a10.38,10.38,0,0,0-4.22,2.93,10.57,10.57,0,0,0-.77.93l0,0a17.63,17.63,0,0,0,1.63,1.29l.36.24c2.74-1.79,7.4-.49,7.85.82t0,.12a2.47,2.47,0,0,1,1.92.28.57.57,0,0,1,0,.29c0,.69-.2,2.41-2.62,3.49a11.62,11.62,0,0,1-3.64,1l0,.41a14.74,14.74,0,0,0,.46,2.29c0,.16.09.32.14.48.24-.08.47-.17.69-.26a13.92,13.92,0,0,0,4.09-2.46,10.89,10.89,0,0,0,1.37-1.45,10.69,10.69,0,0,0,.38,2.68c.07.28.16.56.26.84l.06.17h-.12c-.35.05-.7.11-1.05.19l-1.06.24c.06.29.13.57.2.85a1.33,1.33,0,0,0,0,.19c.13.5.26,1,.41,1.43,0,.07,0,.14.07.22a23.11,23.11,0,0,0,1.27,3.16,17.87,17.87,0,0,0,2.31,3.57c.2.24.41.47.61.68-.29.11-.59.23-.88.36a14.91,14.91,0,0,0-4.45,3.07,20.28,20.28,0,0,0-1.89,2.15c.3.27.61.53.91.78l.37.3c.56.44,1.12.84,1.67,1.2,4-2.59,10.72-.71,11.37,1.19a.26.26,0,0,1,0,.17,3.55,3.55,0,0,1,2.78.41.9.9,0,0,1,0,.43c0,1-.29,3.48-3.8,5a16.94,16.94,0,0,1-5.27,1.44,21,21,0,0,0,.92,4.6c.66-.23,1.28-.48,1.88-.75a20.18,20.18,0,0,0,2.5-1.31,17.16,17.16,0,0,0,4.53-4,15.84,15.84,0,0,0,.7,4.45c.17.54.37,1.09.6,1.64.08.2.18.41.27.62a9.08,9.08,0,0,0-3-.56,11.54,11.54,0,0,0-3.18.4,14.29,14.29,0,0,0,3.4,7,10.92,10.92,0,0,0-5,3.86,18,18,0,0,0,2,1.57c2.75-1.79,7.4-.49,7.85.82,0,0,0,.06,0,.12a2.45,2.45,0,0,1,1.91.28.57.57,0,0,1,0,.29c0,.69-.2,2.41-2.62,3.49a11.62,11.62,0,0,1-3.64,1,12.41,12.41,0,0,0,.17,1.33s0,.06,0,.08a14.28,14.28,0,0,0,.44,1.77,16.23,16.23,0,0,0,1.83-.77,12.17,12.17,0,0,0,4.2-3.26l.12-.14c0,.39,0,.78.08,1.18a12.36,12.36,0,0,0,2.25,5.58,13.64,13.64,0,0,0,4.87-6.73l.06-.22c.06.19.12.39.2.58a10.53,10.53,0,0,0,6.44,6.33c.24-.74.44-1.44.59-2.11A15,15,0,0,0,371,113.57Zm-15-48s-.17,0-.38-.12c-.85-.37-2.87-1.65-2.85-5.72a17.79,17.79,0,0,1,1.77-8.21C359.49,54.6,358.07,64.58,356,65.55Zm-17.81-9.94a4.68,4.68,0,0,1,1.2-6.21,3.92,3.92,0,0,1,2.85-.69,3,3,0,0,1,.72-.61,6.09,6.09,0,0,1,3-1.1l-4.24,3.55c.41.3,1.63,0,2.66-.8a4.45,4.45,0,0,1,.77.94A4.69,4.69,0,0,1,344,56.9,4,4,0,0,1,338.23,55.61Zm15.22,19.94a6,6,0,0,1,4.83-6.76,5.28,5.28,0,0,1,3.82.95,4.14,4.14,0,0,1,1.19-.3,8.14,8.14,0,0,1,4.27.58l-7.05,1.64c.33.61,2,1,3.64.69a6.23,6.23,0,0,1,.42,1.62,5.94,5.94,0,0,1-4.82,6.75A5.7,5.7,0,0,1,353.45,75.55Zm6.84,21.25a.6.6,0,0,1-.26-.09A3.35,3.35,0,0,1,358.15,94a18.68,18.68,0,0,0,1.56-2.74,17.42,17.42,0,0,0,.87-2.4,15.37,15.37,0,0,0,.91,2.29C361.85,93.66,361.15,96.39,360.29,96.8ZM341.44,63.52l-.1,0,.17-.24a11.73,11.73,0,0,0,1.8-3.71,10.57,10.57,0,0,0,2.26,4c.09.59.21,1.16.35,1.71A13.22,13.22,0,0,0,341.44,63.52Z"/><path class="cls-25" d="M360.58,88.81a17.42,17.42,0,0,1-.87,2.4c.27,2.63.58,5.56.58,5.59.86-.41,1.56-3.14,1.2-5.7A15.37,15.37,0,0,1,360.58,88.81Z"/><path class="cls-25" d="M360.29,96.8a1.42,1.42,0,0,1-.26-.09A.6.6,0,0,0,360.29,96.8Z"/><path class="cls-26" d="M359.71,91.21A18.68,18.68,0,0,1,358.15,94,3.35,3.35,0,0,0,360,96.71a1.42,1.42,0,0,0,.26.09S360,93.84,359.71,91.21Z"/><path class="cls-25" d="M374.8,115.21l-.26.09A.55.55,0,0,0,374.8,115.21Z"/><path class="cls-25" d="M373.05,110.17a5.09,5.09,0,0,0-4.26-2.29l6,7.33a1.66,1.66,0,0,0,.12-.94,8.74,8.74,0,0,0-1.79-4A.44.44,0,0,0,373.05,110.17Z"/><path class="cls-26" d="M368.79,107.88a12.11,12.11,0,0,0,2,5.39,2.23,2.23,0,0,0,.2.3c1.43,2,2.93,1.88,3.52,1.73l.26-.09Z"/><path class="cls-25" d="M372.74,95.71c.55.75,3,.82,5.1,0a5.37,5.37,0,0,0,3.4-3.44Z"/><path class="cls-25" d="M372.74,95.59a9.3,9.3,0,0,0,3.37-3.16,4,4,0,0,1-2-.35l-3.05,3.61c0,.12-.05.23-.07.34a2.86,2.86,0,0,0,1.74-.44.17.17,0,0,0,0,.12A.36.36,0,0,1,372.74,95.59Z"/><path class="cls-26" d="M377.05,92.21s-.15.09-.37.13a1.74,1.74,0,0,0,.37-.13l-8.7-10.62a17.67,17.67,0,0,0,2.93,7.82,8.73,8.73,0,0,0,1.36,1.67l-.47.43a5.07,5.07,0,0,0-.6.64,22.7,22.7,0,0,1-.51,3.54l3.05-3.61a4,4,0,0,0,2,.35,9.3,9.3,0,0,1-3.37,3.16.36.36,0,0,0,0,.12l8.5-3.49a9.42,9.42,0,0,0-4.13-.13Z"/><path class="cls-26" d="M376.76,89l.18-.21a1.3,1.3,0,0,0-.24.06Z"/><path class="cls-25" d="M344.64,109.28l9.09-.42c-.45-1.31-5.1-2.61-7.85-.82A4,4,0,0,0,344.64,109.28Z"/><path class="cls-25" d="M353.69,109a8.61,8.61,0,0,0-4.26,2,5.13,5.13,0,0,0-.47.46,4.69,4.69,0,0,0-1.27,2.64l7.93-4.78a2.45,2.45,0,0,0-1.91-.28c0-.06,0-.1,0-.12A.67.67,0,0,1,353.69,109Z"/><path class="cls-26" d="M344.64,109.28a9.85,9.85,0,0,0,4.09,1.56l.7.1a8.61,8.61,0,0,1,4.26-2,.67.67,0,0,0,0-.12Z"/><path class="cls-25" d="M355.62,109.26a2.6,2.6,0,0,1,0,.29A.57.57,0,0,0,355.62,109.26Z"/><path class="cls-26" d="M347.69,114a6.87,6.87,0,0,0,1.7,0,11.62,11.62,0,0,0,3.64-1c2.42-1.08,2.63-2.8,2.62-3.49a2.6,2.6,0,0,0,0-.29Z"/><path class="cls-25" d="M392.48,45.65c-3.5,2.36-3.19,7.58-3.19,7.58a4.86,4.86,0,0,0,3.19-1.11Z"/><path class="cls-12" d="M392.48,103.81C389.81,98,385.42,89.22,381,84.11a15.67,15.67,0,0,1-1.78.54,115.45,115.45,0,0,1,12.49,25.79c.26.77.51,1.56.76,2.35Z"/><path class="cls-12" d="M392.48,78.68a47.06,47.06,0,0,0,0,12.68Z"/><path class="cls-21" d="M392.48,67.76a5.39,5.39,0,0,0-.6.47,6.3,6.3,0,0,0-.64,8.45,5.48,5.48,0,0,0,1.24,1.17Z"/><path class="cls-25" d="M356,65.55c2-1,3.45-10.95-1.46-14C354.58,51.5,356,65.47,356,65.55Z"/><path class="cls-25" d="M356,65.55a2.51,2.51,0,0,1-.38-.12C355.87,65.53,356,65.57,356,65.55Z"/><path class="cls-26" d="M354.58,51.5a17.79,17.79,0,0,0-1.77,8.21c0,4.07,2,5.35,2.85,5.72a2.51,2.51,0,0,0,.38.12C356,65.47,354.58,51.5,354.58,51.5Z"/><path class="cls-25" d="M377.05,92.21a1.74,1.74,0,0,1-.37.13C376.9,92.3,377,92.25,377.05,92.21Z"/><path class="cls-25" d="M368.35,81.59l8.7,10.62.06-.12a4.06,4.06,0,0,0-.11-2.36,4.12,4.12,0,0,0-.06-1l-.18.21-.06-.15a14.66,14.66,0,0,0-2.19-3.89C372.93,82.92,370.78,81.39,368.35,81.59Z"/><path class="cls-25" d="M374.06,64c.8,1.08,4.29,1.19,7.39-.07a7.75,7.75,0,0,0,4.91-5Z"/><path class="cls-26" d="M374.06,63.8V64l12.3-5.06a14.42,14.42,0,0,0-7.28.09A13.19,13.19,0,0,1,374.06,63.8Z"/><path class="cls-25" d="M371.29,64.37a3.58,3.58,0,0,0,2.75-.56c0,.09,0,.15,0,.17V63.8a13.19,13.19,0,0,0,5-4.79,7.48,7.48,0,0,0,1.06-5.12S371.34,64.3,371.29,64.37Z"/><path class="cls-25" d="M371.13,64a1,1,0,0,0,.16.39A4,4,0,0,1,371.13,64Z"/><path class="cls-26" d="M373.23,57.89c-2.85,2.69-2.41,5.16-2.1,6.09a4,4,0,0,0,.16.39c0-.07,8.85-10.48,8.85-10.48a12.78,12.78,0,0,0-4.08,1.81A18.91,18.91,0,0,0,373.23,57.89Z"/><path class="cls-25" d="M333.38,83.63,346.54,83c-.65-1.9-7.39-3.78-11.37-1.19A5.91,5.91,0,0,0,333.38,83.63Z"/><path class="cls-26" d="M333.38,83.63a11.09,11.09,0,0,0,2.36,1.26,16.63,16.63,0,0,0,1.78.61c.46.13,1,.24,1.48.34s.85.14,1.31.19a12.45,12.45,0,0,1,6.18-2.84.82.82,0,0,0,.05-.17Z"/><path class="cls-25" d="M349.28,83.6a3.23,3.23,0,0,1,0,.43A.9.9,0,0,0,349.28,83.6Z"/><path class="cls-25" d="M340.31,86a8.48,8.48,0,0,0-1.28,1.4,6.59,6.59,0,0,0-1.24,3.09l11.49-6.92a3.55,3.55,0,0,0-2.78-.41.26.26,0,0,0,0-.17.82.82,0,0,1-.05.17A12.45,12.45,0,0,0,340.31,86Z"/><path class="cls-26" d="M337.79,90.52a7.44,7.44,0,0,0,1.13.07,11.29,11.29,0,0,0,1.33-.07,16.94,16.94,0,0,0,5.27-1.44c3.51-1.57,3.82-4.07,3.8-5a3.23,3.23,0,0,0,0-.43Z"/><path class="cls-23" d="M359.75,80.72A5.94,5.94,0,0,0,364.57,74a6.23,6.23,0,0,0-.42-1.62c-1.65.28-3.31-.08-3.64-.69h0a.73.73,0,0,1-.74-.47l.71-1.58.84.4-.13.34a2.77,2.77,0,0,1,.91-.6,5.28,5.28,0,0,0-3.82-.95,6,6,0,0,0-4.83,6.76A5.7,5.7,0,0,0,359.75,80.72Z"/><path class="cls-12" d="M360.55,71.44a2.44,2.44,0,0,1,.64-1.1l.13-.34-.84-.4-.71,1.58a.73.73,0,0,0,.74.47A.57.57,0,0,1,360.55,71.44Z"/><path class="cls-27" d="M360.55,71.44a.57.57,0,0,0,0,.21h0S360.52,71.58,360.55,71.44Z"/><path class="cls-26" d="M361.19,70.34a2.44,2.44,0,0,0-.64,1.1c0,.14,0,.22,0,.22L367.56,70a8.14,8.14,0,0,0-4.27-.58,4.14,4.14,0,0,0-1.19.3A2.77,2.77,0,0,0,361.19,70.34Z"/><path class="cls-28" d="M358.66,153.57a2.37,2.37,0,0,1,.91.23,3,3,0,0,1,1-1l-1.93-.38A2.76,2.76,0,0,1,358.66,153.57Z"/><path class="cls-28" d="M365.31,155.34a3.24,3.24,0,0,1,2.68-.23,2.94,2.94,0,0,1,1.89,2l4.71-1.71c-.21,0-4.69-.86-9.8-1.86a2.39,2.39,0,0,1,.21.34A2.7,2.7,0,0,1,365.31,155.34Z"/><polygon class="cls-28" points="374.6 155.44 374.6 155.44 374.6 155.44 374.6 155.44"/><path class="cls-28" d="M338.78,156.54s0-.1.05-.14a3.14,3.14,0,0,1,4-1.65,4.12,4.12,0,0,1,.52.24,3.09,3.09,0,0,1,.65-.81,3.43,3.43,0,0,1,2.13-.86,2.5,2.5,0,0,1,.48-.52,5.72,5.72,0,0,1,1.76-1,3.25,3.25,0,0,1,2.86-.34,3,3,0,0,1,1,.61,3.09,3.09,0,0,1,.43-.85l-2.94-.58-12.56,4.62-1.88.69Z"/><path class="cls-9" d="M357.41,156.93a3.35,3.35,0,0,1,1.94-.85,2.68,2.68,0,0,1,.22-2.28,2.37,2.37,0,0,0-.91-.23,3.22,3.22,0,0,1-2.54,2.4h-.05a2.79,2.79,0,0,1-1.64,3.19l-.08,0,2.07.35A3,3,0,0,1,357.41,156.93Z"/><path class="cls-9" d="M350.34,157.86a2.5,2.5,0,0,1-.29-.9,4.21,4.21,0,0,1-.5,0,3,3,0,0,1-.62,1.36l2,.34A2.86,2.86,0,0,1,350.34,157.86Z"/><path class="cls-9" d="M363.84,157.62l-.24.12a3.37,3.37,0,0,1-.8.25,2.91,2.91,0,0,1,.2,1.67l1.24-.46A2.65,2.65,0,0,1,363.84,157.62Z"/><path class="cls-10" d="M351.19,151.44a3.25,3.25,0,0,0-2.86.34,2.55,2.55,0,0,1,.46-.14c.38,1.69-2.16,3.27-2.82,3h0a.43.43,0,0,1-.5.05l-.19-.89.54-.11.05.19a1.47,1.47,0,0,1,.23-.55,3.43,3.43,0,0,0-2.13.86,3.09,3.09,0,0,0-.65.81,4.12,4.12,0,0,0-.52-.24,3.14,3.14,0,0,0-4,1.65s0,.09-.05.14l10.15,1.74a3,3,0,0,0,.62-1.36,4.21,4.21,0,0,0,.5,0,2.5,2.5,0,0,0,.29.9,2.86,2.86,0,0,0,.57.76l3.44.59.08,0a2.79,2.79,0,0,0,1.64-3.19h.05a3.22,3.22,0,0,0,2.54-2.4,2.76,2.76,0,0,0,0-1.18.52.52,0,0,1,0-.11,2.76,2.76,0,0,0-.33-.81c-1,.22-2,.11-2.18-.19h0c-.15,0-.38,0-.46-.2l.34-.85.52.17-.06.18a1.47,1.47,0,0,1,.51-.35,3.49,3.49,0,0,0-2.31-.31,3.33,3.33,0,0,0-2,1.29,3.09,3.09,0,0,0-.43.85A3,3,0,0,0,351.19,151.44Zm1.21,3.68s-.95-1.81,1.84-3.2A2.73,2.73,0,0,1,352.4,155.12Z"/><path class="cls-10" d="M359.57,153.8a2.68,2.68,0,0,0-.22,2.28,3.35,3.35,0,0,0-1.94.85,3,3,0,0,0-1,2.63l4.65.8,1.93-.7a2.91,2.91,0,0,0-.2-1.67,3.37,3.37,0,0,0,.8-.25l.24-.12a2.65,2.65,0,0,0,.4,1.58l5.64-2a2.94,2.94,0,0,0-1.89-2,3.24,3.24,0,0,0-2.68.23,2.7,2.7,0,0,0-.31-1.42,2.39,2.39,0,0,0-.21-.34,3,3,0,0,0-1.68-1.14,2.51,2.51,0,0,1-1.54,1.25,1.84,1.84,0,0,1-.08-1.28,4,4,0,0,0-.58.2l-.3.16A3,3,0,0,0,359.57,153.8Zm2.67.59c.38,1.69-2.16,3.27-2.82,3h0a.45.45,0,0,1-.5.05l-.19-.89.53-.11.06.19a1.85,1.85,0,0,1,.71-1.07A5.16,5.16,0,0,1,362.24,154.39Z"/><path class="cls-11" d="M361.57,153.69a2.51,2.51,0,0,0,1.54-1.25,3,3,0,0,0,.3-1.95,3.31,3.31,0,0,0-1.92,1.92A1.84,1.84,0,0,0,361.57,153.69Z"/><path class="cls-12" d="M356.16,151.16a1.27,1.27,0,0,1,.33-.59l.06-.18-.52-.17-.34.85c.08.19.31.21.46.2C356.14,151.26,356.15,151.22,356.16,151.16Z"/><path class="cls-13" d="M356.15,151.28c.22.3,1.22.41,2.18.19a2.56,2.56,0,0,0,1.91-1.36Z"/><path class="cls-13" d="M356.16,151.16c0,.06,0,.1,0,.11h0A1.09,1.09,0,0,1,356.16,151.16Z"/><path class="cls-14" d="M356.16,151.16a1.09,1.09,0,0,0,0,.12l4.09-1.17a5.5,5.5,0,0,0-2.55-.1,2.69,2.69,0,0,0-.69.21,1.47,1.47,0,0,0-.51.35A1.27,1.27,0,0,0,356.16,151.16Z"/><path class="cls-12" d="M345.91,154.53a1.18,1.18,0,0,1-.05-.66l-.05-.19-.54.11.19.89a.43.43,0,0,0,.5-.05A.28.28,0,0,1,345.91,154.53Z"/><path class="cls-13" d="M346,154.64c.66.27,3.2-1.31,2.82-3Z"/><path class="cls-13" d="M345.91,154.53a.28.28,0,0,0,0,.1h0A.58.58,0,0,1,345.91,154.53Z"/><path class="cls-14" d="M345.91,154.53a.58.58,0,0,0,.06.11l2.82-3a2.55,2.55,0,0,0-.46.14,5.72,5.72,0,0,0-1.76,1,2.5,2.5,0,0,0-.48.52,1.47,1.47,0,0,0-.23.55A1.18,1.18,0,0,0,345.91,154.53Z"/><path class="cls-12" d="M359.36,157.28a1.18,1.18,0,0,1-.05-.66l-.06-.19-.53.11.19.89a.45.45,0,0,0,.5-.05A.28.28,0,0,1,359.36,157.28Z"/><path class="cls-13" d="M359.42,157.39c.66.27,3.2-1.31,2.82-3Z"/><path class="cls-13" d="M359.36,157.28a.28.28,0,0,0,.05.1h0A.58.58,0,0,1,359.36,157.28Z"/><path class="cls-14" d="M360,155.55a1.85,1.85,0,0,0-.71,1.07,1.18,1.18,0,0,0,.05.66.58.58,0,0,0,.06.11l2.82-3A5.16,5.16,0,0,0,360,155.55Z"/><path class="cls-11" d="M352.4,155.12a2.73,2.73,0,0,0,1.84-3.2C351.45,153.31,352.4,155.12,352.4,155.12Z"/><path class="cls-29" d="M361,171.69l0-3.48-.16.06v-.35l-25.72-4.73-.06,2.84C336.91,166.43,359.87,171.42,361,171.69Z"/><path class="cls-29" d="M360.91,162.68v-.11l.15-.06v-2.15l-4.65-.8-2.07-.35-3.44-.59-2-.34-10.15-1.74-3.51-.61,0,3Z"/><path class="cls-30" d="M361,171.69h0l13-5.4.18-3.42L361,168.21Z"/><path class="cls-30" d="M364.24,159.2l-1.24.46-1.93.7v2.15c1.37-.48,11.81-4.19,13.41-4.77l.13-2.3h0l-4.71,1.71Z"/><polygon class="cls-31" points="360.86 167.92 360.91 162.68 335.22 158.91 334.8 158.84 334.76 163.12 335.14 163.19 360.86 167.92"/><path class="cls-31" d="M361,171.71h0c-1.11-.27-24.07-5.26-25.9-5.66l-.11,0,0,3.07v1.49l25.83,6.67v-5.44Z"/><path class="cls-28" d="M361.06,162.51l-.15.06v.11l-.05,5.24v.35l.16-.06,13.19-5.32.22-.08.25-5.15-.2.08C372.87,158.32,362.43,162,361.06,162.51Z"/><path class="cls-28" d="M360.83,171.79v5.53l10.61-4.94a4.44,4.44,0,0,1,.19-.55,3.38,3.38,0,0,1-2.69-1.85,6.38,6.38,0,0,1,3.37-.45,3.32,3.32,0,0,1,.94.23,4.38,4.38,0,0,1,1-.52l0-3-.26.1-13,5.4Z"/><path class="cls-10" d="M382.42,160.71a3,3,0,0,0-.75-.22,3,3,0,0,1,.05,1.83,3.12,3.12,0,0,1-2.06-1.62,4,4,0,0,0-2.2,2.35,4.21,4.21,0,0,0,2.18,5.31,3.74,3.74,0,0,0,5-2.34A4.2,4.2,0,0,0,382.42,160.71Z"/><path class="cls-11" d="M381.72,162.32a3,3,0,0,0-.05-1.83,4.45,4.45,0,0,0-2.61-2.55,4.82,4.82,0,0,0,.6,2.76A3.12,3.12,0,0,0,381.72,162.32Z"/><path class="cls-10" d="M373.25,169.76a2.1,2.1,0,0,1,.72.48l-.1-.27.66-.32.56,1.25a.57.57,0,0,1-.58.37h0c-.26.49-1.57.77-2.88.55a4.44,4.44,0,0,0-.19.55,5.4,5.4,0,0,0-.14.72,4.7,4.7,0,0,0,3.81,5.34,4.49,4.49,0,0,0,5-4.09,4.69,4.69,0,0,0-3.81-5.33,4,4,0,0,0-2,.22A4.38,4.38,0,0,0,373.25,169.76Z"/><path class="cls-12" d="M374.47,171.11a.57.57,0,0,1,0,.16.57.57,0,0,0,.58-.37l-.56-1.25-.66.32.1.27A1.85,1.85,0,0,1,374.47,171.11Z"/><path class="cls-13" d="M374.51,171.28l-5.57-1.3a3.38,3.38,0,0,0,2.69,1.85C372.94,172.05,374.25,171.77,374.51,171.28Z"/><path class="cls-13" d="M374.47,171.11c0,.11,0,.17,0,.17h0A.57.57,0,0,0,374.47,171.11Z"/><path class="cls-14" d="M374.51,171.28s0-.06,0-.17a1.85,1.85,0,0,0-.5-.87,2.1,2.1,0,0,0-.72-.48,3.32,3.32,0,0,0-.94-.23,6.38,6.38,0,0,0-3.37.45Z"/><path class="cls-10" d="M324.94,179.81a3.67,3.67,0,0,0-2.65.65,1.82,1.82,0,0,1,.63.42l-.08-.24.58-.28.48,1.1a.49.49,0,0,1-.51.32h0c-.22.42-1.37.67-2.52.48a4.49,4.49,0,0,0-.29,1.12,4.13,4.13,0,0,0,3.34,4.67,3.94,3.94,0,0,0,4.35-3.58A4.11,4.11,0,0,0,324.94,179.81Z"/><path class="cls-12" d="M323.36,181.64a.22.22,0,0,1,0,.14.49.49,0,0,0,.51-.32l-.48-1.1-.58.28.08.24A1.61,1.61,0,0,1,323.36,181.64Z"/><path class="cls-13" d="M323.39,181.79l-4.87-1.13a3,3,0,0,0,2.35,1.61C322,182.46,323.17,182.21,323.39,181.79Z"/><path class="cls-13" d="M323.36,181.64a.53.53,0,0,1,0,.15h0A.22.22,0,0,0,323.36,181.64Z"/><path class="cls-14" d="M323.39,181.79a.53.53,0,0,0,0-.15,1.61,1.61,0,0,0-.44-.76,1.82,1.82,0,0,0-.63-.42,2.81,2.81,0,0,0-.82-.2,5.58,5.58,0,0,0-3,.4Z"/></g></g></svg>